<?xml version="1.0" encoding="utf-8" standalone="no"?>
<!DOCTYPE svg PUBLIC "-//W3C//DTD SVG 1.1//EN"
  "http://www.w3.org/Graphics/SVG/1.1/DTD/svg11.dtd">
<svg xmlns:xlink="http://www.w3.org/1999/xlink" width="720pt" height="576pt" viewBox="0 0 720 576" xmlns="http://www.w3.org/2000/svg" version="1.1">
 <metadata>
  <rdf:RDF xmlns:dc="http://purl.org/dc/elements/1.1/" xmlns:cc="http://creativecommons.org/ns#" xmlns:rdf="http://www.w3.org/1999/02/22-rdf-syntax-ns#">
   <cc:Work>
    <dc:type rdf:resource="http://purl.org/dc/dcmitype/StillImage"/>
    <dc:date>2024-11-27T19:43:39.472508</dc:date>
    <dc:format>image/svg+xml</dc:format>
    <dc:creator>
     <cc:Agent>
      <dc:title>Matplotlib v3.9.2, https://matplotlib.org/</dc:title>
     </cc:Agent>
    </dc:creator>
   </cc:Work>
  </rdf:RDF>
 </metadata>
 <defs>
  <style type="text/css">*{stroke-linejoin: round; stroke-linecap: butt}</style>
 </defs>
 <g id="figure_1">
  <g id="patch_1">
   <path d="M 0 576 
L 720 576 
L 720 0 
L 0 0 
z
" style="fill: #ffffff"/>
  </g>
  <g id="axes_1">
   <g id="patch_2">
    <path d="M 60.77 530.44 
L 709.2 530.44 
L 709.2 106.75725 
L 60.77 106.75725 
z
" style="fill: #ffffff"/>
   </g>
   <g id="PathCollection_1">
    <defs>
     <path id="m9845972b51" d="M 0 3 
C 0.795609 3 1.55874 2.683901 2.12132 2.12132 
C 2.683901 1.55874 3 0.795609 3 0 
C 3 -0.795609 2.683901 -1.55874 2.12132 -2.12132 
C 1.55874 -2.683901 0.795609 -3 0 -3 
C -0.795609 -3 -1.55874 -2.683901 -2.12132 -2.12132 
C -2.683901 -1.55874 -3 -0.795609 -3 0 
C -3 0.795609 -2.683901 1.55874 -2.12132 2.12132 
C -1.55874 2.683901 -0.795609 3 0 3 
z
" style="stroke: #ffffff; stroke-opacity: 0.7; stroke-width: 0.48"/>
    </defs>
    <g clip-path="url(#p3e222fd8f3)">
     <use xlink:href="#m9845972b51" x="673.244884" y="126.015557" style="fill: #e41a1c; fill-opacity: 0.7; stroke: #ffffff; stroke-opacity: 0.7; stroke-width: 0.48"/>
     <use xlink:href="#m9845972b51" x="673.244884" y="205.597315" style="fill: #e41a1c; fill-opacity: 0.7; stroke: #ffffff; stroke-opacity: 0.7; stroke-width: 0.48"/>
     <use xlink:href="#m9845972b51" x="673.244884" y="222.601872" style="fill: #e41a1c; fill-opacity: 0.7; stroke: #ffffff; stroke-opacity: 0.7; stroke-width: 0.48"/>
     <use xlink:href="#m9845972b51" x="679.725909" y="238.72647" style="fill: #e41a1c; fill-opacity: 0.7; stroke: #ffffff; stroke-opacity: 0.7; stroke-width: 0.48"/>
     <use xlink:href="#m9845972b51" x="673.244884" y="287.114607" style="fill: #e41a1c; fill-opacity: 0.7; stroke: #ffffff; stroke-opacity: 0.7; stroke-width: 0.48"/>
     <use xlink:href="#m9845972b51" x="255.005967" y="406.781873" style="fill: #e41a1c; fill-opacity: 0.7; stroke: #ffffff; stroke-opacity: 0.7; stroke-width: 0.48"/>
     <use xlink:href="#m9845972b51" x="255.005967" y="417.553714" style="fill: #e41a1c; fill-opacity: 0.7; stroke: #ffffff; stroke-opacity: 0.7; stroke-width: 0.48"/>
     <use xlink:href="#m9845972b51" x="255.005967" y="418.127577" style="fill: #e41a1c; fill-opacity: 0.7; stroke: #ffffff; stroke-opacity: 0.7; stroke-width: 0.48"/>
     <use xlink:href="#m9845972b51" x="255.005967" y="418.972903" style="fill: #e41a1c; fill-opacity: 0.7; stroke: #ffffff; stroke-opacity: 0.7; stroke-width: 0.48"/>
     <use xlink:href="#m9845972b51" x="255.005967" y="423.111279" style="fill: #e41a1c; fill-opacity: 0.7; stroke: #ffffff; stroke-opacity: 0.7; stroke-width: 0.48"/>
     <use xlink:href="#m9845972b51" x="679.725909" y="457.768846" style="fill: #e41a1c; fill-opacity: 0.7; stroke: #ffffff; stroke-opacity: 0.7; stroke-width: 0.48"/>
     <use xlink:href="#m9845972b51" x="189.849397" y="459.79354" style="fill: #e41a1c; fill-opacity: 0.7; stroke: #ffffff; stroke-opacity: 0.7; stroke-width: 0.48"/>
     <use xlink:href="#m9845972b51" x="673.244884" y="479.823186" style="fill: #e41a1c; fill-opacity: 0.7; stroke: #ffffff; stroke-opacity: 0.7; stroke-width: 0.48"/>
     <use xlink:href="#m9845972b51" x="189.849397" y="491.24538" style="fill: #e41a1c; fill-opacity: 0.7; stroke: #ffffff; stroke-opacity: 0.7; stroke-width: 0.48"/>
     <use xlink:href="#m9845972b51" x="90.244091" y="491.704301" style="fill: #e41a1c; fill-opacity: 0.7; stroke: #ffffff; stroke-opacity: 0.7; stroke-width: 0.48"/>
     <use xlink:href="#m9845972b51" x="90.244091" y="499.86553" style="fill: #e41a1c; fill-opacity: 0.7; stroke: #ffffff; stroke-opacity: 0.7; stroke-width: 0.48"/>
     <use xlink:href="#m9845972b51" x="90.244091" y="502.757946" style="fill: #e41a1c; fill-opacity: 0.7; stroke: #ffffff; stroke-opacity: 0.7; stroke-width: 0.48"/>
     <use xlink:href="#m9845972b51" x="101.458182" y="504.584601" style="fill: #e41a1c; fill-opacity: 0.7; stroke: #ffffff; stroke-opacity: 0.7; stroke-width: 0.48"/>
    </g>
   </g>
   <g id="PolyCollection_1">
    <path d="M 90.244091 471.017347 
L 90.244091 511.181693 
L 96.198453 508.163474 
L 102.152815 505.193553 
L 108.107176 502.23866 
L 114.061538 499.231047 
L 120.0159 496.139513 
L 125.970262 493.137806 
L 131.924624 490.280289 
L 137.878985 487.565326 
L 143.833347 485.18895 
L 149.787709 482.694555 
L 155.742071 480.310873 
L 161.696433 477.809403 
L 167.650794 475.542661 
L 173.605156 473.530797 
L 179.559518 471.762339 
L 185.51388 469.917701 
L 191.468242 468.247395 
L 197.422603 467.046746 
L 203.376965 465.593273 
L 209.331327 464.062706 
L 215.285689 462.741155 
L 221.240051 461.453685 
L 227.194412 460.176263 
L 233.148774 458.725378 
L 239.103136 457.358516 
L 245.057498 456.191766 
L 251.01186 454.948004 
L 256.966221 453.676787 
L 262.920583 452.442427 
L 268.874945 451.149915 
L 274.829307 449.835135 
L 280.783669 448.590157 
L 286.73803 447.685614 
L 292.692392 446.495618 
L 298.646754 445.313457 
L 304.601116 444.675666 
L 310.555478 443.441514 
L 316.509839 441.934178 
L 322.464201 440.527173 
L 328.418563 439.333483 
L 334.372925 438.139794 
L 340.327287 436.946105 
L 346.281648 435.794231 
L 352.23601 434.99538 
L 358.190372 434.196529 
L 364.144734 433.329702 
L 370.099096 432.238763 
L 376.053457 431.384424 
L 382.007819 430.524589 
L 387.962181 429.452524 
L 393.916543 428.497548 
L 399.870904 427.426678 
L 405.825266 426.350029 
L 411.779628 425.269888 
L 417.73399 424.189747 
L 423.688352 423.109606 
L 429.642713 422.029465 
L 435.597075 420.949324 
L 441.551437 419.869182 
L 447.505799 418.789041 
L 453.460161 417.7089 
L 459.414522 416.628759 
L 465.368884 415.548618 
L 471.323246 414.468477 
L 477.277608 413.383261 
L 483.23197 412.252456 
L 489.186331 411.121652 
L 495.140693 409.990848 
L 501.095055 409.0056 
L 507.049417 408.089208 
L 513.003779 407.241931 
L 518.95814 406.362004 
L 524.912502 405.482077 
L 530.866864 404.60215 
L 536.821226 403.722223 
L 542.775588 402.842296 
L 548.729949 401.962368 
L 554.684311 401.082441 
L 560.638673 400.202514 
L 566.593035 399.322587 
L 572.547397 398.441472 
L 578.501758 397.554174 
L 584.45612 396.632052 
L 590.410482 395.511055 
L 596.364844 394.390057 
L 602.319206 393.26906 
L 608.273567 392.148063 
L 614.227929 391.027065 
L 620.182291 389.906068 
L 626.136653 388.785071 
L 632.091015 387.664073 
L 638.045376 386.543076 
L 643.999738 385.422079 
L 649.9541 384.301081 
L 655.908462 383.482891 
L 661.862824 382.810545 
L 667.817185 382.138199 
L 673.771547 381.465852 
L 679.725909 380.793506 
L 679.725909 198.900565 
L 679.725909 198.900565 
L 673.771547 201.988496 
L 667.817185 205.076427 
L 661.862824 208.164358 
L 655.908462 211.252288 
L 649.9541 214.334136 
L 643.999738 217.403501 
L 638.045376 220.472867 
L 632.091015 223.542232 
L 626.136653 226.611598 
L 620.182291 229.680964 
L 614.227929 232.750329 
L 608.273567 235.819695 
L 602.319206 238.88906 
L 596.364844 241.958426 
L 590.410482 245.027791 
L 584.45612 248.097157 
L 578.501758 251.166523 
L 572.547397 254.235888 
L 566.593035 257.305254 
L 560.638673 260.374705 
L 554.684311 263.527524 
L 548.729949 266.836812 
L 542.775588 269.924311 
L 536.821226 273.011287 
L 530.866864 276.098834 
L 524.912502 279.186764 
L 518.95814 282.274695 
L 513.003779 285.362626 
L 507.049417 288.450556 
L 501.095055 291.538487 
L 495.140693 294.626418 
L 489.186331 297.714349 
L 483.23197 300.802279 
L 477.277608 303.89021 
L 471.323246 306.979696 
L 465.368884 310.079554 
L 459.414522 313.28708 
L 453.460161 316.494682 
L 447.505799 319.702284 
L 441.551437 322.909887 
L 435.597075 326.117489 
L 429.642713 329.325091 
L 423.688352 332.532694 
L 417.73399 335.740296 
L 411.779628 338.947898 
L 405.825266 342.155501 
L 399.870904 345.363103 
L 393.916543 348.570705 
L 387.962181 351.778308 
L 382.007819 354.938233 
L 376.053457 358.01911 
L 370.099096 361.08128 
L 364.144734 364.114421 
L 358.190372 367.156065 
L 352.23601 370.19795 
L 346.281648 373.26141 
L 340.327287 376.489919 
L 334.372925 379.717521 
L 328.418563 382.891151 
L 322.464201 385.837562 
L 316.509839 388.833888 
L 310.555478 391.720586 
L 304.601116 394.615508 
L 298.646754 397.629703 
L 292.692392 400.642658 
L 286.73803 403.60673 
L 280.783669 406.641382 
L 274.829307 409.686498 
L 268.874945 412.671747 
L 262.920583 415.540594 
L 256.966221 418.642652 
L 251.01186 421.492131 
L 245.057498 424.067622 
L 239.103136 426.862778 
L 233.148774 429.549368 
L 227.194412 431.97659 
L 221.240051 434.568271 
L 215.285689 437.035099 
L 209.331327 439.308798 
L 203.376965 441.627892 
L 197.422603 443.769049 
L 191.468242 445.710333 
L 185.51388 447.804787 
L 179.559518 449.416595 
L 173.605156 450.886004 
L 167.650794 452.505929 
L 161.696433 454.206472 
L 155.742071 455.417594 
L 149.787709 456.610595 
L 143.833347 458.090337 
L 137.878985 459.625173 
L 131.924624 460.919049 
L 125.970262 462.253999 
L 120.0159 463.833776 
L 114.061538 465.455771 
L 108.107176 466.971004 
L 102.152815 468.250381 
L 96.198453 469.631701 
L 90.244091 471.017347 
z
" clip-path="url(#p3e222fd8f3)" style="fill: #e41a1c; fill-opacity: 0.15"/>
   </g>
   <g id="matplotlib.axis_1">
    <g id="xtick_1">
     <g id="line2d_1">
      <path d="M 136.345943 530.44 
L 136.345943 106.75725 
" clip-path="url(#p3e222fd8f3)" style="fill: none; stroke-dasharray: 2.96,1.28; stroke-dashoffset: 0; stroke: #b0b0b0; stroke-opacity: 0.6; stroke-width: 0.8"/>
     </g>
     <g id="line2d_2">
      <defs>
       <path id="m39cc0827ef" d="M 0 0 
L 0 3.5 
" style="stroke: #000000; stroke-width: 0.8"/>
      </defs>
      <g>
       <use xlink:href="#m39cc0827ef" x="136.345943" y="530.44" style="stroke: #000000; stroke-width: 0.8"/>
      </g>
     </g>
     <g id="text_1">
      <!-- 500 -->
      <g transform="translate(126.802193 545.038437) scale(0.1 -0.1)">
       <defs>
        <path id="DejaVuSans-35" d="M 691 4666 
L 3169 4666 
L 3169 4134 
L 1269 4134 
L 1269 2991 
Q 1406 3038 1543 3061 
Q 1681 3084 1819 3084 
Q 2600 3084 3056 2656 
Q 3513 2228 3513 1497 
Q 3513 744 3044 326 
Q 2575 -91 1722 -91 
Q 1428 -91 1123 -41 
Q 819 9 494 109 
L 494 744 
Q 775 591 1075 516 
Q 1375 441 1709 441 
Q 2250 441 2565 725 
Q 2881 1009 2881 1497 
Q 2881 1984 2565 2268 
Q 2250 2553 1709 2553 
Q 1456 2553 1204 2497 
Q 953 2441 691 2322 
L 691 4666 
z
" transform="scale(0.015625)"/>
        <path id="DejaVuSans-30" d="M 2034 4250 
Q 1547 4250 1301 3770 
Q 1056 3291 1056 2328 
Q 1056 1369 1301 889 
Q 1547 409 2034 409 
Q 2525 409 2770 889 
Q 3016 1369 3016 2328 
Q 3016 3291 2770 3770 
Q 2525 4250 2034 4250 
z
M 2034 4750 
Q 2819 4750 3233 4129 
Q 3647 3509 3647 2328 
Q 3647 1150 3233 529 
Q 2819 -91 2034 -91 
Q 1250 -91 836 529 
Q 422 1150 422 2328 
Q 422 3509 836 4129 
Q 1250 4750 2034 4750 
z
" transform="scale(0.015625)"/>
       </defs>
       <use xlink:href="#DejaVuSans-35"/>
       <use xlink:href="#DejaVuSans-30" x="63.623047"/>
       <use xlink:href="#DejaVuSans-30" x="127.246094"/>
      </g>
     </g>
    </g>
    <g id="xtick_2">
     <g id="line2d_3">
      <path d="M 212.797179 530.44 
L 212.797179 106.75725 
" clip-path="url(#p3e222fd8f3)" style="fill: none; stroke-dasharray: 2.96,1.28; stroke-dashoffset: 0; stroke: #b0b0b0; stroke-opacity: 0.6; stroke-width: 0.8"/>
     </g>
     <g id="line2d_4">
      <g>
       <use xlink:href="#m39cc0827ef" x="212.797179" y="530.44" style="stroke: #000000; stroke-width: 0.8"/>
      </g>
     </g>
     <g id="text_2">
      <!-- 750 -->
      <g transform="translate(203.253429 545.038437) scale(0.1 -0.1)">
       <defs>
        <path id="DejaVuSans-37" d="M 525 4666 
L 3525 4666 
L 3525 4397 
L 1831 0 
L 1172 0 
L 2766 4134 
L 525 4134 
L 525 4666 
z
" transform="scale(0.015625)"/>
       </defs>
       <use xlink:href="#DejaVuSans-37"/>
       <use xlink:href="#DejaVuSans-35" x="63.623047"/>
       <use xlink:href="#DejaVuSans-30" x="127.246094"/>
      </g>
     </g>
    </g>
    <g id="xtick_3">
     <g id="line2d_5">
      <path d="M 289.248415 530.44 
L 289.248415 106.75725 
" clip-path="url(#p3e222fd8f3)" style="fill: none; stroke-dasharray: 2.96,1.28; stroke-dashoffset: 0; stroke: #b0b0b0; stroke-opacity: 0.6; stroke-width: 0.8"/>
     </g>
     <g id="line2d_6">
      <g>
       <use xlink:href="#m39cc0827ef" x="289.248415" y="530.44" style="stroke: #000000; stroke-width: 0.8"/>
      </g>
     </g>
     <g id="text_3">
      <!-- 1000 -->
      <g transform="translate(276.523415 545.038437) scale(0.1 -0.1)">
       <defs>
        <path id="DejaVuSans-31" d="M 794 531 
L 1825 531 
L 1825 4091 
L 703 3866 
L 703 4441 
L 1819 4666 
L 2450 4666 
L 2450 531 
L 3481 531 
L 3481 0 
L 794 0 
L 794 531 
z
" transform="scale(0.015625)"/>
       </defs>
       <use xlink:href="#DejaVuSans-31"/>
       <use xlink:href="#DejaVuSans-30" x="63.623047"/>
       <use xlink:href="#DejaVuSans-30" x="127.246094"/>
       <use xlink:href="#DejaVuSans-30" x="190.869141"/>
      </g>
     </g>
    </g>
    <g id="xtick_4">
     <g id="line2d_7">
      <path d="M 365.699651 530.44 
L 365.699651 106.75725 
" clip-path="url(#p3e222fd8f3)" style="fill: none; stroke-dasharray: 2.96,1.28; stroke-dashoffset: 0; stroke: #b0b0b0; stroke-opacity: 0.6; stroke-width: 0.8"/>
     </g>
     <g id="line2d_8">
      <g>
       <use xlink:href="#m39cc0827ef" x="365.699651" y="530.44" style="stroke: #000000; stroke-width: 0.8"/>
      </g>
     </g>
     <g id="text_4">
      <!-- 1250 -->
      <g transform="translate(352.974651 545.038437) scale(0.1 -0.1)">
       <defs>
        <path id="DejaVuSans-32" d="M 1228 531 
L 3431 531 
L 3431 0 
L 469 0 
L 469 531 
Q 828 903 1448 1529 
Q 2069 2156 2228 2338 
Q 2531 2678 2651 2914 
Q 2772 3150 2772 3378 
Q 2772 3750 2511 3984 
Q 2250 4219 1831 4219 
Q 1534 4219 1204 4116 
Q 875 4013 500 3803 
L 500 4441 
Q 881 4594 1212 4672 
Q 1544 4750 1819 4750 
Q 2544 4750 2975 4387 
Q 3406 4025 3406 3419 
Q 3406 3131 3298 2873 
Q 3191 2616 2906 2266 
Q 2828 2175 2409 1742 
Q 1991 1309 1228 531 
z
" transform="scale(0.015625)"/>
       </defs>
       <use xlink:href="#DejaVuSans-31"/>
       <use xlink:href="#DejaVuSans-32" x="63.623047"/>
       <use xlink:href="#DejaVuSans-35" x="127.246094"/>
       <use xlink:href="#DejaVuSans-30" x="190.869141"/>
      </g>
     </g>
    </g>
    <g id="xtick_5">
     <g id="line2d_9">
      <path d="M 442.150887 530.44 
L 442.150887 106.75725 
" clip-path="url(#p3e222fd8f3)" style="fill: none; stroke-dasharray: 2.96,1.28; stroke-dashoffset: 0; stroke: #b0b0b0; stroke-opacity: 0.6; stroke-width: 0.8"/>
     </g>
     <g id="line2d_10">
      <g>
       <use xlink:href="#m39cc0827ef" x="442.150887" y="530.44" style="stroke: #000000; stroke-width: 0.8"/>
      </g>
     </g>
     <g id="text_5">
      <!-- 1500 -->
      <g transform="translate(429.425887 545.038437) scale(0.1 -0.1)">
       <use xlink:href="#DejaVuSans-31"/>
       <use xlink:href="#DejaVuSans-35" x="63.623047"/>
       <use xlink:href="#DejaVuSans-30" x="127.246094"/>
       <use xlink:href="#DejaVuSans-30" x="190.869141"/>
      </g>
     </g>
    </g>
    <g id="xtick_6">
     <g id="line2d_11">
      <path d="M 518.602123 530.44 
L 518.602123 106.75725 
" clip-path="url(#p3e222fd8f3)" style="fill: none; stroke-dasharray: 2.96,1.28; stroke-dashoffset: 0; stroke: #b0b0b0; stroke-opacity: 0.6; stroke-width: 0.8"/>
     </g>
     <g id="line2d_12">
      <g>
       <use xlink:href="#m39cc0827ef" x="518.602123" y="530.44" style="stroke: #000000; stroke-width: 0.8"/>
      </g>
     </g>
     <g id="text_6">
      <!-- 1750 -->
      <g transform="translate(505.877123 545.038437) scale(0.1 -0.1)">
       <use xlink:href="#DejaVuSans-31"/>
       <use xlink:href="#DejaVuSans-37" x="63.623047"/>
       <use xlink:href="#DejaVuSans-35" x="127.246094"/>
       <use xlink:href="#DejaVuSans-30" x="190.869141"/>
      </g>
     </g>
    </g>
    <g id="xtick_7">
     <g id="line2d_13">
      <path d="M 595.053359 530.44 
L 595.053359 106.75725 
" clip-path="url(#p3e222fd8f3)" style="fill: none; stroke-dasharray: 2.96,1.28; stroke-dashoffset: 0; stroke: #b0b0b0; stroke-opacity: 0.6; stroke-width: 0.8"/>
     </g>
     <g id="line2d_14">
      <g>
       <use xlink:href="#m39cc0827ef" x="595.053359" y="530.44" style="stroke: #000000; stroke-width: 0.8"/>
      </g>
     </g>
     <g id="text_7">
      <!-- 2000 -->
      <g transform="translate(582.328359 545.038437) scale(0.1 -0.1)">
       <use xlink:href="#DejaVuSans-32"/>
       <use xlink:href="#DejaVuSans-30" x="63.623047"/>
       <use xlink:href="#DejaVuSans-30" x="127.246094"/>
       <use xlink:href="#DejaVuSans-30" x="190.869141"/>
      </g>
     </g>
    </g>
    <g id="xtick_8">
     <g id="line2d_15">
      <path d="M 671.504595 530.44 
L 671.504595 106.75725 
" clip-path="url(#p3e222fd8f3)" style="fill: none; stroke-dasharray: 2.96,1.28; stroke-dashoffset: 0; stroke: #b0b0b0; stroke-opacity: 0.6; stroke-width: 0.8"/>
     </g>
     <g id="line2d_16">
      <g>
       <use xlink:href="#m39cc0827ef" x="671.504595" y="530.44" style="stroke: #000000; stroke-width: 0.8"/>
      </g>
     </g>
     <g id="text_8">
      <!-- 2250 -->
      <g transform="translate(658.779595 545.038437) scale(0.1 -0.1)">
       <use xlink:href="#DejaVuSans-32"/>
       <use xlink:href="#DejaVuSans-32" x="63.623047"/>
       <use xlink:href="#DejaVuSans-35" x="127.246094"/>
       <use xlink:href="#DejaVuSans-30" x="190.869141"/>
      </g>
     </g>
    </g>
    <g id="text_9">
     <!-- X Surface Area (mm) -->
     <g transform="translate(311.643594 561.755937) scale(0.14 -0.14)">
      <defs>
       <path id="DejaVuSans-58" d="M 403 4666 
L 1081 4666 
L 2241 2931 
L 3406 4666 
L 4084 4666 
L 2584 2425 
L 4184 0 
L 3506 0 
L 2194 1984 
L 872 0 
L 191 0 
L 1856 2491 
L 403 4666 
z
" transform="scale(0.015625)"/>
       <path id="DejaVuSans-20" transform="scale(0.015625)"/>
       <path id="DejaVuSans-53" d="M 3425 4513 
L 3425 3897 
Q 3066 4069 2747 4153 
Q 2428 4238 2131 4238 
Q 1616 4238 1336 4038 
Q 1056 3838 1056 3469 
Q 1056 3159 1242 3001 
Q 1428 2844 1947 2747 
L 2328 2669 
Q 3034 2534 3370 2195 
Q 3706 1856 3706 1288 
Q 3706 609 3251 259 
Q 2797 -91 1919 -91 
Q 1588 -91 1214 -16 
Q 841 59 441 206 
L 441 856 
Q 825 641 1194 531 
Q 1563 422 1919 422 
Q 2459 422 2753 634 
Q 3047 847 3047 1241 
Q 3047 1584 2836 1778 
Q 2625 1972 2144 2069 
L 1759 2144 
Q 1053 2284 737 2584 
Q 422 2884 422 3419 
Q 422 4038 858 4394 
Q 1294 4750 2059 4750 
Q 2388 4750 2728 4690 
Q 3069 4631 3425 4513 
z
" transform="scale(0.015625)"/>
       <path id="DejaVuSans-75" d="M 544 1381 
L 544 3500 
L 1119 3500 
L 1119 1403 
Q 1119 906 1312 657 
Q 1506 409 1894 409 
Q 2359 409 2629 706 
Q 2900 1003 2900 1516 
L 2900 3500 
L 3475 3500 
L 3475 0 
L 2900 0 
L 2900 538 
Q 2691 219 2414 64 
Q 2138 -91 1772 -91 
Q 1169 -91 856 284 
Q 544 659 544 1381 
z
M 1991 3584 
L 1991 3584 
z
" transform="scale(0.015625)"/>
       <path id="DejaVuSans-72" d="M 2631 2963 
Q 2534 3019 2420 3045 
Q 2306 3072 2169 3072 
Q 1681 3072 1420 2755 
Q 1159 2438 1159 1844 
L 1159 0 
L 581 0 
L 581 3500 
L 1159 3500 
L 1159 2956 
Q 1341 3275 1631 3429 
Q 1922 3584 2338 3584 
Q 2397 3584 2469 3576 
Q 2541 3569 2628 3553 
L 2631 2963 
z
" transform="scale(0.015625)"/>
       <path id="DejaVuSans-66" d="M 2375 4863 
L 2375 4384 
L 1825 4384 
Q 1516 4384 1395 4259 
Q 1275 4134 1275 3809 
L 1275 3500 
L 2222 3500 
L 2222 3053 
L 1275 3053 
L 1275 0 
L 697 0 
L 697 3053 
L 147 3053 
L 147 3500 
L 697 3500 
L 697 3744 
Q 697 4328 969 4595 
Q 1241 4863 1831 4863 
L 2375 4863 
z
" transform="scale(0.015625)"/>
       <path id="DejaVuSans-61" d="M 2194 1759 
Q 1497 1759 1228 1600 
Q 959 1441 959 1056 
Q 959 750 1161 570 
Q 1363 391 1709 391 
Q 2188 391 2477 730 
Q 2766 1069 2766 1631 
L 2766 1759 
L 2194 1759 
z
M 3341 1997 
L 3341 0 
L 2766 0 
L 2766 531 
Q 2569 213 2275 61 
Q 1981 -91 1556 -91 
Q 1019 -91 701 211 
Q 384 513 384 1019 
Q 384 1609 779 1909 
Q 1175 2209 1959 2209 
L 2766 2209 
L 2766 2266 
Q 2766 2663 2505 2880 
Q 2244 3097 1772 3097 
Q 1472 3097 1187 3025 
Q 903 2953 641 2809 
L 641 3341 
Q 956 3463 1253 3523 
Q 1550 3584 1831 3584 
Q 2591 3584 2966 3190 
Q 3341 2797 3341 1997 
z
" transform="scale(0.015625)"/>
       <path id="DejaVuSans-63" d="M 3122 3366 
L 3122 2828 
Q 2878 2963 2633 3030 
Q 2388 3097 2138 3097 
Q 1578 3097 1268 2742 
Q 959 2388 959 1747 
Q 959 1106 1268 751 
Q 1578 397 2138 397 
Q 2388 397 2633 464 
Q 2878 531 3122 666 
L 3122 134 
Q 2881 22 2623 -34 
Q 2366 -91 2075 -91 
Q 1284 -91 818 406 
Q 353 903 353 1747 
Q 353 2603 823 3093 
Q 1294 3584 2113 3584 
Q 2378 3584 2631 3529 
Q 2884 3475 3122 3366 
z
" transform="scale(0.015625)"/>
       <path id="DejaVuSans-65" d="M 3597 1894 
L 3597 1613 
L 953 1613 
Q 991 1019 1311 708 
Q 1631 397 2203 397 
Q 2534 397 2845 478 
Q 3156 559 3463 722 
L 3463 178 
Q 3153 47 2828 -22 
Q 2503 -91 2169 -91 
Q 1331 -91 842 396 
Q 353 884 353 1716 
Q 353 2575 817 3079 
Q 1281 3584 2069 3584 
Q 2775 3584 3186 3129 
Q 3597 2675 3597 1894 
z
M 3022 2063 
Q 3016 2534 2758 2815 
Q 2500 3097 2075 3097 
Q 1594 3097 1305 2825 
Q 1016 2553 972 2059 
L 3022 2063 
z
" transform="scale(0.015625)"/>
       <path id="DejaVuSans-41" d="M 2188 4044 
L 1331 1722 
L 3047 1722 
L 2188 4044 
z
M 1831 4666 
L 2547 4666 
L 4325 0 
L 3669 0 
L 3244 1197 
L 1141 1197 
L 716 0 
L 50 0 
L 1831 4666 
z
" transform="scale(0.015625)"/>
       <path id="DejaVuSans-28" d="M 1984 4856 
Q 1566 4138 1362 3434 
Q 1159 2731 1159 2009 
Q 1159 1288 1364 580 
Q 1569 -128 1984 -844 
L 1484 -844 
Q 1016 -109 783 600 
Q 550 1309 550 2009 
Q 550 2706 781 3412 
Q 1013 4119 1484 4856 
L 1984 4856 
z
" transform="scale(0.015625)"/>
       <path id="DejaVuSans-6d" d="M 3328 2828 
Q 3544 3216 3844 3400 
Q 4144 3584 4550 3584 
Q 5097 3584 5394 3201 
Q 5691 2819 5691 2113 
L 5691 0 
L 5113 0 
L 5113 2094 
Q 5113 2597 4934 2840 
Q 4756 3084 4391 3084 
Q 3944 3084 3684 2787 
Q 3425 2491 3425 1978 
L 3425 0 
L 2847 0 
L 2847 2094 
Q 2847 2600 2669 2842 
Q 2491 3084 2119 3084 
Q 1678 3084 1418 2786 
Q 1159 2488 1159 1978 
L 1159 0 
L 581 0 
L 581 3500 
L 1159 3500 
L 1159 2956 
Q 1356 3278 1631 3431 
Q 1906 3584 2284 3584 
Q 2666 3584 2933 3390 
Q 3200 3197 3328 2828 
z
" transform="scale(0.015625)"/>
       <path id="DejaVuSans-29" d="M 513 4856 
L 1013 4856 
Q 1481 4119 1714 3412 
Q 1947 2706 1947 2009 
Q 1947 1309 1714 600 
Q 1481 -109 1013 -844 
L 513 -844 
Q 928 -128 1133 580 
Q 1338 1288 1338 2009 
Q 1338 2731 1133 3434 
Q 928 4138 513 4856 
z
" transform="scale(0.015625)"/>
      </defs>
      <use xlink:href="#DejaVuSans-58"/>
      <use xlink:href="#DejaVuSans-20" x="68.505859"/>
      <use xlink:href="#DejaVuSans-53" x="100.292969"/>
      <use xlink:href="#DejaVuSans-75" x="163.769531"/>
      <use xlink:href="#DejaVuSans-72" x="227.148438"/>
      <use xlink:href="#DejaVuSans-66" x="268.261719"/>
      <use xlink:href="#DejaVuSans-61" x="303.466797"/>
      <use xlink:href="#DejaVuSans-63" x="364.746094"/>
      <use xlink:href="#DejaVuSans-65" x="419.726562"/>
      <use xlink:href="#DejaVuSans-20" x="481.25"/>
      <use xlink:href="#DejaVuSans-41" x="513.037109"/>
      <use xlink:href="#DejaVuSans-72" x="581.445312"/>
      <use xlink:href="#DejaVuSans-65" x="620.308594"/>
      <use xlink:href="#DejaVuSans-61" x="681.832031"/>
      <use xlink:href="#DejaVuSans-20" x="743.111328"/>
      <use xlink:href="#DejaVuSans-28" x="774.898438"/>
      <use xlink:href="#DejaVuSans-6d" x="813.912109"/>
      <use xlink:href="#DejaVuSans-6d" x="911.324219"/>
      <use xlink:href="#DejaVuSans-29" x="1008.736328"/>
     </g>
    </g>
   </g>
   <g id="matplotlib.axis_2">
    <g id="ytick_1">
     <g id="line2d_17">
      <path d="M 60.77 486.408556 
L 709.2 486.408556 
" clip-path="url(#p3e222fd8f3)" style="fill: none; stroke-dasharray: 2.96,1.28; stroke-dashoffset: 0; stroke: #b0b0b0; stroke-opacity: 0.6; stroke-width: 0.8"/>
     </g>
     <g id="line2d_18">
      <defs>
       <path id="m70271f33c9" d="M 0 0 
L -3.5 0 
" style="stroke: #000000; stroke-width: 0.8"/>
      </defs>
      <g>
       <use xlink:href="#m70271f33c9" x="60.77" y="486.408556" style="stroke: #000000; stroke-width: 0.8"/>
      </g>
     </g>
     <g id="text_10">
      <!-- 250 -->
      <g transform="translate(34.6825 490.207775) scale(0.1 -0.1)">
       <use xlink:href="#DejaVuSans-32"/>
       <use xlink:href="#DejaVuSans-35" x="63.623047"/>
       <use xlink:href="#DejaVuSans-30" x="127.246094"/>
      </g>
     </g>
    </g>
    <g id="ytick_2">
     <g id="line2d_19">
      <path d="M 60.77 438.774205 
L 709.2 438.774205 
" clip-path="url(#p3e222fd8f3)" style="fill: none; stroke-dasharray: 2.96,1.28; stroke-dashoffset: 0; stroke: #b0b0b0; stroke-opacity: 0.6; stroke-width: 0.8"/>
     </g>
     <g id="line2d_20">
      <g>
       <use xlink:href="#m70271f33c9" x="60.77" y="438.774205" style="stroke: #000000; stroke-width: 0.8"/>
      </g>
     </g>
     <g id="text_11">
      <!-- 500 -->
      <g transform="translate(34.6825 442.573424) scale(0.1 -0.1)">
       <use xlink:href="#DejaVuSans-35"/>
       <use xlink:href="#DejaVuSans-30" x="63.623047"/>
       <use xlink:href="#DejaVuSans-30" x="127.246094"/>
      </g>
     </g>
    </g>
    <g id="ytick_3">
     <g id="line2d_21">
      <path d="M 60.77 391.139854 
L 709.2 391.139854 
" clip-path="url(#p3e222fd8f3)" style="fill: none; stroke-dasharray: 2.96,1.28; stroke-dashoffset: 0; stroke: #b0b0b0; stroke-opacity: 0.6; stroke-width: 0.8"/>
     </g>
     <g id="line2d_22">
      <g>
       <use xlink:href="#m70271f33c9" x="60.77" y="391.139854" style="stroke: #000000; stroke-width: 0.8"/>
      </g>
     </g>
     <g id="text_12">
      <!-- 750 -->
      <g transform="translate(34.6825 394.939073) scale(0.1 -0.1)">
       <use xlink:href="#DejaVuSans-37"/>
       <use xlink:href="#DejaVuSans-35" x="63.623047"/>
       <use xlink:href="#DejaVuSans-30" x="127.246094"/>
      </g>
     </g>
    </g>
    <g id="ytick_4">
     <g id="line2d_23">
      <path d="M 60.77 343.505503 
L 709.2 343.505503 
" clip-path="url(#p3e222fd8f3)" style="fill: none; stroke-dasharray: 2.96,1.28; stroke-dashoffset: 0; stroke: #b0b0b0; stroke-opacity: 0.6; stroke-width: 0.8"/>
     </g>
     <g id="line2d_24">
      <g>
       <use xlink:href="#m70271f33c9" x="60.77" y="343.505503" style="stroke: #000000; stroke-width: 0.8"/>
      </g>
     </g>
     <g id="text_13">
      <!-- 1000 -->
      <g transform="translate(28.32 347.304722) scale(0.1 -0.1)">
       <use xlink:href="#DejaVuSans-31"/>
       <use xlink:href="#DejaVuSans-30" x="63.623047"/>
       <use xlink:href="#DejaVuSans-30" x="127.246094"/>
       <use xlink:href="#DejaVuSans-30" x="190.869141"/>
      </g>
     </g>
    </g>
    <g id="ytick_5">
     <g id="line2d_25">
      <path d="M 60.77 295.871152 
L 709.2 295.871152 
" clip-path="url(#p3e222fd8f3)" style="fill: none; stroke-dasharray: 2.96,1.28; stroke-dashoffset: 0; stroke: #b0b0b0; stroke-opacity: 0.6; stroke-width: 0.8"/>
     </g>
     <g id="line2d_26">
      <g>
       <use xlink:href="#m70271f33c9" x="60.77" y="295.871152" style="stroke: #000000; stroke-width: 0.8"/>
      </g>
     </g>
     <g id="text_14">
      <!-- 1250 -->
      <g transform="translate(28.32 299.670371) scale(0.1 -0.1)">
       <use xlink:href="#DejaVuSans-31"/>
       <use xlink:href="#DejaVuSans-32" x="63.623047"/>
       <use xlink:href="#DejaVuSans-35" x="127.246094"/>
       <use xlink:href="#DejaVuSans-30" x="190.869141"/>
      </g>
     </g>
    </g>
    <g id="ytick_6">
     <g id="line2d_27">
      <path d="M 60.77 248.236801 
L 709.2 248.236801 
" clip-path="url(#p3e222fd8f3)" style="fill: none; stroke-dasharray: 2.96,1.28; stroke-dashoffset: 0; stroke: #b0b0b0; stroke-opacity: 0.6; stroke-width: 0.8"/>
     </g>
     <g id="line2d_28">
      <g>
       <use xlink:href="#m70271f33c9" x="60.77" y="248.236801" style="stroke: #000000; stroke-width: 0.8"/>
      </g>
     </g>
     <g id="text_15">
      <!-- 1500 -->
      <g transform="translate(28.32 252.036019) scale(0.1 -0.1)">
       <use xlink:href="#DejaVuSans-31"/>
       <use xlink:href="#DejaVuSans-35" x="63.623047"/>
       <use xlink:href="#DejaVuSans-30" x="127.246094"/>
       <use xlink:href="#DejaVuSans-30" x="190.869141"/>
      </g>
     </g>
    </g>
    <g id="ytick_7">
     <g id="line2d_29">
      <path d="M 60.77 200.60245 
L 709.2 200.60245 
" clip-path="url(#p3e222fd8f3)" style="fill: none; stroke-dasharray: 2.96,1.28; stroke-dashoffset: 0; stroke: #b0b0b0; stroke-opacity: 0.6; stroke-width: 0.8"/>
     </g>
     <g id="line2d_30">
      <g>
       <use xlink:href="#m70271f33c9" x="60.77" y="200.60245" style="stroke: #000000; stroke-width: 0.8"/>
      </g>
     </g>
     <g id="text_16">
      <!-- 1750 -->
      <g transform="translate(28.32 204.401668) scale(0.1 -0.1)">
       <use xlink:href="#DejaVuSans-31"/>
       <use xlink:href="#DejaVuSans-37" x="63.623047"/>
       <use xlink:href="#DejaVuSans-35" x="127.246094"/>
       <use xlink:href="#DejaVuSans-30" x="190.869141"/>
      </g>
     </g>
    </g>
    <g id="ytick_8">
     <g id="line2d_31">
      <path d="M 60.77 152.968098 
L 709.2 152.968098 
" clip-path="url(#p3e222fd8f3)" style="fill: none; stroke-dasharray: 2.96,1.28; stroke-dashoffset: 0; stroke: #b0b0b0; stroke-opacity: 0.6; stroke-width: 0.8"/>
     </g>
     <g id="line2d_32">
      <g>
       <use xlink:href="#m70271f33c9" x="60.77" y="152.968098" style="stroke: #000000; stroke-width: 0.8"/>
      </g>
     </g>
     <g id="text_17">
      <!-- 2000 -->
      <g transform="translate(28.32 156.767317) scale(0.1 -0.1)">
       <use xlink:href="#DejaVuSans-32"/>
       <use xlink:href="#DejaVuSans-30" x="63.623047"/>
       <use xlink:href="#DejaVuSans-30" x="127.246094"/>
       <use xlink:href="#DejaVuSans-30" x="190.869141"/>
      </g>
     </g>
    </g>
    <g id="text_18">
     <!-- Y Surface Area (mm) -->
     <g transform="translate(21.408437 391.4205) rotate(-90) scale(0.14 -0.14)">
      <defs>
       <path id="DejaVuSans-59" d="M -13 4666 
L 666 4666 
L 1959 2747 
L 3244 4666 
L 3922 4666 
L 2272 2222 
L 2272 0 
L 1638 0 
L 1638 2222 
L -13 4666 
z
" transform="scale(0.015625)"/>
      </defs>
      <use xlink:href="#DejaVuSans-59"/>
      <use xlink:href="#DejaVuSans-20" x="61.083984"/>
      <use xlink:href="#DejaVuSans-53" x="92.871094"/>
      <use xlink:href="#DejaVuSans-75" x="156.347656"/>
      <use xlink:href="#DejaVuSans-72" x="219.726562"/>
      <use xlink:href="#DejaVuSans-66" x="260.839844"/>
      <use xlink:href="#DejaVuSans-61" x="296.044922"/>
      <use xlink:href="#DejaVuSans-63" x="357.324219"/>
      <use xlink:href="#DejaVuSans-65" x="412.304688"/>
      <use xlink:href="#DejaVuSans-20" x="473.828125"/>
      <use xlink:href="#DejaVuSans-41" x="505.615234"/>
      <use xlink:href="#DejaVuSans-72" x="574.023438"/>
      <use xlink:href="#DejaVuSans-65" x="612.886719"/>
      <use xlink:href="#DejaVuSans-61" x="674.410156"/>
      <use xlink:href="#DejaVuSans-20" x="735.689453"/>
      <use xlink:href="#DejaVuSans-28" x="767.476562"/>
      <use xlink:href="#DejaVuSans-6d" x="806.490234"/>
      <use xlink:href="#DejaVuSans-6d" x="903.902344"/>
      <use xlink:href="#DejaVuSans-29" x="1001.314453"/>
     </g>
    </g>
   </g>
   <g id="line2d_33">
    <path d="M 90.244091 492.371015 
L 96.198453 490.268804 
L 102.152815 488.166593 
L 108.107176 486.064382 
L 114.061538 483.962171 
L 120.0159 481.859961 
L 125.970262 479.75775 
L 131.924624 477.655539 
L 137.878985 475.553328 
L 143.833347 473.451117 
L 149.787709 471.348906 
L 155.742071 469.246696 
L 161.696433 467.144485 
L 167.650794 465.042274 
L 173.605156 462.940063 
L 179.559518 460.837852 
L 185.51388 458.735641 
L 191.468242 456.63343 
L 197.422603 454.53122 
L 203.376965 452.429009 
L 209.331327 450.326798 
L 215.285689 448.224587 
L 221.240051 446.122376 
L 227.194412 444.020165 
L 233.148774 441.917955 
L 239.103136 439.815744 
L 245.057498 437.713533 
L 251.01186 435.611322 
L 256.966221 433.509111 
L 262.920583 431.4069 
L 268.874945 429.304689 
L 274.829307 427.202479 
L 280.783669 425.100268 
L 286.73803 422.998057 
L 292.692392 420.895846 
L 298.646754 418.793635 
L 304.601116 416.691424 
L 310.555478 414.589213 
L 316.509839 412.487003 
L 322.464201 410.384792 
L 328.418563 408.282581 
L 334.372925 406.18037 
L 340.327287 404.078159 
L 346.281648 401.975948 
L 352.23601 399.873738 
L 358.190372 397.771527 
L 364.144734 395.669316 
L 370.099096 393.567105 
L 376.053457 391.464894 
L 382.007819 389.362683 
L 387.962181 387.260472 
L 393.916543 385.158262 
L 399.870904 383.056051 
L 405.825266 380.95384 
L 411.779628 378.851629 
L 417.73399 376.749418 
L 423.688352 374.647207 
L 429.642713 372.544997 
L 435.597075 370.442786 
L 441.551437 368.340575 
L 447.505799 366.238364 
L 453.460161 364.136153 
L 459.414522 362.033942 
L 465.368884 359.931731 
L 471.323246 357.829521 
L 477.277608 355.72731 
L 483.23197 353.625099 
L 489.186331 351.522888 
L 495.140693 349.420677 
L 501.095055 347.318466 
L 507.049417 345.216256 
L 513.003779 343.114045 
L 518.95814 341.011834 
L 524.912502 338.909623 
L 530.866864 336.807412 
L 536.821226 334.705201 
L 542.775588 332.60299 
L 548.729949 330.50078 
L 554.684311 328.398569 
L 560.638673 326.296358 
L 566.593035 324.194147 
L 572.547397 322.091936 
L 578.501758 319.989725 
L 584.45612 317.887514 
L 590.410482 315.785304 
L 596.364844 313.683093 
L 602.319206 311.580882 
L 608.273567 309.478671 
L 614.227929 307.37646 
L 620.182291 305.274249 
L 626.136653 303.172039 
L 632.091015 301.069828 
L 638.045376 298.967617 
L 643.999738 296.865406 
L 649.9541 294.763195 
L 655.908462 292.660984 
L 661.862824 290.558773 
L 667.817185 288.456563 
L 673.771547 286.354352 
L 679.725909 284.252141 
" clip-path="url(#p3e222fd8f3)" style="fill: none; stroke-dasharray: 8.325,3.6; stroke-dashoffset: 0; stroke: #e41a1c; stroke-width: 2.25"/>
   </g>
   <g id="patch_3">
    <path d="M 60.77 530.44 
L 60.77 106.75725 
" style="fill: none; stroke: #000000; stroke-width: 0.8; stroke-linejoin: miter; stroke-linecap: square"/>
   </g>
   <g id="patch_4">
    <path d="M 709.2 530.44 
L 709.2 106.75725 
" style="fill: none; stroke: #000000; stroke-width: 0.8; stroke-linejoin: miter; stroke-linecap: square"/>
   </g>
   <g id="patch_5">
    <path d="M 60.77 530.44 
L 709.2 530.44 
" style="fill: none; stroke: #000000; stroke-width: 0.8; stroke-linejoin: miter; stroke-linecap: square"/>
   </g>
   <g id="patch_6">
    <path d="M 60.77 106.75725 
L 709.2 106.75725 
" style="fill: none; stroke: #000000; stroke-width: 0.8; stroke-linejoin: miter; stroke-linecap: square"/>
   </g>
   <g id="text_19">
    <!-- Effect of X Surface Area (mm) on Y Surface Area (mm) -->
    <g transform="translate(166.95 64.47925) scale(0.16 -0.16)">
     <defs>
      <path id="DejaVuSans-45" d="M 628 4666 
L 3578 4666 
L 3578 4134 
L 1259 4134 
L 1259 2753 
L 3481 2753 
L 3481 2222 
L 1259 2222 
L 1259 531 
L 3634 531 
L 3634 0 
L 628 0 
L 628 4666 
z
" transform="scale(0.015625)"/>
      <path id="DejaVuSans-74" d="M 1172 4494 
L 1172 3500 
L 2356 3500 
L 2356 3053 
L 1172 3053 
L 1172 1153 
Q 1172 725 1289 603 
Q 1406 481 1766 481 
L 2356 481 
L 2356 0 
L 1766 0 
Q 1100 0 847 248 
Q 594 497 594 1153 
L 594 3053 
L 172 3053 
L 172 3500 
L 594 3500 
L 594 4494 
L 1172 4494 
z
" transform="scale(0.015625)"/>
      <path id="DejaVuSans-6f" d="M 1959 3097 
Q 1497 3097 1228 2736 
Q 959 2375 959 1747 
Q 959 1119 1226 758 
Q 1494 397 1959 397 
Q 2419 397 2687 759 
Q 2956 1122 2956 1747 
Q 2956 2369 2687 2733 
Q 2419 3097 1959 3097 
z
M 1959 3584 
Q 2709 3584 3137 3096 
Q 3566 2609 3566 1747 
Q 3566 888 3137 398 
Q 2709 -91 1959 -91 
Q 1206 -91 779 398 
Q 353 888 353 1747 
Q 353 2609 779 3096 
Q 1206 3584 1959 3584 
z
" transform="scale(0.015625)"/>
      <path id="DejaVuSans-6e" d="M 3513 2113 
L 3513 0 
L 2938 0 
L 2938 2094 
Q 2938 2591 2744 2837 
Q 2550 3084 2163 3084 
Q 1697 3084 1428 2787 
Q 1159 2491 1159 1978 
L 1159 0 
L 581 0 
L 581 3500 
L 1159 3500 
L 1159 2956 
Q 1366 3272 1645 3428 
Q 1925 3584 2291 3584 
Q 2894 3584 3203 3211 
Q 3513 2838 3513 2113 
z
" transform="scale(0.015625)"/>
     </defs>
     <use xlink:href="#DejaVuSans-45"/>
     <use xlink:href="#DejaVuSans-66" x="63.183594"/>
     <use xlink:href="#DejaVuSans-66" x="98.388672"/>
     <use xlink:href="#DejaVuSans-65" x="133.59375"/>
     <use xlink:href="#DejaVuSans-63" x="195.117188"/>
     <use xlink:href="#DejaVuSans-74" x="250.097656"/>
     <use xlink:href="#DejaVuSans-20" x="289.306641"/>
     <use xlink:href="#DejaVuSans-6f" x="321.09375"/>
     <use xlink:href="#DejaVuSans-66" x="382.275391"/>
     <use xlink:href="#DejaVuSans-20" x="417.480469"/>
     <use xlink:href="#DejaVuSans-58" x="449.267578"/>
     <use xlink:href="#DejaVuSans-20" x="517.773438"/>
     <use xlink:href="#DejaVuSans-53" x="549.560547"/>
     <use xlink:href="#DejaVuSans-75" x="613.037109"/>
     <use xlink:href="#DejaVuSans-72" x="676.416016"/>
     <use xlink:href="#DejaVuSans-66" x="717.529297"/>
     <use xlink:href="#DejaVuSans-61" x="752.734375"/>
     <use xlink:href="#DejaVuSans-63" x="814.013672"/>
     <use xlink:href="#DejaVuSans-65" x="868.994141"/>
     <use xlink:href="#DejaVuSans-20" x="930.517578"/>
     <use xlink:href="#DejaVuSans-41" x="962.304688"/>
     <use xlink:href="#DejaVuSans-72" x="1030.712891"/>
     <use xlink:href="#DejaVuSans-65" x="1069.576172"/>
     <use xlink:href="#DejaVuSans-61" x="1131.099609"/>
     <use xlink:href="#DejaVuSans-20" x="1192.378906"/>
     <use xlink:href="#DejaVuSans-28" x="1224.166016"/>
     <use xlink:href="#DejaVuSans-6d" x="1263.179688"/>
     <use xlink:href="#DejaVuSans-6d" x="1360.591797"/>
     <use xlink:href="#DejaVuSans-29" x="1458.003906"/>
     <use xlink:href="#DejaVuSans-20" x="1497.017578"/>
     <use xlink:href="#DejaVuSans-6f" x="1528.804688"/>
     <use xlink:href="#DejaVuSans-6e" x="1589.986328"/>
     <use xlink:href="#DejaVuSans-20" x="1653.365234"/>
     <use xlink:href="#DejaVuSans-59" x="1685.152344"/>
     <use xlink:href="#DejaVuSans-20" x="1746.236328"/>
     <use xlink:href="#DejaVuSans-53" x="1778.023438"/>
     <use xlink:href="#DejaVuSans-75" x="1841.5"/>
     <use xlink:href="#DejaVuSans-72" x="1904.878906"/>
     <use xlink:href="#DejaVuSans-66" x="1945.992188"/>
     <use xlink:href="#DejaVuSans-61" x="1981.197266"/>
     <use xlink:href="#DejaVuSans-63" x="2042.476562"/>
     <use xlink:href="#DejaVuSans-65" x="2097.457031"/>
     <use xlink:href="#DejaVuSans-20" x="2158.980469"/>
     <use xlink:href="#DejaVuSans-41" x="2190.767578"/>
     <use xlink:href="#DejaVuSans-72" x="2259.175781"/>
     <use xlink:href="#DejaVuSans-65" x="2298.039062"/>
     <use xlink:href="#DejaVuSans-61" x="2359.5625"/>
     <use xlink:href="#DejaVuSans-20" x="2420.841797"/>
     <use xlink:href="#DejaVuSans-28" x="2452.628906"/>
     <use xlink:href="#DejaVuSans-6d" x="2491.642578"/>
     <use xlink:href="#DejaVuSans-6d" x="2589.054688"/>
     <use xlink:href="#DejaVuSans-29" x="2686.466797"/>
    </g>
    <!-- Group: cleaned_words  -->
    <g transform="translate(293.50375 82.39575) scale(0.16 -0.16)">
     <defs>
      <path id="DejaVuSans-47" d="M 3809 666 
L 3809 1919 
L 2778 1919 
L 2778 2438 
L 4434 2438 
L 4434 434 
Q 4069 175 3628 42 
Q 3188 -91 2688 -91 
Q 1594 -91 976 548 
Q 359 1188 359 2328 
Q 359 3472 976 4111 
Q 1594 4750 2688 4750 
Q 3144 4750 3555 4637 
Q 3966 4525 4313 4306 
L 4313 3634 
Q 3963 3931 3569 4081 
Q 3175 4231 2741 4231 
Q 1884 4231 1454 3753 
Q 1025 3275 1025 2328 
Q 1025 1384 1454 906 
Q 1884 428 2741 428 
Q 3075 428 3337 486 
Q 3600 544 3809 666 
z
" transform="scale(0.015625)"/>
      <path id="DejaVuSans-70" d="M 1159 525 
L 1159 -1331 
L 581 -1331 
L 581 3500 
L 1159 3500 
L 1159 2969 
Q 1341 3281 1617 3432 
Q 1894 3584 2278 3584 
Q 2916 3584 3314 3078 
Q 3713 2572 3713 1747 
Q 3713 922 3314 415 
Q 2916 -91 2278 -91 
Q 1894 -91 1617 61 
Q 1341 213 1159 525 
z
M 3116 1747 
Q 3116 2381 2855 2742 
Q 2594 3103 2138 3103 
Q 1681 3103 1420 2742 
Q 1159 2381 1159 1747 
Q 1159 1113 1420 752 
Q 1681 391 2138 391 
Q 2594 391 2855 752 
Q 3116 1113 3116 1747 
z
" transform="scale(0.015625)"/>
      <path id="DejaVuSans-3a" d="M 750 794 
L 1409 794 
L 1409 0 
L 750 0 
L 750 794 
z
M 750 3309 
L 1409 3309 
L 1409 2516 
L 750 2516 
L 750 3309 
z
" transform="scale(0.015625)"/>
      <path id="DejaVuSans-6c" d="M 603 4863 
L 1178 4863 
L 1178 0 
L 603 0 
L 603 4863 
z
" transform="scale(0.015625)"/>
      <path id="DejaVuSans-64" d="M 2906 2969 
L 2906 4863 
L 3481 4863 
L 3481 0 
L 2906 0 
L 2906 525 
Q 2725 213 2448 61 
Q 2172 -91 1784 -91 
Q 1150 -91 751 415 
Q 353 922 353 1747 
Q 353 2572 751 3078 
Q 1150 3584 1784 3584 
Q 2172 3584 2448 3432 
Q 2725 3281 2906 2969 
z
M 947 1747 
Q 947 1113 1208 752 
Q 1469 391 1925 391 
Q 2381 391 2643 752 
Q 2906 1113 2906 1747 
Q 2906 2381 2643 2742 
Q 2381 3103 1925 3103 
Q 1469 3103 1208 2742 
Q 947 2381 947 1747 
z
" transform="scale(0.015625)"/>
      <path id="DejaVuSans-5f" d="M 3263 -1063 
L 3263 -1509 
L -63 -1509 
L -63 -1063 
L 3263 -1063 
z
" transform="scale(0.015625)"/>
      <path id="DejaVuSans-77" d="M 269 3500 
L 844 3500 
L 1563 769 
L 2278 3500 
L 2956 3500 
L 3675 769 
L 4391 3500 
L 4966 3500 
L 4050 0 
L 3372 0 
L 2619 2869 
L 1863 0 
L 1184 0 
L 269 3500 
z
" transform="scale(0.015625)"/>
      <path id="DejaVuSans-73" d="M 2834 3397 
L 2834 2853 
Q 2591 2978 2328 3040 
Q 2066 3103 1784 3103 
Q 1356 3103 1142 2972 
Q 928 2841 928 2578 
Q 928 2378 1081 2264 
Q 1234 2150 1697 2047 
L 1894 2003 
Q 2506 1872 2764 1633 
Q 3022 1394 3022 966 
Q 3022 478 2636 193 
Q 2250 -91 1575 -91 
Q 1294 -91 989 -36 
Q 684 19 347 128 
L 347 722 
Q 666 556 975 473 
Q 1284 391 1588 391 
Q 1994 391 2212 530 
Q 2431 669 2431 922 
Q 2431 1156 2273 1281 
Q 2116 1406 1581 1522 
L 1381 1569 
Q 847 1681 609 1914 
Q 372 2147 372 2553 
Q 372 3047 722 3315 
Q 1072 3584 1716 3584 
Q 2034 3584 2315 3537 
Q 2597 3491 2834 3397 
z
" transform="scale(0.015625)"/>
     </defs>
     <use xlink:href="#DejaVuSans-47"/>
     <use xlink:href="#DejaVuSans-72" x="77.490234"/>
     <use xlink:href="#DejaVuSans-6f" x="116.353516"/>
     <use xlink:href="#DejaVuSans-75" x="177.535156"/>
     <use xlink:href="#DejaVuSans-70" x="240.914062"/>
     <use xlink:href="#DejaVuSans-3a" x="304.390625"/>
     <use xlink:href="#DejaVuSans-20" x="338.082031"/>
     <use xlink:href="#DejaVuSans-63" x="369.869141"/>
     <use xlink:href="#DejaVuSans-6c" x="424.849609"/>
     <use xlink:href="#DejaVuSans-65" x="452.632812"/>
     <use xlink:href="#DejaVuSans-61" x="514.15625"/>
     <use xlink:href="#DejaVuSans-6e" x="575.435547"/>
     <use xlink:href="#DejaVuSans-65" x="638.814453"/>
     <use xlink:href="#DejaVuSans-64" x="700.337891"/>
     <use xlink:href="#DejaVuSans-5f" x="763.814453"/>
     <use xlink:href="#DejaVuSans-77" x="813.814453"/>
     <use xlink:href="#DejaVuSans-6f" x="895.601562"/>
     <use xlink:href="#DejaVuSans-72" x="956.783203"/>
     <use xlink:href="#DejaVuSans-64" x="996.146484"/>
     <use xlink:href="#DejaVuSans-73" x="1059.623047"/>
     <use xlink:href="#DejaVuSans-20" x="1111.722656"/>
    </g>
    <!-- All modules, including non-optimal -->
    <g transform="translate(245.99375 100.75725) scale(0.16 -0.16)">
     <defs>
      <path id="DejaVuSans-2c" d="M 750 794 
L 1409 794 
L 1409 256 
L 897 -744 
L 494 -744 
L 750 256 
L 750 794 
z
" transform="scale(0.015625)"/>
      <path id="DejaVuSans-69" d="M 603 3500 
L 1178 3500 
L 1178 0 
L 603 0 
L 603 3500 
z
M 603 4863 
L 1178 4863 
L 1178 4134 
L 603 4134 
L 603 4863 
z
" transform="scale(0.015625)"/>
      <path id="DejaVuSans-67" d="M 2906 1791 
Q 2906 2416 2648 2759 
Q 2391 3103 1925 3103 
Q 1463 3103 1205 2759 
Q 947 2416 947 1791 
Q 947 1169 1205 825 
Q 1463 481 1925 481 
Q 2391 481 2648 825 
Q 2906 1169 2906 1791 
z
M 3481 434 
Q 3481 -459 3084 -895 
Q 2688 -1331 1869 -1331 
Q 1566 -1331 1297 -1286 
Q 1028 -1241 775 -1147 
L 775 -588 
Q 1028 -725 1275 -790 
Q 1522 -856 1778 -856 
Q 2344 -856 2625 -561 
Q 2906 -266 2906 331 
L 2906 616 
Q 2728 306 2450 153 
Q 2172 0 1784 0 
Q 1141 0 747 490 
Q 353 981 353 1791 
Q 353 2603 747 3093 
Q 1141 3584 1784 3584 
Q 2172 3584 2450 3431 
Q 2728 3278 2906 2969 
L 2906 3500 
L 3481 3500 
L 3481 434 
z
" transform="scale(0.015625)"/>
      <path id="DejaVuSans-2d" d="M 313 2009 
L 1997 2009 
L 1997 1497 
L 313 1497 
L 313 2009 
z
" transform="scale(0.015625)"/>
     </defs>
     <use xlink:href="#DejaVuSans-41"/>
     <use xlink:href="#DejaVuSans-6c" x="68.408203"/>
     <use xlink:href="#DejaVuSans-6c" x="96.191406"/>
     <use xlink:href="#DejaVuSans-20" x="123.974609"/>
     <use xlink:href="#DejaVuSans-6d" x="155.761719"/>
     <use xlink:href="#DejaVuSans-6f" x="253.173828"/>
     <use xlink:href="#DejaVuSans-64" x="314.355469"/>
     <use xlink:href="#DejaVuSans-75" x="377.832031"/>
     <use xlink:href="#DejaVuSans-6c" x="441.210938"/>
     <use xlink:href="#DejaVuSans-65" x="468.994141"/>
     <use xlink:href="#DejaVuSans-73" x="530.517578"/>
     <use xlink:href="#DejaVuSans-2c" x="582.617188"/>
     <use xlink:href="#DejaVuSans-20" x="614.404297"/>
     <use xlink:href="#DejaVuSans-69" x="646.191406"/>
     <use xlink:href="#DejaVuSans-6e" x="673.974609"/>
     <use xlink:href="#DejaVuSans-63" x="737.353516"/>
     <use xlink:href="#DejaVuSans-6c" x="792.333984"/>
     <use xlink:href="#DejaVuSans-75" x="820.117188"/>
     <use xlink:href="#DejaVuSans-64" x="883.496094"/>
     <use xlink:href="#DejaVuSans-69" x="946.972656"/>
     <use xlink:href="#DejaVuSans-6e" x="974.755859"/>
     <use xlink:href="#DejaVuSans-67" x="1038.134766"/>
     <use xlink:href="#DejaVuSans-20" x="1101.611328"/>
     <use xlink:href="#DejaVuSans-6e" x="1133.398438"/>
     <use xlink:href="#DejaVuSans-6f" x="1196.777344"/>
     <use xlink:href="#DejaVuSans-6e" x="1257.958984"/>
     <use xlink:href="#DejaVuSans-2d" x="1321.337891"/>
     <use xlink:href="#DejaVuSans-6f" x="1359.296875"/>
     <use xlink:href="#DejaVuSans-70" x="1420.478516"/>
     <use xlink:href="#DejaVuSans-74" x="1483.955078"/>
     <use xlink:href="#DejaVuSans-69" x="1523.164062"/>
     <use xlink:href="#DejaVuSans-6d" x="1550.947266"/>
     <use xlink:href="#DejaVuSans-61" x="1648.359375"/>
     <use xlink:href="#DejaVuSans-6c" x="1709.638672"/>
    </g>
   </g>
   <g id="legend_1">
    <g id="patch_7">
     <path d="M 69.17 167.262875 
L 283.77125 167.262875 
Q 286.17125 167.262875 286.17125 164.862875 
L 286.17125 115.15725 
Q 286.17125 112.75725 283.77125 112.75725 
L 69.17 112.75725 
Q 66.77 112.75725 66.77 115.15725 
L 66.77 164.862875 
Q 66.77 167.262875 69.17 167.262875 
z
" style="fill: #ffffff; opacity: 0.8; stroke: #cccccc; stroke-linejoin: miter"/>
    </g>
    <g id="text_20">
     <!-- Legend -->
     <g transform="translate(158.101875 125.155687) scale(0.1 -0.1)">
      <defs>
       <path id="DejaVuSans-4c" d="M 628 4666 
L 1259 4666 
L 1259 531 
L 3531 531 
L 3531 0 
L 628 0 
L 628 4666 
z
" transform="scale(0.015625)"/>
      </defs>
      <use xlink:href="#DejaVuSans-4c"/>
      <use xlink:href="#DejaVuSans-65" x="53.962891"/>
      <use xlink:href="#DejaVuSans-67" x="115.486328"/>
      <use xlink:href="#DejaVuSans-65" x="178.962891"/>
      <use xlink:href="#DejaVuSans-6e" x="240.486328"/>
      <use xlink:href="#DejaVuSans-64" x="303.865234"/>
     </g>
    </g>
    <g id="PathCollection_2">
     <g>
      <use xlink:href="#m9845972b51" x="83.57" y="139.2035" style="fill: #e41a1c; fill-opacity: 0.7; stroke: #ffffff; stroke-opacity: 0.7; stroke-width: 0.48"/>
     </g>
    </g>
    <g id="text_21">
     <!-- X Surface Area (mm) -->
     <g transform="translate(105.17 142.3535) scale(0.12 -0.12)">
      <use xlink:href="#DejaVuSans-58"/>
      <use xlink:href="#DejaVuSans-20" x="68.505859"/>
      <use xlink:href="#DejaVuSans-53" x="100.292969"/>
      <use xlink:href="#DejaVuSans-75" x="163.769531"/>
      <use xlink:href="#DejaVuSans-72" x="227.148438"/>
      <use xlink:href="#DejaVuSans-66" x="268.261719"/>
      <use xlink:href="#DejaVuSans-61" x="303.466797"/>
      <use xlink:href="#DejaVuSans-63" x="364.746094"/>
      <use xlink:href="#DejaVuSans-65" x="419.726562"/>
      <use xlink:href="#DejaVuSans-20" x="481.25"/>
      <use xlink:href="#DejaVuSans-41" x="513.037109"/>
      <use xlink:href="#DejaVuSans-72" x="581.445312"/>
      <use xlink:href="#DejaVuSans-65" x="620.308594"/>
      <use xlink:href="#DejaVuSans-61" x="681.832031"/>
      <use xlink:href="#DejaVuSans-20" x="743.111328"/>
      <use xlink:href="#DejaVuSans-28" x="774.898438"/>
      <use xlink:href="#DejaVuSans-6d" x="813.912109"/>
      <use xlink:href="#DejaVuSans-6d" x="911.324219"/>
      <use xlink:href="#DejaVuSans-29" x="1008.736328"/>
     </g>
    </g>
    <g id="line2d_34">
     <path d="M 71.57 155.76725 
L 83.57 155.76725 
L 95.57 155.76725 
" style="fill: none; stroke-dasharray: 8.325,3.6; stroke-dashoffset: 0; stroke: #e41a1c; stroke-width: 2.25"/>
    </g>
    <g id="text_22">
     <!-- Linear (X Surface Area (mm)) -->
     <g transform="translate(105.17 159.96725) scale(0.12 -0.12)">
      <use xlink:href="#DejaVuSans-4c"/>
      <use xlink:href="#DejaVuSans-69" x="55.712891"/>
      <use xlink:href="#DejaVuSans-6e" x="83.496094"/>
      <use xlink:href="#DejaVuSans-65" x="146.875"/>
      <use xlink:href="#DejaVuSans-61" x="208.398438"/>
      <use xlink:href="#DejaVuSans-72" x="269.677734"/>
      <use xlink:href="#DejaVuSans-20" x="310.791016"/>
      <use xlink:href="#DejaVuSans-28" x="342.578125"/>
      <use xlink:href="#DejaVuSans-58" x="381.591797"/>
      <use xlink:href="#DejaVuSans-20" x="450.097656"/>
      <use xlink:href="#DejaVuSans-53" x="481.884766"/>
      <use xlink:href="#DejaVuSans-75" x="545.361328"/>
      <use xlink:href="#DejaVuSans-72" x="608.740234"/>
      <use xlink:href="#DejaVuSans-66" x="649.853516"/>
      <use xlink:href="#DejaVuSans-61" x="685.058594"/>
      <use xlink:href="#DejaVuSans-63" x="746.337891"/>
      <use xlink:href="#DejaVuSans-65" x="801.318359"/>
      <use xlink:href="#DejaVuSans-20" x="862.841797"/>
      <use xlink:href="#DejaVuSans-41" x="894.628906"/>
      <use xlink:href="#DejaVuSans-72" x="963.037109"/>
      <use xlink:href="#DejaVuSans-65" x="1001.900391"/>
      <use xlink:href="#DejaVuSans-61" x="1063.423828"/>
      <use xlink:href="#DejaVuSans-20" x="1124.703125"/>
      <use xlink:href="#DejaVuSans-28" x="1156.490234"/>
      <use xlink:href="#DejaVuSans-6d" x="1195.503906"/>
      <use xlink:href="#DejaVuSans-6d" x="1292.916016"/>
      <use xlink:href="#DejaVuSans-29" x="1390.328125"/>
      <use xlink:href="#DejaVuSans-29" x="1429.341797"/>
     </g>
    </g>
   </g>
  </g>
  <g id="text_23">
   <!-- Filters applied: Subject ID=All (1), Hemisphere=All (2), Task=All (5), -->
   <g transform="translate(190.042969 7.598438) scale(0.1 -0.1)">
    <defs>
     <path id="DejaVuSans-46" d="M 628 4666 
L 3309 4666 
L 3309 4134 
L 1259 4134 
L 1259 2759 
L 3109 2759 
L 3109 2228 
L 1259 2228 
L 1259 0 
L 628 0 
L 628 4666 
z
" transform="scale(0.015625)"/>
     <path id="DejaVuSans-62" d="M 3116 1747 
Q 3116 2381 2855 2742 
Q 2594 3103 2138 3103 
Q 1681 3103 1420 2742 
Q 1159 2381 1159 1747 
Q 1159 1113 1420 752 
Q 1681 391 2138 391 
Q 2594 391 2855 752 
Q 3116 1113 3116 1747 
z
M 1159 2969 
Q 1341 3281 1617 3432 
Q 1894 3584 2278 3584 
Q 2916 3584 3314 3078 
Q 3713 2572 3713 1747 
Q 3713 922 3314 415 
Q 2916 -91 2278 -91 
Q 1894 -91 1617 61 
Q 1341 213 1159 525 
L 1159 0 
L 581 0 
L 581 4863 
L 1159 4863 
L 1159 2969 
z
" transform="scale(0.015625)"/>
     <path id="DejaVuSans-6a" d="M 603 3500 
L 1178 3500 
L 1178 -63 
Q 1178 -731 923 -1031 
Q 669 -1331 103 -1331 
L -116 -1331 
L -116 -844 
L 38 -844 
Q 366 -844 484 -692 
Q 603 -541 603 -63 
L 603 3500 
z
M 603 4863 
L 1178 4863 
L 1178 4134 
L 603 4134 
L 603 4863 
z
" transform="scale(0.015625)"/>
     <path id="DejaVuSans-49" d="M 628 4666 
L 1259 4666 
L 1259 0 
L 628 0 
L 628 4666 
z
" transform="scale(0.015625)"/>
     <path id="DejaVuSans-44" d="M 1259 4147 
L 1259 519 
L 2022 519 
Q 2988 519 3436 956 
Q 3884 1394 3884 2338 
Q 3884 3275 3436 3711 
Q 2988 4147 2022 4147 
L 1259 4147 
z
M 628 4666 
L 1925 4666 
Q 3281 4666 3915 4102 
Q 4550 3538 4550 2338 
Q 4550 1131 3912 565 
Q 3275 0 1925 0 
L 628 0 
L 628 4666 
z
" transform="scale(0.015625)"/>
     <path id="DejaVuSans-3d" d="M 678 2906 
L 4684 2906 
L 4684 2381 
L 678 2381 
L 678 2906 
z
M 678 1631 
L 4684 1631 
L 4684 1100 
L 678 1100 
L 678 1631 
z
" transform="scale(0.015625)"/>
     <path id="DejaVuSans-48" d="M 628 4666 
L 1259 4666 
L 1259 2753 
L 3553 2753 
L 3553 4666 
L 4184 4666 
L 4184 0 
L 3553 0 
L 3553 2222 
L 1259 2222 
L 1259 0 
L 628 0 
L 628 4666 
z
" transform="scale(0.015625)"/>
     <path id="DejaVuSans-68" d="M 3513 2113 
L 3513 0 
L 2938 0 
L 2938 2094 
Q 2938 2591 2744 2837 
Q 2550 3084 2163 3084 
Q 1697 3084 1428 2787 
Q 1159 2491 1159 1978 
L 1159 0 
L 581 0 
L 581 4863 
L 1159 4863 
L 1159 2956 
Q 1366 3272 1645 3428 
Q 1925 3584 2291 3584 
Q 2894 3584 3203 3211 
Q 3513 2838 3513 2113 
z
" transform="scale(0.015625)"/>
     <path id="DejaVuSans-54" d="M -19 4666 
L 3928 4666 
L 3928 4134 
L 2272 4134 
L 2272 0 
L 1638 0 
L 1638 4134 
L -19 4134 
L -19 4666 
z
" transform="scale(0.015625)"/>
     <path id="DejaVuSans-6b" d="M 581 4863 
L 1159 4863 
L 1159 1991 
L 2875 3500 
L 3609 3500 
L 1753 1863 
L 3688 0 
L 2938 0 
L 1159 1709 
L 1159 0 
L 581 0 
L 581 4863 
z
" transform="scale(0.015625)"/>
    </defs>
    <use xlink:href="#DejaVuSans-46"/>
    <use xlink:href="#DejaVuSans-69" x="50.269531"/>
    <use xlink:href="#DejaVuSans-6c" x="78.052734"/>
    <use xlink:href="#DejaVuSans-74" x="105.835938"/>
    <use xlink:href="#DejaVuSans-65" x="145.044922"/>
    <use xlink:href="#DejaVuSans-72" x="206.568359"/>
    <use xlink:href="#DejaVuSans-73" x="247.681641"/>
    <use xlink:href="#DejaVuSans-20" x="299.78125"/>
    <use xlink:href="#DejaVuSans-61" x="331.568359"/>
    <use xlink:href="#DejaVuSans-70" x="392.847656"/>
    <use xlink:href="#DejaVuSans-70" x="456.324219"/>
    <use xlink:href="#DejaVuSans-6c" x="519.800781"/>
    <use xlink:href="#DejaVuSans-69" x="547.583984"/>
    <use xlink:href="#DejaVuSans-65" x="575.367188"/>
    <use xlink:href="#DejaVuSans-64" x="636.890625"/>
    <use xlink:href="#DejaVuSans-3a" x="700.367188"/>
    <use xlink:href="#DejaVuSans-20" x="734.058594"/>
    <use xlink:href="#DejaVuSans-53" x="765.845703"/>
    <use xlink:href="#DejaVuSans-75" x="829.322266"/>
    <use xlink:href="#DejaVuSans-62" x="892.701172"/>
    <use xlink:href="#DejaVuSans-6a" x="956.177734"/>
    <use xlink:href="#DejaVuSans-65" x="983.960938"/>
    <use xlink:href="#DejaVuSans-63" x="1045.484375"/>
    <use xlink:href="#DejaVuSans-74" x="1100.464844"/>
    <use xlink:href="#DejaVuSans-20" x="1139.673828"/>
    <use xlink:href="#DejaVuSans-49" x="1171.460938"/>
    <use xlink:href="#DejaVuSans-44" x="1200.953125"/>
    <use xlink:href="#DejaVuSans-3d" x="1277.955078"/>
    <use xlink:href="#DejaVuSans-41" x="1361.744141"/>
    <use xlink:href="#DejaVuSans-6c" x="1430.152344"/>
    <use xlink:href="#DejaVuSans-6c" x="1457.935547"/>
    <use xlink:href="#DejaVuSans-20" x="1485.71875"/>
    <use xlink:href="#DejaVuSans-28" x="1517.505859"/>
    <use xlink:href="#DejaVuSans-31" x="1556.519531"/>
    <use xlink:href="#DejaVuSans-29" x="1620.142578"/>
    <use xlink:href="#DejaVuSans-2c" x="1659.15625"/>
    <use xlink:href="#DejaVuSans-20" x="1690.943359"/>
    <use xlink:href="#DejaVuSans-48" x="1722.730469"/>
    <use xlink:href="#DejaVuSans-65" x="1797.925781"/>
    <use xlink:href="#DejaVuSans-6d" x="1859.449219"/>
    <use xlink:href="#DejaVuSans-69" x="1956.861328"/>
    <use xlink:href="#DejaVuSans-73" x="1984.644531"/>
    <use xlink:href="#DejaVuSans-70" x="2036.744141"/>
    <use xlink:href="#DejaVuSans-68" x="2100.220703"/>
    <use xlink:href="#DejaVuSans-65" x="2163.599609"/>
    <use xlink:href="#DejaVuSans-72" x="2225.123047"/>
    <use xlink:href="#DejaVuSans-65" x="2263.986328"/>
    <use xlink:href="#DejaVuSans-3d" x="2325.509766"/>
    <use xlink:href="#DejaVuSans-41" x="2409.298828"/>
    <use xlink:href="#DejaVuSans-6c" x="2477.707031"/>
    <use xlink:href="#DejaVuSans-6c" x="2505.490234"/>
    <use xlink:href="#DejaVuSans-20" x="2533.273438"/>
    <use xlink:href="#DejaVuSans-28" x="2565.060547"/>
    <use xlink:href="#DejaVuSans-32" x="2604.074219"/>
    <use xlink:href="#DejaVuSans-29" x="2667.697266"/>
    <use xlink:href="#DejaVuSans-2c" x="2706.710938"/>
    <use xlink:href="#DejaVuSans-20" x="2738.498047"/>
    <use xlink:href="#DejaVuSans-54" x="2770.285156"/>
    <use xlink:href="#DejaVuSans-61" x="2814.869141"/>
    <use xlink:href="#DejaVuSans-73" x="2876.148438"/>
    <use xlink:href="#DejaVuSans-6b" x="2928.248047"/>
    <use xlink:href="#DejaVuSans-3d" x="2986.158203"/>
    <use xlink:href="#DejaVuSans-41" x="3069.947266"/>
    <use xlink:href="#DejaVuSans-6c" x="3138.355469"/>
    <use xlink:href="#DejaVuSans-6c" x="3166.138672"/>
    <use xlink:href="#DejaVuSans-20" x="3193.921875"/>
    <use xlink:href="#DejaVuSans-28" x="3225.708984"/>
    <use xlink:href="#DejaVuSans-35" x="3264.722656"/>
    <use xlink:href="#DejaVuSans-29" x="3328.345703"/>
    <use xlink:href="#DejaVuSans-2c" x="3367.359375"/>
   </g>
   <!-- Statistical Test=['Levenshtein Distance - Y as Truth'], -->
   <g transform="translate(228.08125 18.79625) scale(0.1 -0.1)">
    <defs>
     <path id="DejaVuSans-5b" d="M 550 4863 
L 1875 4863 
L 1875 4416 
L 1125 4416 
L 1125 -397 
L 1875 -397 
L 1875 -844 
L 550 -844 
L 550 4863 
z
" transform="scale(0.015625)"/>
     <path id="DejaVuSans-27" d="M 1147 4666 
L 1147 2931 
L 616 2931 
L 616 4666 
L 1147 4666 
z
" transform="scale(0.015625)"/>
     <path id="DejaVuSans-76" d="M 191 3500 
L 800 3500 
L 1894 563 
L 2988 3500 
L 3597 3500 
L 2284 0 
L 1503 0 
L 191 3500 
z
" transform="scale(0.015625)"/>
     <path id="DejaVuSans-5d" d="M 1947 4863 
L 1947 -844 
L 622 -844 
L 622 -397 
L 1369 -397 
L 1369 4416 
L 622 4416 
L 622 4863 
L 1947 4863 
z
" transform="scale(0.015625)"/>
    </defs>
    <use xlink:href="#DejaVuSans-53"/>
    <use xlink:href="#DejaVuSans-74" x="63.476562"/>
    <use xlink:href="#DejaVuSans-61" x="102.685547"/>
    <use xlink:href="#DejaVuSans-74" x="163.964844"/>
    <use xlink:href="#DejaVuSans-69" x="203.173828"/>
    <use xlink:href="#DejaVuSans-73" x="230.957031"/>
    <use xlink:href="#DejaVuSans-74" x="283.056641"/>
    <use xlink:href="#DejaVuSans-69" x="322.265625"/>
    <use xlink:href="#DejaVuSans-63" x="350.048828"/>
    <use xlink:href="#DejaVuSans-61" x="405.029297"/>
    <use xlink:href="#DejaVuSans-6c" x="466.308594"/>
    <use xlink:href="#DejaVuSans-20" x="494.091797"/>
    <use xlink:href="#DejaVuSans-54" x="525.878906"/>
    <use xlink:href="#DejaVuSans-65" x="569.962891"/>
    <use xlink:href="#DejaVuSans-73" x="631.486328"/>
    <use xlink:href="#DejaVuSans-74" x="683.585938"/>
    <use xlink:href="#DejaVuSans-3d" x="722.794922"/>
    <use xlink:href="#DejaVuSans-5b" x="806.583984"/>
    <use xlink:href="#DejaVuSans-27" x="845.597656"/>
    <use xlink:href="#DejaVuSans-4c" x="873.087891"/>
    <use xlink:href="#DejaVuSans-65" x="927.050781"/>
    <use xlink:href="#DejaVuSans-76" x="988.574219"/>
    <use xlink:href="#DejaVuSans-65" x="1047.753906"/>
    <use xlink:href="#DejaVuSans-6e" x="1109.277344"/>
    <use xlink:href="#DejaVuSans-73" x="1172.65625"/>
    <use xlink:href="#DejaVuSans-68" x="1224.755859"/>
    <use xlink:href="#DejaVuSans-74" x="1288.134766"/>
    <use xlink:href="#DejaVuSans-65" x="1327.34375"/>
    <use xlink:href="#DejaVuSans-69" x="1388.867188"/>
    <use xlink:href="#DejaVuSans-6e" x="1416.650391"/>
    <use xlink:href="#DejaVuSans-20" x="1480.029297"/>
    <use xlink:href="#DejaVuSans-44" x="1511.816406"/>
    <use xlink:href="#DejaVuSans-69" x="1588.818359"/>
    <use xlink:href="#DejaVuSans-73" x="1616.601562"/>
    <use xlink:href="#DejaVuSans-74" x="1668.701172"/>
    <use xlink:href="#DejaVuSans-61" x="1707.910156"/>
    <use xlink:href="#DejaVuSans-6e" x="1769.189453"/>
    <use xlink:href="#DejaVuSans-63" x="1832.568359"/>
    <use xlink:href="#DejaVuSans-65" x="1887.548828"/>
    <use xlink:href="#DejaVuSans-20" x="1949.072266"/>
    <use xlink:href="#DejaVuSans-2d" x="1980.859375"/>
    <use xlink:href="#DejaVuSans-20" x="2016.943359"/>
    <use xlink:href="#DejaVuSans-59" x="2048.730469"/>
    <use xlink:href="#DejaVuSans-20" x="2109.814453"/>
    <use xlink:href="#DejaVuSans-61" x="2141.601562"/>
    <use xlink:href="#DejaVuSans-73" x="2202.880859"/>
    <use xlink:href="#DejaVuSans-20" x="2254.980469"/>
    <use xlink:href="#DejaVuSans-54" x="2286.767578"/>
    <use xlink:href="#DejaVuSans-72" x="2333.101562"/>
    <use xlink:href="#DejaVuSans-75" x="2374.214844"/>
    <use xlink:href="#DejaVuSans-74" x="2437.59375"/>
    <use xlink:href="#DejaVuSans-68" x="2476.802734"/>
    <use xlink:href="#DejaVuSans-27" x="2540.181641"/>
    <use xlink:href="#DejaVuSans-5d" x="2567.671875"/>
    <use xlink:href="#DejaVuSans-2c" x="2606.685547"/>
   </g>
   <!-- Dataset=['cleaned_words'] -->
   <g transform="translate(292.486719 29.994063) scale(0.1 -0.1)">
    <use xlink:href="#DejaVuSans-44"/>
    <use xlink:href="#DejaVuSans-61" x="77.001953"/>
    <use xlink:href="#DejaVuSans-74" x="138.28125"/>
    <use xlink:href="#DejaVuSans-61" x="177.490234"/>
    <use xlink:href="#DejaVuSans-73" x="238.769531"/>
    <use xlink:href="#DejaVuSans-65" x="290.869141"/>
    <use xlink:href="#DejaVuSans-74" x="352.392578"/>
    <use xlink:href="#DejaVuSans-3d" x="391.601562"/>
    <use xlink:href="#DejaVuSans-5b" x="475.390625"/>
    <use xlink:href="#DejaVuSans-27" x="514.404297"/>
    <use xlink:href="#DejaVuSans-63" x="541.894531"/>
    <use xlink:href="#DejaVuSans-6c" x="596.875"/>
    <use xlink:href="#DejaVuSans-65" x="624.658203"/>
    <use xlink:href="#DejaVuSans-61" x="686.181641"/>
    <use xlink:href="#DejaVuSans-6e" x="747.460938"/>
    <use xlink:href="#DejaVuSans-65" x="810.839844"/>
    <use xlink:href="#DejaVuSans-64" x="872.363281"/>
    <use xlink:href="#DejaVuSans-5f" x="935.839844"/>
    <use xlink:href="#DejaVuSans-77" x="985.839844"/>
    <use xlink:href="#DejaVuSans-6f" x="1067.626953"/>
    <use xlink:href="#DejaVuSans-72" x="1128.808594"/>
    <use xlink:href="#DejaVuSans-64" x="1168.171875"/>
    <use xlink:href="#DejaVuSans-73" x="1231.648438"/>
    <use xlink:href="#DejaVuSans-27" x="1283.748047"/>
    <use xlink:href="#DejaVuSans-5d" x="1311.238281"/>
   </g>
  </g>
 </g>
 <defs>
  <clipPath id="p3e222fd8f3">
   <rect x="60.77" y="106.75725" width="648.43" height="423.68275"/>
  </clipPath>
 </defs>
</svg>
