<?xml version="1.0" encoding="utf-8" standalone="no"?>
<!DOCTYPE svg PUBLIC "-//W3C//DTD SVG 1.1//EN"
  "http://www.w3.org/Graphics/SVG/1.1/DTD/svg11.dtd">
<svg xmlns:xlink="http://www.w3.org/1999/xlink" width="720pt" height="576pt" viewBox="0 0 720 576" xmlns="http://www.w3.org/2000/svg" version="1.1">
 <metadata>
  <rdf:RDF xmlns:dc="http://purl.org/dc/elements/1.1/" xmlns:cc="http://creativecommons.org/ns#" xmlns:rdf="http://www.w3.org/1999/02/22-rdf-syntax-ns#">
   <cc:Work>
    <dc:type rdf:resource="http://purl.org/dc/dcmitype/StillImage"/>
    <dc:date>2024-11-27T19:43:39.970612</dc:date>
    <dc:format>image/svg+xml</dc:format>
    <dc:creator>
     <cc:Agent>
      <dc:title>Matplotlib v3.9.2, https://matplotlib.org/</dc:title>
     </cc:Agent>
    </dc:creator>
   </cc:Work>
  </rdf:RDF>
 </metadata>
 <defs>
  <style type="text/css">*{stroke-linejoin: round; stroke-linecap: butt}</style>
 </defs>
 <g id="figure_1">
  <g id="patch_1">
   <path d="M 0 576 
L 720 576 
L 720 0 
L 0 0 
z
" style="fill: #ffffff"/>
  </g>
  <g id="axes_1">
   <g id="patch_2">
    <path d="M 51.32 530.44 
L 709.2 530.44 
L 709.2 106.75725 
L 51.32 106.75725 
z
" style="fill: #ffffff"/>
   </g>
   <g id="PathCollection_1">
    <defs>
     <path id="m02a878651a" d="M 0 3 
C 0.795609 3 1.55874 2.683901 2.12132 2.12132 
C 2.683901 1.55874 3 0.795609 3 0 
C 3 -0.795609 2.683901 -1.55874 2.12132 -2.12132 
C 1.55874 -2.683901 0.795609 -3 0 -3 
C -0.795609 -3 -1.55874 -2.683901 -2.12132 -2.12132 
C -2.683901 -1.55874 -3 -0.795609 -3 0 
C -3 0.795609 -2.683901 1.55874 -2.12132 2.12132 
C -1.55874 2.683901 -0.795609 3 0 3 
z
" style="stroke: #ffffff; stroke-opacity: 0.7; stroke-width: 0.48"/>
    </defs>
    <g clip-path="url(#p74ba440dbd)">
     <use xlink:href="#m02a878651a" x="402.491315" y="126.015557" style="fill: #e41a1c; fill-opacity: 0.7; stroke: #ffffff; stroke-opacity: 0.7; stroke-width: 0.48"/>
     <use xlink:href="#m02a878651a" x="504.310907" y="212.650767" style="fill: #e41a1c; fill-opacity: 0.7; stroke: #ffffff; stroke-opacity: 0.7; stroke-width: 0.48"/>
     <use xlink:href="#m02a878651a" x="679.296364" y="218.297775" style="fill: #e41a1c; fill-opacity: 0.7; stroke: #ffffff; stroke-opacity: 0.7; stroke-width: 0.48"/>
     <use xlink:href="#m02a878651a" x="457.633861" y="231.162464" style="fill: #e41a1c; fill-opacity: 0.7; stroke: #ffffff; stroke-opacity: 0.7; stroke-width: 0.48"/>
     <use xlink:href="#m02a878651a" x="527.943952" y="248.084662" style="fill: #e41a1c; fill-opacity: 0.7; stroke: #ffffff; stroke-opacity: 0.7; stroke-width: 0.48"/>
     <use xlink:href="#m02a878651a" x="577.669308" y="249.67154" style="fill: #e41a1c; fill-opacity: 0.7; stroke: #ffffff; stroke-opacity: 0.7; stroke-width: 0.48"/>
     <use xlink:href="#m02a878651a" x="188.380806" y="251.708659" style="fill: #e41a1c; fill-opacity: 0.7; stroke: #ffffff; stroke-opacity: 0.7; stroke-width: 0.48"/>
     <use xlink:href="#m02a878651a" x="573.097137" y="252.009082" style="fill: #e41a1c; fill-opacity: 0.7; stroke: #ffffff; stroke-opacity: 0.7; stroke-width: 0.48"/>
     <use xlink:href="#m02a878651a" x="512.354762" y="263.452748" style="fill: #e41a1c; fill-opacity: 0.7; stroke: #ffffff; stroke-opacity: 0.7; stroke-width: 0.48"/>
     <use xlink:href="#m02a878651a" x="622.034867" y="272.514577" style="fill: #e41a1c; fill-opacity: 0.7; stroke: #ffffff; stroke-opacity: 0.7; stroke-width: 0.48"/>
     <use xlink:href="#m02a878651a" x="446.406666" y="300.075276" style="fill: #e41a1c; fill-opacity: 0.7; stroke: #ffffff; stroke-opacity: 0.7; stroke-width: 0.48"/>
     <use xlink:href="#m02a878651a" x="318.546314" y="301.39306" style="fill: #e41a1c; fill-opacity: 0.7; stroke: #ffffff; stroke-opacity: 0.7; stroke-width: 0.48"/>
     <use xlink:href="#m02a878651a" x="526.878438" y="329.898041" style="fill: #e41a1c; fill-opacity: 0.7; stroke: #ffffff; stroke-opacity: 0.7; stroke-width: 0.48"/>
     <use xlink:href="#m02a878651a" x="406.768027" y="350.23528" style="fill: #e41a1c; fill-opacity: 0.7; stroke: #ffffff; stroke-opacity: 0.7; stroke-width: 0.48"/>
     <use xlink:href="#m02a878651a" x="273.675855" y="382.760805" style="fill: #e41a1c; fill-opacity: 0.7; stroke: #ffffff; stroke-opacity: 0.7; stroke-width: 0.48"/>
     <use xlink:href="#m02a878651a" x="213.128154" y="414.50237" style="fill: #e41a1c; fill-opacity: 0.7; stroke: #ffffff; stroke-opacity: 0.7; stroke-width: 0.48"/>
     <use xlink:href="#m02a878651a" x="172.558649" y="487.945531" style="fill: #e41a1c; fill-opacity: 0.7; stroke: #ffffff; stroke-opacity: 0.7; stroke-width: 0.48"/>
     <use xlink:href="#m02a878651a" x="81.223636" y="511.181693" style="fill: #e41a1c; fill-opacity: 0.7; stroke: #ffffff; stroke-opacity: 0.7; stroke-width: 0.48"/>
    </g>
   </g>
   <g id="PolyCollection_1">
    <path d="M 81.223636 312.180774 
L 81.223636 499.422666 
L 87.264775 496.463583 
L 93.305914 493.051028 
L 99.347052 489.579876 
L 105.388191 486.29035 
L 111.42933 483.030714 
L 117.470468 479.951644 
L 123.511607 476.837602 
L 129.552746 473.374737 
L 135.593884 469.969663 
L 141.635023 466.667612 
L 147.676162 463.283426 
L 153.7173 460.00296 
L 159.758439 456.722494 
L 165.799578 453.569409 
L 171.840716 450.473393 
L 177.881855 447.377376 
L 183.922994 444.267059 
L 189.964132 441.165516 
L 196.005271 438.073752 
L 202.04641 434.981988 
L 208.087548 431.879421 
L 214.128687 428.68264 
L 220.169826 425.689074 
L 226.210964 422.599476 
L 232.252103 419.534048 
L 238.293242 416.409454 
L 244.33438 413.308243 
L 250.375519 410.048417 
L 256.416657 406.720205 
L 262.457796 403.54521 
L 268.498935 400.645822 
L 274.540073 397.737717 
L 280.581212 394.838716 
L 286.622351 391.937268 
L 292.663489 389.028311 
L 298.704628 386.097909 
L 304.745767 382.994623 
L 310.786905 379.904325 
L 316.828044 376.962683 
L 322.869183 374.051284 
L 328.910321 371.24215 
L 334.95146 368.251543 
L 340.992599 365.509617 
L 347.033737 362.640438 
L 353.074876 359.770787 
L 359.116015 356.789232 
L 365.157153 353.526387 
L 371.198292 350.510646 
L 377.239431 347.56685 
L 383.280569 344.714155 
L 389.321708 341.965488 
L 395.362847 339.261879 
L 401.403985 336.539496 
L 407.445124 333.850515 
L 413.486263 331.077797 
L 419.527401 328.21263 
L 425.56854 325.347463 
L 431.609679 322.917463 
L 437.650817 319.987844 
L 443.691956 316.882775 
L 449.733095 313.886794 
L 455.774233 311.021627 
L 461.815372 308.185341 
L 467.856511 306.00995 
L 473.897649 303.026059 
L 479.938788 299.978132 
L 485.979927 296.825185 
L 492.021065 294.321996 
L 498.062204 291.47669 
L 504.103343 288.800005 
L 510.144481 286.751274 
L 516.18562 284.704125 
L 522.226758 282.659315 
L 528.267897 280.650103 
L 534.309036 278.568407 
L 540.350174 276.075548 
L 546.391313 274.209838 
L 552.432452 272.343166 
L 558.47359 270.491806 
L 564.514729 268.940858 
L 570.555868 266.779697 
L 576.597006 265.084206 
L 582.638145 263.577594 
L 588.679284 261.641905 
L 594.720422 260.651686 
L 600.761561 258.785079 
L 606.8027 256.887645 
L 612.843838 255.205981 
L 618.884977 254.307831 
L 624.926116 253.184629 
L 630.967254 252.489972 
L 637.008393 251.783538 
L 643.049532 250.934381 
L 649.09067 249.338384 
L 655.131809 248.223562 
L 661.172948 246.792179 
L 667.214086 245.246396 
L 673.255225 243.700614 
L 679.296364 243.174048 
L 679.296364 137.934393 
L 679.296364 137.934393 
L 673.255225 141.090285 
L 667.214086 144.660012 
L 661.172948 148.229738 
L 655.131809 151.799465 
L 649.09067 155.371837 
L 643.049532 158.504638 
L 637.008393 161.409485 
L 630.967254 164.314331 
L 624.926116 167.219178 
L 618.884977 170.124024 
L 612.843838 172.849912 
L 606.8027 176.136939 
L 600.761561 179.477632 
L 594.720422 182.818324 
L 588.679284 186.144062 
L 582.638145 188.965981 
L 576.597006 192.642623 
L 570.555868 195.457362 
L 564.514729 198.69959 
L 558.47359 202.14723 
L 552.432452 205.67051 
L 546.391313 208.518415 
L 540.350174 211.122587 
L 534.309036 213.726759 
L 528.267897 216.797794 
L 522.226758 220.775623 
L 516.18562 224.753451 
L 510.144481 227.738267 
L 504.103343 229.877323 
L 498.062204 232.255883 
L 492.021065 233.839135 
L 485.979927 236.381593 
L 479.938788 238.563661 
L 473.897649 241.349974 
L 467.856511 243.514966 
L 461.815372 245.675679 
L 455.774233 247.685933 
L 449.733095 250.481573 
L 443.691956 252.509514 
L 437.650817 254.818263 
L 431.609679 257.164977 
L 425.56854 259.678282 
L 419.527401 261.432464 
L 413.486263 262.944044 
L 407.445124 264.513219 
L 401.403985 265.908418 
L 395.362847 267.234512 
L 389.321708 268.420484 
L 383.280569 269.617572 
L 377.239431 270.464981 
L 371.198292 271.407702 
L 365.157153 272.762616 
L 359.116015 273.677739 
L 353.074876 274.634302 
L 347.033737 276.100196 
L 340.992599 277.555741 
L 334.95146 278.888359 
L 328.910321 279.667352 
L 322.869183 280.132097 
L 316.828044 281.198661 
L 310.786905 281.955219 
L 304.745767 282.743229 
L 298.704628 283.671427 
L 292.663489 285.208814 
L 286.622351 286.266759 
L 280.581212 286.773076 
L 274.540073 287.279394 
L 268.498935 287.785711 
L 262.457796 288.292029 
L 256.416657 288.879217 
L 250.375519 289.387727 
L 244.33438 289.898286 
L 238.293242 291.172876 
L 232.252103 291.95218 
L 226.210964 292.718078 
L 220.169826 293.496977 
L 214.128687 294.275875 
L 208.087548 295.163966 
L 202.04641 296.345999 
L 196.005271 297.528032 
L 189.964132 298.710065 
L 183.922994 299.813678 
L 177.881855 300.606334 
L 171.840716 301.398989 
L 165.799578 302.086227 
L 159.758439 302.636781 
L 153.7173 303.18974 
L 147.676162 303.752296 
L 141.635023 304.553264 
L 135.593884 305.784086 
L 129.552746 306.494162 
L 123.511607 307.200527 
L 117.470468 307.909087 
L 111.42933 308.621035 
L 105.388191 309.332983 
L 99.347052 310.044931 
L 93.305914 310.756878 
L 87.264775 311.468826 
L 81.223636 312.180774 
z
" clip-path="url(#p74ba440dbd)" style="fill: #e41a1c; fill-opacity: 0.15"/>
   </g>
   <g id="matplotlib.axis_1">
    <g id="xtick_1">
     <g id="line2d_1">
      <path d="M 121.855248 530.44 
L 121.855248 106.75725 
" clip-path="url(#p74ba440dbd)" style="fill: none; stroke-dasharray: 2.96,1.28; stroke-dashoffset: 0; stroke: #b0b0b0; stroke-opacity: 0.6; stroke-width: 0.8"/>
     </g>
     <g id="line2d_2">
      <defs>
       <path id="mbc0bd9565c" d="M 0 0 
L 0 3.5 
" style="stroke: #000000; stroke-width: 0.8"/>
      </defs>
      <g>
       <use xlink:href="#mbc0bd9565c" x="121.855248" y="530.44" style="stroke: #000000; stroke-width: 0.8"/>
      </g>
     </g>
     <g id="text_1">
      <!-- 0.3 -->
      <g transform="translate(113.903685 545.038437) scale(0.1 -0.1)">
       <defs>
        <path id="DejaVuSans-30" d="M 2034 4250 
Q 1547 4250 1301 3770 
Q 1056 3291 1056 2328 
Q 1056 1369 1301 889 
Q 1547 409 2034 409 
Q 2525 409 2770 889 
Q 3016 1369 3016 2328 
Q 3016 3291 2770 3770 
Q 2525 4250 2034 4250 
z
M 2034 4750 
Q 2819 4750 3233 4129 
Q 3647 3509 3647 2328 
Q 3647 1150 3233 529 
Q 2819 -91 2034 -91 
Q 1250 -91 836 529 
Q 422 1150 422 2328 
Q 422 3509 836 4129 
Q 1250 4750 2034 4750 
z
" transform="scale(0.015625)"/>
        <path id="DejaVuSans-2e" d="M 684 794 
L 1344 794 
L 1344 0 
L 684 0 
L 684 794 
z
" transform="scale(0.015625)"/>
        <path id="DejaVuSans-33" d="M 2597 2516 
Q 3050 2419 3304 2112 
Q 3559 1806 3559 1356 
Q 3559 666 3084 287 
Q 2609 -91 1734 -91 
Q 1441 -91 1130 -33 
Q 819 25 488 141 
L 488 750 
Q 750 597 1062 519 
Q 1375 441 1716 441 
Q 2309 441 2620 675 
Q 2931 909 2931 1356 
Q 2931 1769 2642 2001 
Q 2353 2234 1838 2234 
L 1294 2234 
L 1294 2753 
L 1863 2753 
Q 2328 2753 2575 2939 
Q 2822 3125 2822 3475 
Q 2822 3834 2567 4026 
Q 2313 4219 1838 4219 
Q 1578 4219 1281 4162 
Q 984 4106 628 3988 
L 628 4550 
Q 988 4650 1302 4700 
Q 1616 4750 1894 4750 
Q 2613 4750 3031 4423 
Q 3450 4097 3450 3541 
Q 3450 3153 3228 2886 
Q 3006 2619 2597 2516 
z
" transform="scale(0.015625)"/>
       </defs>
       <use xlink:href="#DejaVuSans-30"/>
       <use xlink:href="#DejaVuSans-2e" x="63.623047"/>
       <use xlink:href="#DejaVuSans-33" x="95.410156"/>
      </g>
     </g>
    </g>
    <g id="xtick_2">
     <g id="line2d_3">
      <path d="M 252.2448 530.44 
L 252.2448 106.75725 
" clip-path="url(#p74ba440dbd)" style="fill: none; stroke-dasharray: 2.96,1.28; stroke-dashoffset: 0; stroke: #b0b0b0; stroke-opacity: 0.6; stroke-width: 0.8"/>
     </g>
     <g id="line2d_4">
      <g>
       <use xlink:href="#mbc0bd9565c" x="252.2448" y="530.44" style="stroke: #000000; stroke-width: 0.8"/>
      </g>
     </g>
     <g id="text_2">
      <!-- 0.4 -->
      <g transform="translate(244.293238 545.038437) scale(0.1 -0.1)">
       <defs>
        <path id="DejaVuSans-34" d="M 2419 4116 
L 825 1625 
L 2419 1625 
L 2419 4116 
z
M 2253 4666 
L 3047 4666 
L 3047 1625 
L 3713 1625 
L 3713 1100 
L 3047 1100 
L 3047 0 
L 2419 0 
L 2419 1100 
L 313 1100 
L 313 1709 
L 2253 4666 
z
" transform="scale(0.015625)"/>
       </defs>
       <use xlink:href="#DejaVuSans-30"/>
       <use xlink:href="#DejaVuSans-2e" x="63.623047"/>
       <use xlink:href="#DejaVuSans-34" x="95.410156"/>
      </g>
     </g>
    </g>
    <g id="xtick_3">
     <g id="line2d_5">
      <path d="M 382.634353 530.44 
L 382.634353 106.75725 
" clip-path="url(#p74ba440dbd)" style="fill: none; stroke-dasharray: 2.96,1.28; stroke-dashoffset: 0; stroke: #b0b0b0; stroke-opacity: 0.6; stroke-width: 0.8"/>
     </g>
     <g id="line2d_6">
      <g>
       <use xlink:href="#mbc0bd9565c" x="382.634353" y="530.44" style="stroke: #000000; stroke-width: 0.8"/>
      </g>
     </g>
     <g id="text_3">
      <!-- 0.5 -->
      <g transform="translate(374.682791 545.038437) scale(0.1 -0.1)">
       <defs>
        <path id="DejaVuSans-35" d="M 691 4666 
L 3169 4666 
L 3169 4134 
L 1269 4134 
L 1269 2991 
Q 1406 3038 1543 3061 
Q 1681 3084 1819 3084 
Q 2600 3084 3056 2656 
Q 3513 2228 3513 1497 
Q 3513 744 3044 326 
Q 2575 -91 1722 -91 
Q 1428 -91 1123 -41 
Q 819 9 494 109 
L 494 744 
Q 775 591 1075 516 
Q 1375 441 1709 441 
Q 2250 441 2565 725 
Q 2881 1009 2881 1497 
Q 2881 1984 2565 2268 
Q 2250 2553 1709 2553 
Q 1456 2553 1204 2497 
Q 953 2441 691 2322 
L 691 4666 
z
" transform="scale(0.015625)"/>
       </defs>
       <use xlink:href="#DejaVuSans-30"/>
       <use xlink:href="#DejaVuSans-2e" x="63.623047"/>
       <use xlink:href="#DejaVuSans-35" x="95.410156"/>
      </g>
     </g>
    </g>
    <g id="xtick_4">
     <g id="line2d_7">
      <path d="M 513.023906 530.44 
L 513.023906 106.75725 
" clip-path="url(#p74ba440dbd)" style="fill: none; stroke-dasharray: 2.96,1.28; stroke-dashoffset: 0; stroke: #b0b0b0; stroke-opacity: 0.6; stroke-width: 0.8"/>
     </g>
     <g id="line2d_8">
      <g>
       <use xlink:href="#mbc0bd9565c" x="513.023906" y="530.44" style="stroke: #000000; stroke-width: 0.8"/>
      </g>
     </g>
     <g id="text_4">
      <!-- 0.6 -->
      <g transform="translate(505.072343 545.038437) scale(0.1 -0.1)">
       <defs>
        <path id="DejaVuSans-36" d="M 2113 2584 
Q 1688 2584 1439 2293 
Q 1191 2003 1191 1497 
Q 1191 994 1439 701 
Q 1688 409 2113 409 
Q 2538 409 2786 701 
Q 3034 994 3034 1497 
Q 3034 2003 2786 2293 
Q 2538 2584 2113 2584 
z
M 3366 4563 
L 3366 3988 
Q 3128 4100 2886 4159 
Q 2644 4219 2406 4219 
Q 1781 4219 1451 3797 
Q 1122 3375 1075 2522 
Q 1259 2794 1537 2939 
Q 1816 3084 2150 3084 
Q 2853 3084 3261 2657 
Q 3669 2231 3669 1497 
Q 3669 778 3244 343 
Q 2819 -91 2113 -91 
Q 1303 -91 875 529 
Q 447 1150 447 2328 
Q 447 3434 972 4092 
Q 1497 4750 2381 4750 
Q 2619 4750 2861 4703 
Q 3103 4656 3366 4563 
z
" transform="scale(0.015625)"/>
       </defs>
       <use xlink:href="#DejaVuSans-30"/>
       <use xlink:href="#DejaVuSans-2e" x="63.623047"/>
       <use xlink:href="#DejaVuSans-36" x="95.410156"/>
      </g>
     </g>
    </g>
    <g id="xtick_5">
     <g id="line2d_9">
      <path d="M 643.413458 530.44 
L 643.413458 106.75725 
" clip-path="url(#p74ba440dbd)" style="fill: none; stroke-dasharray: 2.96,1.28; stroke-dashoffset: 0; stroke: #b0b0b0; stroke-opacity: 0.6; stroke-width: 0.8"/>
     </g>
     <g id="line2d_10">
      <g>
       <use xlink:href="#mbc0bd9565c" x="643.413458" y="530.44" style="stroke: #000000; stroke-width: 0.8"/>
      </g>
     </g>
     <g id="text_5">
      <!-- 0.7 -->
      <g transform="translate(635.461896 545.038437) scale(0.1 -0.1)">
       <defs>
        <path id="DejaVuSans-37" d="M 525 4666 
L 3525 4666 
L 3525 4397 
L 1831 0 
L 1172 0 
L 2766 4134 
L 525 4134 
L 525 4666 
z
" transform="scale(0.015625)"/>
       </defs>
       <use xlink:href="#DejaVuSans-30"/>
       <use xlink:href="#DejaVuSans-2e" x="63.623047"/>
       <use xlink:href="#DejaVuSans-37" x="95.410156"/>
      </g>
     </g>
    </g>
    <g id="text_6">
     <!-- Score: (x real, y real) -->
     <g transform="translate(306.903281 561.755937) scale(0.14 -0.14)">
      <defs>
       <path id="DejaVuSans-53" d="M 3425 4513 
L 3425 3897 
Q 3066 4069 2747 4153 
Q 2428 4238 2131 4238 
Q 1616 4238 1336 4038 
Q 1056 3838 1056 3469 
Q 1056 3159 1242 3001 
Q 1428 2844 1947 2747 
L 2328 2669 
Q 3034 2534 3370 2195 
Q 3706 1856 3706 1288 
Q 3706 609 3251 259 
Q 2797 -91 1919 -91 
Q 1588 -91 1214 -16 
Q 841 59 441 206 
L 441 856 
Q 825 641 1194 531 
Q 1563 422 1919 422 
Q 2459 422 2753 634 
Q 3047 847 3047 1241 
Q 3047 1584 2836 1778 
Q 2625 1972 2144 2069 
L 1759 2144 
Q 1053 2284 737 2584 
Q 422 2884 422 3419 
Q 422 4038 858 4394 
Q 1294 4750 2059 4750 
Q 2388 4750 2728 4690 
Q 3069 4631 3425 4513 
z
" transform="scale(0.015625)"/>
       <path id="DejaVuSans-63" d="M 3122 3366 
L 3122 2828 
Q 2878 2963 2633 3030 
Q 2388 3097 2138 3097 
Q 1578 3097 1268 2742 
Q 959 2388 959 1747 
Q 959 1106 1268 751 
Q 1578 397 2138 397 
Q 2388 397 2633 464 
Q 2878 531 3122 666 
L 3122 134 
Q 2881 22 2623 -34 
Q 2366 -91 2075 -91 
Q 1284 -91 818 406 
Q 353 903 353 1747 
Q 353 2603 823 3093 
Q 1294 3584 2113 3584 
Q 2378 3584 2631 3529 
Q 2884 3475 3122 3366 
z
" transform="scale(0.015625)"/>
       <path id="DejaVuSans-6f" d="M 1959 3097 
Q 1497 3097 1228 2736 
Q 959 2375 959 1747 
Q 959 1119 1226 758 
Q 1494 397 1959 397 
Q 2419 397 2687 759 
Q 2956 1122 2956 1747 
Q 2956 2369 2687 2733 
Q 2419 3097 1959 3097 
z
M 1959 3584 
Q 2709 3584 3137 3096 
Q 3566 2609 3566 1747 
Q 3566 888 3137 398 
Q 2709 -91 1959 -91 
Q 1206 -91 779 398 
Q 353 888 353 1747 
Q 353 2609 779 3096 
Q 1206 3584 1959 3584 
z
" transform="scale(0.015625)"/>
       <path id="DejaVuSans-72" d="M 2631 2963 
Q 2534 3019 2420 3045 
Q 2306 3072 2169 3072 
Q 1681 3072 1420 2755 
Q 1159 2438 1159 1844 
L 1159 0 
L 581 0 
L 581 3500 
L 1159 3500 
L 1159 2956 
Q 1341 3275 1631 3429 
Q 1922 3584 2338 3584 
Q 2397 3584 2469 3576 
Q 2541 3569 2628 3553 
L 2631 2963 
z
" transform="scale(0.015625)"/>
       <path id="DejaVuSans-65" d="M 3597 1894 
L 3597 1613 
L 953 1613 
Q 991 1019 1311 708 
Q 1631 397 2203 397 
Q 2534 397 2845 478 
Q 3156 559 3463 722 
L 3463 178 
Q 3153 47 2828 -22 
Q 2503 -91 2169 -91 
Q 1331 -91 842 396 
Q 353 884 353 1716 
Q 353 2575 817 3079 
Q 1281 3584 2069 3584 
Q 2775 3584 3186 3129 
Q 3597 2675 3597 1894 
z
M 3022 2063 
Q 3016 2534 2758 2815 
Q 2500 3097 2075 3097 
Q 1594 3097 1305 2825 
Q 1016 2553 972 2059 
L 3022 2063 
z
" transform="scale(0.015625)"/>
       <path id="DejaVuSans-3a" d="M 750 794 
L 1409 794 
L 1409 0 
L 750 0 
L 750 794 
z
M 750 3309 
L 1409 3309 
L 1409 2516 
L 750 2516 
L 750 3309 
z
" transform="scale(0.015625)"/>
       <path id="DejaVuSans-20" transform="scale(0.015625)"/>
       <path id="DejaVuSans-28" d="M 1984 4856 
Q 1566 4138 1362 3434 
Q 1159 2731 1159 2009 
Q 1159 1288 1364 580 
Q 1569 -128 1984 -844 
L 1484 -844 
Q 1016 -109 783 600 
Q 550 1309 550 2009 
Q 550 2706 781 3412 
Q 1013 4119 1484 4856 
L 1984 4856 
z
" transform="scale(0.015625)"/>
       <path id="DejaVuSans-78" d="M 3513 3500 
L 2247 1797 
L 3578 0 
L 2900 0 
L 1881 1375 
L 863 0 
L 184 0 
L 1544 1831 
L 300 3500 
L 978 3500 
L 1906 2253 
L 2834 3500 
L 3513 3500 
z
" transform="scale(0.015625)"/>
       <path id="DejaVuSans-61" d="M 2194 1759 
Q 1497 1759 1228 1600 
Q 959 1441 959 1056 
Q 959 750 1161 570 
Q 1363 391 1709 391 
Q 2188 391 2477 730 
Q 2766 1069 2766 1631 
L 2766 1759 
L 2194 1759 
z
M 3341 1997 
L 3341 0 
L 2766 0 
L 2766 531 
Q 2569 213 2275 61 
Q 1981 -91 1556 -91 
Q 1019 -91 701 211 
Q 384 513 384 1019 
Q 384 1609 779 1909 
Q 1175 2209 1959 2209 
L 2766 2209 
L 2766 2266 
Q 2766 2663 2505 2880 
Q 2244 3097 1772 3097 
Q 1472 3097 1187 3025 
Q 903 2953 641 2809 
L 641 3341 
Q 956 3463 1253 3523 
Q 1550 3584 1831 3584 
Q 2591 3584 2966 3190 
Q 3341 2797 3341 1997 
z
" transform="scale(0.015625)"/>
       <path id="DejaVuSans-6c" d="M 603 4863 
L 1178 4863 
L 1178 0 
L 603 0 
L 603 4863 
z
" transform="scale(0.015625)"/>
       <path id="DejaVuSans-2c" d="M 750 794 
L 1409 794 
L 1409 256 
L 897 -744 
L 494 -744 
L 750 256 
L 750 794 
z
" transform="scale(0.015625)"/>
       <path id="DejaVuSans-79" d="M 2059 -325 
Q 1816 -950 1584 -1140 
Q 1353 -1331 966 -1331 
L 506 -1331 
L 506 -850 
L 844 -850 
Q 1081 -850 1212 -737 
Q 1344 -625 1503 -206 
L 1606 56 
L 191 3500 
L 800 3500 
L 1894 763 
L 2988 3500 
L 3597 3500 
L 2059 -325 
z
" transform="scale(0.015625)"/>
       <path id="DejaVuSans-29" d="M 513 4856 
L 1013 4856 
Q 1481 4119 1714 3412 
Q 1947 2706 1947 2009 
Q 1947 1309 1714 600 
Q 1481 -109 1013 -844 
L 513 -844 
Q 928 -128 1133 580 
Q 1338 1288 1338 2009 
Q 1338 2731 1133 3434 
Q 928 4138 513 4856 
z
" transform="scale(0.015625)"/>
      </defs>
      <use xlink:href="#DejaVuSans-53"/>
      <use xlink:href="#DejaVuSans-63" x="63.476562"/>
      <use xlink:href="#DejaVuSans-6f" x="118.457031"/>
      <use xlink:href="#DejaVuSans-72" x="179.638672"/>
      <use xlink:href="#DejaVuSans-65" x="218.501953"/>
      <use xlink:href="#DejaVuSans-3a" x="280.025391"/>
      <use xlink:href="#DejaVuSans-20" x="313.716797"/>
      <use xlink:href="#DejaVuSans-28" x="345.503906"/>
      <use xlink:href="#DejaVuSans-78" x="384.517578"/>
      <use xlink:href="#DejaVuSans-20" x="443.697266"/>
      <use xlink:href="#DejaVuSans-72" x="475.484375"/>
      <use xlink:href="#DejaVuSans-65" x="514.347656"/>
      <use xlink:href="#DejaVuSans-61" x="575.871094"/>
      <use xlink:href="#DejaVuSans-6c" x="637.150391"/>
      <use xlink:href="#DejaVuSans-2c" x="664.933594"/>
      <use xlink:href="#DejaVuSans-20" x="696.720703"/>
      <use xlink:href="#DejaVuSans-79" x="728.507812"/>
      <use xlink:href="#DejaVuSans-20" x="787.6875"/>
      <use xlink:href="#DejaVuSans-72" x="819.474609"/>
      <use xlink:href="#DejaVuSans-65" x="858.337891"/>
      <use xlink:href="#DejaVuSans-61" x="919.861328"/>
      <use xlink:href="#DejaVuSans-6c" x="981.140625"/>
      <use xlink:href="#DejaVuSans-29" x="1008.923828"/>
     </g>
    </g>
   </g>
   <g id="matplotlib.axis_2">
    <g id="ytick_1">
     <g id="line2d_11">
      <path d="M 51.32 476.629646 
L 709.2 476.629646 
" clip-path="url(#p74ba440dbd)" style="fill: none; stroke-dasharray: 2.96,1.28; stroke-dashoffset: 0; stroke: #b0b0b0; stroke-opacity: 0.6; stroke-width: 0.8"/>
     </g>
     <g id="line2d_12">
      <defs>
       <path id="m1ef57f9c63" d="M 0 0 
L -3.5 0 
" style="stroke: #000000; stroke-width: 0.8"/>
      </defs>
      <g>
       <use xlink:href="#m1ef57f9c63" x="51.32" y="476.629646" style="stroke: #000000; stroke-width: 0.8"/>
      </g>
     </g>
     <g id="text_7">
      <!-- 0.2 -->
      <g transform="translate(28.416875 480.428865) scale(0.1 -0.1)">
       <defs>
        <path id="DejaVuSans-32" d="M 1228 531 
L 3431 531 
L 3431 0 
L 469 0 
L 469 531 
Q 828 903 1448 1529 
Q 2069 2156 2228 2338 
Q 2531 2678 2651 2914 
Q 2772 3150 2772 3378 
Q 2772 3750 2511 3984 
Q 2250 4219 1831 4219 
Q 1534 4219 1204 4116 
Q 875 4013 500 3803 
L 500 4441 
Q 881 4594 1212 4672 
Q 1544 4750 1819 4750 
Q 2544 4750 2975 4387 
Q 3406 4025 3406 3419 
Q 3406 3131 3298 2873 
Q 3191 2616 2906 2266 
Q 2828 2175 2409 1742 
Q 1991 1309 1228 531 
z
" transform="scale(0.015625)"/>
       </defs>
       <use xlink:href="#DejaVuSans-30"/>
       <use xlink:href="#DejaVuSans-2e" x="63.623047"/>
       <use xlink:href="#DejaVuSans-32" x="95.410156"/>
      </g>
     </g>
    </g>
    <g id="ytick_2">
     <g id="line2d_13">
      <path d="M 51.32 383.0523 
L 709.2 383.0523 
" clip-path="url(#p74ba440dbd)" style="fill: none; stroke-dasharray: 2.96,1.28; stroke-dashoffset: 0; stroke: #b0b0b0; stroke-opacity: 0.6; stroke-width: 0.8"/>
     </g>
     <g id="line2d_14">
      <g>
       <use xlink:href="#m1ef57f9c63" x="51.32" y="383.0523" style="stroke: #000000; stroke-width: 0.8"/>
      </g>
     </g>
     <g id="text_8">
      <!-- 0.4 -->
      <g transform="translate(28.416875 386.851519) scale(0.1 -0.1)">
       <use xlink:href="#DejaVuSans-30"/>
       <use xlink:href="#DejaVuSans-2e" x="63.623047"/>
       <use xlink:href="#DejaVuSans-34" x="95.410156"/>
      </g>
     </g>
    </g>
    <g id="ytick_3">
     <g id="line2d_15">
      <path d="M 51.32 289.474955 
L 709.2 289.474955 
" clip-path="url(#p74ba440dbd)" style="fill: none; stroke-dasharray: 2.96,1.28; stroke-dashoffset: 0; stroke: #b0b0b0; stroke-opacity: 0.6; stroke-width: 0.8"/>
     </g>
     <g id="line2d_16">
      <g>
       <use xlink:href="#m1ef57f9c63" x="51.32" y="289.474955" style="stroke: #000000; stroke-width: 0.8"/>
      </g>
     </g>
     <g id="text_9">
      <!-- 0.6 -->
      <g transform="translate(28.416875 293.274173) scale(0.1 -0.1)">
       <use xlink:href="#DejaVuSans-30"/>
       <use xlink:href="#DejaVuSans-2e" x="63.623047"/>
       <use xlink:href="#DejaVuSans-36" x="95.410156"/>
      </g>
     </g>
    </g>
    <g id="ytick_4">
     <g id="line2d_17">
      <path d="M 51.32 195.897609 
L 709.2 195.897609 
" clip-path="url(#p74ba440dbd)" style="fill: none; stroke-dasharray: 2.96,1.28; stroke-dashoffset: 0; stroke: #b0b0b0; stroke-opacity: 0.6; stroke-width: 0.8"/>
     </g>
     <g id="line2d_18">
      <g>
       <use xlink:href="#m1ef57f9c63" x="51.32" y="195.897609" style="stroke: #000000; stroke-width: 0.8"/>
      </g>
     </g>
     <g id="text_10">
      <!-- 0.8 -->
      <g transform="translate(28.416875 199.696828) scale(0.1 -0.1)">
       <defs>
        <path id="DejaVuSans-38" d="M 2034 2216 
Q 1584 2216 1326 1975 
Q 1069 1734 1069 1313 
Q 1069 891 1326 650 
Q 1584 409 2034 409 
Q 2484 409 2743 651 
Q 3003 894 3003 1313 
Q 3003 1734 2745 1975 
Q 2488 2216 2034 2216 
z
M 1403 2484 
Q 997 2584 770 2862 
Q 544 3141 544 3541 
Q 544 4100 942 4425 
Q 1341 4750 2034 4750 
Q 2731 4750 3128 4425 
Q 3525 4100 3525 3541 
Q 3525 3141 3298 2862 
Q 3072 2584 2669 2484 
Q 3125 2378 3379 2068 
Q 3634 1759 3634 1313 
Q 3634 634 3220 271 
Q 2806 -91 2034 -91 
Q 1263 -91 848 271 
Q 434 634 434 1313 
Q 434 1759 690 2068 
Q 947 2378 1403 2484 
z
M 1172 3481 
Q 1172 3119 1398 2916 
Q 1625 2713 2034 2713 
Q 2441 2713 2670 2916 
Q 2900 3119 2900 3481 
Q 2900 3844 2670 4047 
Q 2441 4250 2034 4250 
Q 1625 4250 1398 4047 
Q 1172 3844 1172 3481 
z
" transform="scale(0.015625)"/>
       </defs>
       <use xlink:href="#DejaVuSans-30"/>
       <use xlink:href="#DejaVuSans-2e" x="63.623047"/>
       <use xlink:href="#DejaVuSans-38" x="95.410156"/>
      </g>
     </g>
    </g>
    <g id="text_11">
     <!-- Y/X Surface Area (mm) -->
     <g transform="translate(21.505313 398.573625) rotate(-90) scale(0.14 -0.14)">
      <defs>
       <path id="DejaVuSans-59" d="M -13 4666 
L 666 4666 
L 1959 2747 
L 3244 4666 
L 3922 4666 
L 2272 2222 
L 2272 0 
L 1638 0 
L 1638 2222 
L -13 4666 
z
" transform="scale(0.015625)"/>
       <path id="DejaVuSans-2f" d="M 1625 4666 
L 2156 4666 
L 531 -594 
L 0 -594 
L 1625 4666 
z
" transform="scale(0.015625)"/>
       <path id="DejaVuSans-58" d="M 403 4666 
L 1081 4666 
L 2241 2931 
L 3406 4666 
L 4084 4666 
L 2584 2425 
L 4184 0 
L 3506 0 
L 2194 1984 
L 872 0 
L 191 0 
L 1856 2491 
L 403 4666 
z
" transform="scale(0.015625)"/>
       <path id="DejaVuSans-75" d="M 544 1381 
L 544 3500 
L 1119 3500 
L 1119 1403 
Q 1119 906 1312 657 
Q 1506 409 1894 409 
Q 2359 409 2629 706 
Q 2900 1003 2900 1516 
L 2900 3500 
L 3475 3500 
L 3475 0 
L 2900 0 
L 2900 538 
Q 2691 219 2414 64 
Q 2138 -91 1772 -91 
Q 1169 -91 856 284 
Q 544 659 544 1381 
z
M 1991 3584 
L 1991 3584 
z
" transform="scale(0.015625)"/>
       <path id="DejaVuSans-66" d="M 2375 4863 
L 2375 4384 
L 1825 4384 
Q 1516 4384 1395 4259 
Q 1275 4134 1275 3809 
L 1275 3500 
L 2222 3500 
L 2222 3053 
L 1275 3053 
L 1275 0 
L 697 0 
L 697 3053 
L 147 3053 
L 147 3500 
L 697 3500 
L 697 3744 
Q 697 4328 969 4595 
Q 1241 4863 1831 4863 
L 2375 4863 
z
" transform="scale(0.015625)"/>
       <path id="DejaVuSans-41" d="M 2188 4044 
L 1331 1722 
L 3047 1722 
L 2188 4044 
z
M 1831 4666 
L 2547 4666 
L 4325 0 
L 3669 0 
L 3244 1197 
L 1141 1197 
L 716 0 
L 50 0 
L 1831 4666 
z
" transform="scale(0.015625)"/>
       <path id="DejaVuSans-6d" d="M 3328 2828 
Q 3544 3216 3844 3400 
Q 4144 3584 4550 3584 
Q 5097 3584 5394 3201 
Q 5691 2819 5691 2113 
L 5691 0 
L 5113 0 
L 5113 2094 
Q 5113 2597 4934 2840 
Q 4756 3084 4391 3084 
Q 3944 3084 3684 2787 
Q 3425 2491 3425 1978 
L 3425 0 
L 2847 0 
L 2847 2094 
Q 2847 2600 2669 2842 
Q 2491 3084 2119 3084 
Q 1678 3084 1418 2786 
Q 1159 2488 1159 1978 
L 1159 0 
L 581 0 
L 581 3500 
L 1159 3500 
L 1159 2956 
Q 1356 3278 1631 3431 
Q 1906 3584 2284 3584 
Q 2666 3584 2933 3390 
Q 3200 3197 3328 2828 
z
" transform="scale(0.015625)"/>
      </defs>
      <use xlink:href="#DejaVuSans-59"/>
      <use xlink:href="#DejaVuSans-2f" x="61.083984"/>
      <use xlink:href="#DejaVuSans-58" x="94.775391"/>
      <use xlink:href="#DejaVuSans-20" x="163.28125"/>
      <use xlink:href="#DejaVuSans-53" x="195.068359"/>
      <use xlink:href="#DejaVuSans-75" x="258.544922"/>
      <use xlink:href="#DejaVuSans-72" x="321.923828"/>
      <use xlink:href="#DejaVuSans-66" x="363.037109"/>
      <use xlink:href="#DejaVuSans-61" x="398.242188"/>
      <use xlink:href="#DejaVuSans-63" x="459.521484"/>
      <use xlink:href="#DejaVuSans-65" x="514.501953"/>
      <use xlink:href="#DejaVuSans-20" x="576.025391"/>
      <use xlink:href="#DejaVuSans-41" x="607.8125"/>
      <use xlink:href="#DejaVuSans-72" x="676.220703"/>
      <use xlink:href="#DejaVuSans-65" x="715.083984"/>
      <use xlink:href="#DejaVuSans-61" x="776.607422"/>
      <use xlink:href="#DejaVuSans-20" x="837.886719"/>
      <use xlink:href="#DejaVuSans-28" x="869.673828"/>
      <use xlink:href="#DejaVuSans-6d" x="908.6875"/>
      <use xlink:href="#DejaVuSans-6d" x="1006.099609"/>
      <use xlink:href="#DejaVuSans-29" x="1103.511719"/>
     </g>
    </g>
   </g>
   <g id="line2d_19">
    <path d="M 81.223636 432.406583 
L 87.264775 430.019409 
L 93.305914 427.632235 
L 99.347052 425.245062 
L 105.388191 422.857888 
L 111.42933 420.470714 
L 117.470468 418.083541 
L 123.511607 415.696367 
L 129.552746 413.309193 
L 135.593884 410.92202 
L 141.635023 408.534846 
L 147.676162 406.147672 
L 153.7173 403.760498 
L 159.758439 401.373325 
L 165.799578 398.986151 
L 171.840716 396.598977 
L 177.881855 394.211804 
L 183.922994 391.82463 
L 189.964132 389.437456 
L 196.005271 387.050283 
L 202.04641 384.663109 
L 208.087548 382.275935 
L 214.128687 379.888762 
L 220.169826 377.501588 
L 226.210964 375.114414 
L 232.252103 372.727241 
L 238.293242 370.340067 
L 244.33438 367.952893 
L 250.375519 365.56572 
L 256.416657 363.178546 
L 262.457796 360.791372 
L 268.498935 358.404199 
L 274.540073 356.017025 
L 280.581212 353.629851 
L 286.622351 351.242677 
L 292.663489 348.855504 
L 298.704628 346.46833 
L 304.745767 344.081156 
L 310.786905 341.693983 
L 316.828044 339.306809 
L 322.869183 336.919635 
L 328.910321 334.532462 
L 334.95146 332.145288 
L 340.992599 329.758114 
L 347.033737 327.370941 
L 353.074876 324.983767 
L 359.116015 322.596593 
L 365.157153 320.20942 
L 371.198292 317.822246 
L 377.239431 315.435072 
L 383.280569 313.047899 
L 389.321708 310.660725 
L 395.362847 308.273551 
L 401.403985 305.886378 
L 407.445124 303.499204 
L 413.486263 301.11203 
L 419.527401 298.724856 
L 425.56854 296.337683 
L 431.609679 293.950509 
L 437.650817 291.563335 
L 443.691956 289.176162 
L 449.733095 286.788988 
L 455.774233 284.401814 
L 461.815372 282.014641 
L 467.856511 279.627467 
L 473.897649 277.240293 
L 479.938788 274.85312 
L 485.979927 272.465946 
L 492.021065 270.078772 
L 498.062204 267.691599 
L 504.103343 265.304425 
L 510.144481 262.917251 
L 516.18562 260.530078 
L 522.226758 258.142904 
L 528.267897 255.75573 
L 534.309036 253.368557 
L 540.350174 250.981383 
L 546.391313 248.594209 
L 552.432452 246.207035 
L 558.47359 243.819862 
L 564.514729 241.432688 
L 570.555868 239.045514 
L 576.597006 236.658341 
L 582.638145 234.271167 
L 588.679284 231.883993 
L 594.720422 229.49682 
L 600.761561 227.109646 
L 606.8027 224.722472 
L 612.843838 222.335299 
L 618.884977 219.948125 
L 624.926116 217.560951 
L 630.967254 215.173778 
L 637.008393 212.786604 
L 643.049532 210.39943 
L 649.09067 208.012257 
L 655.131809 205.625083 
L 661.172948 203.237909 
L 667.214086 200.850736 
L 673.255225 198.463562 
L 679.296364 196.076388 
" clip-path="url(#p74ba440dbd)" style="fill: none; stroke-dasharray: 8.325,3.6; stroke-dashoffset: 0; stroke: #e41a1c; stroke-width: 2.25"/>
   </g>
   <g id="patch_3">
    <path d="M 51.32 530.44 
L 51.32 106.75725 
" style="fill: none; stroke: #000000; stroke-width: 0.8; stroke-linejoin: miter; stroke-linecap: square"/>
   </g>
   <g id="patch_4">
    <path d="M 709.2 530.44 
L 709.2 106.75725 
" style="fill: none; stroke: #000000; stroke-width: 0.8; stroke-linejoin: miter; stroke-linecap: square"/>
   </g>
   <g id="patch_5">
    <path d="M 51.32 530.44 
L 709.2 530.44 
" style="fill: none; stroke: #000000; stroke-width: 0.8; stroke-linejoin: miter; stroke-linecap: square"/>
   </g>
   <g id="patch_6">
    <path d="M 51.32 106.75725 
L 709.2 106.75725 
" style="fill: none; stroke: #000000; stroke-width: 0.8; stroke-linejoin: miter; stroke-linecap: square"/>
   </g>
   <g id="text_12">
    <!-- Effect of Score: (x real, y real) on Y/X Surface Area (mm) -->
    <g transform="translate(154.0325 64.47925) scale(0.16 -0.16)">
     <defs>
      <path id="DejaVuSans-45" d="M 628 4666 
L 3578 4666 
L 3578 4134 
L 1259 4134 
L 1259 2753 
L 3481 2753 
L 3481 2222 
L 1259 2222 
L 1259 531 
L 3634 531 
L 3634 0 
L 628 0 
L 628 4666 
z
" transform="scale(0.015625)"/>
      <path id="DejaVuSans-74" d="M 1172 4494 
L 1172 3500 
L 2356 3500 
L 2356 3053 
L 1172 3053 
L 1172 1153 
Q 1172 725 1289 603 
Q 1406 481 1766 481 
L 2356 481 
L 2356 0 
L 1766 0 
Q 1100 0 847 248 
Q 594 497 594 1153 
L 594 3053 
L 172 3053 
L 172 3500 
L 594 3500 
L 594 4494 
L 1172 4494 
z
" transform="scale(0.015625)"/>
      <path id="DejaVuSans-6e" d="M 3513 2113 
L 3513 0 
L 2938 0 
L 2938 2094 
Q 2938 2591 2744 2837 
Q 2550 3084 2163 3084 
Q 1697 3084 1428 2787 
Q 1159 2491 1159 1978 
L 1159 0 
L 581 0 
L 581 3500 
L 1159 3500 
L 1159 2956 
Q 1366 3272 1645 3428 
Q 1925 3584 2291 3584 
Q 2894 3584 3203 3211 
Q 3513 2838 3513 2113 
z
" transform="scale(0.015625)"/>
     </defs>
     <use xlink:href="#DejaVuSans-45"/>
     <use xlink:href="#DejaVuSans-66" x="63.183594"/>
     <use xlink:href="#DejaVuSans-66" x="98.388672"/>
     <use xlink:href="#DejaVuSans-65" x="133.59375"/>
     <use xlink:href="#DejaVuSans-63" x="195.117188"/>
     <use xlink:href="#DejaVuSans-74" x="250.097656"/>
     <use xlink:href="#DejaVuSans-20" x="289.306641"/>
     <use xlink:href="#DejaVuSans-6f" x="321.09375"/>
     <use xlink:href="#DejaVuSans-66" x="382.275391"/>
     <use xlink:href="#DejaVuSans-20" x="417.480469"/>
     <use xlink:href="#DejaVuSans-53" x="449.267578"/>
     <use xlink:href="#DejaVuSans-63" x="512.744141"/>
     <use xlink:href="#DejaVuSans-6f" x="567.724609"/>
     <use xlink:href="#DejaVuSans-72" x="628.90625"/>
     <use xlink:href="#DejaVuSans-65" x="667.769531"/>
     <use xlink:href="#DejaVuSans-3a" x="729.292969"/>
     <use xlink:href="#DejaVuSans-20" x="762.984375"/>
     <use xlink:href="#DejaVuSans-28" x="794.771484"/>
     <use xlink:href="#DejaVuSans-78" x="833.785156"/>
     <use xlink:href="#DejaVuSans-20" x="892.964844"/>
     <use xlink:href="#DejaVuSans-72" x="924.751953"/>
     <use xlink:href="#DejaVuSans-65" x="963.615234"/>
     <use xlink:href="#DejaVuSans-61" x="1025.138672"/>
     <use xlink:href="#DejaVuSans-6c" x="1086.417969"/>
     <use xlink:href="#DejaVuSans-2c" x="1114.201172"/>
     <use xlink:href="#DejaVuSans-20" x="1145.988281"/>
     <use xlink:href="#DejaVuSans-79" x="1177.775391"/>
     <use xlink:href="#DejaVuSans-20" x="1236.955078"/>
     <use xlink:href="#DejaVuSans-72" x="1268.742188"/>
     <use xlink:href="#DejaVuSans-65" x="1307.605469"/>
     <use xlink:href="#DejaVuSans-61" x="1369.128906"/>
     <use xlink:href="#DejaVuSans-6c" x="1430.408203"/>
     <use xlink:href="#DejaVuSans-29" x="1458.191406"/>
     <use xlink:href="#DejaVuSans-20" x="1497.205078"/>
     <use xlink:href="#DejaVuSans-6f" x="1528.992188"/>
     <use xlink:href="#DejaVuSans-6e" x="1590.173828"/>
     <use xlink:href="#DejaVuSans-20" x="1653.552734"/>
     <use xlink:href="#DejaVuSans-59" x="1685.339844"/>
     <use xlink:href="#DejaVuSans-2f" x="1746.423828"/>
     <use xlink:href="#DejaVuSans-58" x="1780.115234"/>
     <use xlink:href="#DejaVuSans-20" x="1848.621094"/>
     <use xlink:href="#DejaVuSans-53" x="1880.408203"/>
     <use xlink:href="#DejaVuSans-75" x="1943.884766"/>
     <use xlink:href="#DejaVuSans-72" x="2007.263672"/>
     <use xlink:href="#DejaVuSans-66" x="2048.376953"/>
     <use xlink:href="#DejaVuSans-61" x="2083.582031"/>
     <use xlink:href="#DejaVuSans-63" x="2144.861328"/>
     <use xlink:href="#DejaVuSans-65" x="2199.841797"/>
     <use xlink:href="#DejaVuSans-20" x="2261.365234"/>
     <use xlink:href="#DejaVuSans-41" x="2293.152344"/>
     <use xlink:href="#DejaVuSans-72" x="2361.560547"/>
     <use xlink:href="#DejaVuSans-65" x="2400.423828"/>
     <use xlink:href="#DejaVuSans-61" x="2461.947266"/>
     <use xlink:href="#DejaVuSans-20" x="2523.226562"/>
     <use xlink:href="#DejaVuSans-28" x="2555.013672"/>
     <use xlink:href="#DejaVuSans-6d" x="2594.027344"/>
     <use xlink:href="#DejaVuSans-6d" x="2691.439453"/>
     <use xlink:href="#DejaVuSans-29" x="2788.851562"/>
    </g>
    <!-- Group: cleaned_words  -->
    <g transform="translate(288.77875 82.39575) scale(0.16 -0.16)">
     <defs>
      <path id="DejaVuSans-47" d="M 3809 666 
L 3809 1919 
L 2778 1919 
L 2778 2438 
L 4434 2438 
L 4434 434 
Q 4069 175 3628 42 
Q 3188 -91 2688 -91 
Q 1594 -91 976 548 
Q 359 1188 359 2328 
Q 359 3472 976 4111 
Q 1594 4750 2688 4750 
Q 3144 4750 3555 4637 
Q 3966 4525 4313 4306 
L 4313 3634 
Q 3963 3931 3569 4081 
Q 3175 4231 2741 4231 
Q 1884 4231 1454 3753 
Q 1025 3275 1025 2328 
Q 1025 1384 1454 906 
Q 1884 428 2741 428 
Q 3075 428 3337 486 
Q 3600 544 3809 666 
z
" transform="scale(0.015625)"/>
      <path id="DejaVuSans-70" d="M 1159 525 
L 1159 -1331 
L 581 -1331 
L 581 3500 
L 1159 3500 
L 1159 2969 
Q 1341 3281 1617 3432 
Q 1894 3584 2278 3584 
Q 2916 3584 3314 3078 
Q 3713 2572 3713 1747 
Q 3713 922 3314 415 
Q 2916 -91 2278 -91 
Q 1894 -91 1617 61 
Q 1341 213 1159 525 
z
M 3116 1747 
Q 3116 2381 2855 2742 
Q 2594 3103 2138 3103 
Q 1681 3103 1420 2742 
Q 1159 2381 1159 1747 
Q 1159 1113 1420 752 
Q 1681 391 2138 391 
Q 2594 391 2855 752 
Q 3116 1113 3116 1747 
z
" transform="scale(0.015625)"/>
      <path id="DejaVuSans-64" d="M 2906 2969 
L 2906 4863 
L 3481 4863 
L 3481 0 
L 2906 0 
L 2906 525 
Q 2725 213 2448 61 
Q 2172 -91 1784 -91 
Q 1150 -91 751 415 
Q 353 922 353 1747 
Q 353 2572 751 3078 
Q 1150 3584 1784 3584 
Q 2172 3584 2448 3432 
Q 2725 3281 2906 2969 
z
M 947 1747 
Q 947 1113 1208 752 
Q 1469 391 1925 391 
Q 2381 391 2643 752 
Q 2906 1113 2906 1747 
Q 2906 2381 2643 2742 
Q 2381 3103 1925 3103 
Q 1469 3103 1208 2742 
Q 947 2381 947 1747 
z
" transform="scale(0.015625)"/>
      <path id="DejaVuSans-5f" d="M 3263 -1063 
L 3263 -1509 
L -63 -1509 
L -63 -1063 
L 3263 -1063 
z
" transform="scale(0.015625)"/>
      <path id="DejaVuSans-77" d="M 269 3500 
L 844 3500 
L 1563 769 
L 2278 3500 
L 2956 3500 
L 3675 769 
L 4391 3500 
L 4966 3500 
L 4050 0 
L 3372 0 
L 2619 2869 
L 1863 0 
L 1184 0 
L 269 3500 
z
" transform="scale(0.015625)"/>
      <path id="DejaVuSans-73" d="M 2834 3397 
L 2834 2853 
Q 2591 2978 2328 3040 
Q 2066 3103 1784 3103 
Q 1356 3103 1142 2972 
Q 928 2841 928 2578 
Q 928 2378 1081 2264 
Q 1234 2150 1697 2047 
L 1894 2003 
Q 2506 1872 2764 1633 
Q 3022 1394 3022 966 
Q 3022 478 2636 193 
Q 2250 -91 1575 -91 
Q 1294 -91 989 -36 
Q 684 19 347 128 
L 347 722 
Q 666 556 975 473 
Q 1284 391 1588 391 
Q 1994 391 2212 530 
Q 2431 669 2431 922 
Q 2431 1156 2273 1281 
Q 2116 1406 1581 1522 
L 1381 1569 
Q 847 1681 609 1914 
Q 372 2147 372 2553 
Q 372 3047 722 3315 
Q 1072 3584 1716 3584 
Q 2034 3584 2315 3537 
Q 2597 3491 2834 3397 
z
" transform="scale(0.015625)"/>
     </defs>
     <use xlink:href="#DejaVuSans-47"/>
     <use xlink:href="#DejaVuSans-72" x="77.490234"/>
     <use xlink:href="#DejaVuSans-6f" x="116.353516"/>
     <use xlink:href="#DejaVuSans-75" x="177.535156"/>
     <use xlink:href="#DejaVuSans-70" x="240.914062"/>
     <use xlink:href="#DejaVuSans-3a" x="304.390625"/>
     <use xlink:href="#DejaVuSans-20" x="338.082031"/>
     <use xlink:href="#DejaVuSans-63" x="369.869141"/>
     <use xlink:href="#DejaVuSans-6c" x="424.849609"/>
     <use xlink:href="#DejaVuSans-65" x="452.632812"/>
     <use xlink:href="#DejaVuSans-61" x="514.15625"/>
     <use xlink:href="#DejaVuSans-6e" x="575.435547"/>
     <use xlink:href="#DejaVuSans-65" x="638.814453"/>
     <use xlink:href="#DejaVuSans-64" x="700.337891"/>
     <use xlink:href="#DejaVuSans-5f" x="763.814453"/>
     <use xlink:href="#DejaVuSans-77" x="813.814453"/>
     <use xlink:href="#DejaVuSans-6f" x="895.601562"/>
     <use xlink:href="#DejaVuSans-72" x="956.783203"/>
     <use xlink:href="#DejaVuSans-64" x="996.146484"/>
     <use xlink:href="#DejaVuSans-73" x="1059.623047"/>
     <use xlink:href="#DejaVuSans-20" x="1111.722656"/>
    </g>
    <!-- All modules, including non-optimal -->
    <g transform="translate(241.26875 100.75725) scale(0.16 -0.16)">
     <defs>
      <path id="DejaVuSans-69" d="M 603 3500 
L 1178 3500 
L 1178 0 
L 603 0 
L 603 3500 
z
M 603 4863 
L 1178 4863 
L 1178 4134 
L 603 4134 
L 603 4863 
z
" transform="scale(0.015625)"/>
      <path id="DejaVuSans-67" d="M 2906 1791 
Q 2906 2416 2648 2759 
Q 2391 3103 1925 3103 
Q 1463 3103 1205 2759 
Q 947 2416 947 1791 
Q 947 1169 1205 825 
Q 1463 481 1925 481 
Q 2391 481 2648 825 
Q 2906 1169 2906 1791 
z
M 3481 434 
Q 3481 -459 3084 -895 
Q 2688 -1331 1869 -1331 
Q 1566 -1331 1297 -1286 
Q 1028 -1241 775 -1147 
L 775 -588 
Q 1028 -725 1275 -790 
Q 1522 -856 1778 -856 
Q 2344 -856 2625 -561 
Q 2906 -266 2906 331 
L 2906 616 
Q 2728 306 2450 153 
Q 2172 0 1784 0 
Q 1141 0 747 490 
Q 353 981 353 1791 
Q 353 2603 747 3093 
Q 1141 3584 1784 3584 
Q 2172 3584 2450 3431 
Q 2728 3278 2906 2969 
L 2906 3500 
L 3481 3500 
L 3481 434 
z
" transform="scale(0.015625)"/>
      <path id="DejaVuSans-2d" d="M 313 2009 
L 1997 2009 
L 1997 1497 
L 313 1497 
L 313 2009 
z
" transform="scale(0.015625)"/>
     </defs>
     <use xlink:href="#DejaVuSans-41"/>
     <use xlink:href="#DejaVuSans-6c" x="68.408203"/>
     <use xlink:href="#DejaVuSans-6c" x="96.191406"/>
     <use xlink:href="#DejaVuSans-20" x="123.974609"/>
     <use xlink:href="#DejaVuSans-6d" x="155.761719"/>
     <use xlink:href="#DejaVuSans-6f" x="253.173828"/>
     <use xlink:href="#DejaVuSans-64" x="314.355469"/>
     <use xlink:href="#DejaVuSans-75" x="377.832031"/>
     <use xlink:href="#DejaVuSans-6c" x="441.210938"/>
     <use xlink:href="#DejaVuSans-65" x="468.994141"/>
     <use xlink:href="#DejaVuSans-73" x="530.517578"/>
     <use xlink:href="#DejaVuSans-2c" x="582.617188"/>
     <use xlink:href="#DejaVuSans-20" x="614.404297"/>
     <use xlink:href="#DejaVuSans-69" x="646.191406"/>
     <use xlink:href="#DejaVuSans-6e" x="673.974609"/>
     <use xlink:href="#DejaVuSans-63" x="737.353516"/>
     <use xlink:href="#DejaVuSans-6c" x="792.333984"/>
     <use xlink:href="#DejaVuSans-75" x="820.117188"/>
     <use xlink:href="#DejaVuSans-64" x="883.496094"/>
     <use xlink:href="#DejaVuSans-69" x="946.972656"/>
     <use xlink:href="#DejaVuSans-6e" x="974.755859"/>
     <use xlink:href="#DejaVuSans-67" x="1038.134766"/>
     <use xlink:href="#DejaVuSans-20" x="1101.611328"/>
     <use xlink:href="#DejaVuSans-6e" x="1133.398438"/>
     <use xlink:href="#DejaVuSans-6f" x="1196.777344"/>
     <use xlink:href="#DejaVuSans-6e" x="1257.958984"/>
     <use xlink:href="#DejaVuSans-2d" x="1321.337891"/>
     <use xlink:href="#DejaVuSans-6f" x="1359.296875"/>
     <use xlink:href="#DejaVuSans-70" x="1420.478516"/>
     <use xlink:href="#DejaVuSans-74" x="1483.955078"/>
     <use xlink:href="#DejaVuSans-69" x="1523.164062"/>
     <use xlink:href="#DejaVuSans-6d" x="1550.947266"/>
     <use xlink:href="#DejaVuSans-61" x="1648.359375"/>
     <use xlink:href="#DejaVuSans-6c" x="1709.638672"/>
    </g>
   </g>
   <g id="legend_1">
    <g id="patch_7">
     <path d="M 59.72 167.262875 
L 274.3475 167.262875 
Q 276.7475 167.262875 276.7475 164.862875 
L 276.7475 115.15725 
Q 276.7475 112.75725 274.3475 112.75725 
L 59.72 112.75725 
Q 57.32 112.75725 57.32 115.15725 
L 57.32 164.862875 
Q 57.32 167.262875 59.72 167.262875 
z
" style="fill: #ffffff; opacity: 0.8; stroke: #cccccc; stroke-linejoin: miter"/>
    </g>
    <g id="text_13">
     <!-- Legend -->
     <g transform="translate(148.665 125.155687) scale(0.1 -0.1)">
      <defs>
       <path id="DejaVuSans-4c" d="M 628 4666 
L 1259 4666 
L 1259 531 
L 3531 531 
L 3531 0 
L 628 0 
L 628 4666 
z
" transform="scale(0.015625)"/>
      </defs>
      <use xlink:href="#DejaVuSans-4c"/>
      <use xlink:href="#DejaVuSans-65" x="53.962891"/>
      <use xlink:href="#DejaVuSans-67" x="115.486328"/>
      <use xlink:href="#DejaVuSans-65" x="178.962891"/>
      <use xlink:href="#DejaVuSans-6e" x="240.486328"/>
      <use xlink:href="#DejaVuSans-64" x="303.865234"/>
     </g>
    </g>
    <g id="PathCollection_2">
     <g>
      <use xlink:href="#m02a878651a" x="74.12" y="139.2035" style="fill: #e41a1c; fill-opacity: 0.7; stroke: #ffffff; stroke-opacity: 0.7; stroke-width: 0.48"/>
     </g>
    </g>
    <g id="text_14">
     <!-- Score: (x real, y real) -->
     <g transform="translate(95.72 142.3535) scale(0.12 -0.12)">
      <use xlink:href="#DejaVuSans-53"/>
      <use xlink:href="#DejaVuSans-63" x="63.476562"/>
      <use xlink:href="#DejaVuSans-6f" x="118.457031"/>
      <use xlink:href="#DejaVuSans-72" x="179.638672"/>
      <use xlink:href="#DejaVuSans-65" x="218.501953"/>
      <use xlink:href="#DejaVuSans-3a" x="280.025391"/>
      <use xlink:href="#DejaVuSans-20" x="313.716797"/>
      <use xlink:href="#DejaVuSans-28" x="345.503906"/>
      <use xlink:href="#DejaVuSans-78" x="384.517578"/>
      <use xlink:href="#DejaVuSans-20" x="443.697266"/>
      <use xlink:href="#DejaVuSans-72" x="475.484375"/>
      <use xlink:href="#DejaVuSans-65" x="514.347656"/>
      <use xlink:href="#DejaVuSans-61" x="575.871094"/>
      <use xlink:href="#DejaVuSans-6c" x="637.150391"/>
      <use xlink:href="#DejaVuSans-2c" x="664.933594"/>
      <use xlink:href="#DejaVuSans-20" x="696.720703"/>
      <use xlink:href="#DejaVuSans-79" x="728.507812"/>
      <use xlink:href="#DejaVuSans-20" x="787.6875"/>
      <use xlink:href="#DejaVuSans-72" x="819.474609"/>
      <use xlink:href="#DejaVuSans-65" x="858.337891"/>
      <use xlink:href="#DejaVuSans-61" x="919.861328"/>
      <use xlink:href="#DejaVuSans-6c" x="981.140625"/>
      <use xlink:href="#DejaVuSans-29" x="1008.923828"/>
     </g>
    </g>
    <g id="line2d_20">
     <path d="M 62.12 155.76725 
L 74.12 155.76725 
L 86.12 155.76725 
" style="fill: none; stroke-dasharray: 8.325,3.6; stroke-dashoffset: 0; stroke: #e41a1c; stroke-width: 2.25"/>
    </g>
    <g id="text_15">
     <!-- Linear (Score: (x real, y real)) -->
     <g transform="translate(95.72 159.96725) scale(0.12 -0.12)">
      <use xlink:href="#DejaVuSans-4c"/>
      <use xlink:href="#DejaVuSans-69" x="55.712891"/>
      <use xlink:href="#DejaVuSans-6e" x="83.496094"/>
      <use xlink:href="#DejaVuSans-65" x="146.875"/>
      <use xlink:href="#DejaVuSans-61" x="208.398438"/>
      <use xlink:href="#DejaVuSans-72" x="269.677734"/>
      <use xlink:href="#DejaVuSans-20" x="310.791016"/>
      <use xlink:href="#DejaVuSans-28" x="342.578125"/>
      <use xlink:href="#DejaVuSans-53" x="381.591797"/>
      <use xlink:href="#DejaVuSans-63" x="445.068359"/>
      <use xlink:href="#DejaVuSans-6f" x="500.048828"/>
      <use xlink:href="#DejaVuSans-72" x="561.230469"/>
      <use xlink:href="#DejaVuSans-65" x="600.09375"/>
      <use xlink:href="#DejaVuSans-3a" x="661.617188"/>
      <use xlink:href="#DejaVuSans-20" x="695.308594"/>
      <use xlink:href="#DejaVuSans-28" x="727.095703"/>
      <use xlink:href="#DejaVuSans-78" x="766.109375"/>
      <use xlink:href="#DejaVuSans-20" x="825.289062"/>
      <use xlink:href="#DejaVuSans-72" x="857.076172"/>
      <use xlink:href="#DejaVuSans-65" x="895.939453"/>
      <use xlink:href="#DejaVuSans-61" x="957.462891"/>
      <use xlink:href="#DejaVuSans-6c" x="1018.742188"/>
      <use xlink:href="#DejaVuSans-2c" x="1046.525391"/>
      <use xlink:href="#DejaVuSans-20" x="1078.3125"/>
      <use xlink:href="#DejaVuSans-79" x="1110.099609"/>
      <use xlink:href="#DejaVuSans-20" x="1169.279297"/>
      <use xlink:href="#DejaVuSans-72" x="1201.066406"/>
      <use xlink:href="#DejaVuSans-65" x="1239.929688"/>
      <use xlink:href="#DejaVuSans-61" x="1301.453125"/>
      <use xlink:href="#DejaVuSans-6c" x="1362.732422"/>
      <use xlink:href="#DejaVuSans-29" x="1390.515625"/>
      <use xlink:href="#DejaVuSans-29" x="1429.529297"/>
     </g>
    </g>
   </g>
  </g>
  <g id="text_16">
   <!-- Filters applied: Subject ID=All (1), Hemisphere=All (2), Task=All (5), -->
   <g transform="translate(190.042969 7.598438) scale(0.1 -0.1)">
    <defs>
     <path id="DejaVuSans-46" d="M 628 4666 
L 3309 4666 
L 3309 4134 
L 1259 4134 
L 1259 2759 
L 3109 2759 
L 3109 2228 
L 1259 2228 
L 1259 0 
L 628 0 
L 628 4666 
z
" transform="scale(0.015625)"/>
     <path id="DejaVuSans-62" d="M 3116 1747 
Q 3116 2381 2855 2742 
Q 2594 3103 2138 3103 
Q 1681 3103 1420 2742 
Q 1159 2381 1159 1747 
Q 1159 1113 1420 752 
Q 1681 391 2138 391 
Q 2594 391 2855 752 
Q 3116 1113 3116 1747 
z
M 1159 2969 
Q 1341 3281 1617 3432 
Q 1894 3584 2278 3584 
Q 2916 3584 3314 3078 
Q 3713 2572 3713 1747 
Q 3713 922 3314 415 
Q 2916 -91 2278 -91 
Q 1894 -91 1617 61 
Q 1341 213 1159 525 
L 1159 0 
L 581 0 
L 581 4863 
L 1159 4863 
L 1159 2969 
z
" transform="scale(0.015625)"/>
     <path id="DejaVuSans-6a" d="M 603 3500 
L 1178 3500 
L 1178 -63 
Q 1178 -731 923 -1031 
Q 669 -1331 103 -1331 
L -116 -1331 
L -116 -844 
L 38 -844 
Q 366 -844 484 -692 
Q 603 -541 603 -63 
L 603 3500 
z
M 603 4863 
L 1178 4863 
L 1178 4134 
L 603 4134 
L 603 4863 
z
" transform="scale(0.015625)"/>
     <path id="DejaVuSans-49" d="M 628 4666 
L 1259 4666 
L 1259 0 
L 628 0 
L 628 4666 
z
" transform="scale(0.015625)"/>
     <path id="DejaVuSans-44" d="M 1259 4147 
L 1259 519 
L 2022 519 
Q 2988 519 3436 956 
Q 3884 1394 3884 2338 
Q 3884 3275 3436 3711 
Q 2988 4147 2022 4147 
L 1259 4147 
z
M 628 4666 
L 1925 4666 
Q 3281 4666 3915 4102 
Q 4550 3538 4550 2338 
Q 4550 1131 3912 565 
Q 3275 0 1925 0 
L 628 0 
L 628 4666 
z
" transform="scale(0.015625)"/>
     <path id="DejaVuSans-3d" d="M 678 2906 
L 4684 2906 
L 4684 2381 
L 678 2381 
L 678 2906 
z
M 678 1631 
L 4684 1631 
L 4684 1100 
L 678 1100 
L 678 1631 
z
" transform="scale(0.015625)"/>
     <path id="DejaVuSans-31" d="M 794 531 
L 1825 531 
L 1825 4091 
L 703 3866 
L 703 4441 
L 1819 4666 
L 2450 4666 
L 2450 531 
L 3481 531 
L 3481 0 
L 794 0 
L 794 531 
z
" transform="scale(0.015625)"/>
     <path id="DejaVuSans-48" d="M 628 4666 
L 1259 4666 
L 1259 2753 
L 3553 2753 
L 3553 4666 
L 4184 4666 
L 4184 0 
L 3553 0 
L 3553 2222 
L 1259 2222 
L 1259 0 
L 628 0 
L 628 4666 
z
" transform="scale(0.015625)"/>
     <path id="DejaVuSans-68" d="M 3513 2113 
L 3513 0 
L 2938 0 
L 2938 2094 
Q 2938 2591 2744 2837 
Q 2550 3084 2163 3084 
Q 1697 3084 1428 2787 
Q 1159 2491 1159 1978 
L 1159 0 
L 581 0 
L 581 4863 
L 1159 4863 
L 1159 2956 
Q 1366 3272 1645 3428 
Q 1925 3584 2291 3584 
Q 2894 3584 3203 3211 
Q 3513 2838 3513 2113 
z
" transform="scale(0.015625)"/>
     <path id="DejaVuSans-54" d="M -19 4666 
L 3928 4666 
L 3928 4134 
L 2272 4134 
L 2272 0 
L 1638 0 
L 1638 4134 
L -19 4134 
L -19 4666 
z
" transform="scale(0.015625)"/>
     <path id="DejaVuSans-6b" d="M 581 4863 
L 1159 4863 
L 1159 1991 
L 2875 3500 
L 3609 3500 
L 1753 1863 
L 3688 0 
L 2938 0 
L 1159 1709 
L 1159 0 
L 581 0 
L 581 4863 
z
" transform="scale(0.015625)"/>
    </defs>
    <use xlink:href="#DejaVuSans-46"/>
    <use xlink:href="#DejaVuSans-69" x="50.269531"/>
    <use xlink:href="#DejaVuSans-6c" x="78.052734"/>
    <use xlink:href="#DejaVuSans-74" x="105.835938"/>
    <use xlink:href="#DejaVuSans-65" x="145.044922"/>
    <use xlink:href="#DejaVuSans-72" x="206.568359"/>
    <use xlink:href="#DejaVuSans-73" x="247.681641"/>
    <use xlink:href="#DejaVuSans-20" x="299.78125"/>
    <use xlink:href="#DejaVuSans-61" x="331.568359"/>
    <use xlink:href="#DejaVuSans-70" x="392.847656"/>
    <use xlink:href="#DejaVuSans-70" x="456.324219"/>
    <use xlink:href="#DejaVuSans-6c" x="519.800781"/>
    <use xlink:href="#DejaVuSans-69" x="547.583984"/>
    <use xlink:href="#DejaVuSans-65" x="575.367188"/>
    <use xlink:href="#DejaVuSans-64" x="636.890625"/>
    <use xlink:href="#DejaVuSans-3a" x="700.367188"/>
    <use xlink:href="#DejaVuSans-20" x="734.058594"/>
    <use xlink:href="#DejaVuSans-53" x="765.845703"/>
    <use xlink:href="#DejaVuSans-75" x="829.322266"/>
    <use xlink:href="#DejaVuSans-62" x="892.701172"/>
    <use xlink:href="#DejaVuSans-6a" x="956.177734"/>
    <use xlink:href="#DejaVuSans-65" x="983.960938"/>
    <use xlink:href="#DejaVuSans-63" x="1045.484375"/>
    <use xlink:href="#DejaVuSans-74" x="1100.464844"/>
    <use xlink:href="#DejaVuSans-20" x="1139.673828"/>
    <use xlink:href="#DejaVuSans-49" x="1171.460938"/>
    <use xlink:href="#DejaVuSans-44" x="1200.953125"/>
    <use xlink:href="#DejaVuSans-3d" x="1277.955078"/>
    <use xlink:href="#DejaVuSans-41" x="1361.744141"/>
    <use xlink:href="#DejaVuSans-6c" x="1430.152344"/>
    <use xlink:href="#DejaVuSans-6c" x="1457.935547"/>
    <use xlink:href="#DejaVuSans-20" x="1485.71875"/>
    <use xlink:href="#DejaVuSans-28" x="1517.505859"/>
    <use xlink:href="#DejaVuSans-31" x="1556.519531"/>
    <use xlink:href="#DejaVuSans-29" x="1620.142578"/>
    <use xlink:href="#DejaVuSans-2c" x="1659.15625"/>
    <use xlink:href="#DejaVuSans-20" x="1690.943359"/>
    <use xlink:href="#DejaVuSans-48" x="1722.730469"/>
    <use xlink:href="#DejaVuSans-65" x="1797.925781"/>
    <use xlink:href="#DejaVuSans-6d" x="1859.449219"/>
    <use xlink:href="#DejaVuSans-69" x="1956.861328"/>
    <use xlink:href="#DejaVuSans-73" x="1984.644531"/>
    <use xlink:href="#DejaVuSans-70" x="2036.744141"/>
    <use xlink:href="#DejaVuSans-68" x="2100.220703"/>
    <use xlink:href="#DejaVuSans-65" x="2163.599609"/>
    <use xlink:href="#DejaVuSans-72" x="2225.123047"/>
    <use xlink:href="#DejaVuSans-65" x="2263.986328"/>
    <use xlink:href="#DejaVuSans-3d" x="2325.509766"/>
    <use xlink:href="#DejaVuSans-41" x="2409.298828"/>
    <use xlink:href="#DejaVuSans-6c" x="2477.707031"/>
    <use xlink:href="#DejaVuSans-6c" x="2505.490234"/>
    <use xlink:href="#DejaVuSans-20" x="2533.273438"/>
    <use xlink:href="#DejaVuSans-28" x="2565.060547"/>
    <use xlink:href="#DejaVuSans-32" x="2604.074219"/>
    <use xlink:href="#DejaVuSans-29" x="2667.697266"/>
    <use xlink:href="#DejaVuSans-2c" x="2706.710938"/>
    <use xlink:href="#DejaVuSans-20" x="2738.498047"/>
    <use xlink:href="#DejaVuSans-54" x="2770.285156"/>
    <use xlink:href="#DejaVuSans-61" x="2814.869141"/>
    <use xlink:href="#DejaVuSans-73" x="2876.148438"/>
    <use xlink:href="#DejaVuSans-6b" x="2928.248047"/>
    <use xlink:href="#DejaVuSans-3d" x="2986.158203"/>
    <use xlink:href="#DejaVuSans-41" x="3069.947266"/>
    <use xlink:href="#DejaVuSans-6c" x="3138.355469"/>
    <use xlink:href="#DejaVuSans-6c" x="3166.138672"/>
    <use xlink:href="#DejaVuSans-20" x="3193.921875"/>
    <use xlink:href="#DejaVuSans-28" x="3225.708984"/>
    <use xlink:href="#DejaVuSans-35" x="3264.722656"/>
    <use xlink:href="#DejaVuSans-29" x="3328.345703"/>
    <use xlink:href="#DejaVuSans-2c" x="3367.359375"/>
   </g>
   <!-- Statistical Test=['Normalized Mutual Information - X as Truth'], -->
   <g transform="translate(203.967969 18.79625) scale(0.1 -0.1)">
    <defs>
     <path id="DejaVuSans-5b" d="M 550 4863 
L 1875 4863 
L 1875 4416 
L 1125 4416 
L 1125 -397 
L 1875 -397 
L 1875 -844 
L 550 -844 
L 550 4863 
z
" transform="scale(0.015625)"/>
     <path id="DejaVuSans-27" d="M 1147 4666 
L 1147 2931 
L 616 2931 
L 616 4666 
L 1147 4666 
z
" transform="scale(0.015625)"/>
     <path id="DejaVuSans-4e" d="M 628 4666 
L 1478 4666 
L 3547 763 
L 3547 4666 
L 4159 4666 
L 4159 0 
L 3309 0 
L 1241 3903 
L 1241 0 
L 628 0 
L 628 4666 
z
" transform="scale(0.015625)"/>
     <path id="DejaVuSans-7a" d="M 353 3500 
L 3084 3500 
L 3084 2975 
L 922 459 
L 3084 459 
L 3084 0 
L 275 0 
L 275 525 
L 2438 3041 
L 353 3041 
L 353 3500 
z
" transform="scale(0.015625)"/>
     <path id="DejaVuSans-4d" d="M 628 4666 
L 1569 4666 
L 2759 1491 
L 3956 4666 
L 4897 4666 
L 4897 0 
L 4281 0 
L 4281 4097 
L 3078 897 
L 2444 897 
L 1241 4097 
L 1241 0 
L 628 0 
L 628 4666 
z
" transform="scale(0.015625)"/>
     <path id="DejaVuSans-5d" d="M 1947 4863 
L 1947 -844 
L 622 -844 
L 622 -397 
L 1369 -397 
L 1369 4416 
L 622 4416 
L 622 4863 
L 1947 4863 
z
" transform="scale(0.015625)"/>
    </defs>
    <use xlink:href="#DejaVuSans-53"/>
    <use xlink:href="#DejaVuSans-74" x="63.476562"/>
    <use xlink:href="#DejaVuSans-61" x="102.685547"/>
    <use xlink:href="#DejaVuSans-74" x="163.964844"/>
    <use xlink:href="#DejaVuSans-69" x="203.173828"/>
    <use xlink:href="#DejaVuSans-73" x="230.957031"/>
    <use xlink:href="#DejaVuSans-74" x="283.056641"/>
    <use xlink:href="#DejaVuSans-69" x="322.265625"/>
    <use xlink:href="#DejaVuSans-63" x="350.048828"/>
    <use xlink:href="#DejaVuSans-61" x="405.029297"/>
    <use xlink:href="#DejaVuSans-6c" x="466.308594"/>
    <use xlink:href="#DejaVuSans-20" x="494.091797"/>
    <use xlink:href="#DejaVuSans-54" x="525.878906"/>
    <use xlink:href="#DejaVuSans-65" x="569.962891"/>
    <use xlink:href="#DejaVuSans-73" x="631.486328"/>
    <use xlink:href="#DejaVuSans-74" x="683.585938"/>
    <use xlink:href="#DejaVuSans-3d" x="722.794922"/>
    <use xlink:href="#DejaVuSans-5b" x="806.583984"/>
    <use xlink:href="#DejaVuSans-27" x="845.597656"/>
    <use xlink:href="#DejaVuSans-4e" x="873.087891"/>
    <use xlink:href="#DejaVuSans-6f" x="947.892578"/>
    <use xlink:href="#DejaVuSans-72" x="1009.074219"/>
    <use xlink:href="#DejaVuSans-6d" x="1048.4375"/>
    <use xlink:href="#DejaVuSans-61" x="1145.849609"/>
    <use xlink:href="#DejaVuSans-6c" x="1207.128906"/>
    <use xlink:href="#DejaVuSans-69" x="1234.912109"/>
    <use xlink:href="#DejaVuSans-7a" x="1262.695312"/>
    <use xlink:href="#DejaVuSans-65" x="1315.185547"/>
    <use xlink:href="#DejaVuSans-64" x="1376.708984"/>
    <use xlink:href="#DejaVuSans-20" x="1440.185547"/>
    <use xlink:href="#DejaVuSans-4d" x="1471.972656"/>
    <use xlink:href="#DejaVuSans-75" x="1558.251953"/>
    <use xlink:href="#DejaVuSans-74" x="1621.630859"/>
    <use xlink:href="#DejaVuSans-75" x="1660.839844"/>
    <use xlink:href="#DejaVuSans-61" x="1724.21875"/>
    <use xlink:href="#DejaVuSans-6c" x="1785.498047"/>
    <use xlink:href="#DejaVuSans-20" x="1813.28125"/>
    <use xlink:href="#DejaVuSans-49" x="1845.068359"/>
    <use xlink:href="#DejaVuSans-6e" x="1874.560547"/>
    <use xlink:href="#DejaVuSans-66" x="1937.939453"/>
    <use xlink:href="#DejaVuSans-6f" x="1973.144531"/>
    <use xlink:href="#DejaVuSans-72" x="2034.326172"/>
    <use xlink:href="#DejaVuSans-6d" x="2073.689453"/>
    <use xlink:href="#DejaVuSans-61" x="2171.101562"/>
    <use xlink:href="#DejaVuSans-74" x="2232.380859"/>
    <use xlink:href="#DejaVuSans-69" x="2271.589844"/>
    <use xlink:href="#DejaVuSans-6f" x="2299.373047"/>
    <use xlink:href="#DejaVuSans-6e" x="2360.554688"/>
    <use xlink:href="#DejaVuSans-20" x="2423.933594"/>
    <use xlink:href="#DejaVuSans-2d" x="2455.720703"/>
    <use xlink:href="#DejaVuSans-20" x="2491.804688"/>
    <use xlink:href="#DejaVuSans-58" x="2523.591797"/>
    <use xlink:href="#DejaVuSans-20" x="2592.097656"/>
    <use xlink:href="#DejaVuSans-61" x="2623.884766"/>
    <use xlink:href="#DejaVuSans-73" x="2685.164062"/>
    <use xlink:href="#DejaVuSans-20" x="2737.263672"/>
    <use xlink:href="#DejaVuSans-54" x="2769.050781"/>
    <use xlink:href="#DejaVuSans-72" x="2815.384766"/>
    <use xlink:href="#DejaVuSans-75" x="2856.498047"/>
    <use xlink:href="#DejaVuSans-74" x="2919.876953"/>
    <use xlink:href="#DejaVuSans-68" x="2959.085938"/>
    <use xlink:href="#DejaVuSans-27" x="3022.464844"/>
    <use xlink:href="#DejaVuSans-5d" x="3049.955078"/>
    <use xlink:href="#DejaVuSans-2c" x="3088.96875"/>
   </g>
   <!-- Dataset=['cleaned_words'] -->
   <g transform="translate(292.486719 29.994063) scale(0.1 -0.1)">
    <use xlink:href="#DejaVuSans-44"/>
    <use xlink:href="#DejaVuSans-61" x="77.001953"/>
    <use xlink:href="#DejaVuSans-74" x="138.28125"/>
    <use xlink:href="#DejaVuSans-61" x="177.490234"/>
    <use xlink:href="#DejaVuSans-73" x="238.769531"/>
    <use xlink:href="#DejaVuSans-65" x="290.869141"/>
    <use xlink:href="#DejaVuSans-74" x="352.392578"/>
    <use xlink:href="#DejaVuSans-3d" x="391.601562"/>
    <use xlink:href="#DejaVuSans-5b" x="475.390625"/>
    <use xlink:href="#DejaVuSans-27" x="514.404297"/>
    <use xlink:href="#DejaVuSans-63" x="541.894531"/>
    <use xlink:href="#DejaVuSans-6c" x="596.875"/>
    <use xlink:href="#DejaVuSans-65" x="624.658203"/>
    <use xlink:href="#DejaVuSans-61" x="686.181641"/>
    <use xlink:href="#DejaVuSans-6e" x="747.460938"/>
    <use xlink:href="#DejaVuSans-65" x="810.839844"/>
    <use xlink:href="#DejaVuSans-64" x="872.363281"/>
    <use xlink:href="#DejaVuSans-5f" x="935.839844"/>
    <use xlink:href="#DejaVuSans-77" x="985.839844"/>
    <use xlink:href="#DejaVuSans-6f" x="1067.626953"/>
    <use xlink:href="#DejaVuSans-72" x="1128.808594"/>
    <use xlink:href="#DejaVuSans-64" x="1168.171875"/>
    <use xlink:href="#DejaVuSans-73" x="1231.648438"/>
    <use xlink:href="#DejaVuSans-27" x="1283.748047"/>
    <use xlink:href="#DejaVuSans-5d" x="1311.238281"/>
   </g>
  </g>
 </g>
 <defs>
  <clipPath id="p74ba440dbd">
   <rect x="51.32" y="106.75725" width="657.88" height="423.68275"/>
  </clipPath>
 </defs>
</svg>
