<?xml version="1.0" encoding="utf-8" standalone="no"?>
<!DOCTYPE svg PUBLIC "-//W3C//DTD SVG 1.1//EN"
  "http://www.w3.org/Graphics/SVG/1.1/DTD/svg11.dtd">
<svg xmlns:xlink="http://www.w3.org/1999/xlink" width="720pt" height="576pt" viewBox="0 0 720 576" xmlns="http://www.w3.org/2000/svg" version="1.1">
 <metadata>
  <rdf:RDF xmlns:dc="http://purl.org/dc/elements/1.1/" xmlns:cc="http://creativecommons.org/ns#" xmlns:rdf="http://www.w3.org/1999/02/22-rdf-syntax-ns#">
   <cc:Work>
    <dc:type rdf:resource="http://purl.org/dc/dcmitype/StillImage"/>
    <dc:date>2024-11-27T19:43:38.224223</dc:date>
    <dc:format>image/svg+xml</dc:format>
    <dc:creator>
     <cc:Agent>
      <dc:title>Matplotlib v3.9.2, https://matplotlib.org/</dc:title>
     </cc:Agent>
    </dc:creator>
   </cc:Work>
  </rdf:RDF>
 </metadata>
 <defs>
  <style type="text/css">*{stroke-linejoin: round; stroke-linecap: butt}</style>
 </defs>
 <g id="figure_1">
  <g id="patch_1">
   <path d="M 0 576 
L 720 576 
L 720 0 
L 0 0 
z
" style="fill: #ffffff"/>
  </g>
  <g id="axes_1">
   <g id="patch_2">
    <path d="M 51.32 514.6 
L 709.2 514.6 
L 709.2 106.03725 
L 51.32 106.03725 
z
" style="fill: #ffffff"/>
   </g>
   <g id="PathCollection_1">
    <defs>
     <path id="m66cf57c87d" d="M 0 3 
C 0.795609 3 1.55874 2.683901 2.12132 2.12132 
C 2.683901 1.55874 3 0.795609 3 0 
C 3 -0.795609 2.683901 -1.55874 2.12132 -2.12132 
C 1.55874 -2.683901 0.795609 -3 0 -3 
C -0.795609 -3 -1.55874 -2.683901 -2.12132 -2.12132 
C -2.683901 -1.55874 -3 -0.795609 -3 0 
C -3 0.795609 -2.683901 1.55874 -2.12132 2.12132 
C -1.55874 2.683901 -0.795609 3 0 3 
z
" style="stroke: #ffffff; stroke-opacity: 0.7; stroke-width: 0.48"/>
    </defs>
    <g clip-path="url(#pf5c2865c5d)">
     <use xlink:href="#m66cf57c87d" x="289.990958" y="124.608284" style="fill: #e41a1c; fill-opacity: 0.7; stroke: #ffffff; stroke-opacity: 0.7; stroke-width: 0.48"/>
     <use xlink:href="#m66cf57c87d" x="289.990958" y="170.642103" style="fill: #e41a1c; fill-opacity: 0.7; stroke: #ffffff; stroke-opacity: 0.7; stroke-width: 0.48"/>
     <use xlink:href="#m66cf57c87d" x="289.990958" y="172.713151" style="fill: #e41a1c; fill-opacity: 0.7; stroke: #ffffff; stroke-opacity: 0.7; stroke-width: 0.48"/>
     <use xlink:href="#m66cf57c87d" x="289.990958" y="193.166106" style="fill: #e41a1c; fill-opacity: 0.7; stroke: #ffffff; stroke-opacity: 0.7; stroke-width: 0.48"/>
     <use xlink:href="#m66cf57c87d" x="230.601159" y="196.270126" style="fill: #e41a1c; fill-opacity: 0.7; stroke: #ffffff; stroke-opacity: 0.7; stroke-width: 0.48"/>
     <use xlink:href="#m66cf57c87d" x="289.990958" y="200.227513" style="fill: #e41a1c; fill-opacity: 0.7; stroke: #ffffff; stroke-opacity: 0.7; stroke-width: 0.48"/>
     <use xlink:href="#m66cf57c87d" x="679.296364" y="203.871123" style="fill: #e41a1c; fill-opacity: 0.7; stroke: #ffffff; stroke-opacity: 0.7; stroke-width: 0.48"/>
     <use xlink:href="#m66cf57c87d" x="679.296364" y="225.014338" style="fill: #e41a1c; fill-opacity: 0.7; stroke: #ffffff; stroke-opacity: 0.7; stroke-width: 0.48"/>
     <use xlink:href="#m66cf57c87d" x="124.617112" y="226.978182" style="fill: #e41a1c; fill-opacity: 0.7; stroke: #ffffff; stroke-opacity: 0.7; stroke-width: 0.48"/>
     <use xlink:href="#m66cf57c87d" x="365.268659" y="227.684656" style="fill: #e41a1c; fill-opacity: 0.7; stroke: #ffffff; stroke-opacity: 0.7; stroke-width: 0.48"/>
     <use xlink:href="#m66cf57c87d" x="679.296364" y="249.992155" style="fill: #e41a1c; fill-opacity: 0.7; stroke: #ffffff; stroke-opacity: 0.7; stroke-width: 0.48"/>
     <use xlink:href="#m66cf57c87d" x="230.601159" y="264.215907" style="fill: #e41a1c; fill-opacity: 0.7; stroke: #ffffff; stroke-opacity: 0.7; stroke-width: 0.48"/>
     <use xlink:href="#m66cf57c87d" x="365.268659" y="280.181627" style="fill: #e41a1c; fill-opacity: 0.7; stroke: #ffffff; stroke-opacity: 0.7; stroke-width: 0.48"/>
     <use xlink:href="#m66cf57c87d" x="230.601159" y="280.225411" style="fill: #e41a1c; fill-opacity: 0.7; stroke: #ffffff; stroke-opacity: 0.7; stroke-width: 0.48"/>
     <use xlink:href="#m66cf57c87d" x="679.296364" y="288.016567" style="fill: #e41a1c; fill-opacity: 0.7; stroke: #ffffff; stroke-opacity: 0.7; stroke-width: 0.48"/>
     <use xlink:href="#m66cf57c87d" x="679.296364" y="395.516181" style="fill: #e41a1c; fill-opacity: 0.7; stroke: #ffffff; stroke-opacity: 0.7; stroke-width: 0.48"/>
     <use xlink:href="#m66cf57c87d" x="230.601159" y="407.736446" style="fill: #e41a1c; fill-opacity: 0.7; stroke: #ffffff; stroke-opacity: 0.7; stroke-width: 0.48"/>
     <use xlink:href="#m66cf57c87d" x="124.617112" y="496.028966" style="fill: #e41a1c; fill-opacity: 0.7; stroke: #ffffff; stroke-opacity: 0.7; stroke-width: 0.48"/>
    </g>
   </g>
   <g id="PolyCollection_1">
    <path d="M 124.617112 175.38237 
L 124.617112 341.553424 
L 130.219933 339.315787 
L 135.822754 337.884031 
L 141.425575 336.877768 
L 147.028395 336.014666 
L 152.631216 335.151565 
L 158.234037 333.652098 
L 163.836857 331.62587 
L 169.439678 330.600694 
L 175.042499 329.87301 
L 180.64532 328.173496 
L 186.24814 327.201253 
L 191.850961 326.229011 
L 197.453782 325.256769 
L 203.056602 323.767735 
L 208.659423 322.028066 
L 214.262244 321.64231 
L 219.865065 320.146304 
L 225.467885 319.601277 
L 231.070706 318.069356 
L 236.673527 316.889458 
L 242.276348 316.090356 
L 247.879168 315.295889 
L 253.481989 314.477584 
L 259.08481 313.15974 
L 264.68763 312.042698 
L 270.290451 311.271835 
L 275.893272 310.528373 
L 281.496093 310.079886 
L 287.098913 309.54468 
L 292.701734 308.569809 
L 298.304555 307.594939 
L 303.907375 306.778889 
L 309.510196 305.95547 
L 315.113017 305.280236 
L 320.715838 304.513646 
L 326.318658 303.258145 
L 331.921479 302.262433 
L 337.5243 301.202016 
L 343.12712 300.798217 
L 348.729941 300.199042 
L 354.332762 299.98134 
L 359.935583 299.279204 
L 365.538403 298.544028 
L 371.141224 298.085993 
L 376.744045 297.189875 
L 382.346866 297.081761 
L 387.949686 296.984577 
L 393.552507 296.719576 
L 399.155328 295.734038 
L 404.758148 296.378025 
L 410.360969 296.239151 
L 415.96379 295.337806 
L 421.566611 295.194553 
L 427.169431 294.790031 
L 432.772252 294.944961 
L 438.375073 295.09989 
L 443.977893 295.244125 
L 449.580714 295.405621 
L 455.183535 294.963151 
L 460.786356 294.283154 
L 466.389176 294.049648 
L 471.991997 295.394369 
L 477.594818 295.30613 
L 483.197638 295.1482 
L 488.800459 295.076433 
L 494.40328 294.836513 
L 500.006101 294.879122 
L 505.608921 294.892883 
L 511.211742 295.184041 
L 516.814563 295.61562 
L 522.417383 296.091129 
L 528.020204 296.554194 
L 533.623025 297.372049 
L 539.225846 297.995172 
L 544.828666 298.995519 
L 550.431487 299.807046 
L 556.034308 300.410618 
L 561.637129 301.275058 
L 567.239949 302.433879 
L 572.84277 302.554994 
L 578.445591 303.363474 
L 584.048411 303.27812 
L 589.651232 304.261808 
L 595.254053 305.583909 
L 600.856874 306.90601 
L 606.459694 308.126251 
L 612.062515 308.420893 
L 617.665336 309.809622 
L 623.268156 311.192312 
L 628.870977 312.575001 
L 634.473798 313.547102 
L 640.076619 314.614315 
L 645.679439 315.80294 
L 651.28226 316.698615 
L 656.885081 317.293855 
L 662.487901 318.087101 
L 668.090722 318.61495 
L 673.693543 319.142799 
L 679.296364 320.188431 
L 679.296364 167.392911 
L 679.296364 167.392911 
L 673.693543 168.734765 
L 668.090722 169.683689 
L 662.487901 170.632613 
L 656.885081 171.581537 
L 651.28226 172.735397 
L 645.679439 173.599202 
L 640.076619 174.97888 
L 634.473798 176.820275 
L 628.870977 178.662045 
L 623.268156 180.101117 
L 617.665336 180.740778 
L 612.062515 181.385062 
L 606.459694 182.032135 
L 600.856874 183.066632 
L 595.254053 183.844247 
L 589.651232 184.577572 
L 584.048411 185.310897 
L 578.445591 186.056486 
L 572.84277 186.821459 
L 567.239949 188.429605 
L 561.637129 189.694823 
L 556.034308 190.787084 
L 550.431487 192.322325 
L 544.828666 193.862914 
L 539.225846 195.417607 
L 533.623025 196.972301 
L 528.020204 198.713598 
L 522.417383 200.252924 
L 516.814563 201.988159 
L 511.211742 203.644571 
L 505.608921 204.679145 
L 500.006101 206.192584 
L 494.40328 207.178701 
L 488.800459 207.666208 
L 483.197638 208.062572 
L 477.594818 208.240933 
L 471.991997 208.444671 
L 466.389176 208.830859 
L 460.786356 208.778269 
L 455.183535 209.442355 
L 449.580714 209.982524 
L 443.977893 211.027099 
L 438.375073 211.231007 
L 432.772252 211.141383 
L 427.169431 212.650154 
L 421.566611 212.836882 
L 415.96379 212.7132 
L 410.360969 212.601301 
L 404.758148 212.546636 
L 399.155328 213.852993 
L 393.552507 213.766816 
L 387.949686 213.768437 
L 382.346866 213.805484 
L 376.744045 213.402478 
L 371.141224 213.321478 
L 365.538403 213.195182 
L 359.935583 212.085663 
L 354.332762 211.651984 
L 348.729941 211.437901 
L 343.12712 211.447052 
L 337.5243 210.345903 
L 331.921479 210.264229 
L 326.318658 209.776475 
L 320.715838 209.138792 
L 315.113017 209.102505 
L 309.510196 208.301043 
L 303.907375 208.166071 
L 298.304555 207.441502 
L 292.701734 206.663235 
L 287.098913 206.202532 
L 281.496093 205.190217 
L 275.893272 204.592047 
L 270.290451 203.258103 
L 264.68763 202.040029 
L 259.08481 201.456256 
L 253.481989 200.872483 
L 247.879168 200.297434 
L 242.276348 199.724842 
L 236.673527 199.15225 
L 231.070706 198.579657 
L 225.467885 197.315771 
L 219.865065 195.608982 
L 214.262244 193.902192 
L 208.659423 192.195403 
L 203.056602 190.488614 
L 197.453782 188.781824 
L 191.850961 187.075035 
L 186.24814 186.010626 
L 180.64532 185.044421 
L 175.042499 184.078216 
L 169.439678 183.112011 
L 163.836857 182.145806 
L 158.234037 181.179601 
L 152.631216 180.213395 
L 147.028395 179.24719 
L 141.425575 178.280985 
L 135.822754 177.31478 
L 130.219933 176.348575 
L 124.617112 175.38237 
z
" clip-path="url(#pf5c2865c5d)" style="fill: #e41a1c; fill-opacity: 0.15"/>
   </g>
   <g id="PathCollection_2">
    <defs>
     <path id="m5623dad89f" d="M 0 3 
C 0.795609 3 1.55874 2.683901 2.12132 2.12132 
C 2.683901 1.55874 3 0.795609 3 0 
C 3 -0.795609 2.683901 -1.55874 2.12132 -2.12132 
C 1.55874 -2.683901 0.795609 -3 0 -3 
C -0.795609 -3 -1.55874 -2.683901 -2.12132 -2.12132 
C -2.683901 -1.55874 -3 -0.795609 -3 0 
C -3 0.795609 -2.683901 1.55874 -2.12132 2.12132 
C -1.55874 2.683901 -0.795609 3 0 3 
z
" style="stroke: #ffffff; stroke-opacity: 0.7; stroke-width: 0.48"/>
    </defs>
    <g clip-path="url(#pf5c2865c5d)">
     <use xlink:href="#m5623dad89f" x="227.334067" y="124.608284" style="fill: #377eb8; fill-opacity: 0.7; stroke: #ffffff; stroke-opacity: 0.7; stroke-width: 0.48"/>
     <use xlink:href="#m5623dad89f" x="210.384379" y="170.642103" style="fill: #377eb8; fill-opacity: 0.7; stroke: #ffffff; stroke-opacity: 0.7; stroke-width: 0.48"/>
     <use xlink:href="#m5623dad89f" x="209.121521" y="172.713151" style="fill: #377eb8; fill-opacity: 0.7; stroke: #ffffff; stroke-opacity: 0.7; stroke-width: 0.48"/>
     <use xlink:href="#m5623dad89f" x="148.138346" y="193.166106" style="fill: #377eb8; fill-opacity: 0.7; stroke: #ffffff; stroke-opacity: 0.7; stroke-width: 0.48"/>
     <use xlink:href="#m5623dad89f" x="202.939077" y="196.270126" style="fill: #377eb8; fill-opacity: 0.7; stroke: #ffffff; stroke-opacity: 0.7; stroke-width: 0.48"/>
     <use xlink:href="#m5623dad89f" x="101.151499" y="200.227513" style="fill: #377eb8; fill-opacity: 0.7; stroke: #ffffff; stroke-opacity: 0.7; stroke-width: 0.48"/>
     <use xlink:href="#m5623dad89f" x="527.889715" y="203.871123" style="fill: #377eb8; fill-opacity: 0.7; stroke: #ffffff; stroke-opacity: 0.7; stroke-width: 0.48"/>
     <use xlink:href="#m5623dad89f" x="502.486097" y="225.014338" style="fill: #377eb8; fill-opacity: 0.7; stroke: #ffffff; stroke-opacity: 0.7; stroke-width: 0.48"/>
     <use xlink:href="#m5623dad89f" x="118.215458" y="226.978182" style="fill: #377eb8; fill-opacity: 0.7; stroke: #ffffff; stroke-opacity: 0.7; stroke-width: 0.48"/>
     <use xlink:href="#m5623dad89f" x="88.273599" y="227.684656" style="fill: #377eb8; fill-opacity: 0.7; stroke: #ffffff; stroke-opacity: 0.7; stroke-width: 0.48"/>
     <use xlink:href="#m5623dad89f" x="646.779291" y="249.992155" style="fill: #377eb8; fill-opacity: 0.7; stroke: #ffffff; stroke-opacity: 0.7; stroke-width: 0.48"/>
     <use xlink:href="#m5623dad89f" x="83.952531" y="264.215907" style="fill: #377eb8; fill-opacity: 0.7; stroke: #ffffff; stroke-opacity: 0.7; stroke-width: 0.48"/>
     <use xlink:href="#m5623dad89f" x="100.465903" y="280.181627" style="fill: #377eb8; fill-opacity: 0.7; stroke: #ffffff; stroke-opacity: 0.7; stroke-width: 0.48"/>
     <use xlink:href="#m5623dad89f" x="211.241691" y="280.225411" style="fill: #377eb8; fill-opacity: 0.7; stroke: #ffffff; stroke-opacity: 0.7; stroke-width: 0.48"/>
     <use xlink:href="#m5623dad89f" x="406.108587" y="288.016567" style="fill: #377eb8; fill-opacity: 0.7; stroke: #ffffff; stroke-opacity: 0.7; stroke-width: 0.48"/>
     <use xlink:href="#m5623dad89f" x="478.397075" y="395.516181" style="fill: #377eb8; fill-opacity: 0.7; stroke: #ffffff; stroke-opacity: 0.7; stroke-width: 0.48"/>
     <use xlink:href="#m5623dad89f" x="81.223636" y="407.736446" style="fill: #377eb8; fill-opacity: 0.7; stroke: #ffffff; stroke-opacity: 0.7; stroke-width: 0.48"/>
     <use xlink:href="#m5623dad89f" x="151.163098" y="496.028966" style="fill: #377eb8; fill-opacity: 0.7; stroke: #ffffff; stroke-opacity: 0.7; stroke-width: 0.48"/>
    </g>
   </g>
   <g id="PolyCollection_2">
    <path d="M 81.223636 200.31606 
L 81.223636 328.625799 
L 86.93632 327.114203 
L 92.649003 325.600057 
L 98.361687 324.050594 
L 104.07437 322.50113 
L 109.787053 320.813678 
L 115.499737 319.439299 
L 121.21242 318.235976 
L 126.925103 317.106867 
L 132.637787 315.956713 
L 138.35047 314.806559 
L 144.063154 313.665486 
L 149.775837 312.689216 
L 155.48852 311.752525 
L 161.201204 310.785353 
L 166.913887 310.328562 
L 172.62657 309.626921 
L 178.339254 309.464868 
L 184.051937 309.299049 
L 189.764621 309.581638 
L 195.477304 308.931983 
L 201.189987 308.540419 
L 206.902671 307.783037 
L 212.615354 307.134709 
L 218.328038 306.679932 
L 224.040721 306.490969 
L 229.753404 305.302238 
L 235.466088 304.895578 
L 241.178771 304.61021 
L 246.891454 304.323025 
L 252.604138 304.035839 
L 258.316821 303.739679 
L 264.029505 303.434049 
L 269.742188 303.144516 
L 275.454871 302.200571 
L 281.167555 301.201752 
L 286.880238 301.81017 
L 292.592922 302.02554 
L 298.305605 301.489737 
L 304.018288 301.464956 
L 309.730972 301.189595 
L 315.443655 301.595888 
L 321.156338 302.630924 
L 326.869022 301.984492 
L 332.581705 301.600211 
L 338.294389 301.417387 
L 344.007072 301.854204 
L 349.719755 302.231537 
L 355.432439 302.850046 
L 361.145122 302.905357 
L 366.857805 302.154303 
L 372.570489 300.872995 
L 378.283172 301.473776 
L 383.995856 301.024279 
L 389.708539 300.942241 
L 395.421222 301.926318 
L 401.133906 302.57519 
L 406.846589 303.059299 
L 412.559273 303.190285 
L 418.271956 303.770111 
L 423.984639 304.207716 
L 429.697323 305.0237 
L 435.410006 305.844828 
L 441.122689 306.685625 
L 446.835373 307.526422 
L 452.548056 308.580984 
L 458.26074 309.993378 
L 463.973423 310.819174 
L 469.686106 311.174074 
L 475.39879 311.62556 
L 481.111473 312.435833 
L 486.824157 313.246106 
L 492.53684 314.056379 
L 498.249523 314.443497 
L 503.962207 315.386182 
L 509.67489 316.285767 
L 515.387573 317.27586 
L 521.100257 318.140104 
L 526.81294 318.96317 
L 532.525624 319.785407 
L 538.238307 320.598706 
L 543.95099 321.202244 
L 549.663674 322.218143 
L 555.376357 323.065069 
L 561.08904 324.197502 
L 566.801724 325.479843 
L 572.514407 326.748165 
L 578.227091 327.702089 
L 583.939774 328.654488 
L 589.652457 329.606887 
L 595.365141 330.559286 
L 601.077824 331.511685 
L 606.790508 332.894938 
L 612.503191 334.378684 
L 618.215874 335.86243 
L 623.928558 337.184869 
L 629.641241 338.344399 
L 635.353924 339.499302 
L 641.066608 340.648645 
L 646.779291 341.797987 
L 646.779291 165.75368 
L 646.779291 165.75368 
L 641.066608 166.683531 
L 635.353924 167.615815 
L 629.641241 168.232647 
L 623.928558 168.928166 
L 618.215874 169.898048 
L 612.503191 171.051706 
L 606.790508 172.219544 
L 601.077824 173.222136 
L 595.365141 174.564624 
L 589.652457 175.727077 
L 583.939774 176.893949 
L 578.227091 178.067013 
L 572.514407 179.240077 
L 566.801724 180.413142 
L 561.08904 181.586206 
L 555.376357 182.90934 
L 549.663674 184.255466 
L 543.95099 185.089176 
L 538.238307 186.242788 
L 532.525624 187.3964 
L 526.81294 188.402454 
L 521.100257 189.15516 
L 515.387573 189.907867 
L 509.67489 190.660573 
L 503.962207 191.41328 
L 498.249523 192.174238 
L 492.53684 192.935785 
L 486.824157 193.697333 
L 481.111473 194.316085 
L 475.39879 194.851123 
L 469.686106 196.003422 
L 463.973423 196.7544 
L 458.26074 197.505378 
L 452.548056 198.266617 
L 446.835373 199.028164 
L 441.122689 199.789711 
L 435.410006 200.064112 
L 429.697323 201.45283 
L 423.984639 202.258203 
L 418.271956 203.354665 
L 412.559273 204.862284 
L 406.846589 206.106362 
L 401.133906 206.574864 
L 395.421222 207.012469 
L 389.708539 207.45332 
L 383.995856 207.89212 
L 378.283172 208.264562 
L 372.570489 209.451054 
L 366.857805 210.733814 
L 361.145122 210.944732 
L 355.432439 211.841935 
L 349.719755 211.637804 
L 344.007072 211.532136 
L 338.294389 211.46558 
L 332.581705 211.932485 
L 326.869022 212.361562 
L 321.156338 212.760974 
L 315.443655 212.508894 
L 309.730972 212.765134 
L 304.018288 212.90378 
L 298.305605 213.102813 
L 292.592922 213.284566 
L 286.880238 213.749715 
L 281.167555 214.093219 
L 275.454871 214.128542 
L 269.742188 214.076614 
L 264.029505 213.843129 
L 258.316821 213.906583 
L 252.604138 213.378151 
L 246.891454 213.246132 
L 241.178771 213.450758 
L 235.466088 212.927921 
L 229.753404 212.6123 
L 224.040721 212.42659 
L 218.328038 212.328921 
L 212.615354 212.385702 
L 206.902671 212.680498 
L 201.189987 212.091738 
L 195.477304 212.089374 
L 189.764621 211.298973 
L 184.051937 211.138663 
L 178.339254 210.814499 
L 172.62657 210.728863 
L 166.913887 210.451678 
L 161.201204 210.104108 
L 155.48852 209.749516 
L 149.775837 209.315933 
L 144.063154 208.83947 
L 138.35047 208.364161 
L 132.637787 207.888852 
L 126.925103 207.3429 
L 121.21242 206.024968 
L 115.499737 205.32768 
L 109.787053 204.142225 
L 104.07437 204.170772 
L 98.361687 203.831644 
L 92.649003 202.729873 
L 86.93632 201.522967 
L 81.223636 200.31606 
z
" clip-path="url(#pf5c2865c5d)" style="fill: #377eb8; fill-opacity: 0.15"/>
   </g>
   <g id="matplotlib.axis_1">
    <g id="xtick_1">
     <g id="line2d_1">
      <path d="M 179.539762 514.6 
L 179.539762 106.03725 
" clip-path="url(#pf5c2865c5d)" style="fill: none; stroke-dasharray: 2.96,1.28; stroke-dashoffset: 0; stroke: #b0b0b0; stroke-opacity: 0.6; stroke-width: 0.8"/>
     </g>
     <g id="line2d_2">
      <defs>
       <path id="m1a8906932e" d="M 0 0 
L 0 3.5 
" style="stroke: #000000; stroke-width: 0.8"/>
      </defs>
      <g>
       <use xlink:href="#m1a8906932e" x="179.539762" y="514.6" style="stroke: #000000; stroke-width: 0.8"/>
      </g>
     </g>
     <g id="text_1">
      <!-- 500 -->
      <g transform="translate(169.996012 529.198437) scale(0.1 -0.1)">
       <defs>
        <path id="DejaVuSans-35" d="M 691 4666 
L 3169 4666 
L 3169 4134 
L 1269 4134 
L 1269 2991 
Q 1406 3038 1543 3061 
Q 1681 3084 1819 3084 
Q 2600 3084 3056 2656 
Q 3513 2228 3513 1497 
Q 3513 744 3044 326 
Q 2575 -91 1722 -91 
Q 1428 -91 1123 -41 
Q 819 9 494 109 
L 494 744 
Q 775 591 1075 516 
Q 1375 441 1709 441 
Q 2250 441 2565 725 
Q 2881 1009 2881 1497 
Q 2881 1984 2565 2268 
Q 2250 2553 1709 2553 
Q 1456 2553 1204 2497 
Q 953 2441 691 2322 
L 691 4666 
z
" transform="scale(0.015625)"/>
        <path id="DejaVuSans-30" d="M 2034 4250 
Q 1547 4250 1301 3770 
Q 1056 3291 1056 2328 
Q 1056 1369 1301 889 
Q 1547 409 2034 409 
Q 2525 409 2770 889 
Q 3016 1369 3016 2328 
Q 3016 3291 2770 3770 
Q 2525 4250 2034 4250 
z
M 2034 4750 
Q 2819 4750 3233 4129 
Q 3647 3509 3647 2328 
Q 3647 1150 3233 529 
Q 2819 -91 2034 -91 
Q 1250 -91 836 529 
Q 422 1150 422 2328 
Q 422 3509 836 4129 
Q 1250 4750 2034 4750 
z
" transform="scale(0.015625)"/>
       </defs>
       <use xlink:href="#DejaVuSans-35"/>
       <use xlink:href="#DejaVuSans-30" x="63.623047"/>
       <use xlink:href="#DejaVuSans-30" x="127.246094"/>
      </g>
     </g>
    </g>
    <g id="xtick_2">
     <g id="line2d_3">
      <path d="M 321.864535 514.6 
L 321.864535 106.03725 
" clip-path="url(#pf5c2865c5d)" style="fill: none; stroke-dasharray: 2.96,1.28; stroke-dashoffset: 0; stroke: #b0b0b0; stroke-opacity: 0.6; stroke-width: 0.8"/>
     </g>
     <g id="line2d_4">
      <g>
       <use xlink:href="#m1a8906932e" x="321.864535" y="514.6" style="stroke: #000000; stroke-width: 0.8"/>
      </g>
     </g>
     <g id="text_2">
      <!-- 1000 -->
      <g transform="translate(309.139535 529.198437) scale(0.1 -0.1)">
       <defs>
        <path id="DejaVuSans-31" d="M 794 531 
L 1825 531 
L 1825 4091 
L 703 3866 
L 703 4441 
L 1819 4666 
L 2450 4666 
L 2450 531 
L 3481 531 
L 3481 0 
L 794 0 
L 794 531 
z
" transform="scale(0.015625)"/>
       </defs>
       <use xlink:href="#DejaVuSans-31"/>
       <use xlink:href="#DejaVuSans-30" x="63.623047"/>
       <use xlink:href="#DejaVuSans-30" x="127.246094"/>
       <use xlink:href="#DejaVuSans-30" x="190.869141"/>
      </g>
     </g>
    </g>
    <g id="xtick_3">
     <g id="line2d_5">
      <path d="M 464.189308 514.6 
L 464.189308 106.03725 
" clip-path="url(#pf5c2865c5d)" style="fill: none; stroke-dasharray: 2.96,1.28; stroke-dashoffset: 0; stroke: #b0b0b0; stroke-opacity: 0.6; stroke-width: 0.8"/>
     </g>
     <g id="line2d_6">
      <g>
       <use xlink:href="#m1a8906932e" x="464.189308" y="514.6" style="stroke: #000000; stroke-width: 0.8"/>
      </g>
     </g>
     <g id="text_3">
      <!-- 1500 -->
      <g transform="translate(451.464308 529.198437) scale(0.1 -0.1)">
       <use xlink:href="#DejaVuSans-31"/>
       <use xlink:href="#DejaVuSans-35" x="63.623047"/>
       <use xlink:href="#DejaVuSans-30" x="127.246094"/>
       <use xlink:href="#DejaVuSans-30" x="190.869141"/>
      </g>
     </g>
    </g>
    <g id="xtick_4">
     <g id="line2d_7">
      <path d="M 606.514081 514.6 
L 606.514081 106.03725 
" clip-path="url(#pf5c2865c5d)" style="fill: none; stroke-dasharray: 2.96,1.28; stroke-dashoffset: 0; stroke: #b0b0b0; stroke-opacity: 0.6; stroke-width: 0.8"/>
     </g>
     <g id="line2d_8">
      <g>
       <use xlink:href="#m1a8906932e" x="606.514081" y="514.6" style="stroke: #000000; stroke-width: 0.8"/>
      </g>
     </g>
     <g id="text_4">
      <!-- 2000 -->
      <g transform="translate(593.789081 529.198437) scale(0.1 -0.1)">
       <defs>
        <path id="DejaVuSans-32" d="M 1228 531 
L 3431 531 
L 3431 0 
L 469 0 
L 469 531 
Q 828 903 1448 1529 
Q 2069 2156 2228 2338 
Q 2531 2678 2651 2914 
Q 2772 3150 2772 3378 
Q 2772 3750 2511 3984 
Q 2250 4219 1831 4219 
Q 1534 4219 1204 4116 
Q 875 4013 500 3803 
L 500 4441 
Q 881 4594 1212 4672 
Q 1544 4750 1819 4750 
Q 2544 4750 2975 4387 
Q 3406 4025 3406 3419 
Q 3406 3131 3298 2873 
Q 3191 2616 2906 2266 
Q 2828 2175 2409 1742 
Q 1991 1309 1228 531 
z
" transform="scale(0.015625)"/>
       </defs>
       <use xlink:href="#DejaVuSans-32"/>
       <use xlink:href="#DejaVuSans-30" x="63.623047"/>
       <use xlink:href="#DejaVuSans-30" x="127.246094"/>
       <use xlink:href="#DejaVuSans-30" x="190.869141"/>
      </g>
     </g>
    </g>
    <g id="text_5">
     <!-- X Surface Area (mm) -->
     <g transform="translate(306.918594 545.915938) scale(0.14 -0.14)">
      <defs>
       <path id="DejaVuSans-58" d="M 403 4666 
L 1081 4666 
L 2241 2931 
L 3406 4666 
L 4084 4666 
L 2584 2425 
L 4184 0 
L 3506 0 
L 2194 1984 
L 872 0 
L 191 0 
L 1856 2491 
L 403 4666 
z
" transform="scale(0.015625)"/>
       <path id="DejaVuSans-20" transform="scale(0.015625)"/>
       <path id="DejaVuSans-53" d="M 3425 4513 
L 3425 3897 
Q 3066 4069 2747 4153 
Q 2428 4238 2131 4238 
Q 1616 4238 1336 4038 
Q 1056 3838 1056 3469 
Q 1056 3159 1242 3001 
Q 1428 2844 1947 2747 
L 2328 2669 
Q 3034 2534 3370 2195 
Q 3706 1856 3706 1288 
Q 3706 609 3251 259 
Q 2797 -91 1919 -91 
Q 1588 -91 1214 -16 
Q 841 59 441 206 
L 441 856 
Q 825 641 1194 531 
Q 1563 422 1919 422 
Q 2459 422 2753 634 
Q 3047 847 3047 1241 
Q 3047 1584 2836 1778 
Q 2625 1972 2144 2069 
L 1759 2144 
Q 1053 2284 737 2584 
Q 422 2884 422 3419 
Q 422 4038 858 4394 
Q 1294 4750 2059 4750 
Q 2388 4750 2728 4690 
Q 3069 4631 3425 4513 
z
" transform="scale(0.015625)"/>
       <path id="DejaVuSans-75" d="M 544 1381 
L 544 3500 
L 1119 3500 
L 1119 1403 
Q 1119 906 1312 657 
Q 1506 409 1894 409 
Q 2359 409 2629 706 
Q 2900 1003 2900 1516 
L 2900 3500 
L 3475 3500 
L 3475 0 
L 2900 0 
L 2900 538 
Q 2691 219 2414 64 
Q 2138 -91 1772 -91 
Q 1169 -91 856 284 
Q 544 659 544 1381 
z
M 1991 3584 
L 1991 3584 
z
" transform="scale(0.015625)"/>
       <path id="DejaVuSans-72" d="M 2631 2963 
Q 2534 3019 2420 3045 
Q 2306 3072 2169 3072 
Q 1681 3072 1420 2755 
Q 1159 2438 1159 1844 
L 1159 0 
L 581 0 
L 581 3500 
L 1159 3500 
L 1159 2956 
Q 1341 3275 1631 3429 
Q 1922 3584 2338 3584 
Q 2397 3584 2469 3576 
Q 2541 3569 2628 3553 
L 2631 2963 
z
" transform="scale(0.015625)"/>
       <path id="DejaVuSans-66" d="M 2375 4863 
L 2375 4384 
L 1825 4384 
Q 1516 4384 1395 4259 
Q 1275 4134 1275 3809 
L 1275 3500 
L 2222 3500 
L 2222 3053 
L 1275 3053 
L 1275 0 
L 697 0 
L 697 3053 
L 147 3053 
L 147 3500 
L 697 3500 
L 697 3744 
Q 697 4328 969 4595 
Q 1241 4863 1831 4863 
L 2375 4863 
z
" transform="scale(0.015625)"/>
       <path id="DejaVuSans-61" d="M 2194 1759 
Q 1497 1759 1228 1600 
Q 959 1441 959 1056 
Q 959 750 1161 570 
Q 1363 391 1709 391 
Q 2188 391 2477 730 
Q 2766 1069 2766 1631 
L 2766 1759 
L 2194 1759 
z
M 3341 1997 
L 3341 0 
L 2766 0 
L 2766 531 
Q 2569 213 2275 61 
Q 1981 -91 1556 -91 
Q 1019 -91 701 211 
Q 384 513 384 1019 
Q 384 1609 779 1909 
Q 1175 2209 1959 2209 
L 2766 2209 
L 2766 2266 
Q 2766 2663 2505 2880 
Q 2244 3097 1772 3097 
Q 1472 3097 1187 3025 
Q 903 2953 641 2809 
L 641 3341 
Q 956 3463 1253 3523 
Q 1550 3584 1831 3584 
Q 2591 3584 2966 3190 
Q 3341 2797 3341 1997 
z
" transform="scale(0.015625)"/>
       <path id="DejaVuSans-63" d="M 3122 3366 
L 3122 2828 
Q 2878 2963 2633 3030 
Q 2388 3097 2138 3097 
Q 1578 3097 1268 2742 
Q 959 2388 959 1747 
Q 959 1106 1268 751 
Q 1578 397 2138 397 
Q 2388 397 2633 464 
Q 2878 531 3122 666 
L 3122 134 
Q 2881 22 2623 -34 
Q 2366 -91 2075 -91 
Q 1284 -91 818 406 
Q 353 903 353 1747 
Q 353 2603 823 3093 
Q 1294 3584 2113 3584 
Q 2378 3584 2631 3529 
Q 2884 3475 3122 3366 
z
" transform="scale(0.015625)"/>
       <path id="DejaVuSans-65" d="M 3597 1894 
L 3597 1613 
L 953 1613 
Q 991 1019 1311 708 
Q 1631 397 2203 397 
Q 2534 397 2845 478 
Q 3156 559 3463 722 
L 3463 178 
Q 3153 47 2828 -22 
Q 2503 -91 2169 -91 
Q 1331 -91 842 396 
Q 353 884 353 1716 
Q 353 2575 817 3079 
Q 1281 3584 2069 3584 
Q 2775 3584 3186 3129 
Q 3597 2675 3597 1894 
z
M 3022 2063 
Q 3016 2534 2758 2815 
Q 2500 3097 2075 3097 
Q 1594 3097 1305 2825 
Q 1016 2553 972 2059 
L 3022 2063 
z
" transform="scale(0.015625)"/>
       <path id="DejaVuSans-41" d="M 2188 4044 
L 1331 1722 
L 3047 1722 
L 2188 4044 
z
M 1831 4666 
L 2547 4666 
L 4325 0 
L 3669 0 
L 3244 1197 
L 1141 1197 
L 716 0 
L 50 0 
L 1831 4666 
z
" transform="scale(0.015625)"/>
       <path id="DejaVuSans-28" d="M 1984 4856 
Q 1566 4138 1362 3434 
Q 1159 2731 1159 2009 
Q 1159 1288 1364 580 
Q 1569 -128 1984 -844 
L 1484 -844 
Q 1016 -109 783 600 
Q 550 1309 550 2009 
Q 550 2706 781 3412 
Q 1013 4119 1484 4856 
L 1984 4856 
z
" transform="scale(0.015625)"/>
       <path id="DejaVuSans-6d" d="M 3328 2828 
Q 3544 3216 3844 3400 
Q 4144 3584 4550 3584 
Q 5097 3584 5394 3201 
Q 5691 2819 5691 2113 
L 5691 0 
L 5113 0 
L 5113 2094 
Q 5113 2597 4934 2840 
Q 4756 3084 4391 3084 
Q 3944 3084 3684 2787 
Q 3425 2491 3425 1978 
L 3425 0 
L 2847 0 
L 2847 2094 
Q 2847 2600 2669 2842 
Q 2491 3084 2119 3084 
Q 1678 3084 1418 2786 
Q 1159 2488 1159 1978 
L 1159 0 
L 581 0 
L 581 3500 
L 1159 3500 
L 1159 2956 
Q 1356 3278 1631 3431 
Q 1906 3584 2284 3584 
Q 2666 3584 2933 3390 
Q 3200 3197 3328 2828 
z
" transform="scale(0.015625)"/>
       <path id="DejaVuSans-29" d="M 513 4856 
L 1013 4856 
Q 1481 4119 1714 3412 
Q 1947 2706 1947 2009 
Q 1947 1309 1714 600 
Q 1481 -109 1013 -844 
L 513 -844 
Q 928 -128 1133 580 
Q 1338 1288 1338 2009 
Q 1338 2731 1133 3434 
Q 928 4138 513 4856 
z
" transform="scale(0.015625)"/>
      </defs>
      <use xlink:href="#DejaVuSans-58"/>
      <use xlink:href="#DejaVuSans-20" x="68.505859"/>
      <use xlink:href="#DejaVuSans-53" x="100.292969"/>
      <use xlink:href="#DejaVuSans-75" x="163.769531"/>
      <use xlink:href="#DejaVuSans-72" x="227.148438"/>
      <use xlink:href="#DejaVuSans-66" x="268.261719"/>
      <use xlink:href="#DejaVuSans-61" x="303.466797"/>
      <use xlink:href="#DejaVuSans-63" x="364.746094"/>
      <use xlink:href="#DejaVuSans-65" x="419.726562"/>
      <use xlink:href="#DejaVuSans-20" x="481.25"/>
      <use xlink:href="#DejaVuSans-41" x="513.037109"/>
      <use xlink:href="#DejaVuSans-72" x="581.445312"/>
      <use xlink:href="#DejaVuSans-65" x="620.308594"/>
      <use xlink:href="#DejaVuSans-61" x="681.832031"/>
      <use xlink:href="#DejaVuSans-20" x="743.111328"/>
      <use xlink:href="#DejaVuSans-28" x="774.898438"/>
      <use xlink:href="#DejaVuSans-6d" x="813.912109"/>
      <use xlink:href="#DejaVuSans-6d" x="911.324219"/>
      <use xlink:href="#DejaVuSans-29" x="1008.736328"/>
     </g>
     <!-- Y Surface Area (mm) -->
     <g transform="translate(307.438125 561.592875) scale(0.14 -0.14)">
      <defs>
       <path id="DejaVuSans-59" d="M -13 4666 
L 666 4666 
L 1959 2747 
L 3244 4666 
L 3922 4666 
L 2272 2222 
L 2272 0 
L 1638 0 
L 1638 2222 
L -13 4666 
z
" transform="scale(0.015625)"/>
      </defs>
      <use xlink:href="#DejaVuSans-59"/>
      <use xlink:href="#DejaVuSans-20" x="61.083984"/>
      <use xlink:href="#DejaVuSans-53" x="92.871094"/>
      <use xlink:href="#DejaVuSans-75" x="156.347656"/>
      <use xlink:href="#DejaVuSans-72" x="219.726562"/>
      <use xlink:href="#DejaVuSans-66" x="260.839844"/>
      <use xlink:href="#DejaVuSans-61" x="296.044922"/>
      <use xlink:href="#DejaVuSans-63" x="357.324219"/>
      <use xlink:href="#DejaVuSans-65" x="412.304688"/>
      <use xlink:href="#DejaVuSans-20" x="473.828125"/>
      <use xlink:href="#DejaVuSans-41" x="505.615234"/>
      <use xlink:href="#DejaVuSans-72" x="574.023438"/>
      <use xlink:href="#DejaVuSans-65" x="612.886719"/>
      <use xlink:href="#DejaVuSans-61" x="674.410156"/>
      <use xlink:href="#DejaVuSans-20" x="735.689453"/>
      <use xlink:href="#DejaVuSans-28" x="767.476562"/>
      <use xlink:href="#DejaVuSans-6d" x="806.490234"/>
      <use xlink:href="#DejaVuSans-6d" x="903.902344"/>
      <use xlink:href="#DejaVuSans-29" x="1001.314453"/>
     </g>
    </g>
   </g>
   <g id="matplotlib.axis_2">
    <g id="ytick_1">
     <g id="line2d_9">
      <path d="M 51.32 495.235984 
L 709.2 495.235984 
" clip-path="url(#pf5c2865c5d)" style="fill: none; stroke-dasharray: 2.96,1.28; stroke-dashoffset: 0; stroke: #b0b0b0; stroke-opacity: 0.6; stroke-width: 0.8"/>
     </g>
     <g id="line2d_10">
      <defs>
       <path id="me77483784e" d="M 0 0 
L -3.5 0 
" style="stroke: #000000; stroke-width: 0.8"/>
      </defs>
      <g>
       <use xlink:href="#me77483784e" x="51.32" y="495.235984" style="stroke: #000000; stroke-width: 0.8"/>
      </g>
     </g>
     <g id="text_6">
      <!-- 0.1 -->
      <g transform="translate(28.416875 499.035203) scale(0.1 -0.1)">
       <defs>
        <path id="DejaVuSans-2e" d="M 684 794 
L 1344 794 
L 1344 0 
L 684 0 
L 684 794 
z
" transform="scale(0.015625)"/>
       </defs>
       <use xlink:href="#DejaVuSans-30"/>
       <use xlink:href="#DejaVuSans-2e" x="63.623047"/>
       <use xlink:href="#DejaVuSans-31" x="95.410156"/>
      </g>
     </g>
    </g>
    <g id="ytick_2">
     <g id="line2d_11">
      <path d="M 51.32 436.17367 
L 709.2 436.17367 
" clip-path="url(#pf5c2865c5d)" style="fill: none; stroke-dasharray: 2.96,1.28; stroke-dashoffset: 0; stroke: #b0b0b0; stroke-opacity: 0.6; stroke-width: 0.8"/>
     </g>
     <g id="line2d_12">
      <g>
       <use xlink:href="#me77483784e" x="51.32" y="436.17367" style="stroke: #000000; stroke-width: 0.8"/>
      </g>
     </g>
     <g id="text_7">
      <!-- 0.2 -->
      <g transform="translate(28.416875 439.972888) scale(0.1 -0.1)">
       <use xlink:href="#DejaVuSans-30"/>
       <use xlink:href="#DejaVuSans-2e" x="63.623047"/>
       <use xlink:href="#DejaVuSans-32" x="95.410156"/>
      </g>
     </g>
    </g>
    <g id="ytick_3">
     <g id="line2d_13">
      <path d="M 51.32 377.111355 
L 709.2 377.111355 
" clip-path="url(#pf5c2865c5d)" style="fill: none; stroke-dasharray: 2.96,1.28; stroke-dashoffset: 0; stroke: #b0b0b0; stroke-opacity: 0.6; stroke-width: 0.8"/>
     </g>
     <g id="line2d_14">
      <g>
       <use xlink:href="#me77483784e" x="51.32" y="377.111355" style="stroke: #000000; stroke-width: 0.8"/>
      </g>
     </g>
     <g id="text_8">
      <!-- 0.3 -->
      <g transform="translate(28.416875 380.910574) scale(0.1 -0.1)">
       <defs>
        <path id="DejaVuSans-33" d="M 2597 2516 
Q 3050 2419 3304 2112 
Q 3559 1806 3559 1356 
Q 3559 666 3084 287 
Q 2609 -91 1734 -91 
Q 1441 -91 1130 -33 
Q 819 25 488 141 
L 488 750 
Q 750 597 1062 519 
Q 1375 441 1716 441 
Q 2309 441 2620 675 
Q 2931 909 2931 1356 
Q 2931 1769 2642 2001 
Q 2353 2234 1838 2234 
L 1294 2234 
L 1294 2753 
L 1863 2753 
Q 2328 2753 2575 2939 
Q 2822 3125 2822 3475 
Q 2822 3834 2567 4026 
Q 2313 4219 1838 4219 
Q 1578 4219 1281 4162 
Q 984 4106 628 3988 
L 628 4550 
Q 988 4650 1302 4700 
Q 1616 4750 1894 4750 
Q 2613 4750 3031 4423 
Q 3450 4097 3450 3541 
Q 3450 3153 3228 2886 
Q 3006 2619 2597 2516 
z
" transform="scale(0.015625)"/>
       </defs>
       <use xlink:href="#DejaVuSans-30"/>
       <use xlink:href="#DejaVuSans-2e" x="63.623047"/>
       <use xlink:href="#DejaVuSans-33" x="95.410156"/>
      </g>
     </g>
    </g>
    <g id="ytick_4">
     <g id="line2d_15">
      <path d="M 51.32 318.049041 
L 709.2 318.049041 
" clip-path="url(#pf5c2865c5d)" style="fill: none; stroke-dasharray: 2.96,1.28; stroke-dashoffset: 0; stroke: #b0b0b0; stroke-opacity: 0.6; stroke-width: 0.8"/>
     </g>
     <g id="line2d_16">
      <g>
       <use xlink:href="#me77483784e" x="51.32" y="318.049041" style="stroke: #000000; stroke-width: 0.8"/>
      </g>
     </g>
     <g id="text_9">
      <!-- 0.4 -->
      <g transform="translate(28.416875 321.848259) scale(0.1 -0.1)">
       <defs>
        <path id="DejaVuSans-34" d="M 2419 4116 
L 825 1625 
L 2419 1625 
L 2419 4116 
z
M 2253 4666 
L 3047 4666 
L 3047 1625 
L 3713 1625 
L 3713 1100 
L 3047 1100 
L 3047 0 
L 2419 0 
L 2419 1100 
L 313 1100 
L 313 1709 
L 2253 4666 
z
" transform="scale(0.015625)"/>
       </defs>
       <use xlink:href="#DejaVuSans-30"/>
       <use xlink:href="#DejaVuSans-2e" x="63.623047"/>
       <use xlink:href="#DejaVuSans-34" x="95.410156"/>
      </g>
     </g>
    </g>
    <g id="ytick_5">
     <g id="line2d_17">
      <path d="M 51.32 258.986726 
L 709.2 258.986726 
" clip-path="url(#pf5c2865c5d)" style="fill: none; stroke-dasharray: 2.96,1.28; stroke-dashoffset: 0; stroke: #b0b0b0; stroke-opacity: 0.6; stroke-width: 0.8"/>
     </g>
     <g id="line2d_18">
      <g>
       <use xlink:href="#me77483784e" x="51.32" y="258.986726" style="stroke: #000000; stroke-width: 0.8"/>
      </g>
     </g>
     <g id="text_10">
      <!-- 0.5 -->
      <g transform="translate(28.416875 262.785945) scale(0.1 -0.1)">
       <use xlink:href="#DejaVuSans-30"/>
       <use xlink:href="#DejaVuSans-2e" x="63.623047"/>
       <use xlink:href="#DejaVuSans-35" x="95.410156"/>
      </g>
     </g>
    </g>
    <g id="ytick_6">
     <g id="line2d_19">
      <path d="M 51.32 199.924412 
L 709.2 199.924412 
" clip-path="url(#pf5c2865c5d)" style="fill: none; stroke-dasharray: 2.96,1.28; stroke-dashoffset: 0; stroke: #b0b0b0; stroke-opacity: 0.6; stroke-width: 0.8"/>
     </g>
     <g id="line2d_20">
      <g>
       <use xlink:href="#me77483784e" x="51.32" y="199.924412" style="stroke: #000000; stroke-width: 0.8"/>
      </g>
     </g>
     <g id="text_11">
      <!-- 0.6 -->
      <g transform="translate(28.416875 203.723631) scale(0.1 -0.1)">
       <defs>
        <path id="DejaVuSans-36" d="M 2113 2584 
Q 1688 2584 1439 2293 
Q 1191 2003 1191 1497 
Q 1191 994 1439 701 
Q 1688 409 2113 409 
Q 2538 409 2786 701 
Q 3034 994 3034 1497 
Q 3034 2003 2786 2293 
Q 2538 2584 2113 2584 
z
M 3366 4563 
L 3366 3988 
Q 3128 4100 2886 4159 
Q 2644 4219 2406 4219 
Q 1781 4219 1451 3797 
Q 1122 3375 1075 2522 
Q 1259 2794 1537 2939 
Q 1816 3084 2150 3084 
Q 2853 3084 3261 2657 
Q 3669 2231 3669 1497 
Q 3669 778 3244 343 
Q 2819 -91 2113 -91 
Q 1303 -91 875 529 
Q 447 1150 447 2328 
Q 447 3434 972 4092 
Q 1497 4750 2381 4750 
Q 2619 4750 2861 4703 
Q 3103 4656 3366 4563 
z
" transform="scale(0.015625)"/>
       </defs>
       <use xlink:href="#DejaVuSans-30"/>
       <use xlink:href="#DejaVuSans-2e" x="63.623047"/>
       <use xlink:href="#DejaVuSans-36" x="95.410156"/>
      </g>
     </g>
    </g>
    <g id="ytick_7">
     <g id="line2d_21">
      <path d="M 51.32 140.862097 
L 709.2 140.862097 
" clip-path="url(#pf5c2865c5d)" style="fill: none; stroke-dasharray: 2.96,1.28; stroke-dashoffset: 0; stroke: #b0b0b0; stroke-opacity: 0.6; stroke-width: 0.8"/>
     </g>
     <g id="line2d_22">
      <g>
       <use xlink:href="#me77483784e" x="51.32" y="140.862097" style="stroke: #000000; stroke-width: 0.8"/>
      </g>
     </g>
     <g id="text_12">
      <!-- 0.7 -->
      <g transform="translate(28.416875 144.661316) scale(0.1 -0.1)">
       <defs>
        <path id="DejaVuSans-37" d="M 525 4666 
L 3525 4666 
L 3525 4397 
L 1831 0 
L 1172 0 
L 2766 4134 
L 525 4134 
L 525 4666 
z
" transform="scale(0.015625)"/>
       </defs>
       <use xlink:href="#DejaVuSans-30"/>
       <use xlink:href="#DejaVuSans-2e" x="63.623047"/>
       <use xlink:href="#DejaVuSans-37" x="95.410156"/>
      </g>
     </g>
    </g>
    <g id="text_13">
     <!-- Score: (x real, y real) -->
     <g transform="translate(21.505313 383.675344) rotate(-90) scale(0.14 -0.14)">
      <defs>
       <path id="DejaVuSans-6f" d="M 1959 3097 
Q 1497 3097 1228 2736 
Q 959 2375 959 1747 
Q 959 1119 1226 758 
Q 1494 397 1959 397 
Q 2419 397 2687 759 
Q 2956 1122 2956 1747 
Q 2956 2369 2687 2733 
Q 2419 3097 1959 3097 
z
M 1959 3584 
Q 2709 3584 3137 3096 
Q 3566 2609 3566 1747 
Q 3566 888 3137 398 
Q 2709 -91 1959 -91 
Q 1206 -91 779 398 
Q 353 888 353 1747 
Q 353 2609 779 3096 
Q 1206 3584 1959 3584 
z
" transform="scale(0.015625)"/>
       <path id="DejaVuSans-3a" d="M 750 794 
L 1409 794 
L 1409 0 
L 750 0 
L 750 794 
z
M 750 3309 
L 1409 3309 
L 1409 2516 
L 750 2516 
L 750 3309 
z
" transform="scale(0.015625)"/>
       <path id="DejaVuSans-78" d="M 3513 3500 
L 2247 1797 
L 3578 0 
L 2900 0 
L 1881 1375 
L 863 0 
L 184 0 
L 1544 1831 
L 300 3500 
L 978 3500 
L 1906 2253 
L 2834 3500 
L 3513 3500 
z
" transform="scale(0.015625)"/>
       <path id="DejaVuSans-6c" d="M 603 4863 
L 1178 4863 
L 1178 0 
L 603 0 
L 603 4863 
z
" transform="scale(0.015625)"/>
       <path id="DejaVuSans-2c" d="M 750 794 
L 1409 794 
L 1409 256 
L 897 -744 
L 494 -744 
L 750 256 
L 750 794 
z
" transform="scale(0.015625)"/>
       <path id="DejaVuSans-79" d="M 2059 -325 
Q 1816 -950 1584 -1140 
Q 1353 -1331 966 -1331 
L 506 -1331 
L 506 -850 
L 844 -850 
Q 1081 -850 1212 -737 
Q 1344 -625 1503 -206 
L 1606 56 
L 191 3500 
L 800 3500 
L 1894 763 
L 2988 3500 
L 3597 3500 
L 2059 -325 
z
" transform="scale(0.015625)"/>
      </defs>
      <use xlink:href="#DejaVuSans-53"/>
      <use xlink:href="#DejaVuSans-63" x="63.476562"/>
      <use xlink:href="#DejaVuSans-6f" x="118.457031"/>
      <use xlink:href="#DejaVuSans-72" x="179.638672"/>
      <use xlink:href="#DejaVuSans-65" x="218.501953"/>
      <use xlink:href="#DejaVuSans-3a" x="280.025391"/>
      <use xlink:href="#DejaVuSans-20" x="313.716797"/>
      <use xlink:href="#DejaVuSans-28" x="345.503906"/>
      <use xlink:href="#DejaVuSans-78" x="384.517578"/>
      <use xlink:href="#DejaVuSans-20" x="443.697266"/>
      <use xlink:href="#DejaVuSans-72" x="475.484375"/>
      <use xlink:href="#DejaVuSans-65" x="514.347656"/>
      <use xlink:href="#DejaVuSans-61" x="575.871094"/>
      <use xlink:href="#DejaVuSans-6c" x="637.150391"/>
      <use xlink:href="#DejaVuSans-2c" x="664.933594"/>
      <use xlink:href="#DejaVuSans-20" x="696.720703"/>
      <use xlink:href="#DejaVuSans-79" x="728.507812"/>
      <use xlink:href="#DejaVuSans-20" x="787.6875"/>
      <use xlink:href="#DejaVuSans-72" x="819.474609"/>
      <use xlink:href="#DejaVuSans-65" x="858.337891"/>
      <use xlink:href="#DejaVuSans-61" x="919.861328"/>
      <use xlink:href="#DejaVuSans-6c" x="981.140625"/>
      <use xlink:href="#DejaVuSans-29" x="1008.923828"/>
     </g>
    </g>
   </g>
   <g id="line2d_23">
    <path d="M 124.617112 259.296479 
L 130.219933 259.216584 
L 135.822754 259.136689 
L 141.425575 259.056793 
L 147.028395 258.976898 
L 152.631216 258.897003 
L 158.234037 258.817107 
L 163.836857 258.737212 
L 169.439678 258.657317 
L 175.042499 258.577421 
L 180.64532 258.497526 
L 186.24814 258.417631 
L 191.850961 258.337735 
L 197.453782 258.25784 
L 203.056602 258.177945 
L 208.659423 258.098049 
L 214.262244 258.018154 
L 219.865065 257.938259 
L 225.467885 257.858363 
L 231.070706 257.778468 
L 236.673527 257.698573 
L 242.276348 257.618677 
L 247.879168 257.538782 
L 253.481989 257.458887 
L 259.08481 257.378991 
L 264.68763 257.299096 
L 270.290451 257.219201 
L 275.893272 257.139305 
L 281.496093 257.05941 
L 287.098913 256.979515 
L 292.701734 256.899619 
L 298.304555 256.819724 
L 303.907375 256.739829 
L 309.510196 256.659933 
L 315.113017 256.580038 
L 320.715838 256.500142 
L 326.318658 256.420247 
L 331.921479 256.340352 
L 337.5243 256.260456 
L 343.12712 256.180561 
L 348.729941 256.100666 
L 354.332762 256.02077 
L 359.935583 255.940875 
L 365.538403 255.86098 
L 371.141224 255.781084 
L 376.744045 255.701189 
L 382.346866 255.621294 
L 387.949686 255.541398 
L 393.552507 255.461503 
L 399.155328 255.381608 
L 404.758148 255.301712 
L 410.360969 255.221817 
L 415.96379 255.141922 
L 421.566611 255.062026 
L 427.169431 254.982131 
L 432.772252 254.902236 
L 438.375073 254.82234 
L 443.977893 254.742445 
L 449.580714 254.66255 
L 455.183535 254.582654 
L 460.786356 254.502759 
L 466.389176 254.422864 
L 471.991997 254.342968 
L 477.594818 254.263073 
L 483.197638 254.183178 
L 488.800459 254.103282 
L 494.40328 254.023387 
L 500.006101 253.943492 
L 505.608921 253.863596 
L 511.211742 253.783701 
L 516.814563 253.703806 
L 522.417383 253.62391 
L 528.020204 253.544015 
L 533.623025 253.46412 
L 539.225846 253.384224 
L 544.828666 253.304329 
L 550.431487 253.224434 
L 556.034308 253.144538 
L 561.637129 253.064643 
L 567.239949 252.984747 
L 572.84277 252.904852 
L 578.445591 252.824957 
L 584.048411 252.745061 
L 589.651232 252.665166 
L 595.254053 252.585271 
L 600.856874 252.505375 
L 606.459694 252.42548 
L 612.062515 252.345585 
L 617.665336 252.265689 
L 623.268156 252.185794 
L 628.870977 252.105899 
L 634.473798 252.026003 
L 640.076619 251.946108 
L 645.679439 251.866213 
L 651.28226 251.786317 
L 656.885081 251.706422 
L 662.487901 251.626527 
L 668.090722 251.546631 
L 673.693543 251.466736 
L 679.296364 251.386841 
" clip-path="url(#pf5c2865c5d)" style="fill: none; stroke-dasharray: 8.325,3.6; stroke-dashoffset: 0; stroke: #e41a1c; stroke-width: 2.25"/>
   </g>
   <g id="line2d_24">
    <path d="M 81.223636 258.009137 
L 86.93632 257.931777 
L 92.649003 257.854417 
L 98.361687 257.777057 
L 104.07437 257.699697 
L 109.787053 257.622336 
L 115.499737 257.544976 
L 121.21242 257.467616 
L 126.925103 257.390256 
L 132.637787 257.312896 
L 138.35047 257.235535 
L 144.063154 257.158175 
L 149.775837 257.080815 
L 155.48852 257.003455 
L 161.201204 256.926095 
L 166.913887 256.848734 
L 172.62657 256.771374 
L 178.339254 256.694014 
L 184.051937 256.616654 
L 189.764621 256.539294 
L 195.477304 256.461933 
L 201.189987 256.384573 
L 206.902671 256.307213 
L 212.615354 256.229853 
L 218.328038 256.152492 
L 224.040721 256.075132 
L 229.753404 255.997772 
L 235.466088 255.920412 
L 241.178771 255.843052 
L 246.891454 255.765691 
L 252.604138 255.688331 
L 258.316821 255.610971 
L 264.029505 255.533611 
L 269.742188 255.456251 
L 275.454871 255.37889 
L 281.167555 255.30153 
L 286.880238 255.22417 
L 292.592922 255.14681 
L 298.305605 255.06945 
L 304.018288 254.992089 
L 309.730972 254.914729 
L 315.443655 254.837369 
L 321.156338 254.760009 
L 326.869022 254.682648 
L 332.581705 254.605288 
L 338.294389 254.527928 
L 344.007072 254.450568 
L 349.719755 254.373208 
L 355.432439 254.295847 
L 361.145122 254.218487 
L 366.857805 254.141127 
L 372.570489 254.063767 
L 378.283172 253.986407 
L 383.995856 253.909046 
L 389.708539 253.831686 
L 395.421222 253.754326 
L 401.133906 253.676966 
L 406.846589 253.599606 
L 412.559273 253.522245 
L 418.271956 253.444885 
L 423.984639 253.367525 
L 429.697323 253.290165 
L 435.410006 253.212805 
L 441.122689 253.135444 
L 446.835373 253.058084 
L 452.548056 252.980724 
L 458.26074 252.903364 
L 463.973423 252.826003 
L 469.686106 252.748643 
L 475.39879 252.671283 
L 481.111473 252.593923 
L 486.824157 252.516563 
L 492.53684 252.439202 
L 498.249523 252.361842 
L 503.962207 252.284482 
L 509.67489 252.207122 
L 515.387573 252.129762 
L 521.100257 252.052401 
L 526.81294 251.975041 
L 532.525624 251.897681 
L 538.238307 251.820321 
L 543.95099 251.742961 
L 549.663674 251.6656 
L 555.376357 251.58824 
L 561.08904 251.51088 
L 566.801724 251.43352 
L 572.514407 251.35616 
L 578.227091 251.278799 
L 583.939774 251.201439 
L 589.652457 251.124079 
L 595.365141 251.046719 
L 601.077824 250.969358 
L 606.790508 250.891998 
L 612.503191 250.814638 
L 618.215874 250.737278 
L 623.928558 250.659918 
L 629.641241 250.582557 
L 635.353924 250.505197 
L 641.066608 250.427837 
L 646.779291 250.350477 
" clip-path="url(#pf5c2865c5d)" style="fill: none; stroke-dasharray: 8.325,3.6; stroke-dashoffset: 0; stroke: #377eb8; stroke-width: 2.25"/>
   </g>
   <g id="patch_3">
    <path d="M 51.32 514.6 
L 51.32 106.03725 
" style="fill: none; stroke: #000000; stroke-width: 0.8; stroke-linejoin: miter; stroke-linecap: square"/>
   </g>
   <g id="patch_4">
    <path d="M 709.2 514.6 
L 709.2 106.03725 
" style="fill: none; stroke: #000000; stroke-width: 0.8; stroke-linejoin: miter; stroke-linecap: square"/>
   </g>
   <g id="patch_5">
    <path d="M 51.32 514.6 
L 709.2 514.6 
" style="fill: none; stroke: #000000; stroke-width: 0.8; stroke-linejoin: miter; stroke-linecap: square"/>
   </g>
   <g id="patch_6">
    <path d="M 51.32 106.03725 
L 709.2 106.03725 
" style="fill: none; stroke: #000000; stroke-width: 0.8; stroke-linejoin: miter; stroke-linecap: square"/>
   </g>
   <g id="text_14">
    <!-- Effect of X Surface Area (mm), Y Surface Area (mm) on Score: (x real, y real) -->
    <g transform="translate(73.30375 64.20425) scale(0.16 -0.16)">
     <defs>
      <path id="DejaVuSans-45" d="M 628 4666 
L 3578 4666 
L 3578 4134 
L 1259 4134 
L 1259 2753 
L 3481 2753 
L 3481 2222 
L 1259 2222 
L 1259 531 
L 3634 531 
L 3634 0 
L 628 0 
L 628 4666 
z
" transform="scale(0.015625)"/>
      <path id="DejaVuSans-74" d="M 1172 4494 
L 1172 3500 
L 2356 3500 
L 2356 3053 
L 1172 3053 
L 1172 1153 
Q 1172 725 1289 603 
Q 1406 481 1766 481 
L 2356 481 
L 2356 0 
L 1766 0 
Q 1100 0 847 248 
Q 594 497 594 1153 
L 594 3053 
L 172 3053 
L 172 3500 
L 594 3500 
L 594 4494 
L 1172 4494 
z
" transform="scale(0.015625)"/>
      <path id="DejaVuSans-6e" d="M 3513 2113 
L 3513 0 
L 2938 0 
L 2938 2094 
Q 2938 2591 2744 2837 
Q 2550 3084 2163 3084 
Q 1697 3084 1428 2787 
Q 1159 2491 1159 1978 
L 1159 0 
L 581 0 
L 581 3500 
L 1159 3500 
L 1159 2956 
Q 1366 3272 1645 3428 
Q 1925 3584 2291 3584 
Q 2894 3584 3203 3211 
Q 3513 2838 3513 2113 
z
" transform="scale(0.015625)"/>
     </defs>
     <use xlink:href="#DejaVuSans-45"/>
     <use xlink:href="#DejaVuSans-66" x="63.183594"/>
     <use xlink:href="#DejaVuSans-66" x="98.388672"/>
     <use xlink:href="#DejaVuSans-65" x="133.59375"/>
     <use xlink:href="#DejaVuSans-63" x="195.117188"/>
     <use xlink:href="#DejaVuSans-74" x="250.097656"/>
     <use xlink:href="#DejaVuSans-20" x="289.306641"/>
     <use xlink:href="#DejaVuSans-6f" x="321.09375"/>
     <use xlink:href="#DejaVuSans-66" x="382.275391"/>
     <use xlink:href="#DejaVuSans-20" x="417.480469"/>
     <use xlink:href="#DejaVuSans-58" x="449.267578"/>
     <use xlink:href="#DejaVuSans-20" x="517.773438"/>
     <use xlink:href="#DejaVuSans-53" x="549.560547"/>
     <use xlink:href="#DejaVuSans-75" x="613.037109"/>
     <use xlink:href="#DejaVuSans-72" x="676.416016"/>
     <use xlink:href="#DejaVuSans-66" x="717.529297"/>
     <use xlink:href="#DejaVuSans-61" x="752.734375"/>
     <use xlink:href="#DejaVuSans-63" x="814.013672"/>
     <use xlink:href="#DejaVuSans-65" x="868.994141"/>
     <use xlink:href="#DejaVuSans-20" x="930.517578"/>
     <use xlink:href="#DejaVuSans-41" x="962.304688"/>
     <use xlink:href="#DejaVuSans-72" x="1030.712891"/>
     <use xlink:href="#DejaVuSans-65" x="1069.576172"/>
     <use xlink:href="#DejaVuSans-61" x="1131.099609"/>
     <use xlink:href="#DejaVuSans-20" x="1192.378906"/>
     <use xlink:href="#DejaVuSans-28" x="1224.166016"/>
     <use xlink:href="#DejaVuSans-6d" x="1263.179688"/>
     <use xlink:href="#DejaVuSans-6d" x="1360.591797"/>
     <use xlink:href="#DejaVuSans-29" x="1458.003906"/>
     <use xlink:href="#DejaVuSans-2c" x="1497.017578"/>
     <use xlink:href="#DejaVuSans-20" x="1528.804688"/>
     <use xlink:href="#DejaVuSans-59" x="1560.591797"/>
     <use xlink:href="#DejaVuSans-20" x="1621.675781"/>
     <use xlink:href="#DejaVuSans-53" x="1653.462891"/>
     <use xlink:href="#DejaVuSans-75" x="1716.939453"/>
     <use xlink:href="#DejaVuSans-72" x="1780.318359"/>
     <use xlink:href="#DejaVuSans-66" x="1821.431641"/>
     <use xlink:href="#DejaVuSans-61" x="1856.636719"/>
     <use xlink:href="#DejaVuSans-63" x="1917.916016"/>
     <use xlink:href="#DejaVuSans-65" x="1972.896484"/>
     <use xlink:href="#DejaVuSans-20" x="2034.419922"/>
     <use xlink:href="#DejaVuSans-41" x="2066.207031"/>
     <use xlink:href="#DejaVuSans-72" x="2134.615234"/>
     <use xlink:href="#DejaVuSans-65" x="2173.478516"/>
     <use xlink:href="#DejaVuSans-61" x="2235.001953"/>
     <use xlink:href="#DejaVuSans-20" x="2296.28125"/>
     <use xlink:href="#DejaVuSans-28" x="2328.068359"/>
     <use xlink:href="#DejaVuSans-6d" x="2367.082031"/>
     <use xlink:href="#DejaVuSans-6d" x="2464.494141"/>
     <use xlink:href="#DejaVuSans-29" x="2561.90625"/>
     <use xlink:href="#DejaVuSans-20" x="2600.919922"/>
     <use xlink:href="#DejaVuSans-6f" x="2632.707031"/>
     <use xlink:href="#DejaVuSans-6e" x="2693.888672"/>
     <use xlink:href="#DejaVuSans-20" x="2757.267578"/>
     <use xlink:href="#DejaVuSans-53" x="2789.054688"/>
     <use xlink:href="#DejaVuSans-63" x="2852.53125"/>
     <use xlink:href="#DejaVuSans-6f" x="2907.511719"/>
     <use xlink:href="#DejaVuSans-72" x="2968.693359"/>
     <use xlink:href="#DejaVuSans-65" x="3007.556641"/>
     <use xlink:href="#DejaVuSans-3a" x="3069.080078"/>
     <use xlink:href="#DejaVuSans-20" x="3102.771484"/>
     <use xlink:href="#DejaVuSans-28" x="3134.558594"/>
     <use xlink:href="#DejaVuSans-78" x="3173.572266"/>
     <use xlink:href="#DejaVuSans-20" x="3232.751953"/>
     <use xlink:href="#DejaVuSans-72" x="3264.539062"/>
     <use xlink:href="#DejaVuSans-65" x="3303.402344"/>
     <use xlink:href="#DejaVuSans-61" x="3364.925781"/>
     <use xlink:href="#DejaVuSans-6c" x="3426.205078"/>
     <use xlink:href="#DejaVuSans-2c" x="3453.988281"/>
     <use xlink:href="#DejaVuSans-20" x="3485.775391"/>
     <use xlink:href="#DejaVuSans-79" x="3517.5625"/>
     <use xlink:href="#DejaVuSans-20" x="3576.742188"/>
     <use xlink:href="#DejaVuSans-72" x="3608.529297"/>
     <use xlink:href="#DejaVuSans-65" x="3647.392578"/>
     <use xlink:href="#DejaVuSans-61" x="3708.916016"/>
     <use xlink:href="#DejaVuSans-6c" x="3770.195312"/>
     <use xlink:href="#DejaVuSans-29" x="3797.978516"/>
    </g>
    <!-- Group: Normalized Mutual Information - X as Truth  -->
    <g transform="translate(176.185 82.12075) scale(0.16 -0.16)">
     <defs>
      <path id="DejaVuSans-47" d="M 3809 666 
L 3809 1919 
L 2778 1919 
L 2778 2438 
L 4434 2438 
L 4434 434 
Q 4069 175 3628 42 
Q 3188 -91 2688 -91 
Q 1594 -91 976 548 
Q 359 1188 359 2328 
Q 359 3472 976 4111 
Q 1594 4750 2688 4750 
Q 3144 4750 3555 4637 
Q 3966 4525 4313 4306 
L 4313 3634 
Q 3963 3931 3569 4081 
Q 3175 4231 2741 4231 
Q 1884 4231 1454 3753 
Q 1025 3275 1025 2328 
Q 1025 1384 1454 906 
Q 1884 428 2741 428 
Q 3075 428 3337 486 
Q 3600 544 3809 666 
z
" transform="scale(0.015625)"/>
      <path id="DejaVuSans-70" d="M 1159 525 
L 1159 -1331 
L 581 -1331 
L 581 3500 
L 1159 3500 
L 1159 2969 
Q 1341 3281 1617 3432 
Q 1894 3584 2278 3584 
Q 2916 3584 3314 3078 
Q 3713 2572 3713 1747 
Q 3713 922 3314 415 
Q 2916 -91 2278 -91 
Q 1894 -91 1617 61 
Q 1341 213 1159 525 
z
M 3116 1747 
Q 3116 2381 2855 2742 
Q 2594 3103 2138 3103 
Q 1681 3103 1420 2742 
Q 1159 2381 1159 1747 
Q 1159 1113 1420 752 
Q 1681 391 2138 391 
Q 2594 391 2855 752 
Q 3116 1113 3116 1747 
z
" transform="scale(0.015625)"/>
      <path id="DejaVuSans-4e" d="M 628 4666 
L 1478 4666 
L 3547 763 
L 3547 4666 
L 4159 4666 
L 4159 0 
L 3309 0 
L 1241 3903 
L 1241 0 
L 628 0 
L 628 4666 
z
" transform="scale(0.015625)"/>
      <path id="DejaVuSans-69" d="M 603 3500 
L 1178 3500 
L 1178 0 
L 603 0 
L 603 3500 
z
M 603 4863 
L 1178 4863 
L 1178 4134 
L 603 4134 
L 603 4863 
z
" transform="scale(0.015625)"/>
      <path id="DejaVuSans-7a" d="M 353 3500 
L 3084 3500 
L 3084 2975 
L 922 459 
L 3084 459 
L 3084 0 
L 275 0 
L 275 525 
L 2438 3041 
L 353 3041 
L 353 3500 
z
" transform="scale(0.015625)"/>
      <path id="DejaVuSans-64" d="M 2906 2969 
L 2906 4863 
L 3481 4863 
L 3481 0 
L 2906 0 
L 2906 525 
Q 2725 213 2448 61 
Q 2172 -91 1784 -91 
Q 1150 -91 751 415 
Q 353 922 353 1747 
Q 353 2572 751 3078 
Q 1150 3584 1784 3584 
Q 2172 3584 2448 3432 
Q 2725 3281 2906 2969 
z
M 947 1747 
Q 947 1113 1208 752 
Q 1469 391 1925 391 
Q 2381 391 2643 752 
Q 2906 1113 2906 1747 
Q 2906 2381 2643 2742 
Q 2381 3103 1925 3103 
Q 1469 3103 1208 2742 
Q 947 2381 947 1747 
z
" transform="scale(0.015625)"/>
      <path id="DejaVuSans-4d" d="M 628 4666 
L 1569 4666 
L 2759 1491 
L 3956 4666 
L 4897 4666 
L 4897 0 
L 4281 0 
L 4281 4097 
L 3078 897 
L 2444 897 
L 1241 4097 
L 1241 0 
L 628 0 
L 628 4666 
z
" transform="scale(0.015625)"/>
      <path id="DejaVuSans-49" d="M 628 4666 
L 1259 4666 
L 1259 0 
L 628 0 
L 628 4666 
z
" transform="scale(0.015625)"/>
      <path id="DejaVuSans-2d" d="M 313 2009 
L 1997 2009 
L 1997 1497 
L 313 1497 
L 313 2009 
z
" transform="scale(0.015625)"/>
      <path id="DejaVuSans-73" d="M 2834 3397 
L 2834 2853 
Q 2591 2978 2328 3040 
Q 2066 3103 1784 3103 
Q 1356 3103 1142 2972 
Q 928 2841 928 2578 
Q 928 2378 1081 2264 
Q 1234 2150 1697 2047 
L 1894 2003 
Q 2506 1872 2764 1633 
Q 3022 1394 3022 966 
Q 3022 478 2636 193 
Q 2250 -91 1575 -91 
Q 1294 -91 989 -36 
Q 684 19 347 128 
L 347 722 
Q 666 556 975 473 
Q 1284 391 1588 391 
Q 1994 391 2212 530 
Q 2431 669 2431 922 
Q 2431 1156 2273 1281 
Q 2116 1406 1581 1522 
L 1381 1569 
Q 847 1681 609 1914 
Q 372 2147 372 2553 
Q 372 3047 722 3315 
Q 1072 3584 1716 3584 
Q 2034 3584 2315 3537 
Q 2597 3491 2834 3397 
z
" transform="scale(0.015625)"/>
      <path id="DejaVuSans-54" d="M -19 4666 
L 3928 4666 
L 3928 4134 
L 2272 4134 
L 2272 0 
L 1638 0 
L 1638 4134 
L -19 4134 
L -19 4666 
z
" transform="scale(0.015625)"/>
      <path id="DejaVuSans-68" d="M 3513 2113 
L 3513 0 
L 2938 0 
L 2938 2094 
Q 2938 2591 2744 2837 
Q 2550 3084 2163 3084 
Q 1697 3084 1428 2787 
Q 1159 2491 1159 1978 
L 1159 0 
L 581 0 
L 581 4863 
L 1159 4863 
L 1159 2956 
Q 1366 3272 1645 3428 
Q 1925 3584 2291 3584 
Q 2894 3584 3203 3211 
Q 3513 2838 3513 2113 
z
" transform="scale(0.015625)"/>
     </defs>
     <use xlink:href="#DejaVuSans-47"/>
     <use xlink:href="#DejaVuSans-72" x="77.490234"/>
     <use xlink:href="#DejaVuSans-6f" x="116.353516"/>
     <use xlink:href="#DejaVuSans-75" x="177.535156"/>
     <use xlink:href="#DejaVuSans-70" x="240.914062"/>
     <use xlink:href="#DejaVuSans-3a" x="304.390625"/>
     <use xlink:href="#DejaVuSans-20" x="338.082031"/>
     <use xlink:href="#DejaVuSans-4e" x="369.869141"/>
     <use xlink:href="#DejaVuSans-6f" x="444.673828"/>
     <use xlink:href="#DejaVuSans-72" x="505.855469"/>
     <use xlink:href="#DejaVuSans-6d" x="545.21875"/>
     <use xlink:href="#DejaVuSans-61" x="642.630859"/>
     <use xlink:href="#DejaVuSans-6c" x="703.910156"/>
     <use xlink:href="#DejaVuSans-69" x="731.693359"/>
     <use xlink:href="#DejaVuSans-7a" x="759.476562"/>
     <use xlink:href="#DejaVuSans-65" x="811.966797"/>
     <use xlink:href="#DejaVuSans-64" x="873.490234"/>
     <use xlink:href="#DejaVuSans-20" x="936.966797"/>
     <use xlink:href="#DejaVuSans-4d" x="968.753906"/>
     <use xlink:href="#DejaVuSans-75" x="1055.033203"/>
     <use xlink:href="#DejaVuSans-74" x="1118.412109"/>
     <use xlink:href="#DejaVuSans-75" x="1157.621094"/>
     <use xlink:href="#DejaVuSans-61" x="1221"/>
     <use xlink:href="#DejaVuSans-6c" x="1282.279297"/>
     <use xlink:href="#DejaVuSans-20" x="1310.0625"/>
     <use xlink:href="#DejaVuSans-49" x="1341.849609"/>
     <use xlink:href="#DejaVuSans-6e" x="1371.341797"/>
     <use xlink:href="#DejaVuSans-66" x="1434.720703"/>
     <use xlink:href="#DejaVuSans-6f" x="1469.925781"/>
     <use xlink:href="#DejaVuSans-72" x="1531.107422"/>
     <use xlink:href="#DejaVuSans-6d" x="1570.470703"/>
     <use xlink:href="#DejaVuSans-61" x="1667.882812"/>
     <use xlink:href="#DejaVuSans-74" x="1729.162109"/>
     <use xlink:href="#DejaVuSans-69" x="1768.371094"/>
     <use xlink:href="#DejaVuSans-6f" x="1796.154297"/>
     <use xlink:href="#DejaVuSans-6e" x="1857.335938"/>
     <use xlink:href="#DejaVuSans-20" x="1920.714844"/>
     <use xlink:href="#DejaVuSans-2d" x="1952.501953"/>
     <use xlink:href="#DejaVuSans-20" x="1988.585938"/>
     <use xlink:href="#DejaVuSans-58" x="2020.373047"/>
     <use xlink:href="#DejaVuSans-20" x="2088.878906"/>
     <use xlink:href="#DejaVuSans-61" x="2120.666016"/>
     <use xlink:href="#DejaVuSans-73" x="2181.945312"/>
     <use xlink:href="#DejaVuSans-20" x="2234.044922"/>
     <use xlink:href="#DejaVuSans-54" x="2265.832031"/>
     <use xlink:href="#DejaVuSans-72" x="2312.166016"/>
     <use xlink:href="#DejaVuSans-75" x="2353.279297"/>
     <use xlink:href="#DejaVuSans-74" x="2416.658203"/>
     <use xlink:href="#DejaVuSans-68" x="2455.867188"/>
     <use xlink:href="#DejaVuSans-20" x="2519.246094"/>
    </g>
    <!-- All modules, including non-optimal -->
    <g transform="translate(241.26875 100.03725) scale(0.16 -0.16)">
     <defs>
      <path id="DejaVuSans-67" d="M 2906 1791 
Q 2906 2416 2648 2759 
Q 2391 3103 1925 3103 
Q 1463 3103 1205 2759 
Q 947 2416 947 1791 
Q 947 1169 1205 825 
Q 1463 481 1925 481 
Q 2391 481 2648 825 
Q 2906 1169 2906 1791 
z
M 3481 434 
Q 3481 -459 3084 -895 
Q 2688 -1331 1869 -1331 
Q 1566 -1331 1297 -1286 
Q 1028 -1241 775 -1147 
L 775 -588 
Q 1028 -725 1275 -790 
Q 1522 -856 1778 -856 
Q 2344 -856 2625 -561 
Q 2906 -266 2906 331 
L 2906 616 
Q 2728 306 2450 153 
Q 2172 0 1784 0 
Q 1141 0 747 490 
Q 353 981 353 1791 
Q 353 2603 747 3093 
Q 1141 3584 1784 3584 
Q 2172 3584 2450 3431 
Q 2728 3278 2906 2969 
L 2906 3500 
L 3481 3500 
L 3481 434 
z
" transform="scale(0.015625)"/>
     </defs>
     <use xlink:href="#DejaVuSans-41"/>
     <use xlink:href="#DejaVuSans-6c" x="68.408203"/>
     <use xlink:href="#DejaVuSans-6c" x="96.191406"/>
     <use xlink:href="#DejaVuSans-20" x="123.974609"/>
     <use xlink:href="#DejaVuSans-6d" x="155.761719"/>
     <use xlink:href="#DejaVuSans-6f" x="253.173828"/>
     <use xlink:href="#DejaVuSans-64" x="314.355469"/>
     <use xlink:href="#DejaVuSans-75" x="377.832031"/>
     <use xlink:href="#DejaVuSans-6c" x="441.210938"/>
     <use xlink:href="#DejaVuSans-65" x="468.994141"/>
     <use xlink:href="#DejaVuSans-73" x="530.517578"/>
     <use xlink:href="#DejaVuSans-2c" x="582.617188"/>
     <use xlink:href="#DejaVuSans-20" x="614.404297"/>
     <use xlink:href="#DejaVuSans-69" x="646.191406"/>
     <use xlink:href="#DejaVuSans-6e" x="673.974609"/>
     <use xlink:href="#DejaVuSans-63" x="737.353516"/>
     <use xlink:href="#DejaVuSans-6c" x="792.333984"/>
     <use xlink:href="#DejaVuSans-75" x="820.117188"/>
     <use xlink:href="#DejaVuSans-64" x="883.496094"/>
     <use xlink:href="#DejaVuSans-69" x="946.972656"/>
     <use xlink:href="#DejaVuSans-6e" x="974.755859"/>
     <use xlink:href="#DejaVuSans-67" x="1038.134766"/>
     <use xlink:href="#DejaVuSans-20" x="1101.611328"/>
     <use xlink:href="#DejaVuSans-6e" x="1133.398438"/>
     <use xlink:href="#DejaVuSans-6f" x="1196.777344"/>
     <use xlink:href="#DejaVuSans-6e" x="1257.958984"/>
     <use xlink:href="#DejaVuSans-2d" x="1321.337891"/>
     <use xlink:href="#DejaVuSans-6f" x="1359.296875"/>
     <use xlink:href="#DejaVuSans-70" x="1420.478516"/>
     <use xlink:href="#DejaVuSans-74" x="1483.955078"/>
     <use xlink:href="#DejaVuSans-69" x="1523.164062"/>
     <use xlink:href="#DejaVuSans-6d" x="1550.947266"/>
     <use xlink:href="#DejaVuSans-61" x="1648.359375"/>
     <use xlink:href="#DejaVuSans-6c" x="1709.638672"/>
    </g>
   </g>
   <g id="legend_1">
    <g id="patch_7">
     <path d="M 486.19875 508.6 
L 700.8 508.6 
Q 703.2 508.6 703.2 506.2 
L 703.2 421.266875 
Q 703.2 418.866875 700.8 418.866875 
L 486.19875 418.866875 
Q 483.79875 418.866875 483.79875 421.266875 
L 483.79875 506.2 
Q 483.79875 508.6 486.19875 508.6 
z
" style="fill: #ffffff; opacity: 0.8; stroke: #cccccc; stroke-linejoin: miter"/>
    </g>
    <g id="text_15">
     <!-- Legend -->
     <g transform="translate(575.130625 431.265312) scale(0.1 -0.1)">
      <defs>
       <path id="DejaVuSans-4c" d="M 628 4666 
L 1259 4666 
L 1259 531 
L 3531 531 
L 3531 0 
L 628 0 
L 628 4666 
z
" transform="scale(0.015625)"/>
      </defs>
      <use xlink:href="#DejaVuSans-4c"/>
      <use xlink:href="#DejaVuSans-65" x="53.962891"/>
      <use xlink:href="#DejaVuSans-67" x="115.486328"/>
      <use xlink:href="#DejaVuSans-65" x="178.962891"/>
      <use xlink:href="#DejaVuSans-6e" x="240.486328"/>
      <use xlink:href="#DejaVuSans-64" x="303.865234"/>
     </g>
    </g>
    <g id="PathCollection_3">
     <g>
      <use xlink:href="#m66cf57c87d" x="500.59875" y="445.313125" style="fill: #e41a1c; fill-opacity: 0.7; stroke: #ffffff; stroke-opacity: 0.7; stroke-width: 0.48"/>
     </g>
    </g>
    <g id="text_16">
     <!-- X Surface Area (mm) -->
     <g transform="translate(522.19875 448.463125) scale(0.12 -0.12)">
      <use xlink:href="#DejaVuSans-58"/>
      <use xlink:href="#DejaVuSans-20" x="68.505859"/>
      <use xlink:href="#DejaVuSans-53" x="100.292969"/>
      <use xlink:href="#DejaVuSans-75" x="163.769531"/>
      <use xlink:href="#DejaVuSans-72" x="227.148438"/>
      <use xlink:href="#DejaVuSans-66" x="268.261719"/>
      <use xlink:href="#DejaVuSans-61" x="303.466797"/>
      <use xlink:href="#DejaVuSans-63" x="364.746094"/>
      <use xlink:href="#DejaVuSans-65" x="419.726562"/>
      <use xlink:href="#DejaVuSans-20" x="481.25"/>
      <use xlink:href="#DejaVuSans-41" x="513.037109"/>
      <use xlink:href="#DejaVuSans-72" x="581.445312"/>
      <use xlink:href="#DejaVuSans-65" x="620.308594"/>
      <use xlink:href="#DejaVuSans-61" x="681.832031"/>
      <use xlink:href="#DejaVuSans-20" x="743.111328"/>
      <use xlink:href="#DejaVuSans-28" x="774.898438"/>
      <use xlink:href="#DejaVuSans-6d" x="813.912109"/>
      <use xlink:href="#DejaVuSans-6d" x="911.324219"/>
      <use xlink:href="#DejaVuSans-29" x="1008.736328"/>
     </g>
    </g>
    <g id="line2d_25">
     <path d="M 488.59875 461.876875 
L 500.59875 461.876875 
L 512.59875 461.876875 
" style="fill: none; stroke-dasharray: 8.325,3.6; stroke-dashoffset: 0; stroke: #e41a1c; stroke-width: 2.25"/>
    </g>
    <g id="text_17">
     <!-- Linear (X Surface Area (mm)) -->
     <g transform="translate(522.19875 466.076875) scale(0.12 -0.12)">
      <use xlink:href="#DejaVuSans-4c"/>
      <use xlink:href="#DejaVuSans-69" x="55.712891"/>
      <use xlink:href="#DejaVuSans-6e" x="83.496094"/>
      <use xlink:href="#DejaVuSans-65" x="146.875"/>
      <use xlink:href="#DejaVuSans-61" x="208.398438"/>
      <use xlink:href="#DejaVuSans-72" x="269.677734"/>
      <use xlink:href="#DejaVuSans-20" x="310.791016"/>
      <use xlink:href="#DejaVuSans-28" x="342.578125"/>
      <use xlink:href="#DejaVuSans-58" x="381.591797"/>
      <use xlink:href="#DejaVuSans-20" x="450.097656"/>
      <use xlink:href="#DejaVuSans-53" x="481.884766"/>
      <use xlink:href="#DejaVuSans-75" x="545.361328"/>
      <use xlink:href="#DejaVuSans-72" x="608.740234"/>
      <use xlink:href="#DejaVuSans-66" x="649.853516"/>
      <use xlink:href="#DejaVuSans-61" x="685.058594"/>
      <use xlink:href="#DejaVuSans-63" x="746.337891"/>
      <use xlink:href="#DejaVuSans-65" x="801.318359"/>
      <use xlink:href="#DejaVuSans-20" x="862.841797"/>
      <use xlink:href="#DejaVuSans-41" x="894.628906"/>
      <use xlink:href="#DejaVuSans-72" x="963.037109"/>
      <use xlink:href="#DejaVuSans-65" x="1001.900391"/>
      <use xlink:href="#DejaVuSans-61" x="1063.423828"/>
      <use xlink:href="#DejaVuSans-20" x="1124.703125"/>
      <use xlink:href="#DejaVuSans-28" x="1156.490234"/>
      <use xlink:href="#DejaVuSans-6d" x="1195.503906"/>
      <use xlink:href="#DejaVuSans-6d" x="1292.916016"/>
      <use xlink:href="#DejaVuSans-29" x="1390.328125"/>
      <use xlink:href="#DejaVuSans-29" x="1429.341797"/>
     </g>
    </g>
    <g id="PathCollection_4">
     <g>
      <use xlink:href="#m5623dad89f" x="500.59875" y="480.540625" style="fill: #377eb8; fill-opacity: 0.7; stroke: #ffffff; stroke-opacity: 0.7; stroke-width: 0.48"/>
     </g>
    </g>
    <g id="text_18">
     <!-- Y Surface Area (mm) -->
     <g transform="translate(522.19875 483.690625) scale(0.12 -0.12)">
      <use xlink:href="#DejaVuSans-59"/>
      <use xlink:href="#DejaVuSans-20" x="61.083984"/>
      <use xlink:href="#DejaVuSans-53" x="92.871094"/>
      <use xlink:href="#DejaVuSans-75" x="156.347656"/>
      <use xlink:href="#DejaVuSans-72" x="219.726562"/>
      <use xlink:href="#DejaVuSans-66" x="260.839844"/>
      <use xlink:href="#DejaVuSans-61" x="296.044922"/>
      <use xlink:href="#DejaVuSans-63" x="357.324219"/>
      <use xlink:href="#DejaVuSans-65" x="412.304688"/>
      <use xlink:href="#DejaVuSans-20" x="473.828125"/>
      <use xlink:href="#DejaVuSans-41" x="505.615234"/>
      <use xlink:href="#DejaVuSans-72" x="574.023438"/>
      <use xlink:href="#DejaVuSans-65" x="612.886719"/>
      <use xlink:href="#DejaVuSans-61" x="674.410156"/>
      <use xlink:href="#DejaVuSans-20" x="735.689453"/>
      <use xlink:href="#DejaVuSans-28" x="767.476562"/>
      <use xlink:href="#DejaVuSans-6d" x="806.490234"/>
      <use xlink:href="#DejaVuSans-6d" x="903.902344"/>
      <use xlink:href="#DejaVuSans-29" x="1001.314453"/>
     </g>
    </g>
    <g id="line2d_26">
     <path d="M 488.59875 497.104375 
L 500.59875 497.104375 
L 512.59875 497.104375 
" style="fill: none; stroke-dasharray: 8.325,3.6; stroke-dashoffset: 0; stroke: #377eb8; stroke-width: 2.25"/>
    </g>
    <g id="text_19">
     <!-- Linear (Y Surface Area (mm)) -->
     <g transform="translate(522.19875 501.304375) scale(0.12 -0.12)">
      <use xlink:href="#DejaVuSans-4c"/>
      <use xlink:href="#DejaVuSans-69" x="55.712891"/>
      <use xlink:href="#DejaVuSans-6e" x="83.496094"/>
      <use xlink:href="#DejaVuSans-65" x="146.875"/>
      <use xlink:href="#DejaVuSans-61" x="208.398438"/>
      <use xlink:href="#DejaVuSans-72" x="269.677734"/>
      <use xlink:href="#DejaVuSans-20" x="310.791016"/>
      <use xlink:href="#DejaVuSans-28" x="342.578125"/>
      <use xlink:href="#DejaVuSans-59" x="381.591797"/>
      <use xlink:href="#DejaVuSans-20" x="442.675781"/>
      <use xlink:href="#DejaVuSans-53" x="474.462891"/>
      <use xlink:href="#DejaVuSans-75" x="537.939453"/>
      <use xlink:href="#DejaVuSans-72" x="601.318359"/>
      <use xlink:href="#DejaVuSans-66" x="642.431641"/>
      <use xlink:href="#DejaVuSans-61" x="677.636719"/>
      <use xlink:href="#DejaVuSans-63" x="738.916016"/>
      <use xlink:href="#DejaVuSans-65" x="793.896484"/>
      <use xlink:href="#DejaVuSans-20" x="855.419922"/>
      <use xlink:href="#DejaVuSans-41" x="887.207031"/>
      <use xlink:href="#DejaVuSans-72" x="955.615234"/>
      <use xlink:href="#DejaVuSans-65" x="994.478516"/>
      <use xlink:href="#DejaVuSans-61" x="1056.001953"/>
      <use xlink:href="#DejaVuSans-20" x="1117.28125"/>
      <use xlink:href="#DejaVuSans-28" x="1149.068359"/>
      <use xlink:href="#DejaVuSans-6d" x="1188.082031"/>
      <use xlink:href="#DejaVuSans-6d" x="1285.494141"/>
      <use xlink:href="#DejaVuSans-29" x="1382.90625"/>
      <use xlink:href="#DejaVuSans-29" x="1421.919922"/>
     </g>
    </g>
   </g>
  </g>
  <g id="text_20">
   <!-- Filters applied: Subject ID=All (1), Hemisphere=All (2), Task=All (5), -->
   <g transform="translate(190.042969 7.598438) scale(0.1 -0.1)">
    <defs>
     <path id="DejaVuSans-46" d="M 628 4666 
L 3309 4666 
L 3309 4134 
L 1259 4134 
L 1259 2759 
L 3109 2759 
L 3109 2228 
L 1259 2228 
L 1259 0 
L 628 0 
L 628 4666 
z
" transform="scale(0.015625)"/>
     <path id="DejaVuSans-62" d="M 3116 1747 
Q 3116 2381 2855 2742 
Q 2594 3103 2138 3103 
Q 1681 3103 1420 2742 
Q 1159 2381 1159 1747 
Q 1159 1113 1420 752 
Q 1681 391 2138 391 
Q 2594 391 2855 752 
Q 3116 1113 3116 1747 
z
M 1159 2969 
Q 1341 3281 1617 3432 
Q 1894 3584 2278 3584 
Q 2916 3584 3314 3078 
Q 3713 2572 3713 1747 
Q 3713 922 3314 415 
Q 2916 -91 2278 -91 
Q 1894 -91 1617 61 
Q 1341 213 1159 525 
L 1159 0 
L 581 0 
L 581 4863 
L 1159 4863 
L 1159 2969 
z
" transform="scale(0.015625)"/>
     <path id="DejaVuSans-6a" d="M 603 3500 
L 1178 3500 
L 1178 -63 
Q 1178 -731 923 -1031 
Q 669 -1331 103 -1331 
L -116 -1331 
L -116 -844 
L 38 -844 
Q 366 -844 484 -692 
Q 603 -541 603 -63 
L 603 3500 
z
M 603 4863 
L 1178 4863 
L 1178 4134 
L 603 4134 
L 603 4863 
z
" transform="scale(0.015625)"/>
     <path id="DejaVuSans-44" d="M 1259 4147 
L 1259 519 
L 2022 519 
Q 2988 519 3436 956 
Q 3884 1394 3884 2338 
Q 3884 3275 3436 3711 
Q 2988 4147 2022 4147 
L 1259 4147 
z
M 628 4666 
L 1925 4666 
Q 3281 4666 3915 4102 
Q 4550 3538 4550 2338 
Q 4550 1131 3912 565 
Q 3275 0 1925 0 
L 628 0 
L 628 4666 
z
" transform="scale(0.015625)"/>
     <path id="DejaVuSans-3d" d="M 678 2906 
L 4684 2906 
L 4684 2381 
L 678 2381 
L 678 2906 
z
M 678 1631 
L 4684 1631 
L 4684 1100 
L 678 1100 
L 678 1631 
z
" transform="scale(0.015625)"/>
     <path id="DejaVuSans-48" d="M 628 4666 
L 1259 4666 
L 1259 2753 
L 3553 2753 
L 3553 4666 
L 4184 4666 
L 4184 0 
L 3553 0 
L 3553 2222 
L 1259 2222 
L 1259 0 
L 628 0 
L 628 4666 
z
" transform="scale(0.015625)"/>
     <path id="DejaVuSans-6b" d="M 581 4863 
L 1159 4863 
L 1159 1991 
L 2875 3500 
L 3609 3500 
L 1753 1863 
L 3688 0 
L 2938 0 
L 1159 1709 
L 1159 0 
L 581 0 
L 581 4863 
z
" transform="scale(0.015625)"/>
    </defs>
    <use xlink:href="#DejaVuSans-46"/>
    <use xlink:href="#DejaVuSans-69" x="50.269531"/>
    <use xlink:href="#DejaVuSans-6c" x="78.052734"/>
    <use xlink:href="#DejaVuSans-74" x="105.835938"/>
    <use xlink:href="#DejaVuSans-65" x="145.044922"/>
    <use xlink:href="#DejaVuSans-72" x="206.568359"/>
    <use xlink:href="#DejaVuSans-73" x="247.681641"/>
    <use xlink:href="#DejaVuSans-20" x="299.78125"/>
    <use xlink:href="#DejaVuSans-61" x="331.568359"/>
    <use xlink:href="#DejaVuSans-70" x="392.847656"/>
    <use xlink:href="#DejaVuSans-70" x="456.324219"/>
    <use xlink:href="#DejaVuSans-6c" x="519.800781"/>
    <use xlink:href="#DejaVuSans-69" x="547.583984"/>
    <use xlink:href="#DejaVuSans-65" x="575.367188"/>
    <use xlink:href="#DejaVuSans-64" x="636.890625"/>
    <use xlink:href="#DejaVuSans-3a" x="700.367188"/>
    <use xlink:href="#DejaVuSans-20" x="734.058594"/>
    <use xlink:href="#DejaVuSans-53" x="765.845703"/>
    <use xlink:href="#DejaVuSans-75" x="829.322266"/>
    <use xlink:href="#DejaVuSans-62" x="892.701172"/>
    <use xlink:href="#DejaVuSans-6a" x="956.177734"/>
    <use xlink:href="#DejaVuSans-65" x="983.960938"/>
    <use xlink:href="#DejaVuSans-63" x="1045.484375"/>
    <use xlink:href="#DejaVuSans-74" x="1100.464844"/>
    <use xlink:href="#DejaVuSans-20" x="1139.673828"/>
    <use xlink:href="#DejaVuSans-49" x="1171.460938"/>
    <use xlink:href="#DejaVuSans-44" x="1200.953125"/>
    <use xlink:href="#DejaVuSans-3d" x="1277.955078"/>
    <use xlink:href="#DejaVuSans-41" x="1361.744141"/>
    <use xlink:href="#DejaVuSans-6c" x="1430.152344"/>
    <use xlink:href="#DejaVuSans-6c" x="1457.935547"/>
    <use xlink:href="#DejaVuSans-20" x="1485.71875"/>
    <use xlink:href="#DejaVuSans-28" x="1517.505859"/>
    <use xlink:href="#DejaVuSans-31" x="1556.519531"/>
    <use xlink:href="#DejaVuSans-29" x="1620.142578"/>
    <use xlink:href="#DejaVuSans-2c" x="1659.15625"/>
    <use xlink:href="#DejaVuSans-20" x="1690.943359"/>
    <use xlink:href="#DejaVuSans-48" x="1722.730469"/>
    <use xlink:href="#DejaVuSans-65" x="1797.925781"/>
    <use xlink:href="#DejaVuSans-6d" x="1859.449219"/>
    <use xlink:href="#DejaVuSans-69" x="1956.861328"/>
    <use xlink:href="#DejaVuSans-73" x="1984.644531"/>
    <use xlink:href="#DejaVuSans-70" x="2036.744141"/>
    <use xlink:href="#DejaVuSans-68" x="2100.220703"/>
    <use xlink:href="#DejaVuSans-65" x="2163.599609"/>
    <use xlink:href="#DejaVuSans-72" x="2225.123047"/>
    <use xlink:href="#DejaVuSans-65" x="2263.986328"/>
    <use xlink:href="#DejaVuSans-3d" x="2325.509766"/>
    <use xlink:href="#DejaVuSans-41" x="2409.298828"/>
    <use xlink:href="#DejaVuSans-6c" x="2477.707031"/>
    <use xlink:href="#DejaVuSans-6c" x="2505.490234"/>
    <use xlink:href="#DejaVuSans-20" x="2533.273438"/>
    <use xlink:href="#DejaVuSans-28" x="2565.060547"/>
    <use xlink:href="#DejaVuSans-32" x="2604.074219"/>
    <use xlink:href="#DejaVuSans-29" x="2667.697266"/>
    <use xlink:href="#DejaVuSans-2c" x="2706.710938"/>
    <use xlink:href="#DejaVuSans-20" x="2738.498047"/>
    <use xlink:href="#DejaVuSans-54" x="2770.285156"/>
    <use xlink:href="#DejaVuSans-61" x="2814.869141"/>
    <use xlink:href="#DejaVuSans-73" x="2876.148438"/>
    <use xlink:href="#DejaVuSans-6b" x="2928.248047"/>
    <use xlink:href="#DejaVuSans-3d" x="2986.158203"/>
    <use xlink:href="#DejaVuSans-41" x="3069.947266"/>
    <use xlink:href="#DejaVuSans-6c" x="3138.355469"/>
    <use xlink:href="#DejaVuSans-6c" x="3166.138672"/>
    <use xlink:href="#DejaVuSans-20" x="3193.921875"/>
    <use xlink:href="#DejaVuSans-28" x="3225.708984"/>
    <use xlink:href="#DejaVuSans-35" x="3264.722656"/>
    <use xlink:href="#DejaVuSans-29" x="3328.345703"/>
    <use xlink:href="#DejaVuSans-2c" x="3367.359375"/>
   </g>
   <!-- Statistical Test=['Normalized Mutual Information - X as Truth'], -->
   <g transform="translate(203.967969 18.79625) scale(0.1 -0.1)">
    <defs>
     <path id="DejaVuSans-5b" d="M 550 4863 
L 1875 4863 
L 1875 4416 
L 1125 4416 
L 1125 -397 
L 1875 -397 
L 1875 -844 
L 550 -844 
L 550 4863 
z
" transform="scale(0.015625)"/>
     <path id="DejaVuSans-27" d="M 1147 4666 
L 1147 2931 
L 616 2931 
L 616 4666 
L 1147 4666 
z
" transform="scale(0.015625)"/>
     <path id="DejaVuSans-5d" d="M 1947 4863 
L 1947 -844 
L 622 -844 
L 622 -397 
L 1369 -397 
L 1369 4416 
L 622 4416 
L 622 4863 
L 1947 4863 
z
" transform="scale(0.015625)"/>
    </defs>
    <use xlink:href="#DejaVuSans-53"/>
    <use xlink:href="#DejaVuSans-74" x="63.476562"/>
    <use xlink:href="#DejaVuSans-61" x="102.685547"/>
    <use xlink:href="#DejaVuSans-74" x="163.964844"/>
    <use xlink:href="#DejaVuSans-69" x="203.173828"/>
    <use xlink:href="#DejaVuSans-73" x="230.957031"/>
    <use xlink:href="#DejaVuSans-74" x="283.056641"/>
    <use xlink:href="#DejaVuSans-69" x="322.265625"/>
    <use xlink:href="#DejaVuSans-63" x="350.048828"/>
    <use xlink:href="#DejaVuSans-61" x="405.029297"/>
    <use xlink:href="#DejaVuSans-6c" x="466.308594"/>
    <use xlink:href="#DejaVuSans-20" x="494.091797"/>
    <use xlink:href="#DejaVuSans-54" x="525.878906"/>
    <use xlink:href="#DejaVuSans-65" x="569.962891"/>
    <use xlink:href="#DejaVuSans-73" x="631.486328"/>
    <use xlink:href="#DejaVuSans-74" x="683.585938"/>
    <use xlink:href="#DejaVuSans-3d" x="722.794922"/>
    <use xlink:href="#DejaVuSans-5b" x="806.583984"/>
    <use xlink:href="#DejaVuSans-27" x="845.597656"/>
    <use xlink:href="#DejaVuSans-4e" x="873.087891"/>
    <use xlink:href="#DejaVuSans-6f" x="947.892578"/>
    <use xlink:href="#DejaVuSans-72" x="1009.074219"/>
    <use xlink:href="#DejaVuSans-6d" x="1048.4375"/>
    <use xlink:href="#DejaVuSans-61" x="1145.849609"/>
    <use xlink:href="#DejaVuSans-6c" x="1207.128906"/>
    <use xlink:href="#DejaVuSans-69" x="1234.912109"/>
    <use xlink:href="#DejaVuSans-7a" x="1262.695312"/>
    <use xlink:href="#DejaVuSans-65" x="1315.185547"/>
    <use xlink:href="#DejaVuSans-64" x="1376.708984"/>
    <use xlink:href="#DejaVuSans-20" x="1440.185547"/>
    <use xlink:href="#DejaVuSans-4d" x="1471.972656"/>
    <use xlink:href="#DejaVuSans-75" x="1558.251953"/>
    <use xlink:href="#DejaVuSans-74" x="1621.630859"/>
    <use xlink:href="#DejaVuSans-75" x="1660.839844"/>
    <use xlink:href="#DejaVuSans-61" x="1724.21875"/>
    <use xlink:href="#DejaVuSans-6c" x="1785.498047"/>
    <use xlink:href="#DejaVuSans-20" x="1813.28125"/>
    <use xlink:href="#DejaVuSans-49" x="1845.068359"/>
    <use xlink:href="#DejaVuSans-6e" x="1874.560547"/>
    <use xlink:href="#DejaVuSans-66" x="1937.939453"/>
    <use xlink:href="#DejaVuSans-6f" x="1973.144531"/>
    <use xlink:href="#DejaVuSans-72" x="2034.326172"/>
    <use xlink:href="#DejaVuSans-6d" x="2073.689453"/>
    <use xlink:href="#DejaVuSans-61" x="2171.101562"/>
    <use xlink:href="#DejaVuSans-74" x="2232.380859"/>
    <use xlink:href="#DejaVuSans-69" x="2271.589844"/>
    <use xlink:href="#DejaVuSans-6f" x="2299.373047"/>
    <use xlink:href="#DejaVuSans-6e" x="2360.554688"/>
    <use xlink:href="#DejaVuSans-20" x="2423.933594"/>
    <use xlink:href="#DejaVuSans-2d" x="2455.720703"/>
    <use xlink:href="#DejaVuSans-20" x="2491.804688"/>
    <use xlink:href="#DejaVuSans-58" x="2523.591797"/>
    <use xlink:href="#DejaVuSans-20" x="2592.097656"/>
    <use xlink:href="#DejaVuSans-61" x="2623.884766"/>
    <use xlink:href="#DejaVuSans-73" x="2685.164062"/>
    <use xlink:href="#DejaVuSans-20" x="2737.263672"/>
    <use xlink:href="#DejaVuSans-54" x="2769.050781"/>
    <use xlink:href="#DejaVuSans-72" x="2815.384766"/>
    <use xlink:href="#DejaVuSans-75" x="2856.498047"/>
    <use xlink:href="#DejaVuSans-74" x="2919.876953"/>
    <use xlink:href="#DejaVuSans-68" x="2959.085938"/>
    <use xlink:href="#DejaVuSans-27" x="3022.464844"/>
    <use xlink:href="#DejaVuSans-5d" x="3049.955078"/>
    <use xlink:href="#DejaVuSans-2c" x="3088.96875"/>
   </g>
   <!-- Dataset=['cleaned_words_mapped'] -->
   <g transform="translate(269.453125 29.994063) scale(0.1 -0.1)">
    <defs>
     <path id="DejaVuSans-5f" d="M 3263 -1063 
L 3263 -1509 
L -63 -1509 
L -63 -1063 
L 3263 -1063 
z
" transform="scale(0.015625)"/>
     <path id="DejaVuSans-77" d="M 269 3500 
L 844 3500 
L 1563 769 
L 2278 3500 
L 2956 3500 
L 3675 769 
L 4391 3500 
L 4966 3500 
L 4050 0 
L 3372 0 
L 2619 2869 
L 1863 0 
L 1184 0 
L 269 3500 
z
" transform="scale(0.015625)"/>
    </defs>
    <use xlink:href="#DejaVuSans-44"/>
    <use xlink:href="#DejaVuSans-61" x="77.001953"/>
    <use xlink:href="#DejaVuSans-74" x="138.28125"/>
    <use xlink:href="#DejaVuSans-61" x="177.490234"/>
    <use xlink:href="#DejaVuSans-73" x="238.769531"/>
    <use xlink:href="#DejaVuSans-65" x="290.869141"/>
    <use xlink:href="#DejaVuSans-74" x="352.392578"/>
    <use xlink:href="#DejaVuSans-3d" x="391.601562"/>
    <use xlink:href="#DejaVuSans-5b" x="475.390625"/>
    <use xlink:href="#DejaVuSans-27" x="514.404297"/>
    <use xlink:href="#DejaVuSans-63" x="541.894531"/>
    <use xlink:href="#DejaVuSans-6c" x="596.875"/>
    <use xlink:href="#DejaVuSans-65" x="624.658203"/>
    <use xlink:href="#DejaVuSans-61" x="686.181641"/>
    <use xlink:href="#DejaVuSans-6e" x="747.460938"/>
    <use xlink:href="#DejaVuSans-65" x="810.839844"/>
    <use xlink:href="#DejaVuSans-64" x="872.363281"/>
    <use xlink:href="#DejaVuSans-5f" x="935.839844"/>
    <use xlink:href="#DejaVuSans-77" x="985.839844"/>
    <use xlink:href="#DejaVuSans-6f" x="1067.626953"/>
    <use xlink:href="#DejaVuSans-72" x="1128.808594"/>
    <use xlink:href="#DejaVuSans-64" x="1168.171875"/>
    <use xlink:href="#DejaVuSans-73" x="1231.648438"/>
    <use xlink:href="#DejaVuSans-5f" x="1283.748047"/>
    <use xlink:href="#DejaVuSans-6d" x="1333.748047"/>
    <use xlink:href="#DejaVuSans-61" x="1431.160156"/>
    <use xlink:href="#DejaVuSans-70" x="1492.439453"/>
    <use xlink:href="#DejaVuSans-70" x="1555.916016"/>
    <use xlink:href="#DejaVuSans-65" x="1619.392578"/>
    <use xlink:href="#DejaVuSans-64" x="1680.916016"/>
    <use xlink:href="#DejaVuSans-27" x="1744.392578"/>
    <use xlink:href="#DejaVuSans-5d" x="1771.882812"/>
   </g>
  </g>
 </g>
 <defs>
  <clipPath id="pf5c2865c5d">
   <rect x="51.32" y="106.03725" width="657.88" height="408.56275"/>
  </clipPath>
 </defs>
</svg>
