<?xml version="1.0" encoding="utf-8" standalone="no"?>
<!DOCTYPE svg PUBLIC "-//W3C//DTD SVG 1.1//EN"
  "http://www.w3.org/Graphics/SVG/1.1/DTD/svg11.dtd">
<svg xmlns:xlink="http://www.w3.org/1999/xlink" width="720pt" height="576pt" viewBox="0 0 720 576" xmlns="http://www.w3.org/2000/svg" version="1.1">
 <metadata>
  <rdf:RDF xmlns:dc="http://purl.org/dc/elements/1.1/" xmlns:cc="http://creativecommons.org/ns#" xmlns:rdf="http://www.w3.org/1999/02/22-rdf-syntax-ns#">
   <cc:Work>
    <dc:type rdf:resource="http://purl.org/dc/dcmitype/StillImage"/>
    <dc:date>2024-11-27T19:43:38.820796</dc:date>
    <dc:format>image/svg+xml</dc:format>
    <dc:creator>
     <cc:Agent>
      <dc:title>Matplotlib v3.9.2, https://matplotlib.org/</dc:title>
     </cc:Agent>
    </dc:creator>
   </cc:Work>
  </rdf:RDF>
 </metadata>
 <defs>
  <style type="text/css">*{stroke-linejoin: round; stroke-linecap: butt}</style>
 </defs>
 <g id="figure_1">
  <g id="patch_1">
   <path d="M 0 576 
L 720 576 
L 720 0 
L 0 0 
z
" style="fill: #ffffff"/>
  </g>
  <g id="axes_1">
   <g id="patch_2">
    <path d="M 51.32 514.6 
L 709.2 514.6 
L 709.2 106.03725 
L 51.32 106.03725 
z
" style="fill: #ffffff"/>
   </g>
   <g id="PathCollection_1">
    <defs>
     <path id="mff04c23a98" d="M 0 3 
C 0.795609 3 1.55874 2.683901 2.12132 2.12132 
C 2.683901 1.55874 3 0.795609 3 0 
C 3 -0.795609 2.683901 -1.55874 2.12132 -2.12132 
C 1.55874 -2.683901 0.795609 -3 0 -3 
C -0.795609 -3 -1.55874 -2.683901 -2.12132 -2.12132 
C -2.683901 -1.55874 -3 -0.795609 -3 0 
C -3 0.795609 -2.683901 1.55874 -2.12132 2.12132 
C -1.55874 2.683901 -0.795609 3 0 3 
z
" style="stroke: #ffffff; stroke-opacity: 0.7; stroke-width: 0.48"/>
    </defs>
    <g clip-path="url(#pf5f010e7f1)">
     <use xlink:href="#mff04c23a98" x="287.906182" y="124.608284" style="fill: #e41a1c; fill-opacity: 0.7; stroke: #ffffff; stroke-opacity: 0.7; stroke-width: 0.48"/>
     <use xlink:href="#mff04c23a98" x="136.073941" y="160.169351" style="fill: #e41a1c; fill-opacity: 0.7; stroke: #ffffff; stroke-opacity: 0.7; stroke-width: 0.48"/>
     <use xlink:href="#mff04c23a98" x="287.906182" y="187.721662" style="fill: #e41a1c; fill-opacity: 0.7; stroke: #ffffff; stroke-opacity: 0.7; stroke-width: 0.48"/>
     <use xlink:href="#mff04c23a98" x="287.906182" y="190.561114" style="fill: #e41a1c; fill-opacity: 0.7; stroke: #ffffff; stroke-opacity: 0.7; stroke-width: 0.48"/>
     <use xlink:href="#mff04c23a98" x="287.906182" y="218.602565" style="fill: #e41a1c; fill-opacity: 0.7; stroke: #ffffff; stroke-opacity: 0.7; stroke-width: 0.48"/>
     <use xlink:href="#mff04c23a98" x="136.073941" y="219.26428" style="fill: #e41a1c; fill-opacity: 0.7; stroke: #ffffff; stroke-opacity: 0.7; stroke-width: 0.48"/>
     <use xlink:href="#mff04c23a98" x="287.906182" y="228.283909" style="fill: #e41a1c; fill-opacity: 0.7; stroke: #ffffff; stroke-opacity: 0.7; stroke-width: 0.48"/>
     <use xlink:href="#mff04c23a98" x="673.323935" y="233.279378" style="fill: #e41a1c; fill-opacity: 0.7; stroke: #ffffff; stroke-opacity: 0.7; stroke-width: 0.48"/>
     <use xlink:href="#mff04c23a98" x="673.323935" y="262.267191" style="fill: #e41a1c; fill-opacity: 0.7; stroke: #ffffff; stroke-opacity: 0.7; stroke-width: 0.48"/>
     <use xlink:href="#mff04c23a98" x="227.862753" y="269.239608" style="fill: #e41a1c; fill-opacity: 0.7; stroke: #ffffff; stroke-opacity: 0.7; stroke-width: 0.48"/>
     <use xlink:href="#mff04c23a98" x="136.073941" y="293.856364" style="fill: #e41a1c; fill-opacity: 0.7; stroke: #ffffff; stroke-opacity: 0.7; stroke-width: 0.48"/>
     <use xlink:href="#mff04c23a98" x="673.323935" y="296.512327" style="fill: #e41a1c; fill-opacity: 0.7; stroke: #ffffff; stroke-opacity: 0.7; stroke-width: 0.48"/>
     <use xlink:href="#mff04c23a98" x="673.323935" y="348.644632" style="fill: #e41a1c; fill-opacity: 0.7; stroke: #ffffff; stroke-opacity: 0.7; stroke-width: 0.48"/>
     <use xlink:href="#mff04c23a98" x="146.40801" y="376.510501" style="fill: #e41a1c; fill-opacity: 0.7; stroke: #ffffff; stroke-opacity: 0.7; stroke-width: 0.48"/>
     <use xlink:href="#mff04c23a98" x="227.862753" y="414.112397" style="fill: #e41a1c; fill-opacity: 0.7; stroke: #ffffff; stroke-opacity: 0.7; stroke-width: 0.48"/>
     <use xlink:href="#mff04c23a98" x="679.296364" y="429.481225" style="fill: #e41a1c; fill-opacity: 0.7; stroke: #ffffff; stroke-opacity: 0.7; stroke-width: 0.48"/>
     <use xlink:href="#mff04c23a98" x="679.296364" y="439.307248" style="fill: #e41a1c; fill-opacity: 0.7; stroke: #ffffff; stroke-opacity: 0.7; stroke-width: 0.48"/>
     <use xlink:href="#mff04c23a98" x="673.323935" y="496.028966" style="fill: #e41a1c; fill-opacity: 0.7; stroke: #ffffff; stroke-opacity: 0.7; stroke-width: 0.48"/>
    </g>
   </g>
   <g id="PolyCollection_1">
    <path d="M 136.073941 160.185255 
L 136.073941 296.402735 
L 141.561036 296.693669 
L 147.048131 296.387871 
L 152.535226 296.291356 
L 158.022321 296.757404 
L 163.509417 297.223452 
L 168.996512 297.689501 
L 174.483607 299.120405 
L 179.970702 299.373053 
L 185.457797 299.516698 
L 190.944892 299.649851 
L 196.431988 299.99915 
L 201.919083 300.470359 
L 207.406178 300.941569 
L 212.893273 301.472342 
L 218.380368 302.398096 
L 223.867464 302.903266 
L 229.354559 303.433358 
L 234.841654 304.465171 
L 240.328749 305.105103 
L 245.815844 305.949114 
L 251.302939 306.339271 
L 256.790035 306.955704 
L 262.27713 307.999359 
L 267.764225 308.842454 
L 273.25132 309.663001 
L 278.738415 309.981735 
L 284.225511 310.864794 
L 289.712606 312.084463 
L 295.199701 313.504982 
L 300.686796 314.916039 
L 306.173891 316.256717 
L 311.660986 316.700462 
L 317.148082 317.021039 
L 322.635177 317.761041 
L 328.122272 318.375504 
L 333.609367 319.27328 
L 339.096462 319.925581 
L 344.583558 321.448124 
L 350.070653 322.54324 
L 355.557748 322.956752 
L 361.044843 324.107941 
L 366.531938 325.081786 
L 372.019033 327.134017 
L 377.506129 327.776842 
L 382.993224 328.491066 
L 388.480319 330.006517 
L 393.967414 332.003609 
L 399.454509 332.721199 
L 404.941605 333.328617 
L 410.4287 334.484657 
L 415.915795 335.698026 
L 421.40289 336.899186 
L 426.889985 337.901957 
L 432.37708 339.508475 
L 437.864176 340.79569 
L 443.351271 341.761079 
L 448.838366 343.312686 
L 454.325461 345.205604 
L 459.812556 347.098522 
L 465.299652 348.99144 
L 470.786747 350.884358 
L 476.273842 352.777276 
L 481.760937 354.37002 
L 487.248032 355.333107 
L 492.735127 357.458047 
L 498.222223 359.302499 
L 503.709318 360.499564 
L 509.196413 362.296882 
L 514.683508 364.171985 
L 520.170603 365.385458 
L 525.657699 367.016054 
L 531.144794 369.15876 
L 536.631889 370.646749 
L 542.118984 372.042522 
L 547.606079 373.461157 
L 553.093174 375.364891 
L 558.58027 377.267743 
L 564.067365 379.170595 
L 569.55446 381.07247 
L 575.041555 382.966728 
L 580.52865 384.860987 
L 586.015746 386.625599 
L 591.502841 388.674427 
L 596.989936 390.587707 
L 602.477031 392.490559 
L 607.964126 394.335421 
L 613.451221 396.050449 
L 618.938317 397.762372 
L 624.425412 399.331814 
L 629.912507 400.995999 
L 635.399602 402.889382 
L 640.886697 404.631637 
L 646.373793 406.314632 
L 651.860888 408.525006 
L 657.347983 410.567322 
L 662.835078 412.733691 
L 668.322173 415.243929 
L 673.809268 417.300415 
L 679.296364 419.501828 
L 679.296364 276.981692 
L 679.296364 276.981692 
L 673.809268 276.798954 
L 668.322173 276.616216 
L 662.835078 276.42193 
L 657.347983 275.875855 
L 651.860888 275.726453 
L 646.373793 275.405403 
L 640.886697 275.451754 
L 635.399602 275.172323 
L 629.912507 274.516905 
L 624.425412 273.944465 
L 618.938317 273.577364 
L 613.451221 273.211025 
L 607.964126 272.467446 
L 602.477031 271.721273 
L 596.989936 270.962795 
L 591.502841 270.134629 
L 586.015746 269.460894 
L 580.52865 268.816818 
L 575.041555 268.384312 
L 569.55446 267.961521 
L 564.067365 267.385837 
L 558.58027 266.926354 
L 553.093174 266.603727 
L 547.606079 266.270355 
L 542.118984 265.889525 
L 536.631889 265.434618 
L 531.144794 265.19056 
L 525.657699 264.841078 
L 520.170603 264.138858 
L 514.683508 263.702504 
L 509.196413 262.513287 
L 503.709318 261.826674 
L 498.222223 261.444421 
L 492.735127 260.748776 
L 487.248032 259.782449 
L 481.760937 258.988317 
L 476.273842 258.000166 
L 470.786747 256.681987 
L 465.299652 255.363809 
L 459.812556 254.12816 
L 454.325461 252.910698 
L 448.838366 252.002447 
L 443.351271 251.643429 
L 437.864176 250.527841 
L 432.37708 248.994365 
L 426.889985 248.317529 
L 421.40289 247.476615 
L 415.915795 246.622776 
L 410.4287 245.865023 
L 404.941605 244.672984 
L 399.454509 243.80915 
L 393.967414 243.063191 
L 388.480319 242.860664 
L 382.993224 241.563083 
L 377.506129 240.430453 
L 372.019033 238.773184 
L 366.531938 237.128713 
L 361.044843 235.459488 
L 355.557748 233.999199 
L 350.070653 232.67723 
L 344.583558 231.041415 
L 339.096462 229.100811 
L 333.609367 227.138185 
L 328.122272 225.476884 
L 322.635177 224.416833 
L 317.148082 223.674002 
L 311.660986 221.775972 
L 306.173891 221.297932 
L 300.686796 219.391886 
L 295.199701 217.577041 
L 289.712606 215.540772 
L 284.225511 213.600493 
L 278.738415 211.450381 
L 273.25132 209.772464 
L 267.764225 207.813157 
L 262.27713 205.930399 
L 256.790035 204.013205 
L 251.302939 202.092466 
L 245.815844 199.843018 
L 240.328749 197.56631 
L 234.841654 195.462175 
L 229.354559 193.272634 
L 223.867464 191.141222 
L 218.380368 189.218937 
L 212.893273 187.302429 
L 207.406178 185.391906 
L 201.919083 183.108544 
L 196.431988 180.988301 
L 190.944892 178.891851 
L 185.457797 177.02254 
L 179.970702 175.153228 
L 174.483607 173.287259 
L 168.996512 171.432866 
L 163.509417 169.627019 
L 158.022321 168.099633 
L 152.535226 166.204921 
L 147.048131 164.069068 
L 141.561036 162.12028 
L 136.073941 160.185255 
z
" clip-path="url(#pf5f010e7f1)" style="fill: #e41a1c; fill-opacity: 0.15"/>
   </g>
   <g id="PathCollection_2">
    <defs>
     <path id="m79b4183073" d="M 0 3 
C 0.795609 3 1.55874 2.683901 2.12132 2.12132 
C 2.683901 1.55874 3 0.795609 3 0 
C 3 -0.795609 2.683901 -1.55874 2.12132 -2.12132 
C 1.55874 -2.683901 0.795609 -3 0 -3 
C -0.795609 -3 -1.55874 -2.683901 -2.12132 -2.12132 
C -2.683901 -1.55874 -3 -0.795609 -3 0 
C -3 0.795609 -2.683901 1.55874 -2.12132 2.12132 
C -1.55874 2.683901 -0.795609 3 0 3 
z
" style="stroke: #ffffff; stroke-opacity: 0.7; stroke-width: 0.48"/>
    </defs>
    <g clip-path="url(#pf5f010e7f1)">
     <use xlink:href="#m79b4183073" x="225.87499" y="124.608284" style="fill: #377eb8; fill-opacity: 0.7; stroke: #ffffff; stroke-opacity: 0.7; stroke-width: 0.48"/>
     <use xlink:href="#m79b4183073" x="100.273748" y="160.169351" style="fill: #377eb8; fill-opacity: 0.7; stroke: #ffffff; stroke-opacity: 0.7; stroke-width: 0.48"/>
     <use xlink:href="#m79b4183073" x="209.094564" y="187.721662" style="fill: #377eb8; fill-opacity: 0.7; stroke: #ffffff; stroke-opacity: 0.7; stroke-width: 0.48"/>
     <use xlink:href="#m79b4183073" x="207.844317" y="190.561114" style="fill: #377eb8; fill-opacity: 0.7; stroke: #ffffff; stroke-opacity: 0.7; stroke-width: 0.48"/>
     <use xlink:href="#m79b4183073" x="209.943314" y="218.602565" style="fill: #377eb8; fill-opacity: 0.7; stroke: #ffffff; stroke-opacity: 0.7; stroke-width: 0.48"/>
     <use xlink:href="#m79b4183073" x="88.203197" y="219.26428" style="fill: #377eb8; fill-opacity: 0.7; stroke: #ffffff; stroke-opacity: 0.7; stroke-width: 0.48"/>
     <use xlink:href="#m79b4183073" x="201.723611" y="228.283909" style="fill: #377eb8; fill-opacity: 0.7; stroke: #ffffff; stroke-opacity: 0.7; stroke-width: 0.48"/>
     <use xlink:href="#m79b4183073" x="523.429252" y="233.279378" style="fill: #377eb8; fill-opacity: 0.7; stroke: #ffffff; stroke-opacity: 0.7; stroke-width: 0.48"/>
     <use xlink:href="#m79b4183073" x="498.279318" y="262.267191" style="fill: #377eb8; fill-opacity: 0.7; stroke: #ffffff; stroke-opacity: 0.7; stroke-width: 0.48"/>
     <use xlink:href="#m79b4183073" x="147.470127" y="269.239608" style="fill: #377eb8; fill-opacity: 0.7; stroke: #ffffff; stroke-opacity: 0.7; stroke-width: 0.48"/>
     <use xlink:href="#m79b4183073" x="83.92528" y="293.856364" style="fill: #377eb8; fill-opacity: 0.7; stroke: #ffffff; stroke-opacity: 0.7; stroke-width: 0.48"/>
     <use xlink:href="#m79b4183073" x="641.131582" y="296.512327" style="fill: #377eb8; fill-opacity: 0.7; stroke: #ffffff; stroke-opacity: 0.7; stroke-width: 0.48"/>
     <use xlink:href="#m79b4183073" x="402.864245" y="348.644632" style="fill: #377eb8; fill-opacity: 0.7; stroke: #ffffff; stroke-opacity: 0.7; stroke-width: 0.48"/>
     <use xlink:href="#m79b4183073" x="81.223636" y="376.510501" style="fill: #377eb8; fill-opacity: 0.7; stroke: #ffffff; stroke-opacity: 0.7; stroke-width: 0.48"/>
     <use xlink:href="#m79b4183073" x="100.952497" y="414.112397" style="fill: #377eb8; fill-opacity: 0.7; stroke: #ffffff; stroke-opacity: 0.7; stroke-width: 0.48"/>
     <use xlink:href="#m79b4183073" x="474.430852" y="429.481225" style="fill: #377eb8; fill-opacity: 0.7; stroke: #ffffff; stroke-opacity: 0.7; stroke-width: 0.48"/>
     <use xlink:href="#m79b4183073" x="150.464674" y="439.307248" style="fill: #377eb8; fill-opacity: 0.7; stroke: #ffffff; stroke-opacity: 0.7; stroke-width: 0.48"/>
     <use xlink:href="#m79b4183073" x="117.846053" y="496.028966" style="fill: #377eb8; fill-opacity: 0.7; stroke: #ffffff; stroke-opacity: 0.7; stroke-width: 0.48"/>
    </g>
   </g>
   <g id="PolyCollection_2">
    <path d="M 81.223636 218.001541 
L 81.223636 359.917349 
L 86.879272 359.367849 
L 92.534908 357.781245 
L 98.190544 357.150855 
L 103.84618 355.996482 
L 109.501815 354.721103 
L 115.157451 353.585562 
L 120.813087 352.724481 
L 126.468723 352.125869 
L 132.124359 351.216102 
L 137.779994 350.632382 
L 143.43563 348.801678 
L 149.091266 347.183517 
L 154.746902 346.036495 
L 160.402538 345.729931 
L 166.058174 345.423367 
L 171.713809 345.114473 
L 177.369445 344.520676 
L 183.025081 343.770273 
L 188.680717 342.682275 
L 194.336353 341.386648 
L 199.991988 340.838726 
L 205.647624 340.354994 
L 211.30326 339.861146 
L 216.958896 339.255102 
L 222.614532 338.884145 
L 228.270168 339.004715 
L 233.925803 339.186589 
L 239.581439 338.938807 
L 245.237075 338.407881 
L 250.892711 337.725021 
L 256.548347 337.83348 
L 262.203982 338.050971 
L 267.859618 337.612935 
L 273.515254 337.161553 
L 279.17089 336.706063 
L 284.826526 336.241457 
L 290.482161 336.126631 
L 296.137797 335.363133 
L 301.793433 335.459742 
L 307.449069 334.692347 
L 313.104705 334.773174 
L 318.760341 335.166922 
L 324.415976 334.079511 
L 330.071612 333.83228 
L 335.727248 334.464961 
L 341.382884 334.731126 
L 347.03852 334.398213 
L 352.694155 333.933935 
L 358.349791 334.062216 
L 364.005427 334.569452 
L 369.661063 334.522897 
L 375.316699 335.195831 
L 380.972334 336.570002 
L 386.62797 337.487129 
L 392.283606 338.136119 
L 397.939242 337.621512 
L 403.594878 337.903329 
L 409.250514 338.719945 
L 414.906149 340.025545 
L 420.561785 341.3088 
L 426.217421 342.19315 
L 431.873057 342.693004 
L 437.528693 343.350855 
L 443.184328 343.710942 
L 448.839964 344.22794 
L 454.4956 344.739739 
L 460.151236 346.826726 
L 465.806872 348.332748 
L 471.462507 348.629844 
L 477.118143 349.912667 
L 482.773779 350.476543 
L 488.429415 350.742856 
L 494.085051 351.327915 
L 499.740687 352.660465 
L 505.396322 353.993014 
L 511.051958 354.959338 
L 516.707594 355.661358 
L 522.36323 356.363379 
L 528.018866 357.523661 
L 533.674501 358.698273 
L 539.330137 359.872885 
L 544.985773 361.044878 
L 550.641409 362.198303 
L 556.297045 363.351727 
L 561.952681 364.505152 
L 567.608316 365.33453 
L 573.263952 366.29465 
L 578.919588 368.008192 
L 584.575224 369.00302 
L 590.23086 369.727883 
L 595.886495 371.001636 
L 601.542131 372.295064 
L 607.197767 373.586576 
L 612.853403 374.504451 
L 618.509039 375.638628 
L 624.164674 376.574836 
L 629.82031 377.492322 
L 635.475946 378.11804 
L 641.131582 379.229356 
L 641.131582 164.872811 
L 641.131582 164.872811 
L 635.475946 166.260415 
L 629.82031 167.699761 
L 624.164674 169.571567 
L 618.509039 171.443373 
L 612.853403 173.318899 
L 607.197767 175.203408 
L 601.542131 176.914384 
L 595.886495 178.00427 
L 590.23086 179.462088 
L 584.575224 181.327144 
L 578.919588 183.192201 
L 573.263952 185.057257 
L 567.608316 186.942943 
L 561.952681 188.828907 
L 556.297045 190.71487 
L 550.641409 192.317265 
L 544.985773 193.437626 
L 539.330137 194.557988 
L 533.674501 195.67835 
L 528.018866 197.509357 
L 522.36323 199.394996 
L 516.707594 201.280635 
L 511.051958 203.172627 
L 505.396322 204.226693 
L 499.740687 205.221955 
L 494.085051 206.217216 
L 488.429415 208.150684 
L 482.773779 210.086097 
L 477.118143 211.837551 
L 471.462507 212.756532 
L 465.806872 213.675512 
L 460.151236 214.607215 
L 454.4956 215.23879 
L 448.839964 215.822804 
L 443.184328 217.382091 
L 437.528693 218.288215 
L 431.873057 219.194339 
L 426.217421 220.116506 
L 420.561785 221.047434 
L 414.906149 221.978361 
L 409.250514 222.591489 
L 403.594878 223.653231 
L 397.939242 224.118423 
L 392.283606 225.471556 
L 386.62797 226.427287 
L 380.972334 227.032384 
L 375.316699 227.650873 
L 369.661063 228.380933 
L 364.005427 229.463254 
L 358.349791 230.148131 
L 352.694155 231.747589 
L 347.03852 232.432463 
L 341.382884 233.117336 
L 335.727248 234.068131 
L 330.071612 234.463948 
L 324.415976 235.328075 
L 318.760341 236.174721 
L 313.104705 236.584234 
L 307.449069 237.159097 
L 301.793433 237.836688 
L 296.137797 237.696369 
L 290.482161 236.990767 
L 284.826526 236.90904 
L 279.17089 237.444757 
L 273.515254 237.466507 
L 267.859618 238.570868 
L 262.203982 238.756089 
L 256.548347 238.729866 
L 250.892711 239.24974 
L 245.237075 239.046516 
L 239.581439 238.350542 
L 233.925803 237.992493 
L 228.270168 237.798545 
L 222.614532 237.598932 
L 216.958896 236.879 
L 211.30326 237.201308 
L 205.647624 236.988845 
L 199.991988 236.471279 
L 194.336353 236.246226 
L 188.680717 235.466927 
L 183.025081 235.390096 
L 177.369445 234.167641 
L 171.713809 233.839416 
L 166.058174 232.731302 
L 160.402538 231.807573 
L 154.746902 231.041165 
L 149.091266 229.452389 
L 143.43563 228.221689 
L 137.779994 227.809097 
L 132.124359 227.039107 
L 126.468723 225.888877 
L 120.813087 224.718714 
L 115.157451 223.57128 
L 109.501815 222.426396 
L 103.84618 221.50854 
L 98.190544 220.741567 
L 92.534908 219.974594 
L 86.879272 219.197201 
L 81.223636 218.001541 
z
" clip-path="url(#pf5f010e7f1)" style="fill: #377eb8; fill-opacity: 0.15"/>
   </g>
   <g id="matplotlib.axis_1">
    <g id="xtick_1">
     <g id="line2d_1">
      <path d="M 178.557964 514.6 
L 178.557964 106.03725 
" clip-path="url(#pf5f010e7f1)" style="fill: none; stroke-dasharray: 2.96,1.28; stroke-dashoffset: 0; stroke: #b0b0b0; stroke-opacity: 0.6; stroke-width: 0.8"/>
     </g>
     <g id="line2d_2">
      <defs>
       <path id="m28a343730d" d="M 0 0 
L 0 3.5 
" style="stroke: #000000; stroke-width: 0.8"/>
      </defs>
      <g>
       <use xlink:href="#m28a343730d" x="178.557964" y="514.6" style="stroke: #000000; stroke-width: 0.8"/>
      </g>
     </g>
     <g id="text_1">
      <!-- 500 -->
      <g transform="translate(169.014214 529.198437) scale(0.1 -0.1)">
       <defs>
        <path id="DejaVuSans-35" d="M 691 4666 
L 3169 4666 
L 3169 4134 
L 1269 4134 
L 1269 2991 
Q 1406 3038 1543 3061 
Q 1681 3084 1819 3084 
Q 2600 3084 3056 2656 
Q 3513 2228 3513 1497 
Q 3513 744 3044 326 
Q 2575 -91 1722 -91 
Q 1428 -91 1123 -41 
Q 819 9 494 109 
L 494 744 
Q 775 591 1075 516 
Q 1375 441 1709 441 
Q 2250 441 2565 725 
Q 2881 1009 2881 1497 
Q 2881 1984 2565 2268 
Q 2250 2553 1709 2553 
Q 1456 2553 1204 2497 
Q 953 2441 691 2322 
L 691 4666 
z
" transform="scale(0.015625)"/>
        <path id="DejaVuSans-30" d="M 2034 4250 
Q 1547 4250 1301 3770 
Q 1056 3291 1056 2328 
Q 1056 1369 1301 889 
Q 1547 409 2034 409 
Q 2525 409 2770 889 
Q 3016 1369 3016 2328 
Q 3016 3291 2770 3770 
Q 2525 4250 2034 4250 
z
M 2034 4750 
Q 2819 4750 3233 4129 
Q 3647 3509 3647 2328 
Q 3647 1150 3233 529 
Q 2819 -91 2034 -91 
Q 1250 -91 836 529 
Q 422 1150 422 2328 
Q 422 3509 836 4129 
Q 1250 4750 2034 4750 
z
" transform="scale(0.015625)"/>
       </defs>
       <use xlink:href="#DejaVuSans-35"/>
       <use xlink:href="#DejaVuSans-30" x="63.623047"/>
       <use xlink:href="#DejaVuSans-30" x="127.246094"/>
      </g>
     </g>
    </g>
    <g id="xtick_2">
     <g id="line2d_3">
      <path d="M 319.461465 514.6 
L 319.461465 106.03725 
" clip-path="url(#pf5f010e7f1)" style="fill: none; stroke-dasharray: 2.96,1.28; stroke-dashoffset: 0; stroke: #b0b0b0; stroke-opacity: 0.6; stroke-width: 0.8"/>
     </g>
     <g id="line2d_4">
      <g>
       <use xlink:href="#m28a343730d" x="319.461465" y="514.6" style="stroke: #000000; stroke-width: 0.8"/>
      </g>
     </g>
     <g id="text_2">
      <!-- 1000 -->
      <g transform="translate(306.736465 529.198437) scale(0.1 -0.1)">
       <defs>
        <path id="DejaVuSans-31" d="M 794 531 
L 1825 531 
L 1825 4091 
L 703 3866 
L 703 4441 
L 1819 4666 
L 2450 4666 
L 2450 531 
L 3481 531 
L 3481 0 
L 794 0 
L 794 531 
z
" transform="scale(0.015625)"/>
       </defs>
       <use xlink:href="#DejaVuSans-31"/>
       <use xlink:href="#DejaVuSans-30" x="63.623047"/>
       <use xlink:href="#DejaVuSans-30" x="127.246094"/>
       <use xlink:href="#DejaVuSans-30" x="190.869141"/>
      </g>
     </g>
    </g>
    <g id="xtick_3">
     <g id="line2d_5">
      <path d="M 460.364965 514.6 
L 460.364965 106.03725 
" clip-path="url(#pf5f010e7f1)" style="fill: none; stroke-dasharray: 2.96,1.28; stroke-dashoffset: 0; stroke: #b0b0b0; stroke-opacity: 0.6; stroke-width: 0.8"/>
     </g>
     <g id="line2d_6">
      <g>
       <use xlink:href="#m28a343730d" x="460.364965" y="514.6" style="stroke: #000000; stroke-width: 0.8"/>
      </g>
     </g>
     <g id="text_3">
      <!-- 1500 -->
      <g transform="translate(447.639965 529.198437) scale(0.1 -0.1)">
       <use xlink:href="#DejaVuSans-31"/>
       <use xlink:href="#DejaVuSans-35" x="63.623047"/>
       <use xlink:href="#DejaVuSans-30" x="127.246094"/>
       <use xlink:href="#DejaVuSans-30" x="190.869141"/>
      </g>
     </g>
    </g>
    <g id="xtick_4">
     <g id="line2d_7">
      <path d="M 601.268465 514.6 
L 601.268465 106.03725 
" clip-path="url(#pf5f010e7f1)" style="fill: none; stroke-dasharray: 2.96,1.28; stroke-dashoffset: 0; stroke: #b0b0b0; stroke-opacity: 0.6; stroke-width: 0.8"/>
     </g>
     <g id="line2d_8">
      <g>
       <use xlink:href="#m28a343730d" x="601.268465" y="514.6" style="stroke: #000000; stroke-width: 0.8"/>
      </g>
     </g>
     <g id="text_4">
      <!-- 2000 -->
      <g transform="translate(588.543465 529.198437) scale(0.1 -0.1)">
       <defs>
        <path id="DejaVuSans-32" d="M 1228 531 
L 3431 531 
L 3431 0 
L 469 0 
L 469 531 
Q 828 903 1448 1529 
Q 2069 2156 2228 2338 
Q 2531 2678 2651 2914 
Q 2772 3150 2772 3378 
Q 2772 3750 2511 3984 
Q 2250 4219 1831 4219 
Q 1534 4219 1204 4116 
Q 875 4013 500 3803 
L 500 4441 
Q 881 4594 1212 4672 
Q 1544 4750 1819 4750 
Q 2544 4750 2975 4387 
Q 3406 4025 3406 3419 
Q 3406 3131 3298 2873 
Q 3191 2616 2906 2266 
Q 2828 2175 2409 1742 
Q 1991 1309 1228 531 
z
" transform="scale(0.015625)"/>
       </defs>
       <use xlink:href="#DejaVuSans-32"/>
       <use xlink:href="#DejaVuSans-30" x="63.623047"/>
       <use xlink:href="#DejaVuSans-30" x="127.246094"/>
       <use xlink:href="#DejaVuSans-30" x="190.869141"/>
      </g>
     </g>
    </g>
    <g id="text_5">
     <!-- X Surface Area (mm) -->
     <g transform="translate(306.918594 545.915938) scale(0.14 -0.14)">
      <defs>
       <path id="DejaVuSans-58" d="M 403 4666 
L 1081 4666 
L 2241 2931 
L 3406 4666 
L 4084 4666 
L 2584 2425 
L 4184 0 
L 3506 0 
L 2194 1984 
L 872 0 
L 191 0 
L 1856 2491 
L 403 4666 
z
" transform="scale(0.015625)"/>
       <path id="DejaVuSans-20" transform="scale(0.015625)"/>
       <path id="DejaVuSans-53" d="M 3425 4513 
L 3425 3897 
Q 3066 4069 2747 4153 
Q 2428 4238 2131 4238 
Q 1616 4238 1336 4038 
Q 1056 3838 1056 3469 
Q 1056 3159 1242 3001 
Q 1428 2844 1947 2747 
L 2328 2669 
Q 3034 2534 3370 2195 
Q 3706 1856 3706 1288 
Q 3706 609 3251 259 
Q 2797 -91 1919 -91 
Q 1588 -91 1214 -16 
Q 841 59 441 206 
L 441 856 
Q 825 641 1194 531 
Q 1563 422 1919 422 
Q 2459 422 2753 634 
Q 3047 847 3047 1241 
Q 3047 1584 2836 1778 
Q 2625 1972 2144 2069 
L 1759 2144 
Q 1053 2284 737 2584 
Q 422 2884 422 3419 
Q 422 4038 858 4394 
Q 1294 4750 2059 4750 
Q 2388 4750 2728 4690 
Q 3069 4631 3425 4513 
z
" transform="scale(0.015625)"/>
       <path id="DejaVuSans-75" d="M 544 1381 
L 544 3500 
L 1119 3500 
L 1119 1403 
Q 1119 906 1312 657 
Q 1506 409 1894 409 
Q 2359 409 2629 706 
Q 2900 1003 2900 1516 
L 2900 3500 
L 3475 3500 
L 3475 0 
L 2900 0 
L 2900 538 
Q 2691 219 2414 64 
Q 2138 -91 1772 -91 
Q 1169 -91 856 284 
Q 544 659 544 1381 
z
M 1991 3584 
L 1991 3584 
z
" transform="scale(0.015625)"/>
       <path id="DejaVuSans-72" d="M 2631 2963 
Q 2534 3019 2420 3045 
Q 2306 3072 2169 3072 
Q 1681 3072 1420 2755 
Q 1159 2438 1159 1844 
L 1159 0 
L 581 0 
L 581 3500 
L 1159 3500 
L 1159 2956 
Q 1341 3275 1631 3429 
Q 1922 3584 2338 3584 
Q 2397 3584 2469 3576 
Q 2541 3569 2628 3553 
L 2631 2963 
z
" transform="scale(0.015625)"/>
       <path id="DejaVuSans-66" d="M 2375 4863 
L 2375 4384 
L 1825 4384 
Q 1516 4384 1395 4259 
Q 1275 4134 1275 3809 
L 1275 3500 
L 2222 3500 
L 2222 3053 
L 1275 3053 
L 1275 0 
L 697 0 
L 697 3053 
L 147 3053 
L 147 3500 
L 697 3500 
L 697 3744 
Q 697 4328 969 4595 
Q 1241 4863 1831 4863 
L 2375 4863 
z
" transform="scale(0.015625)"/>
       <path id="DejaVuSans-61" d="M 2194 1759 
Q 1497 1759 1228 1600 
Q 959 1441 959 1056 
Q 959 750 1161 570 
Q 1363 391 1709 391 
Q 2188 391 2477 730 
Q 2766 1069 2766 1631 
L 2766 1759 
L 2194 1759 
z
M 3341 1997 
L 3341 0 
L 2766 0 
L 2766 531 
Q 2569 213 2275 61 
Q 1981 -91 1556 -91 
Q 1019 -91 701 211 
Q 384 513 384 1019 
Q 384 1609 779 1909 
Q 1175 2209 1959 2209 
L 2766 2209 
L 2766 2266 
Q 2766 2663 2505 2880 
Q 2244 3097 1772 3097 
Q 1472 3097 1187 3025 
Q 903 2953 641 2809 
L 641 3341 
Q 956 3463 1253 3523 
Q 1550 3584 1831 3584 
Q 2591 3584 2966 3190 
Q 3341 2797 3341 1997 
z
" transform="scale(0.015625)"/>
       <path id="DejaVuSans-63" d="M 3122 3366 
L 3122 2828 
Q 2878 2963 2633 3030 
Q 2388 3097 2138 3097 
Q 1578 3097 1268 2742 
Q 959 2388 959 1747 
Q 959 1106 1268 751 
Q 1578 397 2138 397 
Q 2388 397 2633 464 
Q 2878 531 3122 666 
L 3122 134 
Q 2881 22 2623 -34 
Q 2366 -91 2075 -91 
Q 1284 -91 818 406 
Q 353 903 353 1747 
Q 353 2603 823 3093 
Q 1294 3584 2113 3584 
Q 2378 3584 2631 3529 
Q 2884 3475 3122 3366 
z
" transform="scale(0.015625)"/>
       <path id="DejaVuSans-65" d="M 3597 1894 
L 3597 1613 
L 953 1613 
Q 991 1019 1311 708 
Q 1631 397 2203 397 
Q 2534 397 2845 478 
Q 3156 559 3463 722 
L 3463 178 
Q 3153 47 2828 -22 
Q 2503 -91 2169 -91 
Q 1331 -91 842 396 
Q 353 884 353 1716 
Q 353 2575 817 3079 
Q 1281 3584 2069 3584 
Q 2775 3584 3186 3129 
Q 3597 2675 3597 1894 
z
M 3022 2063 
Q 3016 2534 2758 2815 
Q 2500 3097 2075 3097 
Q 1594 3097 1305 2825 
Q 1016 2553 972 2059 
L 3022 2063 
z
" transform="scale(0.015625)"/>
       <path id="DejaVuSans-41" d="M 2188 4044 
L 1331 1722 
L 3047 1722 
L 2188 4044 
z
M 1831 4666 
L 2547 4666 
L 4325 0 
L 3669 0 
L 3244 1197 
L 1141 1197 
L 716 0 
L 50 0 
L 1831 4666 
z
" transform="scale(0.015625)"/>
       <path id="DejaVuSans-28" d="M 1984 4856 
Q 1566 4138 1362 3434 
Q 1159 2731 1159 2009 
Q 1159 1288 1364 580 
Q 1569 -128 1984 -844 
L 1484 -844 
Q 1016 -109 783 600 
Q 550 1309 550 2009 
Q 550 2706 781 3412 
Q 1013 4119 1484 4856 
L 1984 4856 
z
" transform="scale(0.015625)"/>
       <path id="DejaVuSans-6d" d="M 3328 2828 
Q 3544 3216 3844 3400 
Q 4144 3584 4550 3584 
Q 5097 3584 5394 3201 
Q 5691 2819 5691 2113 
L 5691 0 
L 5113 0 
L 5113 2094 
Q 5113 2597 4934 2840 
Q 4756 3084 4391 3084 
Q 3944 3084 3684 2787 
Q 3425 2491 3425 1978 
L 3425 0 
L 2847 0 
L 2847 2094 
Q 2847 2600 2669 2842 
Q 2491 3084 2119 3084 
Q 1678 3084 1418 2786 
Q 1159 2488 1159 1978 
L 1159 0 
L 581 0 
L 581 3500 
L 1159 3500 
L 1159 2956 
Q 1356 3278 1631 3431 
Q 1906 3584 2284 3584 
Q 2666 3584 2933 3390 
Q 3200 3197 3328 2828 
z
" transform="scale(0.015625)"/>
       <path id="DejaVuSans-29" d="M 513 4856 
L 1013 4856 
Q 1481 4119 1714 3412 
Q 1947 2706 1947 2009 
Q 1947 1309 1714 600 
Q 1481 -109 1013 -844 
L 513 -844 
Q 928 -128 1133 580 
Q 1338 1288 1338 2009 
Q 1338 2731 1133 3434 
Q 928 4138 513 4856 
z
" transform="scale(0.015625)"/>
      </defs>
      <use xlink:href="#DejaVuSans-58"/>
      <use xlink:href="#DejaVuSans-20" x="68.505859"/>
      <use xlink:href="#DejaVuSans-53" x="100.292969"/>
      <use xlink:href="#DejaVuSans-75" x="163.769531"/>
      <use xlink:href="#DejaVuSans-72" x="227.148438"/>
      <use xlink:href="#DejaVuSans-66" x="268.261719"/>
      <use xlink:href="#DejaVuSans-61" x="303.466797"/>
      <use xlink:href="#DejaVuSans-63" x="364.746094"/>
      <use xlink:href="#DejaVuSans-65" x="419.726562"/>
      <use xlink:href="#DejaVuSans-20" x="481.25"/>
      <use xlink:href="#DejaVuSans-41" x="513.037109"/>
      <use xlink:href="#DejaVuSans-72" x="581.445312"/>
      <use xlink:href="#DejaVuSans-65" x="620.308594"/>
      <use xlink:href="#DejaVuSans-61" x="681.832031"/>
      <use xlink:href="#DejaVuSans-20" x="743.111328"/>
      <use xlink:href="#DejaVuSans-28" x="774.898438"/>
      <use xlink:href="#DejaVuSans-6d" x="813.912109"/>
      <use xlink:href="#DejaVuSans-6d" x="911.324219"/>
      <use xlink:href="#DejaVuSans-29" x="1008.736328"/>
     </g>
     <!-- Y Surface Area (mm) -->
     <g transform="translate(307.438125 561.592875) scale(0.14 -0.14)">
      <defs>
       <path id="DejaVuSans-59" d="M -13 4666 
L 666 4666 
L 1959 2747 
L 3244 4666 
L 3922 4666 
L 2272 2222 
L 2272 0 
L 1638 0 
L 1638 2222 
L -13 4666 
z
" transform="scale(0.015625)"/>
      </defs>
      <use xlink:href="#DejaVuSans-59"/>
      <use xlink:href="#DejaVuSans-20" x="61.083984"/>
      <use xlink:href="#DejaVuSans-53" x="92.871094"/>
      <use xlink:href="#DejaVuSans-75" x="156.347656"/>
      <use xlink:href="#DejaVuSans-72" x="219.726562"/>
      <use xlink:href="#DejaVuSans-66" x="260.839844"/>
      <use xlink:href="#DejaVuSans-61" x="296.044922"/>
      <use xlink:href="#DejaVuSans-63" x="357.324219"/>
      <use xlink:href="#DejaVuSans-65" x="412.304688"/>
      <use xlink:href="#DejaVuSans-20" x="473.828125"/>
      <use xlink:href="#DejaVuSans-41" x="505.615234"/>
      <use xlink:href="#DejaVuSans-72" x="574.023438"/>
      <use xlink:href="#DejaVuSans-65" x="612.886719"/>
      <use xlink:href="#DejaVuSans-61" x="674.410156"/>
      <use xlink:href="#DejaVuSans-20" x="735.689453"/>
      <use xlink:href="#DejaVuSans-28" x="767.476562"/>
      <use xlink:href="#DejaVuSans-6d" x="806.490234"/>
      <use xlink:href="#DejaVuSans-6d" x="903.902344"/>
      <use xlink:href="#DejaVuSans-29" x="1001.314453"/>
     </g>
    </g>
   </g>
   <g id="matplotlib.axis_2">
    <g id="ytick_1">
     <g id="line2d_9">
      <path d="M 51.32 470.795545 
L 709.2 470.795545 
" clip-path="url(#pf5f010e7f1)" style="fill: none; stroke-dasharray: 2.96,1.28; stroke-dashoffset: 0; stroke: #b0b0b0; stroke-opacity: 0.6; stroke-width: 0.8"/>
     </g>
     <g id="line2d_10">
      <defs>
       <path id="m24aef79074" d="M 0 0 
L -3.5 0 
" style="stroke: #000000; stroke-width: 0.8"/>
      </defs>
      <g>
       <use xlink:href="#m24aef79074" x="51.32" y="470.795545" style="stroke: #000000; stroke-width: 0.8"/>
      </g>
     </g>
     <g id="text_6">
      <!-- 0.3 -->
      <g transform="translate(28.416875 474.594764) scale(0.1 -0.1)">
       <defs>
        <path id="DejaVuSans-2e" d="M 684 794 
L 1344 794 
L 1344 0 
L 684 0 
L 684 794 
z
" transform="scale(0.015625)"/>
        <path id="DejaVuSans-33" d="M 2597 2516 
Q 3050 2419 3304 2112 
Q 3559 1806 3559 1356 
Q 3559 666 3084 287 
Q 2609 -91 1734 -91 
Q 1441 -91 1130 -33 
Q 819 25 488 141 
L 488 750 
Q 750 597 1062 519 
Q 1375 441 1716 441 
Q 2309 441 2620 675 
Q 2931 909 2931 1356 
Q 2931 1769 2642 2001 
Q 2353 2234 1838 2234 
L 1294 2234 
L 1294 2753 
L 1863 2753 
Q 2328 2753 2575 2939 
Q 2822 3125 2822 3475 
Q 2822 3834 2567 4026 
Q 2313 4219 1838 4219 
Q 1578 4219 1281 4162 
Q 984 4106 628 3988 
L 628 4550 
Q 988 4650 1302 4700 
Q 1616 4750 1894 4750 
Q 2613 4750 3031 4423 
Q 3450 4097 3450 3541 
Q 3450 3153 3228 2886 
Q 3006 2619 2597 2516 
z
" transform="scale(0.015625)"/>
       </defs>
       <use xlink:href="#DejaVuSans-30"/>
       <use xlink:href="#DejaVuSans-2e" x="63.623047"/>
       <use xlink:href="#DejaVuSans-33" x="95.410156"/>
      </g>
     </g>
    </g>
    <g id="ytick_2">
     <g id="line2d_11">
      <path d="M 51.32 389.819814 
L 709.2 389.819814 
" clip-path="url(#pf5f010e7f1)" style="fill: none; stroke-dasharray: 2.96,1.28; stroke-dashoffset: 0; stroke: #b0b0b0; stroke-opacity: 0.6; stroke-width: 0.8"/>
     </g>
     <g id="line2d_12">
      <g>
       <use xlink:href="#m24aef79074" x="51.32" y="389.819814" style="stroke: #000000; stroke-width: 0.8"/>
      </g>
     </g>
     <g id="text_7">
      <!-- 0.4 -->
      <g transform="translate(28.416875 393.619032) scale(0.1 -0.1)">
       <defs>
        <path id="DejaVuSans-34" d="M 2419 4116 
L 825 1625 
L 2419 1625 
L 2419 4116 
z
M 2253 4666 
L 3047 4666 
L 3047 1625 
L 3713 1625 
L 3713 1100 
L 3047 1100 
L 3047 0 
L 2419 0 
L 2419 1100 
L 313 1100 
L 313 1709 
L 2253 4666 
z
" transform="scale(0.015625)"/>
       </defs>
       <use xlink:href="#DejaVuSans-30"/>
       <use xlink:href="#DejaVuSans-2e" x="63.623047"/>
       <use xlink:href="#DejaVuSans-34" x="95.410156"/>
      </g>
     </g>
    </g>
    <g id="ytick_3">
     <g id="line2d_13">
      <path d="M 51.32 308.844082 
L 709.2 308.844082 
" clip-path="url(#pf5f010e7f1)" style="fill: none; stroke-dasharray: 2.96,1.28; stroke-dashoffset: 0; stroke: #b0b0b0; stroke-opacity: 0.6; stroke-width: 0.8"/>
     </g>
     <g id="line2d_14">
      <g>
       <use xlink:href="#m24aef79074" x="51.32" y="308.844082" style="stroke: #000000; stroke-width: 0.8"/>
      </g>
     </g>
     <g id="text_8">
      <!-- 0.5 -->
      <g transform="translate(28.416875 312.643301) scale(0.1 -0.1)">
       <use xlink:href="#DejaVuSans-30"/>
       <use xlink:href="#DejaVuSans-2e" x="63.623047"/>
       <use xlink:href="#DejaVuSans-35" x="95.410156"/>
      </g>
     </g>
    </g>
    <g id="ytick_4">
     <g id="line2d_15">
      <path d="M 51.32 227.868351 
L 709.2 227.868351 
" clip-path="url(#pf5f010e7f1)" style="fill: none; stroke-dasharray: 2.96,1.28; stroke-dashoffset: 0; stroke: #b0b0b0; stroke-opacity: 0.6; stroke-width: 0.8"/>
     </g>
     <g id="line2d_16">
      <g>
       <use xlink:href="#m24aef79074" x="51.32" y="227.868351" style="stroke: #000000; stroke-width: 0.8"/>
      </g>
     </g>
     <g id="text_9">
      <!-- 0.6 -->
      <g transform="translate(28.416875 231.66757) scale(0.1 -0.1)">
       <defs>
        <path id="DejaVuSans-36" d="M 2113 2584 
Q 1688 2584 1439 2293 
Q 1191 2003 1191 1497 
Q 1191 994 1439 701 
Q 1688 409 2113 409 
Q 2538 409 2786 701 
Q 3034 994 3034 1497 
Q 3034 2003 2786 2293 
Q 2538 2584 2113 2584 
z
M 3366 4563 
L 3366 3988 
Q 3128 4100 2886 4159 
Q 2644 4219 2406 4219 
Q 1781 4219 1451 3797 
Q 1122 3375 1075 2522 
Q 1259 2794 1537 2939 
Q 1816 3084 2150 3084 
Q 2853 3084 3261 2657 
Q 3669 2231 3669 1497 
Q 3669 778 3244 343 
Q 2819 -91 2113 -91 
Q 1303 -91 875 529 
Q 447 1150 447 2328 
Q 447 3434 972 4092 
Q 1497 4750 2381 4750 
Q 2619 4750 2861 4703 
Q 3103 4656 3366 4563 
z
" transform="scale(0.015625)"/>
       </defs>
       <use xlink:href="#DejaVuSans-30"/>
       <use xlink:href="#DejaVuSans-2e" x="63.623047"/>
       <use xlink:href="#DejaVuSans-36" x="95.410156"/>
      </g>
     </g>
    </g>
    <g id="ytick_5">
     <g id="line2d_17">
      <path d="M 51.32 146.892619 
L 709.2 146.892619 
" clip-path="url(#pf5f010e7f1)" style="fill: none; stroke-dasharray: 2.96,1.28; stroke-dashoffset: 0; stroke: #b0b0b0; stroke-opacity: 0.6; stroke-width: 0.8"/>
     </g>
     <g id="line2d_18">
      <g>
       <use xlink:href="#m24aef79074" x="51.32" y="146.892619" style="stroke: #000000; stroke-width: 0.8"/>
      </g>
     </g>
     <g id="text_10">
      <!-- 0.7 -->
      <g transform="translate(28.416875 150.691838) scale(0.1 -0.1)">
       <defs>
        <path id="DejaVuSans-37" d="M 525 4666 
L 3525 4666 
L 3525 4397 
L 1831 0 
L 1172 0 
L 2766 4134 
L 525 4134 
L 525 4666 
z
" transform="scale(0.015625)"/>
       </defs>
       <use xlink:href="#DejaVuSans-30"/>
       <use xlink:href="#DejaVuSans-2e" x="63.623047"/>
       <use xlink:href="#DejaVuSans-37" x="95.410156"/>
      </g>
     </g>
    </g>
    <g id="text_11">
     <!-- Score: (x real, y real) -->
     <g transform="translate(21.505313 383.675344) rotate(-90) scale(0.14 -0.14)">
      <defs>
       <path id="DejaVuSans-6f" d="M 1959 3097 
Q 1497 3097 1228 2736 
Q 959 2375 959 1747 
Q 959 1119 1226 758 
Q 1494 397 1959 397 
Q 2419 397 2687 759 
Q 2956 1122 2956 1747 
Q 2956 2369 2687 2733 
Q 2419 3097 1959 3097 
z
M 1959 3584 
Q 2709 3584 3137 3096 
Q 3566 2609 3566 1747 
Q 3566 888 3137 398 
Q 2709 -91 1959 -91 
Q 1206 -91 779 398 
Q 353 888 353 1747 
Q 353 2609 779 3096 
Q 1206 3584 1959 3584 
z
" transform="scale(0.015625)"/>
       <path id="DejaVuSans-3a" d="M 750 794 
L 1409 794 
L 1409 0 
L 750 0 
L 750 794 
z
M 750 3309 
L 1409 3309 
L 1409 2516 
L 750 2516 
L 750 3309 
z
" transform="scale(0.015625)"/>
       <path id="DejaVuSans-78" d="M 3513 3500 
L 2247 1797 
L 3578 0 
L 2900 0 
L 1881 1375 
L 863 0 
L 184 0 
L 1544 1831 
L 300 3500 
L 978 3500 
L 1906 2253 
L 2834 3500 
L 3513 3500 
z
" transform="scale(0.015625)"/>
       <path id="DejaVuSans-6c" d="M 603 4863 
L 1178 4863 
L 1178 0 
L 603 0 
L 603 4863 
z
" transform="scale(0.015625)"/>
       <path id="DejaVuSans-2c" d="M 750 794 
L 1409 794 
L 1409 256 
L 897 -744 
L 494 -744 
L 750 256 
L 750 794 
z
" transform="scale(0.015625)"/>
       <path id="DejaVuSans-79" d="M 2059 -325 
Q 1816 -950 1584 -1140 
Q 1353 -1331 966 -1331 
L 506 -1331 
L 506 -850 
L 844 -850 
Q 1081 -850 1212 -737 
Q 1344 -625 1503 -206 
L 1606 56 
L 191 3500 
L 800 3500 
L 1894 763 
L 2988 3500 
L 3597 3500 
L 2059 -325 
z
" transform="scale(0.015625)"/>
      </defs>
      <use xlink:href="#DejaVuSans-53"/>
      <use xlink:href="#DejaVuSans-63" x="63.476562"/>
      <use xlink:href="#DejaVuSans-6f" x="118.457031"/>
      <use xlink:href="#DejaVuSans-72" x="179.638672"/>
      <use xlink:href="#DejaVuSans-65" x="218.501953"/>
      <use xlink:href="#DejaVuSans-3a" x="280.025391"/>
      <use xlink:href="#DejaVuSans-20" x="313.716797"/>
      <use xlink:href="#DejaVuSans-28" x="345.503906"/>
      <use xlink:href="#DejaVuSans-78" x="384.517578"/>
      <use xlink:href="#DejaVuSans-20" x="443.697266"/>
      <use xlink:href="#DejaVuSans-72" x="475.484375"/>
      <use xlink:href="#DejaVuSans-65" x="514.347656"/>
      <use xlink:href="#DejaVuSans-61" x="575.871094"/>
      <use xlink:href="#DejaVuSans-6c" x="637.150391"/>
      <use xlink:href="#DejaVuSans-2c" x="664.933594"/>
      <use xlink:href="#DejaVuSans-20" x="696.720703"/>
      <use xlink:href="#DejaVuSans-79" x="728.507812"/>
      <use xlink:href="#DejaVuSans-20" x="787.6875"/>
      <use xlink:href="#DejaVuSans-72" x="819.474609"/>
      <use xlink:href="#DejaVuSans-65" x="858.337891"/>
      <use xlink:href="#DejaVuSans-61" x="919.861328"/>
      <use xlink:href="#DejaVuSans-6c" x="981.140625"/>
      <use xlink:href="#DejaVuSans-29" x="1008.923828"/>
     </g>
    </g>
   </g>
   <g id="line2d_19">
    <path d="M 136.073941 231.498643 
L 141.561036 232.68468 
L 147.048131 233.870716 
L 152.535226 235.056753 
L 158.022321 236.242789 
L 163.509417 237.428826 
L 168.996512 238.614862 
L 174.483607 239.800899 
L 179.970702 240.986935 
L 185.457797 242.172972 
L 190.944892 243.359008 
L 196.431988 244.545044 
L 201.919083 245.731081 
L 207.406178 246.917117 
L 212.893273 248.103154 
L 218.380368 249.28919 
L 223.867464 250.475227 
L 229.354559 251.661263 
L 234.841654 252.8473 
L 240.328749 254.033336 
L 245.815844 255.219373 
L 251.302939 256.405409 
L 256.790035 257.591446 
L 262.27713 258.777482 
L 267.764225 259.963519 
L 273.25132 261.149555 
L 278.738415 262.335592 
L 284.225511 263.521628 
L 289.712606 264.707665 
L 295.199701 265.893701 
L 300.686796 267.079737 
L 306.173891 268.265774 
L 311.660986 269.45181 
L 317.148082 270.637847 
L 322.635177 271.823883 
L 328.122272 273.00992 
L 333.609367 274.195956 
L 339.096462 275.381993 
L 344.583558 276.568029 
L 350.070653 277.754066 
L 355.557748 278.940102 
L 361.044843 280.126139 
L 366.531938 281.312175 
L 372.019033 282.498212 
L 377.506129 283.684248 
L 382.993224 284.870285 
L 388.480319 286.056321 
L 393.967414 287.242357 
L 399.454509 288.428394 
L 404.941605 289.61443 
L 410.4287 290.800467 
L 415.915795 291.986503 
L 421.40289 293.17254 
L 426.889985 294.358576 
L 432.37708 295.544613 
L 437.864176 296.730649 
L 443.351271 297.916686 
L 448.838366 299.102722 
L 454.325461 300.288759 
L 459.812556 301.474795 
L 465.299652 302.660832 
L 470.786747 303.846868 
L 476.273842 305.032905 
L 481.760937 306.218941 
L 487.248032 307.404978 
L 492.735127 308.591014 
L 498.222223 309.77705 
L 503.709318 310.963087 
L 509.196413 312.149123 
L 514.683508 313.33516 
L 520.170603 314.521196 
L 525.657699 315.707233 
L 531.144794 316.893269 
L 536.631889 318.079306 
L 542.118984 319.265342 
L 547.606079 320.451379 
L 553.093174 321.637415 
L 558.58027 322.823452 
L 564.067365 324.009488 
L 569.55446 325.195525 
L 575.041555 326.381561 
L 580.52865 327.567598 
L 586.015746 328.753634 
L 591.502841 329.939671 
L 596.989936 331.125707 
L 602.477031 332.311743 
L 607.964126 333.49778 
L 613.451221 334.683816 
L 618.938317 335.869853 
L 624.425412 337.055889 
L 629.912507 338.241926 
L 635.399602 339.427962 
L 640.886697 340.613999 
L 646.373793 341.800035 
L 651.860888 342.986072 
L 657.347983 344.172108 
L 662.835078 345.358145 
L 668.322173 346.544181 
L 673.809268 347.730218 
L 679.296364 348.916254 
" clip-path="url(#pf5f010e7f1)" style="fill: none; stroke-dasharray: 8.325,3.6; stroke-dashoffset: 0; stroke: #e41a1c; stroke-width: 2.25"/>
   </g>
   <g id="line2d_20">
    <path d="M 81.223636 289.57111 
L 86.879272 289.526231 
L 92.534908 289.481353 
L 98.190544 289.436474 
L 103.84618 289.391596 
L 109.501815 289.346717 
L 115.157451 289.301839 
L 120.813087 289.25696 
L 126.468723 289.212082 
L 132.124359 289.167203 
L 137.779994 289.122325 
L 143.43563 289.077446 
L 149.091266 289.032567 
L 154.746902 288.987689 
L 160.402538 288.94281 
L 166.058174 288.897932 
L 171.713809 288.853053 
L 177.369445 288.808175 
L 183.025081 288.763296 
L 188.680717 288.718418 
L 194.336353 288.673539 
L 199.991988 288.628661 
L 205.647624 288.583782 
L 211.30326 288.538903 
L 216.958896 288.494025 
L 222.614532 288.449146 
L 228.270168 288.404268 
L 233.925803 288.359389 
L 239.581439 288.314511 
L 245.237075 288.269632 
L 250.892711 288.224754 
L 256.548347 288.179875 
L 262.203982 288.134997 
L 267.859618 288.090118 
L 273.515254 288.045239 
L 279.17089 288.000361 
L 284.826526 287.955482 
L 290.482161 287.910604 
L 296.137797 287.865725 
L 301.793433 287.820847 
L 307.449069 287.775968 
L 313.104705 287.73109 
L 318.760341 287.686211 
L 324.415976 287.641333 
L 330.071612 287.596454 
L 335.727248 287.551575 
L 341.382884 287.506697 
L 347.03852 287.461818 
L 352.694155 287.41694 
L 358.349791 287.372061 
L 364.005427 287.327183 
L 369.661063 287.282304 
L 375.316699 287.237426 
L 380.972334 287.192547 
L 386.62797 287.147669 
L 392.283606 287.10279 
L 397.939242 287.057911 
L 403.594878 287.013033 
L 409.250514 286.968154 
L 414.906149 286.923276 
L 420.561785 286.878397 
L 426.217421 286.833519 
L 431.873057 286.78864 
L 437.528693 286.743762 
L 443.184328 286.698883 
L 448.839964 286.654005 
L 454.4956 286.609126 
L 460.151236 286.564247 
L 465.806872 286.519369 
L 471.462507 286.47449 
L 477.118143 286.429612 
L 482.773779 286.384733 
L 488.429415 286.339855 
L 494.085051 286.294976 
L 499.740687 286.250098 
L 505.396322 286.205219 
L 511.051958 286.160341 
L 516.707594 286.115462 
L 522.36323 286.070584 
L 528.018866 286.025705 
L 533.674501 285.980826 
L 539.330137 285.935948 
L 544.985773 285.891069 
L 550.641409 285.846191 
L 556.297045 285.801312 
L 561.952681 285.756434 
L 567.608316 285.711555 
L 573.263952 285.666677 
L 578.919588 285.621798 
L 584.575224 285.57692 
L 590.23086 285.532041 
L 595.886495 285.487162 
L 601.542131 285.442284 
L 607.197767 285.397405 
L 612.853403 285.352527 
L 618.509039 285.307648 
L 624.164674 285.26277 
L 629.82031 285.217891 
L 635.475946 285.173013 
L 641.131582 285.128134 
" clip-path="url(#pf5f010e7f1)" style="fill: none; stroke-dasharray: 8.325,3.6; stroke-dashoffset: 0; stroke: #377eb8; stroke-width: 2.25"/>
   </g>
   <g id="patch_3">
    <path d="M 51.32 514.6 
L 51.32 106.03725 
" style="fill: none; stroke: #000000; stroke-width: 0.8; stroke-linejoin: miter; stroke-linecap: square"/>
   </g>
   <g id="patch_4">
    <path d="M 709.2 514.6 
L 709.2 106.03725 
" style="fill: none; stroke: #000000; stroke-width: 0.8; stroke-linejoin: miter; stroke-linecap: square"/>
   </g>
   <g id="patch_5">
    <path d="M 51.32 514.6 
L 709.2 514.6 
" style="fill: none; stroke: #000000; stroke-width: 0.8; stroke-linejoin: miter; stroke-linecap: square"/>
   </g>
   <g id="patch_6">
    <path d="M 51.32 106.03725 
L 709.2 106.03725 
" style="fill: none; stroke: #000000; stroke-width: 0.8; stroke-linejoin: miter; stroke-linecap: square"/>
   </g>
   <g id="text_12">
    <!-- Effect of X Surface Area (mm), Y Surface Area (mm) on Score: (x real, y real) -->
    <g transform="translate(73.30375 64.20425) scale(0.16 -0.16)">
     <defs>
      <path id="DejaVuSans-45" d="M 628 4666 
L 3578 4666 
L 3578 4134 
L 1259 4134 
L 1259 2753 
L 3481 2753 
L 3481 2222 
L 1259 2222 
L 1259 531 
L 3634 531 
L 3634 0 
L 628 0 
L 628 4666 
z
" transform="scale(0.015625)"/>
      <path id="DejaVuSans-74" d="M 1172 4494 
L 1172 3500 
L 2356 3500 
L 2356 3053 
L 1172 3053 
L 1172 1153 
Q 1172 725 1289 603 
Q 1406 481 1766 481 
L 2356 481 
L 2356 0 
L 1766 0 
Q 1100 0 847 248 
Q 594 497 594 1153 
L 594 3053 
L 172 3053 
L 172 3500 
L 594 3500 
L 594 4494 
L 1172 4494 
z
" transform="scale(0.015625)"/>
      <path id="DejaVuSans-6e" d="M 3513 2113 
L 3513 0 
L 2938 0 
L 2938 2094 
Q 2938 2591 2744 2837 
Q 2550 3084 2163 3084 
Q 1697 3084 1428 2787 
Q 1159 2491 1159 1978 
L 1159 0 
L 581 0 
L 581 3500 
L 1159 3500 
L 1159 2956 
Q 1366 3272 1645 3428 
Q 1925 3584 2291 3584 
Q 2894 3584 3203 3211 
Q 3513 2838 3513 2113 
z
" transform="scale(0.015625)"/>
     </defs>
     <use xlink:href="#DejaVuSans-45"/>
     <use xlink:href="#DejaVuSans-66" x="63.183594"/>
     <use xlink:href="#DejaVuSans-66" x="98.388672"/>
     <use xlink:href="#DejaVuSans-65" x="133.59375"/>
     <use xlink:href="#DejaVuSans-63" x="195.117188"/>
     <use xlink:href="#DejaVuSans-74" x="250.097656"/>
     <use xlink:href="#DejaVuSans-20" x="289.306641"/>
     <use xlink:href="#DejaVuSans-6f" x="321.09375"/>
     <use xlink:href="#DejaVuSans-66" x="382.275391"/>
     <use xlink:href="#DejaVuSans-20" x="417.480469"/>
     <use xlink:href="#DejaVuSans-58" x="449.267578"/>
     <use xlink:href="#DejaVuSans-20" x="517.773438"/>
     <use xlink:href="#DejaVuSans-53" x="549.560547"/>
     <use xlink:href="#DejaVuSans-75" x="613.037109"/>
     <use xlink:href="#DejaVuSans-72" x="676.416016"/>
     <use xlink:href="#DejaVuSans-66" x="717.529297"/>
     <use xlink:href="#DejaVuSans-61" x="752.734375"/>
     <use xlink:href="#DejaVuSans-63" x="814.013672"/>
     <use xlink:href="#DejaVuSans-65" x="868.994141"/>
     <use xlink:href="#DejaVuSans-20" x="930.517578"/>
     <use xlink:href="#DejaVuSans-41" x="962.304688"/>
     <use xlink:href="#DejaVuSans-72" x="1030.712891"/>
     <use xlink:href="#DejaVuSans-65" x="1069.576172"/>
     <use xlink:href="#DejaVuSans-61" x="1131.099609"/>
     <use xlink:href="#DejaVuSans-20" x="1192.378906"/>
     <use xlink:href="#DejaVuSans-28" x="1224.166016"/>
     <use xlink:href="#DejaVuSans-6d" x="1263.179688"/>
     <use xlink:href="#DejaVuSans-6d" x="1360.591797"/>
     <use xlink:href="#DejaVuSans-29" x="1458.003906"/>
     <use xlink:href="#DejaVuSans-2c" x="1497.017578"/>
     <use xlink:href="#DejaVuSans-20" x="1528.804688"/>
     <use xlink:href="#DejaVuSans-59" x="1560.591797"/>
     <use xlink:href="#DejaVuSans-20" x="1621.675781"/>
     <use xlink:href="#DejaVuSans-53" x="1653.462891"/>
     <use xlink:href="#DejaVuSans-75" x="1716.939453"/>
     <use xlink:href="#DejaVuSans-72" x="1780.318359"/>
     <use xlink:href="#DejaVuSans-66" x="1821.431641"/>
     <use xlink:href="#DejaVuSans-61" x="1856.636719"/>
     <use xlink:href="#DejaVuSans-63" x="1917.916016"/>
     <use xlink:href="#DejaVuSans-65" x="1972.896484"/>
     <use xlink:href="#DejaVuSans-20" x="2034.419922"/>
     <use xlink:href="#DejaVuSans-41" x="2066.207031"/>
     <use xlink:href="#DejaVuSans-72" x="2134.615234"/>
     <use xlink:href="#DejaVuSans-65" x="2173.478516"/>
     <use xlink:href="#DejaVuSans-61" x="2235.001953"/>
     <use xlink:href="#DejaVuSans-20" x="2296.28125"/>
     <use xlink:href="#DejaVuSans-28" x="2328.068359"/>
     <use xlink:href="#DejaVuSans-6d" x="2367.082031"/>
     <use xlink:href="#DejaVuSans-6d" x="2464.494141"/>
     <use xlink:href="#DejaVuSans-29" x="2561.90625"/>
     <use xlink:href="#DejaVuSans-20" x="2600.919922"/>
     <use xlink:href="#DejaVuSans-6f" x="2632.707031"/>
     <use xlink:href="#DejaVuSans-6e" x="2693.888672"/>
     <use xlink:href="#DejaVuSans-20" x="2757.267578"/>
     <use xlink:href="#DejaVuSans-53" x="2789.054688"/>
     <use xlink:href="#DejaVuSans-63" x="2852.53125"/>
     <use xlink:href="#DejaVuSans-6f" x="2907.511719"/>
     <use xlink:href="#DejaVuSans-72" x="2968.693359"/>
     <use xlink:href="#DejaVuSans-65" x="3007.556641"/>
     <use xlink:href="#DejaVuSans-3a" x="3069.080078"/>
     <use xlink:href="#DejaVuSans-20" x="3102.771484"/>
     <use xlink:href="#DejaVuSans-28" x="3134.558594"/>
     <use xlink:href="#DejaVuSans-78" x="3173.572266"/>
     <use xlink:href="#DejaVuSans-20" x="3232.751953"/>
     <use xlink:href="#DejaVuSans-72" x="3264.539062"/>
     <use xlink:href="#DejaVuSans-65" x="3303.402344"/>
     <use xlink:href="#DejaVuSans-61" x="3364.925781"/>
     <use xlink:href="#DejaVuSans-6c" x="3426.205078"/>
     <use xlink:href="#DejaVuSans-2c" x="3453.988281"/>
     <use xlink:href="#DejaVuSans-20" x="3485.775391"/>
     <use xlink:href="#DejaVuSans-79" x="3517.5625"/>
     <use xlink:href="#DejaVuSans-20" x="3576.742188"/>
     <use xlink:href="#DejaVuSans-72" x="3608.529297"/>
     <use xlink:href="#DejaVuSans-65" x="3647.392578"/>
     <use xlink:href="#DejaVuSans-61" x="3708.916016"/>
     <use xlink:href="#DejaVuSans-6c" x="3770.195312"/>
     <use xlink:href="#DejaVuSans-29" x="3797.978516"/>
    </g>
    <!-- Group: Normalized Mutual Information - X as Truth  -->
    <g transform="translate(176.185 82.12075) scale(0.16 -0.16)">
     <defs>
      <path id="DejaVuSans-47" d="M 3809 666 
L 3809 1919 
L 2778 1919 
L 2778 2438 
L 4434 2438 
L 4434 434 
Q 4069 175 3628 42 
Q 3188 -91 2688 -91 
Q 1594 -91 976 548 
Q 359 1188 359 2328 
Q 359 3472 976 4111 
Q 1594 4750 2688 4750 
Q 3144 4750 3555 4637 
Q 3966 4525 4313 4306 
L 4313 3634 
Q 3963 3931 3569 4081 
Q 3175 4231 2741 4231 
Q 1884 4231 1454 3753 
Q 1025 3275 1025 2328 
Q 1025 1384 1454 906 
Q 1884 428 2741 428 
Q 3075 428 3337 486 
Q 3600 544 3809 666 
z
" transform="scale(0.015625)"/>
      <path id="DejaVuSans-70" d="M 1159 525 
L 1159 -1331 
L 581 -1331 
L 581 3500 
L 1159 3500 
L 1159 2969 
Q 1341 3281 1617 3432 
Q 1894 3584 2278 3584 
Q 2916 3584 3314 3078 
Q 3713 2572 3713 1747 
Q 3713 922 3314 415 
Q 2916 -91 2278 -91 
Q 1894 -91 1617 61 
Q 1341 213 1159 525 
z
M 3116 1747 
Q 3116 2381 2855 2742 
Q 2594 3103 2138 3103 
Q 1681 3103 1420 2742 
Q 1159 2381 1159 1747 
Q 1159 1113 1420 752 
Q 1681 391 2138 391 
Q 2594 391 2855 752 
Q 3116 1113 3116 1747 
z
" transform="scale(0.015625)"/>
      <path id="DejaVuSans-4e" d="M 628 4666 
L 1478 4666 
L 3547 763 
L 3547 4666 
L 4159 4666 
L 4159 0 
L 3309 0 
L 1241 3903 
L 1241 0 
L 628 0 
L 628 4666 
z
" transform="scale(0.015625)"/>
      <path id="DejaVuSans-69" d="M 603 3500 
L 1178 3500 
L 1178 0 
L 603 0 
L 603 3500 
z
M 603 4863 
L 1178 4863 
L 1178 4134 
L 603 4134 
L 603 4863 
z
" transform="scale(0.015625)"/>
      <path id="DejaVuSans-7a" d="M 353 3500 
L 3084 3500 
L 3084 2975 
L 922 459 
L 3084 459 
L 3084 0 
L 275 0 
L 275 525 
L 2438 3041 
L 353 3041 
L 353 3500 
z
" transform="scale(0.015625)"/>
      <path id="DejaVuSans-64" d="M 2906 2969 
L 2906 4863 
L 3481 4863 
L 3481 0 
L 2906 0 
L 2906 525 
Q 2725 213 2448 61 
Q 2172 -91 1784 -91 
Q 1150 -91 751 415 
Q 353 922 353 1747 
Q 353 2572 751 3078 
Q 1150 3584 1784 3584 
Q 2172 3584 2448 3432 
Q 2725 3281 2906 2969 
z
M 947 1747 
Q 947 1113 1208 752 
Q 1469 391 1925 391 
Q 2381 391 2643 752 
Q 2906 1113 2906 1747 
Q 2906 2381 2643 2742 
Q 2381 3103 1925 3103 
Q 1469 3103 1208 2742 
Q 947 2381 947 1747 
z
" transform="scale(0.015625)"/>
      <path id="DejaVuSans-4d" d="M 628 4666 
L 1569 4666 
L 2759 1491 
L 3956 4666 
L 4897 4666 
L 4897 0 
L 4281 0 
L 4281 4097 
L 3078 897 
L 2444 897 
L 1241 4097 
L 1241 0 
L 628 0 
L 628 4666 
z
" transform="scale(0.015625)"/>
      <path id="DejaVuSans-49" d="M 628 4666 
L 1259 4666 
L 1259 0 
L 628 0 
L 628 4666 
z
" transform="scale(0.015625)"/>
      <path id="DejaVuSans-2d" d="M 313 2009 
L 1997 2009 
L 1997 1497 
L 313 1497 
L 313 2009 
z
" transform="scale(0.015625)"/>
      <path id="DejaVuSans-73" d="M 2834 3397 
L 2834 2853 
Q 2591 2978 2328 3040 
Q 2066 3103 1784 3103 
Q 1356 3103 1142 2972 
Q 928 2841 928 2578 
Q 928 2378 1081 2264 
Q 1234 2150 1697 2047 
L 1894 2003 
Q 2506 1872 2764 1633 
Q 3022 1394 3022 966 
Q 3022 478 2636 193 
Q 2250 -91 1575 -91 
Q 1294 -91 989 -36 
Q 684 19 347 128 
L 347 722 
Q 666 556 975 473 
Q 1284 391 1588 391 
Q 1994 391 2212 530 
Q 2431 669 2431 922 
Q 2431 1156 2273 1281 
Q 2116 1406 1581 1522 
L 1381 1569 
Q 847 1681 609 1914 
Q 372 2147 372 2553 
Q 372 3047 722 3315 
Q 1072 3584 1716 3584 
Q 2034 3584 2315 3537 
Q 2597 3491 2834 3397 
z
" transform="scale(0.015625)"/>
      <path id="DejaVuSans-54" d="M -19 4666 
L 3928 4666 
L 3928 4134 
L 2272 4134 
L 2272 0 
L 1638 0 
L 1638 4134 
L -19 4134 
L -19 4666 
z
" transform="scale(0.015625)"/>
      <path id="DejaVuSans-68" d="M 3513 2113 
L 3513 0 
L 2938 0 
L 2938 2094 
Q 2938 2591 2744 2837 
Q 2550 3084 2163 3084 
Q 1697 3084 1428 2787 
Q 1159 2491 1159 1978 
L 1159 0 
L 581 0 
L 581 4863 
L 1159 4863 
L 1159 2956 
Q 1366 3272 1645 3428 
Q 1925 3584 2291 3584 
Q 2894 3584 3203 3211 
Q 3513 2838 3513 2113 
z
" transform="scale(0.015625)"/>
     </defs>
     <use xlink:href="#DejaVuSans-47"/>
     <use xlink:href="#DejaVuSans-72" x="77.490234"/>
     <use xlink:href="#DejaVuSans-6f" x="116.353516"/>
     <use xlink:href="#DejaVuSans-75" x="177.535156"/>
     <use xlink:href="#DejaVuSans-70" x="240.914062"/>
     <use xlink:href="#DejaVuSans-3a" x="304.390625"/>
     <use xlink:href="#DejaVuSans-20" x="338.082031"/>
     <use xlink:href="#DejaVuSans-4e" x="369.869141"/>
     <use xlink:href="#DejaVuSans-6f" x="444.673828"/>
     <use xlink:href="#DejaVuSans-72" x="505.855469"/>
     <use xlink:href="#DejaVuSans-6d" x="545.21875"/>
     <use xlink:href="#DejaVuSans-61" x="642.630859"/>
     <use xlink:href="#DejaVuSans-6c" x="703.910156"/>
     <use xlink:href="#DejaVuSans-69" x="731.693359"/>
     <use xlink:href="#DejaVuSans-7a" x="759.476562"/>
     <use xlink:href="#DejaVuSans-65" x="811.966797"/>
     <use xlink:href="#DejaVuSans-64" x="873.490234"/>
     <use xlink:href="#DejaVuSans-20" x="936.966797"/>
     <use xlink:href="#DejaVuSans-4d" x="968.753906"/>
     <use xlink:href="#DejaVuSans-75" x="1055.033203"/>
     <use xlink:href="#DejaVuSans-74" x="1118.412109"/>
     <use xlink:href="#DejaVuSans-75" x="1157.621094"/>
     <use xlink:href="#DejaVuSans-61" x="1221"/>
     <use xlink:href="#DejaVuSans-6c" x="1282.279297"/>
     <use xlink:href="#DejaVuSans-20" x="1310.0625"/>
     <use xlink:href="#DejaVuSans-49" x="1341.849609"/>
     <use xlink:href="#DejaVuSans-6e" x="1371.341797"/>
     <use xlink:href="#DejaVuSans-66" x="1434.720703"/>
     <use xlink:href="#DejaVuSans-6f" x="1469.925781"/>
     <use xlink:href="#DejaVuSans-72" x="1531.107422"/>
     <use xlink:href="#DejaVuSans-6d" x="1570.470703"/>
     <use xlink:href="#DejaVuSans-61" x="1667.882812"/>
     <use xlink:href="#DejaVuSans-74" x="1729.162109"/>
     <use xlink:href="#DejaVuSans-69" x="1768.371094"/>
     <use xlink:href="#DejaVuSans-6f" x="1796.154297"/>
     <use xlink:href="#DejaVuSans-6e" x="1857.335938"/>
     <use xlink:href="#DejaVuSans-20" x="1920.714844"/>
     <use xlink:href="#DejaVuSans-2d" x="1952.501953"/>
     <use xlink:href="#DejaVuSans-20" x="1988.585938"/>
     <use xlink:href="#DejaVuSans-58" x="2020.373047"/>
     <use xlink:href="#DejaVuSans-20" x="2088.878906"/>
     <use xlink:href="#DejaVuSans-61" x="2120.666016"/>
     <use xlink:href="#DejaVuSans-73" x="2181.945312"/>
     <use xlink:href="#DejaVuSans-20" x="2234.044922"/>
     <use xlink:href="#DejaVuSans-54" x="2265.832031"/>
     <use xlink:href="#DejaVuSans-72" x="2312.166016"/>
     <use xlink:href="#DejaVuSans-75" x="2353.279297"/>
     <use xlink:href="#DejaVuSans-74" x="2416.658203"/>
     <use xlink:href="#DejaVuSans-68" x="2455.867188"/>
     <use xlink:href="#DejaVuSans-20" x="2519.246094"/>
    </g>
    <!-- All modules, including non-optimal -->
    <g transform="translate(241.26875 100.03725) scale(0.16 -0.16)">
     <defs>
      <path id="DejaVuSans-67" d="M 2906 1791 
Q 2906 2416 2648 2759 
Q 2391 3103 1925 3103 
Q 1463 3103 1205 2759 
Q 947 2416 947 1791 
Q 947 1169 1205 825 
Q 1463 481 1925 481 
Q 2391 481 2648 825 
Q 2906 1169 2906 1791 
z
M 3481 434 
Q 3481 -459 3084 -895 
Q 2688 -1331 1869 -1331 
Q 1566 -1331 1297 -1286 
Q 1028 -1241 775 -1147 
L 775 -588 
Q 1028 -725 1275 -790 
Q 1522 -856 1778 -856 
Q 2344 -856 2625 -561 
Q 2906 -266 2906 331 
L 2906 616 
Q 2728 306 2450 153 
Q 2172 0 1784 0 
Q 1141 0 747 490 
Q 353 981 353 1791 
Q 353 2603 747 3093 
Q 1141 3584 1784 3584 
Q 2172 3584 2450 3431 
Q 2728 3278 2906 2969 
L 2906 3500 
L 3481 3500 
L 3481 434 
z
" transform="scale(0.015625)"/>
     </defs>
     <use xlink:href="#DejaVuSans-41"/>
     <use xlink:href="#DejaVuSans-6c" x="68.408203"/>
     <use xlink:href="#DejaVuSans-6c" x="96.191406"/>
     <use xlink:href="#DejaVuSans-20" x="123.974609"/>
     <use xlink:href="#DejaVuSans-6d" x="155.761719"/>
     <use xlink:href="#DejaVuSans-6f" x="253.173828"/>
     <use xlink:href="#DejaVuSans-64" x="314.355469"/>
     <use xlink:href="#DejaVuSans-75" x="377.832031"/>
     <use xlink:href="#DejaVuSans-6c" x="441.210938"/>
     <use xlink:href="#DejaVuSans-65" x="468.994141"/>
     <use xlink:href="#DejaVuSans-73" x="530.517578"/>
     <use xlink:href="#DejaVuSans-2c" x="582.617188"/>
     <use xlink:href="#DejaVuSans-20" x="614.404297"/>
     <use xlink:href="#DejaVuSans-69" x="646.191406"/>
     <use xlink:href="#DejaVuSans-6e" x="673.974609"/>
     <use xlink:href="#DejaVuSans-63" x="737.353516"/>
     <use xlink:href="#DejaVuSans-6c" x="792.333984"/>
     <use xlink:href="#DejaVuSans-75" x="820.117188"/>
     <use xlink:href="#DejaVuSans-64" x="883.496094"/>
     <use xlink:href="#DejaVuSans-69" x="946.972656"/>
     <use xlink:href="#DejaVuSans-6e" x="974.755859"/>
     <use xlink:href="#DejaVuSans-67" x="1038.134766"/>
     <use xlink:href="#DejaVuSans-20" x="1101.611328"/>
     <use xlink:href="#DejaVuSans-6e" x="1133.398438"/>
     <use xlink:href="#DejaVuSans-6f" x="1196.777344"/>
     <use xlink:href="#DejaVuSans-6e" x="1257.958984"/>
     <use xlink:href="#DejaVuSans-2d" x="1321.337891"/>
     <use xlink:href="#DejaVuSans-6f" x="1359.296875"/>
     <use xlink:href="#DejaVuSans-70" x="1420.478516"/>
     <use xlink:href="#DejaVuSans-74" x="1483.955078"/>
     <use xlink:href="#DejaVuSans-69" x="1523.164062"/>
     <use xlink:href="#DejaVuSans-6d" x="1550.947266"/>
     <use xlink:href="#DejaVuSans-61" x="1648.359375"/>
     <use xlink:href="#DejaVuSans-6c" x="1709.638672"/>
    </g>
   </g>
   <g id="legend_1">
    <g id="patch_7">
     <path d="M 272.959375 508.6 
L 487.560625 508.6 
Q 489.960625 508.6 489.960625 506.2 
L 489.960625 421.266875 
Q 489.960625 418.866875 487.560625 418.866875 
L 272.959375 418.866875 
Q 270.559375 418.866875 270.559375 421.266875 
L 270.559375 506.2 
Q 270.559375 508.6 272.959375 508.6 
z
" style="fill: #ffffff; opacity: 0.8; stroke: #cccccc; stroke-linejoin: miter"/>
    </g>
    <g id="text_13">
     <!-- Legend -->
     <g transform="translate(361.89125 431.265312) scale(0.1 -0.1)">
      <defs>
       <path id="DejaVuSans-4c" d="M 628 4666 
L 1259 4666 
L 1259 531 
L 3531 531 
L 3531 0 
L 628 0 
L 628 4666 
z
" transform="scale(0.015625)"/>
      </defs>
      <use xlink:href="#DejaVuSans-4c"/>
      <use xlink:href="#DejaVuSans-65" x="53.962891"/>
      <use xlink:href="#DejaVuSans-67" x="115.486328"/>
      <use xlink:href="#DejaVuSans-65" x="178.962891"/>
      <use xlink:href="#DejaVuSans-6e" x="240.486328"/>
      <use xlink:href="#DejaVuSans-64" x="303.865234"/>
     </g>
    </g>
    <g id="PathCollection_3">
     <g>
      <use xlink:href="#mff04c23a98" x="287.359375" y="445.313125" style="fill: #e41a1c; fill-opacity: 0.7; stroke: #ffffff; stroke-opacity: 0.7; stroke-width: 0.48"/>
     </g>
    </g>
    <g id="text_14">
     <!-- X Surface Area (mm) -->
     <g transform="translate(308.959375 448.463125) scale(0.12 -0.12)">
      <use xlink:href="#DejaVuSans-58"/>
      <use xlink:href="#DejaVuSans-20" x="68.505859"/>
      <use xlink:href="#DejaVuSans-53" x="100.292969"/>
      <use xlink:href="#DejaVuSans-75" x="163.769531"/>
      <use xlink:href="#DejaVuSans-72" x="227.148438"/>
      <use xlink:href="#DejaVuSans-66" x="268.261719"/>
      <use xlink:href="#DejaVuSans-61" x="303.466797"/>
      <use xlink:href="#DejaVuSans-63" x="364.746094"/>
      <use xlink:href="#DejaVuSans-65" x="419.726562"/>
      <use xlink:href="#DejaVuSans-20" x="481.25"/>
      <use xlink:href="#DejaVuSans-41" x="513.037109"/>
      <use xlink:href="#DejaVuSans-72" x="581.445312"/>
      <use xlink:href="#DejaVuSans-65" x="620.308594"/>
      <use xlink:href="#DejaVuSans-61" x="681.832031"/>
      <use xlink:href="#DejaVuSans-20" x="743.111328"/>
      <use xlink:href="#DejaVuSans-28" x="774.898438"/>
      <use xlink:href="#DejaVuSans-6d" x="813.912109"/>
      <use xlink:href="#DejaVuSans-6d" x="911.324219"/>
      <use xlink:href="#DejaVuSans-29" x="1008.736328"/>
     </g>
    </g>
    <g id="line2d_21">
     <path d="M 275.359375 461.876875 
L 287.359375 461.876875 
L 299.359375 461.876875 
" style="fill: none; stroke-dasharray: 8.325,3.6; stroke-dashoffset: 0; stroke: #e41a1c; stroke-width: 2.25"/>
    </g>
    <g id="text_15">
     <!-- Linear (X Surface Area (mm)) -->
     <g transform="translate(308.959375 466.076875) scale(0.12 -0.12)">
      <use xlink:href="#DejaVuSans-4c"/>
      <use xlink:href="#DejaVuSans-69" x="55.712891"/>
      <use xlink:href="#DejaVuSans-6e" x="83.496094"/>
      <use xlink:href="#DejaVuSans-65" x="146.875"/>
      <use xlink:href="#DejaVuSans-61" x="208.398438"/>
      <use xlink:href="#DejaVuSans-72" x="269.677734"/>
      <use xlink:href="#DejaVuSans-20" x="310.791016"/>
      <use xlink:href="#DejaVuSans-28" x="342.578125"/>
      <use xlink:href="#DejaVuSans-58" x="381.591797"/>
      <use xlink:href="#DejaVuSans-20" x="450.097656"/>
      <use xlink:href="#DejaVuSans-53" x="481.884766"/>
      <use xlink:href="#DejaVuSans-75" x="545.361328"/>
      <use xlink:href="#DejaVuSans-72" x="608.740234"/>
      <use xlink:href="#DejaVuSans-66" x="649.853516"/>
      <use xlink:href="#DejaVuSans-61" x="685.058594"/>
      <use xlink:href="#DejaVuSans-63" x="746.337891"/>
      <use xlink:href="#DejaVuSans-65" x="801.318359"/>
      <use xlink:href="#DejaVuSans-20" x="862.841797"/>
      <use xlink:href="#DejaVuSans-41" x="894.628906"/>
      <use xlink:href="#DejaVuSans-72" x="963.037109"/>
      <use xlink:href="#DejaVuSans-65" x="1001.900391"/>
      <use xlink:href="#DejaVuSans-61" x="1063.423828"/>
      <use xlink:href="#DejaVuSans-20" x="1124.703125"/>
      <use xlink:href="#DejaVuSans-28" x="1156.490234"/>
      <use xlink:href="#DejaVuSans-6d" x="1195.503906"/>
      <use xlink:href="#DejaVuSans-6d" x="1292.916016"/>
      <use xlink:href="#DejaVuSans-29" x="1390.328125"/>
      <use xlink:href="#DejaVuSans-29" x="1429.341797"/>
     </g>
    </g>
    <g id="PathCollection_4">
     <g>
      <use xlink:href="#m79b4183073" x="287.359375" y="480.540625" style="fill: #377eb8; fill-opacity: 0.7; stroke: #ffffff; stroke-opacity: 0.7; stroke-width: 0.48"/>
     </g>
    </g>
    <g id="text_16">
     <!-- Y Surface Area (mm) -->
     <g transform="translate(308.959375 483.690625) scale(0.12 -0.12)">
      <use xlink:href="#DejaVuSans-59"/>
      <use xlink:href="#DejaVuSans-20" x="61.083984"/>
      <use xlink:href="#DejaVuSans-53" x="92.871094"/>
      <use xlink:href="#DejaVuSans-75" x="156.347656"/>
      <use xlink:href="#DejaVuSans-72" x="219.726562"/>
      <use xlink:href="#DejaVuSans-66" x="260.839844"/>
      <use xlink:href="#DejaVuSans-61" x="296.044922"/>
      <use xlink:href="#DejaVuSans-63" x="357.324219"/>
      <use xlink:href="#DejaVuSans-65" x="412.304688"/>
      <use xlink:href="#DejaVuSans-20" x="473.828125"/>
      <use xlink:href="#DejaVuSans-41" x="505.615234"/>
      <use xlink:href="#DejaVuSans-72" x="574.023438"/>
      <use xlink:href="#DejaVuSans-65" x="612.886719"/>
      <use xlink:href="#DejaVuSans-61" x="674.410156"/>
      <use xlink:href="#DejaVuSans-20" x="735.689453"/>
      <use xlink:href="#DejaVuSans-28" x="767.476562"/>
      <use xlink:href="#DejaVuSans-6d" x="806.490234"/>
      <use xlink:href="#DejaVuSans-6d" x="903.902344"/>
      <use xlink:href="#DejaVuSans-29" x="1001.314453"/>
     </g>
    </g>
    <g id="line2d_22">
     <path d="M 275.359375 497.104375 
L 287.359375 497.104375 
L 299.359375 497.104375 
" style="fill: none; stroke-dasharray: 8.325,3.6; stroke-dashoffset: 0; stroke: #377eb8; stroke-width: 2.25"/>
    </g>
    <g id="text_17">
     <!-- Linear (Y Surface Area (mm)) -->
     <g transform="translate(308.959375 501.304375) scale(0.12 -0.12)">
      <use xlink:href="#DejaVuSans-4c"/>
      <use xlink:href="#DejaVuSans-69" x="55.712891"/>
      <use xlink:href="#DejaVuSans-6e" x="83.496094"/>
      <use xlink:href="#DejaVuSans-65" x="146.875"/>
      <use xlink:href="#DejaVuSans-61" x="208.398438"/>
      <use xlink:href="#DejaVuSans-72" x="269.677734"/>
      <use xlink:href="#DejaVuSans-20" x="310.791016"/>
      <use xlink:href="#DejaVuSans-28" x="342.578125"/>
      <use xlink:href="#DejaVuSans-59" x="381.591797"/>
      <use xlink:href="#DejaVuSans-20" x="442.675781"/>
      <use xlink:href="#DejaVuSans-53" x="474.462891"/>
      <use xlink:href="#DejaVuSans-75" x="537.939453"/>
      <use xlink:href="#DejaVuSans-72" x="601.318359"/>
      <use xlink:href="#DejaVuSans-66" x="642.431641"/>
      <use xlink:href="#DejaVuSans-61" x="677.636719"/>
      <use xlink:href="#DejaVuSans-63" x="738.916016"/>
      <use xlink:href="#DejaVuSans-65" x="793.896484"/>
      <use xlink:href="#DejaVuSans-20" x="855.419922"/>
      <use xlink:href="#DejaVuSans-41" x="887.207031"/>
      <use xlink:href="#DejaVuSans-72" x="955.615234"/>
      <use xlink:href="#DejaVuSans-65" x="994.478516"/>
      <use xlink:href="#DejaVuSans-61" x="1056.001953"/>
      <use xlink:href="#DejaVuSans-20" x="1117.28125"/>
      <use xlink:href="#DejaVuSans-28" x="1149.068359"/>
      <use xlink:href="#DejaVuSans-6d" x="1188.082031"/>
      <use xlink:href="#DejaVuSans-6d" x="1285.494141"/>
      <use xlink:href="#DejaVuSans-29" x="1382.90625"/>
      <use xlink:href="#DejaVuSans-29" x="1421.919922"/>
     </g>
    </g>
   </g>
  </g>
  <g id="text_18">
   <!-- Filters applied: Subject ID=All (1), Hemisphere=All (2), Task=All (5), -->
   <g transform="translate(190.042969 7.598438) scale(0.1 -0.1)">
    <defs>
     <path id="DejaVuSans-46" d="M 628 4666 
L 3309 4666 
L 3309 4134 
L 1259 4134 
L 1259 2759 
L 3109 2759 
L 3109 2228 
L 1259 2228 
L 1259 0 
L 628 0 
L 628 4666 
z
" transform="scale(0.015625)"/>
     <path id="DejaVuSans-62" d="M 3116 1747 
Q 3116 2381 2855 2742 
Q 2594 3103 2138 3103 
Q 1681 3103 1420 2742 
Q 1159 2381 1159 1747 
Q 1159 1113 1420 752 
Q 1681 391 2138 391 
Q 2594 391 2855 752 
Q 3116 1113 3116 1747 
z
M 1159 2969 
Q 1341 3281 1617 3432 
Q 1894 3584 2278 3584 
Q 2916 3584 3314 3078 
Q 3713 2572 3713 1747 
Q 3713 922 3314 415 
Q 2916 -91 2278 -91 
Q 1894 -91 1617 61 
Q 1341 213 1159 525 
L 1159 0 
L 581 0 
L 581 4863 
L 1159 4863 
L 1159 2969 
z
" transform="scale(0.015625)"/>
     <path id="DejaVuSans-6a" d="M 603 3500 
L 1178 3500 
L 1178 -63 
Q 1178 -731 923 -1031 
Q 669 -1331 103 -1331 
L -116 -1331 
L -116 -844 
L 38 -844 
Q 366 -844 484 -692 
Q 603 -541 603 -63 
L 603 3500 
z
M 603 4863 
L 1178 4863 
L 1178 4134 
L 603 4134 
L 603 4863 
z
" transform="scale(0.015625)"/>
     <path id="DejaVuSans-44" d="M 1259 4147 
L 1259 519 
L 2022 519 
Q 2988 519 3436 956 
Q 3884 1394 3884 2338 
Q 3884 3275 3436 3711 
Q 2988 4147 2022 4147 
L 1259 4147 
z
M 628 4666 
L 1925 4666 
Q 3281 4666 3915 4102 
Q 4550 3538 4550 2338 
Q 4550 1131 3912 565 
Q 3275 0 1925 0 
L 628 0 
L 628 4666 
z
" transform="scale(0.015625)"/>
     <path id="DejaVuSans-3d" d="M 678 2906 
L 4684 2906 
L 4684 2381 
L 678 2381 
L 678 2906 
z
M 678 1631 
L 4684 1631 
L 4684 1100 
L 678 1100 
L 678 1631 
z
" transform="scale(0.015625)"/>
     <path id="DejaVuSans-48" d="M 628 4666 
L 1259 4666 
L 1259 2753 
L 3553 2753 
L 3553 4666 
L 4184 4666 
L 4184 0 
L 3553 0 
L 3553 2222 
L 1259 2222 
L 1259 0 
L 628 0 
L 628 4666 
z
" transform="scale(0.015625)"/>
     <path id="DejaVuSans-6b" d="M 581 4863 
L 1159 4863 
L 1159 1991 
L 2875 3500 
L 3609 3500 
L 1753 1863 
L 3688 0 
L 2938 0 
L 1159 1709 
L 1159 0 
L 581 0 
L 581 4863 
z
" transform="scale(0.015625)"/>
    </defs>
    <use xlink:href="#DejaVuSans-46"/>
    <use xlink:href="#DejaVuSans-69" x="50.269531"/>
    <use xlink:href="#DejaVuSans-6c" x="78.052734"/>
    <use xlink:href="#DejaVuSans-74" x="105.835938"/>
    <use xlink:href="#DejaVuSans-65" x="145.044922"/>
    <use xlink:href="#DejaVuSans-72" x="206.568359"/>
    <use xlink:href="#DejaVuSans-73" x="247.681641"/>
    <use xlink:href="#DejaVuSans-20" x="299.78125"/>
    <use xlink:href="#DejaVuSans-61" x="331.568359"/>
    <use xlink:href="#DejaVuSans-70" x="392.847656"/>
    <use xlink:href="#DejaVuSans-70" x="456.324219"/>
    <use xlink:href="#DejaVuSans-6c" x="519.800781"/>
    <use xlink:href="#DejaVuSans-69" x="547.583984"/>
    <use xlink:href="#DejaVuSans-65" x="575.367188"/>
    <use xlink:href="#DejaVuSans-64" x="636.890625"/>
    <use xlink:href="#DejaVuSans-3a" x="700.367188"/>
    <use xlink:href="#DejaVuSans-20" x="734.058594"/>
    <use xlink:href="#DejaVuSans-53" x="765.845703"/>
    <use xlink:href="#DejaVuSans-75" x="829.322266"/>
    <use xlink:href="#DejaVuSans-62" x="892.701172"/>
    <use xlink:href="#DejaVuSans-6a" x="956.177734"/>
    <use xlink:href="#DejaVuSans-65" x="983.960938"/>
    <use xlink:href="#DejaVuSans-63" x="1045.484375"/>
    <use xlink:href="#DejaVuSans-74" x="1100.464844"/>
    <use xlink:href="#DejaVuSans-20" x="1139.673828"/>
    <use xlink:href="#DejaVuSans-49" x="1171.460938"/>
    <use xlink:href="#DejaVuSans-44" x="1200.953125"/>
    <use xlink:href="#DejaVuSans-3d" x="1277.955078"/>
    <use xlink:href="#DejaVuSans-41" x="1361.744141"/>
    <use xlink:href="#DejaVuSans-6c" x="1430.152344"/>
    <use xlink:href="#DejaVuSans-6c" x="1457.935547"/>
    <use xlink:href="#DejaVuSans-20" x="1485.71875"/>
    <use xlink:href="#DejaVuSans-28" x="1517.505859"/>
    <use xlink:href="#DejaVuSans-31" x="1556.519531"/>
    <use xlink:href="#DejaVuSans-29" x="1620.142578"/>
    <use xlink:href="#DejaVuSans-2c" x="1659.15625"/>
    <use xlink:href="#DejaVuSans-20" x="1690.943359"/>
    <use xlink:href="#DejaVuSans-48" x="1722.730469"/>
    <use xlink:href="#DejaVuSans-65" x="1797.925781"/>
    <use xlink:href="#DejaVuSans-6d" x="1859.449219"/>
    <use xlink:href="#DejaVuSans-69" x="1956.861328"/>
    <use xlink:href="#DejaVuSans-73" x="1984.644531"/>
    <use xlink:href="#DejaVuSans-70" x="2036.744141"/>
    <use xlink:href="#DejaVuSans-68" x="2100.220703"/>
    <use xlink:href="#DejaVuSans-65" x="2163.599609"/>
    <use xlink:href="#DejaVuSans-72" x="2225.123047"/>
    <use xlink:href="#DejaVuSans-65" x="2263.986328"/>
    <use xlink:href="#DejaVuSans-3d" x="2325.509766"/>
    <use xlink:href="#DejaVuSans-41" x="2409.298828"/>
    <use xlink:href="#DejaVuSans-6c" x="2477.707031"/>
    <use xlink:href="#DejaVuSans-6c" x="2505.490234"/>
    <use xlink:href="#DejaVuSans-20" x="2533.273438"/>
    <use xlink:href="#DejaVuSans-28" x="2565.060547"/>
    <use xlink:href="#DejaVuSans-32" x="2604.074219"/>
    <use xlink:href="#DejaVuSans-29" x="2667.697266"/>
    <use xlink:href="#DejaVuSans-2c" x="2706.710938"/>
    <use xlink:href="#DejaVuSans-20" x="2738.498047"/>
    <use xlink:href="#DejaVuSans-54" x="2770.285156"/>
    <use xlink:href="#DejaVuSans-61" x="2814.869141"/>
    <use xlink:href="#DejaVuSans-73" x="2876.148438"/>
    <use xlink:href="#DejaVuSans-6b" x="2928.248047"/>
    <use xlink:href="#DejaVuSans-3d" x="2986.158203"/>
    <use xlink:href="#DejaVuSans-41" x="3069.947266"/>
    <use xlink:href="#DejaVuSans-6c" x="3138.355469"/>
    <use xlink:href="#DejaVuSans-6c" x="3166.138672"/>
    <use xlink:href="#DejaVuSans-20" x="3193.921875"/>
    <use xlink:href="#DejaVuSans-28" x="3225.708984"/>
    <use xlink:href="#DejaVuSans-35" x="3264.722656"/>
    <use xlink:href="#DejaVuSans-29" x="3328.345703"/>
    <use xlink:href="#DejaVuSans-2c" x="3367.359375"/>
   </g>
   <!-- Statistical Test=['Normalized Mutual Information - X as Truth'], -->
   <g transform="translate(203.967969 18.79625) scale(0.1 -0.1)">
    <defs>
     <path id="DejaVuSans-5b" d="M 550 4863 
L 1875 4863 
L 1875 4416 
L 1125 4416 
L 1125 -397 
L 1875 -397 
L 1875 -844 
L 550 -844 
L 550 4863 
z
" transform="scale(0.015625)"/>
     <path id="DejaVuSans-27" d="M 1147 4666 
L 1147 2931 
L 616 2931 
L 616 4666 
L 1147 4666 
z
" transform="scale(0.015625)"/>
     <path id="DejaVuSans-5d" d="M 1947 4863 
L 1947 -844 
L 622 -844 
L 622 -397 
L 1369 -397 
L 1369 4416 
L 622 4416 
L 622 4863 
L 1947 4863 
z
" transform="scale(0.015625)"/>
    </defs>
    <use xlink:href="#DejaVuSans-53"/>
    <use xlink:href="#DejaVuSans-74" x="63.476562"/>
    <use xlink:href="#DejaVuSans-61" x="102.685547"/>
    <use xlink:href="#DejaVuSans-74" x="163.964844"/>
    <use xlink:href="#DejaVuSans-69" x="203.173828"/>
    <use xlink:href="#DejaVuSans-73" x="230.957031"/>
    <use xlink:href="#DejaVuSans-74" x="283.056641"/>
    <use xlink:href="#DejaVuSans-69" x="322.265625"/>
    <use xlink:href="#DejaVuSans-63" x="350.048828"/>
    <use xlink:href="#DejaVuSans-61" x="405.029297"/>
    <use xlink:href="#DejaVuSans-6c" x="466.308594"/>
    <use xlink:href="#DejaVuSans-20" x="494.091797"/>
    <use xlink:href="#DejaVuSans-54" x="525.878906"/>
    <use xlink:href="#DejaVuSans-65" x="569.962891"/>
    <use xlink:href="#DejaVuSans-73" x="631.486328"/>
    <use xlink:href="#DejaVuSans-74" x="683.585938"/>
    <use xlink:href="#DejaVuSans-3d" x="722.794922"/>
    <use xlink:href="#DejaVuSans-5b" x="806.583984"/>
    <use xlink:href="#DejaVuSans-27" x="845.597656"/>
    <use xlink:href="#DejaVuSans-4e" x="873.087891"/>
    <use xlink:href="#DejaVuSans-6f" x="947.892578"/>
    <use xlink:href="#DejaVuSans-72" x="1009.074219"/>
    <use xlink:href="#DejaVuSans-6d" x="1048.4375"/>
    <use xlink:href="#DejaVuSans-61" x="1145.849609"/>
    <use xlink:href="#DejaVuSans-6c" x="1207.128906"/>
    <use xlink:href="#DejaVuSans-69" x="1234.912109"/>
    <use xlink:href="#DejaVuSans-7a" x="1262.695312"/>
    <use xlink:href="#DejaVuSans-65" x="1315.185547"/>
    <use xlink:href="#DejaVuSans-64" x="1376.708984"/>
    <use xlink:href="#DejaVuSans-20" x="1440.185547"/>
    <use xlink:href="#DejaVuSans-4d" x="1471.972656"/>
    <use xlink:href="#DejaVuSans-75" x="1558.251953"/>
    <use xlink:href="#DejaVuSans-74" x="1621.630859"/>
    <use xlink:href="#DejaVuSans-75" x="1660.839844"/>
    <use xlink:href="#DejaVuSans-61" x="1724.21875"/>
    <use xlink:href="#DejaVuSans-6c" x="1785.498047"/>
    <use xlink:href="#DejaVuSans-20" x="1813.28125"/>
    <use xlink:href="#DejaVuSans-49" x="1845.068359"/>
    <use xlink:href="#DejaVuSans-6e" x="1874.560547"/>
    <use xlink:href="#DejaVuSans-66" x="1937.939453"/>
    <use xlink:href="#DejaVuSans-6f" x="1973.144531"/>
    <use xlink:href="#DejaVuSans-72" x="2034.326172"/>
    <use xlink:href="#DejaVuSans-6d" x="2073.689453"/>
    <use xlink:href="#DejaVuSans-61" x="2171.101562"/>
    <use xlink:href="#DejaVuSans-74" x="2232.380859"/>
    <use xlink:href="#DejaVuSans-69" x="2271.589844"/>
    <use xlink:href="#DejaVuSans-6f" x="2299.373047"/>
    <use xlink:href="#DejaVuSans-6e" x="2360.554688"/>
    <use xlink:href="#DejaVuSans-20" x="2423.933594"/>
    <use xlink:href="#DejaVuSans-2d" x="2455.720703"/>
    <use xlink:href="#DejaVuSans-20" x="2491.804688"/>
    <use xlink:href="#DejaVuSans-58" x="2523.591797"/>
    <use xlink:href="#DejaVuSans-20" x="2592.097656"/>
    <use xlink:href="#DejaVuSans-61" x="2623.884766"/>
    <use xlink:href="#DejaVuSans-73" x="2685.164062"/>
    <use xlink:href="#DejaVuSans-20" x="2737.263672"/>
    <use xlink:href="#DejaVuSans-54" x="2769.050781"/>
    <use xlink:href="#DejaVuSans-72" x="2815.384766"/>
    <use xlink:href="#DejaVuSans-75" x="2856.498047"/>
    <use xlink:href="#DejaVuSans-74" x="2919.876953"/>
    <use xlink:href="#DejaVuSans-68" x="2959.085938"/>
    <use xlink:href="#DejaVuSans-27" x="3022.464844"/>
    <use xlink:href="#DejaVuSans-5d" x="3049.955078"/>
    <use xlink:href="#DejaVuSans-2c" x="3088.96875"/>
   </g>
   <!-- Dataset=['cleaned_words'] -->
   <g transform="translate(292.486719 29.994063) scale(0.1 -0.1)">
    <defs>
     <path id="DejaVuSans-5f" d="M 3263 -1063 
L 3263 -1509 
L -63 -1509 
L -63 -1063 
L 3263 -1063 
z
" transform="scale(0.015625)"/>
     <path id="DejaVuSans-77" d="M 269 3500 
L 844 3500 
L 1563 769 
L 2278 3500 
L 2956 3500 
L 3675 769 
L 4391 3500 
L 4966 3500 
L 4050 0 
L 3372 0 
L 2619 2869 
L 1863 0 
L 1184 0 
L 269 3500 
z
" transform="scale(0.015625)"/>
    </defs>
    <use xlink:href="#DejaVuSans-44"/>
    <use xlink:href="#DejaVuSans-61" x="77.001953"/>
    <use xlink:href="#DejaVuSans-74" x="138.28125"/>
    <use xlink:href="#DejaVuSans-61" x="177.490234"/>
    <use xlink:href="#DejaVuSans-73" x="238.769531"/>
    <use xlink:href="#DejaVuSans-65" x="290.869141"/>
    <use xlink:href="#DejaVuSans-74" x="352.392578"/>
    <use xlink:href="#DejaVuSans-3d" x="391.601562"/>
    <use xlink:href="#DejaVuSans-5b" x="475.390625"/>
    <use xlink:href="#DejaVuSans-27" x="514.404297"/>
    <use xlink:href="#DejaVuSans-63" x="541.894531"/>
    <use xlink:href="#DejaVuSans-6c" x="596.875"/>
    <use xlink:href="#DejaVuSans-65" x="624.658203"/>
    <use xlink:href="#DejaVuSans-61" x="686.181641"/>
    <use xlink:href="#DejaVuSans-6e" x="747.460938"/>
    <use xlink:href="#DejaVuSans-65" x="810.839844"/>
    <use xlink:href="#DejaVuSans-64" x="872.363281"/>
    <use xlink:href="#DejaVuSans-5f" x="935.839844"/>
    <use xlink:href="#DejaVuSans-77" x="985.839844"/>
    <use xlink:href="#DejaVuSans-6f" x="1067.626953"/>
    <use xlink:href="#DejaVuSans-72" x="1128.808594"/>
    <use xlink:href="#DejaVuSans-64" x="1168.171875"/>
    <use xlink:href="#DejaVuSans-73" x="1231.648438"/>
    <use xlink:href="#DejaVuSans-27" x="1283.748047"/>
    <use xlink:href="#DejaVuSans-5d" x="1311.238281"/>
   </g>
  </g>
 </g>
 <defs>
  <clipPath id="pf5f010e7f1">
   <rect x="51.32" y="106.03725" width="657.88" height="408.56275"/>
  </clipPath>
 </defs>
</svg>
