<?xml version="1.0" encoding="utf-8" standalone="no"?>
<!DOCTYPE svg PUBLIC "-//W3C//DTD SVG 1.1//EN"
  "http://www.w3.org/Graphics/SVG/1.1/DTD/svg11.dtd">
<svg xmlns:xlink="http://www.w3.org/1999/xlink" width="864pt" height="864pt" viewBox="0 0 864 864" xmlns="http://www.w3.org/2000/svg" version="1.1">
 <metadata>
  <rdf:RDF xmlns:dc="http://purl.org/dc/elements/1.1/" xmlns:cc="http://creativecommons.org/ns#" xmlns:rdf="http://www.w3.org/1999/02/22-rdf-syntax-ns#">
   <cc:Work>
    <dc:type rdf:resource="http://purl.org/dc/dcmitype/StillImage"/>
    <dc:date>2024-11-26T00:36:16.936418</dc:date>
    <dc:format>image/svg+xml</dc:format>
    <dc:creator>
     <cc:Agent>
      <dc:title>Matplotlib v3.9.2, https://matplotlib.org/</dc:title>
     </cc:Agent>
    </dc:creator>
   </cc:Work>
  </rdf:RDF>
 </metadata>
 <defs>
  <style type="text/css">*{stroke-linejoin: round; stroke-linecap: butt}</style>
 </defs>
 <g id="figure_1">
  <g id="patch_1">
   <path d="M 0 864 
L 864 864 
L 864 0 
L 0 0 
z
" style="fill: #ffffff"/>
  </g>
  <g id="axes_1">
   <g id="patch_2">
    <path d="M 60.77 661.48 
L 825.72 661.48 
L 825.72 89.232 
L 60.77 89.232 
z
" style="fill: #ffffff"/>
   </g>
   <g id="PolyCollection_1">
    <defs>
     <path id="m2164ee8636" d="M 278.596077 -228.531273 
L 278.553233 -228.531273 
L 278.487572 -233.786075 
L 278.389905 -239.040878 
L 278.301622 -244.29568 
L 278.277285 -249.550483 
L 278.324173 -254.805286 
L 278.383794 -260.060088 
L 278.38617 -265.314891 
L 278.30616 -270.569693 
L 278.15829 -275.824496 
L 277.952634 -281.079298 
L 277.672353 -286.334101 
L 277.288902 -291.588904 
L 276.783435 -296.843706 
L 276.166449 -302.098509 
L 275.489752 -307.353311 
L 274.797607 -312.608114 
L 274.047565 -317.862916 
L 273.136619 -323.117719 
L 272.007387 -328.372522 
L 270.666025 -333.627324 
L 269.144738 -338.882127 
L 267.552967 -344.136929 
L 266.125302 -349.391732 
L 265.107715 -354.646534 
L 264.576175 -359.901337 
L 264.380594 -365.15614 
L 264.248043 -370.410942 
L 263.945363 -375.665745 
L 263.377052 -380.920547 
L 262.543592 -386.17535 
L 261.430431 -391.430152 
L 259.97257 -396.684955 
L 258.09701 -401.939758 
L 255.76387 -407.19456 
L 253.00702 -412.449363 
L 249.924658 -417.704165 
L 246.57458 -422.958968 
L 242.927285 -428.21377 
L 238.893763 -433.468573 
L 234.234086 -438.723376 
L 228.483042 -443.978178 
L 221.175032 -449.232981 
L 212.181158 -454.487783 
L 201.811997 -459.742586 
L 190.744804 -464.997388 
L 179.913994 -470.252191 
L 170.123878 -475.506994 
L 161.41971 -480.761796 
L 153.084563 -486.016599 
L 144.665036 -491.271401 
L 137.001579 -496.526204 
L 132.151579 -501.781006 
L 132.31466 -507.035809 
L 138.765567 -512.290612 
L 151.443919 -517.545414 
L 168.927016 -522.800217 
L 188.759559 -528.055019 
L 208.501123 -533.309822 
L 226.658024 -538.564624 
L 242.427404 -543.819427 
L 255.0641 -549.07423 
L 264.072797 -554.329032 
L 269.732499 -559.583835 
L 272.990259 -564.838637 
L 274.851482 -570.09344 
L 275.956388 -575.348242 
L 276.614523 -580.603045 
L 277.031792 -585.857848 
L 277.392402 -591.11265 
L 277.777808 -596.367453 
L 278.136243 -601.622255 
L 278.38219 -606.877058 
L 278.491124 -612.13186 
L 278.49815 -617.386663 
L 278.456124 -622.641466 
L 278.408032 -627.896268 
L 278.368384 -633.151071 
L 278.32464 -638.405873 
L 278.273948 -643.660676 
L 278.243559 -648.915478 
L 278.24803 -654.170281 
L 278.249745 -659.425084 
L 278.205007 -664.679886 
L 278.138595 -669.934689 
L 278.128776 -675.189491 
L 278.214812 -680.444294 
L 278.353314 -685.699096 
L 278.470023 -690.953899 
L 278.522843 -696.208702 
L 278.510056 -701.463504 
L 278.449439 -706.718307 
L 278.364697 -711.973109 
L 278.279909 -717.227912 
L 278.221184 -722.482714 
L 278.218813 -727.737517 
L 278.286472 -732.99232 
L 278.39609 -738.247122 
L 278.496689 -743.501925 
L 278.558543 -748.756727 
L 278.596077 -748.756727 
L 278.596077 -748.756727 
L 278.596077 -743.501925 
L 278.596077 -738.247122 
L 278.596077 -732.99232 
L 278.596077 -727.737517 
L 278.596077 -722.482714 
L 278.596077 -717.227912 
L 278.596077 -711.973109 
L 278.596077 -706.718307 
L 278.596077 -701.463504 
L 278.596077 -696.208702 
L 278.596077 -690.953899 
L 278.596077 -685.699096 
L 278.596077 -680.444294 
L 278.596077 -675.189491 
L 278.596077 -669.934689 
L 278.596077 -664.679886 
L 278.596077 -659.425084 
L 278.596077 -654.170281 
L 278.596077 -648.915478 
L 278.596077 -643.660676 
L 278.596077 -638.405873 
L 278.596077 -633.151071 
L 278.596077 -627.896268 
L 278.596077 -622.641466 
L 278.596077 -617.386663 
L 278.596077 -612.13186 
L 278.596077 -606.877058 
L 278.596077 -601.622255 
L 278.596077 -596.367453 
L 278.596077 -591.11265 
L 278.596077 -585.857848 
L 278.596077 -580.603045 
L 278.596077 -575.348242 
L 278.596077 -570.09344 
L 278.596077 -564.838637 
L 278.596077 -559.583835 
L 278.596077 -554.329032 
L 278.596077 -549.07423 
L 278.596077 -543.819427 
L 278.596077 -538.564624 
L 278.596077 -533.309822 
L 278.596077 -528.055019 
L 278.596077 -522.800217 
L 278.596077 -517.545414 
L 278.596077 -512.290612 
L 278.596077 -507.035809 
L 278.596077 -501.781006 
L 278.596077 -496.526204 
L 278.596077 -491.271401 
L 278.596077 -486.016599 
L 278.596077 -480.761796 
L 278.596077 -475.506994 
L 278.596077 -470.252191 
L 278.596077 -464.997388 
L 278.596077 -459.742586 
L 278.596077 -454.487783 
L 278.596077 -449.232981 
L 278.596077 -443.978178 
L 278.596077 -438.723376 
L 278.596077 -433.468573 
L 278.596077 -428.21377 
L 278.596077 -422.958968 
L 278.596077 -417.704165 
L 278.596077 -412.449363 
L 278.596077 -407.19456 
L 278.596077 -401.939758 
L 278.596077 -396.684955 
L 278.596077 -391.430152 
L 278.596077 -386.17535 
L 278.596077 -380.920547 
L 278.596077 -375.665745 
L 278.596077 -370.410942 
L 278.596077 -365.15614 
L 278.596077 -359.901337 
L 278.596077 -354.646534 
L 278.596077 -349.391732 
L 278.596077 -344.136929 
L 278.596077 -338.882127 
L 278.596077 -333.627324 
L 278.596077 -328.372522 
L 278.596077 -323.117719 
L 278.596077 -317.862916 
L 278.596077 -312.608114 
L 278.596077 -307.353311 
L 278.596077 -302.098509 
L 278.596077 -296.843706 
L 278.596077 -291.588904 
L 278.596077 -286.334101 
L 278.596077 -281.079298 
L 278.596077 -275.824496 
L 278.596077 -270.569693 
L 278.596077 -265.314891 
L 278.596077 -260.060088 
L 278.596077 -254.805286 
L 278.596077 -249.550483 
L 278.596077 -244.29568 
L 278.596077 -239.040878 
L 278.596077 -233.786075 
L 278.596077 -228.531273 
z
" style="stroke: #3f3f3f; stroke-width: 1.25"/>
    </defs>
    <g clip-path="url(#p11a1971eb0)">
     <use xlink:href="#m2164ee8636" x="0" y="864" style="fill: #3274a1; stroke: #3f3f3f; stroke-width: 1.25"/>
    </g>
   </g>
   <g id="PolyCollection_2">
    <defs>
     <path id="m437ef37e99" d="M 278.643807 -269.76961 
L 278.596077 -269.76961 
L 278.596077 -274.555836 
L 278.596077 -279.342062 
L 278.596077 -284.128288 
L 278.596077 -288.914514 
L 278.596077 -293.700741 
L 278.596077 -298.486967 
L 278.596077 -303.273193 
L 278.596077 -308.059419 
L 278.596077 -312.845645 
L 278.596077 -317.631871 
L 278.596077 -322.418097 
L 278.596077 -327.204323 
L 278.596077 -331.990549 
L 278.596077 -336.776776 
L 278.596077 -341.563002 
L 278.596077 -346.349228 
L 278.596077 -351.135454 
L 278.596077 -355.92168 
L 278.596077 -360.707906 
L 278.596077 -365.494132 
L 278.596077 -370.280358 
L 278.596077 -375.066584 
L 278.596077 -379.85281 
L 278.596077 -384.639037 
L 278.596077 -389.425263 
L 278.596077 -394.211489 
L 278.596077 -398.997715 
L 278.596077 -403.783941 
L 278.596077 -408.570167 
L 278.596077 -413.356393 
L 278.596077 -418.142619 
L 278.596077 -422.928845 
L 278.596077 -427.715072 
L 278.596077 -432.501298 
L 278.596077 -437.287524 
L 278.596077 -442.07375 
L 278.596077 -446.859976 
L 278.596077 -451.646202 
L 278.596077 -456.432428 
L 278.596077 -461.218654 
L 278.596077 -466.00488 
L 278.596077 -470.791107 
L 278.596077 -475.577333 
L 278.596077 -480.363559 
L 278.596077 -485.149785 
L 278.596077 -489.936011 
L 278.596077 -494.722237 
L 278.596077 -499.508463 
L 278.596077 -504.294689 
L 278.596077 -509.080915 
L 278.596077 -513.867141 
L 278.596077 -518.653368 
L 278.596077 -523.439594 
L 278.596077 -528.22582 
L 278.596077 -533.012046 
L 278.596077 -537.798272 
L 278.596077 -542.584498 
L 278.596077 -547.370724 
L 278.596077 -552.15695 
L 278.596077 -556.943176 
L 278.596077 -561.729403 
L 278.596077 -566.515629 
L 278.596077 -571.301855 
L 278.596077 -576.088081 
L 278.596077 -580.874307 
L 278.596077 -585.660533 
L 278.596077 -590.446759 
L 278.596077 -595.232985 
L 278.596077 -600.019211 
L 278.596077 -604.805437 
L 278.596077 -609.591664 
L 278.596077 -614.37789 
L 278.596077 -619.164116 
L 278.596077 -623.950342 
L 278.596077 -628.736568 
L 278.596077 -633.522794 
L 278.596077 -638.30902 
L 278.596077 -643.095246 
L 278.596077 -647.881472 
L 278.596077 -652.667699 
L 278.596077 -657.453925 
L 278.596077 -662.240151 
L 278.596077 -667.026377 
L 278.596077 -671.812603 
L 278.596077 -676.598829 
L 278.596077 -681.385055 
L 278.596077 -686.171281 
L 278.596077 -690.957507 
L 278.596077 -695.743734 
L 278.596077 -700.52996 
L 278.596077 -705.316186 
L 278.596077 -710.102412 
L 278.596077 -714.888638 
L 278.596077 -719.674864 
L 278.596077 -724.46109 
L 278.596077 -729.247316 
L 278.596077 -734.033542 
L 278.596077 -738.819768 
L 278.596077 -743.605995 
L 278.642823 -743.605995 
L 278.642823 -743.605995 
L 278.74582 -738.819768 
L 278.909165 -734.033542 
L 279.032773 -729.247316 
L 279.03077 -724.46109 
L 278.954536 -719.674864 
L 278.876023 -714.888638 
L 278.787892 -710.102412 
L 278.694427 -705.316186 
L 278.637111 -700.52996 
L 278.642666 -695.743734 
L 278.73068 -690.957507 
L 278.906119 -686.171281 
L 279.098662 -681.385055 
L 279.191325 -676.598829 
L 279.151566 -671.812603 
L 279.051817 -667.026377 
L 278.966126 -662.240151 
L 278.936324 -657.453925 
L 278.982568 -652.667699 
L 279.071978 -647.881472 
L 279.113767 -643.095246 
L 279.028315 -638.30902 
L 278.850562 -633.522794 
L 278.696966 -628.736568 
L 278.622431 -623.950342 
L 278.600798 -619.164116 
L 278.599226 -614.37789 
L 278.615704 -609.591664 
L 278.691918 -604.805437 
L 278.909845 -600.019211 
L 279.297375 -595.232985 
L 279.711615 -590.446759 
L 279.97381 -585.660533 
L 280.144818 -580.874307 
L 280.475113 -576.088081 
L 281.095438 -571.301855 
L 281.946031 -566.515629 
L 283.164483 -561.729403 
L 285.509299 -556.943176 
L 290.157786 -552.15695 
L 298.012108 -547.370724 
L 308.996436 -542.584498 
L 321.997125 -537.798272 
L 336.537406 -533.012046 
L 353.600296 -528.22582 
L 372.764298 -523.439594 
L 390.889484 -518.653368 
L 405.443012 -513.867141 
L 416.127506 -509.080915 
L 422.736852 -504.294689 
L 425.040575 -499.508463 
L 424.722146 -494.722237 
L 424.181121 -489.936011 
L 423.971026 -485.149785 
L 422.261071 -480.363559 
L 416.246881 -475.577333 
L 405.464241 -470.791107 
L 392.793021 -466.00488 
L 380.607436 -461.218654 
L 368.68487 -456.432428 
L 356.688524 -451.646202 
L 345.622333 -446.859976 
L 336.470215 -442.07375 
L 328.793264 -437.287524 
L 321.219153 -432.501298 
L 313.347598 -427.715072 
L 306.428627 -422.928845 
L 301.592165 -418.142619 
L 298.40761 -413.356393 
L 295.8274 -408.570167 
L 293.274373 -403.783941 
L 290.571463 -398.997715 
L 287.876648 -394.211489 
L 285.593536 -389.425263 
L 283.964556 -384.639037 
L 283.007506 -379.85281 
L 282.604372 -375.066584 
L 282.373606 -370.280358 
L 281.816838 -365.494132 
L 280.882625 -360.707906 
L 280.05111 -355.92168 
L 279.639216 -351.135454 
L 279.487416 -346.349228 
L 279.350529 -341.563002 
L 279.195128 -336.776776 
L 279.103212 -331.990549 
L 279.078546 -327.204323 
L 279.052377 -322.418097 
L 278.99034 -317.631871 
L 278.893033 -312.845645 
L 278.776228 -308.059419 
L 278.689256 -303.273193 
L 278.689061 -298.486967 
L 278.796839 -293.700741 
L 278.950748 -288.914514 
L 279.008915 -284.128288 
L 278.907159 -279.342062 
L 278.747629 -274.555836 
L 278.643807 -269.76961 
z
" style="stroke: #3f3f3f; stroke-width: 1.25"/>
    </defs>
    <g clip-path="url(#p11a1971eb0)">
     <use xlink:href="#m437ef37e99" x="0" y="864" style="fill: #e1812c; stroke: #3f3f3f; stroke-width: 1.25"/>
    </g>
   </g>
   <g id="PolyCollection_3">
    <defs>
     <path id="mbab9522977" d="M 644.707322 -228.531273 
L 644.664478 -228.531273 
L 644.598817 -233.786075 
L 644.50115 -239.040878 
L 644.412867 -244.29568 
L 644.38853 -249.550483 
L 644.435417 -254.805286 
L 644.495039 -260.060088 
L 644.497415 -265.314891 
L 644.417405 -270.569693 
L 644.269535 -275.824496 
L 644.063879 -281.079298 
L 643.783598 -286.334101 
L 643.400147 -291.588904 
L 642.894679 -296.843706 
L 642.277694 -302.098509 
L 641.600997 -307.353311 
L 640.908852 -312.608114 
L 640.158809 -317.862916 
L 639.247863 -323.117719 
L 638.118632 -328.372522 
L 636.777269 -333.627324 
L 635.255983 -338.882127 
L 633.664212 -344.136929 
L 632.236546 -349.391732 
L 631.21896 -354.646534 
L 630.68742 -359.901337 
L 630.491838 -365.15614 
L 630.359288 -370.410942 
L 630.056608 -375.665745 
L 629.488296 -380.920547 
L 628.654837 -386.17535 
L 627.541676 -391.430152 
L 626.083814 -396.684955 
L 624.208255 -401.939758 
L 621.875115 -407.19456 
L 619.118265 -412.449363 
L 616.035903 -417.704165 
L 612.685825 -422.958968 
L 609.03853 -428.21377 
L 605.005008 -433.468573 
L 600.345331 -438.723376 
L 594.594287 -443.978178 
L 587.286277 -449.232981 
L 578.292403 -454.487783 
L 567.923242 -459.742586 
L 556.856049 -464.997388 
L 546.025239 -470.252191 
L 536.235123 -475.506994 
L 527.530955 -480.761796 
L 519.195808 -486.016599 
L 510.776281 -491.271401 
L 503.112824 -496.526204 
L 498.262824 -501.781006 
L 498.425905 -507.035809 
L 504.876812 -512.290612 
L 517.555163 -517.545414 
L 535.038261 -522.800217 
L 554.870804 -528.055019 
L 574.612368 -533.309822 
L 592.769269 -538.564624 
L 608.538649 -543.819427 
L 621.175345 -549.07423 
L 630.184042 -554.329032 
L 635.843744 -559.583835 
L 639.101504 -564.838637 
L 640.962727 -570.09344 
L 642.067633 -575.348242 
L 642.725768 -580.603045 
L 643.143037 -585.857848 
L 643.503647 -591.11265 
L 643.889053 -596.367453 
L 644.247488 -601.622255 
L 644.493434 -606.877058 
L 644.602369 -612.13186 
L 644.609395 -617.386663 
L 644.567369 -622.641466 
L 644.519277 -627.896268 
L 644.479629 -633.151071 
L 644.435885 -638.405873 
L 644.385193 -643.660676 
L 644.354804 -648.915478 
L 644.359275 -654.170281 
L 644.36099 -659.425084 
L 644.316252 -664.679886 
L 644.24984 -669.934689 
L 644.24002 -675.189491 
L 644.326057 -680.444294 
L 644.464559 -685.699096 
L 644.581268 -690.953899 
L 644.634088 -696.208702 
L 644.621301 -701.463504 
L 644.560684 -706.718307 
L 644.475942 -711.973109 
L 644.391154 -717.227912 
L 644.332429 -722.482714 
L 644.330058 -727.737517 
L 644.397717 -732.99232 
L 644.507335 -738.247122 
L 644.607933 -743.501925 
L 644.669787 -748.756727 
L 644.707322 -748.756727 
L 644.707322 -748.756727 
L 644.707322 -743.501925 
L 644.707322 -738.247122 
L 644.707322 -732.99232 
L 644.707322 -727.737517 
L 644.707322 -722.482714 
L 644.707322 -717.227912 
L 644.707322 -711.973109 
L 644.707322 -706.718307 
L 644.707322 -701.463504 
L 644.707322 -696.208702 
L 644.707322 -690.953899 
L 644.707322 -685.699096 
L 644.707322 -680.444294 
L 644.707322 -675.189491 
L 644.707322 -669.934689 
L 644.707322 -664.679886 
L 644.707322 -659.425084 
L 644.707322 -654.170281 
L 644.707322 -648.915478 
L 644.707322 -643.660676 
L 644.707322 -638.405873 
L 644.707322 -633.151071 
L 644.707322 -627.896268 
L 644.707322 -622.641466 
L 644.707322 -617.386663 
L 644.707322 -612.13186 
L 644.707322 -606.877058 
L 644.707322 -601.622255 
L 644.707322 -596.367453 
L 644.707322 -591.11265 
L 644.707322 -585.857848 
L 644.707322 -580.603045 
L 644.707322 -575.348242 
L 644.707322 -570.09344 
L 644.707322 -564.838637 
L 644.707322 -559.583835 
L 644.707322 -554.329032 
L 644.707322 -549.07423 
L 644.707322 -543.819427 
L 644.707322 -538.564624 
L 644.707322 -533.309822 
L 644.707322 -528.055019 
L 644.707322 -522.800217 
L 644.707322 -517.545414 
L 644.707322 -512.290612 
L 644.707322 -507.035809 
L 644.707322 -501.781006 
L 644.707322 -496.526204 
L 644.707322 -491.271401 
L 644.707322 -486.016599 
L 644.707322 -480.761796 
L 644.707322 -475.506994 
L 644.707322 -470.252191 
L 644.707322 -464.997388 
L 644.707322 -459.742586 
L 644.707322 -454.487783 
L 644.707322 -449.232981 
L 644.707322 -443.978178 
L 644.707322 -438.723376 
L 644.707322 -433.468573 
L 644.707322 -428.21377 
L 644.707322 -422.958968 
L 644.707322 -417.704165 
L 644.707322 -412.449363 
L 644.707322 -407.19456 
L 644.707322 -401.939758 
L 644.707322 -396.684955 
L 644.707322 -391.430152 
L 644.707322 -386.17535 
L 644.707322 -380.920547 
L 644.707322 -375.665745 
L 644.707322 -370.410942 
L 644.707322 -365.15614 
L 644.707322 -359.901337 
L 644.707322 -354.646534 
L 644.707322 -349.391732 
L 644.707322 -344.136929 
L 644.707322 -338.882127 
L 644.707322 -333.627324 
L 644.707322 -328.372522 
L 644.707322 -323.117719 
L 644.707322 -317.862916 
L 644.707322 -312.608114 
L 644.707322 -307.353311 
L 644.707322 -302.098509 
L 644.707322 -296.843706 
L 644.707322 -291.588904 
L 644.707322 -286.334101 
L 644.707322 -281.079298 
L 644.707322 -275.824496 
L 644.707322 -270.569693 
L 644.707322 -265.314891 
L 644.707322 -260.060088 
L 644.707322 -254.805286 
L 644.707322 -249.550483 
L 644.707322 -244.29568 
L 644.707322 -239.040878 
L 644.707322 -233.786075 
L 644.707322 -228.531273 
z
" style="stroke: #3f3f3f; stroke-width: 1.25"/>
    </defs>
    <g clip-path="url(#p11a1971eb0)">
     <use xlink:href="#mbab9522977" x="0" y="864" style="fill: #3274a1; stroke: #3f3f3f; stroke-width: 1.25"/>
    </g>
   </g>
   <g id="PolyCollection_4">
    <defs>
     <path id="m63af1e829f" d="M 644.739004 -268.45565 
L 644.707322 -268.45565 
L 644.707322 -273.255663 
L 644.707322 -278.055675 
L 644.707322 -282.855688 
L 644.707322 -287.6557 
L 644.707322 -292.455713 
L 644.707322 -297.255725 
L 644.707322 -302.055738 
L 644.707322 -306.85575 
L 644.707322 -311.655763 
L 644.707322 -316.455775 
L 644.707322 -321.255788 
L 644.707322 -326.0558 
L 644.707322 -330.855813 
L 644.707322 -335.655825 
L 644.707322 -340.455838 
L 644.707322 -345.25585 
L 644.707322 -350.055863 
L 644.707322 -354.855875 
L 644.707322 -359.655888 
L 644.707322 -364.4559 
L 644.707322 -369.255913 
L 644.707322 -374.055925 
L 644.707322 -378.855938 
L 644.707322 -383.65595 
L 644.707322 -388.455963 
L 644.707322 -393.255975 
L 644.707322 -398.055988 
L 644.707322 -402.856 
L 644.707322 -407.656013 
L 644.707322 -412.456025 
L 644.707322 -417.256038 
L 644.707322 -422.05605 
L 644.707322 -426.856063 
L 644.707322 -431.656075 
L 644.707322 -436.456088 
L 644.707322 -441.2561 
L 644.707322 -446.056113 
L 644.707322 -450.856125 
L 644.707322 -455.656138 
L 644.707322 -460.45615 
L 644.707322 -465.256163 
L 644.707322 -470.056175 
L 644.707322 -474.856188 
L 644.707322 -479.6562 
L 644.707322 -484.456213 
L 644.707322 -489.256225 
L 644.707322 -494.056238 
L 644.707322 -498.85625 
L 644.707322 -503.656263 
L 644.707322 -508.456275 
L 644.707322 -513.256288 
L 644.707322 -518.0563 
L 644.707322 -522.856313 
L 644.707322 -527.656325 
L 644.707322 -532.456338 
L 644.707322 -537.25635 
L 644.707322 -542.056363 
L 644.707322 -546.856375 
L 644.707322 -551.656388 
L 644.707322 -556.4564 
L 644.707322 -561.256413 
L 644.707322 -566.056425 
L 644.707322 -570.856438 
L 644.707322 -575.65645 
L 644.707322 -580.456463 
L 644.707322 -585.256475 
L 644.707322 -590.056488 
L 644.707322 -594.8565 
L 644.707322 -599.656513 
L 644.707322 -604.456525 
L 644.707322 -609.256538 
L 644.707322 -614.05655 
L 644.707322 -618.856563 
L 644.707322 -623.656575 
L 644.707322 -628.456588 
L 644.707322 -633.2566 
L 644.707322 -638.056613 
L 644.707322 -642.856625 
L 644.707322 -647.656638 
L 644.707322 -652.45665 
L 644.707322 -657.256663 
L 644.707322 -662.056675 
L 644.707322 -666.856688 
L 644.707322 -671.6567 
L 644.707322 -676.456713 
L 644.707322 -681.256725 
L 644.707322 -686.056738 
L 644.707322 -690.85675 
L 644.707322 -695.656763 
L 644.707322 -700.456775 
L 644.707322 -705.256788 
L 644.707322 -710.0568 
L 644.707322 -714.856813 
L 644.707322 -719.656825 
L 644.707322 -724.456838 
L 644.707322 -729.25685 
L 644.707322 -734.056863 
L 644.707322 -738.856875 
L 644.707322 -743.656888 
L 644.753934 -743.656888 
L 644.753934 -743.656888 
L 644.856533 -738.856875 
L 645.019285 -734.056863 
L 645.14276 -729.25685 
L 645.14136 -724.456838 
L 645.065534 -719.656825 
L 644.986664 -714.856813 
L 644.898426 -710.0568 
L 644.807172 -705.256788 
L 644.759124 -700.456775 
L 644.787318 -695.656763 
L 644.90394 -690.85675 
L 645.092122 -686.056738 
L 645.286724 -681.256725 
L 645.385186 -676.456713 
L 645.30854 -671.6567 
L 645.106178 -666.856688 
L 644.94217 -662.056675 
L 644.92265 -657.256663 
L 645.013831 -652.45665 
L 645.129535 -647.656638 
L 645.196104 -642.856625 
L 645.147548 -638.056613 
L 644.991613 -633.2566 
L 644.832174 -628.456588 
L 644.743697 -623.656575 
L 644.714561 -618.856563 
L 644.71137 -614.05655 
L 644.730063 -609.256538 
L 644.81445 -604.456525 
L 645.046645 -599.656513 
L 645.443256 -594.8565 
L 645.849635 -590.056488 
L 646.098804 -585.256475 
L 646.273376 -580.456463 
L 646.618724 -575.65645 
L 647.235427 -570.856438 
L 648.056056 -566.056425 
L 649.270318 -561.256413 
L 651.726071 -556.4564 
L 656.679533 -551.656388 
L 665.030865 -546.856375 
L 676.538513 -542.056363 
L 689.90052 -537.25635 
L 704.62305 -532.456338 
L 721.615676 -527.656325 
L 740.274621 -522.856313 
L 757.659858 -518.0563 
L 771.749656 -513.256288 
L 782.3419 -508.456275 
L 788.915755 -503.656263 
L 790.949545 -498.85625 
L 789.944443 -494.056238 
L 788.559379 -489.256225 
L 787.845565 -484.456213 
L 786.106953 -479.6562 
L 780.483083 -474.856188 
L 770.13718 -470.056175 
L 757.453363 -465.256163 
L 745.171729 -460.45615 
L 733.859008 -455.656138 
L 722.986751 -450.856125 
L 712.572912 -446.056113 
L 703.200576 -441.2561 
L 694.914649 -436.456088 
L 686.85333 -431.656075 
L 678.69673 -426.856063 
L 671.585672 -422.05605 
L 666.662532 -417.256038 
L 663.60835 -412.456025 
L 661.395415 -407.656013 
L 659.262628 -402.856 
L 656.741261 -398.055988 
L 653.906088 -393.255975 
L 651.371686 -388.455963 
L 649.688866 -383.65595 
L 648.99937 -378.855938 
L 648.934307 -374.055925 
L 648.711392 -369.255913 
L 647.83991 -364.4559 
L 646.699798 -359.655888 
L 645.973909 -354.855875 
L 645.768132 -350.055863 
L 645.691359 -345.25585 
L 645.500509 -340.455838 
L 645.294935 -335.655825 
L 645.20167 -330.855813 
L 645.1739 -326.0558 
L 645.128215 -321.255788 
L 645.055634 -316.455775 
L 644.96208 -311.655763 
L 644.862389 -306.85575 
L 644.813203 -302.055738 
L 644.862036 -297.255725 
L 644.983777 -292.455713 
L 645.079037 -287.6557 
L 645.05822 -282.855688 
L 644.937711 -278.055675 
L 644.81124 -273.255663 
L 644.739004 -268.45565 
z
" style="stroke: #3f3f3f; stroke-width: 1.25"/>
    </defs>
    <g clip-path="url(#p11a1971eb0)">
     <use xlink:href="#m63af1e829f" x="0" y="864" style="fill: #e1812c; stroke: #3f3f3f; stroke-width: 1.25"/>
    </g>
   </g>
   <g id="patch_3">
    <path d="M 278.596077 667.846036 
L 278.596077 667.846036 
L 278.596077 667.846036 
L 278.596077 667.846036 
z
" clip-path="url(#p11a1971eb0)" style="fill: #3274a1; stroke: #3f3f3f; stroke-width: 1.25; stroke-linejoin: miter"/>
   </g>
   <g id="patch_4">
    <path d="M 278.596077 667.846036 
L 278.596077 667.846036 
L 278.596077 667.846036 
L 278.596077 667.846036 
z
" clip-path="url(#p11a1971eb0)" style="fill: #e1812c; stroke: #3f3f3f; stroke-width: 1.25; stroke-linejoin: miter"/>
   </g>
   <g id="patch_5">
    <path d="M 95.540455 661.48 
L 461.651699 661.48 
L 461.651699 89.232 
L 95.540455 89.232 
z
" clip-path="url(#p11a1971eb0)" style="fill: #808080; opacity: 0.1; stroke: #808080; stroke-linejoin: miter"/>
   </g>
   <g id="matplotlib.axis_1">
    <g id="xtick_1">
     <g id="line2d_1">
      <defs>
       <path id="m04b8bd4cf6" d="M 0 0 
L 0 3.5 
" style="stroke: #000000; stroke-width: 0.8"/>
      </defs>
      <g>
       <use xlink:href="#m04b8bd4cf6" x="278.596077" y="661.48" style="stroke: #000000; stroke-width: 0.8"/>
      </g>
     </g>
     <g id="text_1">
      <!-- Levenshtein Distance - X as Truth -->
      <g transform="translate(281.355452 835.925313) rotate(-90) scale(0.1 -0.1)">
       <defs>
        <path id="DejaVuSans-4c" d="M 628 4666 
L 1259 4666 
L 1259 531 
L 3531 531 
L 3531 0 
L 628 0 
L 628 4666 
z
" transform="scale(0.015625)"/>
        <path id="DejaVuSans-65" d="M 3597 1894 
L 3597 1613 
L 953 1613 
Q 991 1019 1311 708 
Q 1631 397 2203 397 
Q 2534 397 2845 478 
Q 3156 559 3463 722 
L 3463 178 
Q 3153 47 2828 -22 
Q 2503 -91 2169 -91 
Q 1331 -91 842 396 
Q 353 884 353 1716 
Q 353 2575 817 3079 
Q 1281 3584 2069 3584 
Q 2775 3584 3186 3129 
Q 3597 2675 3597 1894 
z
M 3022 2063 
Q 3016 2534 2758 2815 
Q 2500 3097 2075 3097 
Q 1594 3097 1305 2825 
Q 1016 2553 972 2059 
L 3022 2063 
z
" transform="scale(0.015625)"/>
        <path id="DejaVuSans-76" d="M 191 3500 
L 800 3500 
L 1894 563 
L 2988 3500 
L 3597 3500 
L 2284 0 
L 1503 0 
L 191 3500 
z
" transform="scale(0.015625)"/>
        <path id="DejaVuSans-6e" d="M 3513 2113 
L 3513 0 
L 2938 0 
L 2938 2094 
Q 2938 2591 2744 2837 
Q 2550 3084 2163 3084 
Q 1697 3084 1428 2787 
Q 1159 2491 1159 1978 
L 1159 0 
L 581 0 
L 581 3500 
L 1159 3500 
L 1159 2956 
Q 1366 3272 1645 3428 
Q 1925 3584 2291 3584 
Q 2894 3584 3203 3211 
Q 3513 2838 3513 2113 
z
" transform="scale(0.015625)"/>
        <path id="DejaVuSans-73" d="M 2834 3397 
L 2834 2853 
Q 2591 2978 2328 3040 
Q 2066 3103 1784 3103 
Q 1356 3103 1142 2972 
Q 928 2841 928 2578 
Q 928 2378 1081 2264 
Q 1234 2150 1697 2047 
L 1894 2003 
Q 2506 1872 2764 1633 
Q 3022 1394 3022 966 
Q 3022 478 2636 193 
Q 2250 -91 1575 -91 
Q 1294 -91 989 -36 
Q 684 19 347 128 
L 347 722 
Q 666 556 975 473 
Q 1284 391 1588 391 
Q 1994 391 2212 530 
Q 2431 669 2431 922 
Q 2431 1156 2273 1281 
Q 2116 1406 1581 1522 
L 1381 1569 
Q 847 1681 609 1914 
Q 372 2147 372 2553 
Q 372 3047 722 3315 
Q 1072 3584 1716 3584 
Q 2034 3584 2315 3537 
Q 2597 3491 2834 3397 
z
" transform="scale(0.015625)"/>
        <path id="DejaVuSans-68" d="M 3513 2113 
L 3513 0 
L 2938 0 
L 2938 2094 
Q 2938 2591 2744 2837 
Q 2550 3084 2163 3084 
Q 1697 3084 1428 2787 
Q 1159 2491 1159 1978 
L 1159 0 
L 581 0 
L 581 4863 
L 1159 4863 
L 1159 2956 
Q 1366 3272 1645 3428 
Q 1925 3584 2291 3584 
Q 2894 3584 3203 3211 
Q 3513 2838 3513 2113 
z
" transform="scale(0.015625)"/>
        <path id="DejaVuSans-74" d="M 1172 4494 
L 1172 3500 
L 2356 3500 
L 2356 3053 
L 1172 3053 
L 1172 1153 
Q 1172 725 1289 603 
Q 1406 481 1766 481 
L 2356 481 
L 2356 0 
L 1766 0 
Q 1100 0 847 248 
Q 594 497 594 1153 
L 594 3053 
L 172 3053 
L 172 3500 
L 594 3500 
L 594 4494 
L 1172 4494 
z
" transform="scale(0.015625)"/>
        <path id="DejaVuSans-69" d="M 603 3500 
L 1178 3500 
L 1178 0 
L 603 0 
L 603 3500 
z
M 603 4863 
L 1178 4863 
L 1178 4134 
L 603 4134 
L 603 4863 
z
" transform="scale(0.015625)"/>
        <path id="DejaVuSans-20" transform="scale(0.015625)"/>
        <path id="DejaVuSans-44" d="M 1259 4147 
L 1259 519 
L 2022 519 
Q 2988 519 3436 956 
Q 3884 1394 3884 2338 
Q 3884 3275 3436 3711 
Q 2988 4147 2022 4147 
L 1259 4147 
z
M 628 4666 
L 1925 4666 
Q 3281 4666 3915 4102 
Q 4550 3538 4550 2338 
Q 4550 1131 3912 565 
Q 3275 0 1925 0 
L 628 0 
L 628 4666 
z
" transform="scale(0.015625)"/>
        <path id="DejaVuSans-61" d="M 2194 1759 
Q 1497 1759 1228 1600 
Q 959 1441 959 1056 
Q 959 750 1161 570 
Q 1363 391 1709 391 
Q 2188 391 2477 730 
Q 2766 1069 2766 1631 
L 2766 1759 
L 2194 1759 
z
M 3341 1997 
L 3341 0 
L 2766 0 
L 2766 531 
Q 2569 213 2275 61 
Q 1981 -91 1556 -91 
Q 1019 -91 701 211 
Q 384 513 384 1019 
Q 384 1609 779 1909 
Q 1175 2209 1959 2209 
L 2766 2209 
L 2766 2266 
Q 2766 2663 2505 2880 
Q 2244 3097 1772 3097 
Q 1472 3097 1187 3025 
Q 903 2953 641 2809 
L 641 3341 
Q 956 3463 1253 3523 
Q 1550 3584 1831 3584 
Q 2591 3584 2966 3190 
Q 3341 2797 3341 1997 
z
" transform="scale(0.015625)"/>
        <path id="DejaVuSans-63" d="M 3122 3366 
L 3122 2828 
Q 2878 2963 2633 3030 
Q 2388 3097 2138 3097 
Q 1578 3097 1268 2742 
Q 959 2388 959 1747 
Q 959 1106 1268 751 
Q 1578 397 2138 397 
Q 2388 397 2633 464 
Q 2878 531 3122 666 
L 3122 134 
Q 2881 22 2623 -34 
Q 2366 -91 2075 -91 
Q 1284 -91 818 406 
Q 353 903 353 1747 
Q 353 2603 823 3093 
Q 1294 3584 2113 3584 
Q 2378 3584 2631 3529 
Q 2884 3475 3122 3366 
z
" transform="scale(0.015625)"/>
        <path id="DejaVuSans-2d" d="M 313 2009 
L 1997 2009 
L 1997 1497 
L 313 1497 
L 313 2009 
z
" transform="scale(0.015625)"/>
        <path id="DejaVuSans-58" d="M 403 4666 
L 1081 4666 
L 2241 2931 
L 3406 4666 
L 4084 4666 
L 2584 2425 
L 4184 0 
L 3506 0 
L 2194 1984 
L 872 0 
L 191 0 
L 1856 2491 
L 403 4666 
z
" transform="scale(0.015625)"/>
        <path id="DejaVuSans-54" d="M -19 4666 
L 3928 4666 
L 3928 4134 
L 2272 4134 
L 2272 0 
L 1638 0 
L 1638 4134 
L -19 4134 
L -19 4666 
z
" transform="scale(0.015625)"/>
        <path id="DejaVuSans-72" d="M 2631 2963 
Q 2534 3019 2420 3045 
Q 2306 3072 2169 3072 
Q 1681 3072 1420 2755 
Q 1159 2438 1159 1844 
L 1159 0 
L 581 0 
L 581 3500 
L 1159 3500 
L 1159 2956 
Q 1341 3275 1631 3429 
Q 1922 3584 2338 3584 
Q 2397 3584 2469 3576 
Q 2541 3569 2628 3553 
L 2631 2963 
z
" transform="scale(0.015625)"/>
        <path id="DejaVuSans-75" d="M 544 1381 
L 544 3500 
L 1119 3500 
L 1119 1403 
Q 1119 906 1312 657 
Q 1506 409 1894 409 
Q 2359 409 2629 706 
Q 2900 1003 2900 1516 
L 2900 3500 
L 3475 3500 
L 3475 0 
L 2900 0 
L 2900 538 
Q 2691 219 2414 64 
Q 2138 -91 1772 -91 
Q 1169 -91 856 284 
Q 544 659 544 1381 
z
M 1991 3584 
L 1991 3584 
z
" transform="scale(0.015625)"/>
       </defs>
       <use xlink:href="#DejaVuSans-4c"/>
       <use xlink:href="#DejaVuSans-65" x="53.962891"/>
       <use xlink:href="#DejaVuSans-76" x="115.486328"/>
       <use xlink:href="#DejaVuSans-65" x="174.666016"/>
       <use xlink:href="#DejaVuSans-6e" x="236.189453"/>
       <use xlink:href="#DejaVuSans-73" x="299.568359"/>
       <use xlink:href="#DejaVuSans-68" x="351.667969"/>
       <use xlink:href="#DejaVuSans-74" x="415.046875"/>
       <use xlink:href="#DejaVuSans-65" x="454.255859"/>
       <use xlink:href="#DejaVuSans-69" x="515.779297"/>
       <use xlink:href="#DejaVuSans-6e" x="543.5625"/>
       <use xlink:href="#DejaVuSans-20" x="606.941406"/>
       <use xlink:href="#DejaVuSans-44" x="638.728516"/>
       <use xlink:href="#DejaVuSans-69" x="715.730469"/>
       <use xlink:href="#DejaVuSans-73" x="743.513672"/>
       <use xlink:href="#DejaVuSans-74" x="795.613281"/>
       <use xlink:href="#DejaVuSans-61" x="834.822266"/>
       <use xlink:href="#DejaVuSans-6e" x="896.101562"/>
       <use xlink:href="#DejaVuSans-63" x="959.480469"/>
       <use xlink:href="#DejaVuSans-65" x="1014.460938"/>
       <use xlink:href="#DejaVuSans-20" x="1075.984375"/>
       <use xlink:href="#DejaVuSans-2d" x="1107.771484"/>
       <use xlink:href="#DejaVuSans-20" x="1143.855469"/>
       <use xlink:href="#DejaVuSans-58" x="1175.642578"/>
       <use xlink:href="#DejaVuSans-20" x="1244.148438"/>
       <use xlink:href="#DejaVuSans-61" x="1275.935547"/>
       <use xlink:href="#DejaVuSans-73" x="1337.214844"/>
       <use xlink:href="#DejaVuSans-20" x="1389.314453"/>
       <use xlink:href="#DejaVuSans-54" x="1421.101562"/>
       <use xlink:href="#DejaVuSans-72" x="1467.435547"/>
       <use xlink:href="#DejaVuSans-75" x="1508.548828"/>
       <use xlink:href="#DejaVuSans-74" x="1571.927734"/>
       <use xlink:href="#DejaVuSans-68" x="1611.136719"/>
      </g>
     </g>
    </g>
    <g id="xtick_2">
     <g id="line2d_2">
      <g>
       <use xlink:href="#m04b8bd4cf6" x="644.707322" y="661.48" style="stroke: #000000; stroke-width: 0.8"/>
      </g>
     </g>
     <g id="text_2">
      <!-- Levenshtein Distance - Y as Truth -->
      <g transform="translate(647.466697 835.183125) rotate(-90) scale(0.1 -0.1)">
       <defs>
        <path id="DejaVuSans-59" d="M -13 4666 
L 666 4666 
L 1959 2747 
L 3244 4666 
L 3922 4666 
L 2272 2222 
L 2272 0 
L 1638 0 
L 1638 2222 
L -13 4666 
z
" transform="scale(0.015625)"/>
       </defs>
       <use xlink:href="#DejaVuSans-4c"/>
       <use xlink:href="#DejaVuSans-65" x="53.962891"/>
       <use xlink:href="#DejaVuSans-76" x="115.486328"/>
       <use xlink:href="#DejaVuSans-65" x="174.666016"/>
       <use xlink:href="#DejaVuSans-6e" x="236.189453"/>
       <use xlink:href="#DejaVuSans-73" x="299.568359"/>
       <use xlink:href="#DejaVuSans-68" x="351.667969"/>
       <use xlink:href="#DejaVuSans-74" x="415.046875"/>
       <use xlink:href="#DejaVuSans-65" x="454.255859"/>
       <use xlink:href="#DejaVuSans-69" x="515.779297"/>
       <use xlink:href="#DejaVuSans-6e" x="543.5625"/>
       <use xlink:href="#DejaVuSans-20" x="606.941406"/>
       <use xlink:href="#DejaVuSans-44" x="638.728516"/>
       <use xlink:href="#DejaVuSans-69" x="715.730469"/>
       <use xlink:href="#DejaVuSans-73" x="743.513672"/>
       <use xlink:href="#DejaVuSans-74" x="795.613281"/>
       <use xlink:href="#DejaVuSans-61" x="834.822266"/>
       <use xlink:href="#DejaVuSans-6e" x="896.101562"/>
       <use xlink:href="#DejaVuSans-63" x="959.480469"/>
       <use xlink:href="#DejaVuSans-65" x="1014.460938"/>
       <use xlink:href="#DejaVuSans-20" x="1075.984375"/>
       <use xlink:href="#DejaVuSans-2d" x="1107.771484"/>
       <use xlink:href="#DejaVuSans-20" x="1143.855469"/>
       <use xlink:href="#DejaVuSans-59" x="1175.642578"/>
       <use xlink:href="#DejaVuSans-20" x="1236.726562"/>
       <use xlink:href="#DejaVuSans-61" x="1268.513672"/>
       <use xlink:href="#DejaVuSans-73" x="1329.792969"/>
       <use xlink:href="#DejaVuSans-20" x="1381.892578"/>
       <use xlink:href="#DejaVuSans-54" x="1413.679688"/>
       <use xlink:href="#DejaVuSans-72" x="1460.013672"/>
       <use xlink:href="#DejaVuSans-75" x="1501.126953"/>
       <use xlink:href="#DejaVuSans-74" x="1564.505859"/>
       <use xlink:href="#DejaVuSans-68" x="1603.714844"/>
      </g>
     </g>
    </g>
    <g id="text_3">
     <!-- Statistical Test -->
     <g transform="translate(392.651406 850.563125) scale(0.14 -0.14)">
      <defs>
       <path id="DejaVuSans-53" d="M 3425 4513 
L 3425 3897 
Q 3066 4069 2747 4153 
Q 2428 4238 2131 4238 
Q 1616 4238 1336 4038 
Q 1056 3838 1056 3469 
Q 1056 3159 1242 3001 
Q 1428 2844 1947 2747 
L 2328 2669 
Q 3034 2534 3370 2195 
Q 3706 1856 3706 1288 
Q 3706 609 3251 259 
Q 2797 -91 1919 -91 
Q 1588 -91 1214 -16 
Q 841 59 441 206 
L 441 856 
Q 825 641 1194 531 
Q 1563 422 1919 422 
Q 2459 422 2753 634 
Q 3047 847 3047 1241 
Q 3047 1584 2836 1778 
Q 2625 1972 2144 2069 
L 1759 2144 
Q 1053 2284 737 2584 
Q 422 2884 422 3419 
Q 422 4038 858 4394 
Q 1294 4750 2059 4750 
Q 2388 4750 2728 4690 
Q 3069 4631 3425 4513 
z
" transform="scale(0.015625)"/>
       <path id="DejaVuSans-6c" d="M 603 4863 
L 1178 4863 
L 1178 0 
L 603 0 
L 603 4863 
z
" transform="scale(0.015625)"/>
      </defs>
      <use xlink:href="#DejaVuSans-53"/>
      <use xlink:href="#DejaVuSans-74" x="63.476562"/>
      <use xlink:href="#DejaVuSans-61" x="102.685547"/>
      <use xlink:href="#DejaVuSans-74" x="163.964844"/>
      <use xlink:href="#DejaVuSans-69" x="203.173828"/>
      <use xlink:href="#DejaVuSans-73" x="230.957031"/>
      <use xlink:href="#DejaVuSans-74" x="283.056641"/>
      <use xlink:href="#DejaVuSans-69" x="322.265625"/>
      <use xlink:href="#DejaVuSans-63" x="350.048828"/>
      <use xlink:href="#DejaVuSans-61" x="405.029297"/>
      <use xlink:href="#DejaVuSans-6c" x="466.308594"/>
      <use xlink:href="#DejaVuSans-20" x="494.091797"/>
      <use xlink:href="#DejaVuSans-54" x="525.878906"/>
      <use xlink:href="#DejaVuSans-65" x="569.962891"/>
      <use xlink:href="#DejaVuSans-73" x="631.486328"/>
      <use xlink:href="#DejaVuSans-74" x="683.585938"/>
     </g>
    </g>
   </g>
   <g id="matplotlib.axis_2">
    <g id="ytick_1">
     <g id="line2d_3">
      <defs>
       <path id="mb4fa2ac694" d="M 0 0 
L -3.5 0 
" style="stroke: #000000; stroke-width: 0.8"/>
      </defs>
      <g>
       <use xlink:href="#mb4fa2ac694" x="60.77" y="577.627024" style="stroke: #000000; stroke-width: 0.8"/>
      </g>
     </g>
     <g id="text_4">
      <!-- 500 -->
      <g transform="translate(34.6825 581.426243) scale(0.1 -0.1)">
       <defs>
        <path id="DejaVuSans-35" d="M 691 4666 
L 3169 4666 
L 3169 4134 
L 1269 4134 
L 1269 2991 
Q 1406 3038 1543 3061 
Q 1681 3084 1819 3084 
Q 2600 3084 3056 2656 
Q 3513 2228 3513 1497 
Q 3513 744 3044 326 
Q 2575 -91 1722 -91 
Q 1428 -91 1123 -41 
Q 819 9 494 109 
L 494 744 
Q 775 591 1075 516 
Q 1375 441 1709 441 
Q 2250 441 2565 725 
Q 2881 1009 2881 1497 
Q 2881 1984 2565 2268 
Q 2250 2553 1709 2553 
Q 1456 2553 1204 2497 
Q 953 2441 691 2322 
L 691 4666 
z
" transform="scale(0.015625)"/>
        <path id="DejaVuSans-30" d="M 2034 4250 
Q 1547 4250 1301 3770 
Q 1056 3291 1056 2328 
Q 1056 1369 1301 889 
Q 1547 409 2034 409 
Q 2525 409 2770 889 
Q 3016 1369 3016 2328 
Q 3016 3291 2770 3770 
Q 2525 4250 2034 4250 
z
M 2034 4750 
Q 2819 4750 3233 4129 
Q 3647 3509 3647 2328 
Q 3647 1150 3233 529 
Q 2819 -91 2034 -91 
Q 1250 -91 836 529 
Q 422 1150 422 2328 
Q 422 3509 836 4129 
Q 1250 4750 2034 4750 
z
" transform="scale(0.015625)"/>
       </defs>
       <use xlink:href="#DejaVuSans-35"/>
       <use xlink:href="#DejaVuSans-30" x="63.623047"/>
       <use xlink:href="#DejaVuSans-30" x="127.246094"/>
      </g>
     </g>
    </g>
    <g id="ytick_2">
     <g id="line2d_4">
      <g>
       <use xlink:href="#mb4fa2ac694" x="60.77" y="487.408012" style="stroke: #000000; stroke-width: 0.8"/>
      </g>
     </g>
     <g id="text_5">
      <!-- 1000 -->
      <g transform="translate(28.32 491.207231) scale(0.1 -0.1)">
       <defs>
        <path id="DejaVuSans-31" d="M 794 531 
L 1825 531 
L 1825 4091 
L 703 3866 
L 703 4441 
L 1819 4666 
L 2450 4666 
L 2450 531 
L 3481 531 
L 3481 0 
L 794 0 
L 794 531 
z
" transform="scale(0.015625)"/>
       </defs>
       <use xlink:href="#DejaVuSans-31"/>
       <use xlink:href="#DejaVuSans-30" x="63.623047"/>
       <use xlink:href="#DejaVuSans-30" x="127.246094"/>
       <use xlink:href="#DejaVuSans-30" x="190.869141"/>
      </g>
     </g>
    </g>
    <g id="ytick_3">
     <g id="line2d_5">
      <g>
       <use xlink:href="#mb4fa2ac694" x="60.77" y="397.189001" style="stroke: #000000; stroke-width: 0.8"/>
      </g>
     </g>
     <g id="text_6">
      <!-- 1500 -->
      <g transform="translate(28.32 400.98822) scale(0.1 -0.1)">
       <use xlink:href="#DejaVuSans-31"/>
       <use xlink:href="#DejaVuSans-35" x="63.623047"/>
       <use xlink:href="#DejaVuSans-30" x="127.246094"/>
       <use xlink:href="#DejaVuSans-30" x="190.869141"/>
      </g>
     </g>
    </g>
    <g id="ytick_4">
     <g id="line2d_6">
      <g>
       <use xlink:href="#mb4fa2ac694" x="60.77" y="306.969989" style="stroke: #000000; stroke-width: 0.8"/>
      </g>
     </g>
     <g id="text_7">
      <!-- 2000 -->
      <g transform="translate(28.32 310.769208) scale(0.1 -0.1)">
       <defs>
        <path id="DejaVuSans-32" d="M 1228 531 
L 3431 531 
L 3431 0 
L 469 0 
L 469 531 
Q 828 903 1448 1529 
Q 2069 2156 2228 2338 
Q 2531 2678 2651 2914 
Q 2772 3150 2772 3378 
Q 2772 3750 2511 3984 
Q 2250 4219 1831 4219 
Q 1534 4219 1204 4116 
Q 875 4013 500 3803 
L 500 4441 
Q 881 4594 1212 4672 
Q 1544 4750 1819 4750 
Q 2544 4750 2975 4387 
Q 3406 4025 3406 3419 
Q 3406 3131 3298 2873 
Q 3191 2616 2906 2266 
Q 2828 2175 2409 1742 
Q 1991 1309 1228 531 
z
" transform="scale(0.015625)"/>
       </defs>
       <use xlink:href="#DejaVuSans-32"/>
       <use xlink:href="#DejaVuSans-30" x="63.623047"/>
       <use xlink:href="#DejaVuSans-30" x="127.246094"/>
       <use xlink:href="#DejaVuSans-30" x="190.869141"/>
      </g>
     </g>
    </g>
    <g id="ytick_5">
     <g id="line2d_7">
      <g>
       <use xlink:href="#mb4fa2ac694" x="60.77" y="216.750978" style="stroke: #000000; stroke-width: 0.8"/>
      </g>
     </g>
     <g id="text_8">
      <!-- 2500 -->
      <g transform="translate(28.32 220.550196) scale(0.1 -0.1)">
       <use xlink:href="#DejaVuSans-32"/>
       <use xlink:href="#DejaVuSans-35" x="63.623047"/>
       <use xlink:href="#DejaVuSans-30" x="127.246094"/>
       <use xlink:href="#DejaVuSans-30" x="190.869141"/>
      </g>
     </g>
    </g>
    <g id="ytick_6">
     <g id="line2d_8">
      <g>
       <use xlink:href="#mb4fa2ac694" x="60.77" y="126.531966" style="stroke: #000000; stroke-width: 0.8"/>
      </g>
     </g>
     <g id="text_9">
      <!-- 3000 -->
      <g transform="translate(28.32 130.331185) scale(0.1 -0.1)">
       <defs>
        <path id="DejaVuSans-33" d="M 2597 2516 
Q 3050 2419 3304 2112 
Q 3559 1806 3559 1356 
Q 3559 666 3084 287 
Q 2609 -91 1734 -91 
Q 1441 -91 1130 -33 
Q 819 25 488 141 
L 488 750 
Q 750 597 1062 519 
Q 1375 441 1716 441 
Q 2309 441 2620 675 
Q 2931 909 2931 1356 
Q 2931 1769 2642 2001 
Q 2353 2234 1838 2234 
L 1294 2234 
L 1294 2753 
L 1863 2753 
Q 2328 2753 2575 2939 
Q 2822 3125 2822 3475 
Q 2822 3834 2567 4026 
Q 2313 4219 1838 4219 
Q 1578 4219 1281 4162 
Q 984 4106 628 3988 
L 628 4550 
Q 988 4650 1302 4700 
Q 1616 4750 1894 4750 
Q 2613 4750 3031 4423 
Q 3450 4097 3450 3541 
Q 3450 3153 3228 2886 
Q 3006 2619 2597 2516 
z
" transform="scale(0.015625)"/>
       </defs>
       <use xlink:href="#DejaVuSans-33"/>
       <use xlink:href="#DejaVuSans-30" x="63.623047"/>
       <use xlink:href="#DejaVuSans-30" x="127.246094"/>
       <use xlink:href="#DejaVuSans-30" x="190.869141"/>
      </g>
     </g>
    </g>
    <g id="text_10">
     <!-- Score -->
     <g transform="translate(21.408437 394.959281) rotate(-90) scale(0.14 -0.14)">
      <defs>
       <path id="DejaVuSans-6f" d="M 1959 3097 
Q 1497 3097 1228 2736 
Q 959 2375 959 1747 
Q 959 1119 1226 758 
Q 1494 397 1959 397 
Q 2419 397 2687 759 
Q 2956 1122 2956 1747 
Q 2956 2369 2687 2733 
Q 2419 3097 1959 3097 
z
M 1959 3584 
Q 2709 3584 3137 3096 
Q 3566 2609 3566 1747 
Q 3566 888 3137 398 
Q 2709 -91 1959 -91 
Q 1206 -91 779 398 
Q 353 888 353 1747 
Q 353 2609 779 3096 
Q 1206 3584 1959 3584 
z
" transform="scale(0.015625)"/>
      </defs>
      <use xlink:href="#DejaVuSans-53"/>
      <use xlink:href="#DejaVuSans-63" x="63.476562"/>
      <use xlink:href="#DejaVuSans-6f" x="118.457031"/>
      <use xlink:href="#DejaVuSans-72" x="179.638672"/>
      <use xlink:href="#DejaVuSans-65" x="218.501953"/>
     </g>
    </g>
   </g>
   <g id="line2d_9">
    <path d="M 275.783577 485.062318 
L 275.783577 274.852021 
" clip-path="url(#p11a1971eb0)" style="fill: none; stroke: #3f3f3f; stroke-width: 1.875; stroke-linecap: square"/>
   </g>
   <g id="line2d_10">
    <path d="M 275.783577 405.714697 
L 275.783577 352.440371 
" clip-path="url(#p11a1971eb0)" style="fill: none; stroke: #3f3f3f; stroke-width: 5.625; stroke-linecap: square"/>
   </g>
   <g id="line2d_11">
    <path d="M 275.783577 374.183153 
" clip-path="url(#p11a1971eb0)" style="fill: none; stroke: #3f3f3f; stroke-width: 1.5; stroke-linecap: square"/>
    <defs>
     <path id="m1062ae56de" d="M 2.34375 0 
L -2.34375 -0 
" style="stroke: #ffffff; stroke-width: 1.125"/>
    </defs>
    <g clip-path="url(#p11a1971eb0)">
     <use xlink:href="#m1062ae56de" x="275.783577" y="374.183153" style="fill: #ffffff; stroke: #ffffff; stroke-width: 1.125"/>
    </g>
   </g>
   <g id="line2d_12">
    <path d="M 281.408577 468.46202 
L 281.408577 289.287063 
" clip-path="url(#p11a1971eb0)" style="fill: none; stroke: #3f3f3f; stroke-width: 1.875; stroke-linecap: square"/>
   </g>
   <g id="line2d_13">
    <path d="M 281.408577 400.662433 
L 281.408577 355.327379 
" clip-path="url(#p11a1971eb0)" style="fill: none; stroke: #3f3f3f; stroke-width: 5.625; stroke-linecap: square"/>
   </g>
   <g id="line2d_14">
    <path d="M 281.408577 376.889723 
" clip-path="url(#p11a1971eb0)" style="fill: none; stroke: #3f3f3f; stroke-width: 1.5; stroke-linecap: square"/>
    <g clip-path="url(#p11a1971eb0)">
     <use xlink:href="#m1062ae56de" x="281.408577" y="376.889723" style="fill: #ffffff; stroke: #ffffff; stroke-width: 1.125"/>
    </g>
   </g>
   <g id="line2d_15">
    <path d="M 641.894822 485.062318 
L 641.894822 274.852021 
" clip-path="url(#p11a1971eb0)" style="fill: none; stroke: #3f3f3f; stroke-width: 1.875; stroke-linecap: square"/>
   </g>
   <g id="line2d_16">
    <path d="M 641.894822 405.714697 
L 641.894822 352.440371 
" clip-path="url(#p11a1971eb0)" style="fill: none; stroke: #3f3f3f; stroke-width: 5.625; stroke-linecap: square"/>
   </g>
   <g id="line2d_17">
    <path d="M 641.894822 374.183153 
" clip-path="url(#p11a1971eb0)" style="fill: none; stroke: #3f3f3f; stroke-width: 1.5; stroke-linecap: square"/>
    <g clip-path="url(#p11a1971eb0)">
     <use xlink:href="#m1062ae56de" x="641.894822" y="374.183153" style="fill: #ffffff; stroke: #ffffff; stroke-width: 1.125"/>
    </g>
   </g>
   <g id="line2d_18">
    <path d="M 647.519822 468.281582 
L 647.519822 289.287063 
" clip-path="url(#p11a1971eb0)" style="fill: none; stroke: #3f3f3f; stroke-width: 1.875; stroke-linecap: square"/>
   </g>
   <g id="line2d_19">
    <path d="M 647.519822 401.158637 
L 647.519822 355.507817 
" clip-path="url(#p11a1971eb0)" style="fill: none; stroke: #3f3f3f; stroke-width: 5.625; stroke-linecap: square"/>
   </g>
   <g id="line2d_20">
    <path d="M 647.519822 377.431037 
" clip-path="url(#p11a1971eb0)" style="fill: none; stroke: #3f3f3f; stroke-width: 1.5; stroke-linecap: square"/>
    <g clip-path="url(#p11a1971eb0)">
     <use xlink:href="#m1062ae56de" x="647.519822" y="377.431037" style="fill: #ffffff; stroke: #ffffff; stroke-width: 1.125"/>
    </g>
   </g>
   <g id="patch_6">
    <path d="M 60.77 661.48 
L 60.77 89.232 
" style="fill: none; stroke: #000000; stroke-width: 0.8; stroke-linejoin: miter; stroke-linecap: square"/>
   </g>
   <g id="patch_7">
    <path d="M 825.72 661.48 
L 825.72 89.232 
" style="fill: none; stroke: #000000; stroke-width: 0.8; stroke-linejoin: miter; stroke-linecap: square"/>
   </g>
   <g id="patch_8">
    <path d="M 60.77 661.48 
L 825.72 661.48 
" style="fill: none; stroke: #000000; stroke-width: 0.8; stroke-linejoin: miter; stroke-linecap: square"/>
   </g>
   <g id="patch_9">
    <path d="M 60.77 89.232 
L 825.72 89.232 
" style="fill: none; stroke: #000000; stroke-width: 0.8; stroke-linejoin: miter; stroke-linecap: square"/>
   </g>
   <g id="text_11">
    <!-- Violinplot of Scores Grouped by Statistical Test  -->
    <g transform="translate(254.4625 65.3155) scale(0.16 -0.16)">
     <defs>
      <path id="DejaVuSans-56" d="M 1831 0 
L 50 4666 
L 709 4666 
L 2188 738 
L 3669 4666 
L 4325 4666 
L 2547 0 
L 1831 0 
z
" transform="scale(0.015625)"/>
      <path id="DejaVuSans-70" d="M 1159 525 
L 1159 -1331 
L 581 -1331 
L 581 3500 
L 1159 3500 
L 1159 2969 
Q 1341 3281 1617 3432 
Q 1894 3584 2278 3584 
Q 2916 3584 3314 3078 
Q 3713 2572 3713 1747 
Q 3713 922 3314 415 
Q 2916 -91 2278 -91 
Q 1894 -91 1617 61 
Q 1341 213 1159 525 
z
M 3116 1747 
Q 3116 2381 2855 2742 
Q 2594 3103 2138 3103 
Q 1681 3103 1420 2742 
Q 1159 2381 1159 1747 
Q 1159 1113 1420 752 
Q 1681 391 2138 391 
Q 2594 391 2855 752 
Q 3116 1113 3116 1747 
z
" transform="scale(0.015625)"/>
      <path id="DejaVuSans-66" d="M 2375 4863 
L 2375 4384 
L 1825 4384 
Q 1516 4384 1395 4259 
Q 1275 4134 1275 3809 
L 1275 3500 
L 2222 3500 
L 2222 3053 
L 1275 3053 
L 1275 0 
L 697 0 
L 697 3053 
L 147 3053 
L 147 3500 
L 697 3500 
L 697 3744 
Q 697 4328 969 4595 
Q 1241 4863 1831 4863 
L 2375 4863 
z
" transform="scale(0.015625)"/>
      <path id="DejaVuSans-47" d="M 3809 666 
L 3809 1919 
L 2778 1919 
L 2778 2438 
L 4434 2438 
L 4434 434 
Q 4069 175 3628 42 
Q 3188 -91 2688 -91 
Q 1594 -91 976 548 
Q 359 1188 359 2328 
Q 359 3472 976 4111 
Q 1594 4750 2688 4750 
Q 3144 4750 3555 4637 
Q 3966 4525 4313 4306 
L 4313 3634 
Q 3963 3931 3569 4081 
Q 3175 4231 2741 4231 
Q 1884 4231 1454 3753 
Q 1025 3275 1025 2328 
Q 1025 1384 1454 906 
Q 1884 428 2741 428 
Q 3075 428 3337 486 
Q 3600 544 3809 666 
z
" transform="scale(0.015625)"/>
      <path id="DejaVuSans-64" d="M 2906 2969 
L 2906 4863 
L 3481 4863 
L 3481 0 
L 2906 0 
L 2906 525 
Q 2725 213 2448 61 
Q 2172 -91 1784 -91 
Q 1150 -91 751 415 
Q 353 922 353 1747 
Q 353 2572 751 3078 
Q 1150 3584 1784 3584 
Q 2172 3584 2448 3432 
Q 2725 3281 2906 2969 
z
M 947 1747 
Q 947 1113 1208 752 
Q 1469 391 1925 391 
Q 2381 391 2643 752 
Q 2906 1113 2906 1747 
Q 2906 2381 2643 2742 
Q 2381 3103 1925 3103 
Q 1469 3103 1208 2742 
Q 947 2381 947 1747 
z
" transform="scale(0.015625)"/>
      <path id="DejaVuSans-62" d="M 3116 1747 
Q 3116 2381 2855 2742 
Q 2594 3103 2138 3103 
Q 1681 3103 1420 2742 
Q 1159 2381 1159 1747 
Q 1159 1113 1420 752 
Q 1681 391 2138 391 
Q 2594 391 2855 752 
Q 3116 1113 3116 1747 
z
M 1159 2969 
Q 1341 3281 1617 3432 
Q 1894 3584 2278 3584 
Q 2916 3584 3314 3078 
Q 3713 2572 3713 1747 
Q 3713 922 3314 415 
Q 2916 -91 2278 -91 
Q 1894 -91 1617 61 
Q 1341 213 1159 525 
L 1159 0 
L 581 0 
L 581 4863 
L 1159 4863 
L 1159 2969 
z
" transform="scale(0.015625)"/>
      <path id="DejaVuSans-79" d="M 2059 -325 
Q 1816 -950 1584 -1140 
Q 1353 -1331 966 -1331 
L 506 -1331 
L 506 -850 
L 844 -850 
Q 1081 -850 1212 -737 
Q 1344 -625 1503 -206 
L 1606 56 
L 191 3500 
L 800 3500 
L 1894 763 
L 2988 3500 
L 3597 3500 
L 2059 -325 
z
" transform="scale(0.015625)"/>
     </defs>
     <use xlink:href="#DejaVuSans-56"/>
     <use xlink:href="#DejaVuSans-69" x="66.158203"/>
     <use xlink:href="#DejaVuSans-6f" x="93.941406"/>
     <use xlink:href="#DejaVuSans-6c" x="155.123047"/>
     <use xlink:href="#DejaVuSans-69" x="182.90625"/>
     <use xlink:href="#DejaVuSans-6e" x="210.689453"/>
     <use xlink:href="#DejaVuSans-70" x="274.068359"/>
     <use xlink:href="#DejaVuSans-6c" x="337.544922"/>
     <use xlink:href="#DejaVuSans-6f" x="365.328125"/>
     <use xlink:href="#DejaVuSans-74" x="426.509766"/>
     <use xlink:href="#DejaVuSans-20" x="465.71875"/>
     <use xlink:href="#DejaVuSans-6f" x="497.505859"/>
     <use xlink:href="#DejaVuSans-66" x="558.6875"/>
     <use xlink:href="#DejaVuSans-20" x="593.892578"/>
     <use xlink:href="#DejaVuSans-53" x="625.679688"/>
     <use xlink:href="#DejaVuSans-63" x="689.15625"/>
     <use xlink:href="#DejaVuSans-6f" x="744.136719"/>
     <use xlink:href="#DejaVuSans-72" x="805.318359"/>
     <use xlink:href="#DejaVuSans-65" x="844.181641"/>
     <use xlink:href="#DejaVuSans-73" x="905.705078"/>
     <use xlink:href="#DejaVuSans-20" x="957.804688"/>
     <use xlink:href="#DejaVuSans-47" x="989.591797"/>
     <use xlink:href="#DejaVuSans-72" x="1067.082031"/>
     <use xlink:href="#DejaVuSans-6f" x="1105.945312"/>
     <use xlink:href="#DejaVuSans-75" x="1167.126953"/>
     <use xlink:href="#DejaVuSans-70" x="1230.505859"/>
     <use xlink:href="#DejaVuSans-65" x="1293.982422"/>
     <use xlink:href="#DejaVuSans-64" x="1355.505859"/>
     <use xlink:href="#DejaVuSans-20" x="1418.982422"/>
     <use xlink:href="#DejaVuSans-62" x="1450.769531"/>
     <use xlink:href="#DejaVuSans-79" x="1514.246094"/>
     <use xlink:href="#DejaVuSans-20" x="1573.425781"/>
     <use xlink:href="#DejaVuSans-53" x="1605.212891"/>
     <use xlink:href="#DejaVuSans-74" x="1668.689453"/>
     <use xlink:href="#DejaVuSans-61" x="1707.898438"/>
     <use xlink:href="#DejaVuSans-74" x="1769.177734"/>
     <use xlink:href="#DejaVuSans-69" x="1808.386719"/>
     <use xlink:href="#DejaVuSans-73" x="1836.169922"/>
     <use xlink:href="#DejaVuSans-74" x="1888.269531"/>
     <use xlink:href="#DejaVuSans-69" x="1927.478516"/>
     <use xlink:href="#DejaVuSans-63" x="1955.261719"/>
     <use xlink:href="#DejaVuSans-61" x="2010.242188"/>
     <use xlink:href="#DejaVuSans-6c" x="2071.521484"/>
     <use xlink:href="#DejaVuSans-20" x="2099.304688"/>
     <use xlink:href="#DejaVuSans-54" x="2131.091797"/>
     <use xlink:href="#DejaVuSans-65" x="2175.175781"/>
     <use xlink:href="#DejaVuSans-73" x="2236.699219"/>
     <use xlink:href="#DejaVuSans-74" x="2288.798828"/>
     <use xlink:href="#DejaVuSans-20" x="2328.007812"/>
    </g>
    <!-- Across all subjects -->
    <g transform="translate(369.57875 83.232) scale(0.16 -0.16)">
     <defs>
      <path id="DejaVuSans-41" d="M 2188 4044 
L 1331 1722 
L 3047 1722 
L 2188 4044 
z
M 1831 4666 
L 2547 4666 
L 4325 0 
L 3669 0 
L 3244 1197 
L 1141 1197 
L 716 0 
L 50 0 
L 1831 4666 
z
" transform="scale(0.015625)"/>
      <path id="DejaVuSans-6a" d="M 603 3500 
L 1178 3500 
L 1178 -63 
Q 1178 -731 923 -1031 
Q 669 -1331 103 -1331 
L -116 -1331 
L -116 -844 
L 38 -844 
Q 366 -844 484 -692 
Q 603 -541 603 -63 
L 603 3500 
z
M 603 4863 
L 1178 4863 
L 1178 4134 
L 603 4134 
L 603 4863 
z
" transform="scale(0.015625)"/>
     </defs>
     <use xlink:href="#DejaVuSans-41"/>
     <use xlink:href="#DejaVuSans-63" x="66.658203"/>
     <use xlink:href="#DejaVuSans-72" x="121.638672"/>
     <use xlink:href="#DejaVuSans-6f" x="160.501953"/>
     <use xlink:href="#DejaVuSans-73" x="221.683594"/>
     <use xlink:href="#DejaVuSans-73" x="273.783203"/>
     <use xlink:href="#DejaVuSans-20" x="325.882812"/>
     <use xlink:href="#DejaVuSans-61" x="357.669922"/>
     <use xlink:href="#DejaVuSans-6c" x="418.949219"/>
     <use xlink:href="#DejaVuSans-6c" x="446.732422"/>
     <use xlink:href="#DejaVuSans-20" x="474.515625"/>
     <use xlink:href="#DejaVuSans-73" x="506.302734"/>
     <use xlink:href="#DejaVuSans-75" x="558.402344"/>
     <use xlink:href="#DejaVuSans-62" x="621.78125"/>
     <use xlink:href="#DejaVuSans-6a" x="685.257812"/>
     <use xlink:href="#DejaVuSans-65" x="713.041016"/>
     <use xlink:href="#DejaVuSans-63" x="774.564453"/>
     <use xlink:href="#DejaVuSans-74" x="829.544922"/>
     <use xlink:href="#DejaVuSans-73" x="868.753906"/>
    </g>
   </g>
   <g id="legend_1">
    <g id="patch_10">
     <path d="M 667.60625 149.737625 
L 855.5675 149.737625 
Q 857.9675 149.737625 857.9675 147.337625 
L 857.9675 97.632 
Q 857.9675 95.232 855.5675 95.232 
L 667.60625 95.232 
Q 665.20625 95.232 665.20625 97.632 
L 665.20625 147.337625 
Q 665.20625 149.737625 667.60625 149.737625 
z
" style="fill: #ffffff; opacity: 0.8; stroke: #cccccc; stroke-linejoin: miter"/>
    </g>
    <g id="text_12">
     <!-- Score Type -->
     <g transform="translate(734.512656 107.630437) scale(0.1 -0.1)">
      <use xlink:href="#DejaVuSans-53"/>
      <use xlink:href="#DejaVuSans-63" x="63.476562"/>
      <use xlink:href="#DejaVuSans-6f" x="118.457031"/>
      <use xlink:href="#DejaVuSans-72" x="179.638672"/>
      <use xlink:href="#DejaVuSans-65" x="218.501953"/>
      <use xlink:href="#DejaVuSans-20" x="280.025391"/>
      <use xlink:href="#DejaVuSans-54" x="311.8125"/>
      <use xlink:href="#DejaVuSans-79" x="357.271484"/>
      <use xlink:href="#DejaVuSans-70" x="416.451172"/>
      <use xlink:href="#DejaVuSans-65" x="479.927734"/>
     </g>
    </g>
    <g id="patch_11">
     <path d="M 670.00625 124.82825 
L 694.00625 124.82825 
L 694.00625 116.42825 
L 670.00625 116.42825 
z
" style="fill: #3274a1; stroke: #3f3f3f; stroke-width: 1.25; stroke-linejoin: miter"/>
    </g>
    <g id="text_13">
     <!-- Score: (x real, y real) -->
     <g transform="translate(703.60625 124.82825) scale(0.12 -0.12)">
      <defs>
       <path id="DejaVuSans-3a" d="M 750 794 
L 1409 794 
L 1409 0 
L 750 0 
L 750 794 
z
M 750 3309 
L 1409 3309 
L 1409 2516 
L 750 2516 
L 750 3309 
z
" transform="scale(0.015625)"/>
       <path id="DejaVuSans-28" d="M 1984 4856 
Q 1566 4138 1362 3434 
Q 1159 2731 1159 2009 
Q 1159 1288 1364 580 
Q 1569 -128 1984 -844 
L 1484 -844 
Q 1016 -109 783 600 
Q 550 1309 550 2009 
Q 550 2706 781 3412 
Q 1013 4119 1484 4856 
L 1984 4856 
z
" transform="scale(0.015625)"/>
       <path id="DejaVuSans-78" d="M 3513 3500 
L 2247 1797 
L 3578 0 
L 2900 0 
L 1881 1375 
L 863 0 
L 184 0 
L 1544 1831 
L 300 3500 
L 978 3500 
L 1906 2253 
L 2834 3500 
L 3513 3500 
z
" transform="scale(0.015625)"/>
       <path id="DejaVuSans-2c" d="M 750 794 
L 1409 794 
L 1409 256 
L 897 -744 
L 494 -744 
L 750 256 
L 750 794 
z
" transform="scale(0.015625)"/>
       <path id="DejaVuSans-29" d="M 513 4856 
L 1013 4856 
Q 1481 4119 1714 3412 
Q 1947 2706 1947 2009 
Q 1947 1309 1714 600 
Q 1481 -109 1013 -844 
L 513 -844 
Q 928 -128 1133 580 
Q 1338 1288 1338 2009 
Q 1338 2731 1133 3434 
Q 928 4138 513 4856 
z
" transform="scale(0.015625)"/>
      </defs>
      <use xlink:href="#DejaVuSans-53"/>
      <use xlink:href="#DejaVuSans-63" x="63.476562"/>
      <use xlink:href="#DejaVuSans-6f" x="118.457031"/>
      <use xlink:href="#DejaVuSans-72" x="179.638672"/>
      <use xlink:href="#DejaVuSans-65" x="218.501953"/>
      <use xlink:href="#DejaVuSans-3a" x="280.025391"/>
      <use xlink:href="#DejaVuSans-20" x="313.716797"/>
      <use xlink:href="#DejaVuSans-28" x="345.503906"/>
      <use xlink:href="#DejaVuSans-78" x="384.517578"/>
      <use xlink:href="#DejaVuSans-20" x="443.697266"/>
      <use xlink:href="#DejaVuSans-72" x="475.484375"/>
      <use xlink:href="#DejaVuSans-65" x="514.347656"/>
      <use xlink:href="#DejaVuSans-61" x="575.871094"/>
      <use xlink:href="#DejaVuSans-6c" x="637.150391"/>
      <use xlink:href="#DejaVuSans-2c" x="664.933594"/>
      <use xlink:href="#DejaVuSans-20" x="696.720703"/>
      <use xlink:href="#DejaVuSans-79" x="728.507812"/>
      <use xlink:href="#DejaVuSans-20" x="787.6875"/>
      <use xlink:href="#DejaVuSans-72" x="819.474609"/>
      <use xlink:href="#DejaVuSans-65" x="858.337891"/>
      <use xlink:href="#DejaVuSans-61" x="919.861328"/>
      <use xlink:href="#DejaVuSans-6c" x="981.140625"/>
      <use xlink:href="#DejaVuSans-29" x="1008.923828"/>
     </g>
    </g>
    <g id="patch_12">
     <path d="M 670.00625 142.442 
L 694.00625 142.442 
L 694.00625 134.042 
L 670.00625 134.042 
z
" style="fill: #e1812c; stroke: #3f3f3f; stroke-width: 1.25; stroke-linejoin: miter"/>
    </g>
    <g id="text_14">
     <!-- Score: (x random, y real) -->
     <g transform="translate(703.60625 142.442) scale(0.12 -0.12)">
      <defs>
       <path id="DejaVuSans-6d" d="M 3328 2828 
Q 3544 3216 3844 3400 
Q 4144 3584 4550 3584 
Q 5097 3584 5394 3201 
Q 5691 2819 5691 2113 
L 5691 0 
L 5113 0 
L 5113 2094 
Q 5113 2597 4934 2840 
Q 4756 3084 4391 3084 
Q 3944 3084 3684 2787 
Q 3425 2491 3425 1978 
L 3425 0 
L 2847 0 
L 2847 2094 
Q 2847 2600 2669 2842 
Q 2491 3084 2119 3084 
Q 1678 3084 1418 2786 
Q 1159 2488 1159 1978 
L 1159 0 
L 581 0 
L 581 3500 
L 1159 3500 
L 1159 2956 
Q 1356 3278 1631 3431 
Q 1906 3584 2284 3584 
Q 2666 3584 2933 3390 
Q 3200 3197 3328 2828 
z
" transform="scale(0.015625)"/>
      </defs>
      <use xlink:href="#DejaVuSans-53"/>
      <use xlink:href="#DejaVuSans-63" x="63.476562"/>
      <use xlink:href="#DejaVuSans-6f" x="118.457031"/>
      <use xlink:href="#DejaVuSans-72" x="179.638672"/>
      <use xlink:href="#DejaVuSans-65" x="218.501953"/>
      <use xlink:href="#DejaVuSans-3a" x="280.025391"/>
      <use xlink:href="#DejaVuSans-20" x="313.716797"/>
      <use xlink:href="#DejaVuSans-28" x="345.503906"/>
      <use xlink:href="#DejaVuSans-78" x="384.517578"/>
      <use xlink:href="#DejaVuSans-20" x="443.697266"/>
      <use xlink:href="#DejaVuSans-72" x="475.484375"/>
      <use xlink:href="#DejaVuSans-61" x="516.597656"/>
      <use xlink:href="#DejaVuSans-6e" x="577.876953"/>
      <use xlink:href="#DejaVuSans-64" x="641.255859"/>
      <use xlink:href="#DejaVuSans-6f" x="704.732422"/>
      <use xlink:href="#DejaVuSans-6d" x="765.914062"/>
      <use xlink:href="#DejaVuSans-2c" x="863.326172"/>
      <use xlink:href="#DejaVuSans-20" x="895.113281"/>
      <use xlink:href="#DejaVuSans-79" x="926.900391"/>
      <use xlink:href="#DejaVuSans-20" x="986.080078"/>
      <use xlink:href="#DejaVuSans-72" x="1017.867188"/>
      <use xlink:href="#DejaVuSans-65" x="1056.730469"/>
      <use xlink:href="#DejaVuSans-61" x="1118.253906"/>
      <use xlink:href="#DejaVuSans-6c" x="1179.533203"/>
      <use xlink:href="#DejaVuSans-29" x="1207.316406"/>
     </g>
    </g>
   </g>
  </g>
  <g id="text_15">
   <!-- Filters applied: Subject ID=All (170), Hemisphere=All (2), Task=All (5), -->
   <g transform="translate(255.680469 7.598438) scale(0.1 -0.1)">
    <defs>
     <path id="DejaVuSans-46" d="M 628 4666 
L 3309 4666 
L 3309 4134 
L 1259 4134 
L 1259 2759 
L 3109 2759 
L 3109 2228 
L 1259 2228 
L 1259 0 
L 628 0 
L 628 4666 
z
" transform="scale(0.015625)"/>
     <path id="DejaVuSans-49" d="M 628 4666 
L 1259 4666 
L 1259 0 
L 628 0 
L 628 4666 
z
" transform="scale(0.015625)"/>
     <path id="DejaVuSans-3d" d="M 678 2906 
L 4684 2906 
L 4684 2381 
L 678 2381 
L 678 2906 
z
M 678 1631 
L 4684 1631 
L 4684 1100 
L 678 1100 
L 678 1631 
z
" transform="scale(0.015625)"/>
     <path id="DejaVuSans-37" d="M 525 4666 
L 3525 4666 
L 3525 4397 
L 1831 0 
L 1172 0 
L 2766 4134 
L 525 4134 
L 525 4666 
z
" transform="scale(0.015625)"/>
     <path id="DejaVuSans-48" d="M 628 4666 
L 1259 4666 
L 1259 2753 
L 3553 2753 
L 3553 4666 
L 4184 4666 
L 4184 0 
L 3553 0 
L 3553 2222 
L 1259 2222 
L 1259 0 
L 628 0 
L 628 4666 
z
" transform="scale(0.015625)"/>
     <path id="DejaVuSans-6b" d="M 581 4863 
L 1159 4863 
L 1159 1991 
L 2875 3500 
L 3609 3500 
L 1753 1863 
L 3688 0 
L 2938 0 
L 1159 1709 
L 1159 0 
L 581 0 
L 581 4863 
z
" transform="scale(0.015625)"/>
    </defs>
    <use xlink:href="#DejaVuSans-46"/>
    <use xlink:href="#DejaVuSans-69" x="50.269531"/>
    <use xlink:href="#DejaVuSans-6c" x="78.052734"/>
    <use xlink:href="#DejaVuSans-74" x="105.835938"/>
    <use xlink:href="#DejaVuSans-65" x="145.044922"/>
    <use xlink:href="#DejaVuSans-72" x="206.568359"/>
    <use xlink:href="#DejaVuSans-73" x="247.681641"/>
    <use xlink:href="#DejaVuSans-20" x="299.78125"/>
    <use xlink:href="#DejaVuSans-61" x="331.568359"/>
    <use xlink:href="#DejaVuSans-70" x="392.847656"/>
    <use xlink:href="#DejaVuSans-70" x="456.324219"/>
    <use xlink:href="#DejaVuSans-6c" x="519.800781"/>
    <use xlink:href="#DejaVuSans-69" x="547.583984"/>
    <use xlink:href="#DejaVuSans-65" x="575.367188"/>
    <use xlink:href="#DejaVuSans-64" x="636.890625"/>
    <use xlink:href="#DejaVuSans-3a" x="700.367188"/>
    <use xlink:href="#DejaVuSans-20" x="734.058594"/>
    <use xlink:href="#DejaVuSans-53" x="765.845703"/>
    <use xlink:href="#DejaVuSans-75" x="829.322266"/>
    <use xlink:href="#DejaVuSans-62" x="892.701172"/>
    <use xlink:href="#DejaVuSans-6a" x="956.177734"/>
    <use xlink:href="#DejaVuSans-65" x="983.960938"/>
    <use xlink:href="#DejaVuSans-63" x="1045.484375"/>
    <use xlink:href="#DejaVuSans-74" x="1100.464844"/>
    <use xlink:href="#DejaVuSans-20" x="1139.673828"/>
    <use xlink:href="#DejaVuSans-49" x="1171.460938"/>
    <use xlink:href="#DejaVuSans-44" x="1200.953125"/>
    <use xlink:href="#DejaVuSans-3d" x="1277.955078"/>
    <use xlink:href="#DejaVuSans-41" x="1361.744141"/>
    <use xlink:href="#DejaVuSans-6c" x="1430.152344"/>
    <use xlink:href="#DejaVuSans-6c" x="1457.935547"/>
    <use xlink:href="#DejaVuSans-20" x="1485.71875"/>
    <use xlink:href="#DejaVuSans-28" x="1517.505859"/>
    <use xlink:href="#DejaVuSans-31" x="1556.519531"/>
    <use xlink:href="#DejaVuSans-37" x="1620.142578"/>
    <use xlink:href="#DejaVuSans-30" x="1683.765625"/>
    <use xlink:href="#DejaVuSans-29" x="1747.388672"/>
    <use xlink:href="#DejaVuSans-2c" x="1786.402344"/>
    <use xlink:href="#DejaVuSans-20" x="1818.189453"/>
    <use xlink:href="#DejaVuSans-48" x="1849.976562"/>
    <use xlink:href="#DejaVuSans-65" x="1925.171875"/>
    <use xlink:href="#DejaVuSans-6d" x="1986.695312"/>
    <use xlink:href="#DejaVuSans-69" x="2084.107422"/>
    <use xlink:href="#DejaVuSans-73" x="2111.890625"/>
    <use xlink:href="#DejaVuSans-70" x="2163.990234"/>
    <use xlink:href="#DejaVuSans-68" x="2227.466797"/>
    <use xlink:href="#DejaVuSans-65" x="2290.845703"/>
    <use xlink:href="#DejaVuSans-72" x="2352.369141"/>
    <use xlink:href="#DejaVuSans-65" x="2391.232422"/>
    <use xlink:href="#DejaVuSans-3d" x="2452.755859"/>
    <use xlink:href="#DejaVuSans-41" x="2536.544922"/>
    <use xlink:href="#DejaVuSans-6c" x="2604.953125"/>
    <use xlink:href="#DejaVuSans-6c" x="2632.736328"/>
    <use xlink:href="#DejaVuSans-20" x="2660.519531"/>
    <use xlink:href="#DejaVuSans-28" x="2692.306641"/>
    <use xlink:href="#DejaVuSans-32" x="2731.320312"/>
    <use xlink:href="#DejaVuSans-29" x="2794.943359"/>
    <use xlink:href="#DejaVuSans-2c" x="2833.957031"/>
    <use xlink:href="#DejaVuSans-20" x="2865.744141"/>
    <use xlink:href="#DejaVuSans-54" x="2897.53125"/>
    <use xlink:href="#DejaVuSans-61" x="2942.115234"/>
    <use xlink:href="#DejaVuSans-73" x="3003.394531"/>
    <use xlink:href="#DejaVuSans-6b" x="3055.494141"/>
    <use xlink:href="#DejaVuSans-3d" x="3113.404297"/>
    <use xlink:href="#DejaVuSans-41" x="3197.193359"/>
    <use xlink:href="#DejaVuSans-6c" x="3265.601562"/>
    <use xlink:href="#DejaVuSans-6c" x="3293.384766"/>
    <use xlink:href="#DejaVuSans-20" x="3321.167969"/>
    <use xlink:href="#DejaVuSans-28" x="3352.955078"/>
    <use xlink:href="#DejaVuSans-35" x="3391.96875"/>
    <use xlink:href="#DejaVuSans-29" x="3455.591797"/>
    <use xlink:href="#DejaVuSans-2c" x="3494.605469"/>
   </g>
   <!-- Statistical Test=['Levenshtein Distance - Y as Truth', 'Levenshtein Distance - X -->
   <g transform="translate(236.8625 18.79625) scale(0.1 -0.1)">
    <defs>
     <path id="DejaVuSans-5b" d="M 550 4863 
L 1875 4863 
L 1875 4416 
L 1125 4416 
L 1125 -397 
L 1875 -397 
L 1875 -844 
L 550 -844 
L 550 4863 
z
" transform="scale(0.015625)"/>
     <path id="DejaVuSans-27" d="M 1147 4666 
L 1147 2931 
L 616 2931 
L 616 4666 
L 1147 4666 
z
" transform="scale(0.015625)"/>
    </defs>
    <use xlink:href="#DejaVuSans-53"/>
    <use xlink:href="#DejaVuSans-74" x="63.476562"/>
    <use xlink:href="#DejaVuSans-61" x="102.685547"/>
    <use xlink:href="#DejaVuSans-74" x="163.964844"/>
    <use xlink:href="#DejaVuSans-69" x="203.173828"/>
    <use xlink:href="#DejaVuSans-73" x="230.957031"/>
    <use xlink:href="#DejaVuSans-74" x="283.056641"/>
    <use xlink:href="#DejaVuSans-69" x="322.265625"/>
    <use xlink:href="#DejaVuSans-63" x="350.048828"/>
    <use xlink:href="#DejaVuSans-61" x="405.029297"/>
    <use xlink:href="#DejaVuSans-6c" x="466.308594"/>
    <use xlink:href="#DejaVuSans-20" x="494.091797"/>
    <use xlink:href="#DejaVuSans-54" x="525.878906"/>
    <use xlink:href="#DejaVuSans-65" x="569.962891"/>
    <use xlink:href="#DejaVuSans-73" x="631.486328"/>
    <use xlink:href="#DejaVuSans-74" x="683.585938"/>
    <use xlink:href="#DejaVuSans-3d" x="722.794922"/>
    <use xlink:href="#DejaVuSans-5b" x="806.583984"/>
    <use xlink:href="#DejaVuSans-27" x="845.597656"/>
    <use xlink:href="#DejaVuSans-4c" x="873.087891"/>
    <use xlink:href="#DejaVuSans-65" x="927.050781"/>
    <use xlink:href="#DejaVuSans-76" x="988.574219"/>
    <use xlink:href="#DejaVuSans-65" x="1047.753906"/>
    <use xlink:href="#DejaVuSans-6e" x="1109.277344"/>
    <use xlink:href="#DejaVuSans-73" x="1172.65625"/>
    <use xlink:href="#DejaVuSans-68" x="1224.755859"/>
    <use xlink:href="#DejaVuSans-74" x="1288.134766"/>
    <use xlink:href="#DejaVuSans-65" x="1327.34375"/>
    <use xlink:href="#DejaVuSans-69" x="1388.867188"/>
    <use xlink:href="#DejaVuSans-6e" x="1416.650391"/>
    <use xlink:href="#DejaVuSans-20" x="1480.029297"/>
    <use xlink:href="#DejaVuSans-44" x="1511.816406"/>
    <use xlink:href="#DejaVuSans-69" x="1588.818359"/>
    <use xlink:href="#DejaVuSans-73" x="1616.601562"/>
    <use xlink:href="#DejaVuSans-74" x="1668.701172"/>
    <use xlink:href="#DejaVuSans-61" x="1707.910156"/>
    <use xlink:href="#DejaVuSans-6e" x="1769.189453"/>
    <use xlink:href="#DejaVuSans-63" x="1832.568359"/>
    <use xlink:href="#DejaVuSans-65" x="1887.548828"/>
    <use xlink:href="#DejaVuSans-20" x="1949.072266"/>
    <use xlink:href="#DejaVuSans-2d" x="1980.859375"/>
    <use xlink:href="#DejaVuSans-20" x="2016.943359"/>
    <use xlink:href="#DejaVuSans-59" x="2048.730469"/>
    <use xlink:href="#DejaVuSans-20" x="2109.814453"/>
    <use xlink:href="#DejaVuSans-61" x="2141.601562"/>
    <use xlink:href="#DejaVuSans-73" x="2202.880859"/>
    <use xlink:href="#DejaVuSans-20" x="2254.980469"/>
    <use xlink:href="#DejaVuSans-54" x="2286.767578"/>
    <use xlink:href="#DejaVuSans-72" x="2333.101562"/>
    <use xlink:href="#DejaVuSans-75" x="2374.214844"/>
    <use xlink:href="#DejaVuSans-74" x="2437.59375"/>
    <use xlink:href="#DejaVuSans-68" x="2476.802734"/>
    <use xlink:href="#DejaVuSans-27" x="2540.181641"/>
    <use xlink:href="#DejaVuSans-2c" x="2567.671875"/>
    <use xlink:href="#DejaVuSans-20" x="2599.458984"/>
    <use xlink:href="#DejaVuSans-27" x="2631.246094"/>
    <use xlink:href="#DejaVuSans-4c" x="2658.736328"/>
    <use xlink:href="#DejaVuSans-65" x="2712.699219"/>
    <use xlink:href="#DejaVuSans-76" x="2774.222656"/>
    <use xlink:href="#DejaVuSans-65" x="2833.402344"/>
    <use xlink:href="#DejaVuSans-6e" x="2894.925781"/>
    <use xlink:href="#DejaVuSans-73" x="2958.304688"/>
    <use xlink:href="#DejaVuSans-68" x="3010.404297"/>
    <use xlink:href="#DejaVuSans-74" x="3073.783203"/>
    <use xlink:href="#DejaVuSans-65" x="3112.992188"/>
    <use xlink:href="#DejaVuSans-69" x="3174.515625"/>
    <use xlink:href="#DejaVuSans-6e" x="3202.298828"/>
    <use xlink:href="#DejaVuSans-20" x="3265.677734"/>
    <use xlink:href="#DejaVuSans-44" x="3297.464844"/>
    <use xlink:href="#DejaVuSans-69" x="3374.466797"/>
    <use xlink:href="#DejaVuSans-73" x="3402.25"/>
    <use xlink:href="#DejaVuSans-74" x="3454.349609"/>
    <use xlink:href="#DejaVuSans-61" x="3493.558594"/>
    <use xlink:href="#DejaVuSans-6e" x="3554.837891"/>
    <use xlink:href="#DejaVuSans-63" x="3618.216797"/>
    <use xlink:href="#DejaVuSans-65" x="3673.197266"/>
    <use xlink:href="#DejaVuSans-20" x="3734.720703"/>
    <use xlink:href="#DejaVuSans-2d" x="3766.507812"/>
    <use xlink:href="#DejaVuSans-20" x="3802.591797"/>
    <use xlink:href="#DejaVuSans-58" x="3834.378906"/>
   </g>
   <!-- as Truth'] -->
   <g transform="translate(408.747656 29.994063) scale(0.1 -0.1)">
    <defs>
     <path id="DejaVuSans-5d" d="M 1947 4863 
L 1947 -844 
L 622 -844 
L 622 -397 
L 1369 -397 
L 1369 4416 
L 622 4416 
L 622 4863 
L 1947 4863 
z
" transform="scale(0.015625)"/>
    </defs>
    <use xlink:href="#DejaVuSans-61"/>
    <use xlink:href="#DejaVuSans-73" x="61.279297"/>
    <use xlink:href="#DejaVuSans-20" x="113.378906"/>
    <use xlink:href="#DejaVuSans-54" x="145.166016"/>
    <use xlink:href="#DejaVuSans-72" x="191.5"/>
    <use xlink:href="#DejaVuSans-75" x="232.613281"/>
    <use xlink:href="#DejaVuSans-74" x="295.992188"/>
    <use xlink:href="#DejaVuSans-68" x="335.201172"/>
    <use xlink:href="#DejaVuSans-27" x="398.580078"/>
    <use xlink:href="#DejaVuSans-5d" x="426.070312"/>
   </g>
  </g>
 </g>
 <defs>
  <clipPath id="p11a1971eb0">
   <rect x="60.77" y="89.232" width="764.95" height="572.248"/>
  </clipPath>
 </defs>
</svg>
