<?xml version="1.0" encoding="utf-8" standalone="no"?>
<!DOCTYPE svg PUBLIC "-//W3C//DTD SVG 1.1//EN"
  "http://www.w3.org/Graphics/SVG/1.1/DTD/svg11.dtd">
<svg xmlns:xlink="http://www.w3.org/1999/xlink" width="864pt" height="864pt" viewBox="0 0 864 864" xmlns="http://www.w3.org/2000/svg" version="1.1">
 <metadata>
  <rdf:RDF xmlns:dc="http://purl.org/dc/elements/1.1/" xmlns:cc="http://creativecommons.org/ns#" xmlns:rdf="http://www.w3.org/1999/02/22-rdf-syntax-ns#">
   <cc:Work>
    <dc:type rdf:resource="http://purl.org/dc/dcmitype/StillImage"/>
    <dc:date>2025-01-27T17:36:50.959249</dc:date>
    <dc:format>image/svg+xml</dc:format>
    <dc:creator>
     <cc:Agent>
      <dc:title>Matplotlib v3.9.2, https://matplotlib.org/</dc:title>
     </cc:Agent>
    </dc:creator>
   </cc:Work>
  </rdf:RDF>
 </metadata>
 <defs>
  <style type="text/css">*{stroke-linejoin: round; stroke-linecap: butt}</style>
 </defs>
 <g id="figure_1">
  <g id="patch_1">
   <path d="M 0 864 
L 864 864 
L 864 0 
L 0 0 
z
" style="fill: #ffffff"/>
  </g>
  <g id="axes_1">
   <g id="patch_2">
    <path d="M 51.41 642.4 
L 825.72 642.4 
L 825.72 89.232 
L 51.41 89.232 
z
" style="fill: #ffffff"/>
   </g>
   <g id="PolyCollection_1">
    <defs>
     <path id="maabda815ac" d="M 272.53687 -317.673476 
L 271.92956 -317.673476 
L 271.466511 -322.036612 
L 270.731784 -326.399749 
L 269.620032 -330.762885 
L 268.013276 -335.126022 
L 265.790855 -339.489159 
L 262.8415 -343.852295 
L 259.075037 -348.215432 
L 254.431597 -352.578568 
L 248.887969 -356.941705 
L 242.463086 -361.304842 
L 235.225925 -365.667978 
L 227.30811 -370.031115 
L 218.919736 -374.394251 
L 210.361972 -378.757388 
L 202.026444 -383.120525 
L 194.371742 -387.483661 
L 187.872731 -391.846798 
L 182.947281 -396.209935 
L 179.874629 -400.573071 
L 178.725993 -404.936208 
L 179.328208 -409.299344 
L 181.27414 -413.662481 
L 183.98094 -418.025618 
L 186.783144 -422.388754 
L 189.037627 -426.751891 
L 190.215533 -431.115027 
L 189.963107 -435.478164 
L 188.125249 -439.841301 
L 184.736634 -444.204437 
L 179.99076 -448.567574 
L 174.196666 -452.93071 
L 167.729451 -457.293847 
L 160.978696 -461.656984 
L 154.300308 -466.02012 
L 147.980238 -470.383257 
L 142.218677 -474.746394 
L 137.138079 -479.10953 
L 132.809074 -483.472667 
L 129.280207 -487.835803 
L 126.595767 -492.19894 
L 124.792344 -496.562077 
L 123.876017 -500.925213 
L 123.792101 -505.28835 
L 124.403247 -509.651486 
L 125.488187 -514.014623 
L 126.765435 -518.37776 
L 127.937883 -522.740896 
L 128.748631 -527.104033 
L 129.036107 -531.467169 
L 128.776412 -535.830306 
L 128.102018 -540.193443 
L 127.288597 -544.556579 
L 126.707111 -548.919716 
L 126.746744 -553.282853 
L 127.724314 -557.645989 
L 129.803478 -562.009126 
L 132.948271 -566.372262 
L 136.927868 -570.735399 
L 141.37446 -575.098536 
L 145.878882 -579.461672 
L 150.095696 -583.824809 
L 153.826274 -588.187945 
L 157.056315 -592.551082 
L 159.940178 -596.914219 
L 162.741859 -601.277355 
L 165.754742 -605.640492 
L 169.225277 -610.003628 
L 173.299795 -614.366765 
L 178.00297 -618.729902 
L 183.246018 -623.093038 
L 188.856332 -627.456175 
L 194.618303 -631.819312 
L 200.315958 -636.182448 
L 205.769727 -640.545585 
L 210.861448 -644.908721 
L 215.543956 -649.271858 
L 219.834837 -653.634995 
L 223.797678 -657.998131 
L 227.517053 -662.361268 
L 231.074378 -666.724404 
L 234.530348 -671.087541 
L 237.916843 -675.450678 
L 241.238156 -679.813814 
L 244.478995 -684.176951 
L 247.61544 -688.540087 
L 250.624764 -692.903224 
L 253.490946 -697.266361 
L 256.204571 -701.629497 
L 258.758226 -705.992634 
L 261.140456 -710.355771 
L 263.331887 -714.718907 
L 265.305993 -719.082044 
L 267.034584 -723.44518 
L 268.495851 -727.808317 
L 269.681672 -732.171454 
L 270.601393 -736.53459 
L 271.280969 -740.897727 
L 271.75825 -745.260863 
L 272.076362 -749.624 
L 272.53687 -749.624 
L 272.53687 -749.624 
L 272.53687 -745.260863 
L 272.53687 -740.897727 
L 272.53687 -736.53459 
L 272.53687 -732.171454 
L 272.53687 -727.808317 
L 272.53687 -723.44518 
L 272.53687 -719.082044 
L 272.53687 -714.718907 
L 272.53687 -710.355771 
L 272.53687 -705.992634 
L 272.53687 -701.629497 
L 272.53687 -697.266361 
L 272.53687 -692.903224 
L 272.53687 -688.540087 
L 272.53687 -684.176951 
L 272.53687 -679.813814 
L 272.53687 -675.450678 
L 272.53687 -671.087541 
L 272.53687 -666.724404 
L 272.53687 -662.361268 
L 272.53687 -657.998131 
L 272.53687 -653.634995 
L 272.53687 -649.271858 
L 272.53687 -644.908721 
L 272.53687 -640.545585 
L 272.53687 -636.182448 
L 272.53687 -631.819312 
L 272.53687 -627.456175 
L 272.53687 -623.093038 
L 272.53687 -618.729902 
L 272.53687 -614.366765 
L 272.53687 -610.003628 
L 272.53687 -605.640492 
L 272.53687 -601.277355 
L 272.53687 -596.914219 
L 272.53687 -592.551082 
L 272.53687 -588.187945 
L 272.53687 -583.824809 
L 272.53687 -579.461672 
L 272.53687 -575.098536 
L 272.53687 -570.735399 
L 272.53687 -566.372262 
L 272.53687 -562.009126 
L 272.53687 -557.645989 
L 272.53687 -553.282853 
L 272.53687 -548.919716 
L 272.53687 -544.556579 
L 272.53687 -540.193443 
L 272.53687 -535.830306 
L 272.53687 -531.467169 
L 272.53687 -527.104033 
L 272.53687 -522.740896 
L 272.53687 -518.37776 
L 272.53687 -514.014623 
L 272.53687 -509.651486 
L 272.53687 -505.28835 
L 272.53687 -500.925213 
L 272.53687 -496.562077 
L 272.53687 -492.19894 
L 272.53687 -487.835803 
L 272.53687 -483.472667 
L 272.53687 -479.10953 
L 272.53687 -474.746394 
L 272.53687 -470.383257 
L 272.53687 -466.02012 
L 272.53687 -461.656984 
L 272.53687 -457.293847 
L 272.53687 -452.93071 
L 272.53687 -448.567574 
L 272.53687 -444.204437 
L 272.53687 -439.841301 
L 272.53687 -435.478164 
L 272.53687 -431.115027 
L 272.53687 -426.751891 
L 272.53687 -422.388754 
L 272.53687 -418.025618 
L 272.53687 -413.662481 
L 272.53687 -409.299344 
L 272.53687 -404.936208 
L 272.53687 -400.573071 
L 272.53687 -396.209935 
L 272.53687 -391.846798 
L 272.53687 -387.483661 
L 272.53687 -383.120525 
L 272.53687 -378.757388 
L 272.53687 -374.394251 
L 272.53687 -370.031115 
L 272.53687 -365.667978 
L 272.53687 -361.304842 
L 272.53687 -356.941705 
L 272.53687 -352.578568 
L 272.53687 -348.215432 
L 272.53687 -343.852295 
L 272.53687 -339.489159 
L 272.53687 -335.126022 
L 272.53687 -330.762885 
L 272.53687 -326.399749 
L 272.53687 -322.036612 
L 272.53687 -317.673476 
z
" style="stroke: #3f3f3f; stroke-width: 1.25"/>
    </defs>
    <g clip-path="url(#p536024bc18)">
     <use xlink:href="#maabda815ac" x="0" y="864" style="fill: #3274a1; stroke: #3f3f3f; stroke-width: 1.25"/>
    </g>
   </g>
   <g id="PolyCollection_2">
    <defs>
     <path id="m3cb6e713e8" d="M 273.495616 -246.783212 
L 272.53687 -246.783212 
L 272.53687 -246.965091 
L 272.53687 -247.14697 
L 272.53687 -247.32885 
L 272.53687 -247.510729 
L 272.53687 -247.692608 
L 272.53687 -247.874487 
L 272.53687 -248.056367 
L 272.53687 -248.238246 
L 272.53687 -248.420125 
L 272.53687 -248.602004 
L 272.53687 -248.783884 
L 272.53687 -248.965763 
L 272.53687 -249.147642 
L 272.53687 -249.329521 
L 272.53687 -249.511401 
L 272.53687 -249.69328 
L 272.53687 -249.875159 
L 272.53687 -250.057038 
L 272.53687 -250.238918 
L 272.53687 -250.420797 
L 272.53687 -250.602676 
L 272.53687 -250.784555 
L 272.53687 -250.966435 
L 272.53687 -251.148314 
L 272.53687 -251.330193 
L 272.53687 -251.512072 
L 272.53687 -251.693952 
L 272.53687 -251.875831 
L 272.53687 -252.05771 
L 272.53687 -252.239589 
L 272.53687 -252.421469 
L 272.53687 -252.603348 
L 272.53687 -252.785227 
L 272.53687 -252.967106 
L 272.53687 -253.148986 
L 272.53687 -253.330865 
L 272.53687 -253.512744 
L 272.53687 -253.694623 
L 272.53687 -253.876503 
L 272.53687 -254.058382 
L 272.53687 -254.240261 
L 272.53687 -254.42214 
L 272.53687 -254.60402 
L 272.53687 -254.785899 
L 272.53687 -254.967778 
L 272.53687 -255.149657 
L 272.53687 -255.331537 
L 272.53687 -255.513416 
L 272.53687 -255.695295 
L 272.53687 -255.877174 
L 272.53687 -256.059054 
L 272.53687 -256.240933 
L 272.53687 -256.422812 
L 272.53687 -256.604691 
L 272.53687 -256.786571 
L 272.53687 -256.96845 
L 272.53687 -257.150329 
L 272.53687 -257.332208 
L 272.53687 -257.514088 
L 272.53687 -257.695967 
L 272.53687 -257.877846 
L 272.53687 -258.059725 
L 272.53687 -258.241605 
L 272.53687 -258.423484 
L 272.53687 -258.605363 
L 272.53687 -258.787242 
L 272.53687 -258.969122 
L 272.53687 -259.151001 
L 272.53687 -259.33288 
L 272.53687 -259.51476 
L 272.53687 -259.696639 
L 272.53687 -259.878518 
L 272.53687 -260.060397 
L 272.53687 -260.242277 
L 272.53687 -260.424156 
L 272.53687 -260.606035 
L 272.53687 -260.787914 
L 272.53687 -260.969794 
L 272.53687 -261.151673 
L 272.53687 -261.333552 
L 272.53687 -261.515431 
L 272.53687 -261.697311 
L 272.53687 -261.87919 
L 272.53687 -262.061069 
L 272.53687 -262.242948 
L 272.53687 -262.424828 
L 272.53687 -262.606707 
L 272.53687 -262.788586 
L 272.53687 -262.970465 
L 272.53687 -263.152345 
L 272.53687 -263.334224 
L 272.53687 -263.516103 
L 272.53687 -263.697982 
L 272.53687 -263.879862 
L 272.53687 -264.061741 
L 272.53687 -264.24362 
L 272.53687 -264.425499 
L 272.53687 -264.607379 
L 272.53687 -264.789258 
L 272.593998 -264.789258 
L 272.593998 -264.789258 
L 272.64494 -264.607379 
L 272.723196 -264.425499 
L 272.83076 -264.24362 
L 272.962866 -264.061741 
L 273.107293 -263.879862 
L 273.246472 -263.697982 
L 273.361722 -263.516103 
L 273.437961 -263.334224 
L 273.467567 -263.152345 
L 273.452744 -262.970465 
L 273.406044 -262.788586 
L 273.348309 -262.606707 
L 273.303784 -262.424828 
L 273.293713 -262.242948 
L 273.331258 -262.061069 
L 273.419878 -261.87919 
L 273.554752 -261.697311 
L 273.724999 -261.515431 
L 273.915567 -261.333552 
L 274.110592 -261.151673 
L 274.301195 -260.969794 
L 274.497551 -260.787914 
L 274.739479 -260.606035 
L 275.096356 -260.424156 
L 275.649664 -260.242277 
L 276.460026 -260.060397 
L 277.530595 -259.878518 
L 278.784215 -259.696639 
L 280.068687 -259.51476 
L 281.193634 -259.33288 
L 281.988458 -259.151001 
L 282.360132 -258.969122 
L 282.327091 -258.787242 
L 282.013722 -258.605363 
L 281.607023 -258.423484 
L 281.29507 -258.241605 
L 281.21558 -258.059725 
L 281.435822 -257.877846 
L 281.967101 -257.695967 
L 282.799965 -257.514088 
L 283.938958 -257.332208 
L 285.418228 -257.150329 
L 287.28822 -256.96845 
L 289.578024 -256.786571 
L 292.255158 -256.604691 
L 295.213071 -256.422812 
L 298.303265 -256.240933 
L 301.396667 -256.059054 
L 304.432696 -255.877174 
L 307.420852 -255.695295 
L 310.397693 -255.513416 
L 313.380292 -255.331537 
L 316.360607 -255.149657 
L 319.348361 -254.967778 
L 322.423714 -254.785899 
L 325.74585 -254.60402 
L 329.495208 -254.42214 
L 333.782113 -254.240261 
L 338.588673 -254.058382 
L 343.794513 -253.876503 
L 349.278434 -253.694623 
L 355.028518 -253.512744 
L 361.177118 -253.330865 
L 367.921374 -253.148986 
L 375.368848 -252.967106 
L 383.405969 -252.785227 
L 391.67625 -252.603348 
L 399.677772 -252.421469 
L 406.905212 -252.239589 
L 412.943004 -252.05771 
L 417.479197 -251.875831 
L 420.292239 -251.693952 
L 421.281639 -251.512072 
L 420.548001 -251.330193 
L 418.446493 -251.148314 
L 415.528889 -250.966435 
L 412.369899 -250.784555 
L 409.369551 -250.602676 
L 406.645804 -250.420797 
L 404.063584 -250.238918 
L 401.353517 -250.057038 
L 398.232297 -249.875159 
L 394.464945 -249.69328 
L 389.865464 -249.511401 
L 384.268707 -249.329521 
L 377.510037 -249.147642 
L 369.436786 -248.965763 
L 359.960641 -248.783884 
L 349.141942 -248.602004 
L 337.273027 -248.420125 
L 324.909798 -248.238246 
L 312.80939 -248.056367 
L 301.774095 -247.874487 
L 292.456 -247.692608 
L 285.205145 -247.510729 
L 280.023596 -247.32885 
L 276.632097 -247.14697 
L 274.603127 -246.965091 
L 273.495616 -246.783212 
z
" style="stroke: #3f3f3f; stroke-width: 1.25"/>
    </defs>
    <g clip-path="url(#p536024bc18)">
     <use xlink:href="#m3cb6e713e8" x="0" y="864" style="fill: #e1812c; stroke: #3f3f3f; stroke-width: 1.25"/>
    </g>
   </g>
   <g id="PolyCollection_3">
    <defs>
     <path id="m961a86d2ac" d="M 644.398792 -317.673476 
L 643.791482 -317.673476 
L 643.328433 -322.036612 
L 642.593706 -326.399749 
L 641.481954 -330.762885 
L 639.875198 -335.126022 
L 637.652776 -339.489159 
L 634.703421 -343.852295 
L 630.936959 -348.215432 
L 626.293519 -352.578568 
L 620.749891 -356.941705 
L 614.325007 -361.304842 
L 607.087846 -365.667978 
L 599.170032 -370.031115 
L 590.781658 -374.394251 
L 582.223894 -378.757388 
L 573.888365 -383.120525 
L 566.233664 -387.483661 
L 559.734653 -391.846798 
L 554.809202 -396.209935 
L 551.736551 -400.573071 
L 550.587915 -404.936208 
L 551.19013 -409.299344 
L 553.136062 -413.662481 
L 555.842862 -418.025618 
L 558.645066 -422.388754 
L 560.899549 -426.751891 
L 562.077455 -431.115027 
L 561.825028 -435.478164 
L 559.987171 -439.841301 
L 556.598556 -444.204437 
L 551.852682 -448.567574 
L 546.058588 -452.93071 
L 539.591373 -457.293847 
L 532.840618 -461.656984 
L 526.16223 -466.02012 
L 519.842159 -470.383257 
L 514.080598 -474.746394 
L 509.000001 -479.10953 
L 504.670995 -483.472667 
L 501.142128 -487.835803 
L 498.457689 -492.19894 
L 496.654266 -496.562077 
L 495.737938 -500.925213 
L 495.654023 -505.28835 
L 496.265169 -509.651486 
L 497.350109 -514.014623 
L 498.627357 -518.37776 
L 499.799804 -522.740896 
L 500.610553 -527.104033 
L 500.898029 -531.467169 
L 500.638334 -535.830306 
L 499.963939 -540.193443 
L 499.150519 -544.556579 
L 498.569033 -548.919716 
L 498.608666 -553.282853 
L 499.586236 -557.645989 
L 501.6654 -562.009126 
L 504.810193 -566.372262 
L 508.789789 -570.735399 
L 513.236382 -575.098536 
L 517.740804 -579.461672 
L 521.957618 -583.824809 
L 525.688195 -588.187945 
L 528.918237 -592.551082 
L 531.8021 -596.914219 
L 534.603781 -601.277355 
L 537.616664 -605.640492 
L 541.087199 -610.003628 
L 545.161717 -614.366765 
L 549.864892 -618.729902 
L 555.10794 -623.093038 
L 560.718253 -627.456175 
L 566.480225 -631.819312 
L 572.17788 -636.182448 
L 577.631649 -640.545585 
L 582.72337 -644.908721 
L 587.405878 -649.271858 
L 591.696759 -653.634995 
L 595.6596 -657.998131 
L 599.378975 -662.361268 
L 602.9363 -666.724404 
L 606.392269 -671.087541 
L 609.778765 -675.450678 
L 613.100077 -679.813814 
L 616.340917 -684.176951 
L 619.477362 -688.540087 
L 622.486686 -692.903224 
L 625.352868 -697.266361 
L 628.066492 -701.629497 
L 630.620148 -705.992634 
L 633.002377 -710.355771 
L 635.193809 -714.718907 
L 637.167915 -719.082044 
L 638.896506 -723.44518 
L 640.357773 -727.808317 
L 641.543594 -732.171454 
L 642.463314 -736.53459 
L 643.14289 -740.897727 
L 643.620172 -745.260863 
L 643.938283 -749.624 
L 644.398792 -749.624 
L 644.398792 -749.624 
L 644.398792 -745.260863 
L 644.398792 -740.897727 
L 644.398792 -736.53459 
L 644.398792 -732.171454 
L 644.398792 -727.808317 
L 644.398792 -723.44518 
L 644.398792 -719.082044 
L 644.398792 -714.718907 
L 644.398792 -710.355771 
L 644.398792 -705.992634 
L 644.398792 -701.629497 
L 644.398792 -697.266361 
L 644.398792 -692.903224 
L 644.398792 -688.540087 
L 644.398792 -684.176951 
L 644.398792 -679.813814 
L 644.398792 -675.450678 
L 644.398792 -671.087541 
L 644.398792 -666.724404 
L 644.398792 -662.361268 
L 644.398792 -657.998131 
L 644.398792 -653.634995 
L 644.398792 -649.271858 
L 644.398792 -644.908721 
L 644.398792 -640.545585 
L 644.398792 -636.182448 
L 644.398792 -631.819312 
L 644.398792 -627.456175 
L 644.398792 -623.093038 
L 644.398792 -618.729902 
L 644.398792 -614.366765 
L 644.398792 -610.003628 
L 644.398792 -605.640492 
L 644.398792 -601.277355 
L 644.398792 -596.914219 
L 644.398792 -592.551082 
L 644.398792 -588.187945 
L 644.398792 -583.824809 
L 644.398792 -579.461672 
L 644.398792 -575.098536 
L 644.398792 -570.735399 
L 644.398792 -566.372262 
L 644.398792 -562.009126 
L 644.398792 -557.645989 
L 644.398792 -553.282853 
L 644.398792 -548.919716 
L 644.398792 -544.556579 
L 644.398792 -540.193443 
L 644.398792 -535.830306 
L 644.398792 -531.467169 
L 644.398792 -527.104033 
L 644.398792 -522.740896 
L 644.398792 -518.37776 
L 644.398792 -514.014623 
L 644.398792 -509.651486 
L 644.398792 -505.28835 
L 644.398792 -500.925213 
L 644.398792 -496.562077 
L 644.398792 -492.19894 
L 644.398792 -487.835803 
L 644.398792 -483.472667 
L 644.398792 -479.10953 
L 644.398792 -474.746394 
L 644.398792 -470.383257 
L 644.398792 -466.02012 
L 644.398792 -461.656984 
L 644.398792 -457.293847 
L 644.398792 -452.93071 
L 644.398792 -448.567574 
L 644.398792 -444.204437 
L 644.398792 -439.841301 
L 644.398792 -435.478164 
L 644.398792 -431.115027 
L 644.398792 -426.751891 
L 644.398792 -422.388754 
L 644.398792 -418.025618 
L 644.398792 -413.662481 
L 644.398792 -409.299344 
L 644.398792 -404.936208 
L 644.398792 -400.573071 
L 644.398792 -396.209935 
L 644.398792 -391.846798 
L 644.398792 -387.483661 
L 644.398792 -383.120525 
L 644.398792 -378.757388 
L 644.398792 -374.394251 
L 644.398792 -370.031115 
L 644.398792 -365.667978 
L 644.398792 -361.304842 
L 644.398792 -356.941705 
L 644.398792 -352.578568 
L 644.398792 -348.215432 
L 644.398792 -343.852295 
L 644.398792 -339.489159 
L 644.398792 -335.126022 
L 644.398792 -330.762885 
L 644.398792 -326.399749 
L 644.398792 -322.036612 
L 644.398792 -317.673476 
z
" style="stroke: #3f3f3f; stroke-width: 1.25"/>
    </defs>
    <g clip-path="url(#p536024bc18)">
     <use xlink:href="#m961a86d2ac" x="0" y="864" style="fill: #3274a1; stroke: #3f3f3f; stroke-width: 1.25"/>
    </g>
   </g>
   <g id="PolyCollection_4">
    <defs>
     <path id="mf008b0c5a8" d="M 645.075077 -246.744 
L 644.398792 -246.744 
L 644.398792 -246.931827 
L 644.398792 -247.119654 
L 644.398792 -247.307481 
L 644.398792 -247.495309 
L 644.398792 -247.683136 
L 644.398792 -247.870963 
L 644.398792 -248.05879 
L 644.398792 -248.246617 
L 644.398792 -248.434444 
L 644.398792 -248.622272 
L 644.398792 -248.810099 
L 644.398792 -248.997926 
L 644.398792 -249.185753 
L 644.398792 -249.37358 
L 644.398792 -249.561407 
L 644.398792 -249.749234 
L 644.398792 -249.937062 
L 644.398792 -250.124889 
L 644.398792 -250.312716 
L 644.398792 -250.500543 
L 644.398792 -250.68837 
L 644.398792 -250.876197 
L 644.398792 -251.064025 
L 644.398792 -251.251852 
L 644.398792 -251.439679 
L 644.398792 -251.627506 
L 644.398792 -251.815333 
L 644.398792 -252.00316 
L 644.398792 -252.190987 
L 644.398792 -252.378815 
L 644.398792 -252.566642 
L 644.398792 -252.754469 
L 644.398792 -252.942296 
L 644.398792 -253.130123 
L 644.398792 -253.31795 
L 644.398792 -253.505777 
L 644.398792 -253.693605 
L 644.398792 -253.881432 
L 644.398792 -254.069259 
L 644.398792 -254.257086 
L 644.398792 -254.444913 
L 644.398792 -254.63274 
L 644.398792 -254.820568 
L 644.398792 -255.008395 
L 644.398792 -255.196222 
L 644.398792 -255.384049 
L 644.398792 -255.571876 
L 644.398792 -255.759703 
L 644.398792 -255.94753 
L 644.398792 -256.135358 
L 644.398792 -256.323185 
L 644.398792 -256.511012 
L 644.398792 -256.698839 
L 644.398792 -256.886666 
L 644.398792 -257.074493 
L 644.398792 -257.262321 
L 644.398792 -257.450148 
L 644.398792 -257.637975 
L 644.398792 -257.825802 
L 644.398792 -258.013629 
L 644.398792 -258.201456 
L 644.398792 -258.389283 
L 644.398792 -258.577111 
L 644.398792 -258.764938 
L 644.398792 -258.952765 
L 644.398792 -259.140592 
L 644.398792 -259.328419 
L 644.398792 -259.516246 
L 644.398792 -259.704074 
L 644.398792 -259.891901 
L 644.398792 -260.079728 
L 644.398792 -260.267555 
L 644.398792 -260.455382 
L 644.398792 -260.643209 
L 644.398792 -260.831036 
L 644.398792 -261.018864 
L 644.398792 -261.206691 
L 644.398792 -261.394518 
L 644.398792 -261.582345 
L 644.398792 -261.770172 
L 644.398792 -261.957999 
L 644.398792 -262.145827 
L 644.398792 -262.333654 
L 644.398792 -262.521481 
L 644.398792 -262.709308 
L 644.398792 -262.897135 
L 644.398792 -263.084962 
L 644.398792 -263.272789 
L 644.398792 -263.460617 
L 644.398792 -263.648444 
L 644.398792 -263.836271 
L 644.398792 -264.024098 
L 644.398792 -264.211925 
L 644.398792 -264.399752 
L 644.398792 -264.587579 
L 644.398792 -264.775407 
L 644.398792 -264.963234 
L 644.398792 -265.151061 
L 644.398792 -265.338888 
L 644.449258 -265.338888 
L 644.449258 -265.338888 
L 644.49213 -265.151061 
L 644.553204 -264.963234 
L 644.627548 -264.775407 
L 644.703071 -264.587579 
L 644.764397 -264.399752 
L 644.80102 -264.211925 
L 644.815574 -264.024098 
L 644.826397 -263.836271 
L 644.861313 -263.648444 
L 644.945108 -263.460617 
L 645.087508 -263.272789 
L 645.278226 -263.084962 
L 645.490864 -262.897135 
L 645.692054 -262.709308 
L 645.850448 -262.521481 
L 645.943365 -262.333654 
L 645.962941 -262.145827 
L 645.923472 -261.957999 
L 645.86687 -261.770172 
L 645.859494 -261.582345 
L 645.976202 -261.394518 
L 646.27471 -261.206691 
L 646.769876 -261.018864 
L 647.419951 -260.831036 
L 648.134546 -260.643209 
L 648.80587 -260.455382 
L 649.351243 -260.267555 
L 649.743692 -260.079728 
L 650.010877 -259.891901 
L 650.203223 -259.704074 
L 650.355125 -259.516246 
L 650.468001 -259.328419 
L 650.525872 -259.140592 
L 650.529139 -258.952765 
L 650.520714 -258.764938 
L 650.586608 -258.577111 
L 650.83069 -258.389283 
L 651.337933 -258.201456 
L 652.14576 -258.013629 
L 653.238087 -257.825802 
L 654.563424 -257.637975 
L 656.063918 -257.450148 
L 657.697341 -257.262321 
L 659.443178 -257.074493 
L 661.298616 -256.886666 
L 663.276152 -256.698839 
L 665.407094 -256.511012 
L 667.743943 -256.323185 
L 670.351188 -256.135358 
L 673.281381 -255.94753 
L 676.545869 -255.759703 
L 680.099576 -255.571876 
L 683.858188 -255.384049 
L 687.747472 -255.196222 
L 691.754765 -255.008395 
L 695.938888 -254.820568 
L 700.382151 -254.63274 
L 705.123526 -254.444913 
L 710.140859 -254.257086 
L 715.409782 -254.069259 
L 720.985034 -253.881432 
L 727.009009 -253.693605 
L 733.605244 -253.505777 
L 740.720331 -253.31795 
L 748.037124 -253.130123 
L 755.037509 -252.942296 
L 761.184668 -252.754469 
L 766.116392 -252.566642 
L 769.750242 -252.378815 
L 772.27482 -252.190987 
L 774.068853 -252.00316 
L 775.601046 -251.815333 
L 777.328297 -251.627506 
L 779.579998 -251.439679 
L 782.431314 -251.251852 
L 785.613174 -251.064025 
L 788.52762 -250.876197 
L 790.399823 -250.68837 
L 790.524091 -250.500543 
L 788.503601 -250.312716 
L 784.378579 -250.124889 
L 778.584004 -249.937062 
L 771.750578 -249.749234 
L 764.43133 -249.561407 
L 756.873419 -249.37358 
L 748.940827 -249.185753 
L 740.228014 -248.997926 
L 730.314017 -248.810099 
L 719.037348 -248.622272 
L 706.663377 -248.434444 
L 693.871192 -248.246617 
L 681.573385 -248.05879 
L 670.653655 -247.870963 
L 661.732318 -247.683136 
L 655.043976 -247.495309 
L 650.453336 -247.307481 
L 647.575075 -247.119654 
L 645.930156 -246.931827 
L 645.075077 -246.744 
z
" style="stroke: #3f3f3f; stroke-width: 1.25"/>
    </defs>
    <g clip-path="url(#p536024bc18)">
     <use xlink:href="#mf008b0c5a8" x="0" y="864" style="fill: #e1812c; stroke: #3f3f3f; stroke-width: 1.25"/>
    </g>
   </g>
   <g id="patch_3">
    <path d="M 272.53687 616.551102 
L 272.53687 616.551102 
L 272.53687 616.551102 
L 272.53687 616.551102 
z
" clip-path="url(#p536024bc18)" style="fill: #3274a1; stroke: #3f3f3f; stroke-width: 1.25; stroke-linejoin: miter"/>
   </g>
   <g id="patch_4">
    <path d="M 272.53687 616.551102 
L 272.53687 616.551102 
L 272.53687 616.551102 
L 272.53687 616.551102 
z
" clip-path="url(#p536024bc18)" style="fill: #e1812c; stroke: #3f3f3f; stroke-width: 1.25; stroke-linejoin: miter"/>
   </g>
   <g id="patch_5">
    <path d="M 86.605909 642.4 
L 458.467831 642.4 
L 458.467831 89.232 
L 86.605909 89.232 
z
" clip-path="url(#p536024bc18)" style="fill: #808080; opacity: 0.1; stroke: #808080; stroke-linejoin: miter"/>
   </g>
   <g id="matplotlib.axis_1">
    <g id="xtick_1">
     <g id="line2d_1">
      <defs>
       <path id="ma4a1a0add3" d="M 0 0 
L 0 3.5 
" style="stroke: #000000; stroke-width: 0.8"/>
      </defs>
      <g>
       <use xlink:href="#ma4a1a0add3" x="272.53687" y="642.4" style="stroke: #000000; stroke-width: 0.8"/>
      </g>
     </g>
     <g id="text_1">
      <!-- Mutual Information Score - X as Truth -->
      <g transform="translate(275.296245 835.623437) rotate(-90) scale(0.1 -0.1)">
       <defs>
        <path id="DejaVuSans-4d" d="M 628 4666 
L 1569 4666 
L 2759 1491 
L 3956 4666 
L 4897 4666 
L 4897 0 
L 4281 0 
L 4281 4097 
L 3078 897 
L 2444 897 
L 1241 4097 
L 1241 0 
L 628 0 
L 628 4666 
z
" transform="scale(0.015625)"/>
        <path id="DejaVuSans-75" d="M 544 1381 
L 544 3500 
L 1119 3500 
L 1119 1403 
Q 1119 906 1312 657 
Q 1506 409 1894 409 
Q 2359 409 2629 706 
Q 2900 1003 2900 1516 
L 2900 3500 
L 3475 3500 
L 3475 0 
L 2900 0 
L 2900 538 
Q 2691 219 2414 64 
Q 2138 -91 1772 -91 
Q 1169 -91 856 284 
Q 544 659 544 1381 
z
M 1991 3584 
L 1991 3584 
z
" transform="scale(0.015625)"/>
        <path id="DejaVuSans-74" d="M 1172 4494 
L 1172 3500 
L 2356 3500 
L 2356 3053 
L 1172 3053 
L 1172 1153 
Q 1172 725 1289 603 
Q 1406 481 1766 481 
L 2356 481 
L 2356 0 
L 1766 0 
Q 1100 0 847 248 
Q 594 497 594 1153 
L 594 3053 
L 172 3053 
L 172 3500 
L 594 3500 
L 594 4494 
L 1172 4494 
z
" transform="scale(0.015625)"/>
        <path id="DejaVuSans-61" d="M 2194 1759 
Q 1497 1759 1228 1600 
Q 959 1441 959 1056 
Q 959 750 1161 570 
Q 1363 391 1709 391 
Q 2188 391 2477 730 
Q 2766 1069 2766 1631 
L 2766 1759 
L 2194 1759 
z
M 3341 1997 
L 3341 0 
L 2766 0 
L 2766 531 
Q 2569 213 2275 61 
Q 1981 -91 1556 -91 
Q 1019 -91 701 211 
Q 384 513 384 1019 
Q 384 1609 779 1909 
Q 1175 2209 1959 2209 
L 2766 2209 
L 2766 2266 
Q 2766 2663 2505 2880 
Q 2244 3097 1772 3097 
Q 1472 3097 1187 3025 
Q 903 2953 641 2809 
L 641 3341 
Q 956 3463 1253 3523 
Q 1550 3584 1831 3584 
Q 2591 3584 2966 3190 
Q 3341 2797 3341 1997 
z
" transform="scale(0.015625)"/>
        <path id="DejaVuSans-6c" d="M 603 4863 
L 1178 4863 
L 1178 0 
L 603 0 
L 603 4863 
z
" transform="scale(0.015625)"/>
        <path id="DejaVuSans-20" transform="scale(0.015625)"/>
        <path id="DejaVuSans-49" d="M 628 4666 
L 1259 4666 
L 1259 0 
L 628 0 
L 628 4666 
z
" transform="scale(0.015625)"/>
        <path id="DejaVuSans-6e" d="M 3513 2113 
L 3513 0 
L 2938 0 
L 2938 2094 
Q 2938 2591 2744 2837 
Q 2550 3084 2163 3084 
Q 1697 3084 1428 2787 
Q 1159 2491 1159 1978 
L 1159 0 
L 581 0 
L 581 3500 
L 1159 3500 
L 1159 2956 
Q 1366 3272 1645 3428 
Q 1925 3584 2291 3584 
Q 2894 3584 3203 3211 
Q 3513 2838 3513 2113 
z
" transform="scale(0.015625)"/>
        <path id="DejaVuSans-66" d="M 2375 4863 
L 2375 4384 
L 1825 4384 
Q 1516 4384 1395 4259 
Q 1275 4134 1275 3809 
L 1275 3500 
L 2222 3500 
L 2222 3053 
L 1275 3053 
L 1275 0 
L 697 0 
L 697 3053 
L 147 3053 
L 147 3500 
L 697 3500 
L 697 3744 
Q 697 4328 969 4595 
Q 1241 4863 1831 4863 
L 2375 4863 
z
" transform="scale(0.015625)"/>
        <path id="DejaVuSans-6f" d="M 1959 3097 
Q 1497 3097 1228 2736 
Q 959 2375 959 1747 
Q 959 1119 1226 758 
Q 1494 397 1959 397 
Q 2419 397 2687 759 
Q 2956 1122 2956 1747 
Q 2956 2369 2687 2733 
Q 2419 3097 1959 3097 
z
M 1959 3584 
Q 2709 3584 3137 3096 
Q 3566 2609 3566 1747 
Q 3566 888 3137 398 
Q 2709 -91 1959 -91 
Q 1206 -91 779 398 
Q 353 888 353 1747 
Q 353 2609 779 3096 
Q 1206 3584 1959 3584 
z
" transform="scale(0.015625)"/>
        <path id="DejaVuSans-72" d="M 2631 2963 
Q 2534 3019 2420 3045 
Q 2306 3072 2169 3072 
Q 1681 3072 1420 2755 
Q 1159 2438 1159 1844 
L 1159 0 
L 581 0 
L 581 3500 
L 1159 3500 
L 1159 2956 
Q 1341 3275 1631 3429 
Q 1922 3584 2338 3584 
Q 2397 3584 2469 3576 
Q 2541 3569 2628 3553 
L 2631 2963 
z
" transform="scale(0.015625)"/>
        <path id="DejaVuSans-6d" d="M 3328 2828 
Q 3544 3216 3844 3400 
Q 4144 3584 4550 3584 
Q 5097 3584 5394 3201 
Q 5691 2819 5691 2113 
L 5691 0 
L 5113 0 
L 5113 2094 
Q 5113 2597 4934 2840 
Q 4756 3084 4391 3084 
Q 3944 3084 3684 2787 
Q 3425 2491 3425 1978 
L 3425 0 
L 2847 0 
L 2847 2094 
Q 2847 2600 2669 2842 
Q 2491 3084 2119 3084 
Q 1678 3084 1418 2786 
Q 1159 2488 1159 1978 
L 1159 0 
L 581 0 
L 581 3500 
L 1159 3500 
L 1159 2956 
Q 1356 3278 1631 3431 
Q 1906 3584 2284 3584 
Q 2666 3584 2933 3390 
Q 3200 3197 3328 2828 
z
" transform="scale(0.015625)"/>
        <path id="DejaVuSans-69" d="M 603 3500 
L 1178 3500 
L 1178 0 
L 603 0 
L 603 3500 
z
M 603 4863 
L 1178 4863 
L 1178 4134 
L 603 4134 
L 603 4863 
z
" transform="scale(0.015625)"/>
        <path id="DejaVuSans-53" d="M 3425 4513 
L 3425 3897 
Q 3066 4069 2747 4153 
Q 2428 4238 2131 4238 
Q 1616 4238 1336 4038 
Q 1056 3838 1056 3469 
Q 1056 3159 1242 3001 
Q 1428 2844 1947 2747 
L 2328 2669 
Q 3034 2534 3370 2195 
Q 3706 1856 3706 1288 
Q 3706 609 3251 259 
Q 2797 -91 1919 -91 
Q 1588 -91 1214 -16 
Q 841 59 441 206 
L 441 856 
Q 825 641 1194 531 
Q 1563 422 1919 422 
Q 2459 422 2753 634 
Q 3047 847 3047 1241 
Q 3047 1584 2836 1778 
Q 2625 1972 2144 2069 
L 1759 2144 
Q 1053 2284 737 2584 
Q 422 2884 422 3419 
Q 422 4038 858 4394 
Q 1294 4750 2059 4750 
Q 2388 4750 2728 4690 
Q 3069 4631 3425 4513 
z
" transform="scale(0.015625)"/>
        <path id="DejaVuSans-63" d="M 3122 3366 
L 3122 2828 
Q 2878 2963 2633 3030 
Q 2388 3097 2138 3097 
Q 1578 3097 1268 2742 
Q 959 2388 959 1747 
Q 959 1106 1268 751 
Q 1578 397 2138 397 
Q 2388 397 2633 464 
Q 2878 531 3122 666 
L 3122 134 
Q 2881 22 2623 -34 
Q 2366 -91 2075 -91 
Q 1284 -91 818 406 
Q 353 903 353 1747 
Q 353 2603 823 3093 
Q 1294 3584 2113 3584 
Q 2378 3584 2631 3529 
Q 2884 3475 3122 3366 
z
" transform="scale(0.015625)"/>
        <path id="DejaVuSans-65" d="M 3597 1894 
L 3597 1613 
L 953 1613 
Q 991 1019 1311 708 
Q 1631 397 2203 397 
Q 2534 397 2845 478 
Q 3156 559 3463 722 
L 3463 178 
Q 3153 47 2828 -22 
Q 2503 -91 2169 -91 
Q 1331 -91 842 396 
Q 353 884 353 1716 
Q 353 2575 817 3079 
Q 1281 3584 2069 3584 
Q 2775 3584 3186 3129 
Q 3597 2675 3597 1894 
z
M 3022 2063 
Q 3016 2534 2758 2815 
Q 2500 3097 2075 3097 
Q 1594 3097 1305 2825 
Q 1016 2553 972 2059 
L 3022 2063 
z
" transform="scale(0.015625)"/>
        <path id="DejaVuSans-2d" d="M 313 2009 
L 1997 2009 
L 1997 1497 
L 313 1497 
L 313 2009 
z
" transform="scale(0.015625)"/>
        <path id="DejaVuSans-58" d="M 403 4666 
L 1081 4666 
L 2241 2931 
L 3406 4666 
L 4084 4666 
L 2584 2425 
L 4184 0 
L 3506 0 
L 2194 1984 
L 872 0 
L 191 0 
L 1856 2491 
L 403 4666 
z
" transform="scale(0.015625)"/>
        <path id="DejaVuSans-73" d="M 2834 3397 
L 2834 2853 
Q 2591 2978 2328 3040 
Q 2066 3103 1784 3103 
Q 1356 3103 1142 2972 
Q 928 2841 928 2578 
Q 928 2378 1081 2264 
Q 1234 2150 1697 2047 
L 1894 2003 
Q 2506 1872 2764 1633 
Q 3022 1394 3022 966 
Q 3022 478 2636 193 
Q 2250 -91 1575 -91 
Q 1294 -91 989 -36 
Q 684 19 347 128 
L 347 722 
Q 666 556 975 473 
Q 1284 391 1588 391 
Q 1994 391 2212 530 
Q 2431 669 2431 922 
Q 2431 1156 2273 1281 
Q 2116 1406 1581 1522 
L 1381 1569 
Q 847 1681 609 1914 
Q 372 2147 372 2553 
Q 372 3047 722 3315 
Q 1072 3584 1716 3584 
Q 2034 3584 2315 3537 
Q 2597 3491 2834 3397 
z
" transform="scale(0.015625)"/>
        <path id="DejaVuSans-54" d="M -19 4666 
L 3928 4666 
L 3928 4134 
L 2272 4134 
L 2272 0 
L 1638 0 
L 1638 4134 
L -19 4134 
L -19 4666 
z
" transform="scale(0.015625)"/>
        <path id="DejaVuSans-68" d="M 3513 2113 
L 3513 0 
L 2938 0 
L 2938 2094 
Q 2938 2591 2744 2837 
Q 2550 3084 2163 3084 
Q 1697 3084 1428 2787 
Q 1159 2491 1159 1978 
L 1159 0 
L 581 0 
L 581 4863 
L 1159 4863 
L 1159 2956 
Q 1366 3272 1645 3428 
Q 1925 3584 2291 3584 
Q 2894 3584 3203 3211 
Q 3513 2838 3513 2113 
z
" transform="scale(0.015625)"/>
       </defs>
       <use xlink:href="#DejaVuSans-4d"/>
       <use xlink:href="#DejaVuSans-75" x="86.279297"/>
       <use xlink:href="#DejaVuSans-74" x="149.658203"/>
       <use xlink:href="#DejaVuSans-75" x="188.867188"/>
       <use xlink:href="#DejaVuSans-61" x="252.246094"/>
       <use xlink:href="#DejaVuSans-6c" x="313.525391"/>
       <use xlink:href="#DejaVuSans-20" x="341.308594"/>
       <use xlink:href="#DejaVuSans-49" x="373.095703"/>
       <use xlink:href="#DejaVuSans-6e" x="402.587891"/>
       <use xlink:href="#DejaVuSans-66" x="465.966797"/>
       <use xlink:href="#DejaVuSans-6f" x="501.171875"/>
       <use xlink:href="#DejaVuSans-72" x="562.353516"/>
       <use xlink:href="#DejaVuSans-6d" x="601.716797"/>
       <use xlink:href="#DejaVuSans-61" x="699.128906"/>
       <use xlink:href="#DejaVuSans-74" x="760.408203"/>
       <use xlink:href="#DejaVuSans-69" x="799.617188"/>
       <use xlink:href="#DejaVuSans-6f" x="827.400391"/>
       <use xlink:href="#DejaVuSans-6e" x="888.582031"/>
       <use xlink:href="#DejaVuSans-20" x="951.960938"/>
       <use xlink:href="#DejaVuSans-53" x="983.748047"/>
       <use xlink:href="#DejaVuSans-63" x="1047.224609"/>
       <use xlink:href="#DejaVuSans-6f" x="1102.205078"/>
       <use xlink:href="#DejaVuSans-72" x="1163.386719"/>
       <use xlink:href="#DejaVuSans-65" x="1202.25"/>
       <use xlink:href="#DejaVuSans-20" x="1263.773438"/>
       <use xlink:href="#DejaVuSans-2d" x="1295.560547"/>
       <use xlink:href="#DejaVuSans-20" x="1331.644531"/>
       <use xlink:href="#DejaVuSans-58" x="1363.431641"/>
       <use xlink:href="#DejaVuSans-20" x="1431.9375"/>
       <use xlink:href="#DejaVuSans-61" x="1463.724609"/>
       <use xlink:href="#DejaVuSans-73" x="1525.003906"/>
       <use xlink:href="#DejaVuSans-20" x="1577.103516"/>
       <use xlink:href="#DejaVuSans-54" x="1608.890625"/>
       <use xlink:href="#DejaVuSans-72" x="1655.224609"/>
       <use xlink:href="#DejaVuSans-75" x="1696.337891"/>
       <use xlink:href="#DejaVuSans-74" x="1759.716797"/>
       <use xlink:href="#DejaVuSans-68" x="1798.925781"/>
      </g>
     </g>
    </g>
    <g id="xtick_2">
     <g id="line2d_2">
      <g>
       <use xlink:href="#ma4a1a0add3" x="644.398792" y="642.4" style="stroke: #000000; stroke-width: 0.8"/>
      </g>
     </g>
     <g id="text_2">
      <!-- Mutual Information Score - Y as Truth -->
      <g transform="translate(647.158167 834.88125) rotate(-90) scale(0.1 -0.1)">
       <defs>
        <path id="DejaVuSans-59" d="M -13 4666 
L 666 4666 
L 1959 2747 
L 3244 4666 
L 3922 4666 
L 2272 2222 
L 2272 0 
L 1638 0 
L 1638 2222 
L -13 4666 
z
" transform="scale(0.015625)"/>
       </defs>
       <use xlink:href="#DejaVuSans-4d"/>
       <use xlink:href="#DejaVuSans-75" x="86.279297"/>
       <use xlink:href="#DejaVuSans-74" x="149.658203"/>
       <use xlink:href="#DejaVuSans-75" x="188.867188"/>
       <use xlink:href="#DejaVuSans-61" x="252.246094"/>
       <use xlink:href="#DejaVuSans-6c" x="313.525391"/>
       <use xlink:href="#DejaVuSans-20" x="341.308594"/>
       <use xlink:href="#DejaVuSans-49" x="373.095703"/>
       <use xlink:href="#DejaVuSans-6e" x="402.587891"/>
       <use xlink:href="#DejaVuSans-66" x="465.966797"/>
       <use xlink:href="#DejaVuSans-6f" x="501.171875"/>
       <use xlink:href="#DejaVuSans-72" x="562.353516"/>
       <use xlink:href="#DejaVuSans-6d" x="601.716797"/>
       <use xlink:href="#DejaVuSans-61" x="699.128906"/>
       <use xlink:href="#DejaVuSans-74" x="760.408203"/>
       <use xlink:href="#DejaVuSans-69" x="799.617188"/>
       <use xlink:href="#DejaVuSans-6f" x="827.400391"/>
       <use xlink:href="#DejaVuSans-6e" x="888.582031"/>
       <use xlink:href="#DejaVuSans-20" x="951.960938"/>
       <use xlink:href="#DejaVuSans-53" x="983.748047"/>
       <use xlink:href="#DejaVuSans-63" x="1047.224609"/>
       <use xlink:href="#DejaVuSans-6f" x="1102.205078"/>
       <use xlink:href="#DejaVuSans-72" x="1163.386719"/>
       <use xlink:href="#DejaVuSans-65" x="1202.25"/>
       <use xlink:href="#DejaVuSans-20" x="1263.773438"/>
       <use xlink:href="#DejaVuSans-2d" x="1295.560547"/>
       <use xlink:href="#DejaVuSans-20" x="1331.644531"/>
       <use xlink:href="#DejaVuSans-59" x="1363.431641"/>
       <use xlink:href="#DejaVuSans-20" x="1424.515625"/>
       <use xlink:href="#DejaVuSans-61" x="1456.302734"/>
       <use xlink:href="#DejaVuSans-73" x="1517.582031"/>
       <use xlink:href="#DejaVuSans-20" x="1569.681641"/>
       <use xlink:href="#DejaVuSans-54" x="1601.46875"/>
       <use xlink:href="#DejaVuSans-72" x="1647.802734"/>
       <use xlink:href="#DejaVuSans-75" x="1688.916016"/>
       <use xlink:href="#DejaVuSans-74" x="1752.294922"/>
       <use xlink:href="#DejaVuSans-68" x="1791.503906"/>
      </g>
     </g>
    </g>
    <g id="text_3">
     <!-- Statistical Test -->
     <g transform="translate(387.971406 850.26125) scale(0.14 -0.14)">
      <use xlink:href="#DejaVuSans-53"/>
      <use xlink:href="#DejaVuSans-74" x="63.476562"/>
      <use xlink:href="#DejaVuSans-61" x="102.685547"/>
      <use xlink:href="#DejaVuSans-74" x="163.964844"/>
      <use xlink:href="#DejaVuSans-69" x="203.173828"/>
      <use xlink:href="#DejaVuSans-73" x="230.957031"/>
      <use xlink:href="#DejaVuSans-74" x="283.056641"/>
      <use xlink:href="#DejaVuSans-69" x="322.265625"/>
      <use xlink:href="#DejaVuSans-63" x="350.048828"/>
      <use xlink:href="#DejaVuSans-61" x="405.029297"/>
      <use xlink:href="#DejaVuSans-6c" x="466.308594"/>
      <use xlink:href="#DejaVuSans-20" x="494.091797"/>
      <use xlink:href="#DejaVuSans-54" x="525.878906"/>
      <use xlink:href="#DejaVuSans-65" x="569.962891"/>
      <use xlink:href="#DejaVuSans-73" x="631.486328"/>
      <use xlink:href="#DejaVuSans-74" x="683.585938"/>
     </g>
    </g>
   </g>
   <g id="matplotlib.axis_2">
    <g id="ytick_1">
     <g id="line2d_3">
      <defs>
       <path id="mf4d2ef8b8a" d="M 0 0 
L -3.5 0 
" style="stroke: #000000; stroke-width: 0.8"/>
      </defs>
      <g>
       <use xlink:href="#mf4d2ef8b8a" x="51.41" y="616.551102" style="stroke: #000000; stroke-width: 0.8"/>
      </g>
     </g>
     <g id="text_4">
      <!-- 0.0 -->
      <g transform="translate(28.506875 620.350321) scale(0.1 -0.1)">
       <defs>
        <path id="DejaVuSans-30" d="M 2034 4250 
Q 1547 4250 1301 3770 
Q 1056 3291 1056 2328 
Q 1056 1369 1301 889 
Q 1547 409 2034 409 
Q 2525 409 2770 889 
Q 3016 1369 3016 2328 
Q 3016 3291 2770 3770 
Q 2525 4250 2034 4250 
z
M 2034 4750 
Q 2819 4750 3233 4129 
Q 3647 3509 3647 2328 
Q 3647 1150 3233 529 
Q 2819 -91 2034 -91 
Q 1250 -91 836 529 
Q 422 1150 422 2328 
Q 422 3509 836 4129 
Q 1250 4750 2034 4750 
z
" transform="scale(0.015625)"/>
        <path id="DejaVuSans-2e" d="M 684 794 
L 1344 794 
L 1344 0 
L 684 0 
L 684 794 
z
" transform="scale(0.015625)"/>
       </defs>
       <use xlink:href="#DejaVuSans-30"/>
       <use xlink:href="#DejaVuSans-2e" x="63.623047"/>
       <use xlink:href="#DejaVuSans-30" x="95.410156"/>
      </g>
     </g>
    </g>
    <g id="ytick_2">
     <g id="line2d_4">
      <g>
       <use xlink:href="#mf4d2ef8b8a" x="51.41" y="551.724981" style="stroke: #000000; stroke-width: 0.8"/>
      </g>
     </g>
     <g id="text_5">
      <!-- 0.2 -->
      <g transform="translate(28.506875 555.524199) scale(0.1 -0.1)">
       <defs>
        <path id="DejaVuSans-32" d="M 1228 531 
L 3431 531 
L 3431 0 
L 469 0 
L 469 531 
Q 828 903 1448 1529 
Q 2069 2156 2228 2338 
Q 2531 2678 2651 2914 
Q 2772 3150 2772 3378 
Q 2772 3750 2511 3984 
Q 2250 4219 1831 4219 
Q 1534 4219 1204 4116 
Q 875 4013 500 3803 
L 500 4441 
Q 881 4594 1212 4672 
Q 1544 4750 1819 4750 
Q 2544 4750 2975 4387 
Q 3406 4025 3406 3419 
Q 3406 3131 3298 2873 
Q 3191 2616 2906 2266 
Q 2828 2175 2409 1742 
Q 1991 1309 1228 531 
z
" transform="scale(0.015625)"/>
       </defs>
       <use xlink:href="#DejaVuSans-30"/>
       <use xlink:href="#DejaVuSans-2e" x="63.623047"/>
       <use xlink:href="#DejaVuSans-32" x="95.410156"/>
      </g>
     </g>
    </g>
    <g id="ytick_3">
     <g id="line2d_5">
      <g>
       <use xlink:href="#mf4d2ef8b8a" x="51.41" y="486.89886" style="stroke: #000000; stroke-width: 0.8"/>
      </g>
     </g>
     <g id="text_6">
      <!-- 0.4 -->
      <g transform="translate(28.506875 490.698078) scale(0.1 -0.1)">
       <defs>
        <path id="DejaVuSans-34" d="M 2419 4116 
L 825 1625 
L 2419 1625 
L 2419 4116 
z
M 2253 4666 
L 3047 4666 
L 3047 1625 
L 3713 1625 
L 3713 1100 
L 3047 1100 
L 3047 0 
L 2419 0 
L 2419 1100 
L 313 1100 
L 313 1709 
L 2253 4666 
z
" transform="scale(0.015625)"/>
       </defs>
       <use xlink:href="#DejaVuSans-30"/>
       <use xlink:href="#DejaVuSans-2e" x="63.623047"/>
       <use xlink:href="#DejaVuSans-34" x="95.410156"/>
      </g>
     </g>
    </g>
    <g id="ytick_4">
     <g id="line2d_6">
      <g>
       <use xlink:href="#mf4d2ef8b8a" x="51.41" y="422.072738" style="stroke: #000000; stroke-width: 0.8"/>
      </g>
     </g>
     <g id="text_7">
      <!-- 0.6 -->
      <g transform="translate(28.506875 425.871957) scale(0.1 -0.1)">
       <defs>
        <path id="DejaVuSans-36" d="M 2113 2584 
Q 1688 2584 1439 2293 
Q 1191 2003 1191 1497 
Q 1191 994 1439 701 
Q 1688 409 2113 409 
Q 2538 409 2786 701 
Q 3034 994 3034 1497 
Q 3034 2003 2786 2293 
Q 2538 2584 2113 2584 
z
M 3366 4563 
L 3366 3988 
Q 3128 4100 2886 4159 
Q 2644 4219 2406 4219 
Q 1781 4219 1451 3797 
Q 1122 3375 1075 2522 
Q 1259 2794 1537 2939 
Q 1816 3084 2150 3084 
Q 2853 3084 3261 2657 
Q 3669 2231 3669 1497 
Q 3669 778 3244 343 
Q 2819 -91 2113 -91 
Q 1303 -91 875 529 
Q 447 1150 447 2328 
Q 447 3434 972 4092 
Q 1497 4750 2381 4750 
Q 2619 4750 2861 4703 
Q 3103 4656 3366 4563 
z
" transform="scale(0.015625)"/>
       </defs>
       <use xlink:href="#DejaVuSans-30"/>
       <use xlink:href="#DejaVuSans-2e" x="63.623047"/>
       <use xlink:href="#DejaVuSans-36" x="95.410156"/>
      </g>
     </g>
    </g>
    <g id="ytick_5">
     <g id="line2d_7">
      <g>
       <use xlink:href="#mf4d2ef8b8a" x="51.41" y="357.246617" style="stroke: #000000; stroke-width: 0.8"/>
      </g>
     </g>
     <g id="text_8">
      <!-- 0.8 -->
      <g transform="translate(28.506875 361.045836) scale(0.1 -0.1)">
       <defs>
        <path id="DejaVuSans-38" d="M 2034 2216 
Q 1584 2216 1326 1975 
Q 1069 1734 1069 1313 
Q 1069 891 1326 650 
Q 1584 409 2034 409 
Q 2484 409 2743 651 
Q 3003 894 3003 1313 
Q 3003 1734 2745 1975 
Q 2488 2216 2034 2216 
z
M 1403 2484 
Q 997 2584 770 2862 
Q 544 3141 544 3541 
Q 544 4100 942 4425 
Q 1341 4750 2034 4750 
Q 2731 4750 3128 4425 
Q 3525 4100 3525 3541 
Q 3525 3141 3298 2862 
Q 3072 2584 2669 2484 
Q 3125 2378 3379 2068 
Q 3634 1759 3634 1313 
Q 3634 634 3220 271 
Q 2806 -91 2034 -91 
Q 1263 -91 848 271 
Q 434 634 434 1313 
Q 434 1759 690 2068 
Q 947 2378 1403 2484 
z
M 1172 3481 
Q 1172 3119 1398 2916 
Q 1625 2713 2034 2713 
Q 2441 2713 2670 2916 
Q 2900 3119 2900 3481 
Q 2900 3844 2670 4047 
Q 2441 4250 2034 4250 
Q 1625 4250 1398 4047 
Q 1172 3844 1172 3481 
z
" transform="scale(0.015625)"/>
       </defs>
       <use xlink:href="#DejaVuSans-30"/>
       <use xlink:href="#DejaVuSans-2e" x="63.623047"/>
       <use xlink:href="#DejaVuSans-38" x="95.410156"/>
      </g>
     </g>
    </g>
    <g id="ytick_6">
     <g id="line2d_8">
      <g>
       <use xlink:href="#mf4d2ef8b8a" x="51.41" y="292.420496" style="stroke: #000000; stroke-width: 0.8"/>
      </g>
     </g>
     <g id="text_9">
      <!-- 1.0 -->
      <g transform="translate(28.506875 296.219715) scale(0.1 -0.1)">
       <defs>
        <path id="DejaVuSans-31" d="M 794 531 
L 1825 531 
L 1825 4091 
L 703 3866 
L 703 4441 
L 1819 4666 
L 2450 4666 
L 2450 531 
L 3481 531 
L 3481 0 
L 794 0 
L 794 531 
z
" transform="scale(0.015625)"/>
       </defs>
       <use xlink:href="#DejaVuSans-31"/>
       <use xlink:href="#DejaVuSans-2e" x="63.623047"/>
       <use xlink:href="#DejaVuSans-30" x="95.410156"/>
      </g>
     </g>
    </g>
    <g id="ytick_7">
     <g id="line2d_9">
      <g>
       <use xlink:href="#mf4d2ef8b8a" x="51.41" y="227.594375" style="stroke: #000000; stroke-width: 0.8"/>
      </g>
     </g>
     <g id="text_10">
      <!-- 1.2 -->
      <g transform="translate(28.506875 231.393594) scale(0.1 -0.1)">
       <use xlink:href="#DejaVuSans-31"/>
       <use xlink:href="#DejaVuSans-2e" x="63.623047"/>
       <use xlink:href="#DejaVuSans-32" x="95.410156"/>
      </g>
     </g>
    </g>
    <g id="ytick_8">
     <g id="line2d_10">
      <g>
       <use xlink:href="#mf4d2ef8b8a" x="51.41" y="162.768254" style="stroke: #000000; stroke-width: 0.8"/>
      </g>
     </g>
     <g id="text_11">
      <!-- 1.4 -->
      <g transform="translate(28.506875 166.567473) scale(0.1 -0.1)">
       <use xlink:href="#DejaVuSans-31"/>
       <use xlink:href="#DejaVuSans-2e" x="63.623047"/>
       <use xlink:href="#DejaVuSans-34" x="95.410156"/>
      </g>
     </g>
    </g>
    <g id="ytick_9">
     <g id="line2d_11">
      <g>
       <use xlink:href="#mf4d2ef8b8a" x="51.41" y="97.942133" style="stroke: #000000; stroke-width: 0.8"/>
      </g>
     </g>
     <g id="text_12">
      <!-- 1.6 -->
      <g transform="translate(28.506875 101.741352) scale(0.1 -0.1)">
       <use xlink:href="#DejaVuSans-31"/>
       <use xlink:href="#DejaVuSans-2e" x="63.623047"/>
       <use xlink:href="#DejaVuSans-36" x="95.410156"/>
      </g>
     </g>
    </g>
    <g id="text_13">
     <!-- Score -->
     <g transform="translate(21.595312 385.419281) rotate(-90) scale(0.14 -0.14)">
      <use xlink:href="#DejaVuSans-53"/>
      <use xlink:href="#DejaVuSans-63" x="63.476562"/>
      <use xlink:href="#DejaVuSans-6f" x="118.457031"/>
      <use xlink:href="#DejaVuSans-72" x="179.638672"/>
      <use xlink:href="#DejaVuSans-65" x="218.501953"/>
     </g>
    </g>
   </g>
   <g id="line2d_12">
    <path d="M 269.72437 509.3575 
L 269.72437 151.345024 
" clip-path="url(#p536024bc18)" style="fill: none; stroke: #3f3f3f; stroke-width: 1.875; stroke-linecap: square"/>
   </g>
   <g id="line2d_13">
    <path d="M 269.72437 400.097708 
L 269.72437 284.59761 
" clip-path="url(#p536024bc18)" style="fill: none; stroke: #3f3f3f; stroke-width: 5.625; stroke-linecap: square"/>
   </g>
   <g id="line2d_14">
    <path d="M 269.72437 343.528039 
" clip-path="url(#p536024bc18)" style="fill: none; stroke: #3f3f3f; stroke-width: 1.5; stroke-linecap: square"/>
    <defs>
     <path id="mff756930d7" d="M 2.34375 0 
L -2.34375 -0 
" style="stroke: #ffffff; stroke-width: 1.125"/>
    </defs>
    <g clip-path="url(#p536024bc18)">
     <use xlink:href="#mff756930d7" x="269.72437" y="343.528039" style="fill: #ffffff; stroke: #ffffff; stroke-width: 1.125"/>
    </g>
   </g>
   <g id="line2d_15">
    <path d="M 275.34937 616.097607 
L 275.34937 606.145627 
" clip-path="url(#p536024bc18)" style="fill: none; stroke: #3f3f3f; stroke-width: 1.875; stroke-linecap: square"/>
   </g>
   <g id="line2d_16">
    <path d="M 275.34937 613.908782 
L 275.34937 610.79442 
" clip-path="url(#p536024bc18)" style="fill: none; stroke: #3f3f3f; stroke-width: 5.625; stroke-linecap: square"/>
   </g>
   <g id="line2d_17">
    <path d="M 275.34937 612.445831 
" clip-path="url(#p536024bc18)" style="fill: none; stroke: #3f3f3f; stroke-width: 1.5; stroke-linecap: square"/>
    <g clip-path="url(#p536024bc18)">
     <use xlink:href="#mff756930d7" x="275.34937" y="612.445831" style="fill: #ffffff; stroke: #ffffff; stroke-width: 1.125"/>
    </g>
   </g>
   <g id="line2d_18">
    <path d="M 641.586292 509.3575 
L 641.586292 151.345024 
" clip-path="url(#p536024bc18)" style="fill: none; stroke: #3f3f3f; stroke-width: 1.875; stroke-linecap: square"/>
   </g>
   <g id="line2d_19">
    <path d="M 641.586292 400.097708 
L 641.586292 284.59761 
" clip-path="url(#p536024bc18)" style="fill: none; stroke: #3f3f3f; stroke-width: 5.625; stroke-linecap: square"/>
   </g>
   <g id="line2d_20">
    <path d="M 641.586292 343.528039 
" clip-path="url(#p536024bc18)" style="fill: none; stroke: #3f3f3f; stroke-width: 1.5; stroke-linecap: square"/>
    <g clip-path="url(#p536024bc18)">
     <use xlink:href="#mff756930d7" x="641.586292" y="343.528039" style="fill: #ffffff; stroke: #ffffff; stroke-width: 1.125"/>
    </g>
   </g>
   <g id="line2d_21">
    <path d="M 647.211292 616.135387 
L 647.211292 606.412027 
" clip-path="url(#p536024bc18)" style="fill: none; stroke: #3f3f3f; stroke-width: 1.875; stroke-linecap: square"/>
   </g>
   <g id="line2d_22">
    <path d="M 647.211292 613.872399 
L 647.211292 610.817581 
" clip-path="url(#p536024bc18)" style="fill: none; stroke: #3f3f3f; stroke-width: 5.625; stroke-linecap: square"/>
   </g>
   <g id="line2d_23">
    <path d="M 647.211292 612.435291 
" clip-path="url(#p536024bc18)" style="fill: none; stroke: #3f3f3f; stroke-width: 1.5; stroke-linecap: square"/>
    <g clip-path="url(#p536024bc18)">
     <use xlink:href="#mff756930d7" x="647.211292" y="612.435291" style="fill: #ffffff; stroke: #ffffff; stroke-width: 1.125"/>
    </g>
   </g>
   <g id="patch_6">
    <path d="M 51.41 642.4 
L 51.41 89.232 
" style="fill: none; stroke: #000000; stroke-width: 0.8; stroke-linejoin: miter; stroke-linecap: square"/>
   </g>
   <g id="patch_7">
    <path d="M 825.72 642.4 
L 825.72 89.232 
" style="fill: none; stroke: #000000; stroke-width: 0.8; stroke-linejoin: miter; stroke-linecap: square"/>
   </g>
   <g id="patch_8">
    <path d="M 51.41 642.4 
L 825.72 642.4 
" style="fill: none; stroke: #000000; stroke-width: 0.8; stroke-linejoin: miter; stroke-linecap: square"/>
   </g>
   <g id="patch_9">
    <path d="M 51.41 89.232 
L 825.72 89.232 
" style="fill: none; stroke: #000000; stroke-width: 0.8; stroke-linejoin: miter; stroke-linecap: square"/>
   </g>
   <g id="text_14">
    <!-- Violinplot of Scores Grouped by Statistical Test  -->
    <g transform="translate(249.7825 65.3155) scale(0.16 -0.16)">
     <defs>
      <path id="DejaVuSans-56" d="M 1831 0 
L 50 4666 
L 709 4666 
L 2188 738 
L 3669 4666 
L 4325 4666 
L 2547 0 
L 1831 0 
z
" transform="scale(0.015625)"/>
      <path id="DejaVuSans-70" d="M 1159 525 
L 1159 -1331 
L 581 -1331 
L 581 3500 
L 1159 3500 
L 1159 2969 
Q 1341 3281 1617 3432 
Q 1894 3584 2278 3584 
Q 2916 3584 3314 3078 
Q 3713 2572 3713 1747 
Q 3713 922 3314 415 
Q 2916 -91 2278 -91 
Q 1894 -91 1617 61 
Q 1341 213 1159 525 
z
M 3116 1747 
Q 3116 2381 2855 2742 
Q 2594 3103 2138 3103 
Q 1681 3103 1420 2742 
Q 1159 2381 1159 1747 
Q 1159 1113 1420 752 
Q 1681 391 2138 391 
Q 2594 391 2855 752 
Q 3116 1113 3116 1747 
z
" transform="scale(0.015625)"/>
      <path id="DejaVuSans-47" d="M 3809 666 
L 3809 1919 
L 2778 1919 
L 2778 2438 
L 4434 2438 
L 4434 434 
Q 4069 175 3628 42 
Q 3188 -91 2688 -91 
Q 1594 -91 976 548 
Q 359 1188 359 2328 
Q 359 3472 976 4111 
Q 1594 4750 2688 4750 
Q 3144 4750 3555 4637 
Q 3966 4525 4313 4306 
L 4313 3634 
Q 3963 3931 3569 4081 
Q 3175 4231 2741 4231 
Q 1884 4231 1454 3753 
Q 1025 3275 1025 2328 
Q 1025 1384 1454 906 
Q 1884 428 2741 428 
Q 3075 428 3337 486 
Q 3600 544 3809 666 
z
" transform="scale(0.015625)"/>
      <path id="DejaVuSans-64" d="M 2906 2969 
L 2906 4863 
L 3481 4863 
L 3481 0 
L 2906 0 
L 2906 525 
Q 2725 213 2448 61 
Q 2172 -91 1784 -91 
Q 1150 -91 751 415 
Q 353 922 353 1747 
Q 353 2572 751 3078 
Q 1150 3584 1784 3584 
Q 2172 3584 2448 3432 
Q 2725 3281 2906 2969 
z
M 947 1747 
Q 947 1113 1208 752 
Q 1469 391 1925 391 
Q 2381 391 2643 752 
Q 2906 1113 2906 1747 
Q 2906 2381 2643 2742 
Q 2381 3103 1925 3103 
Q 1469 3103 1208 2742 
Q 947 2381 947 1747 
z
" transform="scale(0.015625)"/>
      <path id="DejaVuSans-62" d="M 3116 1747 
Q 3116 2381 2855 2742 
Q 2594 3103 2138 3103 
Q 1681 3103 1420 2742 
Q 1159 2381 1159 1747 
Q 1159 1113 1420 752 
Q 1681 391 2138 391 
Q 2594 391 2855 752 
Q 3116 1113 3116 1747 
z
M 1159 2969 
Q 1341 3281 1617 3432 
Q 1894 3584 2278 3584 
Q 2916 3584 3314 3078 
Q 3713 2572 3713 1747 
Q 3713 922 3314 415 
Q 2916 -91 2278 -91 
Q 1894 -91 1617 61 
Q 1341 213 1159 525 
L 1159 0 
L 581 0 
L 581 4863 
L 1159 4863 
L 1159 2969 
z
" transform="scale(0.015625)"/>
      <path id="DejaVuSans-79" d="M 2059 -325 
Q 1816 -950 1584 -1140 
Q 1353 -1331 966 -1331 
L 506 -1331 
L 506 -850 
L 844 -850 
Q 1081 -850 1212 -737 
Q 1344 -625 1503 -206 
L 1606 56 
L 191 3500 
L 800 3500 
L 1894 763 
L 2988 3500 
L 3597 3500 
L 2059 -325 
z
" transform="scale(0.015625)"/>
     </defs>
     <use xlink:href="#DejaVuSans-56"/>
     <use xlink:href="#DejaVuSans-69" x="66.158203"/>
     <use xlink:href="#DejaVuSans-6f" x="93.941406"/>
     <use xlink:href="#DejaVuSans-6c" x="155.123047"/>
     <use xlink:href="#DejaVuSans-69" x="182.90625"/>
     <use xlink:href="#DejaVuSans-6e" x="210.689453"/>
     <use xlink:href="#DejaVuSans-70" x="274.068359"/>
     <use xlink:href="#DejaVuSans-6c" x="337.544922"/>
     <use xlink:href="#DejaVuSans-6f" x="365.328125"/>
     <use xlink:href="#DejaVuSans-74" x="426.509766"/>
     <use xlink:href="#DejaVuSans-20" x="465.71875"/>
     <use xlink:href="#DejaVuSans-6f" x="497.505859"/>
     <use xlink:href="#DejaVuSans-66" x="558.6875"/>
     <use xlink:href="#DejaVuSans-20" x="593.892578"/>
     <use xlink:href="#DejaVuSans-53" x="625.679688"/>
     <use xlink:href="#DejaVuSans-63" x="689.15625"/>
     <use xlink:href="#DejaVuSans-6f" x="744.136719"/>
     <use xlink:href="#DejaVuSans-72" x="805.318359"/>
     <use xlink:href="#DejaVuSans-65" x="844.181641"/>
     <use xlink:href="#DejaVuSans-73" x="905.705078"/>
     <use xlink:href="#DejaVuSans-20" x="957.804688"/>
     <use xlink:href="#DejaVuSans-47" x="989.591797"/>
     <use xlink:href="#DejaVuSans-72" x="1067.082031"/>
     <use xlink:href="#DejaVuSans-6f" x="1105.945312"/>
     <use xlink:href="#DejaVuSans-75" x="1167.126953"/>
     <use xlink:href="#DejaVuSans-70" x="1230.505859"/>
     <use xlink:href="#DejaVuSans-65" x="1293.982422"/>
     <use xlink:href="#DejaVuSans-64" x="1355.505859"/>
     <use xlink:href="#DejaVuSans-20" x="1418.982422"/>
     <use xlink:href="#DejaVuSans-62" x="1450.769531"/>
     <use xlink:href="#DejaVuSans-79" x="1514.246094"/>
     <use xlink:href="#DejaVuSans-20" x="1573.425781"/>
     <use xlink:href="#DejaVuSans-53" x="1605.212891"/>
     <use xlink:href="#DejaVuSans-74" x="1668.689453"/>
     <use xlink:href="#DejaVuSans-61" x="1707.898438"/>
     <use xlink:href="#DejaVuSans-74" x="1769.177734"/>
     <use xlink:href="#DejaVuSans-69" x="1808.386719"/>
     <use xlink:href="#DejaVuSans-73" x="1836.169922"/>
     <use xlink:href="#DejaVuSans-74" x="1888.269531"/>
     <use xlink:href="#DejaVuSans-69" x="1927.478516"/>
     <use xlink:href="#DejaVuSans-63" x="1955.261719"/>
     <use xlink:href="#DejaVuSans-61" x="2010.242188"/>
     <use xlink:href="#DejaVuSans-6c" x="2071.521484"/>
     <use xlink:href="#DejaVuSans-20" x="2099.304688"/>
     <use xlink:href="#DejaVuSans-54" x="2131.091797"/>
     <use xlink:href="#DejaVuSans-65" x="2175.175781"/>
     <use xlink:href="#DejaVuSans-73" x="2236.699219"/>
     <use xlink:href="#DejaVuSans-74" x="2288.798828"/>
     <use xlink:href="#DejaVuSans-20" x="2328.007812"/>
    </g>
    <!-- Across all subjects -->
    <g transform="translate(364.89875 83.232) scale(0.16 -0.16)">
     <defs>
      <path id="DejaVuSans-41" d="M 2188 4044 
L 1331 1722 
L 3047 1722 
L 2188 4044 
z
M 1831 4666 
L 2547 4666 
L 4325 0 
L 3669 0 
L 3244 1197 
L 1141 1197 
L 716 0 
L 50 0 
L 1831 4666 
z
" transform="scale(0.015625)"/>
      <path id="DejaVuSans-6a" d="M 603 3500 
L 1178 3500 
L 1178 -63 
Q 1178 -731 923 -1031 
Q 669 -1331 103 -1331 
L -116 -1331 
L -116 -844 
L 38 -844 
Q 366 -844 484 -692 
Q 603 -541 603 -63 
L 603 3500 
z
M 603 4863 
L 1178 4863 
L 1178 4134 
L 603 4134 
L 603 4863 
z
" transform="scale(0.015625)"/>
     </defs>
     <use xlink:href="#DejaVuSans-41"/>
     <use xlink:href="#DejaVuSans-63" x="66.658203"/>
     <use xlink:href="#DejaVuSans-72" x="121.638672"/>
     <use xlink:href="#DejaVuSans-6f" x="160.501953"/>
     <use xlink:href="#DejaVuSans-73" x="221.683594"/>
     <use xlink:href="#DejaVuSans-73" x="273.783203"/>
     <use xlink:href="#DejaVuSans-20" x="325.882812"/>
     <use xlink:href="#DejaVuSans-61" x="357.669922"/>
     <use xlink:href="#DejaVuSans-6c" x="418.949219"/>
     <use xlink:href="#DejaVuSans-6c" x="446.732422"/>
     <use xlink:href="#DejaVuSans-20" x="474.515625"/>
     <use xlink:href="#DejaVuSans-73" x="506.302734"/>
     <use xlink:href="#DejaVuSans-75" x="558.402344"/>
     <use xlink:href="#DejaVuSans-62" x="621.78125"/>
     <use xlink:href="#DejaVuSans-6a" x="685.257812"/>
     <use xlink:href="#DejaVuSans-65" x="713.041016"/>
     <use xlink:href="#DejaVuSans-63" x="774.564453"/>
     <use xlink:href="#DejaVuSans-74" x="829.544922"/>
     <use xlink:href="#DejaVuSans-73" x="868.753906"/>
    </g>
   </g>
   <g id="legend_1">
    <g id="patch_10">
     <path d="M 668.07425 149.737625 
L 856.0355 149.737625 
Q 858.4355 149.737625 858.4355 147.337625 
L 858.4355 97.632 
Q 858.4355 95.232 856.0355 95.232 
L 668.07425 95.232 
Q 665.67425 95.232 665.67425 97.632 
L 665.67425 147.337625 
Q 665.67425 149.737625 668.07425 149.737625 
z
" style="fill: #ffffff; opacity: 0.8; stroke: #cccccc; stroke-linejoin: miter"/>
    </g>
    <g id="text_15">
     <!-- Score Type -->
     <g transform="translate(734.980656 107.630437) scale(0.1 -0.1)">
      <use xlink:href="#DejaVuSans-53"/>
      <use xlink:href="#DejaVuSans-63" x="63.476562"/>
      <use xlink:href="#DejaVuSans-6f" x="118.457031"/>
      <use xlink:href="#DejaVuSans-72" x="179.638672"/>
      <use xlink:href="#DejaVuSans-65" x="218.501953"/>
      <use xlink:href="#DejaVuSans-20" x="280.025391"/>
      <use xlink:href="#DejaVuSans-54" x="311.8125"/>
      <use xlink:href="#DejaVuSans-79" x="357.271484"/>
      <use xlink:href="#DejaVuSans-70" x="416.451172"/>
      <use xlink:href="#DejaVuSans-65" x="479.927734"/>
     </g>
    </g>
    <g id="patch_11">
     <path d="M 670.47425 124.82825 
L 694.47425 124.82825 
L 694.47425 116.42825 
L 670.47425 116.42825 
z
" style="fill: #3274a1; stroke: #3f3f3f; stroke-width: 1.25; stroke-linejoin: miter"/>
    </g>
    <g id="text_16">
     <!-- Score: (x real, y real) -->
     <g transform="translate(704.07425 124.82825) scale(0.12 -0.12)">
      <defs>
       <path id="DejaVuSans-3a" d="M 750 794 
L 1409 794 
L 1409 0 
L 750 0 
L 750 794 
z
M 750 3309 
L 1409 3309 
L 1409 2516 
L 750 2516 
L 750 3309 
z
" transform="scale(0.015625)"/>
       <path id="DejaVuSans-28" d="M 1984 4856 
Q 1566 4138 1362 3434 
Q 1159 2731 1159 2009 
Q 1159 1288 1364 580 
Q 1569 -128 1984 -844 
L 1484 -844 
Q 1016 -109 783 600 
Q 550 1309 550 2009 
Q 550 2706 781 3412 
Q 1013 4119 1484 4856 
L 1984 4856 
z
" transform="scale(0.015625)"/>
       <path id="DejaVuSans-78" d="M 3513 3500 
L 2247 1797 
L 3578 0 
L 2900 0 
L 1881 1375 
L 863 0 
L 184 0 
L 1544 1831 
L 300 3500 
L 978 3500 
L 1906 2253 
L 2834 3500 
L 3513 3500 
z
" transform="scale(0.015625)"/>
       <path id="DejaVuSans-2c" d="M 750 794 
L 1409 794 
L 1409 256 
L 897 -744 
L 494 -744 
L 750 256 
L 750 794 
z
" transform="scale(0.015625)"/>
       <path id="DejaVuSans-29" d="M 513 4856 
L 1013 4856 
Q 1481 4119 1714 3412 
Q 1947 2706 1947 2009 
Q 1947 1309 1714 600 
Q 1481 -109 1013 -844 
L 513 -844 
Q 928 -128 1133 580 
Q 1338 1288 1338 2009 
Q 1338 2731 1133 3434 
Q 928 4138 513 4856 
z
" transform="scale(0.015625)"/>
      </defs>
      <use xlink:href="#DejaVuSans-53"/>
      <use xlink:href="#DejaVuSans-63" x="63.476562"/>
      <use xlink:href="#DejaVuSans-6f" x="118.457031"/>
      <use xlink:href="#DejaVuSans-72" x="179.638672"/>
      <use xlink:href="#DejaVuSans-65" x="218.501953"/>
      <use xlink:href="#DejaVuSans-3a" x="280.025391"/>
      <use xlink:href="#DejaVuSans-20" x="313.716797"/>
      <use xlink:href="#DejaVuSans-28" x="345.503906"/>
      <use xlink:href="#DejaVuSans-78" x="384.517578"/>
      <use xlink:href="#DejaVuSans-20" x="443.697266"/>
      <use xlink:href="#DejaVuSans-72" x="475.484375"/>
      <use xlink:href="#DejaVuSans-65" x="514.347656"/>
      <use xlink:href="#DejaVuSans-61" x="575.871094"/>
      <use xlink:href="#DejaVuSans-6c" x="637.150391"/>
      <use xlink:href="#DejaVuSans-2c" x="664.933594"/>
      <use xlink:href="#DejaVuSans-20" x="696.720703"/>
      <use xlink:href="#DejaVuSans-79" x="728.507812"/>
      <use xlink:href="#DejaVuSans-20" x="787.6875"/>
      <use xlink:href="#DejaVuSans-72" x="819.474609"/>
      <use xlink:href="#DejaVuSans-65" x="858.337891"/>
      <use xlink:href="#DejaVuSans-61" x="919.861328"/>
      <use xlink:href="#DejaVuSans-6c" x="981.140625"/>
      <use xlink:href="#DejaVuSans-29" x="1008.923828"/>
     </g>
    </g>
    <g id="patch_12">
     <path d="M 670.47425 142.442 
L 694.47425 142.442 
L 694.47425 134.042 
L 670.47425 134.042 
z
" style="fill: #e1812c; stroke: #3f3f3f; stroke-width: 1.25; stroke-linejoin: miter"/>
    </g>
    <g id="text_17">
     <!-- Score: (x random, y real) -->
     <g transform="translate(704.07425 142.442) scale(0.12 -0.12)">
      <use xlink:href="#DejaVuSans-53"/>
      <use xlink:href="#DejaVuSans-63" x="63.476562"/>
      <use xlink:href="#DejaVuSans-6f" x="118.457031"/>
      <use xlink:href="#DejaVuSans-72" x="179.638672"/>
      <use xlink:href="#DejaVuSans-65" x="218.501953"/>
      <use xlink:href="#DejaVuSans-3a" x="280.025391"/>
      <use xlink:href="#DejaVuSans-20" x="313.716797"/>
      <use xlink:href="#DejaVuSans-28" x="345.503906"/>
      <use xlink:href="#DejaVuSans-78" x="384.517578"/>
      <use xlink:href="#DejaVuSans-20" x="443.697266"/>
      <use xlink:href="#DejaVuSans-72" x="475.484375"/>
      <use xlink:href="#DejaVuSans-61" x="516.597656"/>
      <use xlink:href="#DejaVuSans-6e" x="577.876953"/>
      <use xlink:href="#DejaVuSans-64" x="641.255859"/>
      <use xlink:href="#DejaVuSans-6f" x="704.732422"/>
      <use xlink:href="#DejaVuSans-6d" x="765.914062"/>
      <use xlink:href="#DejaVuSans-2c" x="863.326172"/>
      <use xlink:href="#DejaVuSans-20" x="895.113281"/>
      <use xlink:href="#DejaVuSans-79" x="926.900391"/>
      <use xlink:href="#DejaVuSans-20" x="986.080078"/>
      <use xlink:href="#DejaVuSans-72" x="1017.867188"/>
      <use xlink:href="#DejaVuSans-65" x="1056.730469"/>
      <use xlink:href="#DejaVuSans-61" x="1118.253906"/>
      <use xlink:href="#DejaVuSans-6c" x="1179.533203"/>
      <use xlink:href="#DejaVuSans-29" x="1207.316406"/>
     </g>
    </g>
   </g>
  </g>
  <g id="text_18">
   <!-- Filters applied: Subject ID=All (80), Hemisphere=['left', 'right'], Task=All -->
   <g transform="translate(251.570312 7.598438) scale(0.1 -0.1)">
    <defs>
     <path id="DejaVuSans-46" d="M 628 4666 
L 3309 4666 
L 3309 4134 
L 1259 4134 
L 1259 2759 
L 3109 2759 
L 3109 2228 
L 1259 2228 
L 1259 0 
L 628 0 
L 628 4666 
z
" transform="scale(0.015625)"/>
     <path id="DejaVuSans-44" d="M 1259 4147 
L 1259 519 
L 2022 519 
Q 2988 519 3436 956 
Q 3884 1394 3884 2338 
Q 3884 3275 3436 3711 
Q 2988 4147 2022 4147 
L 1259 4147 
z
M 628 4666 
L 1925 4666 
Q 3281 4666 3915 4102 
Q 4550 3538 4550 2338 
Q 4550 1131 3912 565 
Q 3275 0 1925 0 
L 628 0 
L 628 4666 
z
" transform="scale(0.015625)"/>
     <path id="DejaVuSans-3d" d="M 678 2906 
L 4684 2906 
L 4684 2381 
L 678 2381 
L 678 2906 
z
M 678 1631 
L 4684 1631 
L 4684 1100 
L 678 1100 
L 678 1631 
z
" transform="scale(0.015625)"/>
     <path id="DejaVuSans-48" d="M 628 4666 
L 1259 4666 
L 1259 2753 
L 3553 2753 
L 3553 4666 
L 4184 4666 
L 4184 0 
L 3553 0 
L 3553 2222 
L 1259 2222 
L 1259 0 
L 628 0 
L 628 4666 
z
" transform="scale(0.015625)"/>
     <path id="DejaVuSans-5b" d="M 550 4863 
L 1875 4863 
L 1875 4416 
L 1125 4416 
L 1125 -397 
L 1875 -397 
L 1875 -844 
L 550 -844 
L 550 4863 
z
" transform="scale(0.015625)"/>
     <path id="DejaVuSans-27" d="M 1147 4666 
L 1147 2931 
L 616 2931 
L 616 4666 
L 1147 4666 
z
" transform="scale(0.015625)"/>
     <path id="DejaVuSans-67" d="M 2906 1791 
Q 2906 2416 2648 2759 
Q 2391 3103 1925 3103 
Q 1463 3103 1205 2759 
Q 947 2416 947 1791 
Q 947 1169 1205 825 
Q 1463 481 1925 481 
Q 2391 481 2648 825 
Q 2906 1169 2906 1791 
z
M 3481 434 
Q 3481 -459 3084 -895 
Q 2688 -1331 1869 -1331 
Q 1566 -1331 1297 -1286 
Q 1028 -1241 775 -1147 
L 775 -588 
Q 1028 -725 1275 -790 
Q 1522 -856 1778 -856 
Q 2344 -856 2625 -561 
Q 2906 -266 2906 331 
L 2906 616 
Q 2728 306 2450 153 
Q 2172 0 1784 0 
Q 1141 0 747 490 
Q 353 981 353 1791 
Q 353 2603 747 3093 
Q 1141 3584 1784 3584 
Q 2172 3584 2450 3431 
Q 2728 3278 2906 2969 
L 2906 3500 
L 3481 3500 
L 3481 434 
z
" transform="scale(0.015625)"/>
     <path id="DejaVuSans-5d" d="M 1947 4863 
L 1947 -844 
L 622 -844 
L 622 -397 
L 1369 -397 
L 1369 4416 
L 622 4416 
L 622 4863 
L 1947 4863 
z
" transform="scale(0.015625)"/>
     <path id="DejaVuSans-6b" d="M 581 4863 
L 1159 4863 
L 1159 1991 
L 2875 3500 
L 3609 3500 
L 1753 1863 
L 3688 0 
L 2938 0 
L 1159 1709 
L 1159 0 
L 581 0 
L 581 4863 
z
" transform="scale(0.015625)"/>
    </defs>
    <use xlink:href="#DejaVuSans-46"/>
    <use xlink:href="#DejaVuSans-69" x="50.269531"/>
    <use xlink:href="#DejaVuSans-6c" x="78.052734"/>
    <use xlink:href="#DejaVuSans-74" x="105.835938"/>
    <use xlink:href="#DejaVuSans-65" x="145.044922"/>
    <use xlink:href="#DejaVuSans-72" x="206.568359"/>
    <use xlink:href="#DejaVuSans-73" x="247.681641"/>
    <use xlink:href="#DejaVuSans-20" x="299.78125"/>
    <use xlink:href="#DejaVuSans-61" x="331.568359"/>
    <use xlink:href="#DejaVuSans-70" x="392.847656"/>
    <use xlink:href="#DejaVuSans-70" x="456.324219"/>
    <use xlink:href="#DejaVuSans-6c" x="519.800781"/>
    <use xlink:href="#DejaVuSans-69" x="547.583984"/>
    <use xlink:href="#DejaVuSans-65" x="575.367188"/>
    <use xlink:href="#DejaVuSans-64" x="636.890625"/>
    <use xlink:href="#DejaVuSans-3a" x="700.367188"/>
    <use xlink:href="#DejaVuSans-20" x="734.058594"/>
    <use xlink:href="#DejaVuSans-53" x="765.845703"/>
    <use xlink:href="#DejaVuSans-75" x="829.322266"/>
    <use xlink:href="#DejaVuSans-62" x="892.701172"/>
    <use xlink:href="#DejaVuSans-6a" x="956.177734"/>
    <use xlink:href="#DejaVuSans-65" x="983.960938"/>
    <use xlink:href="#DejaVuSans-63" x="1045.484375"/>
    <use xlink:href="#DejaVuSans-74" x="1100.464844"/>
    <use xlink:href="#DejaVuSans-20" x="1139.673828"/>
    <use xlink:href="#DejaVuSans-49" x="1171.460938"/>
    <use xlink:href="#DejaVuSans-44" x="1200.953125"/>
    <use xlink:href="#DejaVuSans-3d" x="1277.955078"/>
    <use xlink:href="#DejaVuSans-41" x="1361.744141"/>
    <use xlink:href="#DejaVuSans-6c" x="1430.152344"/>
    <use xlink:href="#DejaVuSans-6c" x="1457.935547"/>
    <use xlink:href="#DejaVuSans-20" x="1485.71875"/>
    <use xlink:href="#DejaVuSans-28" x="1517.505859"/>
    <use xlink:href="#DejaVuSans-38" x="1556.519531"/>
    <use xlink:href="#DejaVuSans-30" x="1620.142578"/>
    <use xlink:href="#DejaVuSans-29" x="1683.765625"/>
    <use xlink:href="#DejaVuSans-2c" x="1722.779297"/>
    <use xlink:href="#DejaVuSans-20" x="1754.566406"/>
    <use xlink:href="#DejaVuSans-48" x="1786.353516"/>
    <use xlink:href="#DejaVuSans-65" x="1861.548828"/>
    <use xlink:href="#DejaVuSans-6d" x="1923.072266"/>
    <use xlink:href="#DejaVuSans-69" x="2020.484375"/>
    <use xlink:href="#DejaVuSans-73" x="2048.267578"/>
    <use xlink:href="#DejaVuSans-70" x="2100.367188"/>
    <use xlink:href="#DejaVuSans-68" x="2163.84375"/>
    <use xlink:href="#DejaVuSans-65" x="2227.222656"/>
    <use xlink:href="#DejaVuSans-72" x="2288.746094"/>
    <use xlink:href="#DejaVuSans-65" x="2327.609375"/>
    <use xlink:href="#DejaVuSans-3d" x="2389.132812"/>
    <use xlink:href="#DejaVuSans-5b" x="2472.921875"/>
    <use xlink:href="#DejaVuSans-27" x="2511.935547"/>
    <use xlink:href="#DejaVuSans-6c" x="2539.425781"/>
    <use xlink:href="#DejaVuSans-65" x="2567.208984"/>
    <use xlink:href="#DejaVuSans-66" x="2628.732422"/>
    <use xlink:href="#DejaVuSans-74" x="2662.1875"/>
    <use xlink:href="#DejaVuSans-27" x="2701.396484"/>
    <use xlink:href="#DejaVuSans-2c" x="2728.886719"/>
    <use xlink:href="#DejaVuSans-20" x="2760.673828"/>
    <use xlink:href="#DejaVuSans-27" x="2792.460938"/>
    <use xlink:href="#DejaVuSans-72" x="2819.951172"/>
    <use xlink:href="#DejaVuSans-69" x="2861.064453"/>
    <use xlink:href="#DejaVuSans-67" x="2888.847656"/>
    <use xlink:href="#DejaVuSans-68" x="2952.324219"/>
    <use xlink:href="#DejaVuSans-74" x="3015.703125"/>
    <use xlink:href="#DejaVuSans-27" x="3054.912109"/>
    <use xlink:href="#DejaVuSans-5d" x="3082.402344"/>
    <use xlink:href="#DejaVuSans-2c" x="3121.416016"/>
    <use xlink:href="#DejaVuSans-20" x="3153.203125"/>
    <use xlink:href="#DejaVuSans-54" x="3184.990234"/>
    <use xlink:href="#DejaVuSans-61" x="3229.574219"/>
    <use xlink:href="#DejaVuSans-73" x="3290.853516"/>
    <use xlink:href="#DejaVuSans-6b" x="3342.953125"/>
    <use xlink:href="#DejaVuSans-3d" x="3400.863281"/>
    <use xlink:href="#DejaVuSans-41" x="3484.652344"/>
    <use xlink:href="#DejaVuSans-6c" x="3553.060547"/>
    <use xlink:href="#DejaVuSans-6c" x="3580.84375"/>
   </g>
   <!-- (5), Statistical Test=['Mutual Information Score - X as Truth', 'Mutual -->
   <g transform="translate(261.982813 18.79625) scale(0.1 -0.1)">
    <defs>
     <path id="DejaVuSans-35" d="M 691 4666 
L 3169 4666 
L 3169 4134 
L 1269 4134 
L 1269 2991 
Q 1406 3038 1543 3061 
Q 1681 3084 1819 3084 
Q 2600 3084 3056 2656 
Q 3513 2228 3513 1497 
Q 3513 744 3044 326 
Q 2575 -91 1722 -91 
Q 1428 -91 1123 -41 
Q 819 9 494 109 
L 494 744 
Q 775 591 1075 516 
Q 1375 441 1709 441 
Q 2250 441 2565 725 
Q 2881 1009 2881 1497 
Q 2881 1984 2565 2268 
Q 2250 2553 1709 2553 
Q 1456 2553 1204 2497 
Q 953 2441 691 2322 
L 691 4666 
z
" transform="scale(0.015625)"/>
    </defs>
    <use xlink:href="#DejaVuSans-28"/>
    <use xlink:href="#DejaVuSans-35" x="39.013672"/>
    <use xlink:href="#DejaVuSans-29" x="102.636719"/>
    <use xlink:href="#DejaVuSans-2c" x="141.650391"/>
    <use xlink:href="#DejaVuSans-20" x="173.4375"/>
    <use xlink:href="#DejaVuSans-53" x="205.224609"/>
    <use xlink:href="#DejaVuSans-74" x="268.701172"/>
    <use xlink:href="#DejaVuSans-61" x="307.910156"/>
    <use xlink:href="#DejaVuSans-74" x="369.189453"/>
    <use xlink:href="#DejaVuSans-69" x="408.398438"/>
    <use xlink:href="#DejaVuSans-73" x="436.181641"/>
    <use xlink:href="#DejaVuSans-74" x="488.28125"/>
    <use xlink:href="#DejaVuSans-69" x="527.490234"/>
    <use xlink:href="#DejaVuSans-63" x="555.273438"/>
    <use xlink:href="#DejaVuSans-61" x="610.253906"/>
    <use xlink:href="#DejaVuSans-6c" x="671.533203"/>
    <use xlink:href="#DejaVuSans-20" x="699.316406"/>
    <use xlink:href="#DejaVuSans-54" x="731.103516"/>
    <use xlink:href="#DejaVuSans-65" x="775.1875"/>
    <use xlink:href="#DejaVuSans-73" x="836.710938"/>
    <use xlink:href="#DejaVuSans-74" x="888.810547"/>
    <use xlink:href="#DejaVuSans-3d" x="928.019531"/>
    <use xlink:href="#DejaVuSans-5b" x="1011.808594"/>
    <use xlink:href="#DejaVuSans-27" x="1050.822266"/>
    <use xlink:href="#DejaVuSans-4d" x="1078.3125"/>
    <use xlink:href="#DejaVuSans-75" x="1164.591797"/>
    <use xlink:href="#DejaVuSans-74" x="1227.970703"/>
    <use xlink:href="#DejaVuSans-75" x="1267.179688"/>
    <use xlink:href="#DejaVuSans-61" x="1330.558594"/>
    <use xlink:href="#DejaVuSans-6c" x="1391.837891"/>
    <use xlink:href="#DejaVuSans-20" x="1419.621094"/>
    <use xlink:href="#DejaVuSans-49" x="1451.408203"/>
    <use xlink:href="#DejaVuSans-6e" x="1480.900391"/>
    <use xlink:href="#DejaVuSans-66" x="1544.279297"/>
    <use xlink:href="#DejaVuSans-6f" x="1579.484375"/>
    <use xlink:href="#DejaVuSans-72" x="1640.666016"/>
    <use xlink:href="#DejaVuSans-6d" x="1680.029297"/>
    <use xlink:href="#DejaVuSans-61" x="1777.441406"/>
    <use xlink:href="#DejaVuSans-74" x="1838.720703"/>
    <use xlink:href="#DejaVuSans-69" x="1877.929688"/>
    <use xlink:href="#DejaVuSans-6f" x="1905.712891"/>
    <use xlink:href="#DejaVuSans-6e" x="1966.894531"/>
    <use xlink:href="#DejaVuSans-20" x="2030.273438"/>
    <use xlink:href="#DejaVuSans-53" x="2062.060547"/>
    <use xlink:href="#DejaVuSans-63" x="2125.537109"/>
    <use xlink:href="#DejaVuSans-6f" x="2180.517578"/>
    <use xlink:href="#DejaVuSans-72" x="2241.699219"/>
    <use xlink:href="#DejaVuSans-65" x="2280.5625"/>
    <use xlink:href="#DejaVuSans-20" x="2342.085938"/>
    <use xlink:href="#DejaVuSans-2d" x="2373.873047"/>
    <use xlink:href="#DejaVuSans-20" x="2409.957031"/>
    <use xlink:href="#DejaVuSans-58" x="2441.744141"/>
    <use xlink:href="#DejaVuSans-20" x="2510.25"/>
    <use xlink:href="#DejaVuSans-61" x="2542.037109"/>
    <use xlink:href="#DejaVuSans-73" x="2603.316406"/>
    <use xlink:href="#DejaVuSans-20" x="2655.416016"/>
    <use xlink:href="#DejaVuSans-54" x="2687.203125"/>
    <use xlink:href="#DejaVuSans-72" x="2733.537109"/>
    <use xlink:href="#DejaVuSans-75" x="2774.650391"/>
    <use xlink:href="#DejaVuSans-74" x="2838.029297"/>
    <use xlink:href="#DejaVuSans-68" x="2877.238281"/>
    <use xlink:href="#DejaVuSans-27" x="2940.617188"/>
    <use xlink:href="#DejaVuSans-2c" x="2968.107422"/>
    <use xlink:href="#DejaVuSans-20" x="2999.894531"/>
    <use xlink:href="#DejaVuSans-27" x="3031.681641"/>
    <use xlink:href="#DejaVuSans-4d" x="3059.171875"/>
    <use xlink:href="#DejaVuSans-75" x="3145.451172"/>
    <use xlink:href="#DejaVuSans-74" x="3208.830078"/>
    <use xlink:href="#DejaVuSans-75" x="3248.039062"/>
    <use xlink:href="#DejaVuSans-61" x="3311.417969"/>
    <use xlink:href="#DejaVuSans-6c" x="3372.697266"/>
   </g>
   <!-- Information Score - Y as Truth'] -->
   <g transform="translate(354.588281 29.994063) scale(0.1 -0.1)">
    <use xlink:href="#DejaVuSans-49"/>
    <use xlink:href="#DejaVuSans-6e" x="29.492188"/>
    <use xlink:href="#DejaVuSans-66" x="92.871094"/>
    <use xlink:href="#DejaVuSans-6f" x="128.076172"/>
    <use xlink:href="#DejaVuSans-72" x="189.257812"/>
    <use xlink:href="#DejaVuSans-6d" x="228.621094"/>
    <use xlink:href="#DejaVuSans-61" x="326.033203"/>
    <use xlink:href="#DejaVuSans-74" x="387.3125"/>
    <use xlink:href="#DejaVuSans-69" x="426.521484"/>
    <use xlink:href="#DejaVuSans-6f" x="454.304688"/>
    <use xlink:href="#DejaVuSans-6e" x="515.486328"/>
    <use xlink:href="#DejaVuSans-20" x="578.865234"/>
    <use xlink:href="#DejaVuSans-53" x="610.652344"/>
    <use xlink:href="#DejaVuSans-63" x="674.128906"/>
    <use xlink:href="#DejaVuSans-6f" x="729.109375"/>
    <use xlink:href="#DejaVuSans-72" x="790.291016"/>
    <use xlink:href="#DejaVuSans-65" x="829.154297"/>
    <use xlink:href="#DejaVuSans-20" x="890.677734"/>
    <use xlink:href="#DejaVuSans-2d" x="922.464844"/>
    <use xlink:href="#DejaVuSans-20" x="958.548828"/>
    <use xlink:href="#DejaVuSans-59" x="990.335938"/>
    <use xlink:href="#DejaVuSans-20" x="1051.419922"/>
    <use xlink:href="#DejaVuSans-61" x="1083.207031"/>
    <use xlink:href="#DejaVuSans-73" x="1144.486328"/>
    <use xlink:href="#DejaVuSans-20" x="1196.585938"/>
    <use xlink:href="#DejaVuSans-54" x="1228.373047"/>
    <use xlink:href="#DejaVuSans-72" x="1274.707031"/>
    <use xlink:href="#DejaVuSans-75" x="1315.820312"/>
    <use xlink:href="#DejaVuSans-74" x="1379.199219"/>
    <use xlink:href="#DejaVuSans-68" x="1418.408203"/>
    <use xlink:href="#DejaVuSans-27" x="1481.787109"/>
    <use xlink:href="#DejaVuSans-5d" x="1509.277344"/>
   </g>
  </g>
 </g>
 <defs>
  <clipPath id="p536024bc18">
   <rect x="51.41" y="89.232" width="774.31" height="553.168"/>
  </clipPath>
 </defs>
</svg>
