<?xml version="1.0" encoding="utf-8" standalone="no"?>
<!DOCTYPE svg PUBLIC "-//W3C//DTD SVG 1.1//EN"
  "http://www.w3.org/Graphics/SVG/1.1/DTD/svg11.dtd">
<svg xmlns:xlink="http://www.w3.org/1999/xlink" width="864pt" height="864pt" viewBox="0 0 864 864" xmlns="http://www.w3.org/2000/svg" version="1.1">
 <metadata>
  <rdf:RDF xmlns:dc="http://purl.org/dc/elements/1.1/" xmlns:cc="http://creativecommons.org/ns#" xmlns:rdf="http://www.w3.org/1999/02/22-rdf-syntax-ns#">
   <cc:Work>
    <dc:type rdf:resource="http://purl.org/dc/dcmitype/StillImage"/>
    <dc:date>2024-11-26T00:08:02.593659</dc:date>
    <dc:format>image/svg+xml</dc:format>
    <dc:creator>
     <cc:Agent>
      <dc:title>Matplotlib v3.9.2, https://matplotlib.org/</dc:title>
     </cc:Agent>
    </dc:creator>
   </cc:Work>
  </rdf:RDF>
 </metadata>
 <defs>
  <style type="text/css">*{stroke-linejoin: round; stroke-linecap: butt}</style>
 </defs>
 <g id="figure_1">
  <g id="patch_1">
   <path d="M 0 864 
L 864 864 
L 864 0 
L 0 0 
z
" style="fill: #ffffff"/>
  </g>
  <g id="axes_1">
   <g id="patch_2">
    <path d="M 51.41 642.4 
L 825.72 642.4 
L 825.72 89.232 
L 51.41 89.232 
z
" style="fill: #ffffff"/>
   </g>
   <g id="PolyCollection_1">
    <defs>
     <path id="mf3132d5c15" d="M 222.449769 -309.956561 
L 222.383553 -309.956561 
L 222.317272 -314.397646 
L 222.213664 -318.838731 
L 222.073663 -323.279816 
L 221.910734 -327.720902 
L 221.7472 -332.161987 
L 221.60247 -336.603072 
L 221.479719 -341.044157 
L 221.360485 -345.485243 
L 221.210845 -349.926328 
L 220.992936 -354.367413 
L 220.6717 -358.808498 
L 220.212702 -363.249584 
L 219.576213 -367.690669 
L 218.716273 -372.131754 
L 217.588937 -376.572839 
L 216.166564 -381.013925 
L 214.450824 -385.45501 
L 212.478671 -389.896095 
L 210.320868 -394.33718 
L 208.076436 -398.778266 
L 205.863748 -403.219351 
L 203.801529 -407.660436 
L 201.971048 -412.101521 
L 200.362603 -416.542607 
L 198.828346 -420.983692 
L 197.070441 -425.424777 
L 194.675962 -429.865862 
L 191.178926 -434.306948 
L 186.117404 -438.748033 
L 179.086864 -443.189118 
L 169.852605 -447.630203 
L 158.596652 -452.071289 
L 146.257227 -456.512374 
L 134.709626 -460.953459 
L 126.445837 -465.394544 
L 123.654234 -469.83563 
L 127.106166 -474.276715 
L 135.58559 -478.7178 
L 146.343526 -483.158885 
L 156.345275 -487.599971 
L 163.522323 -492.041056 
L 167.32246 -496.482141 
L 168.428091 -500.923226 
L 168.038521 -505.364311 
L 167.221499 -509.805397 
L 166.602259 -514.246482 
L 166.36582 -518.687567 
L 166.40779 -523.128652 
L 166.497398 -527.569738 
L 166.408443 -532.010823 
L 166.022362 -536.451908 
L 165.39139 -540.892993 
L 164.729102 -545.334079 
L 164.324087 -549.775164 
L 164.427334 -554.216249 
L 165.180342 -558.657334 
L 166.609812 -563.09842 
L 168.66392 -567.539505 
L 171.252486 -571.98059 
L 174.271563 -576.421675 
L 177.60714 -580.862761 
L 181.116228 -585.303846 
L 184.598138 -589.744931 
L 187.793328 -594.186016 
L 190.445668 -598.627102 
L 192.415113 -603.068187 
L 193.769258 -607.509272 
L 194.777886 -611.950357 
L 195.79973 -616.391443 
L 197.128931 -620.832528 
L 198.891098 -625.273613 
L 201.033526 -629.714698 
L 203.389279 -634.155784 
L 205.76243 -638.596869 
L 207.992176 -643.037954 
L 209.982702 -647.479039 
L 211.706587 -651.920125 
L 213.193315 -656.36121 
L 214.508041 -660.802295 
L 215.721964 -665.24338 
L 216.880934 -669.684466 
L 217.986616 -674.125551 
L 219.001906 -678.566636 
L 219.877073 -683.007721 
L 220.578416 -687.448807 
L 221.101546 -691.889892 
L 221.465995 -696.330977 
L 221.701914 -700.772062 
L 221.841009 -705.213148 
L 221.914705 -709.654233 
L 221.954295 -714.095318 
L 221.987916 -718.536403 
L 222.034789 -722.977489 
L 222.101071 -727.418574 
L 222.18076 -731.859659 
L 222.261321 -736.300744 
L 222.330733 -740.74183 
L 222.382299 -745.182915 
L 222.415579 -749.624 
L 222.449769 -749.624 
L 222.449769 -749.624 
L 222.449769 -745.182915 
L 222.449769 -740.74183 
L 222.449769 -736.300744 
L 222.449769 -731.859659 
L 222.449769 -727.418574 
L 222.449769 -722.977489 
L 222.449769 -718.536403 
L 222.449769 -714.095318 
L 222.449769 -709.654233 
L 222.449769 -705.213148 
L 222.449769 -700.772062 
L 222.449769 -696.330977 
L 222.449769 -691.889892 
L 222.449769 -687.448807 
L 222.449769 -683.007721 
L 222.449769 -678.566636 
L 222.449769 -674.125551 
L 222.449769 -669.684466 
L 222.449769 -665.24338 
L 222.449769 -660.802295 
L 222.449769 -656.36121 
L 222.449769 -651.920125 
L 222.449769 -647.479039 
L 222.449769 -643.037954 
L 222.449769 -638.596869 
L 222.449769 -634.155784 
L 222.449769 -629.714698 
L 222.449769 -625.273613 
L 222.449769 -620.832528 
L 222.449769 -616.391443 
L 222.449769 -611.950357 
L 222.449769 -607.509272 
L 222.449769 -603.068187 
L 222.449769 -598.627102 
L 222.449769 -594.186016 
L 222.449769 -589.744931 
L 222.449769 -585.303846 
L 222.449769 -580.862761 
L 222.449769 -576.421675 
L 222.449769 -571.98059 
L 222.449769 -567.539505 
L 222.449769 -563.09842 
L 222.449769 -558.657334 
L 222.449769 -554.216249 
L 222.449769 -549.775164 
L 222.449769 -545.334079 
L 222.449769 -540.892993 
L 222.449769 -536.451908 
L 222.449769 -532.010823 
L 222.449769 -527.569738 
L 222.449769 -523.128652 
L 222.449769 -518.687567 
L 222.449769 -514.246482 
L 222.449769 -509.805397 
L 222.449769 -505.364311 
L 222.449769 -500.923226 
L 222.449769 -496.482141 
L 222.449769 -492.041056 
L 222.449769 -487.599971 
L 222.449769 -483.158885 
L 222.449769 -478.7178 
L 222.449769 -474.276715 
L 222.449769 -469.83563 
L 222.449769 -465.394544 
L 222.449769 -460.953459 
L 222.449769 -456.512374 
L 222.449769 -452.071289 
L 222.449769 -447.630203 
L 222.449769 -443.189118 
L 222.449769 -438.748033 
L 222.449769 -434.306948 
L 222.449769 -429.865862 
L 222.449769 -425.424777 
L 222.449769 -420.983692 
L 222.449769 -416.542607 
L 222.449769 -412.101521 
L 222.449769 -407.660436 
L 222.449769 -403.219351 
L 222.449769 -398.778266 
L 222.449769 -394.33718 
L 222.449769 -389.896095 
L 222.449769 -385.45501 
L 222.449769 -381.013925 
L 222.449769 -376.572839 
L 222.449769 -372.131754 
L 222.449769 -367.690669 
L 222.449769 -363.249584 
L 222.449769 -358.808498 
L 222.449769 -354.367413 
L 222.449769 -349.926328 
L 222.449769 -345.485243 
L 222.449769 -341.044157 
L 222.449769 -336.603072 
L 222.449769 -332.161987 
L 222.449769 -327.720902 
L 222.449769 -323.279816 
L 222.449769 -318.838731 
L 222.449769 -314.397646 
L 222.449769 -309.956561 
z
" style="stroke: #3d3d3d; stroke-width: 1.25"/>
    </defs>
    <g clip-path="url(#p4cdc3cd052)">
     <use xlink:href="#mf3132d5c15" x="0" y="864" style="fill: #3274a1; stroke: #3d3d3d; stroke-width: 1.25"/>
    </g>
   </g>
   <g id="PolyCollection_2">
    <defs>
     <path id="md7850e9e46" d="M 222.603836 -246.744 
L 222.449769 -246.744 
L 222.449769 -246.908289 
L 222.449769 -247.072578 
L 222.449769 -247.236867 
L 222.449769 -247.401156 
L 222.449769 -247.565445 
L 222.449769 -247.729734 
L 222.449769 -247.894023 
L 222.449769 -248.058311 
L 222.449769 -248.2226 
L 222.449769 -248.386889 
L 222.449769 -248.551178 
L 222.449769 -248.715467 
L 222.449769 -248.879756 
L 222.449769 -249.044045 
L 222.449769 -249.208334 
L 222.449769 -249.372623 
L 222.449769 -249.536912 
L 222.449769 -249.701201 
L 222.449769 -249.86549 
L 222.449769 -250.029779 
L 222.449769 -250.194068 
L 222.449769 -250.358357 
L 222.449769 -250.522646 
L 222.449769 -250.686934 
L 222.449769 -250.851223 
L 222.449769 -251.015512 
L 222.449769 -251.179801 
L 222.449769 -251.34409 
L 222.449769 -251.508379 
L 222.449769 -251.672668 
L 222.449769 -251.836957 
L 222.449769 -252.001246 
L 222.449769 -252.165535 
L 222.449769 -252.329824 
L 222.449769 -252.494113 
L 222.449769 -252.658402 
L 222.449769 -252.822691 
L 222.449769 -252.98698 
L 222.449769 -253.151269 
L 222.449769 -253.315557 
L 222.449769 -253.479846 
L 222.449769 -253.644135 
L 222.449769 -253.808424 
L 222.449769 -253.972713 
L 222.449769 -254.137002 
L 222.449769 -254.301291 
L 222.449769 -254.46558 
L 222.449769 -254.629869 
L 222.449769 -254.794158 
L 222.449769 -254.958447 
L 222.449769 -255.122736 
L 222.449769 -255.287025 
L 222.449769 -255.451314 
L 222.449769 -255.615603 
L 222.449769 -255.779892 
L 222.449769 -255.94418 
L 222.449769 -256.108469 
L 222.449769 -256.272758 
L 222.449769 -256.437047 
L 222.449769 -256.601336 
L 222.449769 -256.765625 
L 222.449769 -256.929914 
L 222.449769 -257.094203 
L 222.449769 -257.258492 
L 222.449769 -257.422781 
L 222.449769 -257.58707 
L 222.449769 -257.751359 
L 222.449769 -257.915648 
L 222.449769 -258.079937 
L 222.449769 -258.244226 
L 222.449769 -258.408515 
L 222.449769 -258.572803 
L 222.449769 -258.737092 
L 222.449769 -258.901381 
L 222.449769 -259.06567 
L 222.449769 -259.229959 
L 222.449769 -259.394248 
L 222.449769 -259.558537 
L 222.449769 -259.722826 
L 222.449769 -259.887115 
L 222.449769 -260.051404 
L 222.449769 -260.215693 
L 222.449769 -260.379982 
L 222.449769 -260.544271 
L 222.449769 -260.70856 
L 222.449769 -260.872849 
L 222.449769 -261.037138 
L 222.449769 -261.201426 
L 222.449769 -261.365715 
L 222.449769 -261.530004 
L 222.449769 -261.694293 
L 222.449769 -261.858582 
L 222.449769 -262.022871 
L 222.449769 -262.18716 
L 222.449769 -262.351449 
L 222.449769 -262.515738 
L 222.449769 -262.680027 
L 222.449769 -262.844316 
L 222.449769 -263.008605 
L 222.467372 -263.008605 
L 222.467372 -263.008605 
L 222.489371 -262.844316 
L 222.522285 -262.680027 
L 222.558377 -262.515738 
L 222.584584 -262.351449 
L 222.59313 -262.18716 
L 222.589685 -262.022871 
L 222.587325 -261.858582 
L 222.59123 -261.694293 
L 222.592548 -261.530004 
L 222.579386 -261.365715 
L 222.551593 -261.201426 
L 222.522732 -261.037138 
L 222.509316 -260.872849 
L 222.519153 -260.70856 
L 222.546651 -260.544271 
L 222.576477 -260.379982 
L 222.595039 -260.215693 
L 222.603437 -260.051404 
L 222.618966 -259.887115 
L 222.659629 -259.722826 
L 222.724104 -259.558537 
L 222.786557 -259.394248 
L 222.813167 -259.229959 
L 222.788237 -259.06567 
L 222.728994 -258.901381 
L 222.677183 -258.737092 
L 222.675995 -258.572803 
L 222.752661 -258.408515 
L 222.916508 -258.244226 
L 223.161825 -258.079937 
L 223.461451 -257.915648 
L 223.757699 -257.751359 
L 223.974427 -257.58707 
L 224.057407 -257.422781 
L 224.01438 -257.258492 
L 223.917611 -257.094203 
L 223.864125 -256.929914 
L 223.926771 -256.765625 
L 224.134062 -256.601336 
L 224.48322 -256.437047 
L 224.954563 -256.272758 
L 225.504781 -256.108469 
L 226.062537 -255.94418 
L 226.557942 -255.779892 
L 226.968564 -255.615603 
L 227.337959 -255.451314 
L 227.756464 -255.287025 
L 228.32403 -255.122736 
L 229.10639 -254.958447 
L 230.098454 -254.794158 
L 231.232686 -254.629869 
L 232.444106 -254.46558 
L 233.723812 -254.301291 
L 235.086163 -254.137002 
L 236.493885 -253.972713 
L 237.867104 -253.808424 
L 239.199664 -253.644135 
L 240.643908 -253.479846 
L 242.431284 -253.315557 
L 244.66851 -253.151269 
L 247.193551 -252.98698 
L 249.660049 -252.822691 
L 251.83325 -252.658402 
L 253.853686 -252.494113 
L 256.209271 -252.329824 
L 259.420296 -252.165535 
L 263.695727 -252.001246 
L 268.798884 -251.836957 
L 274.166261 -251.672668 
L 279.185019 -251.508379 
L 283.485799 -251.34409 
L 287.096829 -251.179801 
L 290.384602 -251.015512 
L 293.852376 -250.851223 
L 297.904202 -250.686934 
L 302.615896 -250.522646 
L 307.594677 -250.358357 
L 312.097081 -250.194068 
L 315.426781 -250.029779 
L 317.338785 -249.86549 
L 318.134508 -249.701201 
L 318.397056 -249.536912 
L 318.582772 -249.372623 
L 318.764386 -249.208334 
L 318.65793 -249.044045 
L 317.741976 -248.879756 
L 315.227312 -248.715467 
L 310.061024 -248.551178 
L 301.36287 -248.386889 
L 289.150074 -248.2226 
L 274.661676 -248.058311 
L 259.918988 -247.894023 
L 246.885998 -247.729734 
L 236.805077 -247.565445 
L 229.976832 -247.401156 
L 225.940867 -247.236867 
L 223.87016 -247.072578 
L 222.952901 -246.908289 
L 222.603836 -246.744 
z
" style="stroke: #3d3d3d; stroke-width: 1.25"/>
    </defs>
    <g clip-path="url(#p4cdc3cd052)">
     <use xlink:href="#md7850e9e46" x="0" y="864" style="fill: #e1812c; stroke: #3d3d3d; stroke-width: 1.25"/>
    </g>
   </g>
   <g id="PolyCollection_3">
    <defs>
     <path id="md966ab6f4d" d="M 420.040837 -246.808194 
L 419.845213 -246.808194 
L 419.308166 -246.993095 
L 417.774738 -247.177996 
L 414.193609 -247.362897 
L 407.324461 -247.547798 
L 396.456347 -247.7327 
L 382.163143 -247.917601 
L 366.293303 -248.102502 
L 351.047043 -248.287403 
L 338.088553 -248.472304 
L 328.470894 -248.657205 
L 322.856958 -248.842106 
L 321.245303 -249.027008 
L 322.562372 -249.211909 
L 325.020928 -249.39681 
L 327.188513 -249.581711 
L 328.739863 -249.766612 
L 330.210817 -249.951513 
L 332.225632 -250.136414 
L 335.069083 -250.321315 
L 338.720357 -250.506217 
L 342.991313 -250.691118 
L 347.721837 -250.876019 
L 352.930872 -251.06092 
L 358.602461 -251.245821 
L 364.355775 -251.430722 
L 369.594655 -251.615623 
L 374.00846 -251.800524 
L 377.785292 -251.985426 
L 381.354672 -252.170327 
L 385.004347 -252.355228 
L 388.699385 -252.540129 
L 392.159222 -252.72503 
L 395.100924 -252.909931 
L 397.501348 -253.094832 
L 399.641534 -253.279733 
L 401.828685 -253.464635 
L 404.081758 -253.649536 
L 406.153245 -253.834437 
L 407.840348 -254.019338 
L 409.191968 -254.204239 
L 410.40949 -254.38914 
L 411.639814 -254.574041 
L 412.893164 -254.758942 
L 414.071155 -254.943844 
L 415.029223 -255.128745 
L 415.682961 -255.313646 
L 416.098641 -255.498547 
L 416.438671 -255.683448 
L 416.800483 -255.868349 
L 417.148935 -256.05325 
L 417.414151 -256.238151 
L 417.60462 -256.423053 
L 417.798375 -256.607954 
L 418.054988 -256.792855 
L 418.360936 -256.977756 
L 418.648558 -257.162657 
L 418.857971 -257.347558 
L 418.987313 -257.532459 
L 419.086507 -257.71736 
L 419.205758 -257.902262 
L 419.353872 -258.087163 
L 419.495912 -258.272064 
L 419.586831 -258.456965 
L 419.61947 -258.641866 
L 419.636577 -258.826767 
L 419.68364 -259.011668 
L 419.759541 -259.196569 
L 419.827619 -259.381471 
L 419.866132 -259.566372 
L 419.88951 -259.751273 
L 419.920878 -259.936174 
L 419.961603 -260.121075 
L 419.994324 -260.305976 
L 420.003134 -260.490877 
L 419.984257 -260.675778 
L 419.948043 -260.86068 
L 419.917338 -261.045581 
L 419.914448 -261.230482 
L 419.942096 -261.415383 
L 419.982005 -261.600284 
L 420.014107 -261.785185 
L 420.031576 -261.970086 
L 420.038391 -262.154987 
L 420.040344 -262.339889 
L 420.040761 -262.52479 
L 420.040827 -262.709691 
L 420.040821 -262.894592 
L 420.040713 -263.079493 
L 420.040081 -263.264394 
L 420.03733 -263.449295 
L 420.028436 -263.634197 
L 420.007402 -263.819098 
L 419.972097 -264.003999 
L 419.933068 -264.1889 
L 419.911998 -264.373801 
L 419.923383 -264.558702 
L 419.959187 -264.743603 
L 419.997555 -264.928504 
L 420.023341 -265.113406 
L 420.040837 -265.113406 
L 420.040837 -265.113406 
L 420.040837 -264.928504 
L 420.040837 -264.743603 
L 420.040837 -264.558702 
L 420.040837 -264.373801 
L 420.040837 -264.1889 
L 420.040837 -264.003999 
L 420.040837 -263.819098 
L 420.040837 -263.634197 
L 420.040837 -263.449295 
L 420.040837 -263.264394 
L 420.040837 -263.079493 
L 420.040837 -262.894592 
L 420.040837 -262.709691 
L 420.040837 -262.52479 
L 420.040837 -262.339889 
L 420.040837 -262.154987 
L 420.040837 -261.970086 
L 420.040837 -261.785185 
L 420.040837 -261.600284 
L 420.040837 -261.415383 
L 420.040837 -261.230482 
L 420.040837 -261.045581 
L 420.040837 -260.86068 
L 420.040837 -260.675778 
L 420.040837 -260.490877 
L 420.040837 -260.305976 
L 420.040837 -260.121075 
L 420.040837 -259.936174 
L 420.040837 -259.751273 
L 420.040837 -259.566372 
L 420.040837 -259.381471 
L 420.040837 -259.196569 
L 420.040837 -259.011668 
L 420.040837 -258.826767 
L 420.040837 -258.641866 
L 420.040837 -258.456965 
L 420.040837 -258.272064 
L 420.040837 -258.087163 
L 420.040837 -257.902262 
L 420.040837 -257.71736 
L 420.040837 -257.532459 
L 420.040837 -257.347558 
L 420.040837 -257.162657 
L 420.040837 -256.977756 
L 420.040837 -256.792855 
L 420.040837 -256.607954 
L 420.040837 -256.423053 
L 420.040837 -256.238151 
L 420.040837 -256.05325 
L 420.040837 -255.868349 
L 420.040837 -255.683448 
L 420.040837 -255.498547 
L 420.040837 -255.313646 
L 420.040837 -255.128745 
L 420.040837 -254.943844 
L 420.040837 -254.758942 
L 420.040837 -254.574041 
L 420.040837 -254.38914 
L 420.040837 -254.204239 
L 420.040837 -254.019338 
L 420.040837 -253.834437 
L 420.040837 -253.649536 
L 420.040837 -253.464635 
L 420.040837 -253.279733 
L 420.040837 -253.094832 
L 420.040837 -252.909931 
L 420.040837 -252.72503 
L 420.040837 -252.540129 
L 420.040837 -252.355228 
L 420.040837 -252.170327 
L 420.040837 -251.985426 
L 420.040837 -251.800524 
L 420.040837 -251.615623 
L 420.040837 -251.430722 
L 420.040837 -251.245821 
L 420.040837 -251.06092 
L 420.040837 -250.876019 
L 420.040837 -250.691118 
L 420.040837 -250.506217 
L 420.040837 -250.321315 
L 420.040837 -250.136414 
L 420.040837 -249.951513 
L 420.040837 -249.766612 
L 420.040837 -249.581711 
L 420.040837 -249.39681 
L 420.040837 -249.211909 
L 420.040837 -249.027008 
L 420.040837 -248.842106 
L 420.040837 -248.657205 
L 420.040837 -248.472304 
L 420.040837 -248.287403 
L 420.040837 -248.102502 
L 420.040837 -247.917601 
L 420.040837 -247.7327 
L 420.040837 -247.547798 
L 420.040837 -247.362897 
L 420.040837 -247.177996 
L 420.040837 -246.993095 
L 420.040837 -246.808194 
z
" style="stroke: #3d3d3d; stroke-width: 1.25"/>
    </defs>
    <g clip-path="url(#p4cdc3cd052)">
     <use xlink:href="#md966ab6f4d" x="0" y="864" style="fill: #3a923a; stroke: #3d3d3d; stroke-width: 1.25"/>
    </g>
   </g>
   <g id="PolyCollection_4">
    <defs>
     <path id="m13bdd9c71d" d="M 592.933022 -309.956561 
L 592.866807 -309.956561 
L 592.800525 -314.397646 
L 592.696918 -318.838731 
L 592.556916 -323.279816 
L 592.393987 -327.720902 
L 592.230454 -332.161987 
L 592.085724 -336.603072 
L 591.962972 -341.044157 
L 591.843738 -345.485243 
L 591.694098 -349.926328 
L 591.476189 -354.367413 
L 591.154953 -358.808498 
L 590.695955 -363.249584 
L 590.059467 -367.690669 
L 589.199526 -372.131754 
L 588.07219 -376.572839 
L 586.649818 -381.013925 
L 584.934078 -385.45501 
L 582.961925 -389.896095 
L 580.804122 -394.33718 
L 578.55969 -398.778266 
L 576.347002 -403.219351 
L 574.284783 -407.660436 
L 572.454302 -412.101521 
L 570.845856 -416.542607 
L 569.3116 -420.983692 
L 567.553695 -425.424777 
L 565.159216 -429.865862 
L 561.66218 -434.306948 
L 556.600657 -438.748033 
L 549.570118 -443.189118 
L 540.335858 -447.630203 
L 529.079906 -452.071289 
L 516.740481 -456.512374 
L 505.19288 -460.953459 
L 496.929091 -465.394544 
L 494.137488 -469.83563 
L 497.589419 -474.276715 
L 506.068843 -478.7178 
L 516.826779 -483.158885 
L 526.828528 -487.599971 
L 534.005577 -492.041056 
L 537.805714 -496.482141 
L 538.911344 -500.923226 
L 538.521774 -505.364311 
L 537.704753 -509.805397 
L 537.085513 -514.246482 
L 536.849074 -518.687567 
L 536.891044 -523.128652 
L 536.980652 -527.569738 
L 536.891697 -532.010823 
L 536.505615 -536.451908 
L 535.874643 -540.892993 
L 535.212356 -545.334079 
L 534.807341 -549.775164 
L 534.910588 -554.216249 
L 535.663596 -558.657334 
L 537.093065 -563.09842 
L 539.147174 -567.539505 
L 541.735739 -571.98059 
L 544.754817 -576.421675 
L 548.090393 -580.862761 
L 551.599482 -585.303846 
L 555.081392 -589.744931 
L 558.276582 -594.186016 
L 560.928921 -598.627102 
L 562.898366 -603.068187 
L 564.252511 -607.509272 
L 565.26114 -611.950357 
L 566.282984 -616.391443 
L 567.612185 -620.832528 
L 569.374352 -625.273613 
L 571.516779 -629.714698 
L 573.872533 -634.155784 
L 576.245684 -638.596869 
L 578.475429 -643.037954 
L 580.465956 -647.479039 
L 582.189841 -651.920125 
L 583.676569 -656.36121 
L 584.991295 -660.802295 
L 586.205218 -665.24338 
L 587.364188 -669.684466 
L 588.46987 -674.125551 
L 589.485159 -678.566636 
L 590.360327 -683.007721 
L 591.06167 -687.448807 
L 591.5848 -691.889892 
L 591.949249 -696.330977 
L 592.185168 -700.772062 
L 592.324262 -705.213148 
L 592.397959 -709.654233 
L 592.437549 -714.095318 
L 592.47117 -718.536403 
L 592.518042 -722.977489 
L 592.584325 -727.418574 
L 592.664014 -731.859659 
L 592.744575 -736.300744 
L 592.813986 -740.74183 
L 592.865553 -745.182915 
L 592.898833 -749.624 
L 592.933022 -749.624 
L 592.933022 -749.624 
L 592.933022 -745.182915 
L 592.933022 -740.74183 
L 592.933022 -736.300744 
L 592.933022 -731.859659 
L 592.933022 -727.418574 
L 592.933022 -722.977489 
L 592.933022 -718.536403 
L 592.933022 -714.095318 
L 592.933022 -709.654233 
L 592.933022 -705.213148 
L 592.933022 -700.772062 
L 592.933022 -696.330977 
L 592.933022 -691.889892 
L 592.933022 -687.448807 
L 592.933022 -683.007721 
L 592.933022 -678.566636 
L 592.933022 -674.125551 
L 592.933022 -669.684466 
L 592.933022 -665.24338 
L 592.933022 -660.802295 
L 592.933022 -656.36121 
L 592.933022 -651.920125 
L 592.933022 -647.479039 
L 592.933022 -643.037954 
L 592.933022 -638.596869 
L 592.933022 -634.155784 
L 592.933022 -629.714698 
L 592.933022 -625.273613 
L 592.933022 -620.832528 
L 592.933022 -616.391443 
L 592.933022 -611.950357 
L 592.933022 -607.509272 
L 592.933022 -603.068187 
L 592.933022 -598.627102 
L 592.933022 -594.186016 
L 592.933022 -589.744931 
L 592.933022 -585.303846 
L 592.933022 -580.862761 
L 592.933022 -576.421675 
L 592.933022 -571.98059 
L 592.933022 -567.539505 
L 592.933022 -563.09842 
L 592.933022 -558.657334 
L 592.933022 -554.216249 
L 592.933022 -549.775164 
L 592.933022 -545.334079 
L 592.933022 -540.892993 
L 592.933022 -536.451908 
L 592.933022 -532.010823 
L 592.933022 -527.569738 
L 592.933022 -523.128652 
L 592.933022 -518.687567 
L 592.933022 -514.246482 
L 592.933022 -509.805397 
L 592.933022 -505.364311 
L 592.933022 -500.923226 
L 592.933022 -496.482141 
L 592.933022 -492.041056 
L 592.933022 -487.599971 
L 592.933022 -483.158885 
L 592.933022 -478.7178 
L 592.933022 -474.276715 
L 592.933022 -469.83563 
L 592.933022 -465.394544 
L 592.933022 -460.953459 
L 592.933022 -456.512374 
L 592.933022 -452.071289 
L 592.933022 -447.630203 
L 592.933022 -443.189118 
L 592.933022 -438.748033 
L 592.933022 -434.306948 
L 592.933022 -429.865862 
L 592.933022 -425.424777 
L 592.933022 -420.983692 
L 592.933022 -416.542607 
L 592.933022 -412.101521 
L 592.933022 -407.660436 
L 592.933022 -403.219351 
L 592.933022 -398.778266 
L 592.933022 -394.33718 
L 592.933022 -389.896095 
L 592.933022 -385.45501 
L 592.933022 -381.013925 
L 592.933022 -376.572839 
L 592.933022 -372.131754 
L 592.933022 -367.690669 
L 592.933022 -363.249584 
L 592.933022 -358.808498 
L 592.933022 -354.367413 
L 592.933022 -349.926328 
L 592.933022 -345.485243 
L 592.933022 -341.044157 
L 592.933022 -336.603072 
L 592.933022 -332.161987 
L 592.933022 -327.720902 
L 592.933022 -323.279816 
L 592.933022 -318.838731 
L 592.933022 -314.397646 
L 592.933022 -309.956561 
z
" style="stroke: #3d3d3d; stroke-width: 1.25"/>
    </defs>
    <g clip-path="url(#p4cdc3cd052)">
     <use xlink:href="#m13bdd9c71d" x="0" y="864" style="fill: #3274a1; stroke: #3d3d3d; stroke-width: 1.25"/>
    </g>
   </g>
   <g id="PolyCollection_5">
    <defs>
     <path id="m72a4ab878b" d="M 593.172633 -246.841879 
L 592.933022 -246.841879 
L 592.933022 -247.000554 
L 592.933022 -247.15923 
L 592.933022 -247.317905 
L 592.933022 -247.476581 
L 592.933022 -247.635256 
L 592.933022 -247.793931 
L 592.933022 -247.952607 
L 592.933022 -248.111282 
L 592.933022 -248.269958 
L 592.933022 -248.428633 
L 592.933022 -248.587308 
L 592.933022 -248.745984 
L 592.933022 -248.904659 
L 592.933022 -249.063335 
L 592.933022 -249.22201 
L 592.933022 -249.380686 
L 592.933022 -249.539361 
L 592.933022 -249.698036 
L 592.933022 -249.856712 
L 592.933022 -250.015387 
L 592.933022 -250.174063 
L 592.933022 -250.332738 
L 592.933022 -250.491413 
L 592.933022 -250.650089 
L 592.933022 -250.808764 
L 592.933022 -250.96744 
L 592.933022 -251.126115 
L 592.933022 -251.28479 
L 592.933022 -251.443466 
L 592.933022 -251.602141 
L 592.933022 -251.760817 
L 592.933022 -251.919492 
L 592.933022 -252.078167 
L 592.933022 -252.236843 
L 592.933022 -252.395518 
L 592.933022 -252.554194 
L 592.933022 -252.712869 
L 592.933022 -252.871545 
L 592.933022 -253.03022 
L 592.933022 -253.188895 
L 592.933022 -253.347571 
L 592.933022 -253.506246 
L 592.933022 -253.664922 
L 592.933022 -253.823597 
L 592.933022 -253.982272 
L 592.933022 -254.140948 
L 592.933022 -254.299623 
L 592.933022 -254.458299 
L 592.933022 -254.616974 
L 592.933022 -254.775649 
L 592.933022 -254.934325 
L 592.933022 -255.093 
L 592.933022 -255.251676 
L 592.933022 -255.410351 
L 592.933022 -255.569026 
L 592.933022 -255.727702 
L 592.933022 -255.886377 
L 592.933022 -256.045053 
L 592.933022 -256.203728 
L 592.933022 -256.362403 
L 592.933022 -256.521079 
L 592.933022 -256.679754 
L 592.933022 -256.83843 
L 592.933022 -256.997105 
L 592.933022 -257.155781 
L 592.933022 -257.314456 
L 592.933022 -257.473131 
L 592.933022 -257.631807 
L 592.933022 -257.790482 
L 592.933022 -257.949158 
L 592.933022 -258.107833 
L 592.933022 -258.266508 
L 592.933022 -258.425184 
L 592.933022 -258.583859 
L 592.933022 -258.742535 
L 592.933022 -258.90121 
L 592.933022 -259.059885 
L 592.933022 -259.218561 
L 592.933022 -259.377236 
L 592.933022 -259.535912 
L 592.933022 -259.694587 
L 592.933022 -259.853262 
L 592.933022 -260.011938 
L 592.933022 -260.170613 
L 592.933022 -260.329289 
L 592.933022 -260.487964 
L 592.933022 -260.64664 
L 592.933022 -260.805315 
L 592.933022 -260.96399 
L 592.933022 -261.122666 
L 592.933022 -261.281341 
L 592.933022 -261.440017 
L 592.933022 -261.598692 
L 592.933022 -261.757367 
L 592.933022 -261.916043 
L 592.933022 -262.074718 
L 592.933022 -262.233394 
L 592.933022 -262.392069 
L 592.933022 -262.550744 
L 592.950924 -262.550744 
L 592.950924 -262.550744 
L 592.972756 -262.392069 
L 593.005107 -262.233394 
L 593.039914 -262.074718 
L 593.062581 -261.916043 
L 593.061374 -261.757367 
L 593.036958 -261.598692 
L 593.001826 -261.440017 
L 592.970322 -261.281341 
L 592.949908 -261.122666 
L 592.940748 -260.96399 
L 592.940789 -260.805315 
L 592.95005 -260.64664 
L 592.970623 -260.487964 
L 593.002462 -260.329289 
L 593.038602 -260.170613 
L 593.066256 -260.011938 
L 593.076161 -259.853262 
L 593.071872 -259.694587 
L 593.066981 -259.535912 
L 593.071194 -259.377236 
L 593.081374 -259.218561 
L 593.089914 -259.059885 
L 593.102768 -258.90121 
L 593.146714 -258.742535 
L 593.253805 -258.583859 
L 593.430917 -258.425184 
L 593.638096 -258.266508 
L 593.801375 -258.107833 
L 593.863245 -257.949158 
L 593.833289 -257.790482 
L 593.787033 -257.631807 
L 593.807719 -257.473131 
L 593.927531 -257.314456 
L 594.121618 -257.155781 
L 594.343624 -256.997105 
L 594.554156 -256.83843 
L 594.727464 -256.679754 
L 594.862323 -256.521079 
L 595.002296 -256.362403 
L 595.226468 -256.203728 
L 595.591115 -256.045053 
L 596.074775 -255.886377 
L 596.59591 -255.727702 
L 597.091759 -255.569026 
L 597.572381 -255.410351 
L 598.097525 -255.251676 
L 598.714667 -255.093 
L 599.425931 -254.934325 
L 600.208646 -254.775649 
L 601.06857 -254.616974 
L 602.080904 -254.458299 
L 603.365878 -254.299623 
L 604.984887 -254.140948 
L 606.838026 -253.982272 
L 608.692003 -253.823597 
L 610.359057 -253.664922 
L 611.868673 -253.506246 
L 613.452157 -253.347571 
L 615.349127 -253.188895 
L 617.624217 -253.03022 
L 620.149799 -252.871545 
L 622.736419 -252.712869 
L 625.290401 -252.554194 
L 627.904655 -252.395518 
L 630.831676 -252.236843 
L 634.319149 -252.078167 
L 638.386044 -251.919492 
L 642.723637 -251.760817 
L 646.855481 -251.602141 
L 650.478028 -251.443466 
L 653.709413 -251.28479 
L 656.983382 -251.126115 
L 660.618309 -250.96744 
L 664.481146 -250.808764 
L 668.162383 -250.650089 
L 671.496127 -250.491413 
L 674.790057 -250.332738 
L 678.48097 -250.174063 
L 682.620783 -250.015387 
L 686.701228 -249.856712 
L 689.912971 -249.698036 
L 691.618941 -249.539361 
L 691.728557 -249.380686 
L 690.714988 -249.22201 
L 689.251695 -249.063335 
L 687.683708 -248.904659 
L 685.627821 -248.745984 
L 681.986459 -248.587308 
L 675.491375 -248.428633 
L 665.491871 -248.269958 
L 652.456773 -248.111282 
L 637.896095 -247.952607 
L 623.812723 -247.793931 
L 611.98047 -247.635256 
L 603.365831 -247.476581 
L 597.956563 -247.317905 
L 595.041656 -247.15923 
L 593.699235 -247.000554 
L 593.172633 -246.841879 
z
" style="stroke: #3d3d3d; stroke-width: 1.25"/>
    </defs>
    <g clip-path="url(#p4cdc3cd052)">
     <use xlink:href="#m72a4ab878b" x="0" y="864" style="fill: #e1812c; stroke: #3d3d3d; stroke-width: 1.25"/>
    </g>
   </g>
   <g id="PolyCollection_6">
    <defs>
     <path id="m769adca298" d="M 790.524091 -246.884004 
L 790.195751 -246.884004 
L 789.374527 -247.062945 
L 787.194649 -247.241886 
L 782.461241 -247.420827 
L 774.002745 -247.599767 
L 761.506571 -247.778708 
L 746.216474 -247.957649 
L 730.750456 -248.13659 
L 717.87717 -248.31553 
L 709.069442 -248.494471 
L 703.996645 -248.673412 
L 701.265716 -248.852353 
L 699.577141 -249.031293 
L 698.356327 -249.210234 
L 697.687353 -249.389175 
L 697.902062 -249.568116 
L 699.194536 -249.747056 
L 701.468818 -249.925997 
L 704.419451 -250.104938 
L 707.7116 -250.283879 
L 711.090872 -250.462819 
L 714.330359 -250.64176 
L 717.213477 -250.820701 
L 719.777978 -250.999642 
L 722.529398 -251.178582 
L 726.195895 -251.357523 
L 731.212445 -251.536464 
L 737.419964 -251.715405 
L 744.10873 -251.894345 
L 750.332035 -252.073286 
L 755.400575 -252.252227 
L 759.221618 -252.431168 
L 762.148918 -252.610108 
L 764.553269 -252.789049 
L 766.602927 -252.96799 
L 768.366294 -253.146931 
L 769.982062 -253.325872 
L 771.670404 -253.504812 
L 773.559748 -253.683753 
L 775.526866 -253.862694 
L 777.299751 -254.041635 
L 778.748093 -254.220575 
L 779.988022 -254.399516 
L 781.189269 -254.578457 
L 782.392236 -254.757398 
L 783.545026 -254.936338 
L 784.619188 -255.115279 
L 785.617595 -255.29422 
L 786.495697 -255.473161 
L 787.14565 -255.652101 
L 787.489116 -255.831042 
L 787.563853 -256.009983 
L 787.519701 -256.188924 
L 787.546325 -256.367864 
L 787.767487 -256.546805 
L 788.164171 -256.725746 
L 788.615203 -256.904687 
L 789.019098 -257.083627 
L 789.349436 -257.262568 
L 789.605489 -257.441509 
L 789.768856 -257.62045 
L 789.834091 -257.79939 
L 789.848953 -257.978331 
L 789.887609 -258.157272 
L 789.985324 -258.336213 
L 790.118963 -258.515153 
L 790.247835 -258.694094 
L 790.351303 -258.873035 
L 790.427178 -259.051976 
L 790.477461 -259.230916 
L 790.505609 -259.409857 
L 790.518208 -259.588798 
L 790.522557 -259.767739 
L 790.523443 -259.946679 
L 790.522302 -260.12562 
L 790.517439 -260.304561 
L 790.504339 -260.483502 
L 790.478334 -260.662443 
L 790.441446 -260.841383 
L 790.407715 -261.020324 
L 790.396328 -261.199265 
L 790.414728 -261.378206 
L 790.451043 -261.557146 
L 790.485661 -261.736087 
L 790.506498 -261.915028 
L 790.51118 -262.093969 
L 790.49992 -262.272909 
L 790.472685 -262.45185 
L 790.435011 -262.630791 
L 790.402508 -262.809732 
L 790.391602 -262.988672 
L 790.402225 -263.167613 
L 790.415211 -263.346554 
L 790.412525 -263.525495 
L 790.397791 -263.704435 
L 790.392121 -263.883376 
L 790.410365 -264.062317 
L 790.446441 -264.241258 
L 790.482574 -264.420198 
L 790.506764 -264.599139 
L 790.524091 -264.599139 
L 790.524091 -264.599139 
L 790.524091 -264.420198 
L 790.524091 -264.241258 
L 790.524091 -264.062317 
L 790.524091 -263.883376 
L 790.524091 -263.704435 
L 790.524091 -263.525495 
L 790.524091 -263.346554 
L 790.524091 -263.167613 
L 790.524091 -262.988672 
L 790.524091 -262.809732 
L 790.524091 -262.630791 
L 790.524091 -262.45185 
L 790.524091 -262.272909 
L 790.524091 -262.093969 
L 790.524091 -261.915028 
L 790.524091 -261.736087 
L 790.524091 -261.557146 
L 790.524091 -261.378206 
L 790.524091 -261.199265 
L 790.524091 -261.020324 
L 790.524091 -260.841383 
L 790.524091 -260.662443 
L 790.524091 -260.483502 
L 790.524091 -260.304561 
L 790.524091 -260.12562 
L 790.524091 -259.946679 
L 790.524091 -259.767739 
L 790.524091 -259.588798 
L 790.524091 -259.409857 
L 790.524091 -259.230916 
L 790.524091 -259.051976 
L 790.524091 -258.873035 
L 790.524091 -258.694094 
L 790.524091 -258.515153 
L 790.524091 -258.336213 
L 790.524091 -258.157272 
L 790.524091 -257.978331 
L 790.524091 -257.79939 
L 790.524091 -257.62045 
L 790.524091 -257.441509 
L 790.524091 -257.262568 
L 790.524091 -257.083627 
L 790.524091 -256.904687 
L 790.524091 -256.725746 
L 790.524091 -256.546805 
L 790.524091 -256.367864 
L 790.524091 -256.188924 
L 790.524091 -256.009983 
L 790.524091 -255.831042 
L 790.524091 -255.652101 
L 790.524091 -255.473161 
L 790.524091 -255.29422 
L 790.524091 -255.115279 
L 790.524091 -254.936338 
L 790.524091 -254.757398 
L 790.524091 -254.578457 
L 790.524091 -254.399516 
L 790.524091 -254.220575 
L 790.524091 -254.041635 
L 790.524091 -253.862694 
L 790.524091 -253.683753 
L 790.524091 -253.504812 
L 790.524091 -253.325872 
L 790.524091 -253.146931 
L 790.524091 -252.96799 
L 790.524091 -252.789049 
L 790.524091 -252.610108 
L 790.524091 -252.431168 
L 790.524091 -252.252227 
L 790.524091 -252.073286 
L 790.524091 -251.894345 
L 790.524091 -251.715405 
L 790.524091 -251.536464 
L 790.524091 -251.357523 
L 790.524091 -251.178582 
L 790.524091 -250.999642 
L 790.524091 -250.820701 
L 790.524091 -250.64176 
L 790.524091 -250.462819 
L 790.524091 -250.283879 
L 790.524091 -250.104938 
L 790.524091 -249.925997 
L 790.524091 -249.747056 
L 790.524091 -249.568116 
L 790.524091 -249.389175 
L 790.524091 -249.210234 
L 790.524091 -249.031293 
L 790.524091 -248.852353 
L 790.524091 -248.673412 
L 790.524091 -248.494471 
L 790.524091 -248.31553 
L 790.524091 -248.13659 
L 790.524091 -247.957649 
L 790.524091 -247.778708 
L 790.524091 -247.599767 
L 790.524091 -247.420827 
L 790.524091 -247.241886 
L 790.524091 -247.062945 
L 790.524091 -246.884004 
z
" style="stroke: #3d3d3d; stroke-width: 1.25"/>
    </defs>
    <g clip-path="url(#p4cdc3cd052)">
     <use xlink:href="#m769adca298" x="0" y="864" style="fill: #3a923a; stroke: #3d3d3d; stroke-width: 1.25"/>
    </g>
   </g>
   <g id="patch_3">
    <path d="M 271.847536 616.602237 
L 271.847536 616.602237 
L 271.847536 616.602237 
L 271.847536 616.602237 
z
" clip-path="url(#p4cdc3cd052)" style="fill: #3274a1; stroke: #3d3d3d; stroke-width: 1.25; stroke-linejoin: miter"/>
   </g>
   <g id="patch_4">
    <path d="M 271.847536 616.602237 
L 271.847536 616.602237 
L 271.847536 616.602237 
L 271.847536 616.602237 
z
" clip-path="url(#p4cdc3cd052)" style="fill: #e1812c; stroke: #3d3d3d; stroke-width: 1.25; stroke-linejoin: miter"/>
   </g>
   <g id="patch_5">
    <path d="M 271.847536 616.602237 
L 271.847536 616.602237 
L 271.847536 616.602237 
L 271.847536 616.602237 
z
" clip-path="url(#p4cdc3cd052)" style="fill: #3a923a; stroke: #3d3d3d; stroke-width: 1.25; stroke-linejoin: miter"/>
   </g>
   <g id="patch_6">
    <path d="M 86.605909 642.4 
L 457.089163 642.4 
L 457.089163 89.232 
L 86.605909 89.232 
z
" clip-path="url(#p4cdc3cd052)" style="fill: #808080; opacity: 0.1; stroke: #808080; stroke-linejoin: miter"/>
   </g>
   <g id="matplotlib.axis_1">
    <g id="xtick_1">
     <g id="line2d_1">
      <defs>
       <path id="mdbcdd0dad8" d="M 0 0 
L 0 3.5 
" style="stroke: #000000; stroke-width: 0.8"/>
      </defs>
      <g>
       <use xlink:href="#mdbcdd0dad8" x="271.847536" y="642.4" style="stroke: #000000; stroke-width: 0.8"/>
      </g>
     </g>
     <g id="text_1">
      <!-- Mutual Information Score - X as Truth -->
      <g transform="translate(274.606911 835.623437) rotate(-90) scale(0.1 -0.1)">
       <defs>
        <path id="DejaVuSans-4d" d="M 628 4666 
L 1569 4666 
L 2759 1491 
L 3956 4666 
L 4897 4666 
L 4897 0 
L 4281 0 
L 4281 4097 
L 3078 897 
L 2444 897 
L 1241 4097 
L 1241 0 
L 628 0 
L 628 4666 
z
" transform="scale(0.015625)"/>
        <path id="DejaVuSans-75" d="M 544 1381 
L 544 3500 
L 1119 3500 
L 1119 1403 
Q 1119 906 1312 657 
Q 1506 409 1894 409 
Q 2359 409 2629 706 
Q 2900 1003 2900 1516 
L 2900 3500 
L 3475 3500 
L 3475 0 
L 2900 0 
L 2900 538 
Q 2691 219 2414 64 
Q 2138 -91 1772 -91 
Q 1169 -91 856 284 
Q 544 659 544 1381 
z
M 1991 3584 
L 1991 3584 
z
" transform="scale(0.015625)"/>
        <path id="DejaVuSans-74" d="M 1172 4494 
L 1172 3500 
L 2356 3500 
L 2356 3053 
L 1172 3053 
L 1172 1153 
Q 1172 725 1289 603 
Q 1406 481 1766 481 
L 2356 481 
L 2356 0 
L 1766 0 
Q 1100 0 847 248 
Q 594 497 594 1153 
L 594 3053 
L 172 3053 
L 172 3500 
L 594 3500 
L 594 4494 
L 1172 4494 
z
" transform="scale(0.015625)"/>
        <path id="DejaVuSans-61" d="M 2194 1759 
Q 1497 1759 1228 1600 
Q 959 1441 959 1056 
Q 959 750 1161 570 
Q 1363 391 1709 391 
Q 2188 391 2477 730 
Q 2766 1069 2766 1631 
L 2766 1759 
L 2194 1759 
z
M 3341 1997 
L 3341 0 
L 2766 0 
L 2766 531 
Q 2569 213 2275 61 
Q 1981 -91 1556 -91 
Q 1019 -91 701 211 
Q 384 513 384 1019 
Q 384 1609 779 1909 
Q 1175 2209 1959 2209 
L 2766 2209 
L 2766 2266 
Q 2766 2663 2505 2880 
Q 2244 3097 1772 3097 
Q 1472 3097 1187 3025 
Q 903 2953 641 2809 
L 641 3341 
Q 956 3463 1253 3523 
Q 1550 3584 1831 3584 
Q 2591 3584 2966 3190 
Q 3341 2797 3341 1997 
z
" transform="scale(0.015625)"/>
        <path id="DejaVuSans-6c" d="M 603 4863 
L 1178 4863 
L 1178 0 
L 603 0 
L 603 4863 
z
" transform="scale(0.015625)"/>
        <path id="DejaVuSans-20" transform="scale(0.015625)"/>
        <path id="DejaVuSans-49" d="M 628 4666 
L 1259 4666 
L 1259 0 
L 628 0 
L 628 4666 
z
" transform="scale(0.015625)"/>
        <path id="DejaVuSans-6e" d="M 3513 2113 
L 3513 0 
L 2938 0 
L 2938 2094 
Q 2938 2591 2744 2837 
Q 2550 3084 2163 3084 
Q 1697 3084 1428 2787 
Q 1159 2491 1159 1978 
L 1159 0 
L 581 0 
L 581 3500 
L 1159 3500 
L 1159 2956 
Q 1366 3272 1645 3428 
Q 1925 3584 2291 3584 
Q 2894 3584 3203 3211 
Q 3513 2838 3513 2113 
z
" transform="scale(0.015625)"/>
        <path id="DejaVuSans-66" d="M 2375 4863 
L 2375 4384 
L 1825 4384 
Q 1516 4384 1395 4259 
Q 1275 4134 1275 3809 
L 1275 3500 
L 2222 3500 
L 2222 3053 
L 1275 3053 
L 1275 0 
L 697 0 
L 697 3053 
L 147 3053 
L 147 3500 
L 697 3500 
L 697 3744 
Q 697 4328 969 4595 
Q 1241 4863 1831 4863 
L 2375 4863 
z
" transform="scale(0.015625)"/>
        <path id="DejaVuSans-6f" d="M 1959 3097 
Q 1497 3097 1228 2736 
Q 959 2375 959 1747 
Q 959 1119 1226 758 
Q 1494 397 1959 397 
Q 2419 397 2687 759 
Q 2956 1122 2956 1747 
Q 2956 2369 2687 2733 
Q 2419 3097 1959 3097 
z
M 1959 3584 
Q 2709 3584 3137 3096 
Q 3566 2609 3566 1747 
Q 3566 888 3137 398 
Q 2709 -91 1959 -91 
Q 1206 -91 779 398 
Q 353 888 353 1747 
Q 353 2609 779 3096 
Q 1206 3584 1959 3584 
z
" transform="scale(0.015625)"/>
        <path id="DejaVuSans-72" d="M 2631 2963 
Q 2534 3019 2420 3045 
Q 2306 3072 2169 3072 
Q 1681 3072 1420 2755 
Q 1159 2438 1159 1844 
L 1159 0 
L 581 0 
L 581 3500 
L 1159 3500 
L 1159 2956 
Q 1341 3275 1631 3429 
Q 1922 3584 2338 3584 
Q 2397 3584 2469 3576 
Q 2541 3569 2628 3553 
L 2631 2963 
z
" transform="scale(0.015625)"/>
        <path id="DejaVuSans-6d" d="M 3328 2828 
Q 3544 3216 3844 3400 
Q 4144 3584 4550 3584 
Q 5097 3584 5394 3201 
Q 5691 2819 5691 2113 
L 5691 0 
L 5113 0 
L 5113 2094 
Q 5113 2597 4934 2840 
Q 4756 3084 4391 3084 
Q 3944 3084 3684 2787 
Q 3425 2491 3425 1978 
L 3425 0 
L 2847 0 
L 2847 2094 
Q 2847 2600 2669 2842 
Q 2491 3084 2119 3084 
Q 1678 3084 1418 2786 
Q 1159 2488 1159 1978 
L 1159 0 
L 581 0 
L 581 3500 
L 1159 3500 
L 1159 2956 
Q 1356 3278 1631 3431 
Q 1906 3584 2284 3584 
Q 2666 3584 2933 3390 
Q 3200 3197 3328 2828 
z
" transform="scale(0.015625)"/>
        <path id="DejaVuSans-69" d="M 603 3500 
L 1178 3500 
L 1178 0 
L 603 0 
L 603 3500 
z
M 603 4863 
L 1178 4863 
L 1178 4134 
L 603 4134 
L 603 4863 
z
" transform="scale(0.015625)"/>
        <path id="DejaVuSans-53" d="M 3425 4513 
L 3425 3897 
Q 3066 4069 2747 4153 
Q 2428 4238 2131 4238 
Q 1616 4238 1336 4038 
Q 1056 3838 1056 3469 
Q 1056 3159 1242 3001 
Q 1428 2844 1947 2747 
L 2328 2669 
Q 3034 2534 3370 2195 
Q 3706 1856 3706 1288 
Q 3706 609 3251 259 
Q 2797 -91 1919 -91 
Q 1588 -91 1214 -16 
Q 841 59 441 206 
L 441 856 
Q 825 641 1194 531 
Q 1563 422 1919 422 
Q 2459 422 2753 634 
Q 3047 847 3047 1241 
Q 3047 1584 2836 1778 
Q 2625 1972 2144 2069 
L 1759 2144 
Q 1053 2284 737 2584 
Q 422 2884 422 3419 
Q 422 4038 858 4394 
Q 1294 4750 2059 4750 
Q 2388 4750 2728 4690 
Q 3069 4631 3425 4513 
z
" transform="scale(0.015625)"/>
        <path id="DejaVuSans-63" d="M 3122 3366 
L 3122 2828 
Q 2878 2963 2633 3030 
Q 2388 3097 2138 3097 
Q 1578 3097 1268 2742 
Q 959 2388 959 1747 
Q 959 1106 1268 751 
Q 1578 397 2138 397 
Q 2388 397 2633 464 
Q 2878 531 3122 666 
L 3122 134 
Q 2881 22 2623 -34 
Q 2366 -91 2075 -91 
Q 1284 -91 818 406 
Q 353 903 353 1747 
Q 353 2603 823 3093 
Q 1294 3584 2113 3584 
Q 2378 3584 2631 3529 
Q 2884 3475 3122 3366 
z
" transform="scale(0.015625)"/>
        <path id="DejaVuSans-65" d="M 3597 1894 
L 3597 1613 
L 953 1613 
Q 991 1019 1311 708 
Q 1631 397 2203 397 
Q 2534 397 2845 478 
Q 3156 559 3463 722 
L 3463 178 
Q 3153 47 2828 -22 
Q 2503 -91 2169 -91 
Q 1331 -91 842 396 
Q 353 884 353 1716 
Q 353 2575 817 3079 
Q 1281 3584 2069 3584 
Q 2775 3584 3186 3129 
Q 3597 2675 3597 1894 
z
M 3022 2063 
Q 3016 2534 2758 2815 
Q 2500 3097 2075 3097 
Q 1594 3097 1305 2825 
Q 1016 2553 972 2059 
L 3022 2063 
z
" transform="scale(0.015625)"/>
        <path id="DejaVuSans-2d" d="M 313 2009 
L 1997 2009 
L 1997 1497 
L 313 1497 
L 313 2009 
z
" transform="scale(0.015625)"/>
        <path id="DejaVuSans-58" d="M 403 4666 
L 1081 4666 
L 2241 2931 
L 3406 4666 
L 4084 4666 
L 2584 2425 
L 4184 0 
L 3506 0 
L 2194 1984 
L 872 0 
L 191 0 
L 1856 2491 
L 403 4666 
z
" transform="scale(0.015625)"/>
        <path id="DejaVuSans-73" d="M 2834 3397 
L 2834 2853 
Q 2591 2978 2328 3040 
Q 2066 3103 1784 3103 
Q 1356 3103 1142 2972 
Q 928 2841 928 2578 
Q 928 2378 1081 2264 
Q 1234 2150 1697 2047 
L 1894 2003 
Q 2506 1872 2764 1633 
Q 3022 1394 3022 966 
Q 3022 478 2636 193 
Q 2250 -91 1575 -91 
Q 1294 -91 989 -36 
Q 684 19 347 128 
L 347 722 
Q 666 556 975 473 
Q 1284 391 1588 391 
Q 1994 391 2212 530 
Q 2431 669 2431 922 
Q 2431 1156 2273 1281 
Q 2116 1406 1581 1522 
L 1381 1569 
Q 847 1681 609 1914 
Q 372 2147 372 2553 
Q 372 3047 722 3315 
Q 1072 3584 1716 3584 
Q 2034 3584 2315 3537 
Q 2597 3491 2834 3397 
z
" transform="scale(0.015625)"/>
        <path id="DejaVuSans-54" d="M -19 4666 
L 3928 4666 
L 3928 4134 
L 2272 4134 
L 2272 0 
L 1638 0 
L 1638 4134 
L -19 4134 
L -19 4666 
z
" transform="scale(0.015625)"/>
        <path id="DejaVuSans-68" d="M 3513 2113 
L 3513 0 
L 2938 0 
L 2938 2094 
Q 2938 2591 2744 2837 
Q 2550 3084 2163 3084 
Q 1697 3084 1428 2787 
Q 1159 2491 1159 1978 
L 1159 0 
L 581 0 
L 581 4863 
L 1159 4863 
L 1159 2956 
Q 1366 3272 1645 3428 
Q 1925 3584 2291 3584 
Q 2894 3584 3203 3211 
Q 3513 2838 3513 2113 
z
" transform="scale(0.015625)"/>
       </defs>
       <use xlink:href="#DejaVuSans-4d"/>
       <use xlink:href="#DejaVuSans-75" x="86.279297"/>
       <use xlink:href="#DejaVuSans-74" x="149.658203"/>
       <use xlink:href="#DejaVuSans-75" x="188.867188"/>
       <use xlink:href="#DejaVuSans-61" x="252.246094"/>
       <use xlink:href="#DejaVuSans-6c" x="313.525391"/>
       <use xlink:href="#DejaVuSans-20" x="341.308594"/>
       <use xlink:href="#DejaVuSans-49" x="373.095703"/>
       <use xlink:href="#DejaVuSans-6e" x="402.587891"/>
       <use xlink:href="#DejaVuSans-66" x="465.966797"/>
       <use xlink:href="#DejaVuSans-6f" x="501.171875"/>
       <use xlink:href="#DejaVuSans-72" x="562.353516"/>
       <use xlink:href="#DejaVuSans-6d" x="601.716797"/>
       <use xlink:href="#DejaVuSans-61" x="699.128906"/>
       <use xlink:href="#DejaVuSans-74" x="760.408203"/>
       <use xlink:href="#DejaVuSans-69" x="799.617188"/>
       <use xlink:href="#DejaVuSans-6f" x="827.400391"/>
       <use xlink:href="#DejaVuSans-6e" x="888.582031"/>
       <use xlink:href="#DejaVuSans-20" x="951.960938"/>
       <use xlink:href="#DejaVuSans-53" x="983.748047"/>
       <use xlink:href="#DejaVuSans-63" x="1047.224609"/>
       <use xlink:href="#DejaVuSans-6f" x="1102.205078"/>
       <use xlink:href="#DejaVuSans-72" x="1163.386719"/>
       <use xlink:href="#DejaVuSans-65" x="1202.25"/>
       <use xlink:href="#DejaVuSans-20" x="1263.773438"/>
       <use xlink:href="#DejaVuSans-2d" x="1295.560547"/>
       <use xlink:href="#DejaVuSans-20" x="1331.644531"/>
       <use xlink:href="#DejaVuSans-58" x="1363.431641"/>
       <use xlink:href="#DejaVuSans-20" x="1431.9375"/>
       <use xlink:href="#DejaVuSans-61" x="1463.724609"/>
       <use xlink:href="#DejaVuSans-73" x="1525.003906"/>
       <use xlink:href="#DejaVuSans-20" x="1577.103516"/>
       <use xlink:href="#DejaVuSans-54" x="1608.890625"/>
       <use xlink:href="#DejaVuSans-72" x="1655.224609"/>
       <use xlink:href="#DejaVuSans-75" x="1696.337891"/>
       <use xlink:href="#DejaVuSans-74" x="1759.716797"/>
       <use xlink:href="#DejaVuSans-68" x="1798.925781"/>
      </g>
     </g>
    </g>
    <g id="xtick_2">
     <g id="line2d_2">
      <g>
       <use xlink:href="#mdbcdd0dad8" x="642.330789" y="642.4" style="stroke: #000000; stroke-width: 0.8"/>
      </g>
     </g>
     <g id="text_2">
      <!-- Mutual Information Score - Y as Truth -->
      <g transform="translate(645.090164 834.88125) rotate(-90) scale(0.1 -0.1)">
       <defs>
        <path id="DejaVuSans-59" d="M -13 4666 
L 666 4666 
L 1959 2747 
L 3244 4666 
L 3922 4666 
L 2272 2222 
L 2272 0 
L 1638 0 
L 1638 2222 
L -13 4666 
z
" transform="scale(0.015625)"/>
       </defs>
       <use xlink:href="#DejaVuSans-4d"/>
       <use xlink:href="#DejaVuSans-75" x="86.279297"/>
       <use xlink:href="#DejaVuSans-74" x="149.658203"/>
       <use xlink:href="#DejaVuSans-75" x="188.867188"/>
       <use xlink:href="#DejaVuSans-61" x="252.246094"/>
       <use xlink:href="#DejaVuSans-6c" x="313.525391"/>
       <use xlink:href="#DejaVuSans-20" x="341.308594"/>
       <use xlink:href="#DejaVuSans-49" x="373.095703"/>
       <use xlink:href="#DejaVuSans-6e" x="402.587891"/>
       <use xlink:href="#DejaVuSans-66" x="465.966797"/>
       <use xlink:href="#DejaVuSans-6f" x="501.171875"/>
       <use xlink:href="#DejaVuSans-72" x="562.353516"/>
       <use xlink:href="#DejaVuSans-6d" x="601.716797"/>
       <use xlink:href="#DejaVuSans-61" x="699.128906"/>
       <use xlink:href="#DejaVuSans-74" x="760.408203"/>
       <use xlink:href="#DejaVuSans-69" x="799.617188"/>
       <use xlink:href="#DejaVuSans-6f" x="827.400391"/>
       <use xlink:href="#DejaVuSans-6e" x="888.582031"/>
       <use xlink:href="#DejaVuSans-20" x="951.960938"/>
       <use xlink:href="#DejaVuSans-53" x="983.748047"/>
       <use xlink:href="#DejaVuSans-63" x="1047.224609"/>
       <use xlink:href="#DejaVuSans-6f" x="1102.205078"/>
       <use xlink:href="#DejaVuSans-72" x="1163.386719"/>
       <use xlink:href="#DejaVuSans-65" x="1202.25"/>
       <use xlink:href="#DejaVuSans-20" x="1263.773438"/>
       <use xlink:href="#DejaVuSans-2d" x="1295.560547"/>
       <use xlink:href="#DejaVuSans-20" x="1331.644531"/>
       <use xlink:href="#DejaVuSans-59" x="1363.431641"/>
       <use xlink:href="#DejaVuSans-20" x="1424.515625"/>
       <use xlink:href="#DejaVuSans-61" x="1456.302734"/>
       <use xlink:href="#DejaVuSans-73" x="1517.582031"/>
       <use xlink:href="#DejaVuSans-20" x="1569.681641"/>
       <use xlink:href="#DejaVuSans-54" x="1601.46875"/>
       <use xlink:href="#DejaVuSans-72" x="1647.802734"/>
       <use xlink:href="#DejaVuSans-75" x="1688.916016"/>
       <use xlink:href="#DejaVuSans-74" x="1752.294922"/>
       <use xlink:href="#DejaVuSans-68" x="1791.503906"/>
      </g>
     </g>
    </g>
    <g id="text_3">
     <!-- Statistical Test -->
     <g transform="translate(387.971406 850.26125) scale(0.14 -0.14)">
      <use xlink:href="#DejaVuSans-53"/>
      <use xlink:href="#DejaVuSans-74" x="63.476562"/>
      <use xlink:href="#DejaVuSans-61" x="102.685547"/>
      <use xlink:href="#DejaVuSans-74" x="163.964844"/>
      <use xlink:href="#DejaVuSans-69" x="203.173828"/>
      <use xlink:href="#DejaVuSans-73" x="230.957031"/>
      <use xlink:href="#DejaVuSans-74" x="283.056641"/>
      <use xlink:href="#DejaVuSans-69" x="322.265625"/>
      <use xlink:href="#DejaVuSans-63" x="350.048828"/>
      <use xlink:href="#DejaVuSans-61" x="405.029297"/>
      <use xlink:href="#DejaVuSans-6c" x="466.308594"/>
      <use xlink:href="#DejaVuSans-20" x="494.091797"/>
      <use xlink:href="#DejaVuSans-54" x="525.878906"/>
      <use xlink:href="#DejaVuSans-65" x="569.962891"/>
      <use xlink:href="#DejaVuSans-73" x="631.486328"/>
      <use xlink:href="#DejaVuSans-74" x="683.585938"/>
     </g>
    </g>
   </g>
   <g id="matplotlib.axis_2">
    <g id="ytick_1">
     <g id="line2d_3">
      <defs>
       <path id="mdc61d6340f" d="M 0 0 
L -3.5 0 
" style="stroke: #000000; stroke-width: 0.8"/>
      </defs>
      <g>
       <use xlink:href="#mdc61d6340f" x="51.41" y="616.602237" style="stroke: #000000; stroke-width: 0.8"/>
      </g>
     </g>
     <g id="text_4">
      <!-- 0.0 -->
      <g transform="translate(28.506875 620.401455) scale(0.1 -0.1)">
       <defs>
        <path id="DejaVuSans-30" d="M 2034 4250 
Q 1547 4250 1301 3770 
Q 1056 3291 1056 2328 
Q 1056 1369 1301 889 
Q 1547 409 2034 409 
Q 2525 409 2770 889 
Q 3016 1369 3016 2328 
Q 3016 3291 2770 3770 
Q 2525 4250 2034 4250 
z
M 2034 4750 
Q 2819 4750 3233 4129 
Q 3647 3509 3647 2328 
Q 3647 1150 3233 529 
Q 2819 -91 2034 -91 
Q 1250 -91 836 529 
Q 422 1150 422 2328 
Q 422 3509 836 4129 
Q 1250 4750 2034 4750 
z
" transform="scale(0.015625)"/>
        <path id="DejaVuSans-2e" d="M 684 794 
L 1344 794 
L 1344 0 
L 684 0 
L 684 794 
z
" transform="scale(0.015625)"/>
       </defs>
       <use xlink:href="#DejaVuSans-30"/>
       <use xlink:href="#DejaVuSans-2e" x="63.623047"/>
       <use xlink:href="#DejaVuSans-30" x="95.410156"/>
      </g>
     </g>
    </g>
    <g id="ytick_2">
     <g id="line2d_4">
      <g>
       <use xlink:href="#mdc61d6340f" x="51.41" y="551.126719" style="stroke: #000000; stroke-width: 0.8"/>
      </g>
     </g>
     <g id="text_5">
      <!-- 0.2 -->
      <g transform="translate(28.506875 554.925937) scale(0.1 -0.1)">
       <defs>
        <path id="DejaVuSans-32" d="M 1228 531 
L 3431 531 
L 3431 0 
L 469 0 
L 469 531 
Q 828 903 1448 1529 
Q 2069 2156 2228 2338 
Q 2531 2678 2651 2914 
Q 2772 3150 2772 3378 
Q 2772 3750 2511 3984 
Q 2250 4219 1831 4219 
Q 1534 4219 1204 4116 
Q 875 4013 500 3803 
L 500 4441 
Q 881 4594 1212 4672 
Q 1544 4750 1819 4750 
Q 2544 4750 2975 4387 
Q 3406 4025 3406 3419 
Q 3406 3131 3298 2873 
Q 3191 2616 2906 2266 
Q 2828 2175 2409 1742 
Q 1991 1309 1228 531 
z
" transform="scale(0.015625)"/>
       </defs>
       <use xlink:href="#DejaVuSans-30"/>
       <use xlink:href="#DejaVuSans-2e" x="63.623047"/>
       <use xlink:href="#DejaVuSans-32" x="95.410156"/>
      </g>
     </g>
    </g>
    <g id="ytick_3">
     <g id="line2d_5">
      <g>
       <use xlink:href="#mdc61d6340f" x="51.41" y="485.651201" style="stroke: #000000; stroke-width: 0.8"/>
      </g>
     </g>
     <g id="text_6">
      <!-- 0.4 -->
      <g transform="translate(28.506875 489.45042) scale(0.1 -0.1)">
       <defs>
        <path id="DejaVuSans-34" d="M 2419 4116 
L 825 1625 
L 2419 1625 
L 2419 4116 
z
M 2253 4666 
L 3047 4666 
L 3047 1625 
L 3713 1625 
L 3713 1100 
L 3047 1100 
L 3047 0 
L 2419 0 
L 2419 1100 
L 313 1100 
L 313 1709 
L 2253 4666 
z
" transform="scale(0.015625)"/>
       </defs>
       <use xlink:href="#DejaVuSans-30"/>
       <use xlink:href="#DejaVuSans-2e" x="63.623047"/>
       <use xlink:href="#DejaVuSans-34" x="95.410156"/>
      </g>
     </g>
    </g>
    <g id="ytick_4">
     <g id="line2d_6">
      <g>
       <use xlink:href="#mdc61d6340f" x="51.41" y="420.175683" style="stroke: #000000; stroke-width: 0.8"/>
      </g>
     </g>
     <g id="text_7">
      <!-- 0.6 -->
      <g transform="translate(28.506875 423.974902) scale(0.1 -0.1)">
       <defs>
        <path id="DejaVuSans-36" d="M 2113 2584 
Q 1688 2584 1439 2293 
Q 1191 2003 1191 1497 
Q 1191 994 1439 701 
Q 1688 409 2113 409 
Q 2538 409 2786 701 
Q 3034 994 3034 1497 
Q 3034 2003 2786 2293 
Q 2538 2584 2113 2584 
z
M 3366 4563 
L 3366 3988 
Q 3128 4100 2886 4159 
Q 2644 4219 2406 4219 
Q 1781 4219 1451 3797 
Q 1122 3375 1075 2522 
Q 1259 2794 1537 2939 
Q 1816 3084 2150 3084 
Q 2853 3084 3261 2657 
Q 3669 2231 3669 1497 
Q 3669 778 3244 343 
Q 2819 -91 2113 -91 
Q 1303 -91 875 529 
Q 447 1150 447 2328 
Q 447 3434 972 4092 
Q 1497 4750 2381 4750 
Q 2619 4750 2861 4703 
Q 3103 4656 3366 4563 
z
" transform="scale(0.015625)"/>
       </defs>
       <use xlink:href="#DejaVuSans-30"/>
       <use xlink:href="#DejaVuSans-2e" x="63.623047"/>
       <use xlink:href="#DejaVuSans-36" x="95.410156"/>
      </g>
     </g>
    </g>
    <g id="ytick_5">
     <g id="line2d_7">
      <g>
       <use xlink:href="#mdc61d6340f" x="51.41" y="354.700165" style="stroke: #000000; stroke-width: 0.8"/>
      </g>
     </g>
     <g id="text_8">
      <!-- 0.8 -->
      <g transform="translate(28.506875 358.499384) scale(0.1 -0.1)">
       <defs>
        <path id="DejaVuSans-38" d="M 2034 2216 
Q 1584 2216 1326 1975 
Q 1069 1734 1069 1313 
Q 1069 891 1326 650 
Q 1584 409 2034 409 
Q 2484 409 2743 651 
Q 3003 894 3003 1313 
Q 3003 1734 2745 1975 
Q 2488 2216 2034 2216 
z
M 1403 2484 
Q 997 2584 770 2862 
Q 544 3141 544 3541 
Q 544 4100 942 4425 
Q 1341 4750 2034 4750 
Q 2731 4750 3128 4425 
Q 3525 4100 3525 3541 
Q 3525 3141 3298 2862 
Q 3072 2584 2669 2484 
Q 3125 2378 3379 2068 
Q 3634 1759 3634 1313 
Q 3634 634 3220 271 
Q 2806 -91 2034 -91 
Q 1263 -91 848 271 
Q 434 634 434 1313 
Q 434 1759 690 2068 
Q 947 2378 1403 2484 
z
M 1172 3481 
Q 1172 3119 1398 2916 
Q 1625 2713 2034 2713 
Q 2441 2713 2670 2916 
Q 2900 3119 2900 3481 
Q 2900 3844 2670 4047 
Q 2441 4250 2034 4250 
Q 1625 4250 1398 4047 
Q 1172 3844 1172 3481 
z
" transform="scale(0.015625)"/>
       </defs>
       <use xlink:href="#DejaVuSans-30"/>
       <use xlink:href="#DejaVuSans-2e" x="63.623047"/>
       <use xlink:href="#DejaVuSans-38" x="95.410156"/>
      </g>
     </g>
    </g>
    <g id="ytick_6">
     <g id="line2d_8">
      <g>
       <use xlink:href="#mdc61d6340f" x="51.41" y="289.224647" style="stroke: #000000; stroke-width: 0.8"/>
      </g>
     </g>
     <g id="text_9">
      <!-- 1.0 -->
      <g transform="translate(28.506875 293.023866) scale(0.1 -0.1)">
       <defs>
        <path id="DejaVuSans-31" d="M 794 531 
L 1825 531 
L 1825 4091 
L 703 3866 
L 703 4441 
L 1819 4666 
L 2450 4666 
L 2450 531 
L 3481 531 
L 3481 0 
L 794 0 
L 794 531 
z
" transform="scale(0.015625)"/>
       </defs>
       <use xlink:href="#DejaVuSans-31"/>
       <use xlink:href="#DejaVuSans-2e" x="63.623047"/>
       <use xlink:href="#DejaVuSans-30" x="95.410156"/>
      </g>
     </g>
    </g>
    <g id="ytick_7">
     <g id="line2d_9">
      <g>
       <use xlink:href="#mdc61d6340f" x="51.41" y="223.749129" style="stroke: #000000; stroke-width: 0.8"/>
      </g>
     </g>
     <g id="text_10">
      <!-- 1.2 -->
      <g transform="translate(28.506875 227.548348) scale(0.1 -0.1)">
       <use xlink:href="#DejaVuSans-31"/>
       <use xlink:href="#DejaVuSans-2e" x="63.623047"/>
       <use xlink:href="#DejaVuSans-32" x="95.410156"/>
      </g>
     </g>
    </g>
    <g id="ytick_8">
     <g id="line2d_10">
      <g>
       <use xlink:href="#mdc61d6340f" x="51.41" y="158.273611" style="stroke: #000000; stroke-width: 0.8"/>
      </g>
     </g>
     <g id="text_11">
      <!-- 1.4 -->
      <g transform="translate(28.506875 162.07283) scale(0.1 -0.1)">
       <use xlink:href="#DejaVuSans-31"/>
       <use xlink:href="#DejaVuSans-2e" x="63.623047"/>
       <use xlink:href="#DejaVuSans-34" x="95.410156"/>
      </g>
     </g>
    </g>
    <g id="ytick_9">
     <g id="line2d_11">
      <g>
       <use xlink:href="#mdc61d6340f" x="51.41" y="92.798094" style="stroke: #000000; stroke-width: 0.8"/>
      </g>
     </g>
     <g id="text_12">
      <!-- 1.6 -->
      <g transform="translate(28.506875 96.597312) scale(0.1 -0.1)">
       <use xlink:href="#DejaVuSans-31"/>
       <use xlink:href="#DejaVuSans-2e" x="63.623047"/>
       <use xlink:href="#DejaVuSans-36" x="95.410156"/>
      </g>
     </g>
    </g>
    <g id="text_13">
     <!-- Score -->
     <g transform="translate(21.595312 385.419281) rotate(-90) scale(0.14 -0.14)">
      <use xlink:href="#DejaVuSans-53"/>
      <use xlink:href="#DejaVuSans-63" x="63.476562"/>
      <use xlink:href="#DejaVuSans-6f" x="118.457031"/>
      <use xlink:href="#DejaVuSans-72" x="179.638672"/>
      <use xlink:href="#DejaVuSans-65" x="218.501953"/>
     </g>
    </g>
   </g>
   <g id="line2d_12">
    <path d="M 219.637269 528.834612 
L 219.637269 171.973661 
" clip-path="url(#p4cdc3cd052)" style="fill: none; stroke: #3d3d3d; stroke-width: 1.875; stroke-linecap: square"/>
   </g>
   <g id="line2d_13">
    <path d="M 219.637269 394.925338 
L 219.637269 302.091666 
" clip-path="url(#p4cdc3cd052)" style="fill: none; stroke: #3d3d3d; stroke-width: 5.625; stroke-linecap: square"/>
   </g>
   <g id="line2d_14">
    <path d="M 219.637269 355.728306 
" clip-path="url(#p4cdc3cd052)" style="fill: none; stroke: #3d3d3d; stroke-width: 1.5; stroke-linecap: square"/>
    <defs>
     <path id="m00a32dfe25" d="M 2.34375 0 
L -2.34375 -0 
" style="stroke: #ffffff; stroke-width: 1.125"/>
    </defs>
    <g clip-path="url(#p4cdc3cd052)">
     <use xlink:href="#m00a32dfe25" x="219.637269" y="355.728306" style="fill: #ffffff; stroke: #ffffff; stroke-width: 1.125"/>
    </g>
   </g>
   <g id="line2d_15">
    <path d="M 225.262269 616.536721 
L 225.262269 609.12172 
" clip-path="url(#p4cdc3cd052)" style="fill: none; stroke: #3d3d3d; stroke-width: 1.875; stroke-linecap: square"/>
   </g>
   <g id="line2d_16">
    <path d="M 225.262269 614.958864 
L 225.262269 612.605455 
" clip-path="url(#p4cdc3cd052)" style="fill: none; stroke: #3d3d3d; stroke-width: 5.625; stroke-linecap: square"/>
   </g>
   <g id="line2d_17">
    <path d="M 225.262269 613.922522 
" clip-path="url(#p4cdc3cd052)" style="fill: none; stroke: #3d3d3d; stroke-width: 1.5; stroke-linecap: square"/>
    <g clip-path="url(#p4cdc3cd052)">
     <use xlink:href="#m00a32dfe25" x="225.262269" y="613.922522" style="fill: #ffffff; stroke: #ffffff; stroke-width: 1.125"/>
    </g>
   </g>
   <g id="line2d_18">
    <path d="M 417.228337 616.481548 
L 417.228337 609.18875 
" clip-path="url(#p4cdc3cd052)" style="fill: none; stroke: #3d3d3d; stroke-width: 1.875; stroke-linecap: square"/>
   </g>
   <g id="line2d_19">
    <path d="M 417.228337 614.977587 
L 417.228337 612.661327 
" clip-path="url(#p4cdc3cd052)" style="fill: none; stroke: #3d3d3d; stroke-width: 5.625; stroke-linecap: square"/>
   </g>
   <g id="line2d_20">
    <path d="M 417.228337 613.935 
" clip-path="url(#p4cdc3cd052)" style="fill: none; stroke: #3d3d3d; stroke-width: 1.5; stroke-linecap: square"/>
    <g clip-path="url(#p4cdc3cd052)">
     <use xlink:href="#m00a32dfe25" x="417.228337" y="613.935" style="fill: #ffffff; stroke: #ffffff; stroke-width: 1.125"/>
    </g>
   </g>
   <g id="line2d_21">
    <path d="M 590.120522 528.834612 
L 590.120522 171.973661 
" clip-path="url(#p4cdc3cd052)" style="fill: none; stroke: #3d3d3d; stroke-width: 1.875; stroke-linecap: square"/>
   </g>
   <g id="line2d_22">
    <path d="M 590.120522 394.925338 
L 590.120522 302.091666 
" clip-path="url(#p4cdc3cd052)" style="fill: none; stroke: #3d3d3d; stroke-width: 5.625; stroke-linecap: square"/>
   </g>
   <g id="line2d_23">
    <path d="M 590.120522 355.728306 
" clip-path="url(#p4cdc3cd052)" style="fill: none; stroke: #3d3d3d; stroke-width: 1.5; stroke-linecap: square"/>
    <g clip-path="url(#p4cdc3cd052)">
     <use xlink:href="#m00a32dfe25" x="590.120522" y="355.728306" style="fill: #ffffff; stroke: #ffffff; stroke-width: 1.125"/>
    </g>
   </g>
   <g id="line2d_24">
    <path d="M 595.745522 616.451443 
L 595.745522 609.068656 
" clip-path="url(#p4cdc3cd052)" style="fill: none; stroke: #3d3d3d; stroke-width: 1.875; stroke-linecap: square"/>
   </g>
   <g id="line2d_25">
    <path d="M 595.745522 614.961516 
L 595.745522 612.593646 
" clip-path="url(#p4cdc3cd052)" style="fill: none; stroke: #3d3d3d; stroke-width: 5.625; stroke-linecap: square"/>
   </g>
   <g id="line2d_26">
    <path d="M 595.745522 613.94846 
" clip-path="url(#p4cdc3cd052)" style="fill: none; stroke: #3d3d3d; stroke-width: 1.5; stroke-linecap: square"/>
    <g clip-path="url(#p4cdc3cd052)">
     <use xlink:href="#m00a32dfe25" x="595.745522" y="613.94846" style="fill: #ffffff; stroke: #ffffff; stroke-width: 1.125"/>
    </g>
   </g>
   <g id="line2d_27">
    <path d="M 787.711591 616.398698 
L 787.711591 609.065562 
" clip-path="url(#p4cdc3cd052)" style="fill: none; stroke: #3d3d3d; stroke-width: 1.875; stroke-linecap: square"/>
   </g>
   <g id="line2d_28">
    <path d="M 787.711591 614.946827 
L 787.711591 612.591541 
" clip-path="url(#p4cdc3cd052)" style="fill: none; stroke: #3d3d3d; stroke-width: 5.625; stroke-linecap: square"/>
   </g>
   <g id="line2d_29">
    <path d="M 787.711591 613.906804 
" clip-path="url(#p4cdc3cd052)" style="fill: none; stroke: #3d3d3d; stroke-width: 1.5; stroke-linecap: square"/>
    <g clip-path="url(#p4cdc3cd052)">
     <use xlink:href="#m00a32dfe25" x="787.711591" y="613.906804" style="fill: #ffffff; stroke: #ffffff; stroke-width: 1.125"/>
    </g>
   </g>
   <g id="patch_7">
    <path d="M 51.41 642.4 
L 51.41 89.232 
" style="fill: none; stroke: #000000; stroke-width: 0.8; stroke-linejoin: miter; stroke-linecap: square"/>
   </g>
   <g id="patch_8">
    <path d="M 825.72 642.4 
L 825.72 89.232 
" style="fill: none; stroke: #000000; stroke-width: 0.8; stroke-linejoin: miter; stroke-linecap: square"/>
   </g>
   <g id="patch_9">
    <path d="M 51.41 642.4 
L 825.72 642.4 
" style="fill: none; stroke: #000000; stroke-width: 0.8; stroke-linejoin: miter; stroke-linecap: square"/>
   </g>
   <g id="patch_10">
    <path d="M 51.41 89.232 
L 825.72 89.232 
" style="fill: none; stroke: #000000; stroke-width: 0.8; stroke-linejoin: miter; stroke-linecap: square"/>
   </g>
   <g id="text_14">
    <!-- Violinplot of Scores Grouped by Statistical Test  -->
    <g transform="translate(249.7825 65.3155) scale(0.16 -0.16)">
     <defs>
      <path id="DejaVuSans-56" d="M 1831 0 
L 50 4666 
L 709 4666 
L 2188 738 
L 3669 4666 
L 4325 4666 
L 2547 0 
L 1831 0 
z
" transform="scale(0.015625)"/>
      <path id="DejaVuSans-70" d="M 1159 525 
L 1159 -1331 
L 581 -1331 
L 581 3500 
L 1159 3500 
L 1159 2969 
Q 1341 3281 1617 3432 
Q 1894 3584 2278 3584 
Q 2916 3584 3314 3078 
Q 3713 2572 3713 1747 
Q 3713 922 3314 415 
Q 2916 -91 2278 -91 
Q 1894 -91 1617 61 
Q 1341 213 1159 525 
z
M 3116 1747 
Q 3116 2381 2855 2742 
Q 2594 3103 2138 3103 
Q 1681 3103 1420 2742 
Q 1159 2381 1159 1747 
Q 1159 1113 1420 752 
Q 1681 391 2138 391 
Q 2594 391 2855 752 
Q 3116 1113 3116 1747 
z
" transform="scale(0.015625)"/>
      <path id="DejaVuSans-47" d="M 3809 666 
L 3809 1919 
L 2778 1919 
L 2778 2438 
L 4434 2438 
L 4434 434 
Q 4069 175 3628 42 
Q 3188 -91 2688 -91 
Q 1594 -91 976 548 
Q 359 1188 359 2328 
Q 359 3472 976 4111 
Q 1594 4750 2688 4750 
Q 3144 4750 3555 4637 
Q 3966 4525 4313 4306 
L 4313 3634 
Q 3963 3931 3569 4081 
Q 3175 4231 2741 4231 
Q 1884 4231 1454 3753 
Q 1025 3275 1025 2328 
Q 1025 1384 1454 906 
Q 1884 428 2741 428 
Q 3075 428 3337 486 
Q 3600 544 3809 666 
z
" transform="scale(0.015625)"/>
      <path id="DejaVuSans-64" d="M 2906 2969 
L 2906 4863 
L 3481 4863 
L 3481 0 
L 2906 0 
L 2906 525 
Q 2725 213 2448 61 
Q 2172 -91 1784 -91 
Q 1150 -91 751 415 
Q 353 922 353 1747 
Q 353 2572 751 3078 
Q 1150 3584 1784 3584 
Q 2172 3584 2448 3432 
Q 2725 3281 2906 2969 
z
M 947 1747 
Q 947 1113 1208 752 
Q 1469 391 1925 391 
Q 2381 391 2643 752 
Q 2906 1113 2906 1747 
Q 2906 2381 2643 2742 
Q 2381 3103 1925 3103 
Q 1469 3103 1208 2742 
Q 947 2381 947 1747 
z
" transform="scale(0.015625)"/>
      <path id="DejaVuSans-62" d="M 3116 1747 
Q 3116 2381 2855 2742 
Q 2594 3103 2138 3103 
Q 1681 3103 1420 2742 
Q 1159 2381 1159 1747 
Q 1159 1113 1420 752 
Q 1681 391 2138 391 
Q 2594 391 2855 752 
Q 3116 1113 3116 1747 
z
M 1159 2969 
Q 1341 3281 1617 3432 
Q 1894 3584 2278 3584 
Q 2916 3584 3314 3078 
Q 3713 2572 3713 1747 
Q 3713 922 3314 415 
Q 2916 -91 2278 -91 
Q 1894 -91 1617 61 
Q 1341 213 1159 525 
L 1159 0 
L 581 0 
L 581 4863 
L 1159 4863 
L 1159 2969 
z
" transform="scale(0.015625)"/>
      <path id="DejaVuSans-79" d="M 2059 -325 
Q 1816 -950 1584 -1140 
Q 1353 -1331 966 -1331 
L 506 -1331 
L 506 -850 
L 844 -850 
Q 1081 -850 1212 -737 
Q 1344 -625 1503 -206 
L 1606 56 
L 191 3500 
L 800 3500 
L 1894 763 
L 2988 3500 
L 3597 3500 
L 2059 -325 
z
" transform="scale(0.015625)"/>
     </defs>
     <use xlink:href="#DejaVuSans-56"/>
     <use xlink:href="#DejaVuSans-69" x="66.158203"/>
     <use xlink:href="#DejaVuSans-6f" x="93.941406"/>
     <use xlink:href="#DejaVuSans-6c" x="155.123047"/>
     <use xlink:href="#DejaVuSans-69" x="182.90625"/>
     <use xlink:href="#DejaVuSans-6e" x="210.689453"/>
     <use xlink:href="#DejaVuSans-70" x="274.068359"/>
     <use xlink:href="#DejaVuSans-6c" x="337.544922"/>
     <use xlink:href="#DejaVuSans-6f" x="365.328125"/>
     <use xlink:href="#DejaVuSans-74" x="426.509766"/>
     <use xlink:href="#DejaVuSans-20" x="465.71875"/>
     <use xlink:href="#DejaVuSans-6f" x="497.505859"/>
     <use xlink:href="#DejaVuSans-66" x="558.6875"/>
     <use xlink:href="#DejaVuSans-20" x="593.892578"/>
     <use xlink:href="#DejaVuSans-53" x="625.679688"/>
     <use xlink:href="#DejaVuSans-63" x="689.15625"/>
     <use xlink:href="#DejaVuSans-6f" x="744.136719"/>
     <use xlink:href="#DejaVuSans-72" x="805.318359"/>
     <use xlink:href="#DejaVuSans-65" x="844.181641"/>
     <use xlink:href="#DejaVuSans-73" x="905.705078"/>
     <use xlink:href="#DejaVuSans-20" x="957.804688"/>
     <use xlink:href="#DejaVuSans-47" x="989.591797"/>
     <use xlink:href="#DejaVuSans-72" x="1067.082031"/>
     <use xlink:href="#DejaVuSans-6f" x="1105.945312"/>
     <use xlink:href="#DejaVuSans-75" x="1167.126953"/>
     <use xlink:href="#DejaVuSans-70" x="1230.505859"/>
     <use xlink:href="#DejaVuSans-65" x="1293.982422"/>
     <use xlink:href="#DejaVuSans-64" x="1355.505859"/>
     <use xlink:href="#DejaVuSans-20" x="1418.982422"/>
     <use xlink:href="#DejaVuSans-62" x="1450.769531"/>
     <use xlink:href="#DejaVuSans-79" x="1514.246094"/>
     <use xlink:href="#DejaVuSans-20" x="1573.425781"/>
     <use xlink:href="#DejaVuSans-53" x="1605.212891"/>
     <use xlink:href="#DejaVuSans-74" x="1668.689453"/>
     <use xlink:href="#DejaVuSans-61" x="1707.898438"/>
     <use xlink:href="#DejaVuSans-74" x="1769.177734"/>
     <use xlink:href="#DejaVuSans-69" x="1808.386719"/>
     <use xlink:href="#DejaVuSans-73" x="1836.169922"/>
     <use xlink:href="#DejaVuSans-74" x="1888.269531"/>
     <use xlink:href="#DejaVuSans-69" x="1927.478516"/>
     <use xlink:href="#DejaVuSans-63" x="1955.261719"/>
     <use xlink:href="#DejaVuSans-61" x="2010.242188"/>
     <use xlink:href="#DejaVuSans-6c" x="2071.521484"/>
     <use xlink:href="#DejaVuSans-20" x="2099.304688"/>
     <use xlink:href="#DejaVuSans-54" x="2131.091797"/>
     <use xlink:href="#DejaVuSans-65" x="2175.175781"/>
     <use xlink:href="#DejaVuSans-73" x="2236.699219"/>
     <use xlink:href="#DejaVuSans-74" x="2288.798828"/>
     <use xlink:href="#DejaVuSans-20" x="2328.007812"/>
    </g>
    <!-- Across all subjects -->
    <g transform="translate(364.89875 83.232) scale(0.16 -0.16)">
     <defs>
      <path id="DejaVuSans-41" d="M 2188 4044 
L 1331 1722 
L 3047 1722 
L 2188 4044 
z
M 1831 4666 
L 2547 4666 
L 4325 0 
L 3669 0 
L 3244 1197 
L 1141 1197 
L 716 0 
L 50 0 
L 1831 4666 
z
" transform="scale(0.015625)"/>
      <path id="DejaVuSans-6a" d="M 603 3500 
L 1178 3500 
L 1178 -63 
Q 1178 -731 923 -1031 
Q 669 -1331 103 -1331 
L -116 -1331 
L -116 -844 
L 38 -844 
Q 366 -844 484 -692 
Q 603 -541 603 -63 
L 603 3500 
z
M 603 4863 
L 1178 4863 
L 1178 4134 
L 603 4134 
L 603 4863 
z
" transform="scale(0.015625)"/>
     </defs>
     <use xlink:href="#DejaVuSans-41"/>
     <use xlink:href="#DejaVuSans-63" x="66.658203"/>
     <use xlink:href="#DejaVuSans-72" x="121.638672"/>
     <use xlink:href="#DejaVuSans-6f" x="160.501953"/>
     <use xlink:href="#DejaVuSans-73" x="221.683594"/>
     <use xlink:href="#DejaVuSans-73" x="273.783203"/>
     <use xlink:href="#DejaVuSans-20" x="325.882812"/>
     <use xlink:href="#DejaVuSans-61" x="357.669922"/>
     <use xlink:href="#DejaVuSans-6c" x="418.949219"/>
     <use xlink:href="#DejaVuSans-6c" x="446.732422"/>
     <use xlink:href="#DejaVuSans-20" x="474.515625"/>
     <use xlink:href="#DejaVuSans-73" x="506.302734"/>
     <use xlink:href="#DejaVuSans-75" x="558.402344"/>
     <use xlink:href="#DejaVuSans-62" x="621.78125"/>
     <use xlink:href="#DejaVuSans-6a" x="685.257812"/>
     <use xlink:href="#DejaVuSans-65" x="713.041016"/>
     <use xlink:href="#DejaVuSans-63" x="774.564453"/>
     <use xlink:href="#DejaVuSans-74" x="829.544922"/>
     <use xlink:href="#DejaVuSans-73" x="868.753906"/>
    </g>
   </g>
   <g id="legend_1">
    <g id="patch_11">
     <path d="M 668.07425 167.351375 
L 856.0355 167.351375 
Q 858.4355 167.351375 858.4355 164.951375 
L 858.4355 97.632 
Q 858.4355 95.232 856.0355 95.232 
L 668.07425 95.232 
Q 665.67425 95.232 665.67425 97.632 
L 665.67425 164.951375 
Q 665.67425 167.351375 668.07425 167.351375 
z
" style="fill: #ffffff; opacity: 0.8; stroke: #cccccc; stroke-linejoin: miter"/>
    </g>
    <g id="text_15">
     <!-- Score Type -->
     <g transform="translate(734.980656 107.630437) scale(0.1 -0.1)">
      <use xlink:href="#DejaVuSans-53"/>
      <use xlink:href="#DejaVuSans-63" x="63.476562"/>
      <use xlink:href="#DejaVuSans-6f" x="118.457031"/>
      <use xlink:href="#DejaVuSans-72" x="179.638672"/>
      <use xlink:href="#DejaVuSans-65" x="218.501953"/>
      <use xlink:href="#DejaVuSans-20" x="280.025391"/>
      <use xlink:href="#DejaVuSans-54" x="311.8125"/>
      <use xlink:href="#DejaVuSans-79" x="357.271484"/>
      <use xlink:href="#DejaVuSans-70" x="416.451172"/>
      <use xlink:href="#DejaVuSans-65" x="479.927734"/>
     </g>
    </g>
    <g id="patch_12">
     <path d="M 670.47425 124.82825 
L 694.47425 124.82825 
L 694.47425 116.42825 
L 670.47425 116.42825 
z
" style="fill: #3274a1; stroke: #3d3d3d; stroke-width: 1.25; stroke-linejoin: miter"/>
    </g>
    <g id="text_16">
     <!-- Score: (x real, y real) -->
     <g transform="translate(704.07425 124.82825) scale(0.12 -0.12)">
      <defs>
       <path id="DejaVuSans-3a" d="M 750 794 
L 1409 794 
L 1409 0 
L 750 0 
L 750 794 
z
M 750 3309 
L 1409 3309 
L 1409 2516 
L 750 2516 
L 750 3309 
z
" transform="scale(0.015625)"/>
       <path id="DejaVuSans-28" d="M 1984 4856 
Q 1566 4138 1362 3434 
Q 1159 2731 1159 2009 
Q 1159 1288 1364 580 
Q 1569 -128 1984 -844 
L 1484 -844 
Q 1016 -109 783 600 
Q 550 1309 550 2009 
Q 550 2706 781 3412 
Q 1013 4119 1484 4856 
L 1984 4856 
z
" transform="scale(0.015625)"/>
       <path id="DejaVuSans-78" d="M 3513 3500 
L 2247 1797 
L 3578 0 
L 2900 0 
L 1881 1375 
L 863 0 
L 184 0 
L 1544 1831 
L 300 3500 
L 978 3500 
L 1906 2253 
L 2834 3500 
L 3513 3500 
z
" transform="scale(0.015625)"/>
       <path id="DejaVuSans-2c" d="M 750 794 
L 1409 794 
L 1409 256 
L 897 -744 
L 494 -744 
L 750 256 
L 750 794 
z
" transform="scale(0.015625)"/>
       <path id="DejaVuSans-29" d="M 513 4856 
L 1013 4856 
Q 1481 4119 1714 3412 
Q 1947 2706 1947 2009 
Q 1947 1309 1714 600 
Q 1481 -109 1013 -844 
L 513 -844 
Q 928 -128 1133 580 
Q 1338 1288 1338 2009 
Q 1338 2731 1133 3434 
Q 928 4138 513 4856 
z
" transform="scale(0.015625)"/>
      </defs>
      <use xlink:href="#DejaVuSans-53"/>
      <use xlink:href="#DejaVuSans-63" x="63.476562"/>
      <use xlink:href="#DejaVuSans-6f" x="118.457031"/>
      <use xlink:href="#DejaVuSans-72" x="179.638672"/>
      <use xlink:href="#DejaVuSans-65" x="218.501953"/>
      <use xlink:href="#DejaVuSans-3a" x="280.025391"/>
      <use xlink:href="#DejaVuSans-20" x="313.716797"/>
      <use xlink:href="#DejaVuSans-28" x="345.503906"/>
      <use xlink:href="#DejaVuSans-78" x="384.517578"/>
      <use xlink:href="#DejaVuSans-20" x="443.697266"/>
      <use xlink:href="#DejaVuSans-72" x="475.484375"/>
      <use xlink:href="#DejaVuSans-65" x="514.347656"/>
      <use xlink:href="#DejaVuSans-61" x="575.871094"/>
      <use xlink:href="#DejaVuSans-6c" x="637.150391"/>
      <use xlink:href="#DejaVuSans-2c" x="664.933594"/>
      <use xlink:href="#DejaVuSans-20" x="696.720703"/>
      <use xlink:href="#DejaVuSans-79" x="728.507812"/>
      <use xlink:href="#DejaVuSans-20" x="787.6875"/>
      <use xlink:href="#DejaVuSans-72" x="819.474609"/>
      <use xlink:href="#DejaVuSans-65" x="858.337891"/>
      <use xlink:href="#DejaVuSans-61" x="919.861328"/>
      <use xlink:href="#DejaVuSans-6c" x="981.140625"/>
      <use xlink:href="#DejaVuSans-29" x="1008.923828"/>
     </g>
    </g>
    <g id="patch_13">
     <path d="M 670.47425 142.442 
L 694.47425 142.442 
L 694.47425 134.042 
L 670.47425 134.042 
z
" style="fill: #e1812c; stroke: #3d3d3d; stroke-width: 1.25; stroke-linejoin: miter"/>
    </g>
    <g id="text_17">
     <!-- Score: (x real, y random) -->
     <g transform="translate(704.07425 142.442) scale(0.12 -0.12)">
      <use xlink:href="#DejaVuSans-53"/>
      <use xlink:href="#DejaVuSans-63" x="63.476562"/>
      <use xlink:href="#DejaVuSans-6f" x="118.457031"/>
      <use xlink:href="#DejaVuSans-72" x="179.638672"/>
      <use xlink:href="#DejaVuSans-65" x="218.501953"/>
      <use xlink:href="#DejaVuSans-3a" x="280.025391"/>
      <use xlink:href="#DejaVuSans-20" x="313.716797"/>
      <use xlink:href="#DejaVuSans-28" x="345.503906"/>
      <use xlink:href="#DejaVuSans-78" x="384.517578"/>
      <use xlink:href="#DejaVuSans-20" x="443.697266"/>
      <use xlink:href="#DejaVuSans-72" x="475.484375"/>
      <use xlink:href="#DejaVuSans-65" x="514.347656"/>
      <use xlink:href="#DejaVuSans-61" x="575.871094"/>
      <use xlink:href="#DejaVuSans-6c" x="637.150391"/>
      <use xlink:href="#DejaVuSans-2c" x="664.933594"/>
      <use xlink:href="#DejaVuSans-20" x="696.720703"/>
      <use xlink:href="#DejaVuSans-79" x="728.507812"/>
      <use xlink:href="#DejaVuSans-20" x="787.6875"/>
      <use xlink:href="#DejaVuSans-72" x="819.474609"/>
      <use xlink:href="#DejaVuSans-61" x="860.587891"/>
      <use xlink:href="#DejaVuSans-6e" x="921.867188"/>
      <use xlink:href="#DejaVuSans-64" x="985.246094"/>
      <use xlink:href="#DejaVuSans-6f" x="1048.722656"/>
      <use xlink:href="#DejaVuSans-6d" x="1109.904297"/>
      <use xlink:href="#DejaVuSans-29" x="1207.316406"/>
     </g>
    </g>
    <g id="patch_14">
     <path d="M 670.47425 160.05575 
L 694.47425 160.05575 
L 694.47425 151.65575 
L 670.47425 151.65575 
z
" style="fill: #3a923a; stroke: #3d3d3d; stroke-width: 1.25; stroke-linejoin: miter"/>
    </g>
    <g id="text_18">
     <!-- Score: (x random, y real) -->
     <g transform="translate(704.07425 160.05575) scale(0.12 -0.12)">
      <use xlink:href="#DejaVuSans-53"/>
      <use xlink:href="#DejaVuSans-63" x="63.476562"/>
      <use xlink:href="#DejaVuSans-6f" x="118.457031"/>
      <use xlink:href="#DejaVuSans-72" x="179.638672"/>
      <use xlink:href="#DejaVuSans-65" x="218.501953"/>
      <use xlink:href="#DejaVuSans-3a" x="280.025391"/>
      <use xlink:href="#DejaVuSans-20" x="313.716797"/>
      <use xlink:href="#DejaVuSans-28" x="345.503906"/>
      <use xlink:href="#DejaVuSans-78" x="384.517578"/>
      <use xlink:href="#DejaVuSans-20" x="443.697266"/>
      <use xlink:href="#DejaVuSans-72" x="475.484375"/>
      <use xlink:href="#DejaVuSans-61" x="516.597656"/>
      <use xlink:href="#DejaVuSans-6e" x="577.876953"/>
      <use xlink:href="#DejaVuSans-64" x="641.255859"/>
      <use xlink:href="#DejaVuSans-6f" x="704.732422"/>
      <use xlink:href="#DejaVuSans-6d" x="765.914062"/>
      <use xlink:href="#DejaVuSans-2c" x="863.326172"/>
      <use xlink:href="#DejaVuSans-20" x="895.113281"/>
      <use xlink:href="#DejaVuSans-79" x="926.900391"/>
      <use xlink:href="#DejaVuSans-20" x="986.080078"/>
      <use xlink:href="#DejaVuSans-72" x="1017.867188"/>
      <use xlink:href="#DejaVuSans-65" x="1056.730469"/>
      <use xlink:href="#DejaVuSans-61" x="1118.253906"/>
      <use xlink:href="#DejaVuSans-6c" x="1179.533203"/>
      <use xlink:href="#DejaVuSans-29" x="1207.316406"/>
     </g>
    </g>
   </g>
  </g>
  <g id="text_19">
   <!-- Filters applied: Subject ID=All (170), Hemisphere=['left', 'right'], Task=All -->
   <g transform="translate(248.389062 7.598438) scale(0.1 -0.1)">
    <defs>
     <path id="DejaVuSans-46" d="M 628 4666 
L 3309 4666 
L 3309 4134 
L 1259 4134 
L 1259 2759 
L 3109 2759 
L 3109 2228 
L 1259 2228 
L 1259 0 
L 628 0 
L 628 4666 
z
" transform="scale(0.015625)"/>
     <path id="DejaVuSans-44" d="M 1259 4147 
L 1259 519 
L 2022 519 
Q 2988 519 3436 956 
Q 3884 1394 3884 2338 
Q 3884 3275 3436 3711 
Q 2988 4147 2022 4147 
L 1259 4147 
z
M 628 4666 
L 1925 4666 
Q 3281 4666 3915 4102 
Q 4550 3538 4550 2338 
Q 4550 1131 3912 565 
Q 3275 0 1925 0 
L 628 0 
L 628 4666 
z
" transform="scale(0.015625)"/>
     <path id="DejaVuSans-3d" d="M 678 2906 
L 4684 2906 
L 4684 2381 
L 678 2381 
L 678 2906 
z
M 678 1631 
L 4684 1631 
L 4684 1100 
L 678 1100 
L 678 1631 
z
" transform="scale(0.015625)"/>
     <path id="DejaVuSans-37" d="M 525 4666 
L 3525 4666 
L 3525 4397 
L 1831 0 
L 1172 0 
L 2766 4134 
L 525 4134 
L 525 4666 
z
" transform="scale(0.015625)"/>
     <path id="DejaVuSans-48" d="M 628 4666 
L 1259 4666 
L 1259 2753 
L 3553 2753 
L 3553 4666 
L 4184 4666 
L 4184 0 
L 3553 0 
L 3553 2222 
L 1259 2222 
L 1259 0 
L 628 0 
L 628 4666 
z
" transform="scale(0.015625)"/>
     <path id="DejaVuSans-5b" d="M 550 4863 
L 1875 4863 
L 1875 4416 
L 1125 4416 
L 1125 -397 
L 1875 -397 
L 1875 -844 
L 550 -844 
L 550 4863 
z
" transform="scale(0.015625)"/>
     <path id="DejaVuSans-27" d="M 1147 4666 
L 1147 2931 
L 616 2931 
L 616 4666 
L 1147 4666 
z
" transform="scale(0.015625)"/>
     <path id="DejaVuSans-67" d="M 2906 1791 
Q 2906 2416 2648 2759 
Q 2391 3103 1925 3103 
Q 1463 3103 1205 2759 
Q 947 2416 947 1791 
Q 947 1169 1205 825 
Q 1463 481 1925 481 
Q 2391 481 2648 825 
Q 2906 1169 2906 1791 
z
M 3481 434 
Q 3481 -459 3084 -895 
Q 2688 -1331 1869 -1331 
Q 1566 -1331 1297 -1286 
Q 1028 -1241 775 -1147 
L 775 -588 
Q 1028 -725 1275 -790 
Q 1522 -856 1778 -856 
Q 2344 -856 2625 -561 
Q 2906 -266 2906 331 
L 2906 616 
Q 2728 306 2450 153 
Q 2172 0 1784 0 
Q 1141 0 747 490 
Q 353 981 353 1791 
Q 353 2603 747 3093 
Q 1141 3584 1784 3584 
Q 2172 3584 2450 3431 
Q 2728 3278 2906 2969 
L 2906 3500 
L 3481 3500 
L 3481 434 
z
" transform="scale(0.015625)"/>
     <path id="DejaVuSans-5d" d="M 1947 4863 
L 1947 -844 
L 622 -844 
L 622 -397 
L 1369 -397 
L 1369 4416 
L 622 4416 
L 622 4863 
L 1947 4863 
z
" transform="scale(0.015625)"/>
     <path id="DejaVuSans-6b" d="M 581 4863 
L 1159 4863 
L 1159 1991 
L 2875 3500 
L 3609 3500 
L 1753 1863 
L 3688 0 
L 2938 0 
L 1159 1709 
L 1159 0 
L 581 0 
L 581 4863 
z
" transform="scale(0.015625)"/>
    </defs>
    <use xlink:href="#DejaVuSans-46"/>
    <use xlink:href="#DejaVuSans-69" x="50.269531"/>
    <use xlink:href="#DejaVuSans-6c" x="78.052734"/>
    <use xlink:href="#DejaVuSans-74" x="105.835938"/>
    <use xlink:href="#DejaVuSans-65" x="145.044922"/>
    <use xlink:href="#DejaVuSans-72" x="206.568359"/>
    <use xlink:href="#DejaVuSans-73" x="247.681641"/>
    <use xlink:href="#DejaVuSans-20" x="299.78125"/>
    <use xlink:href="#DejaVuSans-61" x="331.568359"/>
    <use xlink:href="#DejaVuSans-70" x="392.847656"/>
    <use xlink:href="#DejaVuSans-70" x="456.324219"/>
    <use xlink:href="#DejaVuSans-6c" x="519.800781"/>
    <use xlink:href="#DejaVuSans-69" x="547.583984"/>
    <use xlink:href="#DejaVuSans-65" x="575.367188"/>
    <use xlink:href="#DejaVuSans-64" x="636.890625"/>
    <use xlink:href="#DejaVuSans-3a" x="700.367188"/>
    <use xlink:href="#DejaVuSans-20" x="734.058594"/>
    <use xlink:href="#DejaVuSans-53" x="765.845703"/>
    <use xlink:href="#DejaVuSans-75" x="829.322266"/>
    <use xlink:href="#DejaVuSans-62" x="892.701172"/>
    <use xlink:href="#DejaVuSans-6a" x="956.177734"/>
    <use xlink:href="#DejaVuSans-65" x="983.960938"/>
    <use xlink:href="#DejaVuSans-63" x="1045.484375"/>
    <use xlink:href="#DejaVuSans-74" x="1100.464844"/>
    <use xlink:href="#DejaVuSans-20" x="1139.673828"/>
    <use xlink:href="#DejaVuSans-49" x="1171.460938"/>
    <use xlink:href="#DejaVuSans-44" x="1200.953125"/>
    <use xlink:href="#DejaVuSans-3d" x="1277.955078"/>
    <use xlink:href="#DejaVuSans-41" x="1361.744141"/>
    <use xlink:href="#DejaVuSans-6c" x="1430.152344"/>
    <use xlink:href="#DejaVuSans-6c" x="1457.935547"/>
    <use xlink:href="#DejaVuSans-20" x="1485.71875"/>
    <use xlink:href="#DejaVuSans-28" x="1517.505859"/>
    <use xlink:href="#DejaVuSans-31" x="1556.519531"/>
    <use xlink:href="#DejaVuSans-37" x="1620.142578"/>
    <use xlink:href="#DejaVuSans-30" x="1683.765625"/>
    <use xlink:href="#DejaVuSans-29" x="1747.388672"/>
    <use xlink:href="#DejaVuSans-2c" x="1786.402344"/>
    <use xlink:href="#DejaVuSans-20" x="1818.189453"/>
    <use xlink:href="#DejaVuSans-48" x="1849.976562"/>
    <use xlink:href="#DejaVuSans-65" x="1925.171875"/>
    <use xlink:href="#DejaVuSans-6d" x="1986.695312"/>
    <use xlink:href="#DejaVuSans-69" x="2084.107422"/>
    <use xlink:href="#DejaVuSans-73" x="2111.890625"/>
    <use xlink:href="#DejaVuSans-70" x="2163.990234"/>
    <use xlink:href="#DejaVuSans-68" x="2227.466797"/>
    <use xlink:href="#DejaVuSans-65" x="2290.845703"/>
    <use xlink:href="#DejaVuSans-72" x="2352.369141"/>
    <use xlink:href="#DejaVuSans-65" x="2391.232422"/>
    <use xlink:href="#DejaVuSans-3d" x="2452.755859"/>
    <use xlink:href="#DejaVuSans-5b" x="2536.544922"/>
    <use xlink:href="#DejaVuSans-27" x="2575.558594"/>
    <use xlink:href="#DejaVuSans-6c" x="2603.048828"/>
    <use xlink:href="#DejaVuSans-65" x="2630.832031"/>
    <use xlink:href="#DejaVuSans-66" x="2692.355469"/>
    <use xlink:href="#DejaVuSans-74" x="2725.810547"/>
    <use xlink:href="#DejaVuSans-27" x="2765.019531"/>
    <use xlink:href="#DejaVuSans-2c" x="2792.509766"/>
    <use xlink:href="#DejaVuSans-20" x="2824.296875"/>
    <use xlink:href="#DejaVuSans-27" x="2856.083984"/>
    <use xlink:href="#DejaVuSans-72" x="2883.574219"/>
    <use xlink:href="#DejaVuSans-69" x="2924.6875"/>
    <use xlink:href="#DejaVuSans-67" x="2952.470703"/>
    <use xlink:href="#DejaVuSans-68" x="3015.947266"/>
    <use xlink:href="#DejaVuSans-74" x="3079.326172"/>
    <use xlink:href="#DejaVuSans-27" x="3118.535156"/>
    <use xlink:href="#DejaVuSans-5d" x="3146.025391"/>
    <use xlink:href="#DejaVuSans-2c" x="3185.039062"/>
    <use xlink:href="#DejaVuSans-20" x="3216.826172"/>
    <use xlink:href="#DejaVuSans-54" x="3248.613281"/>
    <use xlink:href="#DejaVuSans-61" x="3293.197266"/>
    <use xlink:href="#DejaVuSans-73" x="3354.476562"/>
    <use xlink:href="#DejaVuSans-6b" x="3406.576172"/>
    <use xlink:href="#DejaVuSans-3d" x="3464.486328"/>
    <use xlink:href="#DejaVuSans-41" x="3548.275391"/>
    <use xlink:href="#DejaVuSans-6c" x="3616.683594"/>
    <use xlink:href="#DejaVuSans-6c" x="3644.466797"/>
   </g>
   <!-- (5), Statistical Test=['Mutual Information Score - X as Truth', 'Mutual -->
   <g transform="translate(261.982813 18.79625) scale(0.1 -0.1)">
    <defs>
     <path id="DejaVuSans-35" d="M 691 4666 
L 3169 4666 
L 3169 4134 
L 1269 4134 
L 1269 2991 
Q 1406 3038 1543 3061 
Q 1681 3084 1819 3084 
Q 2600 3084 3056 2656 
Q 3513 2228 3513 1497 
Q 3513 744 3044 326 
Q 2575 -91 1722 -91 
Q 1428 -91 1123 -41 
Q 819 9 494 109 
L 494 744 
Q 775 591 1075 516 
Q 1375 441 1709 441 
Q 2250 441 2565 725 
Q 2881 1009 2881 1497 
Q 2881 1984 2565 2268 
Q 2250 2553 1709 2553 
Q 1456 2553 1204 2497 
Q 953 2441 691 2322 
L 691 4666 
z
" transform="scale(0.015625)"/>
    </defs>
    <use xlink:href="#DejaVuSans-28"/>
    <use xlink:href="#DejaVuSans-35" x="39.013672"/>
    <use xlink:href="#DejaVuSans-29" x="102.636719"/>
    <use xlink:href="#DejaVuSans-2c" x="141.650391"/>
    <use xlink:href="#DejaVuSans-20" x="173.4375"/>
    <use xlink:href="#DejaVuSans-53" x="205.224609"/>
    <use xlink:href="#DejaVuSans-74" x="268.701172"/>
    <use xlink:href="#DejaVuSans-61" x="307.910156"/>
    <use xlink:href="#DejaVuSans-74" x="369.189453"/>
    <use xlink:href="#DejaVuSans-69" x="408.398438"/>
    <use xlink:href="#DejaVuSans-73" x="436.181641"/>
    <use xlink:href="#DejaVuSans-74" x="488.28125"/>
    <use xlink:href="#DejaVuSans-69" x="527.490234"/>
    <use xlink:href="#DejaVuSans-63" x="555.273438"/>
    <use xlink:href="#DejaVuSans-61" x="610.253906"/>
    <use xlink:href="#DejaVuSans-6c" x="671.533203"/>
    <use xlink:href="#DejaVuSans-20" x="699.316406"/>
    <use xlink:href="#DejaVuSans-54" x="731.103516"/>
    <use xlink:href="#DejaVuSans-65" x="775.1875"/>
    <use xlink:href="#DejaVuSans-73" x="836.710938"/>
    <use xlink:href="#DejaVuSans-74" x="888.810547"/>
    <use xlink:href="#DejaVuSans-3d" x="928.019531"/>
    <use xlink:href="#DejaVuSans-5b" x="1011.808594"/>
    <use xlink:href="#DejaVuSans-27" x="1050.822266"/>
    <use xlink:href="#DejaVuSans-4d" x="1078.3125"/>
    <use xlink:href="#DejaVuSans-75" x="1164.591797"/>
    <use xlink:href="#DejaVuSans-74" x="1227.970703"/>
    <use xlink:href="#DejaVuSans-75" x="1267.179688"/>
    <use xlink:href="#DejaVuSans-61" x="1330.558594"/>
    <use xlink:href="#DejaVuSans-6c" x="1391.837891"/>
    <use xlink:href="#DejaVuSans-20" x="1419.621094"/>
    <use xlink:href="#DejaVuSans-49" x="1451.408203"/>
    <use xlink:href="#DejaVuSans-6e" x="1480.900391"/>
    <use xlink:href="#DejaVuSans-66" x="1544.279297"/>
    <use xlink:href="#DejaVuSans-6f" x="1579.484375"/>
    <use xlink:href="#DejaVuSans-72" x="1640.666016"/>
    <use xlink:href="#DejaVuSans-6d" x="1680.029297"/>
    <use xlink:href="#DejaVuSans-61" x="1777.441406"/>
    <use xlink:href="#DejaVuSans-74" x="1838.720703"/>
    <use xlink:href="#DejaVuSans-69" x="1877.929688"/>
    <use xlink:href="#DejaVuSans-6f" x="1905.712891"/>
    <use xlink:href="#DejaVuSans-6e" x="1966.894531"/>
    <use xlink:href="#DejaVuSans-20" x="2030.273438"/>
    <use xlink:href="#DejaVuSans-53" x="2062.060547"/>
    <use xlink:href="#DejaVuSans-63" x="2125.537109"/>
    <use xlink:href="#DejaVuSans-6f" x="2180.517578"/>
    <use xlink:href="#DejaVuSans-72" x="2241.699219"/>
    <use xlink:href="#DejaVuSans-65" x="2280.5625"/>
    <use xlink:href="#DejaVuSans-20" x="2342.085938"/>
    <use xlink:href="#DejaVuSans-2d" x="2373.873047"/>
    <use xlink:href="#DejaVuSans-20" x="2409.957031"/>
    <use xlink:href="#DejaVuSans-58" x="2441.744141"/>
    <use xlink:href="#DejaVuSans-20" x="2510.25"/>
    <use xlink:href="#DejaVuSans-61" x="2542.037109"/>
    <use xlink:href="#DejaVuSans-73" x="2603.316406"/>
    <use xlink:href="#DejaVuSans-20" x="2655.416016"/>
    <use xlink:href="#DejaVuSans-54" x="2687.203125"/>
    <use xlink:href="#DejaVuSans-72" x="2733.537109"/>
    <use xlink:href="#DejaVuSans-75" x="2774.650391"/>
    <use xlink:href="#DejaVuSans-74" x="2838.029297"/>
    <use xlink:href="#DejaVuSans-68" x="2877.238281"/>
    <use xlink:href="#DejaVuSans-27" x="2940.617188"/>
    <use xlink:href="#DejaVuSans-2c" x="2968.107422"/>
    <use xlink:href="#DejaVuSans-20" x="2999.894531"/>
    <use xlink:href="#DejaVuSans-27" x="3031.681641"/>
    <use xlink:href="#DejaVuSans-4d" x="3059.171875"/>
    <use xlink:href="#DejaVuSans-75" x="3145.451172"/>
    <use xlink:href="#DejaVuSans-74" x="3208.830078"/>
    <use xlink:href="#DejaVuSans-75" x="3248.039062"/>
    <use xlink:href="#DejaVuSans-61" x="3311.417969"/>
    <use xlink:href="#DejaVuSans-6c" x="3372.697266"/>
   </g>
   <!-- Information Score - Y as Truth'] -->
   <g transform="translate(354.588281 29.994063) scale(0.1 -0.1)">
    <use xlink:href="#DejaVuSans-49"/>
    <use xlink:href="#DejaVuSans-6e" x="29.492188"/>
    <use xlink:href="#DejaVuSans-66" x="92.871094"/>
    <use xlink:href="#DejaVuSans-6f" x="128.076172"/>
    <use xlink:href="#DejaVuSans-72" x="189.257812"/>
    <use xlink:href="#DejaVuSans-6d" x="228.621094"/>
    <use xlink:href="#DejaVuSans-61" x="326.033203"/>
    <use xlink:href="#DejaVuSans-74" x="387.3125"/>
    <use xlink:href="#DejaVuSans-69" x="426.521484"/>
    <use xlink:href="#DejaVuSans-6f" x="454.304688"/>
    <use xlink:href="#DejaVuSans-6e" x="515.486328"/>
    <use xlink:href="#DejaVuSans-20" x="578.865234"/>
    <use xlink:href="#DejaVuSans-53" x="610.652344"/>
    <use xlink:href="#DejaVuSans-63" x="674.128906"/>
    <use xlink:href="#DejaVuSans-6f" x="729.109375"/>
    <use xlink:href="#DejaVuSans-72" x="790.291016"/>
    <use xlink:href="#DejaVuSans-65" x="829.154297"/>
    <use xlink:href="#DejaVuSans-20" x="890.677734"/>
    <use xlink:href="#DejaVuSans-2d" x="922.464844"/>
    <use xlink:href="#DejaVuSans-20" x="958.548828"/>
    <use xlink:href="#DejaVuSans-59" x="990.335938"/>
    <use xlink:href="#DejaVuSans-20" x="1051.419922"/>
    <use xlink:href="#DejaVuSans-61" x="1083.207031"/>
    <use xlink:href="#DejaVuSans-73" x="1144.486328"/>
    <use xlink:href="#DejaVuSans-20" x="1196.585938"/>
    <use xlink:href="#DejaVuSans-54" x="1228.373047"/>
    <use xlink:href="#DejaVuSans-72" x="1274.707031"/>
    <use xlink:href="#DejaVuSans-75" x="1315.820312"/>
    <use xlink:href="#DejaVuSans-74" x="1379.199219"/>
    <use xlink:href="#DejaVuSans-68" x="1418.408203"/>
    <use xlink:href="#DejaVuSans-27" x="1481.787109"/>
    <use xlink:href="#DejaVuSans-5d" x="1509.277344"/>
   </g>
  </g>
 </g>
 <defs>
  <clipPath id="p4cdc3cd052">
   <rect x="51.41" y="89.232" width="774.31" height="553.168"/>
  </clipPath>
 </defs>
</svg>
