<?xml version="1.0" encoding="utf-8" standalone="no"?>
<!DOCTYPE svg PUBLIC "-//W3C//DTD SVG 1.1//EN"
  "http://www.w3.org/Graphics/SVG/1.1/DTD/svg11.dtd">
<svg xmlns:xlink="http://www.w3.org/1999/xlink" width="864pt" height="864pt" viewBox="0 0 864 864" xmlns="http://www.w3.org/2000/svg" version="1.1">
 <metadata>
  <rdf:RDF xmlns:dc="http://purl.org/dc/elements/1.1/" xmlns:cc="http://creativecommons.org/ns#" xmlns:rdf="http://www.w3.org/1999/02/22-rdf-syntax-ns#">
   <cc:Work>
    <dc:type rdf:resource="http://purl.org/dc/dcmitype/StillImage"/>
    <dc:date>2025-02-07T18:44:40.614070</dc:date>
    <dc:format>image/svg+xml</dc:format>
    <dc:creator>
     <cc:Agent>
      <dc:title>Matplotlib v3.9.2, https://matplotlib.org/</dc:title>
     </cc:Agent>
    </dc:creator>
   </cc:Work>
  </rdf:RDF>
 </metadata>
 <defs>
  <style type="text/css">*{stroke-linejoin: round; stroke-linecap: butt}</style>
 </defs>
 <g id="figure_1">
  <g id="patch_1">
   <path d="M 0 864 
L 864 864 
L 864 0 
L 0 0 
z
" style="fill: #ffffff"/>
  </g>
  <g id="axes_1">
   <g id="patch_2">
    <path d="M 60.86 661.48 
L 825.72 661.48 
L 825.72 89.232 
L 60.86 89.232 
z
" style="fill: #ffffff"/>
   </g>
   <g id="PolyCollection_1">
    <defs>
     <path id="m18254bba09" d="M 279.114229 -228.531273 
L 279.009851 -228.531273 
L 278.922763 -233.786075 
L 278.797528 -239.040878 
L 278.640051 -244.29568 
L 278.466918 -249.550483 
L 278.297656 -254.805286 
L 278.13978 -260.060088 
L 277.973841 -265.314891 
L 277.747193 -270.569693 
L 277.379394 -275.824496 
L 276.774196 -281.079298 
L 275.832156 -286.334101 
L 274.465793 -291.588904 
L 272.625149 -296.843706 
L 270.332897 -302.098509 
L 267.707981 -307.353311 
L 264.947803 -312.608114 
L 262.260321 -317.862916 
L 259.778347 -323.117719 
L 257.511254 -328.372522 
L 255.366819 -333.627324 
L 253.222402 -338.882127 
L 250.987321 -344.136929 
L 248.612121 -349.391732 
L 246.053864 -354.646534 
L 243.248927 -359.901337 
L 240.134796 -365.15614 
L 236.710289 -370.410942 
L 233.083488 -375.665745 
L 229.467904 -380.920547 
L 226.130187 -386.17535 
L 223.314648 -391.430152 
L 221.156119 -396.684955 
L 219.584055 -401.939758 
L 218.250646 -407.19456 
L 216.552083 -412.449363 
L 213.790373 -417.704165 
L 209.433348 -422.958968 
L 203.343085 -428.21377 
L 195.840796 -433.468573 
L 187.571334 -438.723376 
L 179.251351 -443.978178 
L 171.440646 -449.232981 
L 164.434167 -454.487783 
L 158.282011 -459.742586 
L 152.883044 -464.997388 
L 148.093407 -470.252191 
L 143.813928 -475.506994 
L 140.037191 -480.761796 
L 136.84791 -486.016599 
L 134.390571 -491.271401 
L 132.830958 -496.526204 
L 132.323937 -501.781006 
L 132.976785 -507.035809 
L 134.804608 -512.290612 
L 137.709863 -517.545414 
L 141.527459 -522.800217 
L 146.125897 -528.055019 
L 151.489464 -533.309822 
L 157.706621 -538.564624 
L 164.867625 -543.819427 
L 172.951175 -549.07423 
L 181.777857 -554.329032 
L 191.040842 -559.583835 
L 200.371174 -564.838637 
L 209.402054 -570.09344 
L 217.830123 -575.348242 
L 225.475967 -580.603045 
L 232.318401 -585.857848 
L 238.466731 -591.11265 
L 244.071865 -596.367453 
L 249.228714 -601.622255 
L 253.932713 -606.877058 
L 258.109991 -612.13186 
L 261.686447 -617.386663 
L 264.643224 -622.641466 
L 267.029738 -627.896268 
L 268.940473 -633.151071 
L 270.479819 -638.405873 
L 271.736024 -643.660676 
L 272.772326 -648.915478 
L 273.6321 -654.170281 
L 274.349975 -659.425084 
L 274.961218 -664.679886 
L 275.504134 -669.934689 
L 276.013637 -675.189491 
L 276.508911 -680.444294 
L 276.98343 -685.699096 
L 277.406927 -690.953899 
L 277.742378 -696.208702 
L 277.96975 -701.463504 
L 278.101424 -706.718307 
L 278.178636 -711.973109 
L 278.251148 -717.227912 
L 278.353517 -722.482714 
L 278.492426 -727.737517 
L 278.650573 -732.99232 
L 278.801431 -738.247122 
L 278.924063 -743.501925 
L 279.010239 -748.756727 
L 279.114229 -748.756727 
L 279.114229 -748.756727 
L 279.114229 -743.501925 
L 279.114229 -738.247122 
L 279.114229 -732.99232 
L 279.114229 -727.737517 
L 279.114229 -722.482714 
L 279.114229 -717.227912 
L 279.114229 -711.973109 
L 279.114229 -706.718307 
L 279.114229 -701.463504 
L 279.114229 -696.208702 
L 279.114229 -690.953899 
L 279.114229 -685.699096 
L 279.114229 -680.444294 
L 279.114229 -675.189491 
L 279.114229 -669.934689 
L 279.114229 -664.679886 
L 279.114229 -659.425084 
L 279.114229 -654.170281 
L 279.114229 -648.915478 
L 279.114229 -643.660676 
L 279.114229 -638.405873 
L 279.114229 -633.151071 
L 279.114229 -627.896268 
L 279.114229 -622.641466 
L 279.114229 -617.386663 
L 279.114229 -612.13186 
L 279.114229 -606.877058 
L 279.114229 -601.622255 
L 279.114229 -596.367453 
L 279.114229 -591.11265 
L 279.114229 -585.857848 
L 279.114229 -580.603045 
L 279.114229 -575.348242 
L 279.114229 -570.09344 
L 279.114229 -564.838637 
L 279.114229 -559.583835 
L 279.114229 -554.329032 
L 279.114229 -549.07423 
L 279.114229 -543.819427 
L 279.114229 -538.564624 
L 279.114229 -533.309822 
L 279.114229 -528.055019 
L 279.114229 -522.800217 
L 279.114229 -517.545414 
L 279.114229 -512.290612 
L 279.114229 -507.035809 
L 279.114229 -501.781006 
L 279.114229 -496.526204 
L 279.114229 -491.271401 
L 279.114229 -486.016599 
L 279.114229 -480.761796 
L 279.114229 -475.506994 
L 279.114229 -470.252191 
L 279.114229 -464.997388 
L 279.114229 -459.742586 
L 279.114229 -454.487783 
L 279.114229 -449.232981 
L 279.114229 -443.978178 
L 279.114229 -438.723376 
L 279.114229 -433.468573 
L 279.114229 -428.21377 
L 279.114229 -422.958968 
L 279.114229 -417.704165 
L 279.114229 -412.449363 
L 279.114229 -407.19456 
L 279.114229 -401.939758 
L 279.114229 -396.684955 
L 279.114229 -391.430152 
L 279.114229 -386.17535 
L 279.114229 -380.920547 
L 279.114229 -375.665745 
L 279.114229 -370.410942 
L 279.114229 -365.15614 
L 279.114229 -359.901337 
L 279.114229 -354.646534 
L 279.114229 -349.391732 
L 279.114229 -344.136929 
L 279.114229 -338.882127 
L 279.114229 -333.627324 
L 279.114229 -328.372522 
L 279.114229 -323.117719 
L 279.114229 -317.862916 
L 279.114229 -312.608114 
L 279.114229 -307.353311 
L 279.114229 -302.098509 
L 279.114229 -296.843706 
L 279.114229 -291.588904 
L 279.114229 -286.334101 
L 279.114229 -281.079298 
L 279.114229 -275.824496 
L 279.114229 -270.569693 
L 279.114229 -265.314891 
L 279.114229 -260.060088 
L 279.114229 -254.805286 
L 279.114229 -249.550483 
L 279.114229 -244.29568 
L 279.114229 -239.040878 
L 279.114229 -233.786075 
L 279.114229 -228.531273 
z
" style="stroke: #3f3f3f; stroke-width: 1.25"/>
    </defs>
    <g clip-path="url(#pa7ae728209)">
     <use xlink:href="#m18254bba09" x="0" y="864" style="fill: #3274a1; stroke: #3f3f3f; stroke-width: 1.25"/>
    </g>
   </g>
   <g id="PolyCollection_2">
    <defs>
     <path id="me14f1eeee5" d="M 279.249652 -280.417169 
L 279.114229 -280.417169 
L 279.114229 -284.778613 
L 279.114229 -289.140056 
L 279.114229 -293.501499 
L 279.114229 -297.862943 
L 279.114229 -302.224386 
L 279.114229 -306.58583 
L 279.114229 -310.947273 
L 279.114229 -315.308716 
L 279.114229 -319.67016 
L 279.114229 -324.031603 
L 279.114229 -328.393047 
L 279.114229 -332.75449 
L 279.114229 -337.115933 
L 279.114229 -341.477377 
L 279.114229 -345.83882 
L 279.114229 -350.200263 
L 279.114229 -354.561707 
L 279.114229 -358.92315 
L 279.114229 -363.284594 
L 279.114229 -367.646037 
L 279.114229 -372.00748 
L 279.114229 -376.368924 
L 279.114229 -380.730367 
L 279.114229 -385.091811 
L 279.114229 -389.453254 
L 279.114229 -393.814697 
L 279.114229 -398.176141 
L 279.114229 -402.537584 
L 279.114229 -406.899028 
L 279.114229 -411.260471 
L 279.114229 -415.621914 
L 279.114229 -419.983358 
L 279.114229 -424.344801 
L 279.114229 -428.706244 
L 279.114229 -433.067688 
L 279.114229 -437.429131 
L 279.114229 -441.790575 
L 279.114229 -446.152018 
L 279.114229 -450.513461 
L 279.114229 -454.874905 
L 279.114229 -459.236348 
L 279.114229 -463.597792 
L 279.114229 -467.959235 
L 279.114229 -472.320678 
L 279.114229 -476.682122 
L 279.114229 -481.043565 
L 279.114229 -485.405009 
L 279.114229 -489.766452 
L 279.114229 -494.127895 
L 279.114229 -498.489339 
L 279.114229 -502.850782 
L 279.114229 -507.212225 
L 279.114229 -511.573669 
L 279.114229 -515.935112 
L 279.114229 -520.296556 
L 279.114229 -524.657999 
L 279.114229 -529.019442 
L 279.114229 -533.380886 
L 279.114229 -537.742329 
L 279.114229 -542.103773 
L 279.114229 -546.465216 
L 279.114229 -550.826659 
L 279.114229 -555.188103 
L 279.114229 -559.549546 
L 279.114229 -563.910989 
L 279.114229 -568.272433 
L 279.114229 -572.633876 
L 279.114229 -576.99532 
L 279.114229 -581.356763 
L 279.114229 -585.718206 
L 279.114229 -590.07965 
L 279.114229 -594.441093 
L 279.114229 -598.802537 
L 279.114229 -603.16398 
L 279.114229 -607.525423 
L 279.114229 -611.886867 
L 279.114229 -616.24831 
L 279.114229 -620.609754 
L 279.114229 -624.971197 
L 279.114229 -629.33264 
L 279.114229 -633.694084 
L 279.114229 -638.055527 
L 279.114229 -642.41697 
L 279.114229 -646.778414 
L 279.114229 -651.139857 
L 279.114229 -655.501301 
L 279.114229 -659.862744 
L 279.114229 -664.224187 
L 279.114229 -668.585631 
L 279.114229 -672.947074 
L 279.114229 -677.308518 
L 279.114229 -681.669961 
L 279.114229 -686.031404 
L 279.114229 -690.392848 
L 279.114229 -694.754291 
L 279.114229 -699.115735 
L 279.114229 -703.477178 
L 279.114229 -707.838621 
L 279.114229 -712.200065 
L 279.334518 -712.200065 
L 279.334518 -712.200065 
L 279.577456 -707.838621 
L 279.970648 -703.477178 
L 280.509539 -699.115735 
L 281.124427 -694.754291 
L 281.688933 -690.392848 
L 282.072078 -686.031404 
L 282.207718 -681.669961 
L 282.132174 -677.308518 
L 281.958947 -672.947074 
L 281.806807 -668.585631 
L 281.732994 -664.224187 
L 281.717478 -659.862744 
L 281.704331 -655.501301 
L 281.66564 -651.139857 
L 281.642347 -646.778414 
L 281.738584 -642.41697 
L 282.078998 -638.055527 
L 282.756391 -633.694084 
L 283.794661 -629.33264 
L 285.143139 -624.971197 
L 286.71215 -620.609754 
L 288.446204 -616.24831 
L 290.400994 -611.886867 
L 292.765097 -607.525423 
L 295.787384 -603.16398 
L 299.638817 -598.802537 
L 304.298841 -594.441093 
L 309.558009 -590.07965 
L 315.162684 -585.718206 
L 321.023566 -581.356763 
L 327.324549 -576.99532 
L 334.391725 -572.633876 
L 342.361563 -568.272433 
L 350.907957 -563.910989 
L 359.316353 -559.549546 
L 366.927809 -555.188103 
L 373.624048 -550.826659 
L 379.936597 -546.465216 
L 386.65761 -542.103773 
L 394.241914 -537.742329 
L 402.442659 -533.380886 
L 410.411904 -529.019442 
L 417.149185 -524.657999 
L 421.979354 -520.296556 
L 424.783378 -515.935112 
L 425.904522 -511.573669 
L 425.858674 -507.212225 
L 425.068002 -502.850782 
L 423.764537 -498.489339 
L 422.043203 -494.127895 
L 419.929901 -489.766452 
L 417.367149 -485.405009 
L 414.158507 -481.043565 
L 410.002743 -476.682122 
L 404.677246 -472.320678 
L 398.24785 -467.959235 
L 391.088843 -463.597792 
L 383.643611 -459.236348 
L 376.126787 -454.874905 
L 368.456449 -450.513461 
L 360.478727 -446.152018 
L 352.247599 -441.790575 
L 344.082971 -437.429131 
L 336.374326 -433.067688 
L 329.339773 -428.706244 
L 322.955879 -424.344801 
L 317.086682 -419.983358 
L 311.666262 -415.621914 
L 306.769532 -411.260471 
L 302.528548 -406.899028 
L 298.993268 -402.537584 
L 296.069449 -398.176141 
L 293.575996 -393.814697 
L 291.355923 -389.453254 
L 289.350573 -385.091811 
L 287.597959 -380.730367 
L 286.172485 -376.368924 
L 285.109891 -372.00748 
L 284.363845 -367.646037 
L 283.820127 -363.284594 
L 283.352819 -358.92315 
L 282.87624 -354.561707 
L 282.359217 -350.200263 
L 281.80932 -345.83882 
L 281.256265 -341.477377 
L 280.747928 -337.115933 
L 280.347337 -332.75449 
L 280.115549 -328.393047 
L 280.081836 -324.031603 
L 280.218142 -319.67016 
L 280.436602 -315.308716 
L 280.618115 -310.947273 
L 280.661917 -306.58583 
L 280.529748 -302.224386 
L 280.257459 -297.862943 
L 279.927584 -293.501499 
L 279.623365 -289.140056 
L 279.394397 -284.778613 
L 279.249652 -280.417169 
z
" style="stroke: #3f3f3f; stroke-width: 1.25"/>
    </defs>
    <g clip-path="url(#pa7ae728209)">
     <use xlink:href="#me14f1eeee5" x="0" y="864" style="fill: #e1812c; stroke: #3f3f3f; stroke-width: 1.25"/>
    </g>
   </g>
   <g id="PolyCollection_3">
    <defs>
     <path id="m0da3573187" d="M 646.089961 -228.531273 
L 645.985582 -228.531273 
L 645.898495 -233.786075 
L 645.773259 -239.040878 
L 645.615782 -244.29568 
L 645.442649 -249.550483 
L 645.273387 -254.805286 
L 645.115512 -260.060088 
L 644.949572 -265.314891 
L 644.722924 -270.569693 
L 644.355126 -275.824496 
L 643.749927 -281.079298 
L 642.807888 -286.334101 
L 641.441525 -291.588904 
L 639.60088 -296.843706 
L 637.308628 -302.098509 
L 634.683712 -307.353311 
L 631.923534 -312.608114 
L 629.236053 -317.862916 
L 626.754078 -323.117719 
L 624.486986 -328.372522 
L 622.34255 -333.627324 
L 620.198134 -338.882127 
L 617.963053 -344.136929 
L 615.587852 -349.391732 
L 613.029596 -354.646534 
L 610.224659 -359.901337 
L 607.110527 -365.15614 
L 603.686021 -370.410942 
L 600.059219 -375.665745 
L 596.443635 -380.920547 
L 593.105919 -386.17535 
L 590.290379 -391.430152 
L 588.131851 -396.684955 
L 586.559786 -401.939758 
L 585.226378 -407.19456 
L 583.527815 -412.449363 
L 580.766104 -417.704165 
L 576.409079 -422.958968 
L 570.318816 -428.21377 
L 562.816527 -433.468573 
L 554.547065 -438.723376 
L 546.227082 -443.978178 
L 538.416377 -449.232981 
L 531.409899 -454.487783 
L 525.257743 -459.742586 
L 519.858776 -464.997388 
L 515.069138 -470.252191 
L 510.78966 -475.506994 
L 507.012922 -480.761796 
L 503.823642 -486.016599 
L 501.366303 -491.271401 
L 499.80669 -496.526204 
L 499.299668 -501.781006 
L 499.952517 -507.035809 
L 501.780339 -512.290612 
L 504.685594 -517.545414 
L 508.50319 -522.800217 
L 513.101629 -528.055019 
L 518.465196 -533.309822 
L 524.682352 -538.564624 
L 531.843356 -543.819427 
L 539.926906 -549.07423 
L 548.753588 -554.329032 
L 558.016573 -559.583835 
L 567.346906 -564.838637 
L 576.377785 -570.09344 
L 584.805854 -575.348242 
L 592.451698 -580.603045 
L 599.294132 -585.857848 
L 605.442462 -591.11265 
L 611.047597 -596.367453 
L 616.204445 -601.622255 
L 620.908445 -606.877058 
L 625.085722 -612.13186 
L 628.662179 -617.386663 
L 631.618955 -622.641466 
L 634.005469 -627.896268 
L 635.916205 -633.151071 
L 637.455551 -638.405873 
L 638.711755 -643.660676 
L 639.748058 -648.915478 
L 640.607831 -654.170281 
L 641.325706 -659.425084 
L 641.936949 -664.679886 
L 642.479866 -669.934689 
L 642.989368 -675.189491 
L 643.484642 -680.444294 
L 643.959161 -685.699096 
L 644.382659 -690.953899 
L 644.71811 -696.208702 
L 644.945481 -701.463504 
L 645.077155 -706.718307 
L 645.154367 -711.973109 
L 645.226879 -717.227912 
L 645.329249 -722.482714 
L 645.468158 -727.737517 
L 645.626304 -732.99232 
L 645.777163 -738.247122 
L 645.899795 -743.501925 
L 645.98597 -748.756727 
L 646.089961 -748.756727 
L 646.089961 -748.756727 
L 646.089961 -743.501925 
L 646.089961 -738.247122 
L 646.089961 -732.99232 
L 646.089961 -727.737517 
L 646.089961 -722.482714 
L 646.089961 -717.227912 
L 646.089961 -711.973109 
L 646.089961 -706.718307 
L 646.089961 -701.463504 
L 646.089961 -696.208702 
L 646.089961 -690.953899 
L 646.089961 -685.699096 
L 646.089961 -680.444294 
L 646.089961 -675.189491 
L 646.089961 -669.934689 
L 646.089961 -664.679886 
L 646.089961 -659.425084 
L 646.089961 -654.170281 
L 646.089961 -648.915478 
L 646.089961 -643.660676 
L 646.089961 -638.405873 
L 646.089961 -633.151071 
L 646.089961 -627.896268 
L 646.089961 -622.641466 
L 646.089961 -617.386663 
L 646.089961 -612.13186 
L 646.089961 -606.877058 
L 646.089961 -601.622255 
L 646.089961 -596.367453 
L 646.089961 -591.11265 
L 646.089961 -585.857848 
L 646.089961 -580.603045 
L 646.089961 -575.348242 
L 646.089961 -570.09344 
L 646.089961 -564.838637 
L 646.089961 -559.583835 
L 646.089961 -554.329032 
L 646.089961 -549.07423 
L 646.089961 -543.819427 
L 646.089961 -538.564624 
L 646.089961 -533.309822 
L 646.089961 -528.055019 
L 646.089961 -522.800217 
L 646.089961 -517.545414 
L 646.089961 -512.290612 
L 646.089961 -507.035809 
L 646.089961 -501.781006 
L 646.089961 -496.526204 
L 646.089961 -491.271401 
L 646.089961 -486.016599 
L 646.089961 -480.761796 
L 646.089961 -475.506994 
L 646.089961 -470.252191 
L 646.089961 -464.997388 
L 646.089961 -459.742586 
L 646.089961 -454.487783 
L 646.089961 -449.232981 
L 646.089961 -443.978178 
L 646.089961 -438.723376 
L 646.089961 -433.468573 
L 646.089961 -428.21377 
L 646.089961 -422.958968 
L 646.089961 -417.704165 
L 646.089961 -412.449363 
L 646.089961 -407.19456 
L 646.089961 -401.939758 
L 646.089961 -396.684955 
L 646.089961 -391.430152 
L 646.089961 -386.17535 
L 646.089961 -380.920547 
L 646.089961 -375.665745 
L 646.089961 -370.410942 
L 646.089961 -365.15614 
L 646.089961 -359.901337 
L 646.089961 -354.646534 
L 646.089961 -349.391732 
L 646.089961 -344.136929 
L 646.089961 -338.882127 
L 646.089961 -333.627324 
L 646.089961 -328.372522 
L 646.089961 -323.117719 
L 646.089961 -317.862916 
L 646.089961 -312.608114 
L 646.089961 -307.353311 
L 646.089961 -302.098509 
L 646.089961 -296.843706 
L 646.089961 -291.588904 
L 646.089961 -286.334101 
L 646.089961 -281.079298 
L 646.089961 -275.824496 
L 646.089961 -270.569693 
L 646.089961 -265.314891 
L 646.089961 -260.060088 
L 646.089961 -254.805286 
L 646.089961 -249.550483 
L 646.089961 -244.29568 
L 646.089961 -239.040878 
L 646.089961 -233.786075 
L 646.089961 -228.531273 
z
" style="stroke: #3f3f3f; stroke-width: 1.25"/>
    </defs>
    <g clip-path="url(#pa7ae728209)">
     <use xlink:href="#m0da3573187" x="0" y="864" style="fill: #3274a1; stroke: #3f3f3f; stroke-width: 1.25"/>
    </g>
   </g>
   <g id="PolyCollection_4">
    <defs>
     <path id="m0e2004dc3c" d="M 646.208326 -279.058879 
L 646.089961 -279.058879 
L 646.089961 -283.39489 
L 646.089961 -287.730901 
L 646.089961 -292.066912 
L 646.089961 -296.402923 
L 646.089961 -300.738934 
L 646.089961 -305.074946 
L 646.089961 -309.410957 
L 646.089961 -313.746968 
L 646.089961 -318.082979 
L 646.089961 -322.41899 
L 646.089961 -326.755001 
L 646.089961 -331.091012 
L 646.089961 -335.427024 
L 646.089961 -339.763035 
L 646.089961 -344.099046 
L 646.089961 -348.435057 
L 646.089961 -352.771068 
L 646.089961 -357.107079 
L 646.089961 -361.443091 
L 646.089961 -365.779102 
L 646.089961 -370.115113 
L 646.089961 -374.451124 
L 646.089961 -378.787135 
L 646.089961 -383.123146 
L 646.089961 -387.459157 
L 646.089961 -391.795169 
L 646.089961 -396.13118 
L 646.089961 -400.467191 
L 646.089961 -404.803202 
L 646.089961 -409.139213 
L 646.089961 -413.475224 
L 646.089961 -417.811236 
L 646.089961 -422.147247 
L 646.089961 -426.483258 
L 646.089961 -430.819269 
L 646.089961 -435.15528 
L 646.089961 -439.491291 
L 646.089961 -443.827302 
L 646.089961 -448.163314 
L 646.089961 -452.499325 
L 646.089961 -456.835336 
L 646.089961 -461.171347 
L 646.089961 -465.507358 
L 646.089961 -469.843369 
L 646.089961 -474.17938 
L 646.089961 -478.515392 
L 646.089961 -482.851403 
L 646.089961 -487.187414 
L 646.089961 -491.523425 
L 646.089961 -495.859436 
L 646.089961 -500.195447 
L 646.089961 -504.531459 
L 646.089961 -508.86747 
L 646.089961 -513.203481 
L 646.089961 -517.539492 
L 646.089961 -521.875503 
L 646.089961 -526.211514 
L 646.089961 -530.547525 
L 646.089961 -534.883537 
L 646.089961 -539.219548 
L 646.089961 -543.555559 
L 646.089961 -547.89157 
L 646.089961 -552.227581 
L 646.089961 -556.563592 
L 646.089961 -560.899604 
L 646.089961 -565.235615 
L 646.089961 -569.571626 
L 646.089961 -573.907637 
L 646.089961 -578.243648 
L 646.089961 -582.579659 
L 646.089961 -586.91567 
L 646.089961 -591.251682 
L 646.089961 -595.587693 
L 646.089961 -599.923704 
L 646.089961 -604.259715 
L 646.089961 -608.595726 
L 646.089961 -612.931737 
L 646.089961 -617.267749 
L 646.089961 -621.60376 
L 646.089961 -625.939771 
L 646.089961 -630.275782 
L 646.089961 -634.611793 
L 646.089961 -638.947804 
L 646.089961 -643.283815 
L 646.089961 -647.619827 
L 646.089961 -651.955838 
L 646.089961 -656.291849 
L 646.089961 -660.62786 
L 646.089961 -664.963871 
L 646.089961 -669.299882 
L 646.089961 -673.635894 
L 646.089961 -677.971905 
L 646.089961 -682.307916 
L 646.089961 -686.643927 
L 646.089961 -690.979938 
L 646.089961 -695.315949 
L 646.089961 -699.65196 
L 646.089961 -703.987972 
L 646.089961 -708.323983 
L 646.246791 -708.323983 
L 646.246791 -708.323983 
L 646.43165 -703.987972 
L 646.749321 -699.65196 
L 647.22009 -695.315949 
L 647.816541 -690.979938 
L 648.452553 -686.643927 
L 649.005985 -682.307916 
L 649.371384 -677.971905 
L 649.511354 -673.635894 
L 649.468572 -669.299882 
L 649.327818 -664.963871 
L 649.158585 -660.62786 
L 648.985025 -656.291849 
L 648.804196 -651.955838 
L 648.630542 -647.619827 
L 648.525263 -643.283815 
L 648.588316 -638.947804 
L 648.925179 -634.611793 
L 649.61632 -630.275782 
L 650.704553 -625.939771 
L 652.195925 -621.60376 
L 654.068627 -617.267749 
L 656.295948 -612.931737 
L 658.883108 -608.595726 
L 661.888451 -604.259715 
L 665.388999 -599.923704 
L 669.397855 -595.587693 
L 673.813924 -591.251682 
L 678.491274 -586.91567 
L 683.410793 -582.579659 
L 688.805886 -578.243648 
L 695.086839 -573.907637 
L 702.566253 -569.571626 
L 711.172138 -565.235615 
L 720.373141 -560.899604 
L 729.402395 -556.563592 
L 737.663122 -552.227581 
L 745.060951 -547.89157 
L 752.021895 -543.555559 
L 759.143134 -539.219548 
L 766.690282 -534.883537 
L 774.298501 -530.547525 
L 781.110596 -526.211514 
L 786.265796 -521.875503 
L 789.388983 -517.539492 
L 790.73936 -513.203481 
L 790.953636 -508.86747 
L 790.625701 -504.531459 
L 790.041539 -500.195447 
L 789.196656 -495.859436 
L 787.973175 -491.523425 
L 786.269675 -487.187414 
L 783.989928 -482.851403 
L 780.96728 -478.515392 
L 776.967955 -474.17938 
L 771.818189 -469.843369 
L 765.537964 -465.507358 
L 758.331441 -461.171347 
L 750.443171 -456.835336 
L 742.050747 -452.499325 
L 733.313518 -448.163314 
L 724.493339 -443.827302 
L 715.969642 -439.491291 
L 708.096057 -435.15528 
L 701.023307 -430.819269 
L 694.648394 -426.483258 
L 688.735602 -422.147247 
L 683.114 -417.811236 
L 677.799311 -413.475224 
L 672.954045 -409.139213 
L 668.737952 -404.803202 
L 665.187574 -400.467191 
L 662.214929 -396.13118 
L 659.692411 -391.795169 
L 657.529788 -387.459157 
L 655.692574 -383.123146 
L 654.178286 -378.787135 
L 652.983938 -374.451124 
L 652.079808 -370.115113 
L 651.39646 -365.779102 
L 650.834873 -361.443091 
L 650.299119 -357.107079 
L 649.73114 -352.771068 
L 649.124008 -348.435057 
L 648.509795 -344.099046 
L 647.938408 -339.763035 
L 647.463477 -335.427024 
L 647.135434 -331.091012 
L 646.991003 -326.755001 
L 647.034299 -322.41899 
L 647.219304 -318.082979 
L 647.451157 -313.746968 
L 647.615639 -309.410957 
L 647.626447 -305.074946 
L 647.462963 -300.738934 
L 647.173739 -296.402923 
L 646.844262 -292.066912 
L 646.552382 -287.730901 
L 646.33945 -283.39489 
L 646.208326 -279.058879 
z
" style="stroke: #3f3f3f; stroke-width: 1.25"/>
    </defs>
    <g clip-path="url(#pa7ae728209)">
     <use xlink:href="#m0e2004dc3c" x="0" y="864" style="fill: #e1812c; stroke: #3f3f3f; stroke-width: 1.25"/>
    </g>
   </g>
   <g id="patch_3">
    <path d="M 279.114229 957.493006 
L 279.114229 957.493006 
L 279.114229 957.493006 
L 279.114229 957.493006 
z
" clip-path="url(#pa7ae728209)" style="fill: #3274a1; stroke: #3f3f3f; stroke-width: 1.25; stroke-linejoin: miter"/>
   </g>
   <g id="patch_4">
    <path d="M 279.114229 957.493006 
L 279.114229 957.493006 
L 279.114229 957.493006 
L 279.114229 957.493006 
z
" clip-path="url(#pa7ae728209)" style="fill: #e1812c; stroke: #3f3f3f; stroke-width: 1.25; stroke-linejoin: miter"/>
   </g>
   <g id="patch_5">
    <path d="M 95.626364 661.48 
L 462.602095 661.48 
L 462.602095 89.232 
L 95.626364 89.232 
z
" clip-path="url(#pa7ae728209)" style="fill: #808080; opacity: 0.1; stroke: #808080; stroke-linejoin: miter"/>
   </g>
   <g id="matplotlib.axis_1">
    <g id="xtick_1">
     <g id="line2d_1">
      <defs>
       <path id="md72e5c8eec" d="M 0 0 
L 0 3.5 
" style="stroke: #000000; stroke-width: 0.8"/>
      </defs>
      <g>
       <use xlink:href="#md72e5c8eec" x="279.114229" y="661.48" style="stroke: #000000; stroke-width: 0.8"/>
      </g>
     </g>
     <g id="text_1">
      <!-- Levenshtein Distance - X as Truth -->
      <g transform="translate(281.873604 835.925313) rotate(-90) scale(0.1 -0.1)">
       <defs>
        <path id="DejaVuSans-4c" d="M 628 4666 
L 1259 4666 
L 1259 531 
L 3531 531 
L 3531 0 
L 628 0 
L 628 4666 
z
" transform="scale(0.015625)"/>
        <path id="DejaVuSans-65" d="M 3597 1894 
L 3597 1613 
L 953 1613 
Q 991 1019 1311 708 
Q 1631 397 2203 397 
Q 2534 397 2845 478 
Q 3156 559 3463 722 
L 3463 178 
Q 3153 47 2828 -22 
Q 2503 -91 2169 -91 
Q 1331 -91 842 396 
Q 353 884 353 1716 
Q 353 2575 817 3079 
Q 1281 3584 2069 3584 
Q 2775 3584 3186 3129 
Q 3597 2675 3597 1894 
z
M 3022 2063 
Q 3016 2534 2758 2815 
Q 2500 3097 2075 3097 
Q 1594 3097 1305 2825 
Q 1016 2553 972 2059 
L 3022 2063 
z
" transform="scale(0.015625)"/>
        <path id="DejaVuSans-76" d="M 191 3500 
L 800 3500 
L 1894 563 
L 2988 3500 
L 3597 3500 
L 2284 0 
L 1503 0 
L 191 3500 
z
" transform="scale(0.015625)"/>
        <path id="DejaVuSans-6e" d="M 3513 2113 
L 3513 0 
L 2938 0 
L 2938 2094 
Q 2938 2591 2744 2837 
Q 2550 3084 2163 3084 
Q 1697 3084 1428 2787 
Q 1159 2491 1159 1978 
L 1159 0 
L 581 0 
L 581 3500 
L 1159 3500 
L 1159 2956 
Q 1366 3272 1645 3428 
Q 1925 3584 2291 3584 
Q 2894 3584 3203 3211 
Q 3513 2838 3513 2113 
z
" transform="scale(0.015625)"/>
        <path id="DejaVuSans-73" d="M 2834 3397 
L 2834 2853 
Q 2591 2978 2328 3040 
Q 2066 3103 1784 3103 
Q 1356 3103 1142 2972 
Q 928 2841 928 2578 
Q 928 2378 1081 2264 
Q 1234 2150 1697 2047 
L 1894 2003 
Q 2506 1872 2764 1633 
Q 3022 1394 3022 966 
Q 3022 478 2636 193 
Q 2250 -91 1575 -91 
Q 1294 -91 989 -36 
Q 684 19 347 128 
L 347 722 
Q 666 556 975 473 
Q 1284 391 1588 391 
Q 1994 391 2212 530 
Q 2431 669 2431 922 
Q 2431 1156 2273 1281 
Q 2116 1406 1581 1522 
L 1381 1569 
Q 847 1681 609 1914 
Q 372 2147 372 2553 
Q 372 3047 722 3315 
Q 1072 3584 1716 3584 
Q 2034 3584 2315 3537 
Q 2597 3491 2834 3397 
z
" transform="scale(0.015625)"/>
        <path id="DejaVuSans-68" d="M 3513 2113 
L 3513 0 
L 2938 0 
L 2938 2094 
Q 2938 2591 2744 2837 
Q 2550 3084 2163 3084 
Q 1697 3084 1428 2787 
Q 1159 2491 1159 1978 
L 1159 0 
L 581 0 
L 581 4863 
L 1159 4863 
L 1159 2956 
Q 1366 3272 1645 3428 
Q 1925 3584 2291 3584 
Q 2894 3584 3203 3211 
Q 3513 2838 3513 2113 
z
" transform="scale(0.015625)"/>
        <path id="DejaVuSans-74" d="M 1172 4494 
L 1172 3500 
L 2356 3500 
L 2356 3053 
L 1172 3053 
L 1172 1153 
Q 1172 725 1289 603 
Q 1406 481 1766 481 
L 2356 481 
L 2356 0 
L 1766 0 
Q 1100 0 847 248 
Q 594 497 594 1153 
L 594 3053 
L 172 3053 
L 172 3500 
L 594 3500 
L 594 4494 
L 1172 4494 
z
" transform="scale(0.015625)"/>
        <path id="DejaVuSans-69" d="M 603 3500 
L 1178 3500 
L 1178 0 
L 603 0 
L 603 3500 
z
M 603 4863 
L 1178 4863 
L 1178 4134 
L 603 4134 
L 603 4863 
z
" transform="scale(0.015625)"/>
        <path id="DejaVuSans-20" transform="scale(0.015625)"/>
        <path id="DejaVuSans-44" d="M 1259 4147 
L 1259 519 
L 2022 519 
Q 2988 519 3436 956 
Q 3884 1394 3884 2338 
Q 3884 3275 3436 3711 
Q 2988 4147 2022 4147 
L 1259 4147 
z
M 628 4666 
L 1925 4666 
Q 3281 4666 3915 4102 
Q 4550 3538 4550 2338 
Q 4550 1131 3912 565 
Q 3275 0 1925 0 
L 628 0 
L 628 4666 
z
" transform="scale(0.015625)"/>
        <path id="DejaVuSans-61" d="M 2194 1759 
Q 1497 1759 1228 1600 
Q 959 1441 959 1056 
Q 959 750 1161 570 
Q 1363 391 1709 391 
Q 2188 391 2477 730 
Q 2766 1069 2766 1631 
L 2766 1759 
L 2194 1759 
z
M 3341 1997 
L 3341 0 
L 2766 0 
L 2766 531 
Q 2569 213 2275 61 
Q 1981 -91 1556 -91 
Q 1019 -91 701 211 
Q 384 513 384 1019 
Q 384 1609 779 1909 
Q 1175 2209 1959 2209 
L 2766 2209 
L 2766 2266 
Q 2766 2663 2505 2880 
Q 2244 3097 1772 3097 
Q 1472 3097 1187 3025 
Q 903 2953 641 2809 
L 641 3341 
Q 956 3463 1253 3523 
Q 1550 3584 1831 3584 
Q 2591 3584 2966 3190 
Q 3341 2797 3341 1997 
z
" transform="scale(0.015625)"/>
        <path id="DejaVuSans-63" d="M 3122 3366 
L 3122 2828 
Q 2878 2963 2633 3030 
Q 2388 3097 2138 3097 
Q 1578 3097 1268 2742 
Q 959 2388 959 1747 
Q 959 1106 1268 751 
Q 1578 397 2138 397 
Q 2388 397 2633 464 
Q 2878 531 3122 666 
L 3122 134 
Q 2881 22 2623 -34 
Q 2366 -91 2075 -91 
Q 1284 -91 818 406 
Q 353 903 353 1747 
Q 353 2603 823 3093 
Q 1294 3584 2113 3584 
Q 2378 3584 2631 3529 
Q 2884 3475 3122 3366 
z
" transform="scale(0.015625)"/>
        <path id="DejaVuSans-2d" d="M 313 2009 
L 1997 2009 
L 1997 1497 
L 313 1497 
L 313 2009 
z
" transform="scale(0.015625)"/>
        <path id="DejaVuSans-58" d="M 403 4666 
L 1081 4666 
L 2241 2931 
L 3406 4666 
L 4084 4666 
L 2584 2425 
L 4184 0 
L 3506 0 
L 2194 1984 
L 872 0 
L 191 0 
L 1856 2491 
L 403 4666 
z
" transform="scale(0.015625)"/>
        <path id="DejaVuSans-54" d="M -19 4666 
L 3928 4666 
L 3928 4134 
L 2272 4134 
L 2272 0 
L 1638 0 
L 1638 4134 
L -19 4134 
L -19 4666 
z
" transform="scale(0.015625)"/>
        <path id="DejaVuSans-72" d="M 2631 2963 
Q 2534 3019 2420 3045 
Q 2306 3072 2169 3072 
Q 1681 3072 1420 2755 
Q 1159 2438 1159 1844 
L 1159 0 
L 581 0 
L 581 3500 
L 1159 3500 
L 1159 2956 
Q 1341 3275 1631 3429 
Q 1922 3584 2338 3584 
Q 2397 3584 2469 3576 
Q 2541 3569 2628 3553 
L 2631 2963 
z
" transform="scale(0.015625)"/>
        <path id="DejaVuSans-75" d="M 544 1381 
L 544 3500 
L 1119 3500 
L 1119 1403 
Q 1119 906 1312 657 
Q 1506 409 1894 409 
Q 2359 409 2629 706 
Q 2900 1003 2900 1516 
L 2900 3500 
L 3475 3500 
L 3475 0 
L 2900 0 
L 2900 538 
Q 2691 219 2414 64 
Q 2138 -91 1772 -91 
Q 1169 -91 856 284 
Q 544 659 544 1381 
z
M 1991 3584 
L 1991 3584 
z
" transform="scale(0.015625)"/>
       </defs>
       <use xlink:href="#DejaVuSans-4c"/>
       <use xlink:href="#DejaVuSans-65" x="53.962891"/>
       <use xlink:href="#DejaVuSans-76" x="115.486328"/>
       <use xlink:href="#DejaVuSans-65" x="174.666016"/>
       <use xlink:href="#DejaVuSans-6e" x="236.189453"/>
       <use xlink:href="#DejaVuSans-73" x="299.568359"/>
       <use xlink:href="#DejaVuSans-68" x="351.667969"/>
       <use xlink:href="#DejaVuSans-74" x="415.046875"/>
       <use xlink:href="#DejaVuSans-65" x="454.255859"/>
       <use xlink:href="#DejaVuSans-69" x="515.779297"/>
       <use xlink:href="#DejaVuSans-6e" x="543.5625"/>
       <use xlink:href="#DejaVuSans-20" x="606.941406"/>
       <use xlink:href="#DejaVuSans-44" x="638.728516"/>
       <use xlink:href="#DejaVuSans-69" x="715.730469"/>
       <use xlink:href="#DejaVuSans-73" x="743.513672"/>
       <use xlink:href="#DejaVuSans-74" x="795.613281"/>
       <use xlink:href="#DejaVuSans-61" x="834.822266"/>
       <use xlink:href="#DejaVuSans-6e" x="896.101562"/>
       <use xlink:href="#DejaVuSans-63" x="959.480469"/>
       <use xlink:href="#DejaVuSans-65" x="1014.460938"/>
       <use xlink:href="#DejaVuSans-20" x="1075.984375"/>
       <use xlink:href="#DejaVuSans-2d" x="1107.771484"/>
       <use xlink:href="#DejaVuSans-20" x="1143.855469"/>
       <use xlink:href="#DejaVuSans-58" x="1175.642578"/>
       <use xlink:href="#DejaVuSans-20" x="1244.148438"/>
       <use xlink:href="#DejaVuSans-61" x="1275.935547"/>
       <use xlink:href="#DejaVuSans-73" x="1337.214844"/>
       <use xlink:href="#DejaVuSans-20" x="1389.314453"/>
       <use xlink:href="#DejaVuSans-54" x="1421.101562"/>
       <use xlink:href="#DejaVuSans-72" x="1467.435547"/>
       <use xlink:href="#DejaVuSans-75" x="1508.548828"/>
       <use xlink:href="#DejaVuSans-74" x="1571.927734"/>
       <use xlink:href="#DejaVuSans-68" x="1611.136719"/>
      </g>
     </g>
    </g>
    <g id="xtick_2">
     <g id="line2d_2">
      <g>
       <use xlink:href="#md72e5c8eec" x="646.089961" y="661.48" style="stroke: #000000; stroke-width: 0.8"/>
      </g>
     </g>
     <g id="text_2">
      <!-- Levenshtein Distance - Y as Truth -->
      <g transform="translate(648.849336 835.183125) rotate(-90) scale(0.1 -0.1)">
       <defs>
        <path id="DejaVuSans-59" d="M -13 4666 
L 666 4666 
L 1959 2747 
L 3244 4666 
L 3922 4666 
L 2272 2222 
L 2272 0 
L 1638 0 
L 1638 2222 
L -13 4666 
z
" transform="scale(0.015625)"/>
       </defs>
       <use xlink:href="#DejaVuSans-4c"/>
       <use xlink:href="#DejaVuSans-65" x="53.962891"/>
       <use xlink:href="#DejaVuSans-76" x="115.486328"/>
       <use xlink:href="#DejaVuSans-65" x="174.666016"/>
       <use xlink:href="#DejaVuSans-6e" x="236.189453"/>
       <use xlink:href="#DejaVuSans-73" x="299.568359"/>
       <use xlink:href="#DejaVuSans-68" x="351.667969"/>
       <use xlink:href="#DejaVuSans-74" x="415.046875"/>
       <use xlink:href="#DejaVuSans-65" x="454.255859"/>
       <use xlink:href="#DejaVuSans-69" x="515.779297"/>
       <use xlink:href="#DejaVuSans-6e" x="543.5625"/>
       <use xlink:href="#DejaVuSans-20" x="606.941406"/>
       <use xlink:href="#DejaVuSans-44" x="638.728516"/>
       <use xlink:href="#DejaVuSans-69" x="715.730469"/>
       <use xlink:href="#DejaVuSans-73" x="743.513672"/>
       <use xlink:href="#DejaVuSans-74" x="795.613281"/>
       <use xlink:href="#DejaVuSans-61" x="834.822266"/>
       <use xlink:href="#DejaVuSans-6e" x="896.101562"/>
       <use xlink:href="#DejaVuSans-63" x="959.480469"/>
       <use xlink:href="#DejaVuSans-65" x="1014.460938"/>
       <use xlink:href="#DejaVuSans-20" x="1075.984375"/>
       <use xlink:href="#DejaVuSans-2d" x="1107.771484"/>
       <use xlink:href="#DejaVuSans-20" x="1143.855469"/>
       <use xlink:href="#DejaVuSans-59" x="1175.642578"/>
       <use xlink:href="#DejaVuSans-20" x="1236.726562"/>
       <use xlink:href="#DejaVuSans-61" x="1268.513672"/>
       <use xlink:href="#DejaVuSans-73" x="1329.792969"/>
       <use xlink:href="#DejaVuSans-20" x="1381.892578"/>
       <use xlink:href="#DejaVuSans-54" x="1413.679688"/>
       <use xlink:href="#DejaVuSans-72" x="1460.013672"/>
       <use xlink:href="#DejaVuSans-75" x="1501.126953"/>
       <use xlink:href="#DejaVuSans-74" x="1564.505859"/>
       <use xlink:href="#DejaVuSans-68" x="1603.714844"/>
      </g>
     </g>
    </g>
    <g id="text_3">
     <!-- Statistical Test -->
     <g transform="translate(392.696406 850.563125) scale(0.14 -0.14)">
      <defs>
       <path id="DejaVuSans-53" d="M 3425 4513 
L 3425 3897 
Q 3066 4069 2747 4153 
Q 2428 4238 2131 4238 
Q 1616 4238 1336 4038 
Q 1056 3838 1056 3469 
Q 1056 3159 1242 3001 
Q 1428 2844 1947 2747 
L 2328 2669 
Q 3034 2534 3370 2195 
Q 3706 1856 3706 1288 
Q 3706 609 3251 259 
Q 2797 -91 1919 -91 
Q 1588 -91 1214 -16 
Q 841 59 441 206 
L 441 856 
Q 825 641 1194 531 
Q 1563 422 1919 422 
Q 2459 422 2753 634 
Q 3047 847 3047 1241 
Q 3047 1584 2836 1778 
Q 2625 1972 2144 2069 
L 1759 2144 
Q 1053 2284 737 2584 
Q 422 2884 422 3419 
Q 422 4038 858 4394 
Q 1294 4750 2059 4750 
Q 2388 4750 2728 4690 
Q 3069 4631 3425 4513 
z
" transform="scale(0.015625)"/>
       <path id="DejaVuSans-6c" d="M 603 4863 
L 1178 4863 
L 1178 0 
L 603 0 
L 603 4863 
z
" transform="scale(0.015625)"/>
      </defs>
      <use xlink:href="#DejaVuSans-53"/>
      <use xlink:href="#DejaVuSans-74" x="63.476562"/>
      <use xlink:href="#DejaVuSans-61" x="102.685547"/>
      <use xlink:href="#DejaVuSans-74" x="163.964844"/>
      <use xlink:href="#DejaVuSans-69" x="203.173828"/>
      <use xlink:href="#DejaVuSans-73" x="230.957031"/>
      <use xlink:href="#DejaVuSans-74" x="283.056641"/>
      <use xlink:href="#DejaVuSans-69" x="322.265625"/>
      <use xlink:href="#DejaVuSans-63" x="350.048828"/>
      <use xlink:href="#DejaVuSans-61" x="405.029297"/>
      <use xlink:href="#DejaVuSans-6c" x="466.308594"/>
      <use xlink:href="#DejaVuSans-20" x="494.091797"/>
      <use xlink:href="#DejaVuSans-54" x="525.878906"/>
      <use xlink:href="#DejaVuSans-65" x="569.962891"/>
      <use xlink:href="#DejaVuSans-73" x="631.486328"/>
      <use xlink:href="#DejaVuSans-74" x="683.585938"/>
     </g>
    </g>
   </g>
   <g id="matplotlib.axis_2">
    <g id="ytick_1">
     <g id="line2d_3">
      <defs>
       <path id="m78e26ac8de" d="M 0 0 
L -3.5 0 
" style="stroke: #000000; stroke-width: 0.8"/>
      </defs>
      <g>
       <use xlink:href="#m78e26ac8de" x="60.86" y="658.386002" style="stroke: #000000; stroke-width: 0.8"/>
      </g>
     </g>
     <g id="text_4">
      <!-- 800 -->
      <g transform="translate(34.7725 662.185221) scale(0.1 -0.1)">
       <defs>
        <path id="DejaVuSans-38" d="M 2034 2216 
Q 1584 2216 1326 1975 
Q 1069 1734 1069 1313 
Q 1069 891 1326 650 
Q 1584 409 2034 409 
Q 2484 409 2743 651 
Q 3003 894 3003 1313 
Q 3003 1734 2745 1975 
Q 2488 2216 2034 2216 
z
M 1403 2484 
Q 997 2584 770 2862 
Q 544 3141 544 3541 
Q 544 4100 942 4425 
Q 1341 4750 2034 4750 
Q 2731 4750 3128 4425 
Q 3525 4100 3525 3541 
Q 3525 3141 3298 2862 
Q 3072 2584 2669 2484 
Q 3125 2378 3379 2068 
Q 3634 1759 3634 1313 
Q 3634 634 3220 271 
Q 2806 -91 2034 -91 
Q 1263 -91 848 271 
Q 434 634 434 1313 
Q 434 1759 690 2068 
Q 947 2378 1403 2484 
z
M 1172 3481 
Q 1172 3119 1398 2916 
Q 1625 2713 2034 2713 
Q 2441 2713 2670 2916 
Q 2900 3119 2900 3481 
Q 2900 3844 2670 4047 
Q 2441 4250 2034 4250 
Q 1625 4250 1398 4047 
Q 1172 3844 1172 3481 
z
" transform="scale(0.015625)"/>
        <path id="DejaVuSans-30" d="M 2034 4250 
Q 1547 4250 1301 3770 
Q 1056 3291 1056 2328 
Q 1056 1369 1301 889 
Q 1547 409 2034 409 
Q 2525 409 2770 889 
Q 3016 1369 3016 2328 
Q 3016 3291 2770 3770 
Q 2525 4250 2034 4250 
z
M 2034 4750 
Q 2819 4750 3233 4129 
Q 3647 3509 3647 2328 
Q 3647 1150 3233 529 
Q 2819 -91 2034 -91 
Q 1250 -91 836 529 
Q 422 1150 422 2328 
Q 422 3509 836 4129 
Q 1250 4750 2034 4750 
z
" transform="scale(0.015625)"/>
       </defs>
       <use xlink:href="#DejaVuSans-38"/>
       <use xlink:href="#DejaVuSans-30" x="63.623047"/>
       <use xlink:href="#DejaVuSans-30" x="127.246094"/>
      </g>
     </g>
    </g>
    <g id="ytick_2">
     <g id="line2d_4">
      <g>
       <use xlink:href="#m78e26ac8de" x="60.86" y="583.609251" style="stroke: #000000; stroke-width: 0.8"/>
      </g>
     </g>
     <g id="text_5">
      <!-- 1000 -->
      <g transform="translate(28.41 587.40847) scale(0.1 -0.1)">
       <defs>
        <path id="DejaVuSans-31" d="M 794 531 
L 1825 531 
L 1825 4091 
L 703 3866 
L 703 4441 
L 1819 4666 
L 2450 4666 
L 2450 531 
L 3481 531 
L 3481 0 
L 794 0 
L 794 531 
z
" transform="scale(0.015625)"/>
       </defs>
       <use xlink:href="#DejaVuSans-31"/>
       <use xlink:href="#DejaVuSans-30" x="63.623047"/>
       <use xlink:href="#DejaVuSans-30" x="127.246094"/>
       <use xlink:href="#DejaVuSans-30" x="190.869141"/>
      </g>
     </g>
    </g>
    <g id="ytick_3">
     <g id="line2d_5">
      <g>
       <use xlink:href="#m78e26ac8de" x="60.86" y="508.8325" style="stroke: #000000; stroke-width: 0.8"/>
      </g>
     </g>
     <g id="text_6">
      <!-- 1200 -->
      <g transform="translate(28.41 512.631719) scale(0.1 -0.1)">
       <defs>
        <path id="DejaVuSans-32" d="M 1228 531 
L 3431 531 
L 3431 0 
L 469 0 
L 469 531 
Q 828 903 1448 1529 
Q 2069 2156 2228 2338 
Q 2531 2678 2651 2914 
Q 2772 3150 2772 3378 
Q 2772 3750 2511 3984 
Q 2250 4219 1831 4219 
Q 1534 4219 1204 4116 
Q 875 4013 500 3803 
L 500 4441 
Q 881 4594 1212 4672 
Q 1544 4750 1819 4750 
Q 2544 4750 2975 4387 
Q 3406 4025 3406 3419 
Q 3406 3131 3298 2873 
Q 3191 2616 2906 2266 
Q 2828 2175 2409 1742 
Q 1991 1309 1228 531 
z
" transform="scale(0.015625)"/>
       </defs>
       <use xlink:href="#DejaVuSans-31"/>
       <use xlink:href="#DejaVuSans-32" x="63.623047"/>
       <use xlink:href="#DejaVuSans-30" x="127.246094"/>
       <use xlink:href="#DejaVuSans-30" x="190.869141"/>
      </g>
     </g>
    </g>
    <g id="ytick_4">
     <g id="line2d_6">
      <g>
       <use xlink:href="#m78e26ac8de" x="60.86" y="434.05575" style="stroke: #000000; stroke-width: 0.8"/>
      </g>
     </g>
     <g id="text_7">
      <!-- 1400 -->
      <g transform="translate(28.41 437.854968) scale(0.1 -0.1)">
       <defs>
        <path id="DejaVuSans-34" d="M 2419 4116 
L 825 1625 
L 2419 1625 
L 2419 4116 
z
M 2253 4666 
L 3047 4666 
L 3047 1625 
L 3713 1625 
L 3713 1100 
L 3047 1100 
L 3047 0 
L 2419 0 
L 2419 1100 
L 313 1100 
L 313 1709 
L 2253 4666 
z
" transform="scale(0.015625)"/>
       </defs>
       <use xlink:href="#DejaVuSans-31"/>
       <use xlink:href="#DejaVuSans-34" x="63.623047"/>
       <use xlink:href="#DejaVuSans-30" x="127.246094"/>
       <use xlink:href="#DejaVuSans-30" x="190.869141"/>
      </g>
     </g>
    </g>
    <g id="ytick_5">
     <g id="line2d_7">
      <g>
       <use xlink:href="#m78e26ac8de" x="60.86" y="359.278999" style="stroke: #000000; stroke-width: 0.8"/>
      </g>
     </g>
     <g id="text_8">
      <!-- 1600 -->
      <g transform="translate(28.41 363.078217) scale(0.1 -0.1)">
       <defs>
        <path id="DejaVuSans-36" d="M 2113 2584 
Q 1688 2584 1439 2293 
Q 1191 2003 1191 1497 
Q 1191 994 1439 701 
Q 1688 409 2113 409 
Q 2538 409 2786 701 
Q 3034 994 3034 1497 
Q 3034 2003 2786 2293 
Q 2538 2584 2113 2584 
z
M 3366 4563 
L 3366 3988 
Q 3128 4100 2886 4159 
Q 2644 4219 2406 4219 
Q 1781 4219 1451 3797 
Q 1122 3375 1075 2522 
Q 1259 2794 1537 2939 
Q 1816 3084 2150 3084 
Q 2853 3084 3261 2657 
Q 3669 2231 3669 1497 
Q 3669 778 3244 343 
Q 2819 -91 2113 -91 
Q 1303 -91 875 529 
Q 447 1150 447 2328 
Q 447 3434 972 4092 
Q 1497 4750 2381 4750 
Q 2619 4750 2861 4703 
Q 3103 4656 3366 4563 
z
" transform="scale(0.015625)"/>
       </defs>
       <use xlink:href="#DejaVuSans-31"/>
       <use xlink:href="#DejaVuSans-36" x="63.623047"/>
       <use xlink:href="#DejaVuSans-30" x="127.246094"/>
       <use xlink:href="#DejaVuSans-30" x="190.869141"/>
      </g>
     </g>
    </g>
    <g id="ytick_6">
     <g id="line2d_8">
      <g>
       <use xlink:href="#m78e26ac8de" x="60.86" y="284.502248" style="stroke: #000000; stroke-width: 0.8"/>
      </g>
     </g>
     <g id="text_9">
      <!-- 1800 -->
      <g transform="translate(28.41 288.301466) scale(0.1 -0.1)">
       <use xlink:href="#DejaVuSans-31"/>
       <use xlink:href="#DejaVuSans-38" x="63.623047"/>
       <use xlink:href="#DejaVuSans-30" x="127.246094"/>
       <use xlink:href="#DejaVuSans-30" x="190.869141"/>
      </g>
     </g>
    </g>
    <g id="ytick_7">
     <g id="line2d_9">
      <g>
       <use xlink:href="#m78e26ac8de" x="60.86" y="209.725497" style="stroke: #000000; stroke-width: 0.8"/>
      </g>
     </g>
     <g id="text_10">
      <!-- 2000 -->
      <g transform="translate(28.41 213.524715) scale(0.1 -0.1)">
       <use xlink:href="#DejaVuSans-32"/>
       <use xlink:href="#DejaVuSans-30" x="63.623047"/>
       <use xlink:href="#DejaVuSans-30" x="127.246094"/>
       <use xlink:href="#DejaVuSans-30" x="190.869141"/>
      </g>
     </g>
    </g>
    <g id="ytick_8">
     <g id="line2d_10">
      <g>
       <use xlink:href="#m78e26ac8de" x="60.86" y="134.948746" style="stroke: #000000; stroke-width: 0.8"/>
      </g>
     </g>
     <g id="text_11">
      <!-- 2200 -->
      <g transform="translate(28.41 138.747964) scale(0.1 -0.1)">
       <use xlink:href="#DejaVuSans-32"/>
       <use xlink:href="#DejaVuSans-32" x="63.623047"/>
       <use xlink:href="#DejaVuSans-30" x="127.246094"/>
       <use xlink:href="#DejaVuSans-30" x="190.869141"/>
      </g>
     </g>
    </g>
    <g id="text_12">
     <!-- Score -->
     <g transform="translate(21.498437 394.959281) rotate(-90) scale(0.14 -0.14)">
      <defs>
       <path id="DejaVuSans-6f" d="M 1959 3097 
Q 1497 3097 1228 2736 
Q 959 2375 959 1747 
Q 959 1119 1226 758 
Q 1494 397 1959 397 
Q 2419 397 2687 759 
Q 2956 1122 2956 1747 
Q 2956 2369 2687 2733 
Q 2419 3097 1959 3097 
z
M 1959 3584 
Q 2709 3584 3137 3096 
Q 3566 2609 3566 1747 
Q 3566 888 3137 398 
Q 2709 -91 1959 -91 
Q 1206 -91 779 398 
Q 353 888 353 1747 
Q 353 2609 779 3096 
Q 1206 3584 1959 3584 
z
" transform="scale(0.015625)"/>
      </defs>
      <use xlink:href="#DejaVuSans-53"/>
      <use xlink:href="#DejaVuSans-63" x="63.476562"/>
      <use xlink:href="#DejaVuSans-6f" x="118.457031"/>
      <use xlink:href="#DejaVuSans-72" x="179.638672"/>
      <use xlink:href="#DejaVuSans-65" x="218.501953"/>
     </g>
    </g>
   </g>
   <g id="line2d_11">
    <path d="M 276.301729 553.324667 
L 276.301729 201.12617 
" clip-path="url(#pa7ae728209)" style="fill: none; stroke: #3f3f3f; stroke-width: 1.875; stroke-linecap: square"/>
   </g>
   <g id="line2d_12">
    <path d="M 276.301729 422.558824 
L 276.301729 331.237717 
" clip-path="url(#pa7ae728209)" style="fill: none; stroke: #3f3f3f; stroke-width: 5.625; stroke-linecap: square"/>
   </g>
   <g id="line2d_13">
    <path d="M 276.301729 374.982116 
" clip-path="url(#pa7ae728209)" style="fill: none; stroke: #3f3f3f; stroke-width: 1.5; stroke-linecap: square"/>
    <defs>
     <path id="m64a1c5362f" d="M 2.34375 0 
L -2.34375 -0 
" style="stroke: #ffffff; stroke-width: 1.125"/>
    </defs>
    <g clip-path="url(#pa7ae728209)">
     <use xlink:href="#m64a1c5362f" x="276.301729" y="374.982116" style="fill: #ffffff; stroke: #ffffff; stroke-width: 1.125"/>
    </g>
   </g>
   <g id="line2d_14">
    <path d="M 281.926729 484.90394 
L 281.926729 231.410754 
" clip-path="url(#pa7ae728209)" style="fill: none; stroke: #3f3f3f; stroke-width: 1.875; stroke-linecap: square"/>
   </g>
   <g id="line2d_15">
    <path d="M 281.926729 394.797955 
L 281.926729 329.368298 
" clip-path="url(#pa7ae728209)" style="fill: none; stroke: #3f3f3f; stroke-width: 5.625; stroke-linecap: square"/>
   </g>
   <g id="line2d_16">
    <path d="M 281.926729 361.896185 
" clip-path="url(#pa7ae728209)" style="fill: none; stroke: #3f3f3f; stroke-width: 1.5; stroke-linecap: square"/>
    <g clip-path="url(#pa7ae728209)">
     <use xlink:href="#m64a1c5362f" x="281.926729" y="361.896185" style="fill: #ffffff; stroke: #ffffff; stroke-width: 1.125"/>
    </g>
   </g>
   <g id="line2d_17">
    <path d="M 643.277461 553.324667 
L 643.277461 201.12617 
" clip-path="url(#pa7ae728209)" style="fill: none; stroke: #3f3f3f; stroke-width: 1.875; stroke-linecap: square"/>
   </g>
   <g id="line2d_18">
    <path d="M 643.277461 422.558824 
L 643.277461 331.237717 
" clip-path="url(#pa7ae728209)" style="fill: none; stroke: #3f3f3f; stroke-width: 5.625; stroke-linecap: square"/>
   </g>
   <g id="line2d_19">
    <path d="M 643.277461 374.982116 
" clip-path="url(#pa7ae728209)" style="fill: none; stroke: #3f3f3f; stroke-width: 1.5; stroke-linecap: square"/>
    <g clip-path="url(#pa7ae728209)">
     <use xlink:href="#m64a1c5362f" x="643.277461" y="374.982116" style="fill: #ffffff; stroke: #ffffff; stroke-width: 1.125"/>
    </g>
   </g>
   <g id="line2d_20">
    <path d="M 648.902461 495.372685 
L 648.902461 235.523476 
" clip-path="url(#pa7ae728209)" style="fill: none; stroke: #3f3f3f; stroke-width: 1.875; stroke-linecap: square"/>
   </g>
   <g id="line2d_21">
    <path d="M 648.902461 396.667374 
L 648.902461 330.770362 
" clip-path="url(#pa7ae728209)" style="fill: none; stroke: #3f3f3f; stroke-width: 5.625; stroke-linecap: square"/>
   </g>
   <g id="line2d_22">
    <path d="M 648.902461 363.017836 
" clip-path="url(#pa7ae728209)" style="fill: none; stroke: #3f3f3f; stroke-width: 1.5; stroke-linecap: square"/>
    <g clip-path="url(#pa7ae728209)">
     <use xlink:href="#m64a1c5362f" x="648.902461" y="363.017836" style="fill: #ffffff; stroke: #ffffff; stroke-width: 1.125"/>
    </g>
   </g>
   <g id="patch_6">
    <path d="M 60.86 661.48 
L 60.86 89.232 
" style="fill: none; stroke: #000000; stroke-width: 0.8; stroke-linejoin: miter; stroke-linecap: square"/>
   </g>
   <g id="patch_7">
    <path d="M 825.72 661.48 
L 825.72 89.232 
" style="fill: none; stroke: #000000; stroke-width: 0.8; stroke-linejoin: miter; stroke-linecap: square"/>
   </g>
   <g id="patch_8">
    <path d="M 60.86 661.48 
L 825.72 661.48 
" style="fill: none; stroke: #000000; stroke-width: 0.8; stroke-linejoin: miter; stroke-linecap: square"/>
   </g>
   <g id="patch_9">
    <path d="M 60.86 89.232 
L 825.72 89.232 
" style="fill: none; stroke: #000000; stroke-width: 0.8; stroke-linejoin: miter; stroke-linecap: square"/>
   </g>
   <g id="text_13">
    <!-- Violinplot of Scores Grouped by Statistical Test  -->
    <g transform="translate(254.5075 65.3155) scale(0.16 -0.16)">
     <defs>
      <path id="DejaVuSans-56" d="M 1831 0 
L 50 4666 
L 709 4666 
L 2188 738 
L 3669 4666 
L 4325 4666 
L 2547 0 
L 1831 0 
z
" transform="scale(0.015625)"/>
      <path id="DejaVuSans-70" d="M 1159 525 
L 1159 -1331 
L 581 -1331 
L 581 3500 
L 1159 3500 
L 1159 2969 
Q 1341 3281 1617 3432 
Q 1894 3584 2278 3584 
Q 2916 3584 3314 3078 
Q 3713 2572 3713 1747 
Q 3713 922 3314 415 
Q 2916 -91 2278 -91 
Q 1894 -91 1617 61 
Q 1341 213 1159 525 
z
M 3116 1747 
Q 3116 2381 2855 2742 
Q 2594 3103 2138 3103 
Q 1681 3103 1420 2742 
Q 1159 2381 1159 1747 
Q 1159 1113 1420 752 
Q 1681 391 2138 391 
Q 2594 391 2855 752 
Q 3116 1113 3116 1747 
z
" transform="scale(0.015625)"/>
      <path id="DejaVuSans-66" d="M 2375 4863 
L 2375 4384 
L 1825 4384 
Q 1516 4384 1395 4259 
Q 1275 4134 1275 3809 
L 1275 3500 
L 2222 3500 
L 2222 3053 
L 1275 3053 
L 1275 0 
L 697 0 
L 697 3053 
L 147 3053 
L 147 3500 
L 697 3500 
L 697 3744 
Q 697 4328 969 4595 
Q 1241 4863 1831 4863 
L 2375 4863 
z
" transform="scale(0.015625)"/>
      <path id="DejaVuSans-47" d="M 3809 666 
L 3809 1919 
L 2778 1919 
L 2778 2438 
L 4434 2438 
L 4434 434 
Q 4069 175 3628 42 
Q 3188 -91 2688 -91 
Q 1594 -91 976 548 
Q 359 1188 359 2328 
Q 359 3472 976 4111 
Q 1594 4750 2688 4750 
Q 3144 4750 3555 4637 
Q 3966 4525 4313 4306 
L 4313 3634 
Q 3963 3931 3569 4081 
Q 3175 4231 2741 4231 
Q 1884 4231 1454 3753 
Q 1025 3275 1025 2328 
Q 1025 1384 1454 906 
Q 1884 428 2741 428 
Q 3075 428 3337 486 
Q 3600 544 3809 666 
z
" transform="scale(0.015625)"/>
      <path id="DejaVuSans-64" d="M 2906 2969 
L 2906 4863 
L 3481 4863 
L 3481 0 
L 2906 0 
L 2906 525 
Q 2725 213 2448 61 
Q 2172 -91 1784 -91 
Q 1150 -91 751 415 
Q 353 922 353 1747 
Q 353 2572 751 3078 
Q 1150 3584 1784 3584 
Q 2172 3584 2448 3432 
Q 2725 3281 2906 2969 
z
M 947 1747 
Q 947 1113 1208 752 
Q 1469 391 1925 391 
Q 2381 391 2643 752 
Q 2906 1113 2906 1747 
Q 2906 2381 2643 2742 
Q 2381 3103 1925 3103 
Q 1469 3103 1208 2742 
Q 947 2381 947 1747 
z
" transform="scale(0.015625)"/>
      <path id="DejaVuSans-62" d="M 3116 1747 
Q 3116 2381 2855 2742 
Q 2594 3103 2138 3103 
Q 1681 3103 1420 2742 
Q 1159 2381 1159 1747 
Q 1159 1113 1420 752 
Q 1681 391 2138 391 
Q 2594 391 2855 752 
Q 3116 1113 3116 1747 
z
M 1159 2969 
Q 1341 3281 1617 3432 
Q 1894 3584 2278 3584 
Q 2916 3584 3314 3078 
Q 3713 2572 3713 1747 
Q 3713 922 3314 415 
Q 2916 -91 2278 -91 
Q 1894 -91 1617 61 
Q 1341 213 1159 525 
L 1159 0 
L 581 0 
L 581 4863 
L 1159 4863 
L 1159 2969 
z
" transform="scale(0.015625)"/>
      <path id="DejaVuSans-79" d="M 2059 -325 
Q 1816 -950 1584 -1140 
Q 1353 -1331 966 -1331 
L 506 -1331 
L 506 -850 
L 844 -850 
Q 1081 -850 1212 -737 
Q 1344 -625 1503 -206 
L 1606 56 
L 191 3500 
L 800 3500 
L 1894 763 
L 2988 3500 
L 3597 3500 
L 2059 -325 
z
" transform="scale(0.015625)"/>
     </defs>
     <use xlink:href="#DejaVuSans-56"/>
     <use xlink:href="#DejaVuSans-69" x="66.158203"/>
     <use xlink:href="#DejaVuSans-6f" x="93.941406"/>
     <use xlink:href="#DejaVuSans-6c" x="155.123047"/>
     <use xlink:href="#DejaVuSans-69" x="182.90625"/>
     <use xlink:href="#DejaVuSans-6e" x="210.689453"/>
     <use xlink:href="#DejaVuSans-70" x="274.068359"/>
     <use xlink:href="#DejaVuSans-6c" x="337.544922"/>
     <use xlink:href="#DejaVuSans-6f" x="365.328125"/>
     <use xlink:href="#DejaVuSans-74" x="426.509766"/>
     <use xlink:href="#DejaVuSans-20" x="465.71875"/>
     <use xlink:href="#DejaVuSans-6f" x="497.505859"/>
     <use xlink:href="#DejaVuSans-66" x="558.6875"/>
     <use xlink:href="#DejaVuSans-20" x="593.892578"/>
     <use xlink:href="#DejaVuSans-53" x="625.679688"/>
     <use xlink:href="#DejaVuSans-63" x="689.15625"/>
     <use xlink:href="#DejaVuSans-6f" x="744.136719"/>
     <use xlink:href="#DejaVuSans-72" x="805.318359"/>
     <use xlink:href="#DejaVuSans-65" x="844.181641"/>
     <use xlink:href="#DejaVuSans-73" x="905.705078"/>
     <use xlink:href="#DejaVuSans-20" x="957.804688"/>
     <use xlink:href="#DejaVuSans-47" x="989.591797"/>
     <use xlink:href="#DejaVuSans-72" x="1067.082031"/>
     <use xlink:href="#DejaVuSans-6f" x="1105.945312"/>
     <use xlink:href="#DejaVuSans-75" x="1167.126953"/>
     <use xlink:href="#DejaVuSans-70" x="1230.505859"/>
     <use xlink:href="#DejaVuSans-65" x="1293.982422"/>
     <use xlink:href="#DejaVuSans-64" x="1355.505859"/>
     <use xlink:href="#DejaVuSans-20" x="1418.982422"/>
     <use xlink:href="#DejaVuSans-62" x="1450.769531"/>
     <use xlink:href="#DejaVuSans-79" x="1514.246094"/>
     <use xlink:href="#DejaVuSans-20" x="1573.425781"/>
     <use xlink:href="#DejaVuSans-53" x="1605.212891"/>
     <use xlink:href="#DejaVuSans-74" x="1668.689453"/>
     <use xlink:href="#DejaVuSans-61" x="1707.898438"/>
     <use xlink:href="#DejaVuSans-74" x="1769.177734"/>
     <use xlink:href="#DejaVuSans-69" x="1808.386719"/>
     <use xlink:href="#DejaVuSans-73" x="1836.169922"/>
     <use xlink:href="#DejaVuSans-74" x="1888.269531"/>
     <use xlink:href="#DejaVuSans-69" x="1927.478516"/>
     <use xlink:href="#DejaVuSans-63" x="1955.261719"/>
     <use xlink:href="#DejaVuSans-61" x="2010.242188"/>
     <use xlink:href="#DejaVuSans-6c" x="2071.521484"/>
     <use xlink:href="#DejaVuSans-20" x="2099.304688"/>
     <use xlink:href="#DejaVuSans-54" x="2131.091797"/>
     <use xlink:href="#DejaVuSans-65" x="2175.175781"/>
     <use xlink:href="#DejaVuSans-73" x="2236.699219"/>
     <use xlink:href="#DejaVuSans-74" x="2288.798828"/>
     <use xlink:href="#DejaVuSans-20" x="2328.007812"/>
    </g>
    <!-- Across all subjects -->
    <g transform="translate(369.62375 83.232) scale(0.16 -0.16)">
     <defs>
      <path id="DejaVuSans-41" d="M 2188 4044 
L 1331 1722 
L 3047 1722 
L 2188 4044 
z
M 1831 4666 
L 2547 4666 
L 4325 0 
L 3669 0 
L 3244 1197 
L 1141 1197 
L 716 0 
L 50 0 
L 1831 4666 
z
" transform="scale(0.015625)"/>
      <path id="DejaVuSans-6a" d="M 603 3500 
L 1178 3500 
L 1178 -63 
Q 1178 -731 923 -1031 
Q 669 -1331 103 -1331 
L -116 -1331 
L -116 -844 
L 38 -844 
Q 366 -844 484 -692 
Q 603 -541 603 -63 
L 603 3500 
z
M 603 4863 
L 1178 4863 
L 1178 4134 
L 603 4134 
L 603 4863 
z
" transform="scale(0.015625)"/>
     </defs>
     <use xlink:href="#DejaVuSans-41"/>
     <use xlink:href="#DejaVuSans-63" x="66.658203"/>
     <use xlink:href="#DejaVuSans-72" x="121.638672"/>
     <use xlink:href="#DejaVuSans-6f" x="160.501953"/>
     <use xlink:href="#DejaVuSans-73" x="221.683594"/>
     <use xlink:href="#DejaVuSans-73" x="273.783203"/>
     <use xlink:href="#DejaVuSans-20" x="325.882812"/>
     <use xlink:href="#DejaVuSans-61" x="357.669922"/>
     <use xlink:href="#DejaVuSans-6c" x="418.949219"/>
     <use xlink:href="#DejaVuSans-6c" x="446.732422"/>
     <use xlink:href="#DejaVuSans-20" x="474.515625"/>
     <use xlink:href="#DejaVuSans-73" x="506.302734"/>
     <use xlink:href="#DejaVuSans-75" x="558.402344"/>
     <use xlink:href="#DejaVuSans-62" x="621.78125"/>
     <use xlink:href="#DejaVuSans-6a" x="685.257812"/>
     <use xlink:href="#DejaVuSans-65" x="713.041016"/>
     <use xlink:href="#DejaVuSans-63" x="774.564453"/>
     <use xlink:href="#DejaVuSans-74" x="829.544922"/>
     <use xlink:href="#DejaVuSans-73" x="868.753906"/>
    </g>
   </g>
   <g id="legend_1">
    <g id="patch_10">
     <path d="M 667.60175 149.737625 
L 855.563 149.737625 
Q 857.963 149.737625 857.963 147.337625 
L 857.963 97.632 
Q 857.963 95.232 855.563 95.232 
L 667.60175 95.232 
Q 665.20175 95.232 665.20175 97.632 
L 665.20175 147.337625 
Q 665.20175 149.737625 667.60175 149.737625 
z
" style="fill: #ffffff; opacity: 0.8; stroke: #cccccc; stroke-linejoin: miter"/>
    </g>
    <g id="text_14">
     <!-- Score Type -->
     <g transform="translate(734.508156 107.630437) scale(0.1 -0.1)">
      <use xlink:href="#DejaVuSans-53"/>
      <use xlink:href="#DejaVuSans-63" x="63.476562"/>
      <use xlink:href="#DejaVuSans-6f" x="118.457031"/>
      <use xlink:href="#DejaVuSans-72" x="179.638672"/>
      <use xlink:href="#DejaVuSans-65" x="218.501953"/>
      <use xlink:href="#DejaVuSans-20" x="280.025391"/>
      <use xlink:href="#DejaVuSans-54" x="311.8125"/>
      <use xlink:href="#DejaVuSans-79" x="357.271484"/>
      <use xlink:href="#DejaVuSans-70" x="416.451172"/>
      <use xlink:href="#DejaVuSans-65" x="479.927734"/>
     </g>
    </g>
    <g id="patch_11">
     <path d="M 670.00175 124.82825 
L 694.00175 124.82825 
L 694.00175 116.42825 
L 670.00175 116.42825 
z
" style="fill: #3274a1; stroke: #3f3f3f; stroke-width: 1.25; stroke-linejoin: miter"/>
    </g>
    <g id="text_15">
     <!-- Score: (x real, y real) -->
     <g transform="translate(703.60175 124.82825) scale(0.12 -0.12)">
      <defs>
       <path id="DejaVuSans-3a" d="M 750 794 
L 1409 794 
L 1409 0 
L 750 0 
L 750 794 
z
M 750 3309 
L 1409 3309 
L 1409 2516 
L 750 2516 
L 750 3309 
z
" transform="scale(0.015625)"/>
       <path id="DejaVuSans-28" d="M 1984 4856 
Q 1566 4138 1362 3434 
Q 1159 2731 1159 2009 
Q 1159 1288 1364 580 
Q 1569 -128 1984 -844 
L 1484 -844 
Q 1016 -109 783 600 
Q 550 1309 550 2009 
Q 550 2706 781 3412 
Q 1013 4119 1484 4856 
L 1984 4856 
z
" transform="scale(0.015625)"/>
       <path id="DejaVuSans-78" d="M 3513 3500 
L 2247 1797 
L 3578 0 
L 2900 0 
L 1881 1375 
L 863 0 
L 184 0 
L 1544 1831 
L 300 3500 
L 978 3500 
L 1906 2253 
L 2834 3500 
L 3513 3500 
z
" transform="scale(0.015625)"/>
       <path id="DejaVuSans-2c" d="M 750 794 
L 1409 794 
L 1409 256 
L 897 -744 
L 494 -744 
L 750 256 
L 750 794 
z
" transform="scale(0.015625)"/>
       <path id="DejaVuSans-29" d="M 513 4856 
L 1013 4856 
Q 1481 4119 1714 3412 
Q 1947 2706 1947 2009 
Q 1947 1309 1714 600 
Q 1481 -109 1013 -844 
L 513 -844 
Q 928 -128 1133 580 
Q 1338 1288 1338 2009 
Q 1338 2731 1133 3434 
Q 928 4138 513 4856 
z
" transform="scale(0.015625)"/>
      </defs>
      <use xlink:href="#DejaVuSans-53"/>
      <use xlink:href="#DejaVuSans-63" x="63.476562"/>
      <use xlink:href="#DejaVuSans-6f" x="118.457031"/>
      <use xlink:href="#DejaVuSans-72" x="179.638672"/>
      <use xlink:href="#DejaVuSans-65" x="218.501953"/>
      <use xlink:href="#DejaVuSans-3a" x="280.025391"/>
      <use xlink:href="#DejaVuSans-20" x="313.716797"/>
      <use xlink:href="#DejaVuSans-28" x="345.503906"/>
      <use xlink:href="#DejaVuSans-78" x="384.517578"/>
      <use xlink:href="#DejaVuSans-20" x="443.697266"/>
      <use xlink:href="#DejaVuSans-72" x="475.484375"/>
      <use xlink:href="#DejaVuSans-65" x="514.347656"/>
      <use xlink:href="#DejaVuSans-61" x="575.871094"/>
      <use xlink:href="#DejaVuSans-6c" x="637.150391"/>
      <use xlink:href="#DejaVuSans-2c" x="664.933594"/>
      <use xlink:href="#DejaVuSans-20" x="696.720703"/>
      <use xlink:href="#DejaVuSans-79" x="728.507812"/>
      <use xlink:href="#DejaVuSans-20" x="787.6875"/>
      <use xlink:href="#DejaVuSans-72" x="819.474609"/>
      <use xlink:href="#DejaVuSans-65" x="858.337891"/>
      <use xlink:href="#DejaVuSans-61" x="919.861328"/>
      <use xlink:href="#DejaVuSans-6c" x="981.140625"/>
      <use xlink:href="#DejaVuSans-29" x="1008.923828"/>
     </g>
    </g>
    <g id="patch_12">
     <path d="M 670.00175 142.442 
L 694.00175 142.442 
L 694.00175 134.042 
L 670.00175 134.042 
z
" style="fill: #e1812c; stroke: #3f3f3f; stroke-width: 1.25; stroke-linejoin: miter"/>
    </g>
    <g id="text_16">
     <!-- Score: (x random, y real) -->
     <g transform="translate(703.60175 142.442) scale(0.12 -0.12)">
      <defs>
       <path id="DejaVuSans-6d" d="M 3328 2828 
Q 3544 3216 3844 3400 
Q 4144 3584 4550 3584 
Q 5097 3584 5394 3201 
Q 5691 2819 5691 2113 
L 5691 0 
L 5113 0 
L 5113 2094 
Q 5113 2597 4934 2840 
Q 4756 3084 4391 3084 
Q 3944 3084 3684 2787 
Q 3425 2491 3425 1978 
L 3425 0 
L 2847 0 
L 2847 2094 
Q 2847 2600 2669 2842 
Q 2491 3084 2119 3084 
Q 1678 3084 1418 2786 
Q 1159 2488 1159 1978 
L 1159 0 
L 581 0 
L 581 3500 
L 1159 3500 
L 1159 2956 
Q 1356 3278 1631 3431 
Q 1906 3584 2284 3584 
Q 2666 3584 2933 3390 
Q 3200 3197 3328 2828 
z
" transform="scale(0.015625)"/>
      </defs>
      <use xlink:href="#DejaVuSans-53"/>
      <use xlink:href="#DejaVuSans-63" x="63.476562"/>
      <use xlink:href="#DejaVuSans-6f" x="118.457031"/>
      <use xlink:href="#DejaVuSans-72" x="179.638672"/>
      <use xlink:href="#DejaVuSans-65" x="218.501953"/>
      <use xlink:href="#DejaVuSans-3a" x="280.025391"/>
      <use xlink:href="#DejaVuSans-20" x="313.716797"/>
      <use xlink:href="#DejaVuSans-28" x="345.503906"/>
      <use xlink:href="#DejaVuSans-78" x="384.517578"/>
      <use xlink:href="#DejaVuSans-20" x="443.697266"/>
      <use xlink:href="#DejaVuSans-72" x="475.484375"/>
      <use xlink:href="#DejaVuSans-61" x="516.597656"/>
      <use xlink:href="#DejaVuSans-6e" x="577.876953"/>
      <use xlink:href="#DejaVuSans-64" x="641.255859"/>
      <use xlink:href="#DejaVuSans-6f" x="704.732422"/>
      <use xlink:href="#DejaVuSans-6d" x="765.914062"/>
      <use xlink:href="#DejaVuSans-2c" x="863.326172"/>
      <use xlink:href="#DejaVuSans-20" x="895.113281"/>
      <use xlink:href="#DejaVuSans-79" x="926.900391"/>
      <use xlink:href="#DejaVuSans-20" x="986.080078"/>
      <use xlink:href="#DejaVuSans-72" x="1017.867188"/>
      <use xlink:href="#DejaVuSans-65" x="1056.730469"/>
      <use xlink:href="#DejaVuSans-61" x="1118.253906"/>
      <use xlink:href="#DejaVuSans-6c" x="1179.533203"/>
      <use xlink:href="#DejaVuSans-29" x="1207.316406"/>
     </g>
    </g>
   </g>
  </g>
  <g id="text_17">
   <!-- Filters applied: Subject ID=All (80), Hemisphere=All (2), Task=All (5), -->
   <g transform="translate(258.861719 7.598438) scale(0.1 -0.1)">
    <defs>
     <path id="DejaVuSans-46" d="M 628 4666 
L 3309 4666 
L 3309 4134 
L 1259 4134 
L 1259 2759 
L 3109 2759 
L 3109 2228 
L 1259 2228 
L 1259 0 
L 628 0 
L 628 4666 
z
" transform="scale(0.015625)"/>
     <path id="DejaVuSans-49" d="M 628 4666 
L 1259 4666 
L 1259 0 
L 628 0 
L 628 4666 
z
" transform="scale(0.015625)"/>
     <path id="DejaVuSans-3d" d="M 678 2906 
L 4684 2906 
L 4684 2381 
L 678 2381 
L 678 2906 
z
M 678 1631 
L 4684 1631 
L 4684 1100 
L 678 1100 
L 678 1631 
z
" transform="scale(0.015625)"/>
     <path id="DejaVuSans-48" d="M 628 4666 
L 1259 4666 
L 1259 2753 
L 3553 2753 
L 3553 4666 
L 4184 4666 
L 4184 0 
L 3553 0 
L 3553 2222 
L 1259 2222 
L 1259 0 
L 628 0 
L 628 4666 
z
" transform="scale(0.015625)"/>
     <path id="DejaVuSans-6b" d="M 581 4863 
L 1159 4863 
L 1159 1991 
L 2875 3500 
L 3609 3500 
L 1753 1863 
L 3688 0 
L 2938 0 
L 1159 1709 
L 1159 0 
L 581 0 
L 581 4863 
z
" transform="scale(0.015625)"/>
     <path id="DejaVuSans-35" d="M 691 4666 
L 3169 4666 
L 3169 4134 
L 1269 4134 
L 1269 2991 
Q 1406 3038 1543 3061 
Q 1681 3084 1819 3084 
Q 2600 3084 3056 2656 
Q 3513 2228 3513 1497 
Q 3513 744 3044 326 
Q 2575 -91 1722 -91 
Q 1428 -91 1123 -41 
Q 819 9 494 109 
L 494 744 
Q 775 591 1075 516 
Q 1375 441 1709 441 
Q 2250 441 2565 725 
Q 2881 1009 2881 1497 
Q 2881 1984 2565 2268 
Q 2250 2553 1709 2553 
Q 1456 2553 1204 2497 
Q 953 2441 691 2322 
L 691 4666 
z
" transform="scale(0.015625)"/>
    </defs>
    <use xlink:href="#DejaVuSans-46"/>
    <use xlink:href="#DejaVuSans-69" x="50.269531"/>
    <use xlink:href="#DejaVuSans-6c" x="78.052734"/>
    <use xlink:href="#DejaVuSans-74" x="105.835938"/>
    <use xlink:href="#DejaVuSans-65" x="145.044922"/>
    <use xlink:href="#DejaVuSans-72" x="206.568359"/>
    <use xlink:href="#DejaVuSans-73" x="247.681641"/>
    <use xlink:href="#DejaVuSans-20" x="299.78125"/>
    <use xlink:href="#DejaVuSans-61" x="331.568359"/>
    <use xlink:href="#DejaVuSans-70" x="392.847656"/>
    <use xlink:href="#DejaVuSans-70" x="456.324219"/>
    <use xlink:href="#DejaVuSans-6c" x="519.800781"/>
    <use xlink:href="#DejaVuSans-69" x="547.583984"/>
    <use xlink:href="#DejaVuSans-65" x="575.367188"/>
    <use xlink:href="#DejaVuSans-64" x="636.890625"/>
    <use xlink:href="#DejaVuSans-3a" x="700.367188"/>
    <use xlink:href="#DejaVuSans-20" x="734.058594"/>
    <use xlink:href="#DejaVuSans-53" x="765.845703"/>
    <use xlink:href="#DejaVuSans-75" x="829.322266"/>
    <use xlink:href="#DejaVuSans-62" x="892.701172"/>
    <use xlink:href="#DejaVuSans-6a" x="956.177734"/>
    <use xlink:href="#DejaVuSans-65" x="983.960938"/>
    <use xlink:href="#DejaVuSans-63" x="1045.484375"/>
    <use xlink:href="#DejaVuSans-74" x="1100.464844"/>
    <use xlink:href="#DejaVuSans-20" x="1139.673828"/>
    <use xlink:href="#DejaVuSans-49" x="1171.460938"/>
    <use xlink:href="#DejaVuSans-44" x="1200.953125"/>
    <use xlink:href="#DejaVuSans-3d" x="1277.955078"/>
    <use xlink:href="#DejaVuSans-41" x="1361.744141"/>
    <use xlink:href="#DejaVuSans-6c" x="1430.152344"/>
    <use xlink:href="#DejaVuSans-6c" x="1457.935547"/>
    <use xlink:href="#DejaVuSans-20" x="1485.71875"/>
    <use xlink:href="#DejaVuSans-28" x="1517.505859"/>
    <use xlink:href="#DejaVuSans-38" x="1556.519531"/>
    <use xlink:href="#DejaVuSans-30" x="1620.142578"/>
    <use xlink:href="#DejaVuSans-29" x="1683.765625"/>
    <use xlink:href="#DejaVuSans-2c" x="1722.779297"/>
    <use xlink:href="#DejaVuSans-20" x="1754.566406"/>
    <use xlink:href="#DejaVuSans-48" x="1786.353516"/>
    <use xlink:href="#DejaVuSans-65" x="1861.548828"/>
    <use xlink:href="#DejaVuSans-6d" x="1923.072266"/>
    <use xlink:href="#DejaVuSans-69" x="2020.484375"/>
    <use xlink:href="#DejaVuSans-73" x="2048.267578"/>
    <use xlink:href="#DejaVuSans-70" x="2100.367188"/>
    <use xlink:href="#DejaVuSans-68" x="2163.84375"/>
    <use xlink:href="#DejaVuSans-65" x="2227.222656"/>
    <use xlink:href="#DejaVuSans-72" x="2288.746094"/>
    <use xlink:href="#DejaVuSans-65" x="2327.609375"/>
    <use xlink:href="#DejaVuSans-3d" x="2389.132812"/>
    <use xlink:href="#DejaVuSans-41" x="2472.921875"/>
    <use xlink:href="#DejaVuSans-6c" x="2541.330078"/>
    <use xlink:href="#DejaVuSans-6c" x="2569.113281"/>
    <use xlink:href="#DejaVuSans-20" x="2596.896484"/>
    <use xlink:href="#DejaVuSans-28" x="2628.683594"/>
    <use xlink:href="#DejaVuSans-32" x="2667.697266"/>
    <use xlink:href="#DejaVuSans-29" x="2731.320312"/>
    <use xlink:href="#DejaVuSans-2c" x="2770.333984"/>
    <use xlink:href="#DejaVuSans-20" x="2802.121094"/>
    <use xlink:href="#DejaVuSans-54" x="2833.908203"/>
    <use xlink:href="#DejaVuSans-61" x="2878.492188"/>
    <use xlink:href="#DejaVuSans-73" x="2939.771484"/>
    <use xlink:href="#DejaVuSans-6b" x="2991.871094"/>
    <use xlink:href="#DejaVuSans-3d" x="3049.78125"/>
    <use xlink:href="#DejaVuSans-41" x="3133.570312"/>
    <use xlink:href="#DejaVuSans-6c" x="3201.978516"/>
    <use xlink:href="#DejaVuSans-6c" x="3229.761719"/>
    <use xlink:href="#DejaVuSans-20" x="3257.544922"/>
    <use xlink:href="#DejaVuSans-28" x="3289.332031"/>
    <use xlink:href="#DejaVuSans-35" x="3328.345703"/>
    <use xlink:href="#DejaVuSans-29" x="3391.96875"/>
    <use xlink:href="#DejaVuSans-2c" x="3430.982422"/>
   </g>
   <!-- Statistical Test=['Levenshtein Distance - Y as Truth', 'Levenshtein Distance - X -->
   <g transform="translate(236.8625 18.79625) scale(0.1 -0.1)">
    <defs>
     <path id="DejaVuSans-5b" d="M 550 4863 
L 1875 4863 
L 1875 4416 
L 1125 4416 
L 1125 -397 
L 1875 -397 
L 1875 -844 
L 550 -844 
L 550 4863 
z
" transform="scale(0.015625)"/>
     <path id="DejaVuSans-27" d="M 1147 4666 
L 1147 2931 
L 616 2931 
L 616 4666 
L 1147 4666 
z
" transform="scale(0.015625)"/>
    </defs>
    <use xlink:href="#DejaVuSans-53"/>
    <use xlink:href="#DejaVuSans-74" x="63.476562"/>
    <use xlink:href="#DejaVuSans-61" x="102.685547"/>
    <use xlink:href="#DejaVuSans-74" x="163.964844"/>
    <use xlink:href="#DejaVuSans-69" x="203.173828"/>
    <use xlink:href="#DejaVuSans-73" x="230.957031"/>
    <use xlink:href="#DejaVuSans-74" x="283.056641"/>
    <use xlink:href="#DejaVuSans-69" x="322.265625"/>
    <use xlink:href="#DejaVuSans-63" x="350.048828"/>
    <use xlink:href="#DejaVuSans-61" x="405.029297"/>
    <use xlink:href="#DejaVuSans-6c" x="466.308594"/>
    <use xlink:href="#DejaVuSans-20" x="494.091797"/>
    <use xlink:href="#DejaVuSans-54" x="525.878906"/>
    <use xlink:href="#DejaVuSans-65" x="569.962891"/>
    <use xlink:href="#DejaVuSans-73" x="631.486328"/>
    <use xlink:href="#DejaVuSans-74" x="683.585938"/>
    <use xlink:href="#DejaVuSans-3d" x="722.794922"/>
    <use xlink:href="#DejaVuSans-5b" x="806.583984"/>
    <use xlink:href="#DejaVuSans-27" x="845.597656"/>
    <use xlink:href="#DejaVuSans-4c" x="873.087891"/>
    <use xlink:href="#DejaVuSans-65" x="927.050781"/>
    <use xlink:href="#DejaVuSans-76" x="988.574219"/>
    <use xlink:href="#DejaVuSans-65" x="1047.753906"/>
    <use xlink:href="#DejaVuSans-6e" x="1109.277344"/>
    <use xlink:href="#DejaVuSans-73" x="1172.65625"/>
    <use xlink:href="#DejaVuSans-68" x="1224.755859"/>
    <use xlink:href="#DejaVuSans-74" x="1288.134766"/>
    <use xlink:href="#DejaVuSans-65" x="1327.34375"/>
    <use xlink:href="#DejaVuSans-69" x="1388.867188"/>
    <use xlink:href="#DejaVuSans-6e" x="1416.650391"/>
    <use xlink:href="#DejaVuSans-20" x="1480.029297"/>
    <use xlink:href="#DejaVuSans-44" x="1511.816406"/>
    <use xlink:href="#DejaVuSans-69" x="1588.818359"/>
    <use xlink:href="#DejaVuSans-73" x="1616.601562"/>
    <use xlink:href="#DejaVuSans-74" x="1668.701172"/>
    <use xlink:href="#DejaVuSans-61" x="1707.910156"/>
    <use xlink:href="#DejaVuSans-6e" x="1769.189453"/>
    <use xlink:href="#DejaVuSans-63" x="1832.568359"/>
    <use xlink:href="#DejaVuSans-65" x="1887.548828"/>
    <use xlink:href="#DejaVuSans-20" x="1949.072266"/>
    <use xlink:href="#DejaVuSans-2d" x="1980.859375"/>
    <use xlink:href="#DejaVuSans-20" x="2016.943359"/>
    <use xlink:href="#DejaVuSans-59" x="2048.730469"/>
    <use xlink:href="#DejaVuSans-20" x="2109.814453"/>
    <use xlink:href="#DejaVuSans-61" x="2141.601562"/>
    <use xlink:href="#DejaVuSans-73" x="2202.880859"/>
    <use xlink:href="#DejaVuSans-20" x="2254.980469"/>
    <use xlink:href="#DejaVuSans-54" x="2286.767578"/>
    <use xlink:href="#DejaVuSans-72" x="2333.101562"/>
    <use xlink:href="#DejaVuSans-75" x="2374.214844"/>
    <use xlink:href="#DejaVuSans-74" x="2437.59375"/>
    <use xlink:href="#DejaVuSans-68" x="2476.802734"/>
    <use xlink:href="#DejaVuSans-27" x="2540.181641"/>
    <use xlink:href="#DejaVuSans-2c" x="2567.671875"/>
    <use xlink:href="#DejaVuSans-20" x="2599.458984"/>
    <use xlink:href="#DejaVuSans-27" x="2631.246094"/>
    <use xlink:href="#DejaVuSans-4c" x="2658.736328"/>
    <use xlink:href="#DejaVuSans-65" x="2712.699219"/>
    <use xlink:href="#DejaVuSans-76" x="2774.222656"/>
    <use xlink:href="#DejaVuSans-65" x="2833.402344"/>
    <use xlink:href="#DejaVuSans-6e" x="2894.925781"/>
    <use xlink:href="#DejaVuSans-73" x="2958.304688"/>
    <use xlink:href="#DejaVuSans-68" x="3010.404297"/>
    <use xlink:href="#DejaVuSans-74" x="3073.783203"/>
    <use xlink:href="#DejaVuSans-65" x="3112.992188"/>
    <use xlink:href="#DejaVuSans-69" x="3174.515625"/>
    <use xlink:href="#DejaVuSans-6e" x="3202.298828"/>
    <use xlink:href="#DejaVuSans-20" x="3265.677734"/>
    <use xlink:href="#DejaVuSans-44" x="3297.464844"/>
    <use xlink:href="#DejaVuSans-69" x="3374.466797"/>
    <use xlink:href="#DejaVuSans-73" x="3402.25"/>
    <use xlink:href="#DejaVuSans-74" x="3454.349609"/>
    <use xlink:href="#DejaVuSans-61" x="3493.558594"/>
    <use xlink:href="#DejaVuSans-6e" x="3554.837891"/>
    <use xlink:href="#DejaVuSans-63" x="3618.216797"/>
    <use xlink:href="#DejaVuSans-65" x="3673.197266"/>
    <use xlink:href="#DejaVuSans-20" x="3734.720703"/>
    <use xlink:href="#DejaVuSans-2d" x="3766.507812"/>
    <use xlink:href="#DejaVuSans-20" x="3802.591797"/>
    <use xlink:href="#DejaVuSans-58" x="3834.378906"/>
   </g>
   <!-- as Truth'] -->
   <g transform="translate(408.747656 29.994063) scale(0.1 -0.1)">
    <defs>
     <path id="DejaVuSans-5d" d="M 1947 4863 
L 1947 -844 
L 622 -844 
L 622 -397 
L 1369 -397 
L 1369 4416 
L 622 4416 
L 622 4863 
L 1947 4863 
z
" transform="scale(0.015625)"/>
    </defs>
    <use xlink:href="#DejaVuSans-61"/>
    <use xlink:href="#DejaVuSans-73" x="61.279297"/>
    <use xlink:href="#DejaVuSans-20" x="113.378906"/>
    <use xlink:href="#DejaVuSans-54" x="145.166016"/>
    <use xlink:href="#DejaVuSans-72" x="191.5"/>
    <use xlink:href="#DejaVuSans-75" x="232.613281"/>
    <use xlink:href="#DejaVuSans-74" x="295.992188"/>
    <use xlink:href="#DejaVuSans-68" x="335.201172"/>
    <use xlink:href="#DejaVuSans-27" x="398.580078"/>
    <use xlink:href="#DejaVuSans-5d" x="426.070312"/>
   </g>
  </g>
 </g>
 <defs>
  <clipPath id="pa7ae728209">
   <rect x="60.86" y="89.232" width="764.86" height="572.248"/>
  </clipPath>
 </defs>
</svg>
