<?xml version="1.0" encoding="utf-8" standalone="no"?>
<!DOCTYPE svg PUBLIC "-//W3C//DTD SVG 1.1//EN"
  "http://www.w3.org/Graphics/SVG/1.1/DTD/svg11.dtd">
<svg xmlns:xlink="http://www.w3.org/1999/xlink" width="864pt" height="864pt" viewBox="0 0 864 864" xmlns="http://www.w3.org/2000/svg" version="1.1">
 <metadata>
  <rdf:RDF xmlns:dc="http://purl.org/dc/elements/1.1/" xmlns:cc="http://creativecommons.org/ns#" xmlns:rdf="http://www.w3.org/1999/02/22-rdf-syntax-ns#">
   <cc:Work>
    <dc:type rdf:resource="http://purl.org/dc/dcmitype/StillImage"/>
    <dc:date>2024-11-26T00:16:21.801339</dc:date>
    <dc:format>image/svg+xml</dc:format>
    <dc:creator>
     <cc:Agent>
      <dc:title>Matplotlib v3.9.2, https://matplotlib.org/</dc:title>
     </cc:Agent>
    </dc:creator>
   </cc:Work>
  </rdf:RDF>
 </metadata>
 <defs>
  <style type="text/css">*{stroke-linejoin: round; stroke-linecap: butt}</style>
 </defs>
 <g id="figure_1">
  <g id="patch_1">
   <path d="M 0 864 
L 864 864 
L 864 0 
L 0 0 
z
" style="fill: #ffffff"/>
  </g>
  <g id="axes_1">
   <g id="patch_2">
    <path d="M 60.77 661.48 
L 825.72 661.48 
L 825.72 89.232 
L 60.77 89.232 
z
" style="fill: #ffffff"/>
   </g>
   <g id="PolyCollection_1">
    <defs>
     <path id="m2b684fab43" d="M 229.742209 -228.531273 
L 229.713655 -228.531273 
L 229.669893 -233.786075 
L 229.604801 -239.040878 
L 229.545963 -244.29568 
L 229.529743 -249.550483 
L 229.560992 -254.805286 
L 229.600728 -260.060088 
L 229.602312 -265.314891 
L 229.548987 -270.569693 
L 229.450436 -275.824496 
L 229.313372 -281.079298 
L 229.126572 -286.334101 
L 228.871012 -291.588904 
L 228.534132 -296.843706 
L 228.122928 -302.098509 
L 227.671928 -307.353311 
L 227.210632 -312.608114 
L 226.710749 -317.862916 
L 226.103628 -323.117719 
L 225.351027 -328.372522 
L 224.457045 -333.627324 
L 223.443149 -338.882127 
L 222.382277 -344.136929 
L 221.430776 -349.391732 
L 220.752582 -354.646534 
L 220.398325 -359.901337 
L 220.267976 -365.15614 
L 220.179635 -370.410942 
L 219.977906 -375.665745 
L 219.599142 -380.920547 
L 219.043664 -386.17535 
L 218.301773 -391.430152 
L 217.330148 -396.684955 
L 216.080138 -401.939758 
L 214.525164 -407.19456 
L 212.687798 -412.449363 
L 210.633488 -417.704165 
L 208.400752 -422.958968 
L 205.969929 -428.21377 
L 203.281696 -433.468573 
L 200.176148 -438.723376 
L 196.343234 -443.978178 
L 191.472644 -449.232981 
L 185.478471 -454.487783 
L 178.567708 -459.742586 
L 171.191724 -464.997388 
L 163.973284 -470.252191 
L 157.448438 -475.506994 
L 151.647347 -480.761796 
L 146.092198 -486.016599 
L 140.480812 -491.271401 
L 135.373326 -496.526204 
L 132.140933 -501.781006 
L 132.249622 -507.035809 
L 136.548976 -512.290612 
L 144.998753 -517.545414 
L 156.650762 -522.800217 
L 169.868612 -528.055019 
L 183.025828 -533.309822 
L 195.126909 -538.564624 
L 205.636772 -543.819427 
L 214.058786 -549.07423 
L 220.062838 -554.329032 
L 223.834875 -559.583835 
L 226.006084 -564.838637 
L 227.246538 -570.09344 
L 227.982928 -575.348242 
L 228.421557 -580.603045 
L 228.699656 -585.857848 
L 228.939992 -591.11265 
L 229.196855 -596.367453 
L 229.435742 -601.622255 
L 229.599659 -606.877058 
L 229.672261 -612.13186 
L 229.676944 -617.386663 
L 229.648934 -622.641466 
L 229.616882 -627.896268 
L 229.590458 -633.151071 
L 229.561304 -638.405873 
L 229.527519 -643.660676 
L 229.507266 -648.915478 
L 229.510245 -654.170281 
L 229.511388 -659.425084 
L 229.481571 -664.679886 
L 229.43731 -669.934689 
L 229.430765 -675.189491 
L 229.488106 -680.444294 
L 229.580414 -685.699096 
L 229.658197 -690.953899 
L 229.6934 -696.208702 
L 229.684878 -701.463504 
L 229.644479 -706.718307 
L 229.588001 -711.973109 
L 229.531492 -717.227912 
L 229.492353 -722.482714 
L 229.490773 -727.737517 
L 229.535866 -732.99232 
L 229.608923 -738.247122 
L 229.675969 -743.501925 
L 229.717193 -748.756727 
L 229.742209 -748.756727 
L 229.742209 -748.756727 
L 229.742209 -743.501925 
L 229.742209 -738.247122 
L 229.742209 -732.99232 
L 229.742209 -727.737517 
L 229.742209 -722.482714 
L 229.742209 -717.227912 
L 229.742209 -711.973109 
L 229.742209 -706.718307 
L 229.742209 -701.463504 
L 229.742209 -696.208702 
L 229.742209 -690.953899 
L 229.742209 -685.699096 
L 229.742209 -680.444294 
L 229.742209 -675.189491 
L 229.742209 -669.934689 
L 229.742209 -664.679886 
L 229.742209 -659.425084 
L 229.742209 -654.170281 
L 229.742209 -648.915478 
L 229.742209 -643.660676 
L 229.742209 -638.405873 
L 229.742209 -633.151071 
L 229.742209 -627.896268 
L 229.742209 -622.641466 
L 229.742209 -617.386663 
L 229.742209 -612.13186 
L 229.742209 -606.877058 
L 229.742209 -601.622255 
L 229.742209 -596.367453 
L 229.742209 -591.11265 
L 229.742209 -585.857848 
L 229.742209 -580.603045 
L 229.742209 -575.348242 
L 229.742209 -570.09344 
L 229.742209 -564.838637 
L 229.742209 -559.583835 
L 229.742209 -554.329032 
L 229.742209 -549.07423 
L 229.742209 -543.819427 
L 229.742209 -538.564624 
L 229.742209 -533.309822 
L 229.742209 -528.055019 
L 229.742209 -522.800217 
L 229.742209 -517.545414 
L 229.742209 -512.290612 
L 229.742209 -507.035809 
L 229.742209 -501.781006 
L 229.742209 -496.526204 
L 229.742209 -491.271401 
L 229.742209 -486.016599 
L 229.742209 -480.761796 
L 229.742209 -475.506994 
L 229.742209 -470.252191 
L 229.742209 -464.997388 
L 229.742209 -459.742586 
L 229.742209 -454.487783 
L 229.742209 -449.232981 
L 229.742209 -443.978178 
L 229.742209 -438.723376 
L 229.742209 -433.468573 
L 229.742209 -428.21377 
L 229.742209 -422.958968 
L 229.742209 -417.704165 
L 229.742209 -412.449363 
L 229.742209 -407.19456 
L 229.742209 -401.939758 
L 229.742209 -396.684955 
L 229.742209 -391.430152 
L 229.742209 -386.17535 
L 229.742209 -380.920547 
L 229.742209 -375.665745 
L 229.742209 -370.410942 
L 229.742209 -365.15614 
L 229.742209 -359.901337 
L 229.742209 -354.646534 
L 229.742209 -349.391732 
L 229.742209 -344.136929 
L 229.742209 -338.882127 
L 229.742209 -333.627324 
L 229.742209 -328.372522 
L 229.742209 -323.117719 
L 229.742209 -317.862916 
L 229.742209 -312.608114 
L 229.742209 -307.353311 
L 229.742209 -302.098509 
L 229.742209 -296.843706 
L 229.742209 -291.588904 
L 229.742209 -286.334101 
L 229.742209 -281.079298 
L 229.742209 -275.824496 
L 229.742209 -270.569693 
L 229.742209 -265.314891 
L 229.742209 -260.060088 
L 229.742209 -254.805286 
L 229.742209 -249.550483 
L 229.742209 -244.29568 
L 229.742209 -239.040878 
L 229.742209 -233.786075 
L 229.742209 -228.531273 
z
" style="stroke: #3d3d3d; stroke-width: 1.25"/>
    </defs>
    <g clip-path="url(#p148d85120b)">
     <use xlink:href="#m2b684fab43" x="0" y="864" style="fill: #3274a1; stroke: #3d3d3d; stroke-width: 1.25"/>
    </g>
   </g>
   <g id="PolyCollection_2">
    <defs>
     <path id="mac9e44c09d" d="M 229.773812 -270.829756 
L 229.742209 -270.829756 
L 229.742209 -275.605501 
L 229.742209 -280.381245 
L 229.742209 -285.15699 
L 229.742209 -289.932735 
L 229.742209 -294.708479 
L 229.742209 -299.484224 
L 229.742209 -304.259969 
L 229.742209 -309.035713 
L 229.742209 -313.811458 
L 229.742209 -318.587203 
L 229.742209 -323.362947 
L 229.742209 -328.138692 
L 229.742209 -332.914437 
L 229.742209 -337.690181 
L 229.742209 -342.465926 
L 229.742209 -347.241671 
L 229.742209 -352.017415 
L 229.742209 -356.79316 
L 229.742209 -361.568905 
L 229.742209 -366.344649 
L 229.742209 -371.120394 
L 229.742209 -375.896138 
L 229.742209 -380.671883 
L 229.742209 -385.447628 
L 229.742209 -390.223372 
L 229.742209 -394.999117 
L 229.742209 -399.774862 
L 229.742209 -404.550606 
L 229.742209 -409.326351 
L 229.742209 -414.102096 
L 229.742209 -418.87784 
L 229.742209 -423.653585 
L 229.742209 -428.42933 
L 229.742209 -433.205074 
L 229.742209 -437.980819 
L 229.742209 -442.756564 
L 229.742209 -447.532308 
L 229.742209 -452.308053 
L 229.742209 -457.083798 
L 229.742209 -461.859542 
L 229.742209 -466.635287 
L 229.742209 -471.411032 
L 229.742209 -476.186776 
L 229.742209 -480.962521 
L 229.742209 -485.738265 
L 229.742209 -490.51401 
L 229.742209 -495.289755 
L 229.742209 -500.065499 
L 229.742209 -504.841244 
L 229.742209 -509.616989 
L 229.742209 -514.392733 
L 229.742209 -519.168478 
L 229.742209 -523.944223 
L 229.742209 -528.719967 
L 229.742209 -533.495712 
L 229.742209 -538.271457 
L 229.742209 -543.047201 
L 229.742209 -547.822946 
L 229.742209 -552.598691 
L 229.742209 -557.374435 
L 229.742209 -562.15018 
L 229.742209 -566.925925 
L 229.742209 -571.701669 
L 229.742209 -576.477414 
L 229.742209 -581.253158 
L 229.742209 -586.028903 
L 229.742209 -590.804648 
L 229.742209 -595.580392 
L 229.742209 -600.356137 
L 229.742209 -605.131882 
L 229.742209 -609.907626 
L 229.742209 -614.683371 
L 229.742209 -619.459116 
L 229.742209 -624.23486 
L 229.742209 -629.010605 
L 229.742209 -633.78635 
L 229.742209 -638.562094 
L 229.742209 -643.337839 
L 229.742209 -648.113584 
L 229.742209 -652.889328 
L 229.742209 -657.665073 
L 229.742209 -662.440818 
L 229.742209 -667.216562 
L 229.742209 -671.992307 
L 229.742209 -676.768051 
L 229.742209 -681.543796 
L 229.742209 -686.319541 
L 229.742209 -691.095285 
L 229.742209 -695.87103 
L 229.742209 -700.646775 
L 229.742209 -705.422519 
L 229.742209 -710.198264 
L 229.742209 -714.974009 
L 229.742209 -719.749753 
L 229.742209 -724.525498 
L 229.742209 -729.301243 
L 229.742209 -734.076987 
L 229.742209 -738.852732 
L 229.742209 -743.628477 
L 229.773163 -743.628477 
L 229.773163 -743.628477 
L 229.841008 -738.852732 
L 229.948697 -734.076987 
L 230.030923 -729.301243 
L 230.030729 -724.525498 
L 229.980739 -719.749753 
L 229.928819 -714.974009 
L 229.871584 -710.198264 
L 229.814529 -705.422519 
L 229.792374 -700.646775 
L 229.824137 -695.87103 
L 229.892858 -691.095285 
L 229.963012 -686.319541 
L 230.018092 -681.543796 
L 230.060552 -676.768051 
L 230.078612 -671.992307 
L 230.053121 -667.216562 
L 229.995661 -662.440818 
L 229.954475 -657.665073 
L 229.963385 -652.889328 
L 230.010725 -648.113584 
L 230.058008 -643.337839 
L 230.048321 -638.562094 
L 229.958194 -633.78635 
L 229.845749 -629.010605 
L 229.774961 -624.23486 
L 229.749102 -619.459116 
L 229.744666 -614.683371 
L 229.753936 -609.907626 
L 229.800301 -605.131882 
L 229.936488 -600.356137 
L 230.186274 -595.580392 
L 230.463504 -590.804648 
L 230.645599 -586.028903 
L 230.756768 -581.253158 
L 230.954315 -576.477414 
L 231.329007 -571.701669 
L 231.844705 -566.925925 
L 232.577915 -562.15018 
L 234.010461 -557.374435 
L 236.937933 -552.598691 
L 241.988131 -547.822946 
L 249.138069 -543.047201 
L 257.700964 -538.271457 
L 267.27528 -533.495712 
L 278.292791 -528.719967 
L 290.47923 -523.944223 
L 302.020262 -519.168478 
L 311.551371 -514.392733 
L 319.143555 -509.616989 
L 324.646946 -504.841244 
L 327.228424 -500.065499 
L 327.0561 -495.289755 
L 325.808239 -490.51401 
L 324.961439 -485.738265 
L 324.047607 -480.962521 
L 321.056693 -476.186776 
L 314.895769 -471.411032 
L 306.830479 -466.635287 
L 298.789415 -461.859542 
L 291.295731 -457.083798 
L 283.836316 -452.308053 
L 276.28398 -447.532308 
L 269.41566 -442.756564 
L 263.907859 -437.980819 
L 259.193168 -433.205074 
L 254.270348 -428.42933 
L 249.333578 -423.653585 
L 245.467164 -418.87784 
L 243.028924 -414.102096 
L 241.398739 -409.326351 
L 239.899038 -404.550606 
L 238.225847 -399.774862 
L 236.426813 -394.999117 
L 234.809689 -390.223372 
L 233.654088 -385.447628 
L 232.9759 -380.671883 
L 232.605325 -375.896138 
L 232.285506 -371.120394 
L 231.784715 -366.344649 
L 231.162858 -361.568905 
L 230.713589 -356.79316 
L 230.542882 -352.017415 
L 230.454701 -347.241671 
L 230.287978 -342.465926 
L 230.109464 -337.690181 
L 230.021793 -332.914437 
L 230.017444 -328.138692 
L 230.036711 -323.362947 
L 230.019753 -318.587203 
L 229.942931 -313.811458 
L 229.847081 -309.035713 
L 229.789872 -304.259969 
L 229.79874 -299.484224 
L 229.875516 -294.708479 
L 229.978046 -289.932735 
L 230.015276 -285.15699 
L 229.947384 -280.381245 
L 229.842198 -275.605501 
L 229.773812 -270.829756 
z
" style="stroke: #3d3d3d; stroke-width: 1.25"/>
    </defs>
    <g clip-path="url(#p148d85120b)">
     <use xlink:href="#mac9e44c09d" x="0" y="864" style="fill: #e1812c; stroke: #3d3d3d; stroke-width: 1.25"/>
    </g>
   </g>
   <g id="PolyCollection_3">
    <defs>
     <path id="m6732b340c1" d="M 424.944761 -269.76961 
L 424.91295 -269.76961 
L 424.843755 -274.555836 
L 424.737433 -279.342062 
L 424.669615 -284.128288 
L 424.708382 -288.914514 
L 424.810958 -293.700741 
L 424.882789 -298.486967 
L 424.882659 -303.273193 
L 424.824695 -308.059419 
L 424.746848 -312.845645 
L 424.681995 -317.631871 
L 424.640649 -322.418097 
L 424.623208 -327.204323 
L 424.606769 -331.990549 
L 424.54551 -336.776776 
L 424.441939 -341.563002 
L 424.350708 -346.349228 
L 424.249537 -351.135454 
L 423.975021 -355.92168 
L 423.420839 -360.707906 
L 422.798211 -365.494132 
L 422.42714 -370.280358 
L 422.273341 -375.066584 
L 422.004663 -379.85281 
L 421.366816 -384.639037 
L 420.281144 -389.425263 
L 418.759512 -394.211489 
L 416.963492 -398.997715 
L 415.162075 -403.783941 
L 413.460553 -408.570167 
L 411.740912 -413.356393 
L 409.618493 -418.142619 
L 406.395123 -422.928845 
L 401.783817 -427.715072 
L 396.53764 -432.501298 
L 391.489701 -437.287524 
L 386.373221 -442.07375 
L 380.273584 -446.859976 
L 372.898268 -451.646202 
L 364.90303 -456.432428 
L 356.956964 -461.218654 
L 348.835603 -466.00488 
L 340.390579 -470.791107 
L 333.204243 -475.577333 
L 329.195949 -480.363559 
L 328.05631 -485.149785 
L 327.916288 -489.936011 
L 327.555709 -494.722237 
L 327.343485 -499.508463 
L 328.878854 -504.294689 
L 333.283803 -509.080915 
L 340.404727 -513.867141 
L 350.104258 -518.653368 
L 362.184202 -523.439594 
L 374.956488 -528.22582 
L 386.328441 -533.012046 
L 396.019142 -537.798272 
L 404.683748 -542.584498 
L 412.004504 -547.370724 
L 417.239196 -552.15695 
L 420.337286 -556.943176 
L 421.900042 -561.729403 
L 422.712108 -566.515629 
L 423.279005 -571.301855 
L 423.692434 -576.088081 
L 423.912567 -580.874307 
L 424.026539 -585.660533 
L 424.201285 -590.446759 
L 424.477365 -595.232985 
L 424.735643 -600.019211 
L 424.880885 -604.805437 
L 424.93168 -609.591664 
L 424.942662 -614.37789 
L 424.941614 -619.164116 
L 424.927197 -623.950342 
L 424.877521 -628.736568 
L 424.775153 -633.522794 
L 424.656686 -638.30902 
L 424.599734 -643.095246 
L 424.627586 -647.881472 
L 424.687175 -652.667699 
L 424.717995 -657.453925 
L 424.698133 -662.240151 
L 424.641023 -667.026377 
L 424.574542 -671.812603 
L 424.548044 -676.598829 
L 424.609802 -681.385055 
L 424.738126 -686.171281 
L 424.855052 -690.957507 
L 424.913711 -695.743734 
L 424.917413 -700.52996 
L 424.879213 -705.316186 
L 424.816921 -710.102412 
L 424.758184 -714.888638 
L 424.705858 -719.674864 
L 424.65505 -724.46109 
L 424.653715 -729.247316 
L 424.736096 -734.033542 
L 424.844961 -738.819768 
L 424.913606 -743.605995 
L 424.944761 -743.605995 
L 424.944761 -743.605995 
L 424.944761 -738.819768 
L 424.944761 -734.033542 
L 424.944761 -729.247316 
L 424.944761 -724.46109 
L 424.944761 -719.674864 
L 424.944761 -714.888638 
L 424.944761 -710.102412 
L 424.944761 -705.316186 
L 424.944761 -700.52996 
L 424.944761 -695.743734 
L 424.944761 -690.957507 
L 424.944761 -686.171281 
L 424.944761 -681.385055 
L 424.944761 -676.598829 
L 424.944761 -671.812603 
L 424.944761 -667.026377 
L 424.944761 -662.240151 
L 424.944761 -657.453925 
L 424.944761 -652.667699 
L 424.944761 -647.881472 
L 424.944761 -643.095246 
L 424.944761 -638.30902 
L 424.944761 -633.522794 
L 424.944761 -628.736568 
L 424.944761 -623.950342 
L 424.944761 -619.164116 
L 424.944761 -614.37789 
L 424.944761 -609.591664 
L 424.944761 -604.805437 
L 424.944761 -600.019211 
L 424.944761 -595.232985 
L 424.944761 -590.446759 
L 424.944761 -585.660533 
L 424.944761 -580.874307 
L 424.944761 -576.088081 
L 424.944761 -571.301855 
L 424.944761 -566.515629 
L 424.944761 -561.729403 
L 424.944761 -556.943176 
L 424.944761 -552.15695 
L 424.944761 -547.370724 
L 424.944761 -542.584498 
L 424.944761 -537.798272 
L 424.944761 -533.012046 
L 424.944761 -528.22582 
L 424.944761 -523.439594 
L 424.944761 -518.653368 
L 424.944761 -513.867141 
L 424.944761 -509.080915 
L 424.944761 -504.294689 
L 424.944761 -499.508463 
L 424.944761 -494.722237 
L 424.944761 -489.936011 
L 424.944761 -485.149785 
L 424.944761 -480.363559 
L 424.944761 -475.577333 
L 424.944761 -470.791107 
L 424.944761 -466.00488 
L 424.944761 -461.218654 
L 424.944761 -456.432428 
L 424.944761 -451.646202 
L 424.944761 -446.859976 
L 424.944761 -442.07375 
L 424.944761 -437.287524 
L 424.944761 -432.501298 
L 424.944761 -427.715072 
L 424.944761 -422.928845 
L 424.944761 -418.142619 
L 424.944761 -413.356393 
L 424.944761 -408.570167 
L 424.944761 -403.783941 
L 424.944761 -398.997715 
L 424.944761 -394.211489 
L 424.944761 -389.425263 
L 424.944761 -384.639037 
L 424.944761 -379.85281 
L 424.944761 -375.066584 
L 424.944761 -370.280358 
L 424.944761 -365.494132 
L 424.944761 -360.707906 
L 424.944761 -355.92168 
L 424.944761 -351.135454 
L 424.944761 -346.349228 
L 424.944761 -341.563002 
L 424.944761 -336.776776 
L 424.944761 -331.990549 
L 424.944761 -327.204323 
L 424.944761 -322.418097 
L 424.944761 -317.631871 
L 424.944761 -312.845645 
L 424.944761 -308.059419 
L 424.944761 -303.273193 
L 424.944761 -298.486967 
L 424.944761 -293.700741 
L 424.944761 -288.914514 
L 424.944761 -284.128288 
L 424.944761 -279.342062 
L 424.944761 -274.555836 
L 424.944761 -269.76961 
z
" style="stroke: #3d3d3d; stroke-width: 1.25"/>
    </defs>
    <g clip-path="url(#p148d85120b)">
     <use xlink:href="#m6732b340c1" x="0" y="864" style="fill: #3a923a; stroke: #3d3d3d; stroke-width: 1.25"/>
    </g>
   </g>
   <g id="PolyCollection_4">
    <defs>
     <path id="m1dda866269" d="M 595.746994 -228.531273 
L 595.71844 -228.531273 
L 595.674678 -233.786075 
L 595.609586 -239.040878 
L 595.550747 -244.29568 
L 595.534528 -249.550483 
L 595.565777 -254.805286 
L 595.605513 -260.060088 
L 595.607097 -265.314891 
L 595.553772 -270.569693 
L 595.455221 -275.824496 
L 595.318156 -281.079298 
L 595.131357 -286.334101 
L 594.875797 -291.588904 
L 594.538917 -296.843706 
L 594.127713 -302.098509 
L 593.676713 -307.353311 
L 593.215416 -312.608114 
L 592.715534 -317.862916 
L 592.108413 -323.117719 
L 591.355811 -328.372522 
L 590.461829 -333.627324 
L 589.447933 -338.882127 
L 588.387061 -344.136929 
L 587.435561 -349.391732 
L 586.757367 -354.646534 
L 586.40311 -359.901337 
L 586.272761 -365.15614 
L 586.184419 -370.410942 
L 585.982691 -375.665745 
L 585.603927 -380.920547 
L 585.048449 -386.17535 
L 584.306557 -391.430152 
L 583.334932 -396.684955 
L 582.084923 -401.939758 
L 580.529949 -407.19456 
L 578.692583 -412.449363 
L 576.638272 -417.704165 
L 574.405537 -422.958968 
L 571.974714 -428.21377 
L 569.286481 -433.468573 
L 566.180933 -438.723376 
L 562.348019 -443.978178 
L 557.477428 -449.232981 
L 551.483256 -454.487783 
L 544.572492 -459.742586 
L 537.196509 -464.997388 
L 529.978069 -470.252191 
L 523.453223 -475.506994 
L 517.652131 -480.761796 
L 512.096982 -486.016599 
L 506.485597 -491.271401 
L 501.378111 -496.526204 
L 498.145718 -501.781006 
L 498.254407 -507.035809 
L 502.553761 -512.290612 
L 511.003537 -517.545414 
L 522.655547 -522.800217 
L 535.873397 -528.055019 
L 549.030613 -533.309822 
L 561.131694 -538.564624 
L 571.641557 -543.819427 
L 580.063571 -549.07423 
L 586.067623 -554.329032 
L 589.83966 -559.583835 
L 592.010869 -564.838637 
L 593.251323 -570.09344 
L 593.987713 -575.348242 
L 594.426342 -580.603045 
L 594.70444 -585.857848 
L 594.944777 -591.11265 
L 595.20164 -596.367453 
L 595.440527 -601.622255 
L 595.604444 -606.877058 
L 595.677046 -612.13186 
L 595.681728 -617.386663 
L 595.653719 -622.641466 
L 595.621667 -627.896268 
L 595.595242 -633.151071 
L 595.566088 -638.405873 
L 595.532304 -643.660676 
L 595.51205 -648.915478 
L 595.51503 -654.170281 
L 595.516173 -659.425084 
L 595.486356 -664.679886 
L 595.442094 -669.934689 
L 595.43555 -675.189491 
L 595.492891 -680.444294 
L 595.585199 -685.699096 
L 595.662982 -690.953899 
L 595.698185 -696.208702 
L 595.689663 -701.463504 
L 595.649263 -706.718307 
L 595.592785 -711.973109 
L 595.536276 -717.227912 
L 595.497138 -722.482714 
L 595.495557 -727.737517 
L 595.540651 -732.99232 
L 595.613708 -738.247122 
L 595.680754 -743.501925 
L 595.721978 -748.756727 
L 595.746994 -748.756727 
L 595.746994 -748.756727 
L 595.746994 -743.501925 
L 595.746994 -738.247122 
L 595.746994 -732.99232 
L 595.746994 -727.737517 
L 595.746994 -722.482714 
L 595.746994 -717.227912 
L 595.746994 -711.973109 
L 595.746994 -706.718307 
L 595.746994 -701.463504 
L 595.746994 -696.208702 
L 595.746994 -690.953899 
L 595.746994 -685.699096 
L 595.746994 -680.444294 
L 595.746994 -675.189491 
L 595.746994 -669.934689 
L 595.746994 -664.679886 
L 595.746994 -659.425084 
L 595.746994 -654.170281 
L 595.746994 -648.915478 
L 595.746994 -643.660676 
L 595.746994 -638.405873 
L 595.746994 -633.151071 
L 595.746994 -627.896268 
L 595.746994 -622.641466 
L 595.746994 -617.386663 
L 595.746994 -612.13186 
L 595.746994 -606.877058 
L 595.746994 -601.622255 
L 595.746994 -596.367453 
L 595.746994 -591.11265 
L 595.746994 -585.857848 
L 595.746994 -580.603045 
L 595.746994 -575.348242 
L 595.746994 -570.09344 
L 595.746994 -564.838637 
L 595.746994 -559.583835 
L 595.746994 -554.329032 
L 595.746994 -549.07423 
L 595.746994 -543.819427 
L 595.746994 -538.564624 
L 595.746994 -533.309822 
L 595.746994 -528.055019 
L 595.746994 -522.800217 
L 595.746994 -517.545414 
L 595.746994 -512.290612 
L 595.746994 -507.035809 
L 595.746994 -501.781006 
L 595.746994 -496.526204 
L 595.746994 -491.271401 
L 595.746994 -486.016599 
L 595.746994 -480.761796 
L 595.746994 -475.506994 
L 595.746994 -470.252191 
L 595.746994 -464.997388 
L 595.746994 -459.742586 
L 595.746994 -454.487783 
L 595.746994 -449.232981 
L 595.746994 -443.978178 
L 595.746994 -438.723376 
L 595.746994 -433.468573 
L 595.746994 -428.21377 
L 595.746994 -422.958968 
L 595.746994 -417.704165 
L 595.746994 -412.449363 
L 595.746994 -407.19456 
L 595.746994 -401.939758 
L 595.746994 -396.684955 
L 595.746994 -391.430152 
L 595.746994 -386.17535 
L 595.746994 -380.920547 
L 595.746994 -375.665745 
L 595.746994 -370.410942 
L 595.746994 -365.15614 
L 595.746994 -359.901337 
L 595.746994 -354.646534 
L 595.746994 -349.391732 
L 595.746994 -344.136929 
L 595.746994 -338.882127 
L 595.746994 -333.627324 
L 595.746994 -328.372522 
L 595.746994 -323.117719 
L 595.746994 -317.862916 
L 595.746994 -312.608114 
L 595.746994 -307.353311 
L 595.746994 -302.098509 
L 595.746994 -296.843706 
L 595.746994 -291.588904 
L 595.746994 -286.334101 
L 595.746994 -281.079298 
L 595.746994 -275.824496 
L 595.746994 -270.569693 
L 595.746994 -265.314891 
L 595.746994 -260.060088 
L 595.746994 -254.805286 
L 595.746994 -249.550483 
L 595.746994 -244.29568 
L 595.746994 -239.040878 
L 595.746994 -233.786075 
L 595.746994 -228.531273 
z
" style="stroke: #3d3d3d; stroke-width: 1.25"/>
    </defs>
    <g clip-path="url(#p148d85120b)">
     <use xlink:href="#m1dda866269" x="0" y="864" style="fill: #3274a1; stroke: #3d3d3d; stroke-width: 1.25"/>
    </g>
   </g>
   <g id="PolyCollection_5">
    <defs>
     <path id="mbb961b1dbb" d="M 595.766896 -265.799909 
L 595.746994 -265.799909 
L 595.746994 -270.626233 
L 595.746994 -275.452558 
L 595.746994 -280.278883 
L 595.746994 -285.105208 
L 595.746994 -289.931532 
L 595.746994 -294.757857 
L 595.746994 -299.584182 
L 595.746994 -304.410507 
L 595.746994 -309.236831 
L 595.746994 -314.063156 
L 595.746994 -318.889481 
L 595.746994 -323.715806 
L 595.746994 -328.54213 
L 595.746994 -333.368455 
L 595.746994 -338.19478 
L 595.746994 -343.021105 
L 595.746994 -347.847429 
L 595.746994 -352.673754 
L 595.746994 -357.500079 
L 595.746994 -362.326404 
L 595.746994 -367.152728 
L 595.746994 -371.979053 
L 595.746994 -376.805378 
L 595.746994 -381.631703 
L 595.746994 -386.458027 
L 595.746994 -391.284352 
L 595.746994 -396.110677 
L 595.746994 -400.937002 
L 595.746994 -405.763327 
L 595.746994 -410.589651 
L 595.746994 -415.415976 
L 595.746994 -420.242301 
L 595.746994 -425.068626 
L 595.746994 -429.89495 
L 595.746994 -434.721275 
L 595.746994 -439.5476 
L 595.746994 -444.373925 
L 595.746994 -449.200249 
L 595.746994 -454.026574 
L 595.746994 -458.852899 
L 595.746994 -463.679224 
L 595.746994 -468.505548 
L 595.746994 -473.331873 
L 595.746994 -478.158198 
L 595.746994 -482.984523 
L 595.746994 -487.810847 
L 595.746994 -492.637172 
L 595.746994 -497.463497 
L 595.746994 -502.289822 
L 595.746994 -507.116146 
L 595.746994 -511.942471 
L 595.746994 -516.768796 
L 595.746994 -521.595121 
L 595.746994 -526.421445 
L 595.746994 -531.24777 
L 595.746994 -536.074095 
L 595.746994 -540.90042 
L 595.746994 -545.726745 
L 595.746994 -550.553069 
L 595.746994 -555.379394 
L 595.746994 -560.205719 
L 595.746994 -565.032044 
L 595.746994 -569.858368 
L 595.746994 -574.684693 
L 595.746994 -579.511018 
L 595.746994 -584.337343 
L 595.746994 -589.163667 
L 595.746994 -593.989992 
L 595.746994 -598.816317 
L 595.746994 -603.642642 
L 595.746994 -608.468966 
L 595.746994 -613.295291 
L 595.746994 -618.121616 
L 595.746994 -622.947941 
L 595.746994 -627.774265 
L 595.746994 -632.60059 
L 595.746994 -637.426915 
L 595.746994 -642.25324 
L 595.746994 -647.079564 
L 595.746994 -651.905889 
L 595.746994 -656.732214 
L 595.746994 -661.558539 
L 595.746994 -666.384863 
L 595.746994 -671.211188 
L 595.746994 -676.037513 
L 595.746994 -680.863838 
L 595.746994 -685.690162 
L 595.746994 -690.516487 
L 595.746994 -695.342812 
L 595.746994 -700.169137 
L 595.746994 -704.995462 
L 595.746994 -709.821786 
L 595.746994 -714.648111 
L 595.746994 -719.474436 
L 595.746994 -724.300761 
L 595.746994 -729.127085 
L 595.746994 -733.95341 
L 595.746994 -738.779735 
L 595.746994 -743.60606 
L 595.777986 -743.60606 
L 595.777986 -743.60606 
L 595.847064 -738.779735 
L 595.956406 -733.95341 
L 596.037559 -729.127085 
L 596.033913 -724.300761 
L 595.982389 -719.474436 
L 595.929954 -714.648111 
L 595.870495 -709.821786 
L 595.809385 -704.995462 
L 595.776773 -700.169137 
L 595.791781 -695.342812 
L 595.860609 -690.516487 
L 595.964518 -685.690162 
L 596.052051 -680.863838 
L 596.090552 -676.037513 
L 596.092398 -671.211188 
L 596.066269 -666.384863 
L 596.016051 -661.558539 
L 595.979914 -656.732214 
L 595.991504 -651.905889 
L 596.036968 -647.079564 
L 596.068737 -642.25324 
L 596.031812 -637.426915 
L 595.927385 -632.60059 
L 595.824185 -627.774265 
L 595.768776 -622.947941 
L 595.751271 -618.121616 
L 595.750339 -613.295291 
L 595.766585 -608.468966 
L 595.834899 -603.642642 
L 596.010636 -598.816317 
L 596.287619 -593.989992 
L 596.545121 -589.163667 
L 596.690961 -584.337343 
L 596.815564 -579.511018 
L 597.081627 -574.684693 
L 597.526674 -569.858368 
L 598.116906 -565.032044 
L 599.075494 -560.205719 
L 601.069417 -555.379394 
L 604.901358 -550.553069 
L 610.965996 -545.726745 
L 618.861828 -540.90042 
L 627.827116 -536.074095 
L 638.038759 -531.24777 
L 650.170307 -526.421445 
L 663.159877 -521.595121 
L 674.572415 -516.768796 
L 683.225866 -511.942471 
L 689.359027 -507.116146 
L 692.799529 -502.289822 
L 693.34827 -497.463497 
L 692.300692 -492.637172 
L 691.387512 -487.810847 
L 690.767449 -482.984523 
L 688.947984 -478.158198 
L 684.251511 -473.331873 
L 676.698019 -468.505548 
L 668.165015 -463.679224 
L 659.965756 -458.852899 
L 651.817167 -454.026574 
L 643.571088 -449.200249 
L 636.307274 -444.373925 
L 630.879706 -439.5476 
L 626.316109 -434.721275 
L 621.301496 -429.89495 
L 616.196883 -425.068626 
L 612.092257 -420.242301 
L 609.204387 -415.415976 
L 607.213712 -410.589651 
L 605.8332 -405.763327 
L 604.577833 -400.937002 
L 603.019911 -396.110677 
L 601.229698 -391.284352 
L 599.654449 -386.458027 
L 598.730682 -381.631703 
L 598.432656 -376.805378 
L 598.305512 -371.979053 
L 597.998243 -367.152728 
L 597.479296 -362.326404 
L 596.943983 -357.500079 
L 596.603273 -352.673754 
L 596.435701 -347.847429 
L 596.305231 -343.021105 
L 596.19373 -338.19478 
L 596.141939 -333.368455 
L 596.130622 -328.54213 
L 596.103074 -323.715806 
L 596.032119 -318.889481 
L 595.932076 -314.063156 
L 595.839384 -309.236831 
L 595.789189 -304.410507 
L 595.796141 -299.584182 
L 595.855389 -294.757857 
L 595.936297 -289.931532 
L 595.984355 -285.105208 
L 595.962961 -280.278883 
L 595.888294 -275.452558 
L 595.811514 -270.626233 
L 595.766896 -265.799909 
z
" style="stroke: #3d3d3d; stroke-width: 1.25"/>
    </defs>
    <g clip-path="url(#p148d85120b)">
     <use xlink:href="#mbb961b1dbb" x="0" y="864" style="fill: #e1812c; stroke: #3d3d3d; stroke-width: 1.25"/>
    </g>
   </g>
   <g id="PolyCollection_6">
    <defs>
     <path id="m7d17f42278" d="M 790.949545 -268.45565 
L 790.92843 -268.45565 
L 790.880287 -273.255663 
L 790.795997 -278.055675 
L 790.715681 -282.855688 
L 790.701807 -287.6557 
L 790.765296 -292.455713 
L 790.846433 -297.255725 
L 790.878978 -302.055738 
L 790.846198 -306.85575 
L 790.779756 -311.655763 
L 790.717405 -316.455775 
L 790.669031 -321.255788 
L 790.638584 -326.0558 
L 790.620076 -330.855813 
L 790.557917 -335.655825 
L 790.420908 -340.455838 
L 790.293711 -345.25585 
L 790.242545 -350.055863 
L 790.1054 -354.855875 
L 789.621614 -359.655888 
L 788.86176 -364.4559 
L 788.280942 -369.255913 
L 788.132374 -374.055925 
L 788.089012 -378.855938 
L 787.629482 -383.65595 
L 786.507928 -388.455963 
L 784.818818 -393.255975 
L 782.929252 -398.055988 
L 781.24883 -402.856 
L 779.827385 -407.656013 
L 778.352524 -412.456025 
L 776.316995 -417.256038 
L 773.035856 -422.05605 
L 768.296529 -426.856063 
L 762.860377 -431.656075 
L 757.487727 -436.456088 
L 751.965382 -441.2561 
L 745.718975 -446.056113 
L 738.778434 -450.856125 
L 731.532371 -455.656138 
L 723.99275 -460.45615 
L 715.807374 -465.256163 
L 707.353955 -470.056175 
L 700.458692 -474.856188 
L 696.710536 -479.6562 
L 695.551799 -484.456213 
L 695.076061 -489.256225 
L 694.152953 -494.056238 
L 693.48308 -498.85625 
L 694.838546 -503.656263 
L 699.219841 -508.456275 
L 706.279284 -513.256288 
L 715.669752 -518.0563 
L 727.256539 -522.856313 
L 739.692219 -527.656325 
L 751.017342 -532.456338 
L 760.829508 -537.25635 
L 769.734922 -542.056363 
L 777.404457 -546.856375 
L 782.970392 -551.656388 
L 786.27174 -556.4564 
L 787.908433 -561.256413 
L 788.717705 -566.056425 
L 789.264632 -570.856438 
L 789.675648 -575.65645 
L 789.905813 -580.456463 
L 790.02216 -585.256475 
L 790.188225 -590.056488 
L 790.459065 -594.8565 
L 790.723396 -599.656513 
L 790.878148 -604.456525 
L 790.934389 -609.256538 
L 790.946847 -614.05655 
L 790.944721 -618.856563 
L 790.925302 -623.656575 
L 790.866335 -628.456588 
L 790.760073 -633.2566 
L 790.656146 -638.056613 
L 790.623786 -642.856625 
L 790.668152 -647.656638 
L 790.745265 -652.45665 
L 790.806035 -657.256663 
L 790.793025 -662.056675 
L 790.683718 -666.856688 
L 790.54885 -671.6567 
L 790.497767 -676.456713 
L 790.56339 -681.256725 
L 790.693086 -686.056738 
L 790.818505 -690.85675 
L 790.89623 -695.656763 
L 790.915021 -700.456775 
L 790.882998 -705.256788 
L 790.82218 -710.0568 
L 790.763371 -714.856813 
L 790.710807 -719.656825 
L 790.660271 -724.456838 
L 790.659337 -729.25685 
L 790.74163 -734.056863 
L 790.8501 -738.856875 
L 790.91848 -743.656888 
L 790.949545 -743.656888 
L 790.949545 -743.656888 
L 790.949545 -738.856875 
L 790.949545 -734.056863 
L 790.949545 -729.25685 
L 790.949545 -724.456838 
L 790.949545 -719.656825 
L 790.949545 -714.856813 
L 790.949545 -710.0568 
L 790.949545 -705.256788 
L 790.949545 -700.456775 
L 790.949545 -695.656763 
L 790.949545 -690.85675 
L 790.949545 -686.056738 
L 790.949545 -681.256725 
L 790.949545 -676.456713 
L 790.949545 -671.6567 
L 790.949545 -666.856688 
L 790.949545 -662.056675 
L 790.949545 -657.256663 
L 790.949545 -652.45665 
L 790.949545 -647.656638 
L 790.949545 -642.856625 
L 790.949545 -638.056613 
L 790.949545 -633.2566 
L 790.949545 -628.456588 
L 790.949545 -623.656575 
L 790.949545 -618.856563 
L 790.949545 -614.05655 
L 790.949545 -609.256538 
L 790.949545 -604.456525 
L 790.949545 -599.656513 
L 790.949545 -594.8565 
L 790.949545 -590.056488 
L 790.949545 -585.256475 
L 790.949545 -580.456463 
L 790.949545 -575.65645 
L 790.949545 -570.856438 
L 790.949545 -566.056425 
L 790.949545 -561.256413 
L 790.949545 -556.4564 
L 790.949545 -551.656388 
L 790.949545 -546.856375 
L 790.949545 -542.056363 
L 790.949545 -537.25635 
L 790.949545 -532.456338 
L 790.949545 -527.656325 
L 790.949545 -522.856313 
L 790.949545 -518.0563 
L 790.949545 -513.256288 
L 790.949545 -508.456275 
L 790.949545 -503.656263 
L 790.949545 -498.85625 
L 790.949545 -494.056238 
L 790.949545 -489.256225 
L 790.949545 -484.456213 
L 790.949545 -479.6562 
L 790.949545 -474.856188 
L 790.949545 -470.056175 
L 790.949545 -465.256163 
L 790.949545 -460.45615 
L 790.949545 -455.656138 
L 790.949545 -450.856125 
L 790.949545 -446.056113 
L 790.949545 -441.2561 
L 790.949545 -436.456088 
L 790.949545 -431.656075 
L 790.949545 -426.856063 
L 790.949545 -422.05605 
L 790.949545 -417.256038 
L 790.949545 -412.456025 
L 790.949545 -407.656013 
L 790.949545 -402.856 
L 790.949545 -398.055988 
L 790.949545 -393.255975 
L 790.949545 -388.455963 
L 790.949545 -383.65595 
L 790.949545 -378.855938 
L 790.949545 -374.055925 
L 790.949545 -369.255913 
L 790.949545 -364.4559 
L 790.949545 -359.655888 
L 790.949545 -354.855875 
L 790.949545 -350.055863 
L 790.949545 -345.25585 
L 790.949545 -340.455838 
L 790.949545 -335.655825 
L 790.949545 -330.855813 
L 790.949545 -326.0558 
L 790.949545 -321.255788 
L 790.949545 -316.455775 
L 790.949545 -311.655763 
L 790.949545 -306.85575 
L 790.949545 -302.055738 
L 790.949545 -297.255725 
L 790.949545 -292.455713 
L 790.949545 -287.6557 
L 790.949545 -282.855688 
L 790.949545 -278.055675 
L 790.949545 -273.255663 
L 790.949545 -268.45565 
z
" style="stroke: #3d3d3d; stroke-width: 1.25"/>
    </defs>
    <g clip-path="url(#p148d85120b)">
     <use xlink:href="#m7d17f42278" x="0" y="864" style="fill: #3a923a; stroke: #3d3d3d; stroke-width: 1.25"/>
    </g>
   </g>
   <g id="patch_3">
    <path d="M 278.542847 667.846036 
L 278.542847 667.846036 
L 278.542847 667.846036 
L 278.542847 667.846036 
z
" clip-path="url(#p148d85120b)" style="fill: #3274a1; stroke: #3d3d3d; stroke-width: 1.25; stroke-linejoin: miter"/>
   </g>
   <g id="patch_4">
    <path d="M 278.542847 667.846036 
L 278.542847 667.846036 
L 278.542847 667.846036 
L 278.542847 667.846036 
z
" clip-path="url(#p148d85120b)" style="fill: #e1812c; stroke: #3d3d3d; stroke-width: 1.25; stroke-linejoin: miter"/>
   </g>
   <g id="patch_5">
    <path d="M 278.542847 667.846036 
L 278.542847 667.846036 
L 278.542847 667.846036 
L 278.542847 667.846036 
z
" clip-path="url(#p148d85120b)" style="fill: #3a923a; stroke: #3d3d3d; stroke-width: 1.25; stroke-linejoin: miter"/>
   </g>
   <g id="patch_6">
    <path d="M 95.540455 661.48 
L 461.545239 661.48 
L 461.545239 89.232 
L 95.540455 89.232 
z
" clip-path="url(#p148d85120b)" style="fill: #808080; opacity: 0.1; stroke: #808080; stroke-linejoin: miter"/>
   </g>
   <g id="matplotlib.axis_1">
    <g id="xtick_1">
     <g id="line2d_1">
      <defs>
       <path id="me263a7c2fc" d="M 0 0 
L 0 3.5 
" style="stroke: #000000; stroke-width: 0.8"/>
      </defs>
      <g>
       <use xlink:href="#me263a7c2fc" x="278.542847" y="661.48" style="stroke: #000000; stroke-width: 0.8"/>
      </g>
     </g>
     <g id="text_1">
      <!-- Levenshtein Distance - X as Truth -->
      <g transform="translate(281.302222 835.925313) rotate(-90) scale(0.1 -0.1)">
       <defs>
        <path id="DejaVuSans-4c" d="M 628 4666 
L 1259 4666 
L 1259 531 
L 3531 531 
L 3531 0 
L 628 0 
L 628 4666 
z
" transform="scale(0.015625)"/>
        <path id="DejaVuSans-65" d="M 3597 1894 
L 3597 1613 
L 953 1613 
Q 991 1019 1311 708 
Q 1631 397 2203 397 
Q 2534 397 2845 478 
Q 3156 559 3463 722 
L 3463 178 
Q 3153 47 2828 -22 
Q 2503 -91 2169 -91 
Q 1331 -91 842 396 
Q 353 884 353 1716 
Q 353 2575 817 3079 
Q 1281 3584 2069 3584 
Q 2775 3584 3186 3129 
Q 3597 2675 3597 1894 
z
M 3022 2063 
Q 3016 2534 2758 2815 
Q 2500 3097 2075 3097 
Q 1594 3097 1305 2825 
Q 1016 2553 972 2059 
L 3022 2063 
z
" transform="scale(0.015625)"/>
        <path id="DejaVuSans-76" d="M 191 3500 
L 800 3500 
L 1894 563 
L 2988 3500 
L 3597 3500 
L 2284 0 
L 1503 0 
L 191 3500 
z
" transform="scale(0.015625)"/>
        <path id="DejaVuSans-6e" d="M 3513 2113 
L 3513 0 
L 2938 0 
L 2938 2094 
Q 2938 2591 2744 2837 
Q 2550 3084 2163 3084 
Q 1697 3084 1428 2787 
Q 1159 2491 1159 1978 
L 1159 0 
L 581 0 
L 581 3500 
L 1159 3500 
L 1159 2956 
Q 1366 3272 1645 3428 
Q 1925 3584 2291 3584 
Q 2894 3584 3203 3211 
Q 3513 2838 3513 2113 
z
" transform="scale(0.015625)"/>
        <path id="DejaVuSans-73" d="M 2834 3397 
L 2834 2853 
Q 2591 2978 2328 3040 
Q 2066 3103 1784 3103 
Q 1356 3103 1142 2972 
Q 928 2841 928 2578 
Q 928 2378 1081 2264 
Q 1234 2150 1697 2047 
L 1894 2003 
Q 2506 1872 2764 1633 
Q 3022 1394 3022 966 
Q 3022 478 2636 193 
Q 2250 -91 1575 -91 
Q 1294 -91 989 -36 
Q 684 19 347 128 
L 347 722 
Q 666 556 975 473 
Q 1284 391 1588 391 
Q 1994 391 2212 530 
Q 2431 669 2431 922 
Q 2431 1156 2273 1281 
Q 2116 1406 1581 1522 
L 1381 1569 
Q 847 1681 609 1914 
Q 372 2147 372 2553 
Q 372 3047 722 3315 
Q 1072 3584 1716 3584 
Q 2034 3584 2315 3537 
Q 2597 3491 2834 3397 
z
" transform="scale(0.015625)"/>
        <path id="DejaVuSans-68" d="M 3513 2113 
L 3513 0 
L 2938 0 
L 2938 2094 
Q 2938 2591 2744 2837 
Q 2550 3084 2163 3084 
Q 1697 3084 1428 2787 
Q 1159 2491 1159 1978 
L 1159 0 
L 581 0 
L 581 4863 
L 1159 4863 
L 1159 2956 
Q 1366 3272 1645 3428 
Q 1925 3584 2291 3584 
Q 2894 3584 3203 3211 
Q 3513 2838 3513 2113 
z
" transform="scale(0.015625)"/>
        <path id="DejaVuSans-74" d="M 1172 4494 
L 1172 3500 
L 2356 3500 
L 2356 3053 
L 1172 3053 
L 1172 1153 
Q 1172 725 1289 603 
Q 1406 481 1766 481 
L 2356 481 
L 2356 0 
L 1766 0 
Q 1100 0 847 248 
Q 594 497 594 1153 
L 594 3053 
L 172 3053 
L 172 3500 
L 594 3500 
L 594 4494 
L 1172 4494 
z
" transform="scale(0.015625)"/>
        <path id="DejaVuSans-69" d="M 603 3500 
L 1178 3500 
L 1178 0 
L 603 0 
L 603 3500 
z
M 603 4863 
L 1178 4863 
L 1178 4134 
L 603 4134 
L 603 4863 
z
" transform="scale(0.015625)"/>
        <path id="DejaVuSans-20" transform="scale(0.015625)"/>
        <path id="DejaVuSans-44" d="M 1259 4147 
L 1259 519 
L 2022 519 
Q 2988 519 3436 956 
Q 3884 1394 3884 2338 
Q 3884 3275 3436 3711 
Q 2988 4147 2022 4147 
L 1259 4147 
z
M 628 4666 
L 1925 4666 
Q 3281 4666 3915 4102 
Q 4550 3538 4550 2338 
Q 4550 1131 3912 565 
Q 3275 0 1925 0 
L 628 0 
L 628 4666 
z
" transform="scale(0.015625)"/>
        <path id="DejaVuSans-61" d="M 2194 1759 
Q 1497 1759 1228 1600 
Q 959 1441 959 1056 
Q 959 750 1161 570 
Q 1363 391 1709 391 
Q 2188 391 2477 730 
Q 2766 1069 2766 1631 
L 2766 1759 
L 2194 1759 
z
M 3341 1997 
L 3341 0 
L 2766 0 
L 2766 531 
Q 2569 213 2275 61 
Q 1981 -91 1556 -91 
Q 1019 -91 701 211 
Q 384 513 384 1019 
Q 384 1609 779 1909 
Q 1175 2209 1959 2209 
L 2766 2209 
L 2766 2266 
Q 2766 2663 2505 2880 
Q 2244 3097 1772 3097 
Q 1472 3097 1187 3025 
Q 903 2953 641 2809 
L 641 3341 
Q 956 3463 1253 3523 
Q 1550 3584 1831 3584 
Q 2591 3584 2966 3190 
Q 3341 2797 3341 1997 
z
" transform="scale(0.015625)"/>
        <path id="DejaVuSans-63" d="M 3122 3366 
L 3122 2828 
Q 2878 2963 2633 3030 
Q 2388 3097 2138 3097 
Q 1578 3097 1268 2742 
Q 959 2388 959 1747 
Q 959 1106 1268 751 
Q 1578 397 2138 397 
Q 2388 397 2633 464 
Q 2878 531 3122 666 
L 3122 134 
Q 2881 22 2623 -34 
Q 2366 -91 2075 -91 
Q 1284 -91 818 406 
Q 353 903 353 1747 
Q 353 2603 823 3093 
Q 1294 3584 2113 3584 
Q 2378 3584 2631 3529 
Q 2884 3475 3122 3366 
z
" transform="scale(0.015625)"/>
        <path id="DejaVuSans-2d" d="M 313 2009 
L 1997 2009 
L 1997 1497 
L 313 1497 
L 313 2009 
z
" transform="scale(0.015625)"/>
        <path id="DejaVuSans-58" d="M 403 4666 
L 1081 4666 
L 2241 2931 
L 3406 4666 
L 4084 4666 
L 2584 2425 
L 4184 0 
L 3506 0 
L 2194 1984 
L 872 0 
L 191 0 
L 1856 2491 
L 403 4666 
z
" transform="scale(0.015625)"/>
        <path id="DejaVuSans-54" d="M -19 4666 
L 3928 4666 
L 3928 4134 
L 2272 4134 
L 2272 0 
L 1638 0 
L 1638 4134 
L -19 4134 
L -19 4666 
z
" transform="scale(0.015625)"/>
        <path id="DejaVuSans-72" d="M 2631 2963 
Q 2534 3019 2420 3045 
Q 2306 3072 2169 3072 
Q 1681 3072 1420 2755 
Q 1159 2438 1159 1844 
L 1159 0 
L 581 0 
L 581 3500 
L 1159 3500 
L 1159 2956 
Q 1341 3275 1631 3429 
Q 1922 3584 2338 3584 
Q 2397 3584 2469 3576 
Q 2541 3569 2628 3553 
L 2631 2963 
z
" transform="scale(0.015625)"/>
        <path id="DejaVuSans-75" d="M 544 1381 
L 544 3500 
L 1119 3500 
L 1119 1403 
Q 1119 906 1312 657 
Q 1506 409 1894 409 
Q 2359 409 2629 706 
Q 2900 1003 2900 1516 
L 2900 3500 
L 3475 3500 
L 3475 0 
L 2900 0 
L 2900 538 
Q 2691 219 2414 64 
Q 2138 -91 1772 -91 
Q 1169 -91 856 284 
Q 544 659 544 1381 
z
M 1991 3584 
L 1991 3584 
z
" transform="scale(0.015625)"/>
       </defs>
       <use xlink:href="#DejaVuSans-4c"/>
       <use xlink:href="#DejaVuSans-65" x="53.962891"/>
       <use xlink:href="#DejaVuSans-76" x="115.486328"/>
       <use xlink:href="#DejaVuSans-65" x="174.666016"/>
       <use xlink:href="#DejaVuSans-6e" x="236.189453"/>
       <use xlink:href="#DejaVuSans-73" x="299.568359"/>
       <use xlink:href="#DejaVuSans-68" x="351.667969"/>
       <use xlink:href="#DejaVuSans-74" x="415.046875"/>
       <use xlink:href="#DejaVuSans-65" x="454.255859"/>
       <use xlink:href="#DejaVuSans-69" x="515.779297"/>
       <use xlink:href="#DejaVuSans-6e" x="543.5625"/>
       <use xlink:href="#DejaVuSans-20" x="606.941406"/>
       <use xlink:href="#DejaVuSans-44" x="638.728516"/>
       <use xlink:href="#DejaVuSans-69" x="715.730469"/>
       <use xlink:href="#DejaVuSans-73" x="743.513672"/>
       <use xlink:href="#DejaVuSans-74" x="795.613281"/>
       <use xlink:href="#DejaVuSans-61" x="834.822266"/>
       <use xlink:href="#DejaVuSans-6e" x="896.101562"/>
       <use xlink:href="#DejaVuSans-63" x="959.480469"/>
       <use xlink:href="#DejaVuSans-65" x="1014.460938"/>
       <use xlink:href="#DejaVuSans-20" x="1075.984375"/>
       <use xlink:href="#DejaVuSans-2d" x="1107.771484"/>
       <use xlink:href="#DejaVuSans-20" x="1143.855469"/>
       <use xlink:href="#DejaVuSans-58" x="1175.642578"/>
       <use xlink:href="#DejaVuSans-20" x="1244.148438"/>
       <use xlink:href="#DejaVuSans-61" x="1275.935547"/>
       <use xlink:href="#DejaVuSans-73" x="1337.214844"/>
       <use xlink:href="#DejaVuSans-20" x="1389.314453"/>
       <use xlink:href="#DejaVuSans-54" x="1421.101562"/>
       <use xlink:href="#DejaVuSans-72" x="1467.435547"/>
       <use xlink:href="#DejaVuSans-75" x="1508.548828"/>
       <use xlink:href="#DejaVuSans-74" x="1571.927734"/>
       <use xlink:href="#DejaVuSans-68" x="1611.136719"/>
      </g>
     </g>
    </g>
    <g id="xtick_2">
     <g id="line2d_2">
      <g>
       <use xlink:href="#me263a7c2fc" x="644.547632" y="661.48" style="stroke: #000000; stroke-width: 0.8"/>
      </g>
     </g>
     <g id="text_2">
      <!-- Levenshtein Distance - Y as Truth -->
      <g transform="translate(647.307007 835.183125) rotate(-90) scale(0.1 -0.1)">
       <defs>
        <path id="DejaVuSans-59" d="M -13 4666 
L 666 4666 
L 1959 2747 
L 3244 4666 
L 3922 4666 
L 2272 2222 
L 2272 0 
L 1638 0 
L 1638 2222 
L -13 4666 
z
" transform="scale(0.015625)"/>
       </defs>
       <use xlink:href="#DejaVuSans-4c"/>
       <use xlink:href="#DejaVuSans-65" x="53.962891"/>
       <use xlink:href="#DejaVuSans-76" x="115.486328"/>
       <use xlink:href="#DejaVuSans-65" x="174.666016"/>
       <use xlink:href="#DejaVuSans-6e" x="236.189453"/>
       <use xlink:href="#DejaVuSans-73" x="299.568359"/>
       <use xlink:href="#DejaVuSans-68" x="351.667969"/>
       <use xlink:href="#DejaVuSans-74" x="415.046875"/>
       <use xlink:href="#DejaVuSans-65" x="454.255859"/>
       <use xlink:href="#DejaVuSans-69" x="515.779297"/>
       <use xlink:href="#DejaVuSans-6e" x="543.5625"/>
       <use xlink:href="#DejaVuSans-20" x="606.941406"/>
       <use xlink:href="#DejaVuSans-44" x="638.728516"/>
       <use xlink:href="#DejaVuSans-69" x="715.730469"/>
       <use xlink:href="#DejaVuSans-73" x="743.513672"/>
       <use xlink:href="#DejaVuSans-74" x="795.613281"/>
       <use xlink:href="#DejaVuSans-61" x="834.822266"/>
       <use xlink:href="#DejaVuSans-6e" x="896.101562"/>
       <use xlink:href="#DejaVuSans-63" x="959.480469"/>
       <use xlink:href="#DejaVuSans-65" x="1014.460938"/>
       <use xlink:href="#DejaVuSans-20" x="1075.984375"/>
       <use xlink:href="#DejaVuSans-2d" x="1107.771484"/>
       <use xlink:href="#DejaVuSans-20" x="1143.855469"/>
       <use xlink:href="#DejaVuSans-59" x="1175.642578"/>
       <use xlink:href="#DejaVuSans-20" x="1236.726562"/>
       <use xlink:href="#DejaVuSans-61" x="1268.513672"/>
       <use xlink:href="#DejaVuSans-73" x="1329.792969"/>
       <use xlink:href="#DejaVuSans-20" x="1381.892578"/>
       <use xlink:href="#DejaVuSans-54" x="1413.679688"/>
       <use xlink:href="#DejaVuSans-72" x="1460.013672"/>
       <use xlink:href="#DejaVuSans-75" x="1501.126953"/>
       <use xlink:href="#DejaVuSans-74" x="1564.505859"/>
       <use xlink:href="#DejaVuSans-68" x="1603.714844"/>
      </g>
     </g>
    </g>
    <g id="text_3">
     <!-- Statistical Test -->
     <g transform="translate(392.651406 850.563125) scale(0.14 -0.14)">
      <defs>
       <path id="DejaVuSans-53" d="M 3425 4513 
L 3425 3897 
Q 3066 4069 2747 4153 
Q 2428 4238 2131 4238 
Q 1616 4238 1336 4038 
Q 1056 3838 1056 3469 
Q 1056 3159 1242 3001 
Q 1428 2844 1947 2747 
L 2328 2669 
Q 3034 2534 3370 2195 
Q 3706 1856 3706 1288 
Q 3706 609 3251 259 
Q 2797 -91 1919 -91 
Q 1588 -91 1214 -16 
Q 841 59 441 206 
L 441 856 
Q 825 641 1194 531 
Q 1563 422 1919 422 
Q 2459 422 2753 634 
Q 3047 847 3047 1241 
Q 3047 1584 2836 1778 
Q 2625 1972 2144 2069 
L 1759 2144 
Q 1053 2284 737 2584 
Q 422 2884 422 3419 
Q 422 4038 858 4394 
Q 1294 4750 2059 4750 
Q 2388 4750 2728 4690 
Q 3069 4631 3425 4513 
z
" transform="scale(0.015625)"/>
       <path id="DejaVuSans-6c" d="M 603 4863 
L 1178 4863 
L 1178 0 
L 603 0 
L 603 4863 
z
" transform="scale(0.015625)"/>
      </defs>
      <use xlink:href="#DejaVuSans-53"/>
      <use xlink:href="#DejaVuSans-74" x="63.476562"/>
      <use xlink:href="#DejaVuSans-61" x="102.685547"/>
      <use xlink:href="#DejaVuSans-74" x="163.964844"/>
      <use xlink:href="#DejaVuSans-69" x="203.173828"/>
      <use xlink:href="#DejaVuSans-73" x="230.957031"/>
      <use xlink:href="#DejaVuSans-74" x="283.056641"/>
      <use xlink:href="#DejaVuSans-69" x="322.265625"/>
      <use xlink:href="#DejaVuSans-63" x="350.048828"/>
      <use xlink:href="#DejaVuSans-61" x="405.029297"/>
      <use xlink:href="#DejaVuSans-6c" x="466.308594"/>
      <use xlink:href="#DejaVuSans-20" x="494.091797"/>
      <use xlink:href="#DejaVuSans-54" x="525.878906"/>
      <use xlink:href="#DejaVuSans-65" x="569.962891"/>
      <use xlink:href="#DejaVuSans-73" x="631.486328"/>
      <use xlink:href="#DejaVuSans-74" x="683.585938"/>
     </g>
    </g>
   </g>
   <g id="matplotlib.axis_2">
    <g id="ytick_1">
     <g id="line2d_3">
      <defs>
       <path id="mbc0711f07b" d="M 0 0 
L -3.5 0 
" style="stroke: #000000; stroke-width: 0.8"/>
      </defs>
      <g>
       <use xlink:href="#mbc0711f07b" x="60.77" y="577.627024" style="stroke: #000000; stroke-width: 0.8"/>
      </g>
     </g>
     <g id="text_4">
      <!-- 500 -->
      <g transform="translate(34.6825 581.426243) scale(0.1 -0.1)">
       <defs>
        <path id="DejaVuSans-35" d="M 691 4666 
L 3169 4666 
L 3169 4134 
L 1269 4134 
L 1269 2991 
Q 1406 3038 1543 3061 
Q 1681 3084 1819 3084 
Q 2600 3084 3056 2656 
Q 3513 2228 3513 1497 
Q 3513 744 3044 326 
Q 2575 -91 1722 -91 
Q 1428 -91 1123 -41 
Q 819 9 494 109 
L 494 744 
Q 775 591 1075 516 
Q 1375 441 1709 441 
Q 2250 441 2565 725 
Q 2881 1009 2881 1497 
Q 2881 1984 2565 2268 
Q 2250 2553 1709 2553 
Q 1456 2553 1204 2497 
Q 953 2441 691 2322 
L 691 4666 
z
" transform="scale(0.015625)"/>
        <path id="DejaVuSans-30" d="M 2034 4250 
Q 1547 4250 1301 3770 
Q 1056 3291 1056 2328 
Q 1056 1369 1301 889 
Q 1547 409 2034 409 
Q 2525 409 2770 889 
Q 3016 1369 3016 2328 
Q 3016 3291 2770 3770 
Q 2525 4250 2034 4250 
z
M 2034 4750 
Q 2819 4750 3233 4129 
Q 3647 3509 3647 2328 
Q 3647 1150 3233 529 
Q 2819 -91 2034 -91 
Q 1250 -91 836 529 
Q 422 1150 422 2328 
Q 422 3509 836 4129 
Q 1250 4750 2034 4750 
z
" transform="scale(0.015625)"/>
       </defs>
       <use xlink:href="#DejaVuSans-35"/>
       <use xlink:href="#DejaVuSans-30" x="63.623047"/>
       <use xlink:href="#DejaVuSans-30" x="127.246094"/>
      </g>
     </g>
    </g>
    <g id="ytick_2">
     <g id="line2d_4">
      <g>
       <use xlink:href="#mbc0711f07b" x="60.77" y="487.408012" style="stroke: #000000; stroke-width: 0.8"/>
      </g>
     </g>
     <g id="text_5">
      <!-- 1000 -->
      <g transform="translate(28.32 491.207231) scale(0.1 -0.1)">
       <defs>
        <path id="DejaVuSans-31" d="M 794 531 
L 1825 531 
L 1825 4091 
L 703 3866 
L 703 4441 
L 1819 4666 
L 2450 4666 
L 2450 531 
L 3481 531 
L 3481 0 
L 794 0 
L 794 531 
z
" transform="scale(0.015625)"/>
       </defs>
       <use xlink:href="#DejaVuSans-31"/>
       <use xlink:href="#DejaVuSans-30" x="63.623047"/>
       <use xlink:href="#DejaVuSans-30" x="127.246094"/>
       <use xlink:href="#DejaVuSans-30" x="190.869141"/>
      </g>
     </g>
    </g>
    <g id="ytick_3">
     <g id="line2d_5">
      <g>
       <use xlink:href="#mbc0711f07b" x="60.77" y="397.189001" style="stroke: #000000; stroke-width: 0.8"/>
      </g>
     </g>
     <g id="text_6">
      <!-- 1500 -->
      <g transform="translate(28.32 400.98822) scale(0.1 -0.1)">
       <use xlink:href="#DejaVuSans-31"/>
       <use xlink:href="#DejaVuSans-35" x="63.623047"/>
       <use xlink:href="#DejaVuSans-30" x="127.246094"/>
       <use xlink:href="#DejaVuSans-30" x="190.869141"/>
      </g>
     </g>
    </g>
    <g id="ytick_4">
     <g id="line2d_6">
      <g>
       <use xlink:href="#mbc0711f07b" x="60.77" y="306.969989" style="stroke: #000000; stroke-width: 0.8"/>
      </g>
     </g>
     <g id="text_7">
      <!-- 2000 -->
      <g transform="translate(28.32 310.769208) scale(0.1 -0.1)">
       <defs>
        <path id="DejaVuSans-32" d="M 1228 531 
L 3431 531 
L 3431 0 
L 469 0 
L 469 531 
Q 828 903 1448 1529 
Q 2069 2156 2228 2338 
Q 2531 2678 2651 2914 
Q 2772 3150 2772 3378 
Q 2772 3750 2511 3984 
Q 2250 4219 1831 4219 
Q 1534 4219 1204 4116 
Q 875 4013 500 3803 
L 500 4441 
Q 881 4594 1212 4672 
Q 1544 4750 1819 4750 
Q 2544 4750 2975 4387 
Q 3406 4025 3406 3419 
Q 3406 3131 3298 2873 
Q 3191 2616 2906 2266 
Q 2828 2175 2409 1742 
Q 1991 1309 1228 531 
z
" transform="scale(0.015625)"/>
       </defs>
       <use xlink:href="#DejaVuSans-32"/>
       <use xlink:href="#DejaVuSans-30" x="63.623047"/>
       <use xlink:href="#DejaVuSans-30" x="127.246094"/>
       <use xlink:href="#DejaVuSans-30" x="190.869141"/>
      </g>
     </g>
    </g>
    <g id="ytick_5">
     <g id="line2d_7">
      <g>
       <use xlink:href="#mbc0711f07b" x="60.77" y="216.750978" style="stroke: #000000; stroke-width: 0.8"/>
      </g>
     </g>
     <g id="text_8">
      <!-- 2500 -->
      <g transform="translate(28.32 220.550196) scale(0.1 -0.1)">
       <use xlink:href="#DejaVuSans-32"/>
       <use xlink:href="#DejaVuSans-35" x="63.623047"/>
       <use xlink:href="#DejaVuSans-30" x="127.246094"/>
       <use xlink:href="#DejaVuSans-30" x="190.869141"/>
      </g>
     </g>
    </g>
    <g id="ytick_6">
     <g id="line2d_8">
      <g>
       <use xlink:href="#mbc0711f07b" x="60.77" y="126.531966" style="stroke: #000000; stroke-width: 0.8"/>
      </g>
     </g>
     <g id="text_9">
      <!-- 3000 -->
      <g transform="translate(28.32 130.331185) scale(0.1 -0.1)">
       <defs>
        <path id="DejaVuSans-33" d="M 2597 2516 
Q 3050 2419 3304 2112 
Q 3559 1806 3559 1356 
Q 3559 666 3084 287 
Q 2609 -91 1734 -91 
Q 1441 -91 1130 -33 
Q 819 25 488 141 
L 488 750 
Q 750 597 1062 519 
Q 1375 441 1716 441 
Q 2309 441 2620 675 
Q 2931 909 2931 1356 
Q 2931 1769 2642 2001 
Q 2353 2234 1838 2234 
L 1294 2234 
L 1294 2753 
L 1863 2753 
Q 2328 2753 2575 2939 
Q 2822 3125 2822 3475 
Q 2822 3834 2567 4026 
Q 2313 4219 1838 4219 
Q 1578 4219 1281 4162 
Q 984 4106 628 3988 
L 628 4550 
Q 988 4650 1302 4700 
Q 1616 4750 1894 4750 
Q 2613 4750 3031 4423 
Q 3450 4097 3450 3541 
Q 3450 3153 3228 2886 
Q 3006 2619 2597 2516 
z
" transform="scale(0.015625)"/>
       </defs>
       <use xlink:href="#DejaVuSans-33"/>
       <use xlink:href="#DejaVuSans-30" x="63.623047"/>
       <use xlink:href="#DejaVuSans-30" x="127.246094"/>
       <use xlink:href="#DejaVuSans-30" x="190.869141"/>
      </g>
     </g>
    </g>
    <g id="text_10">
     <!-- Score -->
     <g transform="translate(21.408437 394.959281) rotate(-90) scale(0.14 -0.14)">
      <defs>
       <path id="DejaVuSans-6f" d="M 1959 3097 
Q 1497 3097 1228 2736 
Q 959 2375 959 1747 
Q 959 1119 1226 758 
Q 1494 397 1959 397 
Q 2419 397 2687 759 
Q 2956 1122 2956 1747 
Q 2956 2369 2687 2733 
Q 2419 3097 1959 3097 
z
M 1959 3584 
Q 2709 3584 3137 3096 
Q 3566 2609 3566 1747 
Q 3566 888 3137 398 
Q 2709 -91 1959 -91 
Q 1206 -91 779 398 
Q 353 888 353 1747 
Q 353 2609 779 3096 
Q 1206 3584 1959 3584 
z
" transform="scale(0.015625)"/>
      </defs>
      <use xlink:href="#DejaVuSans-53"/>
      <use xlink:href="#DejaVuSans-63" x="63.476562"/>
      <use xlink:href="#DejaVuSans-6f" x="118.457031"/>
      <use xlink:href="#DejaVuSans-72" x="179.638672"/>
      <use xlink:href="#DejaVuSans-65" x="218.501953"/>
     </g>
    </g>
   </g>
   <g id="line2d_9">
    <path d="M 226.929709 485.062318 
L 226.929709 274.852021 
" clip-path="url(#p148d85120b)" style="fill: none; stroke: #3d3d3d; stroke-width: 1.875; stroke-linecap: square"/>
   </g>
   <g id="line2d_10">
    <path d="M 226.929709 405.714697 
L 226.929709 352.440371 
" clip-path="url(#p148d85120b)" style="fill: none; stroke: #3d3d3d; stroke-width: 5.625; stroke-linecap: square"/>
   </g>
   <g id="line2d_11">
    <path d="M 226.929709 374.183153 
" clip-path="url(#p148d85120b)" style="fill: none; stroke: #3d3d3d; stroke-width: 1.5; stroke-linecap: square"/>
    <defs>
     <path id="mfb1989bed6" d="M 2.34375 0 
L -2.34375 -0 
" style="stroke: #ffffff; stroke-width: 1.125"/>
    </defs>
    <g clip-path="url(#p148d85120b)">
     <use xlink:href="#mfb1989bed6" x="226.929709" y="374.183153" style="fill: #ffffff; stroke: #ffffff; stroke-width: 1.125"/>
    </g>
   </g>
   <g id="line2d_12">
    <path d="M 232.554709 469.544648 
L 232.554709 289.287063 
" clip-path="url(#p148d85120b)" style="fill: none; stroke: #3d3d3d; stroke-width: 1.875; stroke-linecap: square"/>
   </g>
   <g id="line2d_13">
    <path d="M 232.554709 401.158637 
L 232.554709 355.507817 
" clip-path="url(#p148d85120b)" style="fill: none; stroke: #3d3d3d; stroke-width: 5.625; stroke-linecap: square"/>
   </g>
   <g id="line2d_14">
    <path d="M 232.554709 377.16038 
" clip-path="url(#p148d85120b)" style="fill: none; stroke: #3d3d3d; stroke-width: 1.5; stroke-linecap: square"/>
    <g clip-path="url(#p148d85120b)">
     <use xlink:href="#mfb1989bed6" x="232.554709" y="377.16038" style="fill: #ffffff; stroke: #ffffff; stroke-width: 1.125"/>
    </g>
   </g>
   <g id="line2d_15">
    <path d="M 422.132261 468.46202 
L 422.132261 289.287063 
" clip-path="url(#p148d85120b)" style="fill: none; stroke: #3d3d3d; stroke-width: 1.875; stroke-linecap: square"/>
   </g>
   <g id="line2d_16">
    <path d="M 422.132261 400.662433 
L 422.132261 355.327379 
" clip-path="url(#p148d85120b)" style="fill: none; stroke: #3d3d3d; stroke-width: 5.625; stroke-linecap: square"/>
   </g>
   <g id="line2d_17">
    <path d="M 422.132261 376.889723 
" clip-path="url(#p148d85120b)" style="fill: none; stroke: #3d3d3d; stroke-width: 1.5; stroke-linecap: square"/>
    <g clip-path="url(#p148d85120b)">
     <use xlink:href="#mfb1989bed6" x="422.132261" y="376.889723" style="fill: #ffffff; stroke: #ffffff; stroke-width: 1.125"/>
    </g>
   </g>
   <g id="line2d_18">
    <path d="M 592.934494 485.062318 
L 592.934494 274.852021 
" clip-path="url(#p148d85120b)" style="fill: none; stroke: #3d3d3d; stroke-width: 1.875; stroke-linecap: square"/>
   </g>
   <g id="line2d_19">
    <path d="M 592.934494 405.714697 
L 592.934494 352.440371 
" clip-path="url(#p148d85120b)" style="fill: none; stroke: #3d3d3d; stroke-width: 5.625; stroke-linecap: square"/>
   </g>
   <g id="line2d_20">
    <path d="M 592.934494 374.183153 
" clip-path="url(#p148d85120b)" style="fill: none; stroke: #3d3d3d; stroke-width: 1.5; stroke-linecap: square"/>
    <g clip-path="url(#p148d85120b)">
     <use xlink:href="#mfb1989bed6" x="592.934494" y="374.183153" style="fill: #ffffff; stroke: #ffffff; stroke-width: 1.125"/>
    </g>
   </g>
   <g id="line2d_21">
    <path d="M 598.559494 469.544648 
L 598.559494 289.287063 
" clip-path="url(#p148d85120b)" style="fill: none; stroke: #3d3d3d; stroke-width: 1.875; stroke-linecap: square"/>
   </g>
   <g id="line2d_22">
    <path d="M 598.559494 400.978199 
L 598.559494 355.146941 
" clip-path="url(#p148d85120b)" style="fill: none; stroke: #3d3d3d; stroke-width: 5.625; stroke-linecap: square"/>
   </g>
   <g id="line2d_23">
    <path d="M 598.559494 376.979942 
" clip-path="url(#p148d85120b)" style="fill: none; stroke: #3d3d3d; stroke-width: 1.5; stroke-linecap: square"/>
    <g clip-path="url(#p148d85120b)">
     <use xlink:href="#mfb1989bed6" x="598.559494" y="376.979942" style="fill: #ffffff; stroke: #ffffff; stroke-width: 1.125"/>
    </g>
   </g>
   <g id="line2d_24">
    <path d="M 788.137045 468.281582 
L 788.137045 289.287063 
" clip-path="url(#p148d85120b)" style="fill: none; stroke: #3d3d3d; stroke-width: 1.875; stroke-linecap: square"/>
   </g>
   <g id="line2d_25">
    <path d="M 788.137045 401.158637 
L 788.137045 355.507817 
" clip-path="url(#p148d85120b)" style="fill: none; stroke: #3d3d3d; stroke-width: 5.625; stroke-linecap: square"/>
   </g>
   <g id="line2d_26">
    <path d="M 788.137045 377.431037 
" clip-path="url(#p148d85120b)" style="fill: none; stroke: #3d3d3d; stroke-width: 1.5; stroke-linecap: square"/>
    <g clip-path="url(#p148d85120b)">
     <use xlink:href="#mfb1989bed6" x="788.137045" y="377.431037" style="fill: #ffffff; stroke: #ffffff; stroke-width: 1.125"/>
    </g>
   </g>
   <g id="patch_7">
    <path d="M 60.77 661.48 
L 60.77 89.232 
" style="fill: none; stroke: #000000; stroke-width: 0.8; stroke-linejoin: miter; stroke-linecap: square"/>
   </g>
   <g id="patch_8">
    <path d="M 825.72 661.48 
L 825.72 89.232 
" style="fill: none; stroke: #000000; stroke-width: 0.8; stroke-linejoin: miter; stroke-linecap: square"/>
   </g>
   <g id="patch_9">
    <path d="M 60.77 661.48 
L 825.72 661.48 
" style="fill: none; stroke: #000000; stroke-width: 0.8; stroke-linejoin: miter; stroke-linecap: square"/>
   </g>
   <g id="patch_10">
    <path d="M 60.77 89.232 
L 825.72 89.232 
" style="fill: none; stroke: #000000; stroke-width: 0.8; stroke-linejoin: miter; stroke-linecap: square"/>
   </g>
   <g id="text_11">
    <!-- Violinplot of Scores Grouped by Statistical Test  -->
    <g transform="translate(254.4625 65.3155) scale(0.16 -0.16)">
     <defs>
      <path id="DejaVuSans-56" d="M 1831 0 
L 50 4666 
L 709 4666 
L 2188 738 
L 3669 4666 
L 4325 4666 
L 2547 0 
L 1831 0 
z
" transform="scale(0.015625)"/>
      <path id="DejaVuSans-70" d="M 1159 525 
L 1159 -1331 
L 581 -1331 
L 581 3500 
L 1159 3500 
L 1159 2969 
Q 1341 3281 1617 3432 
Q 1894 3584 2278 3584 
Q 2916 3584 3314 3078 
Q 3713 2572 3713 1747 
Q 3713 922 3314 415 
Q 2916 -91 2278 -91 
Q 1894 -91 1617 61 
Q 1341 213 1159 525 
z
M 3116 1747 
Q 3116 2381 2855 2742 
Q 2594 3103 2138 3103 
Q 1681 3103 1420 2742 
Q 1159 2381 1159 1747 
Q 1159 1113 1420 752 
Q 1681 391 2138 391 
Q 2594 391 2855 752 
Q 3116 1113 3116 1747 
z
" transform="scale(0.015625)"/>
      <path id="DejaVuSans-66" d="M 2375 4863 
L 2375 4384 
L 1825 4384 
Q 1516 4384 1395 4259 
Q 1275 4134 1275 3809 
L 1275 3500 
L 2222 3500 
L 2222 3053 
L 1275 3053 
L 1275 0 
L 697 0 
L 697 3053 
L 147 3053 
L 147 3500 
L 697 3500 
L 697 3744 
Q 697 4328 969 4595 
Q 1241 4863 1831 4863 
L 2375 4863 
z
" transform="scale(0.015625)"/>
      <path id="DejaVuSans-47" d="M 3809 666 
L 3809 1919 
L 2778 1919 
L 2778 2438 
L 4434 2438 
L 4434 434 
Q 4069 175 3628 42 
Q 3188 -91 2688 -91 
Q 1594 -91 976 548 
Q 359 1188 359 2328 
Q 359 3472 976 4111 
Q 1594 4750 2688 4750 
Q 3144 4750 3555 4637 
Q 3966 4525 4313 4306 
L 4313 3634 
Q 3963 3931 3569 4081 
Q 3175 4231 2741 4231 
Q 1884 4231 1454 3753 
Q 1025 3275 1025 2328 
Q 1025 1384 1454 906 
Q 1884 428 2741 428 
Q 3075 428 3337 486 
Q 3600 544 3809 666 
z
" transform="scale(0.015625)"/>
      <path id="DejaVuSans-64" d="M 2906 2969 
L 2906 4863 
L 3481 4863 
L 3481 0 
L 2906 0 
L 2906 525 
Q 2725 213 2448 61 
Q 2172 -91 1784 -91 
Q 1150 -91 751 415 
Q 353 922 353 1747 
Q 353 2572 751 3078 
Q 1150 3584 1784 3584 
Q 2172 3584 2448 3432 
Q 2725 3281 2906 2969 
z
M 947 1747 
Q 947 1113 1208 752 
Q 1469 391 1925 391 
Q 2381 391 2643 752 
Q 2906 1113 2906 1747 
Q 2906 2381 2643 2742 
Q 2381 3103 1925 3103 
Q 1469 3103 1208 2742 
Q 947 2381 947 1747 
z
" transform="scale(0.015625)"/>
      <path id="DejaVuSans-62" d="M 3116 1747 
Q 3116 2381 2855 2742 
Q 2594 3103 2138 3103 
Q 1681 3103 1420 2742 
Q 1159 2381 1159 1747 
Q 1159 1113 1420 752 
Q 1681 391 2138 391 
Q 2594 391 2855 752 
Q 3116 1113 3116 1747 
z
M 1159 2969 
Q 1341 3281 1617 3432 
Q 1894 3584 2278 3584 
Q 2916 3584 3314 3078 
Q 3713 2572 3713 1747 
Q 3713 922 3314 415 
Q 2916 -91 2278 -91 
Q 1894 -91 1617 61 
Q 1341 213 1159 525 
L 1159 0 
L 581 0 
L 581 4863 
L 1159 4863 
L 1159 2969 
z
" transform="scale(0.015625)"/>
      <path id="DejaVuSans-79" d="M 2059 -325 
Q 1816 -950 1584 -1140 
Q 1353 -1331 966 -1331 
L 506 -1331 
L 506 -850 
L 844 -850 
Q 1081 -850 1212 -737 
Q 1344 -625 1503 -206 
L 1606 56 
L 191 3500 
L 800 3500 
L 1894 763 
L 2988 3500 
L 3597 3500 
L 2059 -325 
z
" transform="scale(0.015625)"/>
     </defs>
     <use xlink:href="#DejaVuSans-56"/>
     <use xlink:href="#DejaVuSans-69" x="66.158203"/>
     <use xlink:href="#DejaVuSans-6f" x="93.941406"/>
     <use xlink:href="#DejaVuSans-6c" x="155.123047"/>
     <use xlink:href="#DejaVuSans-69" x="182.90625"/>
     <use xlink:href="#DejaVuSans-6e" x="210.689453"/>
     <use xlink:href="#DejaVuSans-70" x="274.068359"/>
     <use xlink:href="#DejaVuSans-6c" x="337.544922"/>
     <use xlink:href="#DejaVuSans-6f" x="365.328125"/>
     <use xlink:href="#DejaVuSans-74" x="426.509766"/>
     <use xlink:href="#DejaVuSans-20" x="465.71875"/>
     <use xlink:href="#DejaVuSans-6f" x="497.505859"/>
     <use xlink:href="#DejaVuSans-66" x="558.6875"/>
     <use xlink:href="#DejaVuSans-20" x="593.892578"/>
     <use xlink:href="#DejaVuSans-53" x="625.679688"/>
     <use xlink:href="#DejaVuSans-63" x="689.15625"/>
     <use xlink:href="#DejaVuSans-6f" x="744.136719"/>
     <use xlink:href="#DejaVuSans-72" x="805.318359"/>
     <use xlink:href="#DejaVuSans-65" x="844.181641"/>
     <use xlink:href="#DejaVuSans-73" x="905.705078"/>
     <use xlink:href="#DejaVuSans-20" x="957.804688"/>
     <use xlink:href="#DejaVuSans-47" x="989.591797"/>
     <use xlink:href="#DejaVuSans-72" x="1067.082031"/>
     <use xlink:href="#DejaVuSans-6f" x="1105.945312"/>
     <use xlink:href="#DejaVuSans-75" x="1167.126953"/>
     <use xlink:href="#DejaVuSans-70" x="1230.505859"/>
     <use xlink:href="#DejaVuSans-65" x="1293.982422"/>
     <use xlink:href="#DejaVuSans-64" x="1355.505859"/>
     <use xlink:href="#DejaVuSans-20" x="1418.982422"/>
     <use xlink:href="#DejaVuSans-62" x="1450.769531"/>
     <use xlink:href="#DejaVuSans-79" x="1514.246094"/>
     <use xlink:href="#DejaVuSans-20" x="1573.425781"/>
     <use xlink:href="#DejaVuSans-53" x="1605.212891"/>
     <use xlink:href="#DejaVuSans-74" x="1668.689453"/>
     <use xlink:href="#DejaVuSans-61" x="1707.898438"/>
     <use xlink:href="#DejaVuSans-74" x="1769.177734"/>
     <use xlink:href="#DejaVuSans-69" x="1808.386719"/>
     <use xlink:href="#DejaVuSans-73" x="1836.169922"/>
     <use xlink:href="#DejaVuSans-74" x="1888.269531"/>
     <use xlink:href="#DejaVuSans-69" x="1927.478516"/>
     <use xlink:href="#DejaVuSans-63" x="1955.261719"/>
     <use xlink:href="#DejaVuSans-61" x="2010.242188"/>
     <use xlink:href="#DejaVuSans-6c" x="2071.521484"/>
     <use xlink:href="#DejaVuSans-20" x="2099.304688"/>
     <use xlink:href="#DejaVuSans-54" x="2131.091797"/>
     <use xlink:href="#DejaVuSans-65" x="2175.175781"/>
     <use xlink:href="#DejaVuSans-73" x="2236.699219"/>
     <use xlink:href="#DejaVuSans-74" x="2288.798828"/>
     <use xlink:href="#DejaVuSans-20" x="2328.007812"/>
    </g>
    <!-- Across all subjects -->
    <g transform="translate(369.57875 83.232) scale(0.16 -0.16)">
     <defs>
      <path id="DejaVuSans-41" d="M 2188 4044 
L 1331 1722 
L 3047 1722 
L 2188 4044 
z
M 1831 4666 
L 2547 4666 
L 4325 0 
L 3669 0 
L 3244 1197 
L 1141 1197 
L 716 0 
L 50 0 
L 1831 4666 
z
" transform="scale(0.015625)"/>
      <path id="DejaVuSans-6a" d="M 603 3500 
L 1178 3500 
L 1178 -63 
Q 1178 -731 923 -1031 
Q 669 -1331 103 -1331 
L -116 -1331 
L -116 -844 
L 38 -844 
Q 366 -844 484 -692 
Q 603 -541 603 -63 
L 603 3500 
z
M 603 4863 
L 1178 4863 
L 1178 4134 
L 603 4134 
L 603 4863 
z
" transform="scale(0.015625)"/>
     </defs>
     <use xlink:href="#DejaVuSans-41"/>
     <use xlink:href="#DejaVuSans-63" x="66.658203"/>
     <use xlink:href="#DejaVuSans-72" x="121.638672"/>
     <use xlink:href="#DejaVuSans-6f" x="160.501953"/>
     <use xlink:href="#DejaVuSans-73" x="221.683594"/>
     <use xlink:href="#DejaVuSans-73" x="273.783203"/>
     <use xlink:href="#DejaVuSans-20" x="325.882812"/>
     <use xlink:href="#DejaVuSans-61" x="357.669922"/>
     <use xlink:href="#DejaVuSans-6c" x="418.949219"/>
     <use xlink:href="#DejaVuSans-6c" x="446.732422"/>
     <use xlink:href="#DejaVuSans-20" x="474.515625"/>
     <use xlink:href="#DejaVuSans-73" x="506.302734"/>
     <use xlink:href="#DejaVuSans-75" x="558.402344"/>
     <use xlink:href="#DejaVuSans-62" x="621.78125"/>
     <use xlink:href="#DejaVuSans-6a" x="685.257812"/>
     <use xlink:href="#DejaVuSans-65" x="713.041016"/>
     <use xlink:href="#DejaVuSans-63" x="774.564453"/>
     <use xlink:href="#DejaVuSans-74" x="829.544922"/>
     <use xlink:href="#DejaVuSans-73" x="868.753906"/>
    </g>
   </g>
   <g id="legend_1">
    <g id="patch_11">
     <path d="M 667.60625 167.351375 
L 855.5675 167.351375 
Q 857.9675 167.351375 857.9675 164.951375 
L 857.9675 97.632 
Q 857.9675 95.232 855.5675 95.232 
L 667.60625 95.232 
Q 665.20625 95.232 665.20625 97.632 
L 665.20625 164.951375 
Q 665.20625 167.351375 667.60625 167.351375 
z
" style="fill: #ffffff; opacity: 0.8; stroke: #cccccc; stroke-linejoin: miter"/>
    </g>
    <g id="text_12">
     <!-- Score Type -->
     <g transform="translate(734.512656 107.630437) scale(0.1 -0.1)">
      <use xlink:href="#DejaVuSans-53"/>
      <use xlink:href="#DejaVuSans-63" x="63.476562"/>
      <use xlink:href="#DejaVuSans-6f" x="118.457031"/>
      <use xlink:href="#DejaVuSans-72" x="179.638672"/>
      <use xlink:href="#DejaVuSans-65" x="218.501953"/>
      <use xlink:href="#DejaVuSans-20" x="280.025391"/>
      <use xlink:href="#DejaVuSans-54" x="311.8125"/>
      <use xlink:href="#DejaVuSans-79" x="357.271484"/>
      <use xlink:href="#DejaVuSans-70" x="416.451172"/>
      <use xlink:href="#DejaVuSans-65" x="479.927734"/>
     </g>
    </g>
    <g id="patch_12">
     <path d="M 670.00625 124.82825 
L 694.00625 124.82825 
L 694.00625 116.42825 
L 670.00625 116.42825 
z
" style="fill: #3274a1; stroke: #3d3d3d; stroke-width: 1.25; stroke-linejoin: miter"/>
    </g>
    <g id="text_13">
     <!-- Score: (x real, y real) -->
     <g transform="translate(703.60625 124.82825) scale(0.12 -0.12)">
      <defs>
       <path id="DejaVuSans-3a" d="M 750 794 
L 1409 794 
L 1409 0 
L 750 0 
L 750 794 
z
M 750 3309 
L 1409 3309 
L 1409 2516 
L 750 2516 
L 750 3309 
z
" transform="scale(0.015625)"/>
       <path id="DejaVuSans-28" d="M 1984 4856 
Q 1566 4138 1362 3434 
Q 1159 2731 1159 2009 
Q 1159 1288 1364 580 
Q 1569 -128 1984 -844 
L 1484 -844 
Q 1016 -109 783 600 
Q 550 1309 550 2009 
Q 550 2706 781 3412 
Q 1013 4119 1484 4856 
L 1984 4856 
z
" transform="scale(0.015625)"/>
       <path id="DejaVuSans-78" d="M 3513 3500 
L 2247 1797 
L 3578 0 
L 2900 0 
L 1881 1375 
L 863 0 
L 184 0 
L 1544 1831 
L 300 3500 
L 978 3500 
L 1906 2253 
L 2834 3500 
L 3513 3500 
z
" transform="scale(0.015625)"/>
       <path id="DejaVuSans-2c" d="M 750 794 
L 1409 794 
L 1409 256 
L 897 -744 
L 494 -744 
L 750 256 
L 750 794 
z
" transform="scale(0.015625)"/>
       <path id="DejaVuSans-29" d="M 513 4856 
L 1013 4856 
Q 1481 4119 1714 3412 
Q 1947 2706 1947 2009 
Q 1947 1309 1714 600 
Q 1481 -109 1013 -844 
L 513 -844 
Q 928 -128 1133 580 
Q 1338 1288 1338 2009 
Q 1338 2731 1133 3434 
Q 928 4138 513 4856 
z
" transform="scale(0.015625)"/>
      </defs>
      <use xlink:href="#DejaVuSans-53"/>
      <use xlink:href="#DejaVuSans-63" x="63.476562"/>
      <use xlink:href="#DejaVuSans-6f" x="118.457031"/>
      <use xlink:href="#DejaVuSans-72" x="179.638672"/>
      <use xlink:href="#DejaVuSans-65" x="218.501953"/>
      <use xlink:href="#DejaVuSans-3a" x="280.025391"/>
      <use xlink:href="#DejaVuSans-20" x="313.716797"/>
      <use xlink:href="#DejaVuSans-28" x="345.503906"/>
      <use xlink:href="#DejaVuSans-78" x="384.517578"/>
      <use xlink:href="#DejaVuSans-20" x="443.697266"/>
      <use xlink:href="#DejaVuSans-72" x="475.484375"/>
      <use xlink:href="#DejaVuSans-65" x="514.347656"/>
      <use xlink:href="#DejaVuSans-61" x="575.871094"/>
      <use xlink:href="#DejaVuSans-6c" x="637.150391"/>
      <use xlink:href="#DejaVuSans-2c" x="664.933594"/>
      <use xlink:href="#DejaVuSans-20" x="696.720703"/>
      <use xlink:href="#DejaVuSans-79" x="728.507812"/>
      <use xlink:href="#DejaVuSans-20" x="787.6875"/>
      <use xlink:href="#DejaVuSans-72" x="819.474609"/>
      <use xlink:href="#DejaVuSans-65" x="858.337891"/>
      <use xlink:href="#DejaVuSans-61" x="919.861328"/>
      <use xlink:href="#DejaVuSans-6c" x="981.140625"/>
      <use xlink:href="#DejaVuSans-29" x="1008.923828"/>
     </g>
    </g>
    <g id="patch_13">
     <path d="M 670.00625 142.442 
L 694.00625 142.442 
L 694.00625 134.042 
L 670.00625 134.042 
z
" style="fill: #e1812c; stroke: #3d3d3d; stroke-width: 1.25; stroke-linejoin: miter"/>
    </g>
    <g id="text_14">
     <!-- Score: (x real, y random) -->
     <g transform="translate(703.60625 142.442) scale(0.12 -0.12)">
      <defs>
       <path id="DejaVuSans-6d" d="M 3328 2828 
Q 3544 3216 3844 3400 
Q 4144 3584 4550 3584 
Q 5097 3584 5394 3201 
Q 5691 2819 5691 2113 
L 5691 0 
L 5113 0 
L 5113 2094 
Q 5113 2597 4934 2840 
Q 4756 3084 4391 3084 
Q 3944 3084 3684 2787 
Q 3425 2491 3425 1978 
L 3425 0 
L 2847 0 
L 2847 2094 
Q 2847 2600 2669 2842 
Q 2491 3084 2119 3084 
Q 1678 3084 1418 2786 
Q 1159 2488 1159 1978 
L 1159 0 
L 581 0 
L 581 3500 
L 1159 3500 
L 1159 2956 
Q 1356 3278 1631 3431 
Q 1906 3584 2284 3584 
Q 2666 3584 2933 3390 
Q 3200 3197 3328 2828 
z
" transform="scale(0.015625)"/>
      </defs>
      <use xlink:href="#DejaVuSans-53"/>
      <use xlink:href="#DejaVuSans-63" x="63.476562"/>
      <use xlink:href="#DejaVuSans-6f" x="118.457031"/>
      <use xlink:href="#DejaVuSans-72" x="179.638672"/>
      <use xlink:href="#DejaVuSans-65" x="218.501953"/>
      <use xlink:href="#DejaVuSans-3a" x="280.025391"/>
      <use xlink:href="#DejaVuSans-20" x="313.716797"/>
      <use xlink:href="#DejaVuSans-28" x="345.503906"/>
      <use xlink:href="#DejaVuSans-78" x="384.517578"/>
      <use xlink:href="#DejaVuSans-20" x="443.697266"/>
      <use xlink:href="#DejaVuSans-72" x="475.484375"/>
      <use xlink:href="#DejaVuSans-65" x="514.347656"/>
      <use xlink:href="#DejaVuSans-61" x="575.871094"/>
      <use xlink:href="#DejaVuSans-6c" x="637.150391"/>
      <use xlink:href="#DejaVuSans-2c" x="664.933594"/>
      <use xlink:href="#DejaVuSans-20" x="696.720703"/>
      <use xlink:href="#DejaVuSans-79" x="728.507812"/>
      <use xlink:href="#DejaVuSans-20" x="787.6875"/>
      <use xlink:href="#DejaVuSans-72" x="819.474609"/>
      <use xlink:href="#DejaVuSans-61" x="860.587891"/>
      <use xlink:href="#DejaVuSans-6e" x="921.867188"/>
      <use xlink:href="#DejaVuSans-64" x="985.246094"/>
      <use xlink:href="#DejaVuSans-6f" x="1048.722656"/>
      <use xlink:href="#DejaVuSans-6d" x="1109.904297"/>
      <use xlink:href="#DejaVuSans-29" x="1207.316406"/>
     </g>
    </g>
    <g id="patch_14">
     <path d="M 670.00625 160.05575 
L 694.00625 160.05575 
L 694.00625 151.65575 
L 670.00625 151.65575 
z
" style="fill: #3a923a; stroke: #3d3d3d; stroke-width: 1.25; stroke-linejoin: miter"/>
    </g>
    <g id="text_15">
     <!-- Score: (x random, y real) -->
     <g transform="translate(703.60625 160.05575) scale(0.12 -0.12)">
      <use xlink:href="#DejaVuSans-53"/>
      <use xlink:href="#DejaVuSans-63" x="63.476562"/>
      <use xlink:href="#DejaVuSans-6f" x="118.457031"/>
      <use xlink:href="#DejaVuSans-72" x="179.638672"/>
      <use xlink:href="#DejaVuSans-65" x="218.501953"/>
      <use xlink:href="#DejaVuSans-3a" x="280.025391"/>
      <use xlink:href="#DejaVuSans-20" x="313.716797"/>
      <use xlink:href="#DejaVuSans-28" x="345.503906"/>
      <use xlink:href="#DejaVuSans-78" x="384.517578"/>
      <use xlink:href="#DejaVuSans-20" x="443.697266"/>
      <use xlink:href="#DejaVuSans-72" x="475.484375"/>
      <use xlink:href="#DejaVuSans-61" x="516.597656"/>
      <use xlink:href="#DejaVuSans-6e" x="577.876953"/>
      <use xlink:href="#DejaVuSans-64" x="641.255859"/>
      <use xlink:href="#DejaVuSans-6f" x="704.732422"/>
      <use xlink:href="#DejaVuSans-6d" x="765.914062"/>
      <use xlink:href="#DejaVuSans-2c" x="863.326172"/>
      <use xlink:href="#DejaVuSans-20" x="895.113281"/>
      <use xlink:href="#DejaVuSans-79" x="926.900391"/>
      <use xlink:href="#DejaVuSans-20" x="986.080078"/>
      <use xlink:href="#DejaVuSans-72" x="1017.867188"/>
      <use xlink:href="#DejaVuSans-65" x="1056.730469"/>
      <use xlink:href="#DejaVuSans-61" x="1118.253906"/>
      <use xlink:href="#DejaVuSans-6c" x="1179.533203"/>
      <use xlink:href="#DejaVuSans-29" x="1207.316406"/>
     </g>
    </g>
   </g>
  </g>
  <g id="text_16">
   <!-- Filters applied: Subject ID=All (170), Hemisphere=All (2), Task=All (5), -->
   <g transform="translate(255.680469 7.598438) scale(0.1 -0.1)">
    <defs>
     <path id="DejaVuSans-46" d="M 628 4666 
L 3309 4666 
L 3309 4134 
L 1259 4134 
L 1259 2759 
L 3109 2759 
L 3109 2228 
L 1259 2228 
L 1259 0 
L 628 0 
L 628 4666 
z
" transform="scale(0.015625)"/>
     <path id="DejaVuSans-49" d="M 628 4666 
L 1259 4666 
L 1259 0 
L 628 0 
L 628 4666 
z
" transform="scale(0.015625)"/>
     <path id="DejaVuSans-3d" d="M 678 2906 
L 4684 2906 
L 4684 2381 
L 678 2381 
L 678 2906 
z
M 678 1631 
L 4684 1631 
L 4684 1100 
L 678 1100 
L 678 1631 
z
" transform="scale(0.015625)"/>
     <path id="DejaVuSans-37" d="M 525 4666 
L 3525 4666 
L 3525 4397 
L 1831 0 
L 1172 0 
L 2766 4134 
L 525 4134 
L 525 4666 
z
" transform="scale(0.015625)"/>
     <path id="DejaVuSans-48" d="M 628 4666 
L 1259 4666 
L 1259 2753 
L 3553 2753 
L 3553 4666 
L 4184 4666 
L 4184 0 
L 3553 0 
L 3553 2222 
L 1259 2222 
L 1259 0 
L 628 0 
L 628 4666 
z
" transform="scale(0.015625)"/>
     <path id="DejaVuSans-6b" d="M 581 4863 
L 1159 4863 
L 1159 1991 
L 2875 3500 
L 3609 3500 
L 1753 1863 
L 3688 0 
L 2938 0 
L 1159 1709 
L 1159 0 
L 581 0 
L 581 4863 
z
" transform="scale(0.015625)"/>
    </defs>
    <use xlink:href="#DejaVuSans-46"/>
    <use xlink:href="#DejaVuSans-69" x="50.269531"/>
    <use xlink:href="#DejaVuSans-6c" x="78.052734"/>
    <use xlink:href="#DejaVuSans-74" x="105.835938"/>
    <use xlink:href="#DejaVuSans-65" x="145.044922"/>
    <use xlink:href="#DejaVuSans-72" x="206.568359"/>
    <use xlink:href="#DejaVuSans-73" x="247.681641"/>
    <use xlink:href="#DejaVuSans-20" x="299.78125"/>
    <use xlink:href="#DejaVuSans-61" x="331.568359"/>
    <use xlink:href="#DejaVuSans-70" x="392.847656"/>
    <use xlink:href="#DejaVuSans-70" x="456.324219"/>
    <use xlink:href="#DejaVuSans-6c" x="519.800781"/>
    <use xlink:href="#DejaVuSans-69" x="547.583984"/>
    <use xlink:href="#DejaVuSans-65" x="575.367188"/>
    <use xlink:href="#DejaVuSans-64" x="636.890625"/>
    <use xlink:href="#DejaVuSans-3a" x="700.367188"/>
    <use xlink:href="#DejaVuSans-20" x="734.058594"/>
    <use xlink:href="#DejaVuSans-53" x="765.845703"/>
    <use xlink:href="#DejaVuSans-75" x="829.322266"/>
    <use xlink:href="#DejaVuSans-62" x="892.701172"/>
    <use xlink:href="#DejaVuSans-6a" x="956.177734"/>
    <use xlink:href="#DejaVuSans-65" x="983.960938"/>
    <use xlink:href="#DejaVuSans-63" x="1045.484375"/>
    <use xlink:href="#DejaVuSans-74" x="1100.464844"/>
    <use xlink:href="#DejaVuSans-20" x="1139.673828"/>
    <use xlink:href="#DejaVuSans-49" x="1171.460938"/>
    <use xlink:href="#DejaVuSans-44" x="1200.953125"/>
    <use xlink:href="#DejaVuSans-3d" x="1277.955078"/>
    <use xlink:href="#DejaVuSans-41" x="1361.744141"/>
    <use xlink:href="#DejaVuSans-6c" x="1430.152344"/>
    <use xlink:href="#DejaVuSans-6c" x="1457.935547"/>
    <use xlink:href="#DejaVuSans-20" x="1485.71875"/>
    <use xlink:href="#DejaVuSans-28" x="1517.505859"/>
    <use xlink:href="#DejaVuSans-31" x="1556.519531"/>
    <use xlink:href="#DejaVuSans-37" x="1620.142578"/>
    <use xlink:href="#DejaVuSans-30" x="1683.765625"/>
    <use xlink:href="#DejaVuSans-29" x="1747.388672"/>
    <use xlink:href="#DejaVuSans-2c" x="1786.402344"/>
    <use xlink:href="#DejaVuSans-20" x="1818.189453"/>
    <use xlink:href="#DejaVuSans-48" x="1849.976562"/>
    <use xlink:href="#DejaVuSans-65" x="1925.171875"/>
    <use xlink:href="#DejaVuSans-6d" x="1986.695312"/>
    <use xlink:href="#DejaVuSans-69" x="2084.107422"/>
    <use xlink:href="#DejaVuSans-73" x="2111.890625"/>
    <use xlink:href="#DejaVuSans-70" x="2163.990234"/>
    <use xlink:href="#DejaVuSans-68" x="2227.466797"/>
    <use xlink:href="#DejaVuSans-65" x="2290.845703"/>
    <use xlink:href="#DejaVuSans-72" x="2352.369141"/>
    <use xlink:href="#DejaVuSans-65" x="2391.232422"/>
    <use xlink:href="#DejaVuSans-3d" x="2452.755859"/>
    <use xlink:href="#DejaVuSans-41" x="2536.544922"/>
    <use xlink:href="#DejaVuSans-6c" x="2604.953125"/>
    <use xlink:href="#DejaVuSans-6c" x="2632.736328"/>
    <use xlink:href="#DejaVuSans-20" x="2660.519531"/>
    <use xlink:href="#DejaVuSans-28" x="2692.306641"/>
    <use xlink:href="#DejaVuSans-32" x="2731.320312"/>
    <use xlink:href="#DejaVuSans-29" x="2794.943359"/>
    <use xlink:href="#DejaVuSans-2c" x="2833.957031"/>
    <use xlink:href="#DejaVuSans-20" x="2865.744141"/>
    <use xlink:href="#DejaVuSans-54" x="2897.53125"/>
    <use xlink:href="#DejaVuSans-61" x="2942.115234"/>
    <use xlink:href="#DejaVuSans-73" x="3003.394531"/>
    <use xlink:href="#DejaVuSans-6b" x="3055.494141"/>
    <use xlink:href="#DejaVuSans-3d" x="3113.404297"/>
    <use xlink:href="#DejaVuSans-41" x="3197.193359"/>
    <use xlink:href="#DejaVuSans-6c" x="3265.601562"/>
    <use xlink:href="#DejaVuSans-6c" x="3293.384766"/>
    <use xlink:href="#DejaVuSans-20" x="3321.167969"/>
    <use xlink:href="#DejaVuSans-28" x="3352.955078"/>
    <use xlink:href="#DejaVuSans-35" x="3391.96875"/>
    <use xlink:href="#DejaVuSans-29" x="3455.591797"/>
    <use xlink:href="#DejaVuSans-2c" x="3494.605469"/>
   </g>
   <!-- Statistical Test=['Levenshtein Distance - Y as Truth', 'Levenshtein Distance - X -->
   <g transform="translate(236.8625 18.79625) scale(0.1 -0.1)">
    <defs>
     <path id="DejaVuSans-5b" d="M 550 4863 
L 1875 4863 
L 1875 4416 
L 1125 4416 
L 1125 -397 
L 1875 -397 
L 1875 -844 
L 550 -844 
L 550 4863 
z
" transform="scale(0.015625)"/>
     <path id="DejaVuSans-27" d="M 1147 4666 
L 1147 2931 
L 616 2931 
L 616 4666 
L 1147 4666 
z
" transform="scale(0.015625)"/>
    </defs>
    <use xlink:href="#DejaVuSans-53"/>
    <use xlink:href="#DejaVuSans-74" x="63.476562"/>
    <use xlink:href="#DejaVuSans-61" x="102.685547"/>
    <use xlink:href="#DejaVuSans-74" x="163.964844"/>
    <use xlink:href="#DejaVuSans-69" x="203.173828"/>
    <use xlink:href="#DejaVuSans-73" x="230.957031"/>
    <use xlink:href="#DejaVuSans-74" x="283.056641"/>
    <use xlink:href="#DejaVuSans-69" x="322.265625"/>
    <use xlink:href="#DejaVuSans-63" x="350.048828"/>
    <use xlink:href="#DejaVuSans-61" x="405.029297"/>
    <use xlink:href="#DejaVuSans-6c" x="466.308594"/>
    <use xlink:href="#DejaVuSans-20" x="494.091797"/>
    <use xlink:href="#DejaVuSans-54" x="525.878906"/>
    <use xlink:href="#DejaVuSans-65" x="569.962891"/>
    <use xlink:href="#DejaVuSans-73" x="631.486328"/>
    <use xlink:href="#DejaVuSans-74" x="683.585938"/>
    <use xlink:href="#DejaVuSans-3d" x="722.794922"/>
    <use xlink:href="#DejaVuSans-5b" x="806.583984"/>
    <use xlink:href="#DejaVuSans-27" x="845.597656"/>
    <use xlink:href="#DejaVuSans-4c" x="873.087891"/>
    <use xlink:href="#DejaVuSans-65" x="927.050781"/>
    <use xlink:href="#DejaVuSans-76" x="988.574219"/>
    <use xlink:href="#DejaVuSans-65" x="1047.753906"/>
    <use xlink:href="#DejaVuSans-6e" x="1109.277344"/>
    <use xlink:href="#DejaVuSans-73" x="1172.65625"/>
    <use xlink:href="#DejaVuSans-68" x="1224.755859"/>
    <use xlink:href="#DejaVuSans-74" x="1288.134766"/>
    <use xlink:href="#DejaVuSans-65" x="1327.34375"/>
    <use xlink:href="#DejaVuSans-69" x="1388.867188"/>
    <use xlink:href="#DejaVuSans-6e" x="1416.650391"/>
    <use xlink:href="#DejaVuSans-20" x="1480.029297"/>
    <use xlink:href="#DejaVuSans-44" x="1511.816406"/>
    <use xlink:href="#DejaVuSans-69" x="1588.818359"/>
    <use xlink:href="#DejaVuSans-73" x="1616.601562"/>
    <use xlink:href="#DejaVuSans-74" x="1668.701172"/>
    <use xlink:href="#DejaVuSans-61" x="1707.910156"/>
    <use xlink:href="#DejaVuSans-6e" x="1769.189453"/>
    <use xlink:href="#DejaVuSans-63" x="1832.568359"/>
    <use xlink:href="#DejaVuSans-65" x="1887.548828"/>
    <use xlink:href="#DejaVuSans-20" x="1949.072266"/>
    <use xlink:href="#DejaVuSans-2d" x="1980.859375"/>
    <use xlink:href="#DejaVuSans-20" x="2016.943359"/>
    <use xlink:href="#DejaVuSans-59" x="2048.730469"/>
    <use xlink:href="#DejaVuSans-20" x="2109.814453"/>
    <use xlink:href="#DejaVuSans-61" x="2141.601562"/>
    <use xlink:href="#DejaVuSans-73" x="2202.880859"/>
    <use xlink:href="#DejaVuSans-20" x="2254.980469"/>
    <use xlink:href="#DejaVuSans-54" x="2286.767578"/>
    <use xlink:href="#DejaVuSans-72" x="2333.101562"/>
    <use xlink:href="#DejaVuSans-75" x="2374.214844"/>
    <use xlink:href="#DejaVuSans-74" x="2437.59375"/>
    <use xlink:href="#DejaVuSans-68" x="2476.802734"/>
    <use xlink:href="#DejaVuSans-27" x="2540.181641"/>
    <use xlink:href="#DejaVuSans-2c" x="2567.671875"/>
    <use xlink:href="#DejaVuSans-20" x="2599.458984"/>
    <use xlink:href="#DejaVuSans-27" x="2631.246094"/>
    <use xlink:href="#DejaVuSans-4c" x="2658.736328"/>
    <use xlink:href="#DejaVuSans-65" x="2712.699219"/>
    <use xlink:href="#DejaVuSans-76" x="2774.222656"/>
    <use xlink:href="#DejaVuSans-65" x="2833.402344"/>
    <use xlink:href="#DejaVuSans-6e" x="2894.925781"/>
    <use xlink:href="#DejaVuSans-73" x="2958.304688"/>
    <use xlink:href="#DejaVuSans-68" x="3010.404297"/>
    <use xlink:href="#DejaVuSans-74" x="3073.783203"/>
    <use xlink:href="#DejaVuSans-65" x="3112.992188"/>
    <use xlink:href="#DejaVuSans-69" x="3174.515625"/>
    <use xlink:href="#DejaVuSans-6e" x="3202.298828"/>
    <use xlink:href="#DejaVuSans-20" x="3265.677734"/>
    <use xlink:href="#DejaVuSans-44" x="3297.464844"/>
    <use xlink:href="#DejaVuSans-69" x="3374.466797"/>
    <use xlink:href="#DejaVuSans-73" x="3402.25"/>
    <use xlink:href="#DejaVuSans-74" x="3454.349609"/>
    <use xlink:href="#DejaVuSans-61" x="3493.558594"/>
    <use xlink:href="#DejaVuSans-6e" x="3554.837891"/>
    <use xlink:href="#DejaVuSans-63" x="3618.216797"/>
    <use xlink:href="#DejaVuSans-65" x="3673.197266"/>
    <use xlink:href="#DejaVuSans-20" x="3734.720703"/>
    <use xlink:href="#DejaVuSans-2d" x="3766.507812"/>
    <use xlink:href="#DejaVuSans-20" x="3802.591797"/>
    <use xlink:href="#DejaVuSans-58" x="3834.378906"/>
   </g>
   <!-- as Truth'] -->
   <g transform="translate(408.747656 29.994063) scale(0.1 -0.1)">
    <defs>
     <path id="DejaVuSans-5d" d="M 1947 4863 
L 1947 -844 
L 622 -844 
L 622 -397 
L 1369 -397 
L 1369 4416 
L 622 4416 
L 622 4863 
L 1947 4863 
z
" transform="scale(0.015625)"/>
    </defs>
    <use xlink:href="#DejaVuSans-61"/>
    <use xlink:href="#DejaVuSans-73" x="61.279297"/>
    <use xlink:href="#DejaVuSans-20" x="113.378906"/>
    <use xlink:href="#DejaVuSans-54" x="145.166016"/>
    <use xlink:href="#DejaVuSans-72" x="191.5"/>
    <use xlink:href="#DejaVuSans-75" x="232.613281"/>
    <use xlink:href="#DejaVuSans-74" x="295.992188"/>
    <use xlink:href="#DejaVuSans-68" x="335.201172"/>
    <use xlink:href="#DejaVuSans-27" x="398.580078"/>
    <use xlink:href="#DejaVuSans-5d" x="426.070312"/>
   </g>
  </g>
 </g>
 <defs>
  <clipPath id="p148d85120b">
   <rect x="60.77" y="89.232" width="764.95" height="572.248"/>
  </clipPath>
 </defs>
</svg>
