<?xml version="1.0" encoding="utf-8" standalone="no"?>
<!DOCTYPE svg PUBLIC "-//W3C//DTD SVG 1.1//EN"
  "http://www.w3.org/Graphics/SVG/1.1/DTD/svg11.dtd">
<svg xmlns:xlink="http://www.w3.org/1999/xlink" width="864pt" height="864pt" viewBox="0 0 864 864" xmlns="http://www.w3.org/2000/svg" version="1.1">
 <metadata>
  <rdf:RDF xmlns:dc="http://purl.org/dc/elements/1.1/" xmlns:cc="http://creativecommons.org/ns#" xmlns:rdf="http://www.w3.org/1999/02/22-rdf-syntax-ns#">
   <cc:Work>
    <dc:type rdf:resource="http://purl.org/dc/dcmitype/StillImage"/>
    <dc:date>2024-11-26T00:36:17.568159</dc:date>
    <dc:format>image/svg+xml</dc:format>
    <dc:creator>
     <cc:Agent>
      <dc:title>Matplotlib v3.9.2, https://matplotlib.org/</dc:title>
     </cc:Agent>
    </dc:creator>
   </cc:Work>
  </rdf:RDF>
 </metadata>
 <defs>
  <style type="text/css">*{stroke-linejoin: round; stroke-linecap: butt}</style>
 </defs>
 <g id="figure_1">
  <g id="patch_1">
   <path d="M 0 864 
L 864 864 
L 864 0 
L 0 0 
z
" style="fill: #ffffff"/>
  </g>
  <g id="axes_1">
   <g id="patch_2">
    <path d="M 51.41 642.4 
L 825.72 642.4 
L 825.72 89.232 
L 51.41 89.232 
z
" style="fill: #ffffff"/>
   </g>
   <g id="PolyCollection_1">
    <defs>
     <path id="mf40a6679a3" d="M 274.229943 -309.900429 
L 274.129342 -309.900429 
L 274.028642 -314.342081 
L 273.871232 -318.783733 
L 273.658529 -323.225385 
L 273.410992 -327.667038 
L 273.162537 -332.10869 
L 272.94265 -336.550342 
L 272.756154 -340.991994 
L 272.575003 -345.433647 
L 272.347657 -349.875299 
L 272.016589 -354.316951 
L 271.528538 -358.758603 
L 270.831186 -363.200256 
L 269.864175 -367.641908 
L 268.557674 -372.08356 
L 266.844922 -376.525212 
L 264.683924 -380.966865 
L 262.077214 -385.408517 
L 259.080939 -389.850169 
L 255.802607 -394.291821 
L 252.39266 -398.733473 
L 249.030942 -403.175126 
L 245.897829 -407.616778 
L 243.116794 -412.05843 
L 240.673097 -416.500082 
L 238.342114 -420.941735 
L 235.671344 -425.383387 
L 232.033432 -429.825039 
L 226.720414 -434.266691 
L 219.030485 -438.708344 
L 208.349045 -443.149996 
L 194.319513 -447.591648 
L 177.218439 -452.0333 
L 158.471253 -456.474953 
L 140.92708 -460.916605 
L 128.371975 -465.358257 
L 124.130716 -469.799909 
L 129.375206 -474.241561 
L 142.257924 -478.683214 
L 158.602366 -483.124866 
L 173.79794 -487.566518 
L 184.701969 -492.00817 
L 190.475486 -496.449823 
L 192.15526 -500.891475 
L 191.56339 -505.333127 
L 190.322096 -509.774779 
L 189.381291 -514.216432 
L 189.02207 -518.658084 
L 189.085835 -523.099736 
L 189.221976 -527.541388 
L 189.086827 -531.983041 
L 188.500257 -536.424693 
L 187.541626 -540.866345 
L 186.535418 -545.307997 
L 185.920082 -549.749649 
L 186.076944 -554.191302 
L 187.220983 -558.632954 
L 189.392764 -563.074606 
L 192.513555 -567.516258 
L 196.44634 -571.957911 
L 201.033199 -576.399563 
L 206.100913 -580.841215 
L 211.432242 -585.282867 
L 216.722279 -589.72452 
L 221.576704 -594.166172 
L 225.606381 -598.607824 
L 228.598542 -603.049476 
L 230.655883 -607.491128 
L 232.188285 -611.932781 
L 233.740763 -616.374433 
L 235.760207 -620.816085 
L 238.437453 -625.257737 
L 241.692425 -629.69939 
L 245.271501 -634.141042 
L 248.877009 -638.582694 
L 252.264644 -643.024346 
L 255.288833 -647.465999 
L 257.907917 -651.907651 
L 260.166691 -656.349303 
L 262.164144 -660.790955 
L 264.008446 -665.232608 
L 265.76926 -669.67426 
L 267.449113 -674.115912 
L 268.991634 -678.557564 
L 270.321269 -682.999216 
L 271.386813 -687.440869 
L 272.1816 -691.882521 
L 272.735305 -696.324173 
L 273.093734 -700.765825 
L 273.305059 -705.207478 
L 273.417026 -709.64913 
L 273.477175 -714.090782 
L 273.528255 -718.532434 
L 273.599468 -722.974087 
L 273.700171 -727.415739 
L 273.821241 -731.857391 
L 273.943636 -736.299043 
L 274.049093 -740.740696 
L 274.127438 -745.182348 
L 274.177999 -749.624 
L 274.229943 -749.624 
L 274.229943 -749.624 
L 274.229943 -745.182348 
L 274.229943 -740.740696 
L 274.229943 -736.299043 
L 274.229943 -731.857391 
L 274.229943 -727.415739 
L 274.229943 -722.974087 
L 274.229943 -718.532434 
L 274.229943 -714.090782 
L 274.229943 -709.64913 
L 274.229943 -705.207478 
L 274.229943 -700.765825 
L 274.229943 -696.324173 
L 274.229943 -691.882521 
L 274.229943 -687.440869 
L 274.229943 -682.999216 
L 274.229943 -678.557564 
L 274.229943 -674.115912 
L 274.229943 -669.67426 
L 274.229943 -665.232608 
L 274.229943 -660.790955 
L 274.229943 -656.349303 
L 274.229943 -651.907651 
L 274.229943 -647.465999 
L 274.229943 -643.024346 
L 274.229943 -638.582694 
L 274.229943 -634.141042 
L 274.229943 -629.69939 
L 274.229943 -625.257737 
L 274.229943 -620.816085 
L 274.229943 -616.374433 
L 274.229943 -611.932781 
L 274.229943 -607.491128 
L 274.229943 -603.049476 
L 274.229943 -598.607824 
L 274.229943 -594.166172 
L 274.229943 -589.72452 
L 274.229943 -585.282867 
L 274.229943 -580.841215 
L 274.229943 -576.399563 
L 274.229943 -571.957911 
L 274.229943 -567.516258 
L 274.229943 -563.074606 
L 274.229943 -558.632954 
L 274.229943 -554.191302 
L 274.229943 -549.749649 
L 274.229943 -545.307997 
L 274.229943 -540.866345 
L 274.229943 -536.424693 
L 274.229943 -531.983041 
L 274.229943 -527.541388 
L 274.229943 -523.099736 
L 274.229943 -518.658084 
L 274.229943 -514.216432 
L 274.229943 -509.774779 
L 274.229943 -505.333127 
L 274.229943 -500.891475 
L 274.229943 -496.449823 
L 274.229943 -492.00817 
L 274.229943 -487.566518 
L 274.229943 -483.124866 
L 274.229943 -478.683214 
L 274.229943 -474.241561 
L 274.229943 -469.799909 
L 274.229943 -465.358257 
L 274.229943 -460.916605 
L 274.229943 -456.474953 
L 274.229943 -452.0333 
L 274.229943 -447.591648 
L 274.229943 -443.149996 
L 274.229943 -438.708344 
L 274.229943 -434.266691 
L 274.229943 -429.825039 
L 274.229943 -425.383387 
L 274.229943 -420.941735 
L 274.229943 -416.500082 
L 274.229943 -412.05843 
L 274.229943 -407.616778 
L 274.229943 -403.175126 
L 274.229943 -398.733473 
L 274.229943 -394.291821 
L 274.229943 -389.850169 
L 274.229943 -385.408517 
L 274.229943 -380.966865 
L 274.229943 -376.525212 
L 274.229943 -372.08356 
L 274.229943 -367.641908 
L 274.229943 -363.200256 
L 274.229943 -358.758603 
L 274.229943 -354.316951 
L 274.229943 -349.875299 
L 274.229943 -345.433647 
L 274.229943 -340.991994 
L 274.229943 -336.550342 
L 274.229943 -332.10869 
L 274.229943 -327.667038 
L 274.229943 -323.225385 
L 274.229943 -318.783733 
L 274.229943 -314.342081 
L 274.229943 -309.900429 
z
" style="stroke: #3f3f3f; stroke-width: 1.25"/>
    </defs>
    <g clip-path="url(#pc0c0ca8abe)">
     <use xlink:href="#mf40a6679a3" x="0" y="864" style="fill: #3274a1; stroke: #3f3f3f; stroke-width: 1.25"/>
    </g>
   </g>
   <g id="PolyCollection_2">
    <defs>
     <path id="m9afe9e4a1c" d="M 274.527154 -246.744 
L 274.229943 -246.744 
L 274.229943 -246.928925 
L 274.229943 -247.113849 
L 274.229943 -247.298774 
L 274.229943 -247.483699 
L 274.229943 -247.668624 
L 274.229943 -247.853548 
L 274.229943 -248.038473 
L 274.229943 -248.223398 
L 274.229943 -248.408323 
L 274.229943 -248.593247 
L 274.229943 -248.778172 
L 274.229943 -248.963097 
L 274.229943 -249.148022 
L 274.229943 -249.332946 
L 274.229943 -249.517871 
L 274.229943 -249.702796 
L 274.229943 -249.88772 
L 274.229943 -250.072645 
L 274.229943 -250.25757 
L 274.229943 -250.442495 
L 274.229943 -250.627419 
L 274.229943 -250.812344 
L 274.229943 -250.997269 
L 274.229943 -251.182194 
L 274.229943 -251.367118 
L 274.229943 -251.552043 
L 274.229943 -251.736968 
L 274.229943 -251.921893 
L 274.229943 -252.106817 
L 274.229943 -252.291742 
L 274.229943 -252.476667 
L 274.229943 -252.661591 
L 274.229943 -252.846516 
L 274.229943 -253.031441 
L 274.229943 -253.216366 
L 274.229943 -253.40129 
L 274.229943 -253.586215 
L 274.229943 -253.77114 
L 274.229943 -253.956065 
L 274.229943 -254.140989 
L 274.229943 -254.325914 
L 274.229943 -254.510839 
L 274.229943 -254.695764 
L 274.229943 -254.880688 
L 274.229943 -255.065613 
L 274.229943 -255.250538 
L 274.229943 -255.435462 
L 274.229943 -255.620387 
L 274.229943 -255.805312 
L 274.229943 -255.990237 
L 274.229943 -256.175161 
L 274.229943 -256.360086 
L 274.229943 -256.545011 
L 274.229943 -256.729936 
L 274.229943 -256.91486 
L 274.229943 -257.099785 
L 274.229943 -257.28471 
L 274.229943 -257.469635 
L 274.229943 -257.654559 
L 274.229943 -257.839484 
L 274.229943 -258.024409 
L 274.229943 -258.209333 
L 274.229943 -258.394258 
L 274.229943 -258.579183 
L 274.229943 -258.764108 
L 274.229943 -258.949032 
L 274.229943 -259.133957 
L 274.229943 -259.318882 
L 274.229943 -259.503807 
L 274.229943 -259.688731 
L 274.229943 -259.873656 
L 274.229943 -260.058581 
L 274.229943 -260.243505 
L 274.229943 -260.42843 
L 274.229943 -260.613355 
L 274.229943 -260.79828 
L 274.229943 -260.983204 
L 274.229943 -261.168129 
L 274.229943 -261.353054 
L 274.229943 -261.537979 
L 274.229943 -261.722903 
L 274.229943 -261.907828 
L 274.229943 -262.092753 
L 274.229943 -262.277678 
L 274.229943 -262.462602 
L 274.229943 -262.647527 
L 274.229943 -262.832452 
L 274.229943 -263.017376 
L 274.229943 -263.202301 
L 274.229943 -263.387226 
L 274.229943 -263.572151 
L 274.229943 -263.757075 
L 274.229943 -263.942 
L 274.229943 -264.126925 
L 274.229943 -264.31185 
L 274.229943 -264.496774 
L 274.229943 -264.681699 
L 274.229943 -264.866624 
L 274.229943 -265.051549 
L 274.256525 -265.051549 
L 274.256525 -265.051549 
L 274.295703 -264.866624 
L 274.353994 -264.681699 
L 274.408391 -264.496774 
L 274.425688 -264.31185 
L 274.393677 -264.126925 
L 274.334381 -263.942 
L 274.280741 -263.757075 
L 274.248784 -263.572151 
L 274.235272 -263.387226 
L 274.231093 -263.202301 
L 274.230133 -263.017376 
L 274.229968 -262.832452 
L 274.229959 -262.647527 
L 274.230059 -262.462602 
L 274.230692 -262.277678 
L 274.233661 -262.092753 
L 274.244014 -261.907828 
L 274.270555 -261.722903 
L 274.319327 -261.537979 
L 274.37996 -261.353054 
L 274.421966 -261.168129 
L 274.417575 -260.983204 
L 274.370925 -260.79828 
L 274.315906 -260.613355 
L 274.287226 -260.42843 
L 274.30061 -260.243505 
L 274.350324 -260.058581 
L 274.412196 -259.873656 
L 274.459853 -259.688731 
L 274.495371 -259.503807 
L 274.553884 -259.318882 
L 274.657314 -259.133957 
L 274.77263 -258.949032 
L 274.844133 -258.764108 
L 274.870123 -258.579183 
L 274.919712 -258.394258 
L 275.057844 -258.209333 
L 275.273644 -258.024409 
L 275.498673 -257.839484 
L 275.67985 -257.654559 
L 275.830554 -257.469635 
L 276.027062 -257.28471 
L 276.345222 -257.099785 
L 276.782204 -256.91486 
L 277.247028 -256.729936 
L 277.636898 -256.545011 
L 277.931269 -256.360086 
L 278.220646 -256.175161 
L 278.623586 -255.990237 
L 279.152986 -255.805312 
L 279.702684 -255.620387 
L 280.219289 -255.435462 
L 280.850828 -255.250538 
L 281.844047 -255.065613 
L 283.299632 -254.880688 
L 285.089343 -254.695764 
L 286.993548 -254.510839 
L 288.862769 -254.325914 
L 290.71254 -254.140989 
L 292.766045 -253.956065 
L 295.329246 -253.77114 
L 298.476439 -253.586215 
L 301.899514 -253.40129 
L 305.222434 -253.216366 
L 308.474 -253.031441 
L 312.120945 -252.846516 
L 316.590247 -252.661591 
L 321.846749 -252.476667 
L 327.46059 -252.291742 
L 333.005511 -252.106817 
L 338.42844 -251.921893 
L 344.166548 -251.736968 
L 350.872405 -251.552043 
L 358.831791 -251.367118 
L 367.572754 -251.182194 
L 376.189551 -250.997269 
L 384.103594 -250.812344 
L 391.290639 -250.627419 
L 397.779467 -250.442495 
L 403.326818 -250.25757 
L 407.64685 -250.072645 
L 410.707941 -249.88772 
L 412.942749 -249.702796 
L 415.299702 -249.517871 
L 418.592895 -249.332946 
L 422.32816 -249.148022 
L 424.329171 -248.963097 
L 421.880597 -248.778172 
L 413.351391 -248.593247 
L 398.739363 -248.408323 
L 379.051637 -248.223398 
L 355.888122 -248.038473 
L 331.777208 -247.853548 
L 310.061663 -247.668624 
L 293.549827 -247.483699 
L 283.113588 -247.298774 
L 277.672809 -247.113849 
L 275.343085 -246.928925 
L 274.527154 -246.744 
z
" style="stroke: #3f3f3f; stroke-width: 1.25"/>
    </defs>
    <g clip-path="url(#pc0c0ca8abe)">
     <use xlink:href="#m9afe9e4a1c" x="0" y="864" style="fill: #e1812c; stroke: #3f3f3f; stroke-width: 1.25"/>
    </g>
   </g>
   <g id="PolyCollection_3">
    <defs>
     <path id="mefede6b4a1" d="M 649.478012 -309.900429 
L 649.377411 -309.900429 
L 649.276711 -314.342081 
L 649.119301 -318.783733 
L 648.906597 -323.225385 
L 648.659061 -327.667038 
L 648.410605 -332.10869 
L 648.190718 -336.550342 
L 648.004223 -340.991994 
L 647.823072 -345.433647 
L 647.595726 -349.875299 
L 647.264658 -354.316951 
L 646.776607 -358.758603 
L 646.079255 -363.200256 
L 645.112244 -367.641908 
L 643.805743 -372.08356 
L 642.092991 -376.525212 
L 639.931992 -380.966865 
L 637.325282 -385.408517 
L 634.329008 -389.850169 
L 631.050676 -394.291821 
L 627.640729 -398.733473 
L 624.27901 -403.175126 
L 621.145898 -407.616778 
L 618.364863 -412.05843 
L 615.921166 -416.500082 
L 613.590183 -420.941735 
L 610.919413 -425.383387 
L 607.281501 -429.825039 
L 601.968483 -434.266691 
L 594.278554 -438.708344 
L 583.597114 -443.149996 
L 569.567582 -447.591648 
L 552.466507 -452.0333 
L 533.719322 -456.474953 
L 516.175149 -460.916605 
L 503.620043 -465.358257 
L 499.378785 -469.799909 
L 504.623275 -474.241561 
L 517.505993 -478.683214 
L 533.850435 -483.124866 
L 549.046008 -487.566518 
L 559.950038 -492.00817 
L 565.723554 -496.449823 
L 567.403329 -500.891475 
L 566.811459 -505.333127 
L 565.570165 -509.774779 
L 564.629359 -514.216432 
L 564.270139 -518.658084 
L 564.333903 -523.099736 
L 564.470044 -527.541388 
L 564.334895 -531.983041 
L 563.748325 -536.424693 
L 562.789695 -540.866345 
L 561.783487 -545.307997 
L 561.168151 -549.749649 
L 561.325013 -554.191302 
L 562.469052 -558.632954 
L 564.640833 -563.074606 
L 567.761623 -567.516258 
L 571.694409 -571.957911 
L 576.281268 -576.399563 
L 581.348982 -580.841215 
L 586.680311 -585.282867 
L 591.970347 -589.72452 
L 596.824772 -594.166172 
L 600.85445 -598.607824 
L 603.846611 -603.049476 
L 605.903952 -607.491128 
L 607.436353 -611.932781 
L 608.988832 -616.374433 
L 611.008275 -620.816085 
L 613.685522 -625.257737 
L 616.940493 -629.69939 
L 620.51957 -634.141042 
L 624.125078 -638.582694 
L 627.512712 -643.024346 
L 630.536902 -647.465999 
L 633.155986 -651.907651 
L 635.41476 -656.349303 
L 637.412212 -660.790955 
L 639.256515 -665.232608 
L 641.017328 -669.67426 
L 642.697182 -674.115912 
L 644.239703 -678.557564 
L 645.569337 -682.999216 
L 646.634882 -687.440869 
L 647.429669 -691.882521 
L 647.983373 -696.324173 
L 648.341803 -700.765825 
L 648.553128 -705.207478 
L 648.665095 -709.64913 
L 648.725244 -714.090782 
L 648.776323 -718.532434 
L 648.847536 -722.974087 
L 648.948239 -727.415739 
L 649.06931 -731.857391 
L 649.191705 -736.299043 
L 649.297162 -740.740696 
L 649.375506 -745.182348 
L 649.426068 -749.624 
L 649.478012 -749.624 
L 649.478012 -749.624 
L 649.478012 -745.182348 
L 649.478012 -740.740696 
L 649.478012 -736.299043 
L 649.478012 -731.857391 
L 649.478012 -727.415739 
L 649.478012 -722.974087 
L 649.478012 -718.532434 
L 649.478012 -714.090782 
L 649.478012 -709.64913 
L 649.478012 -705.207478 
L 649.478012 -700.765825 
L 649.478012 -696.324173 
L 649.478012 -691.882521 
L 649.478012 -687.440869 
L 649.478012 -682.999216 
L 649.478012 -678.557564 
L 649.478012 -674.115912 
L 649.478012 -669.67426 
L 649.478012 -665.232608 
L 649.478012 -660.790955 
L 649.478012 -656.349303 
L 649.478012 -651.907651 
L 649.478012 -647.465999 
L 649.478012 -643.024346 
L 649.478012 -638.582694 
L 649.478012 -634.141042 
L 649.478012 -629.69939 
L 649.478012 -625.257737 
L 649.478012 -620.816085 
L 649.478012 -616.374433 
L 649.478012 -611.932781 
L 649.478012 -607.491128 
L 649.478012 -603.049476 
L 649.478012 -598.607824 
L 649.478012 -594.166172 
L 649.478012 -589.72452 
L 649.478012 -585.282867 
L 649.478012 -580.841215 
L 649.478012 -576.399563 
L 649.478012 -571.957911 
L 649.478012 -567.516258 
L 649.478012 -563.074606 
L 649.478012 -558.632954 
L 649.478012 -554.191302 
L 649.478012 -549.749649 
L 649.478012 -545.307997 
L 649.478012 -540.866345 
L 649.478012 -536.424693 
L 649.478012 -531.983041 
L 649.478012 -527.541388 
L 649.478012 -523.099736 
L 649.478012 -518.658084 
L 649.478012 -514.216432 
L 649.478012 -509.774779 
L 649.478012 -505.333127 
L 649.478012 -500.891475 
L 649.478012 -496.449823 
L 649.478012 -492.00817 
L 649.478012 -487.566518 
L 649.478012 -483.124866 
L 649.478012 -478.683214 
L 649.478012 -474.241561 
L 649.478012 -469.799909 
L 649.478012 -465.358257 
L 649.478012 -460.916605 
L 649.478012 -456.474953 
L 649.478012 -452.0333 
L 649.478012 -447.591648 
L 649.478012 -443.149996 
L 649.478012 -438.708344 
L 649.478012 -434.266691 
L 649.478012 -429.825039 
L 649.478012 -425.383387 
L 649.478012 -420.941735 
L 649.478012 -416.500082 
L 649.478012 -412.05843 
L 649.478012 -407.616778 
L 649.478012 -403.175126 
L 649.478012 -398.733473 
L 649.478012 -394.291821 
L 649.478012 -389.850169 
L 649.478012 -385.408517 
L 649.478012 -380.966865 
L 649.478012 -376.525212 
L 649.478012 -372.08356 
L 649.478012 -367.641908 
L 649.478012 -363.200256 
L 649.478012 -358.758603 
L 649.478012 -354.316951 
L 649.478012 -349.875299 
L 649.478012 -345.433647 
L 649.478012 -340.991994 
L 649.478012 -336.550342 
L 649.478012 -332.10869 
L 649.478012 -327.667038 
L 649.478012 -323.225385 
L 649.478012 -318.783733 
L 649.478012 -314.342081 
L 649.478012 -309.900429 
z
" style="stroke: #3f3f3f; stroke-width: 1.25"/>
    </defs>
    <g clip-path="url(#pc0c0ca8abe)">
     <use xlink:href="#mefede6b4a1" x="0" y="864" style="fill: #3274a1; stroke: #3f3f3f; stroke-width: 1.25"/>
    </g>
   </g>
   <g id="PolyCollection_4">
    <defs>
     <path id="md0affb7786" d="M 649.976857 -246.81982 
L 649.478012 -246.81982 
L 649.478012 -246.998784 
L 649.478012 -247.177747 
L 649.478012 -247.356711 
L 649.478012 -247.535674 
L 649.478012 -247.714638 
L 649.478012 -247.893602 
L 649.478012 -248.072565 
L 649.478012 -248.251529 
L 649.478012 -248.430492 
L 649.478012 -248.609456 
L 649.478012 -248.78842 
L 649.478012 -248.967383 
L 649.478012 -249.146347 
L 649.478012 -249.32531 
L 649.478012 -249.504274 
L 649.478012 -249.683238 
L 649.478012 -249.862201 
L 649.478012 -250.041165 
L 649.478012 -250.220128 
L 649.478012 -250.399092 
L 649.478012 -250.578056 
L 649.478012 -250.757019 
L 649.478012 -250.935983 
L 649.478012 -251.114946 
L 649.478012 -251.29391 
L 649.478012 -251.472874 
L 649.478012 -251.651837 
L 649.478012 -251.830801 
L 649.478012 -252.009764 
L 649.478012 -252.188728 
L 649.478012 -252.367692 
L 649.478012 -252.546655 
L 649.478012 -252.725619 
L 649.478012 -252.904582 
L 649.478012 -253.083546 
L 649.478012 -253.26251 
L 649.478012 -253.441473 
L 649.478012 -253.620437 
L 649.478012 -253.7994 
L 649.478012 -253.978364 
L 649.478012 -254.157328 
L 649.478012 -254.336291 
L 649.478012 -254.515255 
L 649.478012 -254.694218 
L 649.478012 -254.873182 
L 649.478012 -255.052146 
L 649.478012 -255.231109 
L 649.478012 -255.410073 
L 649.478012 -255.589036 
L 649.478012 -255.768 
L 649.478012 -255.946964 
L 649.478012 -256.125927 
L 649.478012 -256.304891 
L 649.478012 -256.483854 
L 649.478012 -256.662818 
L 649.478012 -256.841782 
L 649.478012 -257.020745 
L 649.478012 -257.199709 
L 649.478012 -257.378672 
L 649.478012 -257.557636 
L 649.478012 -257.7366 
L 649.478012 -257.915563 
L 649.478012 -258.094527 
L 649.478012 -258.27349 
L 649.478012 -258.452454 
L 649.478012 -258.631418 
L 649.478012 -258.810381 
L 649.478012 -258.989345 
L 649.478012 -259.168308 
L 649.478012 -259.347272 
L 649.478012 -259.526236 
L 649.478012 -259.705199 
L 649.478012 -259.884163 
L 649.478012 -260.063126 
L 649.478012 -260.24209 
L 649.478012 -260.421054 
L 649.478012 -260.600017 
L 649.478012 -260.778981 
L 649.478012 -260.957944 
L 649.478012 -261.136908 
L 649.478012 -261.315872 
L 649.478012 -261.494835 
L 649.478012 -261.673799 
L 649.478012 -261.852762 
L 649.478012 -262.031726 
L 649.478012 -262.21069 
L 649.478012 -262.389653 
L 649.478012 -262.568617 
L 649.478012 -262.74758 
L 649.478012 -262.926544 
L 649.478012 -263.105508 
L 649.478012 -263.284471 
L 649.478012 -263.463435 
L 649.478012 -263.642398 
L 649.478012 -263.821362 
L 649.478012 -264.000326 
L 649.478012 -264.179289 
L 649.478012 -264.358253 
L 649.478012 -264.537217 
L 649.504337 -264.537217 
L 649.504337 -264.537217 
L 649.541089 -264.358253 
L 649.595985 -264.179289 
L 649.650795 -264.000326 
L 649.678512 -263.821362 
L 649.669898 -263.642398 
L 649.647514 -263.463435 
L 649.643432 -263.284471 
L 649.663162 -263.105508 
L 649.679301 -262.926544 
L 649.662732 -262.74758 
L 649.61335 -262.568617 
L 649.556113 -262.389653 
L 649.514734 -262.21069 
L 649.497628 -262.031726 
L 649.504741 -261.852762 
L 649.536399 -261.673799 
L 649.588994 -261.494835 
L 649.644166 -261.315872 
L 649.672122 -261.136908 
L 649.654822 -260.957944 
L 649.603574 -260.778981 
L 649.547531 -260.600017 
L 649.508021 -260.421054 
L 649.488119 -260.24209 
L 649.48073 -260.063126 
L 649.478997 -259.884163 
L 649.480343 -259.705199 
L 649.48695 -259.526236 
L 649.506091 -259.347272 
L 649.548857 -259.168308 
L 649.62525 -258.989345 
L 649.740527 -258.810381 
L 649.897726 -258.631418 
L 650.093519 -258.452454 
L 650.296556 -258.27349 
L 650.445014 -258.094527 
L 650.503744 -257.915563 
L 650.526323 -257.7366 
L 650.625435 -257.557636 
L 650.873637 -257.378672 
L 651.262656 -257.199709 
L 651.764535 -257.020745 
L 652.37817 -256.841782 
L 653.063418 -256.662818 
L 653.666098 -256.483854 
L 654.002107 -256.304891 
L 654.042556 -256.125927 
L 653.975476 -255.946964 
L 654.089024 -255.768 
L 654.610849 -255.589036 
L 655.598317 -255.410073 
L 656.932411 -255.231109 
L 658.449282 -255.052146 
L 660.081247 -254.873182 
L 661.832671 -254.694218 
L 663.660329 -254.515255 
L 665.485374 -254.336291 
L 667.369187 -254.157328 
L 669.569641 -253.978364 
L 672.263171 -253.7994 
L 675.251796 -253.620437 
L 678.122261 -253.441473 
L 680.687344 -253.26251 
L 683.142167 -253.083546 
L 685.821236 -252.904582 
L 688.935265 -252.725619 
L 692.588175 -252.546655 
L 697.035597 -252.367692 
L 702.840876 -252.188728 
L 710.541465 -252.009764 
L 719.996481 -251.830801 
L 730.158668 -251.651837 
L 739.589699 -251.472874 
L 747.211302 -251.29391 
L 752.78178 -251.114946 
L 756.961989 -250.935983 
L 760.858213 -250.757019 
L 765.238511 -250.578056 
L 770.160236 -250.399092 
L 775.294335 -250.220128 
L 780.29607 -250.041165 
L 784.778942 -249.862201 
L 788.23424 -249.683238 
L 790.197885 -249.504274 
L 790.524091 -249.32531 
L 789.507723 -249.146347 
L 787.652952 -248.967383 
L 785.087513 -248.78842 
L 780.938435 -248.609456 
L 773.231377 -248.430492 
L 759.84987 -248.251529 
L 740.291594 -248.072565 
L 716.794204 -247.893602 
L 693.564087 -247.714638 
L 674.578754 -247.535674 
L 661.727832 -247.356711 
L 654.536405 -247.177747 
L 651.224535 -246.998784 
L 649.976857 -246.81982 
z
" style="stroke: #3f3f3f; stroke-width: 1.25"/>
    </defs>
    <g clip-path="url(#pc0c0ca8abe)">
     <use xlink:href="#md0affb7786" x="0" y="864" style="fill: #e1812c; stroke: #3f3f3f; stroke-width: 1.25"/>
    </g>
   </g>
   <g id="patch_3">
    <path d="M 274.229943 616.666355 
L 274.229943 616.666355 
L 274.229943 616.666355 
L 274.229943 616.666355 
z
" clip-path="url(#pc0c0ca8abe)" style="fill: #3274a1; stroke: #3f3f3f; stroke-width: 1.25; stroke-linejoin: miter"/>
   </g>
   <g id="patch_4">
    <path d="M 274.229943 616.666355 
L 274.229943 616.666355 
L 274.229943 616.666355 
L 274.229943 616.666355 
z
" clip-path="url(#pc0c0ca8abe)" style="fill: #e1812c; stroke: #3f3f3f; stroke-width: 1.25; stroke-linejoin: miter"/>
   </g>
   <g id="patch_5">
    <path d="M 86.605909 642.4 
L 461.853978 642.4 
L 461.853978 89.232 
L 86.605909 89.232 
z
" clip-path="url(#pc0c0ca8abe)" style="fill: #808080; opacity: 0.1; stroke: #808080; stroke-linejoin: miter"/>
   </g>
   <g id="matplotlib.axis_1">
    <g id="xtick_1">
     <g id="line2d_1">
      <defs>
       <path id="m89b01bcf7d" d="M 0 0 
L 0 3.5 
" style="stroke: #000000; stroke-width: 0.8"/>
      </defs>
      <g>
       <use xlink:href="#m89b01bcf7d" x="274.229943" y="642.4" style="stroke: #000000; stroke-width: 0.8"/>
      </g>
     </g>
     <g id="text_1">
      <!-- Mutual Information Score - X as Truth -->
      <g transform="translate(276.989318 835.623437) rotate(-90) scale(0.1 -0.1)">
       <defs>
        <path id="DejaVuSans-4d" d="M 628 4666 
L 1569 4666 
L 2759 1491 
L 3956 4666 
L 4897 4666 
L 4897 0 
L 4281 0 
L 4281 4097 
L 3078 897 
L 2444 897 
L 1241 4097 
L 1241 0 
L 628 0 
L 628 4666 
z
" transform="scale(0.015625)"/>
        <path id="DejaVuSans-75" d="M 544 1381 
L 544 3500 
L 1119 3500 
L 1119 1403 
Q 1119 906 1312 657 
Q 1506 409 1894 409 
Q 2359 409 2629 706 
Q 2900 1003 2900 1516 
L 2900 3500 
L 3475 3500 
L 3475 0 
L 2900 0 
L 2900 538 
Q 2691 219 2414 64 
Q 2138 -91 1772 -91 
Q 1169 -91 856 284 
Q 544 659 544 1381 
z
M 1991 3584 
L 1991 3584 
z
" transform="scale(0.015625)"/>
        <path id="DejaVuSans-74" d="M 1172 4494 
L 1172 3500 
L 2356 3500 
L 2356 3053 
L 1172 3053 
L 1172 1153 
Q 1172 725 1289 603 
Q 1406 481 1766 481 
L 2356 481 
L 2356 0 
L 1766 0 
Q 1100 0 847 248 
Q 594 497 594 1153 
L 594 3053 
L 172 3053 
L 172 3500 
L 594 3500 
L 594 4494 
L 1172 4494 
z
" transform="scale(0.015625)"/>
        <path id="DejaVuSans-61" d="M 2194 1759 
Q 1497 1759 1228 1600 
Q 959 1441 959 1056 
Q 959 750 1161 570 
Q 1363 391 1709 391 
Q 2188 391 2477 730 
Q 2766 1069 2766 1631 
L 2766 1759 
L 2194 1759 
z
M 3341 1997 
L 3341 0 
L 2766 0 
L 2766 531 
Q 2569 213 2275 61 
Q 1981 -91 1556 -91 
Q 1019 -91 701 211 
Q 384 513 384 1019 
Q 384 1609 779 1909 
Q 1175 2209 1959 2209 
L 2766 2209 
L 2766 2266 
Q 2766 2663 2505 2880 
Q 2244 3097 1772 3097 
Q 1472 3097 1187 3025 
Q 903 2953 641 2809 
L 641 3341 
Q 956 3463 1253 3523 
Q 1550 3584 1831 3584 
Q 2591 3584 2966 3190 
Q 3341 2797 3341 1997 
z
" transform="scale(0.015625)"/>
        <path id="DejaVuSans-6c" d="M 603 4863 
L 1178 4863 
L 1178 0 
L 603 0 
L 603 4863 
z
" transform="scale(0.015625)"/>
        <path id="DejaVuSans-20" transform="scale(0.015625)"/>
        <path id="DejaVuSans-49" d="M 628 4666 
L 1259 4666 
L 1259 0 
L 628 0 
L 628 4666 
z
" transform="scale(0.015625)"/>
        <path id="DejaVuSans-6e" d="M 3513 2113 
L 3513 0 
L 2938 0 
L 2938 2094 
Q 2938 2591 2744 2837 
Q 2550 3084 2163 3084 
Q 1697 3084 1428 2787 
Q 1159 2491 1159 1978 
L 1159 0 
L 581 0 
L 581 3500 
L 1159 3500 
L 1159 2956 
Q 1366 3272 1645 3428 
Q 1925 3584 2291 3584 
Q 2894 3584 3203 3211 
Q 3513 2838 3513 2113 
z
" transform="scale(0.015625)"/>
        <path id="DejaVuSans-66" d="M 2375 4863 
L 2375 4384 
L 1825 4384 
Q 1516 4384 1395 4259 
Q 1275 4134 1275 3809 
L 1275 3500 
L 2222 3500 
L 2222 3053 
L 1275 3053 
L 1275 0 
L 697 0 
L 697 3053 
L 147 3053 
L 147 3500 
L 697 3500 
L 697 3744 
Q 697 4328 969 4595 
Q 1241 4863 1831 4863 
L 2375 4863 
z
" transform="scale(0.015625)"/>
        <path id="DejaVuSans-6f" d="M 1959 3097 
Q 1497 3097 1228 2736 
Q 959 2375 959 1747 
Q 959 1119 1226 758 
Q 1494 397 1959 397 
Q 2419 397 2687 759 
Q 2956 1122 2956 1747 
Q 2956 2369 2687 2733 
Q 2419 3097 1959 3097 
z
M 1959 3584 
Q 2709 3584 3137 3096 
Q 3566 2609 3566 1747 
Q 3566 888 3137 398 
Q 2709 -91 1959 -91 
Q 1206 -91 779 398 
Q 353 888 353 1747 
Q 353 2609 779 3096 
Q 1206 3584 1959 3584 
z
" transform="scale(0.015625)"/>
        <path id="DejaVuSans-72" d="M 2631 2963 
Q 2534 3019 2420 3045 
Q 2306 3072 2169 3072 
Q 1681 3072 1420 2755 
Q 1159 2438 1159 1844 
L 1159 0 
L 581 0 
L 581 3500 
L 1159 3500 
L 1159 2956 
Q 1341 3275 1631 3429 
Q 1922 3584 2338 3584 
Q 2397 3584 2469 3576 
Q 2541 3569 2628 3553 
L 2631 2963 
z
" transform="scale(0.015625)"/>
        <path id="DejaVuSans-6d" d="M 3328 2828 
Q 3544 3216 3844 3400 
Q 4144 3584 4550 3584 
Q 5097 3584 5394 3201 
Q 5691 2819 5691 2113 
L 5691 0 
L 5113 0 
L 5113 2094 
Q 5113 2597 4934 2840 
Q 4756 3084 4391 3084 
Q 3944 3084 3684 2787 
Q 3425 2491 3425 1978 
L 3425 0 
L 2847 0 
L 2847 2094 
Q 2847 2600 2669 2842 
Q 2491 3084 2119 3084 
Q 1678 3084 1418 2786 
Q 1159 2488 1159 1978 
L 1159 0 
L 581 0 
L 581 3500 
L 1159 3500 
L 1159 2956 
Q 1356 3278 1631 3431 
Q 1906 3584 2284 3584 
Q 2666 3584 2933 3390 
Q 3200 3197 3328 2828 
z
" transform="scale(0.015625)"/>
        <path id="DejaVuSans-69" d="M 603 3500 
L 1178 3500 
L 1178 0 
L 603 0 
L 603 3500 
z
M 603 4863 
L 1178 4863 
L 1178 4134 
L 603 4134 
L 603 4863 
z
" transform="scale(0.015625)"/>
        <path id="DejaVuSans-53" d="M 3425 4513 
L 3425 3897 
Q 3066 4069 2747 4153 
Q 2428 4238 2131 4238 
Q 1616 4238 1336 4038 
Q 1056 3838 1056 3469 
Q 1056 3159 1242 3001 
Q 1428 2844 1947 2747 
L 2328 2669 
Q 3034 2534 3370 2195 
Q 3706 1856 3706 1288 
Q 3706 609 3251 259 
Q 2797 -91 1919 -91 
Q 1588 -91 1214 -16 
Q 841 59 441 206 
L 441 856 
Q 825 641 1194 531 
Q 1563 422 1919 422 
Q 2459 422 2753 634 
Q 3047 847 3047 1241 
Q 3047 1584 2836 1778 
Q 2625 1972 2144 2069 
L 1759 2144 
Q 1053 2284 737 2584 
Q 422 2884 422 3419 
Q 422 4038 858 4394 
Q 1294 4750 2059 4750 
Q 2388 4750 2728 4690 
Q 3069 4631 3425 4513 
z
" transform="scale(0.015625)"/>
        <path id="DejaVuSans-63" d="M 3122 3366 
L 3122 2828 
Q 2878 2963 2633 3030 
Q 2388 3097 2138 3097 
Q 1578 3097 1268 2742 
Q 959 2388 959 1747 
Q 959 1106 1268 751 
Q 1578 397 2138 397 
Q 2388 397 2633 464 
Q 2878 531 3122 666 
L 3122 134 
Q 2881 22 2623 -34 
Q 2366 -91 2075 -91 
Q 1284 -91 818 406 
Q 353 903 353 1747 
Q 353 2603 823 3093 
Q 1294 3584 2113 3584 
Q 2378 3584 2631 3529 
Q 2884 3475 3122 3366 
z
" transform="scale(0.015625)"/>
        <path id="DejaVuSans-65" d="M 3597 1894 
L 3597 1613 
L 953 1613 
Q 991 1019 1311 708 
Q 1631 397 2203 397 
Q 2534 397 2845 478 
Q 3156 559 3463 722 
L 3463 178 
Q 3153 47 2828 -22 
Q 2503 -91 2169 -91 
Q 1331 -91 842 396 
Q 353 884 353 1716 
Q 353 2575 817 3079 
Q 1281 3584 2069 3584 
Q 2775 3584 3186 3129 
Q 3597 2675 3597 1894 
z
M 3022 2063 
Q 3016 2534 2758 2815 
Q 2500 3097 2075 3097 
Q 1594 3097 1305 2825 
Q 1016 2553 972 2059 
L 3022 2063 
z
" transform="scale(0.015625)"/>
        <path id="DejaVuSans-2d" d="M 313 2009 
L 1997 2009 
L 1997 1497 
L 313 1497 
L 313 2009 
z
" transform="scale(0.015625)"/>
        <path id="DejaVuSans-58" d="M 403 4666 
L 1081 4666 
L 2241 2931 
L 3406 4666 
L 4084 4666 
L 2584 2425 
L 4184 0 
L 3506 0 
L 2194 1984 
L 872 0 
L 191 0 
L 1856 2491 
L 403 4666 
z
" transform="scale(0.015625)"/>
        <path id="DejaVuSans-73" d="M 2834 3397 
L 2834 2853 
Q 2591 2978 2328 3040 
Q 2066 3103 1784 3103 
Q 1356 3103 1142 2972 
Q 928 2841 928 2578 
Q 928 2378 1081 2264 
Q 1234 2150 1697 2047 
L 1894 2003 
Q 2506 1872 2764 1633 
Q 3022 1394 3022 966 
Q 3022 478 2636 193 
Q 2250 -91 1575 -91 
Q 1294 -91 989 -36 
Q 684 19 347 128 
L 347 722 
Q 666 556 975 473 
Q 1284 391 1588 391 
Q 1994 391 2212 530 
Q 2431 669 2431 922 
Q 2431 1156 2273 1281 
Q 2116 1406 1581 1522 
L 1381 1569 
Q 847 1681 609 1914 
Q 372 2147 372 2553 
Q 372 3047 722 3315 
Q 1072 3584 1716 3584 
Q 2034 3584 2315 3537 
Q 2597 3491 2834 3397 
z
" transform="scale(0.015625)"/>
        <path id="DejaVuSans-54" d="M -19 4666 
L 3928 4666 
L 3928 4134 
L 2272 4134 
L 2272 0 
L 1638 0 
L 1638 4134 
L -19 4134 
L -19 4666 
z
" transform="scale(0.015625)"/>
        <path id="DejaVuSans-68" d="M 3513 2113 
L 3513 0 
L 2938 0 
L 2938 2094 
Q 2938 2591 2744 2837 
Q 2550 3084 2163 3084 
Q 1697 3084 1428 2787 
Q 1159 2491 1159 1978 
L 1159 0 
L 581 0 
L 581 4863 
L 1159 4863 
L 1159 2956 
Q 1366 3272 1645 3428 
Q 1925 3584 2291 3584 
Q 2894 3584 3203 3211 
Q 3513 2838 3513 2113 
z
" transform="scale(0.015625)"/>
       </defs>
       <use xlink:href="#DejaVuSans-4d"/>
       <use xlink:href="#DejaVuSans-75" x="86.279297"/>
       <use xlink:href="#DejaVuSans-74" x="149.658203"/>
       <use xlink:href="#DejaVuSans-75" x="188.867188"/>
       <use xlink:href="#DejaVuSans-61" x="252.246094"/>
       <use xlink:href="#DejaVuSans-6c" x="313.525391"/>
       <use xlink:href="#DejaVuSans-20" x="341.308594"/>
       <use xlink:href="#DejaVuSans-49" x="373.095703"/>
       <use xlink:href="#DejaVuSans-6e" x="402.587891"/>
       <use xlink:href="#DejaVuSans-66" x="465.966797"/>
       <use xlink:href="#DejaVuSans-6f" x="501.171875"/>
       <use xlink:href="#DejaVuSans-72" x="562.353516"/>
       <use xlink:href="#DejaVuSans-6d" x="601.716797"/>
       <use xlink:href="#DejaVuSans-61" x="699.128906"/>
       <use xlink:href="#DejaVuSans-74" x="760.408203"/>
       <use xlink:href="#DejaVuSans-69" x="799.617188"/>
       <use xlink:href="#DejaVuSans-6f" x="827.400391"/>
       <use xlink:href="#DejaVuSans-6e" x="888.582031"/>
       <use xlink:href="#DejaVuSans-20" x="951.960938"/>
       <use xlink:href="#DejaVuSans-53" x="983.748047"/>
       <use xlink:href="#DejaVuSans-63" x="1047.224609"/>
       <use xlink:href="#DejaVuSans-6f" x="1102.205078"/>
       <use xlink:href="#DejaVuSans-72" x="1163.386719"/>
       <use xlink:href="#DejaVuSans-65" x="1202.25"/>
       <use xlink:href="#DejaVuSans-20" x="1263.773438"/>
       <use xlink:href="#DejaVuSans-2d" x="1295.560547"/>
       <use xlink:href="#DejaVuSans-20" x="1331.644531"/>
       <use xlink:href="#DejaVuSans-58" x="1363.431641"/>
       <use xlink:href="#DejaVuSans-20" x="1431.9375"/>
       <use xlink:href="#DejaVuSans-61" x="1463.724609"/>
       <use xlink:href="#DejaVuSans-73" x="1525.003906"/>
       <use xlink:href="#DejaVuSans-20" x="1577.103516"/>
       <use xlink:href="#DejaVuSans-54" x="1608.890625"/>
       <use xlink:href="#DejaVuSans-72" x="1655.224609"/>
       <use xlink:href="#DejaVuSans-75" x="1696.337891"/>
       <use xlink:href="#DejaVuSans-74" x="1759.716797"/>
       <use xlink:href="#DejaVuSans-68" x="1798.925781"/>
      </g>
     </g>
    </g>
    <g id="xtick_2">
     <g id="line2d_2">
      <g>
       <use xlink:href="#m89b01bcf7d" x="649.478012" y="642.4" style="stroke: #000000; stroke-width: 0.8"/>
      </g>
     </g>
     <g id="text_2">
      <!-- Mutual Information Score - Y as Truth -->
      <g transform="translate(652.237387 834.88125) rotate(-90) scale(0.1 -0.1)">
       <defs>
        <path id="DejaVuSans-59" d="M -13 4666 
L 666 4666 
L 1959 2747 
L 3244 4666 
L 3922 4666 
L 2272 2222 
L 2272 0 
L 1638 0 
L 1638 2222 
L -13 4666 
z
" transform="scale(0.015625)"/>
       </defs>
       <use xlink:href="#DejaVuSans-4d"/>
       <use xlink:href="#DejaVuSans-75" x="86.279297"/>
       <use xlink:href="#DejaVuSans-74" x="149.658203"/>
       <use xlink:href="#DejaVuSans-75" x="188.867188"/>
       <use xlink:href="#DejaVuSans-61" x="252.246094"/>
       <use xlink:href="#DejaVuSans-6c" x="313.525391"/>
       <use xlink:href="#DejaVuSans-20" x="341.308594"/>
       <use xlink:href="#DejaVuSans-49" x="373.095703"/>
       <use xlink:href="#DejaVuSans-6e" x="402.587891"/>
       <use xlink:href="#DejaVuSans-66" x="465.966797"/>
       <use xlink:href="#DejaVuSans-6f" x="501.171875"/>
       <use xlink:href="#DejaVuSans-72" x="562.353516"/>
       <use xlink:href="#DejaVuSans-6d" x="601.716797"/>
       <use xlink:href="#DejaVuSans-61" x="699.128906"/>
       <use xlink:href="#DejaVuSans-74" x="760.408203"/>
       <use xlink:href="#DejaVuSans-69" x="799.617188"/>
       <use xlink:href="#DejaVuSans-6f" x="827.400391"/>
       <use xlink:href="#DejaVuSans-6e" x="888.582031"/>
       <use xlink:href="#DejaVuSans-20" x="951.960938"/>
       <use xlink:href="#DejaVuSans-53" x="983.748047"/>
       <use xlink:href="#DejaVuSans-63" x="1047.224609"/>
       <use xlink:href="#DejaVuSans-6f" x="1102.205078"/>
       <use xlink:href="#DejaVuSans-72" x="1163.386719"/>
       <use xlink:href="#DejaVuSans-65" x="1202.25"/>
       <use xlink:href="#DejaVuSans-20" x="1263.773438"/>
       <use xlink:href="#DejaVuSans-2d" x="1295.560547"/>
       <use xlink:href="#DejaVuSans-20" x="1331.644531"/>
       <use xlink:href="#DejaVuSans-59" x="1363.431641"/>
       <use xlink:href="#DejaVuSans-20" x="1424.515625"/>
       <use xlink:href="#DejaVuSans-61" x="1456.302734"/>
       <use xlink:href="#DejaVuSans-73" x="1517.582031"/>
       <use xlink:href="#DejaVuSans-20" x="1569.681641"/>
       <use xlink:href="#DejaVuSans-54" x="1601.46875"/>
       <use xlink:href="#DejaVuSans-72" x="1647.802734"/>
       <use xlink:href="#DejaVuSans-75" x="1688.916016"/>
       <use xlink:href="#DejaVuSans-74" x="1752.294922"/>
       <use xlink:href="#DejaVuSans-68" x="1791.503906"/>
      </g>
     </g>
    </g>
    <g id="text_3">
     <!-- Statistical Test -->
     <g transform="translate(387.971406 850.26125) scale(0.14 -0.14)">
      <use xlink:href="#DejaVuSans-53"/>
      <use xlink:href="#DejaVuSans-74" x="63.476562"/>
      <use xlink:href="#DejaVuSans-61" x="102.685547"/>
      <use xlink:href="#DejaVuSans-74" x="163.964844"/>
      <use xlink:href="#DejaVuSans-69" x="203.173828"/>
      <use xlink:href="#DejaVuSans-73" x="230.957031"/>
      <use xlink:href="#DejaVuSans-74" x="283.056641"/>
      <use xlink:href="#DejaVuSans-69" x="322.265625"/>
      <use xlink:href="#DejaVuSans-63" x="350.048828"/>
      <use xlink:href="#DejaVuSans-61" x="405.029297"/>
      <use xlink:href="#DejaVuSans-6c" x="466.308594"/>
      <use xlink:href="#DejaVuSans-20" x="494.091797"/>
      <use xlink:href="#DejaVuSans-54" x="525.878906"/>
      <use xlink:href="#DejaVuSans-65" x="569.962891"/>
      <use xlink:href="#DejaVuSans-73" x="631.486328"/>
      <use xlink:href="#DejaVuSans-74" x="683.585938"/>
     </g>
    </g>
   </g>
   <g id="matplotlib.axis_2">
    <g id="ytick_1">
     <g id="line2d_3">
      <defs>
       <path id="m2becb3ea84" d="M 0 0 
L -3.5 0 
" style="stroke: #000000; stroke-width: 0.8"/>
      </defs>
      <g>
       <use xlink:href="#m2becb3ea84" x="51.41" y="616.666355" style="stroke: #000000; stroke-width: 0.8"/>
      </g>
     </g>
     <g id="text_4">
      <!-- 0.0 -->
      <g transform="translate(28.506875 620.465574) scale(0.1 -0.1)">
       <defs>
        <path id="DejaVuSans-30" d="M 2034 4250 
Q 1547 4250 1301 3770 
Q 1056 3291 1056 2328 
Q 1056 1369 1301 889 
Q 1547 409 2034 409 
Q 2525 409 2770 889 
Q 3016 1369 3016 2328 
Q 3016 3291 2770 3770 
Q 2525 4250 2034 4250 
z
M 2034 4750 
Q 2819 4750 3233 4129 
Q 3647 3509 3647 2328 
Q 3647 1150 3233 529 
Q 2819 -91 2034 -91 
Q 1250 -91 836 529 
Q 422 1150 422 2328 
Q 422 3509 836 4129 
Q 1250 4750 2034 4750 
z
" transform="scale(0.015625)"/>
        <path id="DejaVuSans-2e" d="M 684 794 
L 1344 794 
L 1344 0 
L 684 0 
L 684 794 
z
" transform="scale(0.015625)"/>
       </defs>
       <use xlink:href="#DejaVuSans-30"/>
       <use xlink:href="#DejaVuSans-2e" x="63.623047"/>
       <use xlink:href="#DejaVuSans-30" x="95.410156"/>
      </g>
     </g>
    </g>
    <g id="ytick_2">
     <g id="line2d_4">
      <g>
       <use xlink:href="#m2becb3ea84" x="51.41" y="551.182478" style="stroke: #000000; stroke-width: 0.8"/>
      </g>
     </g>
     <g id="text_5">
      <!-- 0.2 -->
      <g transform="translate(28.506875 554.981697) scale(0.1 -0.1)">
       <defs>
        <path id="DejaVuSans-32" d="M 1228 531 
L 3431 531 
L 3431 0 
L 469 0 
L 469 531 
Q 828 903 1448 1529 
Q 2069 2156 2228 2338 
Q 2531 2678 2651 2914 
Q 2772 3150 2772 3378 
Q 2772 3750 2511 3984 
Q 2250 4219 1831 4219 
Q 1534 4219 1204 4116 
Q 875 4013 500 3803 
L 500 4441 
Q 881 4594 1212 4672 
Q 1544 4750 1819 4750 
Q 2544 4750 2975 4387 
Q 3406 4025 3406 3419 
Q 3406 3131 3298 2873 
Q 3191 2616 2906 2266 
Q 2828 2175 2409 1742 
Q 1991 1309 1228 531 
z
" transform="scale(0.015625)"/>
       </defs>
       <use xlink:href="#DejaVuSans-30"/>
       <use xlink:href="#DejaVuSans-2e" x="63.623047"/>
       <use xlink:href="#DejaVuSans-32" x="95.410156"/>
      </g>
     </g>
    </g>
    <g id="ytick_3">
     <g id="line2d_5">
      <g>
       <use xlink:href="#m2becb3ea84" x="51.41" y="485.698601" style="stroke: #000000; stroke-width: 0.8"/>
      </g>
     </g>
     <g id="text_6">
      <!-- 0.4 -->
      <g transform="translate(28.506875 489.49782) scale(0.1 -0.1)">
       <defs>
        <path id="DejaVuSans-34" d="M 2419 4116 
L 825 1625 
L 2419 1625 
L 2419 4116 
z
M 2253 4666 
L 3047 4666 
L 3047 1625 
L 3713 1625 
L 3713 1100 
L 3047 1100 
L 3047 0 
L 2419 0 
L 2419 1100 
L 313 1100 
L 313 1709 
L 2253 4666 
z
" transform="scale(0.015625)"/>
       </defs>
       <use xlink:href="#DejaVuSans-30"/>
       <use xlink:href="#DejaVuSans-2e" x="63.623047"/>
       <use xlink:href="#DejaVuSans-34" x="95.410156"/>
      </g>
     </g>
    </g>
    <g id="ytick_4">
     <g id="line2d_6">
      <g>
       <use xlink:href="#m2becb3ea84" x="51.41" y="420.214724" style="stroke: #000000; stroke-width: 0.8"/>
      </g>
     </g>
     <g id="text_7">
      <!-- 0.6 -->
      <g transform="translate(28.506875 424.013943) scale(0.1 -0.1)">
       <defs>
        <path id="DejaVuSans-36" d="M 2113 2584 
Q 1688 2584 1439 2293 
Q 1191 2003 1191 1497 
Q 1191 994 1439 701 
Q 1688 409 2113 409 
Q 2538 409 2786 701 
Q 3034 994 3034 1497 
Q 3034 2003 2786 2293 
Q 2538 2584 2113 2584 
z
M 3366 4563 
L 3366 3988 
Q 3128 4100 2886 4159 
Q 2644 4219 2406 4219 
Q 1781 4219 1451 3797 
Q 1122 3375 1075 2522 
Q 1259 2794 1537 2939 
Q 1816 3084 2150 3084 
Q 2853 3084 3261 2657 
Q 3669 2231 3669 1497 
Q 3669 778 3244 343 
Q 2819 -91 2113 -91 
Q 1303 -91 875 529 
Q 447 1150 447 2328 
Q 447 3434 972 4092 
Q 1497 4750 2381 4750 
Q 2619 4750 2861 4703 
Q 3103 4656 3366 4563 
z
" transform="scale(0.015625)"/>
       </defs>
       <use xlink:href="#DejaVuSans-30"/>
       <use xlink:href="#DejaVuSans-2e" x="63.623047"/>
       <use xlink:href="#DejaVuSans-36" x="95.410156"/>
      </g>
     </g>
    </g>
    <g id="ytick_5">
     <g id="line2d_7">
      <g>
       <use xlink:href="#m2becb3ea84" x="51.41" y="354.730847" style="stroke: #000000; stroke-width: 0.8"/>
      </g>
     </g>
     <g id="text_8">
      <!-- 0.8 -->
      <g transform="translate(28.506875 358.530066) scale(0.1 -0.1)">
       <defs>
        <path id="DejaVuSans-38" d="M 2034 2216 
Q 1584 2216 1326 1975 
Q 1069 1734 1069 1313 
Q 1069 891 1326 650 
Q 1584 409 2034 409 
Q 2484 409 2743 651 
Q 3003 894 3003 1313 
Q 3003 1734 2745 1975 
Q 2488 2216 2034 2216 
z
M 1403 2484 
Q 997 2584 770 2862 
Q 544 3141 544 3541 
Q 544 4100 942 4425 
Q 1341 4750 2034 4750 
Q 2731 4750 3128 4425 
Q 3525 4100 3525 3541 
Q 3525 3141 3298 2862 
Q 3072 2584 2669 2484 
Q 3125 2378 3379 2068 
Q 3634 1759 3634 1313 
Q 3634 634 3220 271 
Q 2806 -91 2034 -91 
Q 1263 -91 848 271 
Q 434 634 434 1313 
Q 434 1759 690 2068 
Q 947 2378 1403 2484 
z
M 1172 3481 
Q 1172 3119 1398 2916 
Q 1625 2713 2034 2713 
Q 2441 2713 2670 2916 
Q 2900 3119 2900 3481 
Q 2900 3844 2670 4047 
Q 2441 4250 2034 4250 
Q 1625 4250 1398 4047 
Q 1172 3844 1172 3481 
z
" transform="scale(0.015625)"/>
       </defs>
       <use xlink:href="#DejaVuSans-30"/>
       <use xlink:href="#DejaVuSans-2e" x="63.623047"/>
       <use xlink:href="#DejaVuSans-38" x="95.410156"/>
      </g>
     </g>
    </g>
    <g id="ytick_6">
     <g id="line2d_8">
      <g>
       <use xlink:href="#m2becb3ea84" x="51.41" y="289.24697" style="stroke: #000000; stroke-width: 0.8"/>
      </g>
     </g>
     <g id="text_9">
      <!-- 1.0 -->
      <g transform="translate(28.506875 293.046189) scale(0.1 -0.1)">
       <defs>
        <path id="DejaVuSans-31" d="M 794 531 
L 1825 531 
L 1825 4091 
L 703 3866 
L 703 4441 
L 1819 4666 
L 2450 4666 
L 2450 531 
L 3481 531 
L 3481 0 
L 794 0 
L 794 531 
z
" transform="scale(0.015625)"/>
       </defs>
       <use xlink:href="#DejaVuSans-31"/>
       <use xlink:href="#DejaVuSans-2e" x="63.623047"/>
       <use xlink:href="#DejaVuSans-30" x="95.410156"/>
      </g>
     </g>
    </g>
    <g id="ytick_7">
     <g id="line2d_9">
      <g>
       <use xlink:href="#m2becb3ea84" x="51.41" y="223.763093" style="stroke: #000000; stroke-width: 0.8"/>
      </g>
     </g>
     <g id="text_10">
      <!-- 1.2 -->
      <g transform="translate(28.506875 227.562312) scale(0.1 -0.1)">
       <use xlink:href="#DejaVuSans-31"/>
       <use xlink:href="#DejaVuSans-2e" x="63.623047"/>
       <use xlink:href="#DejaVuSans-32" x="95.410156"/>
      </g>
     </g>
    </g>
    <g id="ytick_8">
     <g id="line2d_10">
      <g>
       <use xlink:href="#m2becb3ea84" x="51.41" y="158.279216" style="stroke: #000000; stroke-width: 0.8"/>
      </g>
     </g>
     <g id="text_11">
      <!-- 1.4 -->
      <g transform="translate(28.506875 162.078435) scale(0.1 -0.1)">
       <use xlink:href="#DejaVuSans-31"/>
       <use xlink:href="#DejaVuSans-2e" x="63.623047"/>
       <use xlink:href="#DejaVuSans-34" x="95.410156"/>
      </g>
     </g>
    </g>
    <g id="ytick_9">
     <g id="line2d_11">
      <g>
       <use xlink:href="#m2becb3ea84" x="51.41" y="92.795339" style="stroke: #000000; stroke-width: 0.8"/>
      </g>
     </g>
     <g id="text_12">
      <!-- 1.6 -->
      <g transform="translate(28.506875 96.594557) scale(0.1 -0.1)">
       <use xlink:href="#DejaVuSans-31"/>
       <use xlink:href="#DejaVuSans-2e" x="63.623047"/>
       <use xlink:href="#DejaVuSans-36" x="95.410156"/>
      </g>
     </g>
    </g>
    <g id="text_13">
     <!-- Score -->
     <g transform="translate(21.595312 385.419281) rotate(-90) scale(0.14 -0.14)">
      <use xlink:href="#DejaVuSans-53"/>
      <use xlink:href="#DejaVuSans-63" x="63.476562"/>
      <use xlink:href="#DejaVuSans-6f" x="118.457031"/>
      <use xlink:href="#DejaVuSans-72" x="179.638672"/>
      <use xlink:href="#DejaVuSans-65" x="218.501953"/>
     </g>
    </g>
   </g>
   <g id="line2d_12">
    <path d="M 271.417443 528.887526 
L 271.417443 171.981014 
" clip-path="url(#pc0c0ca8abe)" style="fill: none; stroke: #3f3f3f; stroke-width: 1.875; stroke-linecap: square"/>
   </g>
   <g id="line2d_13">
    <path d="M 271.417443 394.961155 
L 271.417443 302.115632 
" clip-path="url(#pc0c0ca8abe)" style="fill: none; stroke: #3f3f3f; stroke-width: 5.625; stroke-linecap: square"/>
   </g>
   <g id="line2d_14">
    <path d="M 271.417443 355.759119 
" clip-path="url(#pc0c0ca8abe)" style="fill: none; stroke: #3f3f3f; stroke-width: 1.5; stroke-linecap: square"/>
    <defs>
     <path id="me6b6ddbb0c" d="M 2.34375 0 
L -2.34375 -0 
" style="stroke: #ffffff; stroke-width: 1.125"/>
    </defs>
    <g clip-path="url(#pc0c0ca8abe)">
     <use xlink:href="#me6b6ddbb0c" x="271.417443" y="355.759119" style="fill: #ffffff; stroke: #ffffff; stroke-width: 1.125"/>
    </g>
   </g>
   <g id="line2d_15">
    <path d="M 277.042443 616.545652 
L 277.042443 609.251922 
" clip-path="url(#pc0c0ca8abe)" style="fill: none; stroke: #3f3f3f; stroke-width: 1.875; stroke-linecap: square"/>
   </g>
   <g id="line2d_16">
    <path d="M 277.042443 615.041498 
L 277.042443 612.724943 
" clip-path="url(#pc0c0ca8abe)" style="fill: none; stroke: #3f3f3f; stroke-width: 5.625; stroke-linecap: square"/>
   </g>
   <g id="line2d_17">
    <path d="M 277.042443 613.998778 
" clip-path="url(#pc0c0ca8abe)" style="fill: none; stroke: #3f3f3f; stroke-width: 1.5; stroke-linecap: square"/>
    <g clip-path="url(#pc0c0ca8abe)">
     <use xlink:href="#me6b6ddbb0c" x="277.042443" y="613.998778" style="fill: #ffffff; stroke: #ffffff; stroke-width: 1.125"/>
    </g>
   </g>
   <g id="line2d_18">
    <path d="M 646.665512 528.887526 
L 646.665512 171.981014 
" clip-path="url(#pc0c0ca8abe)" style="fill: none; stroke: #3f3f3f; stroke-width: 1.875; stroke-linecap: square"/>
   </g>
   <g id="line2d_19">
    <path d="M 646.665512 394.961155 
L 646.665512 302.115632 
" clip-path="url(#pc0c0ca8abe)" style="fill: none; stroke: #3f3f3f; stroke-width: 5.625; stroke-linecap: square"/>
   </g>
   <g id="line2d_20">
    <path d="M 646.665512 355.759119 
" clip-path="url(#pc0c0ca8abe)" style="fill: none; stroke: #3f3f3f; stroke-width: 1.5; stroke-linecap: square"/>
    <g clip-path="url(#pc0c0ca8abe)">
     <use xlink:href="#me6b6ddbb0c" x="646.665512" y="355.759119" style="fill: #ffffff; stroke: #ffffff; stroke-width: 1.125"/>
    </g>
   </g>
   <g id="line2d_21">
    <path d="M 652.290512 616.462791 
L 652.290512 609.128719 
" clip-path="url(#pc0c0ca8abe)" style="fill: none; stroke: #3f3f3f; stroke-width: 1.875; stroke-linecap: square"/>
   </g>
   <g id="line2d_22">
    <path d="M 652.290512 615.010735 
L 652.290512 612.655148 
" clip-path="url(#pc0c0ca8abe)" style="fill: none; stroke: #3f3f3f; stroke-width: 5.625; stroke-linecap: square"/>
   </g>
   <g id="line2d_23">
    <path d="M 652.290512 613.970579 
" clip-path="url(#pc0c0ca8abe)" style="fill: none; stroke: #3f3f3f; stroke-width: 1.5; stroke-linecap: square"/>
    <g clip-path="url(#pc0c0ca8abe)">
     <use xlink:href="#me6b6ddbb0c" x="652.290512" y="613.970579" style="fill: #ffffff; stroke: #ffffff; stroke-width: 1.125"/>
    </g>
   </g>
   <g id="patch_6">
    <path d="M 51.41 642.4 
L 51.41 89.232 
" style="fill: none; stroke: #000000; stroke-width: 0.8; stroke-linejoin: miter; stroke-linecap: square"/>
   </g>
   <g id="patch_7">
    <path d="M 825.72 642.4 
L 825.72 89.232 
" style="fill: none; stroke: #000000; stroke-width: 0.8; stroke-linejoin: miter; stroke-linecap: square"/>
   </g>
   <g id="patch_8">
    <path d="M 51.41 642.4 
L 825.72 642.4 
" style="fill: none; stroke: #000000; stroke-width: 0.8; stroke-linejoin: miter; stroke-linecap: square"/>
   </g>
   <g id="patch_9">
    <path d="M 51.41 89.232 
L 825.72 89.232 
" style="fill: none; stroke: #000000; stroke-width: 0.8; stroke-linejoin: miter; stroke-linecap: square"/>
   </g>
   <g id="text_14">
    <!-- Violinplot of Scores Grouped by Statistical Test  -->
    <g transform="translate(249.7825 65.3155) scale(0.16 -0.16)">
     <defs>
      <path id="DejaVuSans-56" d="M 1831 0 
L 50 4666 
L 709 4666 
L 2188 738 
L 3669 4666 
L 4325 4666 
L 2547 0 
L 1831 0 
z
" transform="scale(0.015625)"/>
      <path id="DejaVuSans-70" d="M 1159 525 
L 1159 -1331 
L 581 -1331 
L 581 3500 
L 1159 3500 
L 1159 2969 
Q 1341 3281 1617 3432 
Q 1894 3584 2278 3584 
Q 2916 3584 3314 3078 
Q 3713 2572 3713 1747 
Q 3713 922 3314 415 
Q 2916 -91 2278 -91 
Q 1894 -91 1617 61 
Q 1341 213 1159 525 
z
M 3116 1747 
Q 3116 2381 2855 2742 
Q 2594 3103 2138 3103 
Q 1681 3103 1420 2742 
Q 1159 2381 1159 1747 
Q 1159 1113 1420 752 
Q 1681 391 2138 391 
Q 2594 391 2855 752 
Q 3116 1113 3116 1747 
z
" transform="scale(0.015625)"/>
      <path id="DejaVuSans-47" d="M 3809 666 
L 3809 1919 
L 2778 1919 
L 2778 2438 
L 4434 2438 
L 4434 434 
Q 4069 175 3628 42 
Q 3188 -91 2688 -91 
Q 1594 -91 976 548 
Q 359 1188 359 2328 
Q 359 3472 976 4111 
Q 1594 4750 2688 4750 
Q 3144 4750 3555 4637 
Q 3966 4525 4313 4306 
L 4313 3634 
Q 3963 3931 3569 4081 
Q 3175 4231 2741 4231 
Q 1884 4231 1454 3753 
Q 1025 3275 1025 2328 
Q 1025 1384 1454 906 
Q 1884 428 2741 428 
Q 3075 428 3337 486 
Q 3600 544 3809 666 
z
" transform="scale(0.015625)"/>
      <path id="DejaVuSans-64" d="M 2906 2969 
L 2906 4863 
L 3481 4863 
L 3481 0 
L 2906 0 
L 2906 525 
Q 2725 213 2448 61 
Q 2172 -91 1784 -91 
Q 1150 -91 751 415 
Q 353 922 353 1747 
Q 353 2572 751 3078 
Q 1150 3584 1784 3584 
Q 2172 3584 2448 3432 
Q 2725 3281 2906 2969 
z
M 947 1747 
Q 947 1113 1208 752 
Q 1469 391 1925 391 
Q 2381 391 2643 752 
Q 2906 1113 2906 1747 
Q 2906 2381 2643 2742 
Q 2381 3103 1925 3103 
Q 1469 3103 1208 2742 
Q 947 2381 947 1747 
z
" transform="scale(0.015625)"/>
      <path id="DejaVuSans-62" d="M 3116 1747 
Q 3116 2381 2855 2742 
Q 2594 3103 2138 3103 
Q 1681 3103 1420 2742 
Q 1159 2381 1159 1747 
Q 1159 1113 1420 752 
Q 1681 391 2138 391 
Q 2594 391 2855 752 
Q 3116 1113 3116 1747 
z
M 1159 2969 
Q 1341 3281 1617 3432 
Q 1894 3584 2278 3584 
Q 2916 3584 3314 3078 
Q 3713 2572 3713 1747 
Q 3713 922 3314 415 
Q 2916 -91 2278 -91 
Q 1894 -91 1617 61 
Q 1341 213 1159 525 
L 1159 0 
L 581 0 
L 581 4863 
L 1159 4863 
L 1159 2969 
z
" transform="scale(0.015625)"/>
      <path id="DejaVuSans-79" d="M 2059 -325 
Q 1816 -950 1584 -1140 
Q 1353 -1331 966 -1331 
L 506 -1331 
L 506 -850 
L 844 -850 
Q 1081 -850 1212 -737 
Q 1344 -625 1503 -206 
L 1606 56 
L 191 3500 
L 800 3500 
L 1894 763 
L 2988 3500 
L 3597 3500 
L 2059 -325 
z
" transform="scale(0.015625)"/>
     </defs>
     <use xlink:href="#DejaVuSans-56"/>
     <use xlink:href="#DejaVuSans-69" x="66.158203"/>
     <use xlink:href="#DejaVuSans-6f" x="93.941406"/>
     <use xlink:href="#DejaVuSans-6c" x="155.123047"/>
     <use xlink:href="#DejaVuSans-69" x="182.90625"/>
     <use xlink:href="#DejaVuSans-6e" x="210.689453"/>
     <use xlink:href="#DejaVuSans-70" x="274.068359"/>
     <use xlink:href="#DejaVuSans-6c" x="337.544922"/>
     <use xlink:href="#DejaVuSans-6f" x="365.328125"/>
     <use xlink:href="#DejaVuSans-74" x="426.509766"/>
     <use xlink:href="#DejaVuSans-20" x="465.71875"/>
     <use xlink:href="#DejaVuSans-6f" x="497.505859"/>
     <use xlink:href="#DejaVuSans-66" x="558.6875"/>
     <use xlink:href="#DejaVuSans-20" x="593.892578"/>
     <use xlink:href="#DejaVuSans-53" x="625.679688"/>
     <use xlink:href="#DejaVuSans-63" x="689.15625"/>
     <use xlink:href="#DejaVuSans-6f" x="744.136719"/>
     <use xlink:href="#DejaVuSans-72" x="805.318359"/>
     <use xlink:href="#DejaVuSans-65" x="844.181641"/>
     <use xlink:href="#DejaVuSans-73" x="905.705078"/>
     <use xlink:href="#DejaVuSans-20" x="957.804688"/>
     <use xlink:href="#DejaVuSans-47" x="989.591797"/>
     <use xlink:href="#DejaVuSans-72" x="1067.082031"/>
     <use xlink:href="#DejaVuSans-6f" x="1105.945312"/>
     <use xlink:href="#DejaVuSans-75" x="1167.126953"/>
     <use xlink:href="#DejaVuSans-70" x="1230.505859"/>
     <use xlink:href="#DejaVuSans-65" x="1293.982422"/>
     <use xlink:href="#DejaVuSans-64" x="1355.505859"/>
     <use xlink:href="#DejaVuSans-20" x="1418.982422"/>
     <use xlink:href="#DejaVuSans-62" x="1450.769531"/>
     <use xlink:href="#DejaVuSans-79" x="1514.246094"/>
     <use xlink:href="#DejaVuSans-20" x="1573.425781"/>
     <use xlink:href="#DejaVuSans-53" x="1605.212891"/>
     <use xlink:href="#DejaVuSans-74" x="1668.689453"/>
     <use xlink:href="#DejaVuSans-61" x="1707.898438"/>
     <use xlink:href="#DejaVuSans-74" x="1769.177734"/>
     <use xlink:href="#DejaVuSans-69" x="1808.386719"/>
     <use xlink:href="#DejaVuSans-73" x="1836.169922"/>
     <use xlink:href="#DejaVuSans-74" x="1888.269531"/>
     <use xlink:href="#DejaVuSans-69" x="1927.478516"/>
     <use xlink:href="#DejaVuSans-63" x="1955.261719"/>
     <use xlink:href="#DejaVuSans-61" x="2010.242188"/>
     <use xlink:href="#DejaVuSans-6c" x="2071.521484"/>
     <use xlink:href="#DejaVuSans-20" x="2099.304688"/>
     <use xlink:href="#DejaVuSans-54" x="2131.091797"/>
     <use xlink:href="#DejaVuSans-65" x="2175.175781"/>
     <use xlink:href="#DejaVuSans-73" x="2236.699219"/>
     <use xlink:href="#DejaVuSans-74" x="2288.798828"/>
     <use xlink:href="#DejaVuSans-20" x="2328.007812"/>
    </g>
    <!-- Across all subjects -->
    <g transform="translate(364.89875 83.232) scale(0.16 -0.16)">
     <defs>
      <path id="DejaVuSans-41" d="M 2188 4044 
L 1331 1722 
L 3047 1722 
L 2188 4044 
z
M 1831 4666 
L 2547 4666 
L 4325 0 
L 3669 0 
L 3244 1197 
L 1141 1197 
L 716 0 
L 50 0 
L 1831 4666 
z
" transform="scale(0.015625)"/>
      <path id="DejaVuSans-6a" d="M 603 3500 
L 1178 3500 
L 1178 -63 
Q 1178 -731 923 -1031 
Q 669 -1331 103 -1331 
L -116 -1331 
L -116 -844 
L 38 -844 
Q 366 -844 484 -692 
Q 603 -541 603 -63 
L 603 3500 
z
M 603 4863 
L 1178 4863 
L 1178 4134 
L 603 4134 
L 603 4863 
z
" transform="scale(0.015625)"/>
     </defs>
     <use xlink:href="#DejaVuSans-41"/>
     <use xlink:href="#DejaVuSans-63" x="66.658203"/>
     <use xlink:href="#DejaVuSans-72" x="121.638672"/>
     <use xlink:href="#DejaVuSans-6f" x="160.501953"/>
     <use xlink:href="#DejaVuSans-73" x="221.683594"/>
     <use xlink:href="#DejaVuSans-73" x="273.783203"/>
     <use xlink:href="#DejaVuSans-20" x="325.882812"/>
     <use xlink:href="#DejaVuSans-61" x="357.669922"/>
     <use xlink:href="#DejaVuSans-6c" x="418.949219"/>
     <use xlink:href="#DejaVuSans-6c" x="446.732422"/>
     <use xlink:href="#DejaVuSans-20" x="474.515625"/>
     <use xlink:href="#DejaVuSans-73" x="506.302734"/>
     <use xlink:href="#DejaVuSans-75" x="558.402344"/>
     <use xlink:href="#DejaVuSans-62" x="621.78125"/>
     <use xlink:href="#DejaVuSans-6a" x="685.257812"/>
     <use xlink:href="#DejaVuSans-65" x="713.041016"/>
     <use xlink:href="#DejaVuSans-63" x="774.564453"/>
     <use xlink:href="#DejaVuSans-74" x="829.544922"/>
     <use xlink:href="#DejaVuSans-73" x="868.753906"/>
    </g>
   </g>
   <g id="legend_1">
    <g id="patch_10">
     <path d="M 668.07425 149.737625 
L 856.0355 149.737625 
Q 858.4355 149.737625 858.4355 147.337625 
L 858.4355 97.632 
Q 858.4355 95.232 856.0355 95.232 
L 668.07425 95.232 
Q 665.67425 95.232 665.67425 97.632 
L 665.67425 147.337625 
Q 665.67425 149.737625 668.07425 149.737625 
z
" style="fill: #ffffff; opacity: 0.8; stroke: #cccccc; stroke-linejoin: miter"/>
    </g>
    <g id="text_15">
     <!-- Score Type -->
     <g transform="translate(734.980656 107.630437) scale(0.1 -0.1)">
      <use xlink:href="#DejaVuSans-53"/>
      <use xlink:href="#DejaVuSans-63" x="63.476562"/>
      <use xlink:href="#DejaVuSans-6f" x="118.457031"/>
      <use xlink:href="#DejaVuSans-72" x="179.638672"/>
      <use xlink:href="#DejaVuSans-65" x="218.501953"/>
      <use xlink:href="#DejaVuSans-20" x="280.025391"/>
      <use xlink:href="#DejaVuSans-54" x="311.8125"/>
      <use xlink:href="#DejaVuSans-79" x="357.271484"/>
      <use xlink:href="#DejaVuSans-70" x="416.451172"/>
      <use xlink:href="#DejaVuSans-65" x="479.927734"/>
     </g>
    </g>
    <g id="patch_11">
     <path d="M 670.47425 124.82825 
L 694.47425 124.82825 
L 694.47425 116.42825 
L 670.47425 116.42825 
z
" style="fill: #3274a1; stroke: #3f3f3f; stroke-width: 1.25; stroke-linejoin: miter"/>
    </g>
    <g id="text_16">
     <!-- Score: (x real, y real) -->
     <g transform="translate(704.07425 124.82825) scale(0.12 -0.12)">
      <defs>
       <path id="DejaVuSans-3a" d="M 750 794 
L 1409 794 
L 1409 0 
L 750 0 
L 750 794 
z
M 750 3309 
L 1409 3309 
L 1409 2516 
L 750 2516 
L 750 3309 
z
" transform="scale(0.015625)"/>
       <path id="DejaVuSans-28" d="M 1984 4856 
Q 1566 4138 1362 3434 
Q 1159 2731 1159 2009 
Q 1159 1288 1364 580 
Q 1569 -128 1984 -844 
L 1484 -844 
Q 1016 -109 783 600 
Q 550 1309 550 2009 
Q 550 2706 781 3412 
Q 1013 4119 1484 4856 
L 1984 4856 
z
" transform="scale(0.015625)"/>
       <path id="DejaVuSans-78" d="M 3513 3500 
L 2247 1797 
L 3578 0 
L 2900 0 
L 1881 1375 
L 863 0 
L 184 0 
L 1544 1831 
L 300 3500 
L 978 3500 
L 1906 2253 
L 2834 3500 
L 3513 3500 
z
" transform="scale(0.015625)"/>
       <path id="DejaVuSans-2c" d="M 750 794 
L 1409 794 
L 1409 256 
L 897 -744 
L 494 -744 
L 750 256 
L 750 794 
z
" transform="scale(0.015625)"/>
       <path id="DejaVuSans-29" d="M 513 4856 
L 1013 4856 
Q 1481 4119 1714 3412 
Q 1947 2706 1947 2009 
Q 1947 1309 1714 600 
Q 1481 -109 1013 -844 
L 513 -844 
Q 928 -128 1133 580 
Q 1338 1288 1338 2009 
Q 1338 2731 1133 3434 
Q 928 4138 513 4856 
z
" transform="scale(0.015625)"/>
      </defs>
      <use xlink:href="#DejaVuSans-53"/>
      <use xlink:href="#DejaVuSans-63" x="63.476562"/>
      <use xlink:href="#DejaVuSans-6f" x="118.457031"/>
      <use xlink:href="#DejaVuSans-72" x="179.638672"/>
      <use xlink:href="#DejaVuSans-65" x="218.501953"/>
      <use xlink:href="#DejaVuSans-3a" x="280.025391"/>
      <use xlink:href="#DejaVuSans-20" x="313.716797"/>
      <use xlink:href="#DejaVuSans-28" x="345.503906"/>
      <use xlink:href="#DejaVuSans-78" x="384.517578"/>
      <use xlink:href="#DejaVuSans-20" x="443.697266"/>
      <use xlink:href="#DejaVuSans-72" x="475.484375"/>
      <use xlink:href="#DejaVuSans-65" x="514.347656"/>
      <use xlink:href="#DejaVuSans-61" x="575.871094"/>
      <use xlink:href="#DejaVuSans-6c" x="637.150391"/>
      <use xlink:href="#DejaVuSans-2c" x="664.933594"/>
      <use xlink:href="#DejaVuSans-20" x="696.720703"/>
      <use xlink:href="#DejaVuSans-79" x="728.507812"/>
      <use xlink:href="#DejaVuSans-20" x="787.6875"/>
      <use xlink:href="#DejaVuSans-72" x="819.474609"/>
      <use xlink:href="#DejaVuSans-65" x="858.337891"/>
      <use xlink:href="#DejaVuSans-61" x="919.861328"/>
      <use xlink:href="#DejaVuSans-6c" x="981.140625"/>
      <use xlink:href="#DejaVuSans-29" x="1008.923828"/>
     </g>
    </g>
    <g id="patch_12">
     <path d="M 670.47425 142.442 
L 694.47425 142.442 
L 694.47425 134.042 
L 670.47425 134.042 
z
" style="fill: #e1812c; stroke: #3f3f3f; stroke-width: 1.25; stroke-linejoin: miter"/>
    </g>
    <g id="text_17">
     <!-- Score: (x random, y real) -->
     <g transform="translate(704.07425 142.442) scale(0.12 -0.12)">
      <use xlink:href="#DejaVuSans-53"/>
      <use xlink:href="#DejaVuSans-63" x="63.476562"/>
      <use xlink:href="#DejaVuSans-6f" x="118.457031"/>
      <use xlink:href="#DejaVuSans-72" x="179.638672"/>
      <use xlink:href="#DejaVuSans-65" x="218.501953"/>
      <use xlink:href="#DejaVuSans-3a" x="280.025391"/>
      <use xlink:href="#DejaVuSans-20" x="313.716797"/>
      <use xlink:href="#DejaVuSans-28" x="345.503906"/>
      <use xlink:href="#DejaVuSans-78" x="384.517578"/>
      <use xlink:href="#DejaVuSans-20" x="443.697266"/>
      <use xlink:href="#DejaVuSans-72" x="475.484375"/>
      <use xlink:href="#DejaVuSans-61" x="516.597656"/>
      <use xlink:href="#DejaVuSans-6e" x="577.876953"/>
      <use xlink:href="#DejaVuSans-64" x="641.255859"/>
      <use xlink:href="#DejaVuSans-6f" x="704.732422"/>
      <use xlink:href="#DejaVuSans-6d" x="765.914062"/>
      <use xlink:href="#DejaVuSans-2c" x="863.326172"/>
      <use xlink:href="#DejaVuSans-20" x="895.113281"/>
      <use xlink:href="#DejaVuSans-79" x="926.900391"/>
      <use xlink:href="#DejaVuSans-20" x="986.080078"/>
      <use xlink:href="#DejaVuSans-72" x="1017.867188"/>
      <use xlink:href="#DejaVuSans-65" x="1056.730469"/>
      <use xlink:href="#DejaVuSans-61" x="1118.253906"/>
      <use xlink:href="#DejaVuSans-6c" x="1179.533203"/>
      <use xlink:href="#DejaVuSans-29" x="1207.316406"/>
     </g>
    </g>
   </g>
  </g>
  <g id="text_18">
   <!-- Filters applied: Subject ID=All (170), Hemisphere=['left', 'right'], Task=All -->
   <g transform="translate(248.389062 7.598438) scale(0.1 -0.1)">
    <defs>
     <path id="DejaVuSans-46" d="M 628 4666 
L 3309 4666 
L 3309 4134 
L 1259 4134 
L 1259 2759 
L 3109 2759 
L 3109 2228 
L 1259 2228 
L 1259 0 
L 628 0 
L 628 4666 
z
" transform="scale(0.015625)"/>
     <path id="DejaVuSans-44" d="M 1259 4147 
L 1259 519 
L 2022 519 
Q 2988 519 3436 956 
Q 3884 1394 3884 2338 
Q 3884 3275 3436 3711 
Q 2988 4147 2022 4147 
L 1259 4147 
z
M 628 4666 
L 1925 4666 
Q 3281 4666 3915 4102 
Q 4550 3538 4550 2338 
Q 4550 1131 3912 565 
Q 3275 0 1925 0 
L 628 0 
L 628 4666 
z
" transform="scale(0.015625)"/>
     <path id="DejaVuSans-3d" d="M 678 2906 
L 4684 2906 
L 4684 2381 
L 678 2381 
L 678 2906 
z
M 678 1631 
L 4684 1631 
L 4684 1100 
L 678 1100 
L 678 1631 
z
" transform="scale(0.015625)"/>
     <path id="DejaVuSans-37" d="M 525 4666 
L 3525 4666 
L 3525 4397 
L 1831 0 
L 1172 0 
L 2766 4134 
L 525 4134 
L 525 4666 
z
" transform="scale(0.015625)"/>
     <path id="DejaVuSans-48" d="M 628 4666 
L 1259 4666 
L 1259 2753 
L 3553 2753 
L 3553 4666 
L 4184 4666 
L 4184 0 
L 3553 0 
L 3553 2222 
L 1259 2222 
L 1259 0 
L 628 0 
L 628 4666 
z
" transform="scale(0.015625)"/>
     <path id="DejaVuSans-5b" d="M 550 4863 
L 1875 4863 
L 1875 4416 
L 1125 4416 
L 1125 -397 
L 1875 -397 
L 1875 -844 
L 550 -844 
L 550 4863 
z
" transform="scale(0.015625)"/>
     <path id="DejaVuSans-27" d="M 1147 4666 
L 1147 2931 
L 616 2931 
L 616 4666 
L 1147 4666 
z
" transform="scale(0.015625)"/>
     <path id="DejaVuSans-67" d="M 2906 1791 
Q 2906 2416 2648 2759 
Q 2391 3103 1925 3103 
Q 1463 3103 1205 2759 
Q 947 2416 947 1791 
Q 947 1169 1205 825 
Q 1463 481 1925 481 
Q 2391 481 2648 825 
Q 2906 1169 2906 1791 
z
M 3481 434 
Q 3481 -459 3084 -895 
Q 2688 -1331 1869 -1331 
Q 1566 -1331 1297 -1286 
Q 1028 -1241 775 -1147 
L 775 -588 
Q 1028 -725 1275 -790 
Q 1522 -856 1778 -856 
Q 2344 -856 2625 -561 
Q 2906 -266 2906 331 
L 2906 616 
Q 2728 306 2450 153 
Q 2172 0 1784 0 
Q 1141 0 747 490 
Q 353 981 353 1791 
Q 353 2603 747 3093 
Q 1141 3584 1784 3584 
Q 2172 3584 2450 3431 
Q 2728 3278 2906 2969 
L 2906 3500 
L 3481 3500 
L 3481 434 
z
" transform="scale(0.015625)"/>
     <path id="DejaVuSans-5d" d="M 1947 4863 
L 1947 -844 
L 622 -844 
L 622 -397 
L 1369 -397 
L 1369 4416 
L 622 4416 
L 622 4863 
L 1947 4863 
z
" transform="scale(0.015625)"/>
     <path id="DejaVuSans-6b" d="M 581 4863 
L 1159 4863 
L 1159 1991 
L 2875 3500 
L 3609 3500 
L 1753 1863 
L 3688 0 
L 2938 0 
L 1159 1709 
L 1159 0 
L 581 0 
L 581 4863 
z
" transform="scale(0.015625)"/>
    </defs>
    <use xlink:href="#DejaVuSans-46"/>
    <use xlink:href="#DejaVuSans-69" x="50.269531"/>
    <use xlink:href="#DejaVuSans-6c" x="78.052734"/>
    <use xlink:href="#DejaVuSans-74" x="105.835938"/>
    <use xlink:href="#DejaVuSans-65" x="145.044922"/>
    <use xlink:href="#DejaVuSans-72" x="206.568359"/>
    <use xlink:href="#DejaVuSans-73" x="247.681641"/>
    <use xlink:href="#DejaVuSans-20" x="299.78125"/>
    <use xlink:href="#DejaVuSans-61" x="331.568359"/>
    <use xlink:href="#DejaVuSans-70" x="392.847656"/>
    <use xlink:href="#DejaVuSans-70" x="456.324219"/>
    <use xlink:href="#DejaVuSans-6c" x="519.800781"/>
    <use xlink:href="#DejaVuSans-69" x="547.583984"/>
    <use xlink:href="#DejaVuSans-65" x="575.367188"/>
    <use xlink:href="#DejaVuSans-64" x="636.890625"/>
    <use xlink:href="#DejaVuSans-3a" x="700.367188"/>
    <use xlink:href="#DejaVuSans-20" x="734.058594"/>
    <use xlink:href="#DejaVuSans-53" x="765.845703"/>
    <use xlink:href="#DejaVuSans-75" x="829.322266"/>
    <use xlink:href="#DejaVuSans-62" x="892.701172"/>
    <use xlink:href="#DejaVuSans-6a" x="956.177734"/>
    <use xlink:href="#DejaVuSans-65" x="983.960938"/>
    <use xlink:href="#DejaVuSans-63" x="1045.484375"/>
    <use xlink:href="#DejaVuSans-74" x="1100.464844"/>
    <use xlink:href="#DejaVuSans-20" x="1139.673828"/>
    <use xlink:href="#DejaVuSans-49" x="1171.460938"/>
    <use xlink:href="#DejaVuSans-44" x="1200.953125"/>
    <use xlink:href="#DejaVuSans-3d" x="1277.955078"/>
    <use xlink:href="#DejaVuSans-41" x="1361.744141"/>
    <use xlink:href="#DejaVuSans-6c" x="1430.152344"/>
    <use xlink:href="#DejaVuSans-6c" x="1457.935547"/>
    <use xlink:href="#DejaVuSans-20" x="1485.71875"/>
    <use xlink:href="#DejaVuSans-28" x="1517.505859"/>
    <use xlink:href="#DejaVuSans-31" x="1556.519531"/>
    <use xlink:href="#DejaVuSans-37" x="1620.142578"/>
    <use xlink:href="#DejaVuSans-30" x="1683.765625"/>
    <use xlink:href="#DejaVuSans-29" x="1747.388672"/>
    <use xlink:href="#DejaVuSans-2c" x="1786.402344"/>
    <use xlink:href="#DejaVuSans-20" x="1818.189453"/>
    <use xlink:href="#DejaVuSans-48" x="1849.976562"/>
    <use xlink:href="#DejaVuSans-65" x="1925.171875"/>
    <use xlink:href="#DejaVuSans-6d" x="1986.695312"/>
    <use xlink:href="#DejaVuSans-69" x="2084.107422"/>
    <use xlink:href="#DejaVuSans-73" x="2111.890625"/>
    <use xlink:href="#DejaVuSans-70" x="2163.990234"/>
    <use xlink:href="#DejaVuSans-68" x="2227.466797"/>
    <use xlink:href="#DejaVuSans-65" x="2290.845703"/>
    <use xlink:href="#DejaVuSans-72" x="2352.369141"/>
    <use xlink:href="#DejaVuSans-65" x="2391.232422"/>
    <use xlink:href="#DejaVuSans-3d" x="2452.755859"/>
    <use xlink:href="#DejaVuSans-5b" x="2536.544922"/>
    <use xlink:href="#DejaVuSans-27" x="2575.558594"/>
    <use xlink:href="#DejaVuSans-6c" x="2603.048828"/>
    <use xlink:href="#DejaVuSans-65" x="2630.832031"/>
    <use xlink:href="#DejaVuSans-66" x="2692.355469"/>
    <use xlink:href="#DejaVuSans-74" x="2725.810547"/>
    <use xlink:href="#DejaVuSans-27" x="2765.019531"/>
    <use xlink:href="#DejaVuSans-2c" x="2792.509766"/>
    <use xlink:href="#DejaVuSans-20" x="2824.296875"/>
    <use xlink:href="#DejaVuSans-27" x="2856.083984"/>
    <use xlink:href="#DejaVuSans-72" x="2883.574219"/>
    <use xlink:href="#DejaVuSans-69" x="2924.6875"/>
    <use xlink:href="#DejaVuSans-67" x="2952.470703"/>
    <use xlink:href="#DejaVuSans-68" x="3015.947266"/>
    <use xlink:href="#DejaVuSans-74" x="3079.326172"/>
    <use xlink:href="#DejaVuSans-27" x="3118.535156"/>
    <use xlink:href="#DejaVuSans-5d" x="3146.025391"/>
    <use xlink:href="#DejaVuSans-2c" x="3185.039062"/>
    <use xlink:href="#DejaVuSans-20" x="3216.826172"/>
    <use xlink:href="#DejaVuSans-54" x="3248.613281"/>
    <use xlink:href="#DejaVuSans-61" x="3293.197266"/>
    <use xlink:href="#DejaVuSans-73" x="3354.476562"/>
    <use xlink:href="#DejaVuSans-6b" x="3406.576172"/>
    <use xlink:href="#DejaVuSans-3d" x="3464.486328"/>
    <use xlink:href="#DejaVuSans-41" x="3548.275391"/>
    <use xlink:href="#DejaVuSans-6c" x="3616.683594"/>
    <use xlink:href="#DejaVuSans-6c" x="3644.466797"/>
   </g>
   <!-- (5), Statistical Test=['Mutual Information Score - X as Truth', 'Mutual -->
   <g transform="translate(261.982813 18.79625) scale(0.1 -0.1)">
    <defs>
     <path id="DejaVuSans-35" d="M 691 4666 
L 3169 4666 
L 3169 4134 
L 1269 4134 
L 1269 2991 
Q 1406 3038 1543 3061 
Q 1681 3084 1819 3084 
Q 2600 3084 3056 2656 
Q 3513 2228 3513 1497 
Q 3513 744 3044 326 
Q 2575 -91 1722 -91 
Q 1428 -91 1123 -41 
Q 819 9 494 109 
L 494 744 
Q 775 591 1075 516 
Q 1375 441 1709 441 
Q 2250 441 2565 725 
Q 2881 1009 2881 1497 
Q 2881 1984 2565 2268 
Q 2250 2553 1709 2553 
Q 1456 2553 1204 2497 
Q 953 2441 691 2322 
L 691 4666 
z
" transform="scale(0.015625)"/>
    </defs>
    <use xlink:href="#DejaVuSans-28"/>
    <use xlink:href="#DejaVuSans-35" x="39.013672"/>
    <use xlink:href="#DejaVuSans-29" x="102.636719"/>
    <use xlink:href="#DejaVuSans-2c" x="141.650391"/>
    <use xlink:href="#DejaVuSans-20" x="173.4375"/>
    <use xlink:href="#DejaVuSans-53" x="205.224609"/>
    <use xlink:href="#DejaVuSans-74" x="268.701172"/>
    <use xlink:href="#DejaVuSans-61" x="307.910156"/>
    <use xlink:href="#DejaVuSans-74" x="369.189453"/>
    <use xlink:href="#DejaVuSans-69" x="408.398438"/>
    <use xlink:href="#DejaVuSans-73" x="436.181641"/>
    <use xlink:href="#DejaVuSans-74" x="488.28125"/>
    <use xlink:href="#DejaVuSans-69" x="527.490234"/>
    <use xlink:href="#DejaVuSans-63" x="555.273438"/>
    <use xlink:href="#DejaVuSans-61" x="610.253906"/>
    <use xlink:href="#DejaVuSans-6c" x="671.533203"/>
    <use xlink:href="#DejaVuSans-20" x="699.316406"/>
    <use xlink:href="#DejaVuSans-54" x="731.103516"/>
    <use xlink:href="#DejaVuSans-65" x="775.1875"/>
    <use xlink:href="#DejaVuSans-73" x="836.710938"/>
    <use xlink:href="#DejaVuSans-74" x="888.810547"/>
    <use xlink:href="#DejaVuSans-3d" x="928.019531"/>
    <use xlink:href="#DejaVuSans-5b" x="1011.808594"/>
    <use xlink:href="#DejaVuSans-27" x="1050.822266"/>
    <use xlink:href="#DejaVuSans-4d" x="1078.3125"/>
    <use xlink:href="#DejaVuSans-75" x="1164.591797"/>
    <use xlink:href="#DejaVuSans-74" x="1227.970703"/>
    <use xlink:href="#DejaVuSans-75" x="1267.179688"/>
    <use xlink:href="#DejaVuSans-61" x="1330.558594"/>
    <use xlink:href="#DejaVuSans-6c" x="1391.837891"/>
    <use xlink:href="#DejaVuSans-20" x="1419.621094"/>
    <use xlink:href="#DejaVuSans-49" x="1451.408203"/>
    <use xlink:href="#DejaVuSans-6e" x="1480.900391"/>
    <use xlink:href="#DejaVuSans-66" x="1544.279297"/>
    <use xlink:href="#DejaVuSans-6f" x="1579.484375"/>
    <use xlink:href="#DejaVuSans-72" x="1640.666016"/>
    <use xlink:href="#DejaVuSans-6d" x="1680.029297"/>
    <use xlink:href="#DejaVuSans-61" x="1777.441406"/>
    <use xlink:href="#DejaVuSans-74" x="1838.720703"/>
    <use xlink:href="#DejaVuSans-69" x="1877.929688"/>
    <use xlink:href="#DejaVuSans-6f" x="1905.712891"/>
    <use xlink:href="#DejaVuSans-6e" x="1966.894531"/>
    <use xlink:href="#DejaVuSans-20" x="2030.273438"/>
    <use xlink:href="#DejaVuSans-53" x="2062.060547"/>
    <use xlink:href="#DejaVuSans-63" x="2125.537109"/>
    <use xlink:href="#DejaVuSans-6f" x="2180.517578"/>
    <use xlink:href="#DejaVuSans-72" x="2241.699219"/>
    <use xlink:href="#DejaVuSans-65" x="2280.5625"/>
    <use xlink:href="#DejaVuSans-20" x="2342.085938"/>
    <use xlink:href="#DejaVuSans-2d" x="2373.873047"/>
    <use xlink:href="#DejaVuSans-20" x="2409.957031"/>
    <use xlink:href="#DejaVuSans-58" x="2441.744141"/>
    <use xlink:href="#DejaVuSans-20" x="2510.25"/>
    <use xlink:href="#DejaVuSans-61" x="2542.037109"/>
    <use xlink:href="#DejaVuSans-73" x="2603.316406"/>
    <use xlink:href="#DejaVuSans-20" x="2655.416016"/>
    <use xlink:href="#DejaVuSans-54" x="2687.203125"/>
    <use xlink:href="#DejaVuSans-72" x="2733.537109"/>
    <use xlink:href="#DejaVuSans-75" x="2774.650391"/>
    <use xlink:href="#DejaVuSans-74" x="2838.029297"/>
    <use xlink:href="#DejaVuSans-68" x="2877.238281"/>
    <use xlink:href="#DejaVuSans-27" x="2940.617188"/>
    <use xlink:href="#DejaVuSans-2c" x="2968.107422"/>
    <use xlink:href="#DejaVuSans-20" x="2999.894531"/>
    <use xlink:href="#DejaVuSans-27" x="3031.681641"/>
    <use xlink:href="#DejaVuSans-4d" x="3059.171875"/>
    <use xlink:href="#DejaVuSans-75" x="3145.451172"/>
    <use xlink:href="#DejaVuSans-74" x="3208.830078"/>
    <use xlink:href="#DejaVuSans-75" x="3248.039062"/>
    <use xlink:href="#DejaVuSans-61" x="3311.417969"/>
    <use xlink:href="#DejaVuSans-6c" x="3372.697266"/>
   </g>
   <!-- Information Score - Y as Truth'] -->
   <g transform="translate(354.588281 29.994063) scale(0.1 -0.1)">
    <use xlink:href="#DejaVuSans-49"/>
    <use xlink:href="#DejaVuSans-6e" x="29.492188"/>
    <use xlink:href="#DejaVuSans-66" x="92.871094"/>
    <use xlink:href="#DejaVuSans-6f" x="128.076172"/>
    <use xlink:href="#DejaVuSans-72" x="189.257812"/>
    <use xlink:href="#DejaVuSans-6d" x="228.621094"/>
    <use xlink:href="#DejaVuSans-61" x="326.033203"/>
    <use xlink:href="#DejaVuSans-74" x="387.3125"/>
    <use xlink:href="#DejaVuSans-69" x="426.521484"/>
    <use xlink:href="#DejaVuSans-6f" x="454.304688"/>
    <use xlink:href="#DejaVuSans-6e" x="515.486328"/>
    <use xlink:href="#DejaVuSans-20" x="578.865234"/>
    <use xlink:href="#DejaVuSans-53" x="610.652344"/>
    <use xlink:href="#DejaVuSans-63" x="674.128906"/>
    <use xlink:href="#DejaVuSans-6f" x="729.109375"/>
    <use xlink:href="#DejaVuSans-72" x="790.291016"/>
    <use xlink:href="#DejaVuSans-65" x="829.154297"/>
    <use xlink:href="#DejaVuSans-20" x="890.677734"/>
    <use xlink:href="#DejaVuSans-2d" x="922.464844"/>
    <use xlink:href="#DejaVuSans-20" x="958.548828"/>
    <use xlink:href="#DejaVuSans-59" x="990.335938"/>
    <use xlink:href="#DejaVuSans-20" x="1051.419922"/>
    <use xlink:href="#DejaVuSans-61" x="1083.207031"/>
    <use xlink:href="#DejaVuSans-73" x="1144.486328"/>
    <use xlink:href="#DejaVuSans-20" x="1196.585938"/>
    <use xlink:href="#DejaVuSans-54" x="1228.373047"/>
    <use xlink:href="#DejaVuSans-72" x="1274.707031"/>
    <use xlink:href="#DejaVuSans-75" x="1315.820312"/>
    <use xlink:href="#DejaVuSans-74" x="1379.199219"/>
    <use xlink:href="#DejaVuSans-68" x="1418.408203"/>
    <use xlink:href="#DejaVuSans-27" x="1481.787109"/>
    <use xlink:href="#DejaVuSans-5d" x="1509.277344"/>
   </g>
  </g>
 </g>
 <defs>
  <clipPath id="pc0c0ca8abe">
   <rect x="51.41" y="89.232" width="774.31" height="553.168"/>
  </clipPath>
 </defs>
</svg>
