<?xml version="1.0" encoding="utf-8" standalone="no"?>
<!DOCTYPE svg PUBLIC "-//W3C//DTD SVG 1.1//EN"
  "http://www.w3.org/Graphics/SVG/1.1/DTD/svg11.dtd">
<svg xmlns:xlink="http://www.w3.org/1999/xlink" width="864pt" height="864pt" viewBox="0 0 864 864" xmlns="http://www.w3.org/2000/svg" version="1.1">
 <metadata>
  <rdf:RDF xmlns:dc="http://purl.org/dc/elements/1.1/" xmlns:cc="http://creativecommons.org/ns#" xmlns:rdf="http://www.w3.org/1999/02/22-rdf-syntax-ns#">
   <cc:Work>
    <dc:type rdf:resource="http://purl.org/dc/dcmitype/StillImage"/>
    <dc:date>2024-11-27T19:43:26.439596</dc:date>
    <dc:format>image/svg+xml</dc:format>
    <dc:creator>
     <cc:Agent>
      <dc:title>Matplotlib v3.9.2, https://matplotlib.org/</dc:title>
     </cc:Agent>
    </dc:creator>
   </cc:Work>
  </rdf:RDF>
 </metadata>
 <defs>
  <style type="text/css">*{stroke-linejoin: round; stroke-linecap: butt}</style>
 </defs>
 <g id="figure_1">
  <g id="patch_1">
   <path d="M 0 864 
L 864 864 
L 864 0 
L 0 0 
z
" style="fill: #ffffff"/>
  </g>
  <g id="axes_1">
   <g id="patch_2">
    <path d="M 51.32 642.4 
L 825.72 642.4 
L 825.72 89.232 
L 51.32 89.232 
z
" style="fill: #ffffff"/>
   </g>
   <g id="PolyCollection_1">
    <defs>
     <path id="me2406db71a" d="M 276.043057 -351.095591 
L 272.465883 -351.095591 
L 271.656096 -355.121131 
L 270.705019 -359.14667 
L 269.597224 -363.17221 
L 268.317169 -367.197749 
L 266.849379 -371.223288 
L 265.178601 -375.248828 
L 263.289925 -379.274367 
L 261.168865 -383.299907 
L 258.801415 -387.325446 
L 256.174075 -391.350986 
L 253.273885 -395.376525 
L 250.088499 -399.402065 
L 246.606323 -403.427604 
L 242.816777 -407.453144 
L 238.710709 -411.478683 
L 234.281007 -415.504223 
L 229.523407 -419.529762 
L 224.437534 -423.555302 
L 219.028111 -427.580841 
L 213.306328 -431.606381 
L 207.291263 -435.63192 
L 201.011267 -439.65746 
L 194.505198 -443.682999 
L 187.823352 -447.708539 
L 181.027986 -451.734078 
L 174.19329 -455.759618 
L 167.40473 -459.785157 
L 160.757703 -463.810697 
L 154.35549 -467.836236 
L 148.306558 -471.861776 
L 142.721303 -475.887315 
L 137.708372 -479.912855 
L 133.370771 -483.938394 
L 129.801946 -487.963934 
L 127.082079 -491.989473 
L 125.274816 -496.015012 
L 124.424611 -500.040552 
L 124.554847 -504.066091 
L 125.666838 -508.091631 
L 127.739747 -512.11717 
L 130.731419 -516.14271 
L 134.580026 -520.168249 
L 139.20643 -524.193789 
L 144.517075 -528.219328 
L 150.40724 -532.244868 
L 156.764452 -536.270407 
L 163.471886 -540.295947 
L 170.411577 -544.321486 
L 177.467335 -548.347026 
L 184.527251 -552.372565 
L 191.485777 -556.398105 
L 198.245335 -560.423644 
L 204.717516 -564.449184 
L 210.823895 -568.474723 
L 216.496553 -572.500263 
L 221.67837 -576.525802 
L 226.323171 -580.551342 
L 230.395798 -584.576881 
L 233.872145 -588.602421 
L 236.73919 -592.62796 
L 238.995037 -596.6535 
L 240.648933 -600.679039 
L 241.721247 -604.704579 
L 242.243329 -608.730118 
L 242.25722 -612.755658 
L 241.815129 -616.781197 
L 240.978624 -620.806737 
L 239.817501 -624.832276 
L 238.408309 -628.857815 
L 236.832526 -632.883355 
L 235.174426 -636.908894 
L 233.518691 -640.934434 
L 231.947867 -644.959973 
L 230.539759 -648.985513 
L 229.364908 -653.011052 
L 228.484263 -657.036592 
L 227.947202 -661.062131 
L 227.78999 -665.087671 
L 228.034787 -669.11321 
L 228.689254 -673.13875 
L 229.746795 -677.164289 
L 231.187397 -681.189829 
L 232.979046 -685.215368 
L 235.079595 -689.240908 
L 237.439009 -693.266447 
L 240.001817 -697.291987 
L 242.709652 -701.317526 
L 245.503735 -705.343066 
L 248.327168 -709.368605 
L 251.126943 -713.394145 
L 253.85557 -717.419684 
L 256.472288 -721.445224 
L 258.943836 -725.470763 
L 261.24479 -729.496303 
L 263.357497 -733.521842 
L 265.271681 -737.547382 
L 266.983761 -741.572921 
L 268.495985 -745.598461 
L 269.815427 -749.624 
L 276.043057 -749.624 
L 276.043057 -749.624 
L 276.043057 -745.598461 
L 276.043057 -741.572921 
L 276.043057 -737.547382 
L 276.043057 -733.521842 
L 276.043057 -729.496303 
L 276.043057 -725.470763 
L 276.043057 -721.445224 
L 276.043057 -717.419684 
L 276.043057 -713.394145 
L 276.043057 -709.368605 
L 276.043057 -705.343066 
L 276.043057 -701.317526 
L 276.043057 -697.291987 
L 276.043057 -693.266447 
L 276.043057 -689.240908 
L 276.043057 -685.215368 
L 276.043057 -681.189829 
L 276.043057 -677.164289 
L 276.043057 -673.13875 
L 276.043057 -669.11321 
L 276.043057 -665.087671 
L 276.043057 -661.062131 
L 276.043057 -657.036592 
L 276.043057 -653.011052 
L 276.043057 -648.985513 
L 276.043057 -644.959973 
L 276.043057 -640.934434 
L 276.043057 -636.908894 
L 276.043057 -632.883355 
L 276.043057 -628.857815 
L 276.043057 -624.832276 
L 276.043057 -620.806737 
L 276.043057 -616.781197 
L 276.043057 -612.755658 
L 276.043057 -608.730118 
L 276.043057 -604.704579 
L 276.043057 -600.679039 
L 276.043057 -596.6535 
L 276.043057 -592.62796 
L 276.043057 -588.602421 
L 276.043057 -584.576881 
L 276.043057 -580.551342 
L 276.043057 -576.525802 
L 276.043057 -572.500263 
L 276.043057 -568.474723 
L 276.043057 -564.449184 
L 276.043057 -560.423644 
L 276.043057 -556.398105 
L 276.043057 -552.372565 
L 276.043057 -548.347026 
L 276.043057 -544.321486 
L 276.043057 -540.295947 
L 276.043057 -536.270407 
L 276.043057 -532.244868 
L 276.043057 -528.219328 
L 276.043057 -524.193789 
L 276.043057 -520.168249 
L 276.043057 -516.14271 
L 276.043057 -512.11717 
L 276.043057 -508.091631 
L 276.043057 -504.066091 
L 276.043057 -500.040552 
L 276.043057 -496.015012 
L 276.043057 -491.989473 
L 276.043057 -487.963934 
L 276.043057 -483.938394 
L 276.043057 -479.912855 
L 276.043057 -475.887315 
L 276.043057 -471.861776 
L 276.043057 -467.836236 
L 276.043057 -463.810697 
L 276.043057 -459.785157 
L 276.043057 -455.759618 
L 276.043057 -451.734078 
L 276.043057 -447.708539 
L 276.043057 -443.682999 
L 276.043057 -439.65746 
L 276.043057 -435.63192 
L 276.043057 -431.606381 
L 276.043057 -427.580841 
L 276.043057 -423.555302 
L 276.043057 -419.529762 
L 276.043057 -415.504223 
L 276.043057 -411.478683 
L 276.043057 -407.453144 
L 276.043057 -403.427604 
L 276.043057 -399.402065 
L 276.043057 -395.376525 
L 276.043057 -391.350986 
L 276.043057 -387.325446 
L 276.043057 -383.299907 
L 276.043057 -379.274367 
L 276.043057 -375.248828 
L 276.043057 -371.223288 
L 276.043057 -367.197749 
L 276.043057 -363.17221 
L 276.043057 -359.14667 
L 276.043057 -355.121131 
L 276.043057 -351.095591 
z
" style="stroke: #3f3f3f; stroke-width: 1.25"/>
    </defs>
    <g clip-path="url(#p965b1c3b8d)">
     <use xlink:href="#me2406db71a" x="0" y="864" style="fill: #3274a1; stroke: #3f3f3f; stroke-width: 1.25"/>
    </g>
   </g>
   <g id="PolyCollection_2">
    <defs>
     <path id="mbe39c74618" d="M 280.991165 -246.744 
L 276.043057 -246.744 
L 276.043057 -246.810694 
L 276.043057 -246.877388 
L 276.043057 -246.944082 
L 276.043057 -247.010776 
L 276.043057 -247.07747 
L 276.043057 -247.144164 
L 276.043057 -247.210858 
L 276.043057 -247.277552 
L 276.043057 -247.344247 
L 276.043057 -247.410941 
L 276.043057 -247.477635 
L 276.043057 -247.544329 
L 276.043057 -247.611023 
L 276.043057 -247.677717 
L 276.043057 -247.744411 
L 276.043057 -247.811105 
L 276.043057 -247.877799 
L 276.043057 -247.944493 
L 276.043057 -248.011187 
L 276.043057 -248.077881 
L 276.043057 -248.144575 
L 276.043057 -248.211269 
L 276.043057 -248.277963 
L 276.043057 -248.344657 
L 276.043057 -248.411351 
L 276.043057 -248.478045 
L 276.043057 -248.54474 
L 276.043057 -248.611434 
L 276.043057 -248.678128 
L 276.043057 -248.744822 
L 276.043057 -248.811516 
L 276.043057 -248.87821 
L 276.043057 -248.944904 
L 276.043057 -249.011598 
L 276.043057 -249.078292 
L 276.043057 -249.144986 
L 276.043057 -249.21168 
L 276.043057 -249.278374 
L 276.043057 -249.345068 
L 276.043057 -249.411762 
L 276.043057 -249.478456 
L 276.043057 -249.54515 
L 276.043057 -249.611844 
L 276.043057 -249.678538 
L 276.043057 -249.745233 
L 276.043057 -249.811927 
L 276.043057 -249.878621 
L 276.043057 -249.945315 
L 276.043057 -250.012009 
L 276.043057 -250.078703 
L 276.043057 -250.145397 
L 276.043057 -250.212091 
L 276.043057 -250.278785 
L 276.043057 -250.345479 
L 276.043057 -250.412173 
L 276.043057 -250.478867 
L 276.043057 -250.545561 
L 276.043057 -250.612255 
L 276.043057 -250.678949 
L 276.043057 -250.745643 
L 276.043057 -250.812337 
L 276.043057 -250.879032 
L 276.043057 -250.945726 
L 276.043057 -251.01242 
L 276.043057 -251.079114 
L 276.043057 -251.145808 
L 276.043057 -251.212502 
L 276.043057 -251.279196 
L 276.043057 -251.34589 
L 276.043057 -251.412584 
L 276.043057 -251.479278 
L 276.043057 -251.545972 
L 276.043057 -251.612666 
L 276.043057 -251.67936 
L 276.043057 -251.746054 
L 276.043057 -251.812748 
L 276.043057 -251.879442 
L 276.043057 -251.946136 
L 276.043057 -252.01283 
L 276.043057 -252.079525 
L 276.043057 -252.146219 
L 276.043057 -252.212913 
L 276.043057 -252.279607 
L 276.043057 -252.346301 
L 276.043057 -252.412995 
L 276.043057 -252.479689 
L 276.043057 -252.546383 
L 276.043057 -252.613077 
L 276.043057 -252.679771 
L 276.043057 -252.746465 
L 276.043057 -252.813159 
L 276.043057 -252.879853 
L 276.043057 -252.946547 
L 276.043057 -253.013241 
L 276.043057 -253.079935 
L 276.043057 -253.146629 
L 276.043057 -253.213323 
L 276.043057 -253.280018 
L 276.043057 -253.346712 
L 278.341106 -253.346712 
L 278.341106 -253.346712 
L 278.900038 -253.280018 
L 279.55852 -253.213323 
L 280.325022 -253.146629 
L 281.206674 -253.079935 
L 282.208835 -253.013241 
L 283.334702 -252.946547 
L 284.585009 -252.879853 
L 285.957832 -252.813159 
L 287.448549 -252.746465 
L 289.049948 -252.679771 
L 290.75252 -252.613077 
L 292.544912 -252.546383 
L 294.41452 -252.479689 
L 296.348195 -252.412995 
L 298.333017 -252.346301 
L 300.357072 -252.279607 
L 302.410178 -252.212913 
L 304.484521 -252.146219 
L 306.575122 -252.079525 
L 308.680124 -252.01283 
L 310.800874 -251.946136 
L 312.941777 -251.879442 
L 315.109968 -251.812748 
L 317.314801 -251.746054 
L 319.567219 -251.67936 
L 321.879046 -251.612666 
L 324.262258 -251.545972 
L 326.728287 -251.479278 
L 329.287403 -251.412584 
L 331.94821 -251.34589 
L 334.717274 -251.279196 
L 337.598904 -251.212502 
L 340.595061 -251.145808 
L 343.705389 -251.079114 
L 346.927341 -251.01242 
L 350.256356 -250.945726 
L 353.686065 -250.879032 
L 357.208484 -250.812337 
L 360.81417 -250.745643 
L 364.492327 -250.678949 
L 368.23086 -250.612255 
L 372.016362 -250.545561 
L 375.834076 -250.478867 
L 379.667835 -250.412173 
L 383.500016 -250.345479 
L 387.311532 -250.278785 
L 391.081888 -250.212091 
L 394.789313 -250.145397 
L 398.410987 -250.078703 
L 401.923341 -250.012009 
L 405.302433 -249.945315 
L 408.524351 -249.878621 
L 411.565636 -249.811927 
L 414.403654 -249.745233 
L 417.016905 -249.678538 
L 419.385217 -249.611844 
L 421.489819 -249.54515 
L 423.313261 -249.478456 
L 424.839212 -249.411762 
L 426.052144 -249.345068 
L 426.936948 -249.278374 
L 427.478537 -249.21168 
L 427.661502 -249.144986 
L 427.469878 -249.078292 
L 426.887092 -249.011598 
L 425.896137 -248.944904 
L 424.480009 -248.87821 
L 422.622415 -248.811516 
L 420.308744 -248.744822 
L 417.527247 -248.678128 
L 414.270373 -248.611434 
L 410.536165 -248.54474 
L 406.329608 -248.478045 
L 401.663833 -248.411351 
L 396.561045 -248.344657 
L 391.053096 -248.277963 
L 385.181625 -248.211269 
L 378.997693 -248.144575 
L 372.560924 -248.077881 
L 365.938154 -248.011187 
L 359.201654 -247.944493 
L 352.427007 -247.877799 
L 345.690759 -247.811105 
L 339.067977 -247.744411 
L 332.629854 -247.677717 
L 326.441496 -247.611023 
L 320.560011 -247.544329 
L 315.033008 -247.477635 
L 309.897562 -247.410941 
L 305.179692 -247.344247 
L 300.894344 -247.277552 
L 297.045843 -247.210858 
L 293.628762 -247.144164 
L 290.629119 -247.07747 
L 288.025795 -247.010776 
L 285.7921 -246.944082 
L 283.897355 -246.877388 
L 282.308432 -246.810694 
L 280.991165 -246.744 
z
" style="stroke: #3f3f3f; stroke-width: 1.25"/>
    </defs>
    <g clip-path="url(#p965b1c3b8d)">
     <use xlink:href="#mbe39c74618" x="0" y="864" style="fill: #e1812c; stroke: #3f3f3f; stroke-width: 1.25"/>
    </g>
   </g>
   <g id="PolyCollection_3">
    <defs>
     <path id="m3653247457" d="M 655.08917 -351.095591 
L 651.511996 -351.095591 
L 650.70221 -355.121131 
L 649.751132 -359.14667 
L 648.643337 -363.17221 
L 647.363282 -367.197749 
L 645.895493 -371.223288 
L 644.224715 -375.248828 
L 642.336038 -379.274367 
L 640.214978 -383.299907 
L 637.847528 -387.325446 
L 635.220188 -391.350986 
L 632.319998 -395.376525 
L 629.134612 -399.402065 
L 625.652436 -403.427604 
L 621.86289 -407.453144 
L 617.756822 -411.478683 
L 613.32712 -415.504223 
L 608.56952 -419.529762 
L 603.483647 -423.555302 
L 598.074224 -427.580841 
L 592.352442 -431.606381 
L 586.337376 -435.63192 
L 580.057381 -439.65746 
L 573.551311 -443.682999 
L 566.869465 -447.708539 
L 560.074099 -451.734078 
L 553.239403 -455.759618 
L 546.450843 -459.785157 
L 539.803816 -463.810697 
L 533.401603 -467.836236 
L 527.352672 -471.861776 
L 521.767416 -475.887315 
L 516.754486 -479.912855 
L 512.416885 -483.938394 
L 508.848059 -487.963934 
L 506.128192 -491.989473 
L 504.320929 -496.015012 
L 503.470724 -500.040552 
L 503.600961 -504.066091 
L 504.712951 -508.091631 
L 506.78586 -512.11717 
L 509.777532 -516.14271 
L 513.626139 -520.168249 
L 518.252543 -524.193789 
L 523.563188 -528.219328 
L 529.453353 -532.244868 
L 535.810565 -536.270407 
L 542.517999 -540.295947 
L 549.457691 -544.321486 
L 556.513448 -548.347026 
L 563.573364 -552.372565 
L 570.53189 -556.398105 
L 577.291448 -560.423644 
L 583.763629 -564.449184 
L 589.870008 -568.474723 
L 595.542666 -572.500263 
L 600.724483 -576.525802 
L 605.369284 -580.551342 
L 609.441911 -584.576881 
L 612.918258 -588.602421 
L 615.785303 -592.62796 
L 618.04115 -596.6535 
L 619.695047 -600.679039 
L 620.76736 -604.704579 
L 621.289442 -608.730118 
L 621.303333 -612.755658 
L 620.861243 -616.781197 
L 620.024737 -620.806737 
L 618.863614 -624.832276 
L 617.454422 -628.857815 
L 615.878639 -632.883355 
L 614.220539 -636.908894 
L 612.564804 -640.934434 
L 610.99398 -644.959973 
L 609.585873 -648.985513 
L 608.411021 -653.011052 
L 607.530376 -657.036592 
L 606.993316 -661.062131 
L 606.836103 -665.087671 
L 607.0809 -669.11321 
L 607.735367 -673.13875 
L 608.792908 -677.164289 
L 610.233511 -681.189829 
L 612.025159 -685.215368 
L 614.125708 -689.240908 
L 616.485122 -693.266447 
L 619.04793 -697.291987 
L 621.755765 -701.317526 
L 624.549848 -705.343066 
L 627.373282 -709.368605 
L 630.173056 -713.394145 
L 632.901683 -717.419684 
L 635.518401 -721.445224 
L 637.98995 -725.470763 
L 640.290903 -729.496303 
L 642.40361 -733.521842 
L 644.317794 -737.547382 
L 646.029875 -741.572921 
L 647.542098 -745.598461 
L 648.86154 -749.624 
L 655.08917 -749.624 
L 655.08917 -749.624 
L 655.08917 -745.598461 
L 655.08917 -741.572921 
L 655.08917 -737.547382 
L 655.08917 -733.521842 
L 655.08917 -729.496303 
L 655.08917 -725.470763 
L 655.08917 -721.445224 
L 655.08917 -717.419684 
L 655.08917 -713.394145 
L 655.08917 -709.368605 
L 655.08917 -705.343066 
L 655.08917 -701.317526 
L 655.08917 -697.291987 
L 655.08917 -693.266447 
L 655.08917 -689.240908 
L 655.08917 -685.215368 
L 655.08917 -681.189829 
L 655.08917 -677.164289 
L 655.08917 -673.13875 
L 655.08917 -669.11321 
L 655.08917 -665.087671 
L 655.08917 -661.062131 
L 655.08917 -657.036592 
L 655.08917 -653.011052 
L 655.08917 -648.985513 
L 655.08917 -644.959973 
L 655.08917 -640.934434 
L 655.08917 -636.908894 
L 655.08917 -632.883355 
L 655.08917 -628.857815 
L 655.08917 -624.832276 
L 655.08917 -620.806737 
L 655.08917 -616.781197 
L 655.08917 -612.755658 
L 655.08917 -608.730118 
L 655.08917 -604.704579 
L 655.08917 -600.679039 
L 655.08917 -596.6535 
L 655.08917 -592.62796 
L 655.08917 -588.602421 
L 655.08917 -584.576881 
L 655.08917 -580.551342 
L 655.08917 -576.525802 
L 655.08917 -572.500263 
L 655.08917 -568.474723 
L 655.08917 -564.449184 
L 655.08917 -560.423644 
L 655.08917 -556.398105 
L 655.08917 -552.372565 
L 655.08917 -548.347026 
L 655.08917 -544.321486 
L 655.08917 -540.295947 
L 655.08917 -536.270407 
L 655.08917 -532.244868 
L 655.08917 -528.219328 
L 655.08917 -524.193789 
L 655.08917 -520.168249 
L 655.08917 -516.14271 
L 655.08917 -512.11717 
L 655.08917 -508.091631 
L 655.08917 -504.066091 
L 655.08917 -500.040552 
L 655.08917 -496.015012 
L 655.08917 -491.989473 
L 655.08917 -487.963934 
L 655.08917 -483.938394 
L 655.08917 -479.912855 
L 655.08917 -475.887315 
L 655.08917 -471.861776 
L 655.08917 -467.836236 
L 655.08917 -463.810697 
L 655.08917 -459.785157 
L 655.08917 -455.759618 
L 655.08917 -451.734078 
L 655.08917 -447.708539 
L 655.08917 -443.682999 
L 655.08917 -439.65746 
L 655.08917 -435.63192 
L 655.08917 -431.606381 
L 655.08917 -427.580841 
L 655.08917 -423.555302 
L 655.08917 -419.529762 
L 655.08917 -415.504223 
L 655.08917 -411.478683 
L 655.08917 -407.453144 
L 655.08917 -403.427604 
L 655.08917 -399.402065 
L 655.08917 -395.376525 
L 655.08917 -391.350986 
L 655.08917 -387.325446 
L 655.08917 -383.299907 
L 655.08917 -379.274367 
L 655.08917 -375.248828 
L 655.08917 -371.223288 
L 655.08917 -367.197749 
L 655.08917 -363.17221 
L 655.08917 -359.14667 
L 655.08917 -355.121131 
L 655.08917 -351.095591 
z
" style="stroke: #3f3f3f; stroke-width: 1.25"/>
    </defs>
    <g clip-path="url(#p965b1c3b8d)">
     <use xlink:href="#m3653247457" x="0" y="864" style="fill: #3274a1; stroke: #3f3f3f; stroke-width: 1.25"/>
    </g>
   </g>
   <g id="PolyCollection_4">
    <defs>
     <path id="md403ba15ae" d="M 658.873675 -247.016136 
L 655.08917 -247.016136 
L 655.08917 -247.090586 
L 655.08917 -247.165037 
L 655.08917 -247.239488 
L 655.08917 -247.313938 
L 655.08917 -247.388389 
L 655.08917 -247.46284 
L 655.08917 -247.53729 
L 655.08917 -247.611741 
L 655.08917 -247.686192 
L 655.08917 -247.760642 
L 655.08917 -247.835093 
L 655.08917 -247.909544 
L 655.08917 -247.983994 
L 655.08917 -248.058445 
L 655.08917 -248.132896 
L 655.08917 -248.207346 
L 655.08917 -248.281797 
L 655.08917 -248.356248 
L 655.08917 -248.430698 
L 655.08917 -248.505149 
L 655.08917 -248.579599 
L 655.08917 -248.65405 
L 655.08917 -248.728501 
L 655.08917 -248.802951 
L 655.08917 -248.877402 
L 655.08917 -248.951853 
L 655.08917 -249.026303 
L 655.08917 -249.100754 
L 655.08917 -249.175205 
L 655.08917 -249.249655 
L 655.08917 -249.324106 
L 655.08917 -249.398557 
L 655.08917 -249.473007 
L 655.08917 -249.547458 
L 655.08917 -249.621909 
L 655.08917 -249.696359 
L 655.08917 -249.77081 
L 655.08917 -249.845261 
L 655.08917 -249.919711 
L 655.08917 -249.994162 
L 655.08917 -250.068613 
L 655.08917 -250.143063 
L 655.08917 -250.217514 
L 655.08917 -250.291965 
L 655.08917 -250.366415 
L 655.08917 -250.440866 
L 655.08917 -250.515317 
L 655.08917 -250.589767 
L 655.08917 -250.664218 
L 655.08917 -250.738669 
L 655.08917 -250.813119 
L 655.08917 -250.88757 
L 655.08917 -250.962021 
L 655.08917 -251.036471 
L 655.08917 -251.110922 
L 655.08917 -251.185373 
L 655.08917 -251.259823 
L 655.08917 -251.334274 
L 655.08917 -251.408725 
L 655.08917 -251.483175 
L 655.08917 -251.557626 
L 655.08917 -251.632077 
L 655.08917 -251.706527 
L 655.08917 -251.780978 
L 655.08917 -251.855429 
L 655.08917 -251.929879 
L 655.08917 -252.00433 
L 655.08917 -252.078781 
L 655.08917 -252.153231 
L 655.08917 -252.227682 
L 655.08917 -252.302133 
L 655.08917 -252.376583 
L 655.08917 -252.451034 
L 655.08917 -252.525484 
L 655.08917 -252.599935 
L 655.08917 -252.674386 
L 655.08917 -252.748836 
L 655.08917 -252.823287 
L 655.08917 -252.897738 
L 655.08917 -252.972188 
L 655.08917 -253.046639 
L 655.08917 -253.12109 
L 655.08917 -253.19554 
L 655.08917 -253.269991 
L 655.08917 -253.344442 
L 655.08917 -253.418892 
L 655.08917 -253.493343 
L 655.08917 -253.567794 
L 655.08917 -253.642244 
L 655.08917 -253.716695 
L 655.08917 -253.791146 
L 655.08917 -253.865596 
L 655.08917 -253.940047 
L 655.08917 -254.014498 
L 655.08917 -254.088948 
L 655.08917 -254.163399 
L 655.08917 -254.23785 
L 655.08917 -254.3123 
L 655.08917 -254.386751 
L 657.133374 -254.386751 
L 657.133374 -254.386751 
L 657.63108 -254.3123 
L 658.217514 -254.23785 
L 658.900286 -254.163399 
L 659.685868 -254.088948 
L 660.579235 -254.014498 
L 661.583549 -253.940047 
L 662.699929 -253.865596 
L 663.927312 -253.791146 
L 665.262452 -253.716695 
L 666.700053 -253.642244 
L 668.233043 -253.567794 
L 669.852983 -253.493343 
L 671.550575 -253.418892 
L 673.316254 -253.344442 
L 675.140802 -253.269991 
L 677.015943 -253.19554 
L 678.934885 -253.12109 
L 680.892737 -253.046639 
L 682.886795 -252.972188 
L 684.916663 -252.897738 
L 686.984193 -252.823287 
L 689.09327 -252.748836 
L 691.249451 -252.674386 
L 693.459481 -252.599935 
L 695.730746 -252.525484 
L 698.070681 -252.451034 
L 700.486187 -252.376583 
L 702.983086 -252.302133 
L 705.565643 -252.227682 
L 708.236175 -252.153231 
L 710.994761 -252.078781 
L 713.83905 -252.00433 
L 716.764178 -251.929879 
L 719.762781 -251.855429 
L 722.825109 -251.780978 
L 725.939227 -251.706527 
L 729.091305 -251.632077 
L 732.266 -251.557626 
L 735.446913 -251.483175 
L 738.617135 -251.408725 
L 741.759845 -251.334274 
L 744.858963 -251.259823 
L 747.899815 -251.185373 
L 750.869765 -251.110922 
L 753.758786 -251.036471 
L 756.559875 -250.962021 
L 759.269297 -250.88757 
L 761.886565 -250.813119 
L 764.414138 -250.738669 
L 766.856812 -250.664218 
L 769.220802 -250.589767 
L 771.512551 -250.515317 
L 773.73735 -250.440866 
L 775.89784 -250.366415 
L 777.992539 -250.291965 
L 780.014512 -250.217514 
L 781.950318 -250.143063 
L 783.779351 -250.068613 
L 785.473662 -249.994162 
L 786.998312 -249.919711 
L 788.312266 -249.845261 
L 789.369774 -249.77081 
L 790.122176 -249.696359 
L 790.52 -249.621909 
L 790.515219 -249.547458 
L 790.063519 -249.473007 
L 789.12645 -249.398557 
L 787.673325 -249.324106 
L 785.682779 -249.249655 
L 783.143936 -249.175205 
L 780.057139 -249.100754 
L 776.434252 -249.026303 
L 772.298549 -248.951853 
L 767.684232 -248.877402 
L 762.635614 -248.802951 
L 757.206014 -248.728501 
L 751.456409 -248.65405 
L 745.45389 -248.579599 
L 739.269947 -248.505149 
L 732.97864 -248.430698 
L 726.654703 -248.356248 
L 720.371617 -248.281797 
L 714.199742 -248.207346 
L 708.204539 -248.132896 
L 702.444989 -248.058445 
L 696.972245 -247.983994 
L 691.828597 -247.909544 
L 687.046783 -247.835093 
L 682.649682 -247.760642 
L 678.65038 -247.686192 
L 675.052612 -247.611741 
L 671.851514 -247.53729 
L 669.03465 -247.46284 
L 666.583226 -247.388389 
L 664.473425 -247.313938 
L 662.67778 -247.239488 
L 661.166507 -247.165037 
L 659.90875 -247.090586 
L 658.873675 -247.016136 
z
" style="stroke: #3f3f3f; stroke-width: 1.25"/>
    </defs>
    <g clip-path="url(#p965b1c3b8d)">
     <use xlink:href="#md403ba15ae" x="0" y="864" style="fill: #e1812c; stroke: #3f3f3f; stroke-width: 1.25"/>
    </g>
   </g>
   <g id="patch_3">
    <path d="M 276.043057 616.693408 
L 276.043057 616.693408 
L 276.043057 616.693408 
L 276.043057 616.693408 
z
" clip-path="url(#p965b1c3b8d)" style="fill: #3274a1; stroke: #3f3f3f; stroke-width: 1.25; stroke-linejoin: miter"/>
   </g>
   <g id="patch_4">
    <path d="M 276.043057 616.693408 
L 276.043057 616.693408 
L 276.043057 616.693408 
L 276.043057 616.693408 
z
" clip-path="url(#p965b1c3b8d)" style="fill: #e1812c; stroke: #3f3f3f; stroke-width: 1.25; stroke-linejoin: miter"/>
   </g>
   <g id="patch_5">
    <path d="M 86.52 642.4 
L 465.566113 642.4 
L 465.566113 89.232 
L 86.52 89.232 
z
" clip-path="url(#p965b1c3b8d)" style="fill: #808080; opacity: 0.1; stroke: #808080; stroke-linejoin: miter"/>
   </g>
   <g id="matplotlib.axis_1">
    <g id="xtick_1">
     <g id="line2d_1">
      <defs>
       <path id="m0c87239288" d="M 0 0 
L 0 3.5 
" style="stroke: #000000; stroke-width: 0.8"/>
      </defs>
      <g>
       <use xlink:href="#m0c87239288" x="276.043057" y="642.4" style="stroke: #000000; stroke-width: 0.8"/>
      </g>
     </g>
     <g id="text_1">
      <!-- Mutual Information Score - X as Truth -->
      <g transform="translate(278.802432 835.623437) rotate(-90) scale(0.1 -0.1)">
       <defs>
        <path id="DejaVuSans-4d" d="M 628 4666 
L 1569 4666 
L 2759 1491 
L 3956 4666 
L 4897 4666 
L 4897 0 
L 4281 0 
L 4281 4097 
L 3078 897 
L 2444 897 
L 1241 4097 
L 1241 0 
L 628 0 
L 628 4666 
z
" transform="scale(0.015625)"/>
        <path id="DejaVuSans-75" d="M 544 1381 
L 544 3500 
L 1119 3500 
L 1119 1403 
Q 1119 906 1312 657 
Q 1506 409 1894 409 
Q 2359 409 2629 706 
Q 2900 1003 2900 1516 
L 2900 3500 
L 3475 3500 
L 3475 0 
L 2900 0 
L 2900 538 
Q 2691 219 2414 64 
Q 2138 -91 1772 -91 
Q 1169 -91 856 284 
Q 544 659 544 1381 
z
M 1991 3584 
L 1991 3584 
z
" transform="scale(0.015625)"/>
        <path id="DejaVuSans-74" d="M 1172 4494 
L 1172 3500 
L 2356 3500 
L 2356 3053 
L 1172 3053 
L 1172 1153 
Q 1172 725 1289 603 
Q 1406 481 1766 481 
L 2356 481 
L 2356 0 
L 1766 0 
Q 1100 0 847 248 
Q 594 497 594 1153 
L 594 3053 
L 172 3053 
L 172 3500 
L 594 3500 
L 594 4494 
L 1172 4494 
z
" transform="scale(0.015625)"/>
        <path id="DejaVuSans-61" d="M 2194 1759 
Q 1497 1759 1228 1600 
Q 959 1441 959 1056 
Q 959 750 1161 570 
Q 1363 391 1709 391 
Q 2188 391 2477 730 
Q 2766 1069 2766 1631 
L 2766 1759 
L 2194 1759 
z
M 3341 1997 
L 3341 0 
L 2766 0 
L 2766 531 
Q 2569 213 2275 61 
Q 1981 -91 1556 -91 
Q 1019 -91 701 211 
Q 384 513 384 1019 
Q 384 1609 779 1909 
Q 1175 2209 1959 2209 
L 2766 2209 
L 2766 2266 
Q 2766 2663 2505 2880 
Q 2244 3097 1772 3097 
Q 1472 3097 1187 3025 
Q 903 2953 641 2809 
L 641 3341 
Q 956 3463 1253 3523 
Q 1550 3584 1831 3584 
Q 2591 3584 2966 3190 
Q 3341 2797 3341 1997 
z
" transform="scale(0.015625)"/>
        <path id="DejaVuSans-6c" d="M 603 4863 
L 1178 4863 
L 1178 0 
L 603 0 
L 603 4863 
z
" transform="scale(0.015625)"/>
        <path id="DejaVuSans-20" transform="scale(0.015625)"/>
        <path id="DejaVuSans-49" d="M 628 4666 
L 1259 4666 
L 1259 0 
L 628 0 
L 628 4666 
z
" transform="scale(0.015625)"/>
        <path id="DejaVuSans-6e" d="M 3513 2113 
L 3513 0 
L 2938 0 
L 2938 2094 
Q 2938 2591 2744 2837 
Q 2550 3084 2163 3084 
Q 1697 3084 1428 2787 
Q 1159 2491 1159 1978 
L 1159 0 
L 581 0 
L 581 3500 
L 1159 3500 
L 1159 2956 
Q 1366 3272 1645 3428 
Q 1925 3584 2291 3584 
Q 2894 3584 3203 3211 
Q 3513 2838 3513 2113 
z
" transform="scale(0.015625)"/>
        <path id="DejaVuSans-66" d="M 2375 4863 
L 2375 4384 
L 1825 4384 
Q 1516 4384 1395 4259 
Q 1275 4134 1275 3809 
L 1275 3500 
L 2222 3500 
L 2222 3053 
L 1275 3053 
L 1275 0 
L 697 0 
L 697 3053 
L 147 3053 
L 147 3500 
L 697 3500 
L 697 3744 
Q 697 4328 969 4595 
Q 1241 4863 1831 4863 
L 2375 4863 
z
" transform="scale(0.015625)"/>
        <path id="DejaVuSans-6f" d="M 1959 3097 
Q 1497 3097 1228 2736 
Q 959 2375 959 1747 
Q 959 1119 1226 758 
Q 1494 397 1959 397 
Q 2419 397 2687 759 
Q 2956 1122 2956 1747 
Q 2956 2369 2687 2733 
Q 2419 3097 1959 3097 
z
M 1959 3584 
Q 2709 3584 3137 3096 
Q 3566 2609 3566 1747 
Q 3566 888 3137 398 
Q 2709 -91 1959 -91 
Q 1206 -91 779 398 
Q 353 888 353 1747 
Q 353 2609 779 3096 
Q 1206 3584 1959 3584 
z
" transform="scale(0.015625)"/>
        <path id="DejaVuSans-72" d="M 2631 2963 
Q 2534 3019 2420 3045 
Q 2306 3072 2169 3072 
Q 1681 3072 1420 2755 
Q 1159 2438 1159 1844 
L 1159 0 
L 581 0 
L 581 3500 
L 1159 3500 
L 1159 2956 
Q 1341 3275 1631 3429 
Q 1922 3584 2338 3584 
Q 2397 3584 2469 3576 
Q 2541 3569 2628 3553 
L 2631 2963 
z
" transform="scale(0.015625)"/>
        <path id="DejaVuSans-6d" d="M 3328 2828 
Q 3544 3216 3844 3400 
Q 4144 3584 4550 3584 
Q 5097 3584 5394 3201 
Q 5691 2819 5691 2113 
L 5691 0 
L 5113 0 
L 5113 2094 
Q 5113 2597 4934 2840 
Q 4756 3084 4391 3084 
Q 3944 3084 3684 2787 
Q 3425 2491 3425 1978 
L 3425 0 
L 2847 0 
L 2847 2094 
Q 2847 2600 2669 2842 
Q 2491 3084 2119 3084 
Q 1678 3084 1418 2786 
Q 1159 2488 1159 1978 
L 1159 0 
L 581 0 
L 581 3500 
L 1159 3500 
L 1159 2956 
Q 1356 3278 1631 3431 
Q 1906 3584 2284 3584 
Q 2666 3584 2933 3390 
Q 3200 3197 3328 2828 
z
" transform="scale(0.015625)"/>
        <path id="DejaVuSans-69" d="M 603 3500 
L 1178 3500 
L 1178 0 
L 603 0 
L 603 3500 
z
M 603 4863 
L 1178 4863 
L 1178 4134 
L 603 4134 
L 603 4863 
z
" transform="scale(0.015625)"/>
        <path id="DejaVuSans-53" d="M 3425 4513 
L 3425 3897 
Q 3066 4069 2747 4153 
Q 2428 4238 2131 4238 
Q 1616 4238 1336 4038 
Q 1056 3838 1056 3469 
Q 1056 3159 1242 3001 
Q 1428 2844 1947 2747 
L 2328 2669 
Q 3034 2534 3370 2195 
Q 3706 1856 3706 1288 
Q 3706 609 3251 259 
Q 2797 -91 1919 -91 
Q 1588 -91 1214 -16 
Q 841 59 441 206 
L 441 856 
Q 825 641 1194 531 
Q 1563 422 1919 422 
Q 2459 422 2753 634 
Q 3047 847 3047 1241 
Q 3047 1584 2836 1778 
Q 2625 1972 2144 2069 
L 1759 2144 
Q 1053 2284 737 2584 
Q 422 2884 422 3419 
Q 422 4038 858 4394 
Q 1294 4750 2059 4750 
Q 2388 4750 2728 4690 
Q 3069 4631 3425 4513 
z
" transform="scale(0.015625)"/>
        <path id="DejaVuSans-63" d="M 3122 3366 
L 3122 2828 
Q 2878 2963 2633 3030 
Q 2388 3097 2138 3097 
Q 1578 3097 1268 2742 
Q 959 2388 959 1747 
Q 959 1106 1268 751 
Q 1578 397 2138 397 
Q 2388 397 2633 464 
Q 2878 531 3122 666 
L 3122 134 
Q 2881 22 2623 -34 
Q 2366 -91 2075 -91 
Q 1284 -91 818 406 
Q 353 903 353 1747 
Q 353 2603 823 3093 
Q 1294 3584 2113 3584 
Q 2378 3584 2631 3529 
Q 2884 3475 3122 3366 
z
" transform="scale(0.015625)"/>
        <path id="DejaVuSans-65" d="M 3597 1894 
L 3597 1613 
L 953 1613 
Q 991 1019 1311 708 
Q 1631 397 2203 397 
Q 2534 397 2845 478 
Q 3156 559 3463 722 
L 3463 178 
Q 3153 47 2828 -22 
Q 2503 -91 2169 -91 
Q 1331 -91 842 396 
Q 353 884 353 1716 
Q 353 2575 817 3079 
Q 1281 3584 2069 3584 
Q 2775 3584 3186 3129 
Q 3597 2675 3597 1894 
z
M 3022 2063 
Q 3016 2534 2758 2815 
Q 2500 3097 2075 3097 
Q 1594 3097 1305 2825 
Q 1016 2553 972 2059 
L 3022 2063 
z
" transform="scale(0.015625)"/>
        <path id="DejaVuSans-2d" d="M 313 2009 
L 1997 2009 
L 1997 1497 
L 313 1497 
L 313 2009 
z
" transform="scale(0.015625)"/>
        <path id="DejaVuSans-58" d="M 403 4666 
L 1081 4666 
L 2241 2931 
L 3406 4666 
L 4084 4666 
L 2584 2425 
L 4184 0 
L 3506 0 
L 2194 1984 
L 872 0 
L 191 0 
L 1856 2491 
L 403 4666 
z
" transform="scale(0.015625)"/>
        <path id="DejaVuSans-73" d="M 2834 3397 
L 2834 2853 
Q 2591 2978 2328 3040 
Q 2066 3103 1784 3103 
Q 1356 3103 1142 2972 
Q 928 2841 928 2578 
Q 928 2378 1081 2264 
Q 1234 2150 1697 2047 
L 1894 2003 
Q 2506 1872 2764 1633 
Q 3022 1394 3022 966 
Q 3022 478 2636 193 
Q 2250 -91 1575 -91 
Q 1294 -91 989 -36 
Q 684 19 347 128 
L 347 722 
Q 666 556 975 473 
Q 1284 391 1588 391 
Q 1994 391 2212 530 
Q 2431 669 2431 922 
Q 2431 1156 2273 1281 
Q 2116 1406 1581 1522 
L 1381 1569 
Q 847 1681 609 1914 
Q 372 2147 372 2553 
Q 372 3047 722 3315 
Q 1072 3584 1716 3584 
Q 2034 3584 2315 3537 
Q 2597 3491 2834 3397 
z
" transform="scale(0.015625)"/>
        <path id="DejaVuSans-54" d="M -19 4666 
L 3928 4666 
L 3928 4134 
L 2272 4134 
L 2272 0 
L 1638 0 
L 1638 4134 
L -19 4134 
L -19 4666 
z
" transform="scale(0.015625)"/>
        <path id="DejaVuSans-68" d="M 3513 2113 
L 3513 0 
L 2938 0 
L 2938 2094 
Q 2938 2591 2744 2837 
Q 2550 3084 2163 3084 
Q 1697 3084 1428 2787 
Q 1159 2491 1159 1978 
L 1159 0 
L 581 0 
L 581 4863 
L 1159 4863 
L 1159 2956 
Q 1366 3272 1645 3428 
Q 1925 3584 2291 3584 
Q 2894 3584 3203 3211 
Q 3513 2838 3513 2113 
z
" transform="scale(0.015625)"/>
       </defs>
       <use xlink:href="#DejaVuSans-4d"/>
       <use xlink:href="#DejaVuSans-75" x="86.279297"/>
       <use xlink:href="#DejaVuSans-74" x="149.658203"/>
       <use xlink:href="#DejaVuSans-75" x="188.867188"/>
       <use xlink:href="#DejaVuSans-61" x="252.246094"/>
       <use xlink:href="#DejaVuSans-6c" x="313.525391"/>
       <use xlink:href="#DejaVuSans-20" x="341.308594"/>
       <use xlink:href="#DejaVuSans-49" x="373.095703"/>
       <use xlink:href="#DejaVuSans-6e" x="402.587891"/>
       <use xlink:href="#DejaVuSans-66" x="465.966797"/>
       <use xlink:href="#DejaVuSans-6f" x="501.171875"/>
       <use xlink:href="#DejaVuSans-72" x="562.353516"/>
       <use xlink:href="#DejaVuSans-6d" x="601.716797"/>
       <use xlink:href="#DejaVuSans-61" x="699.128906"/>
       <use xlink:href="#DejaVuSans-74" x="760.408203"/>
       <use xlink:href="#DejaVuSans-69" x="799.617188"/>
       <use xlink:href="#DejaVuSans-6f" x="827.400391"/>
       <use xlink:href="#DejaVuSans-6e" x="888.582031"/>
       <use xlink:href="#DejaVuSans-20" x="951.960938"/>
       <use xlink:href="#DejaVuSans-53" x="983.748047"/>
       <use xlink:href="#DejaVuSans-63" x="1047.224609"/>
       <use xlink:href="#DejaVuSans-6f" x="1102.205078"/>
       <use xlink:href="#DejaVuSans-72" x="1163.386719"/>
       <use xlink:href="#DejaVuSans-65" x="1202.25"/>
       <use xlink:href="#DejaVuSans-20" x="1263.773438"/>
       <use xlink:href="#DejaVuSans-2d" x="1295.560547"/>
       <use xlink:href="#DejaVuSans-20" x="1331.644531"/>
       <use xlink:href="#DejaVuSans-58" x="1363.431641"/>
       <use xlink:href="#DejaVuSans-20" x="1431.9375"/>
       <use xlink:href="#DejaVuSans-61" x="1463.724609"/>
       <use xlink:href="#DejaVuSans-73" x="1525.003906"/>
       <use xlink:href="#DejaVuSans-20" x="1577.103516"/>
       <use xlink:href="#DejaVuSans-54" x="1608.890625"/>
       <use xlink:href="#DejaVuSans-72" x="1655.224609"/>
       <use xlink:href="#DejaVuSans-75" x="1696.337891"/>
       <use xlink:href="#DejaVuSans-74" x="1759.716797"/>
       <use xlink:href="#DejaVuSans-68" x="1798.925781"/>
      </g>
     </g>
    </g>
    <g id="xtick_2">
     <g id="line2d_2">
      <g>
       <use xlink:href="#m0c87239288" x="655.08917" y="642.4" style="stroke: #000000; stroke-width: 0.8"/>
      </g>
     </g>
     <g id="text_2">
      <!-- Mutual Information Score - Y as Truth -->
      <g transform="translate(657.848545 834.88125) rotate(-90) scale(0.1 -0.1)">
       <defs>
        <path id="DejaVuSans-59" d="M -13 4666 
L 666 4666 
L 1959 2747 
L 3244 4666 
L 3922 4666 
L 2272 2222 
L 2272 0 
L 1638 0 
L 1638 2222 
L -13 4666 
z
" transform="scale(0.015625)"/>
       </defs>
       <use xlink:href="#DejaVuSans-4d"/>
       <use xlink:href="#DejaVuSans-75" x="86.279297"/>
       <use xlink:href="#DejaVuSans-74" x="149.658203"/>
       <use xlink:href="#DejaVuSans-75" x="188.867188"/>
       <use xlink:href="#DejaVuSans-61" x="252.246094"/>
       <use xlink:href="#DejaVuSans-6c" x="313.525391"/>
       <use xlink:href="#DejaVuSans-20" x="341.308594"/>
       <use xlink:href="#DejaVuSans-49" x="373.095703"/>
       <use xlink:href="#DejaVuSans-6e" x="402.587891"/>
       <use xlink:href="#DejaVuSans-66" x="465.966797"/>
       <use xlink:href="#DejaVuSans-6f" x="501.171875"/>
       <use xlink:href="#DejaVuSans-72" x="562.353516"/>
       <use xlink:href="#DejaVuSans-6d" x="601.716797"/>
       <use xlink:href="#DejaVuSans-61" x="699.128906"/>
       <use xlink:href="#DejaVuSans-74" x="760.408203"/>
       <use xlink:href="#DejaVuSans-69" x="799.617188"/>
       <use xlink:href="#DejaVuSans-6f" x="827.400391"/>
       <use xlink:href="#DejaVuSans-6e" x="888.582031"/>
       <use xlink:href="#DejaVuSans-20" x="951.960938"/>
       <use xlink:href="#DejaVuSans-53" x="983.748047"/>
       <use xlink:href="#DejaVuSans-63" x="1047.224609"/>
       <use xlink:href="#DejaVuSans-6f" x="1102.205078"/>
       <use xlink:href="#DejaVuSans-72" x="1163.386719"/>
       <use xlink:href="#DejaVuSans-65" x="1202.25"/>
       <use xlink:href="#DejaVuSans-20" x="1263.773438"/>
       <use xlink:href="#DejaVuSans-2d" x="1295.560547"/>
       <use xlink:href="#DejaVuSans-20" x="1331.644531"/>
       <use xlink:href="#DejaVuSans-59" x="1363.431641"/>
       <use xlink:href="#DejaVuSans-20" x="1424.515625"/>
       <use xlink:href="#DejaVuSans-61" x="1456.302734"/>
       <use xlink:href="#DejaVuSans-73" x="1517.582031"/>
       <use xlink:href="#DejaVuSans-20" x="1569.681641"/>
       <use xlink:href="#DejaVuSans-54" x="1601.46875"/>
       <use xlink:href="#DejaVuSans-72" x="1647.802734"/>
       <use xlink:href="#DejaVuSans-75" x="1688.916016"/>
       <use xlink:href="#DejaVuSans-74" x="1752.294922"/>
       <use xlink:href="#DejaVuSans-68" x="1791.503906"/>
      </g>
     </g>
    </g>
    <g id="text_3">
     <!-- Statistical Test -->
     <g transform="translate(387.926406 850.26125) scale(0.14 -0.14)">
      <use xlink:href="#DejaVuSans-53"/>
      <use xlink:href="#DejaVuSans-74" x="63.476562"/>
      <use xlink:href="#DejaVuSans-61" x="102.685547"/>
      <use xlink:href="#DejaVuSans-74" x="163.964844"/>
      <use xlink:href="#DejaVuSans-69" x="203.173828"/>
      <use xlink:href="#DejaVuSans-73" x="230.957031"/>
      <use xlink:href="#DejaVuSans-74" x="283.056641"/>
      <use xlink:href="#DejaVuSans-69" x="322.265625"/>
      <use xlink:href="#DejaVuSans-63" x="350.048828"/>
      <use xlink:href="#DejaVuSans-61" x="405.029297"/>
      <use xlink:href="#DejaVuSans-6c" x="466.308594"/>
      <use xlink:href="#DejaVuSans-20" x="494.091797"/>
      <use xlink:href="#DejaVuSans-54" x="525.878906"/>
      <use xlink:href="#DejaVuSans-65" x="569.962891"/>
      <use xlink:href="#DejaVuSans-73" x="631.486328"/>
      <use xlink:href="#DejaVuSans-74" x="683.585938"/>
     </g>
    </g>
   </g>
   <g id="matplotlib.axis_2">
    <g id="ytick_1">
     <g id="line2d_3">
      <defs>
       <path id="m340237163f" d="M 0 0 
L -3.5 0 
" style="stroke: #000000; stroke-width: 0.8"/>
      </defs>
      <g>
       <use xlink:href="#m340237163f" x="51.32" y="616.693408" style="stroke: #000000; stroke-width: 0.8"/>
      </g>
     </g>
     <g id="text_4">
      <!-- 0.0 -->
      <g transform="translate(28.416875 620.492626) scale(0.1 -0.1)">
       <defs>
        <path id="DejaVuSans-30" d="M 2034 4250 
Q 1547 4250 1301 3770 
Q 1056 3291 1056 2328 
Q 1056 1369 1301 889 
Q 1547 409 2034 409 
Q 2525 409 2770 889 
Q 3016 1369 3016 2328 
Q 3016 3291 2770 3770 
Q 2525 4250 2034 4250 
z
M 2034 4750 
Q 2819 4750 3233 4129 
Q 3647 3509 3647 2328 
Q 3647 1150 3233 529 
Q 2819 -91 2034 -91 
Q 1250 -91 836 529 
Q 422 1150 422 2328 
Q 422 3509 836 4129 
Q 1250 4750 2034 4750 
z
" transform="scale(0.015625)"/>
        <path id="DejaVuSans-2e" d="M 684 794 
L 1344 794 
L 1344 0 
L 684 0 
L 684 794 
z
" transform="scale(0.015625)"/>
       </defs>
       <use xlink:href="#DejaVuSans-30"/>
       <use xlink:href="#DejaVuSans-2e" x="63.623047"/>
       <use xlink:href="#DejaVuSans-30" x="95.410156"/>
      </g>
     </g>
    </g>
    <g id="ytick_2">
     <g id="line2d_4">
      <g>
       <use xlink:href="#m340237163f" x="51.32" y="542.869379" style="stroke: #000000; stroke-width: 0.8"/>
      </g>
     </g>
     <g id="text_5">
      <!-- 0.2 -->
      <g transform="translate(28.416875 546.668598) scale(0.1 -0.1)">
       <defs>
        <path id="DejaVuSans-32" d="M 1228 531 
L 3431 531 
L 3431 0 
L 469 0 
L 469 531 
Q 828 903 1448 1529 
Q 2069 2156 2228 2338 
Q 2531 2678 2651 2914 
Q 2772 3150 2772 3378 
Q 2772 3750 2511 3984 
Q 2250 4219 1831 4219 
Q 1534 4219 1204 4116 
Q 875 4013 500 3803 
L 500 4441 
Q 881 4594 1212 4672 
Q 1544 4750 1819 4750 
Q 2544 4750 2975 4387 
Q 3406 4025 3406 3419 
Q 3406 3131 3298 2873 
Q 3191 2616 2906 2266 
Q 2828 2175 2409 1742 
Q 1991 1309 1228 531 
z
" transform="scale(0.015625)"/>
       </defs>
       <use xlink:href="#DejaVuSans-30"/>
       <use xlink:href="#DejaVuSans-2e" x="63.623047"/>
       <use xlink:href="#DejaVuSans-32" x="95.410156"/>
      </g>
     </g>
    </g>
    <g id="ytick_3">
     <g id="line2d_5">
      <g>
       <use xlink:href="#m340237163f" x="51.32" y="469.045351" style="stroke: #000000; stroke-width: 0.8"/>
      </g>
     </g>
     <g id="text_6">
      <!-- 0.4 -->
      <g transform="translate(28.416875 472.84457) scale(0.1 -0.1)">
       <defs>
        <path id="DejaVuSans-34" d="M 2419 4116 
L 825 1625 
L 2419 1625 
L 2419 4116 
z
M 2253 4666 
L 3047 4666 
L 3047 1625 
L 3713 1625 
L 3713 1100 
L 3047 1100 
L 3047 0 
L 2419 0 
L 2419 1100 
L 313 1100 
L 313 1709 
L 2253 4666 
z
" transform="scale(0.015625)"/>
       </defs>
       <use xlink:href="#DejaVuSans-30"/>
       <use xlink:href="#DejaVuSans-2e" x="63.623047"/>
       <use xlink:href="#DejaVuSans-34" x="95.410156"/>
      </g>
     </g>
    </g>
    <g id="ytick_4">
     <g id="line2d_6">
      <g>
       <use xlink:href="#m340237163f" x="51.32" y="395.221322" style="stroke: #000000; stroke-width: 0.8"/>
      </g>
     </g>
     <g id="text_7">
      <!-- 0.6 -->
      <g transform="translate(28.416875 399.020541) scale(0.1 -0.1)">
       <defs>
        <path id="DejaVuSans-36" d="M 2113 2584 
Q 1688 2584 1439 2293 
Q 1191 2003 1191 1497 
Q 1191 994 1439 701 
Q 1688 409 2113 409 
Q 2538 409 2786 701 
Q 3034 994 3034 1497 
Q 3034 2003 2786 2293 
Q 2538 2584 2113 2584 
z
M 3366 4563 
L 3366 3988 
Q 3128 4100 2886 4159 
Q 2644 4219 2406 4219 
Q 1781 4219 1451 3797 
Q 1122 3375 1075 2522 
Q 1259 2794 1537 2939 
Q 1816 3084 2150 3084 
Q 2853 3084 3261 2657 
Q 3669 2231 3669 1497 
Q 3669 778 3244 343 
Q 2819 -91 2113 -91 
Q 1303 -91 875 529 
Q 447 1150 447 2328 
Q 447 3434 972 4092 
Q 1497 4750 2381 4750 
Q 2619 4750 2861 4703 
Q 3103 4656 3366 4563 
z
" transform="scale(0.015625)"/>
       </defs>
       <use xlink:href="#DejaVuSans-30"/>
       <use xlink:href="#DejaVuSans-2e" x="63.623047"/>
       <use xlink:href="#DejaVuSans-36" x="95.410156"/>
      </g>
     </g>
    </g>
    <g id="ytick_5">
     <g id="line2d_7">
      <g>
       <use xlink:href="#m340237163f" x="51.32" y="321.397294" style="stroke: #000000; stroke-width: 0.8"/>
      </g>
     </g>
     <g id="text_8">
      <!-- 0.8 -->
      <g transform="translate(28.416875 325.196513) scale(0.1 -0.1)">
       <defs>
        <path id="DejaVuSans-38" d="M 2034 2216 
Q 1584 2216 1326 1975 
Q 1069 1734 1069 1313 
Q 1069 891 1326 650 
Q 1584 409 2034 409 
Q 2484 409 2743 651 
Q 3003 894 3003 1313 
Q 3003 1734 2745 1975 
Q 2488 2216 2034 2216 
z
M 1403 2484 
Q 997 2584 770 2862 
Q 544 3141 544 3541 
Q 544 4100 942 4425 
Q 1341 4750 2034 4750 
Q 2731 4750 3128 4425 
Q 3525 4100 3525 3541 
Q 3525 3141 3298 2862 
Q 3072 2584 2669 2484 
Q 3125 2378 3379 2068 
Q 3634 1759 3634 1313 
Q 3634 634 3220 271 
Q 2806 -91 2034 -91 
Q 1263 -91 848 271 
Q 434 634 434 1313 
Q 434 1759 690 2068 
Q 947 2378 1403 2484 
z
M 1172 3481 
Q 1172 3119 1398 2916 
Q 1625 2713 2034 2713 
Q 2441 2713 2670 2916 
Q 2900 3119 2900 3481 
Q 2900 3844 2670 4047 
Q 2441 4250 2034 4250 
Q 1625 4250 1398 4047 
Q 1172 3844 1172 3481 
z
" transform="scale(0.015625)"/>
       </defs>
       <use xlink:href="#DejaVuSans-30"/>
       <use xlink:href="#DejaVuSans-2e" x="63.623047"/>
       <use xlink:href="#DejaVuSans-38" x="95.410156"/>
      </g>
     </g>
    </g>
    <g id="ytick_6">
     <g id="line2d_8">
      <g>
       <use xlink:href="#m340237163f" x="51.32" y="247.573265" style="stroke: #000000; stroke-width: 0.8"/>
      </g>
     </g>
     <g id="text_9">
      <!-- 1.0 -->
      <g transform="translate(28.416875 251.372484) scale(0.1 -0.1)">
       <defs>
        <path id="DejaVuSans-31" d="M 794 531 
L 1825 531 
L 1825 4091 
L 703 3866 
L 703 4441 
L 1819 4666 
L 2450 4666 
L 2450 531 
L 3481 531 
L 3481 0 
L 794 0 
L 794 531 
z
" transform="scale(0.015625)"/>
       </defs>
       <use xlink:href="#DejaVuSans-31"/>
       <use xlink:href="#DejaVuSans-2e" x="63.623047"/>
       <use xlink:href="#DejaVuSans-30" x="95.410156"/>
      </g>
     </g>
    </g>
    <g id="ytick_7">
     <g id="line2d_9">
      <g>
       <use xlink:href="#m340237163f" x="51.32" y="173.749237" style="stroke: #000000; stroke-width: 0.8"/>
      </g>
     </g>
     <g id="text_10">
      <!-- 1.2 -->
      <g transform="translate(28.416875 177.548456) scale(0.1 -0.1)">
       <use xlink:href="#DejaVuSans-31"/>
       <use xlink:href="#DejaVuSans-2e" x="63.623047"/>
       <use xlink:href="#DejaVuSans-32" x="95.410156"/>
      </g>
     </g>
    </g>
    <g id="ytick_8">
     <g id="line2d_10">
      <g>
       <use xlink:href="#m340237163f" x="51.32" y="99.925208" style="stroke: #000000; stroke-width: 0.8"/>
      </g>
     </g>
     <g id="text_11">
      <!-- 1.4 -->
      <g transform="translate(28.416875 103.724427) scale(0.1 -0.1)">
       <use xlink:href="#DejaVuSans-31"/>
       <use xlink:href="#DejaVuSans-2e" x="63.623047"/>
       <use xlink:href="#DejaVuSans-34" x="95.410156"/>
      </g>
     </g>
    </g>
    <g id="text_12">
     <!-- Score -->
     <g transform="translate(21.505312 385.419281) rotate(-90) scale(0.14 -0.14)">
      <use xlink:href="#DejaVuSans-53"/>
      <use xlink:href="#DejaVuSans-63" x="63.476562"/>
      <use xlink:href="#DejaVuSans-6f" x="118.457031"/>
      <use xlink:href="#DejaVuSans-72" x="179.638672"/>
      <use xlink:href="#DejaVuSans-65" x="218.501953"/>
     </g>
    </g>
   </g>
   <g id="line2d_11">
    <path d="M 273.230557 430.473576 
L 273.230557 310.38766 
" clip-path="url(#p965b1c3b8d)" style="fill: none; stroke: #3f3f3f; stroke-width: 1.875; stroke-linecap: square"/>
   </g>
   <g id="line2d_12">
    <path d="M 273.230557 368.473183 
L 273.230557 310.38766 
" clip-path="url(#p965b1c3b8d)" style="fill: none; stroke: #3f3f3f; stroke-width: 5.625; stroke-linecap: square"/>
   </g>
   <g id="line2d_13">
    <path d="M 273.230557 360.181826 
" clip-path="url(#p965b1c3b8d)" style="fill: none; stroke: #3f3f3f; stroke-width: 1.5; stroke-linecap: square"/>
    <defs>
     <path id="me0b24ed0c4" d="M 2.34375 0 
L -2.34375 -0 
" style="stroke: #ffffff; stroke-width: 1.125"/>
    </defs>
    <g clip-path="url(#p965b1c3b8d)">
     <use xlink:href="#me0b24ed0c4" x="273.230557" y="360.181826" style="fill: #ffffff; stroke: #ffffff; stroke-width: 1.125"/>
    </g>
   </g>
   <g id="line2d_14">
    <path d="M 278.855557 616.008189 
L 278.855557 611.901099 
" clip-path="url(#p965b1c3b8d)" style="fill: none; stroke: #3f3f3f; stroke-width: 1.875; stroke-linecap: square"/>
   </g>
   <g id="line2d_15">
    <path d="M 278.855557 615.33163 
L 278.855557 613.808573 
" clip-path="url(#p965b1c3b8d)" style="fill: none; stroke: #3f3f3f; stroke-width: 5.625; stroke-linecap: square"/>
   </g>
   <g id="line2d_16">
    <path d="M 278.855557 614.549976 
" clip-path="url(#p965b1c3b8d)" style="fill: none; stroke: #3f3f3f; stroke-width: 1.5; stroke-linecap: square"/>
    <g clip-path="url(#p965b1c3b8d)">
     <use xlink:href="#me0b24ed0c4" x="278.855557" y="614.549976" style="fill: #ffffff; stroke: #ffffff; stroke-width: 1.125"/>
    </g>
   </g>
   <g id="line2d_17">
    <path d="M 652.27667 430.473576 
L 652.27667 310.38766 
" clip-path="url(#p965b1c3b8d)" style="fill: none; stroke: #3f3f3f; stroke-width: 1.875; stroke-linecap: square"/>
   </g>
   <g id="line2d_18">
    <path d="M 652.27667 368.473183 
L 652.27667 310.38766 
" clip-path="url(#p965b1c3b8d)" style="fill: none; stroke: #3f3f3f; stroke-width: 5.625; stroke-linecap: square"/>
   </g>
   <g id="line2d_19">
    <path d="M 652.27667 360.181826 
" clip-path="url(#p965b1c3b8d)" style="fill: none; stroke: #3f3f3f; stroke-width: 1.5; stroke-linecap: square"/>
    <g clip-path="url(#p965b1c3b8d)">
     <use xlink:href="#me0b24ed0c4" x="652.27667" y="360.181826" style="fill: #ffffff; stroke: #ffffff; stroke-width: 1.125"/>
    </g>
   </g>
   <g id="line2d_20">
    <path d="M 657.90167 615.595071 
L 657.90167 611.002042 
" clip-path="url(#p965b1c3b8d)" style="fill: none; stroke: #3f3f3f; stroke-width: 1.875; stroke-linecap: square"/>
   </g>
   <g id="line2d_21">
    <path d="M 657.90167 614.639426 
L 657.90167 613.006058 
" clip-path="url(#p965b1c3b8d)" style="fill: none; stroke: #3f3f3f; stroke-width: 5.625; stroke-linecap: square"/>
   </g>
   <g id="line2d_22">
    <path d="M 657.90167 613.995848 
" clip-path="url(#p965b1c3b8d)" style="fill: none; stroke: #3f3f3f; stroke-width: 1.5; stroke-linecap: square"/>
    <g clip-path="url(#p965b1c3b8d)">
     <use xlink:href="#me0b24ed0c4" x="657.90167" y="613.995848" style="fill: #ffffff; stroke: #ffffff; stroke-width: 1.125"/>
    </g>
   </g>
   <g id="patch_6">
    <path d="M 51.32 642.4 
L 51.32 89.232 
" style="fill: none; stroke: #000000; stroke-width: 0.8; stroke-linejoin: miter; stroke-linecap: square"/>
   </g>
   <g id="patch_7">
    <path d="M 825.72 642.4 
L 825.72 89.232 
" style="fill: none; stroke: #000000; stroke-width: 0.8; stroke-linejoin: miter; stroke-linecap: square"/>
   </g>
   <g id="patch_8">
    <path d="M 51.32 642.4 
L 825.72 642.4 
" style="fill: none; stroke: #000000; stroke-width: 0.8; stroke-linejoin: miter; stroke-linecap: square"/>
   </g>
   <g id="patch_9">
    <path d="M 51.32 89.232 
L 825.72 89.232 
" style="fill: none; stroke: #000000; stroke-width: 0.8; stroke-linejoin: miter; stroke-linecap: square"/>
   </g>
   <g id="text_13">
    <!-- Violinplot of Scores Grouped by Statistical Test  -->
    <g transform="translate(249.7375 65.3155) scale(0.16 -0.16)">
     <defs>
      <path id="DejaVuSans-56" d="M 1831 0 
L 50 4666 
L 709 4666 
L 2188 738 
L 3669 4666 
L 4325 4666 
L 2547 0 
L 1831 0 
z
" transform="scale(0.015625)"/>
      <path id="DejaVuSans-70" d="M 1159 525 
L 1159 -1331 
L 581 -1331 
L 581 3500 
L 1159 3500 
L 1159 2969 
Q 1341 3281 1617 3432 
Q 1894 3584 2278 3584 
Q 2916 3584 3314 3078 
Q 3713 2572 3713 1747 
Q 3713 922 3314 415 
Q 2916 -91 2278 -91 
Q 1894 -91 1617 61 
Q 1341 213 1159 525 
z
M 3116 1747 
Q 3116 2381 2855 2742 
Q 2594 3103 2138 3103 
Q 1681 3103 1420 2742 
Q 1159 2381 1159 1747 
Q 1159 1113 1420 752 
Q 1681 391 2138 391 
Q 2594 391 2855 752 
Q 3116 1113 3116 1747 
z
" transform="scale(0.015625)"/>
      <path id="DejaVuSans-47" d="M 3809 666 
L 3809 1919 
L 2778 1919 
L 2778 2438 
L 4434 2438 
L 4434 434 
Q 4069 175 3628 42 
Q 3188 -91 2688 -91 
Q 1594 -91 976 548 
Q 359 1188 359 2328 
Q 359 3472 976 4111 
Q 1594 4750 2688 4750 
Q 3144 4750 3555 4637 
Q 3966 4525 4313 4306 
L 4313 3634 
Q 3963 3931 3569 4081 
Q 3175 4231 2741 4231 
Q 1884 4231 1454 3753 
Q 1025 3275 1025 2328 
Q 1025 1384 1454 906 
Q 1884 428 2741 428 
Q 3075 428 3337 486 
Q 3600 544 3809 666 
z
" transform="scale(0.015625)"/>
      <path id="DejaVuSans-64" d="M 2906 2969 
L 2906 4863 
L 3481 4863 
L 3481 0 
L 2906 0 
L 2906 525 
Q 2725 213 2448 61 
Q 2172 -91 1784 -91 
Q 1150 -91 751 415 
Q 353 922 353 1747 
Q 353 2572 751 3078 
Q 1150 3584 1784 3584 
Q 2172 3584 2448 3432 
Q 2725 3281 2906 2969 
z
M 947 1747 
Q 947 1113 1208 752 
Q 1469 391 1925 391 
Q 2381 391 2643 752 
Q 2906 1113 2906 1747 
Q 2906 2381 2643 2742 
Q 2381 3103 1925 3103 
Q 1469 3103 1208 2742 
Q 947 2381 947 1747 
z
" transform="scale(0.015625)"/>
      <path id="DejaVuSans-62" d="M 3116 1747 
Q 3116 2381 2855 2742 
Q 2594 3103 2138 3103 
Q 1681 3103 1420 2742 
Q 1159 2381 1159 1747 
Q 1159 1113 1420 752 
Q 1681 391 2138 391 
Q 2594 391 2855 752 
Q 3116 1113 3116 1747 
z
M 1159 2969 
Q 1341 3281 1617 3432 
Q 1894 3584 2278 3584 
Q 2916 3584 3314 3078 
Q 3713 2572 3713 1747 
Q 3713 922 3314 415 
Q 2916 -91 2278 -91 
Q 1894 -91 1617 61 
Q 1341 213 1159 525 
L 1159 0 
L 581 0 
L 581 4863 
L 1159 4863 
L 1159 2969 
z
" transform="scale(0.015625)"/>
      <path id="DejaVuSans-79" d="M 2059 -325 
Q 1816 -950 1584 -1140 
Q 1353 -1331 966 -1331 
L 506 -1331 
L 506 -850 
L 844 -850 
Q 1081 -850 1212 -737 
Q 1344 -625 1503 -206 
L 1606 56 
L 191 3500 
L 800 3500 
L 1894 763 
L 2988 3500 
L 3597 3500 
L 2059 -325 
z
" transform="scale(0.015625)"/>
     </defs>
     <use xlink:href="#DejaVuSans-56"/>
     <use xlink:href="#DejaVuSans-69" x="66.158203"/>
     <use xlink:href="#DejaVuSans-6f" x="93.941406"/>
     <use xlink:href="#DejaVuSans-6c" x="155.123047"/>
     <use xlink:href="#DejaVuSans-69" x="182.90625"/>
     <use xlink:href="#DejaVuSans-6e" x="210.689453"/>
     <use xlink:href="#DejaVuSans-70" x="274.068359"/>
     <use xlink:href="#DejaVuSans-6c" x="337.544922"/>
     <use xlink:href="#DejaVuSans-6f" x="365.328125"/>
     <use xlink:href="#DejaVuSans-74" x="426.509766"/>
     <use xlink:href="#DejaVuSans-20" x="465.71875"/>
     <use xlink:href="#DejaVuSans-6f" x="497.505859"/>
     <use xlink:href="#DejaVuSans-66" x="558.6875"/>
     <use xlink:href="#DejaVuSans-20" x="593.892578"/>
     <use xlink:href="#DejaVuSans-53" x="625.679688"/>
     <use xlink:href="#DejaVuSans-63" x="689.15625"/>
     <use xlink:href="#DejaVuSans-6f" x="744.136719"/>
     <use xlink:href="#DejaVuSans-72" x="805.318359"/>
     <use xlink:href="#DejaVuSans-65" x="844.181641"/>
     <use xlink:href="#DejaVuSans-73" x="905.705078"/>
     <use xlink:href="#DejaVuSans-20" x="957.804688"/>
     <use xlink:href="#DejaVuSans-47" x="989.591797"/>
     <use xlink:href="#DejaVuSans-72" x="1067.082031"/>
     <use xlink:href="#DejaVuSans-6f" x="1105.945312"/>
     <use xlink:href="#DejaVuSans-75" x="1167.126953"/>
     <use xlink:href="#DejaVuSans-70" x="1230.505859"/>
     <use xlink:href="#DejaVuSans-65" x="1293.982422"/>
     <use xlink:href="#DejaVuSans-64" x="1355.505859"/>
     <use xlink:href="#DejaVuSans-20" x="1418.982422"/>
     <use xlink:href="#DejaVuSans-62" x="1450.769531"/>
     <use xlink:href="#DejaVuSans-79" x="1514.246094"/>
     <use xlink:href="#DejaVuSans-20" x="1573.425781"/>
     <use xlink:href="#DejaVuSans-53" x="1605.212891"/>
     <use xlink:href="#DejaVuSans-74" x="1668.689453"/>
     <use xlink:href="#DejaVuSans-61" x="1707.898438"/>
     <use xlink:href="#DejaVuSans-74" x="1769.177734"/>
     <use xlink:href="#DejaVuSans-69" x="1808.386719"/>
     <use xlink:href="#DejaVuSans-73" x="1836.169922"/>
     <use xlink:href="#DejaVuSans-74" x="1888.269531"/>
     <use xlink:href="#DejaVuSans-69" x="1927.478516"/>
     <use xlink:href="#DejaVuSans-63" x="1955.261719"/>
     <use xlink:href="#DejaVuSans-61" x="2010.242188"/>
     <use xlink:href="#DejaVuSans-6c" x="2071.521484"/>
     <use xlink:href="#DejaVuSans-20" x="2099.304688"/>
     <use xlink:href="#DejaVuSans-54" x="2131.091797"/>
     <use xlink:href="#DejaVuSans-65" x="2175.175781"/>
     <use xlink:href="#DejaVuSans-73" x="2236.699219"/>
     <use xlink:href="#DejaVuSans-74" x="2288.798828"/>
     <use xlink:href="#DejaVuSans-20" x="2328.007812"/>
    </g>
    <!-- Across all subjects -->
    <g transform="translate(364.85375 83.232) scale(0.16 -0.16)">
     <defs>
      <path id="DejaVuSans-41" d="M 2188 4044 
L 1331 1722 
L 3047 1722 
L 2188 4044 
z
M 1831 4666 
L 2547 4666 
L 4325 0 
L 3669 0 
L 3244 1197 
L 1141 1197 
L 716 0 
L 50 0 
L 1831 4666 
z
" transform="scale(0.015625)"/>
      <path id="DejaVuSans-6a" d="M 603 3500 
L 1178 3500 
L 1178 -63 
Q 1178 -731 923 -1031 
Q 669 -1331 103 -1331 
L -116 -1331 
L -116 -844 
L 38 -844 
Q 366 -844 484 -692 
Q 603 -541 603 -63 
L 603 3500 
z
M 603 4863 
L 1178 4863 
L 1178 4134 
L 603 4134 
L 603 4863 
z
" transform="scale(0.015625)"/>
     </defs>
     <use xlink:href="#DejaVuSans-41"/>
     <use xlink:href="#DejaVuSans-63" x="66.658203"/>
     <use xlink:href="#DejaVuSans-72" x="121.638672"/>
     <use xlink:href="#DejaVuSans-6f" x="160.501953"/>
     <use xlink:href="#DejaVuSans-73" x="221.683594"/>
     <use xlink:href="#DejaVuSans-73" x="273.783203"/>
     <use xlink:href="#DejaVuSans-20" x="325.882812"/>
     <use xlink:href="#DejaVuSans-61" x="357.669922"/>
     <use xlink:href="#DejaVuSans-6c" x="418.949219"/>
     <use xlink:href="#DejaVuSans-6c" x="446.732422"/>
     <use xlink:href="#DejaVuSans-20" x="474.515625"/>
     <use xlink:href="#DejaVuSans-73" x="506.302734"/>
     <use xlink:href="#DejaVuSans-75" x="558.402344"/>
     <use xlink:href="#DejaVuSans-62" x="621.78125"/>
     <use xlink:href="#DejaVuSans-6a" x="685.257812"/>
     <use xlink:href="#DejaVuSans-65" x="713.041016"/>
     <use xlink:href="#DejaVuSans-63" x="774.564453"/>
     <use xlink:href="#DejaVuSans-74" x="829.544922"/>
     <use xlink:href="#DejaVuSans-73" x="868.753906"/>
    </g>
   </g>
   <g id="legend_1">
    <g id="patch_10">
     <path d="M 668.07875 149.737625 
L 856.04 149.737625 
Q 858.44 149.737625 858.44 147.337625 
L 858.44 97.632 
Q 858.44 95.232 856.04 95.232 
L 668.07875 95.232 
Q 665.67875 95.232 665.67875 97.632 
L 665.67875 147.337625 
Q 665.67875 149.737625 668.07875 149.737625 
z
" style="fill: #ffffff; opacity: 0.8; stroke: #cccccc; stroke-linejoin: miter"/>
    </g>
    <g id="text_14">
     <!-- Score Type -->
     <g transform="translate(734.985156 107.630437) scale(0.1 -0.1)">
      <use xlink:href="#DejaVuSans-53"/>
      <use xlink:href="#DejaVuSans-63" x="63.476562"/>
      <use xlink:href="#DejaVuSans-6f" x="118.457031"/>
      <use xlink:href="#DejaVuSans-72" x="179.638672"/>
      <use xlink:href="#DejaVuSans-65" x="218.501953"/>
      <use xlink:href="#DejaVuSans-20" x="280.025391"/>
      <use xlink:href="#DejaVuSans-54" x="311.8125"/>
      <use xlink:href="#DejaVuSans-79" x="357.271484"/>
      <use xlink:href="#DejaVuSans-70" x="416.451172"/>
      <use xlink:href="#DejaVuSans-65" x="479.927734"/>
     </g>
    </g>
    <g id="patch_11">
     <path d="M 670.47875 124.82825 
L 694.47875 124.82825 
L 694.47875 116.42825 
L 670.47875 116.42825 
z
" style="fill: #3274a1; stroke: #3f3f3f; stroke-width: 1.25; stroke-linejoin: miter"/>
    </g>
    <g id="text_15">
     <!-- Score: (x real, y real) -->
     <g transform="translate(704.07875 124.82825) scale(0.12 -0.12)">
      <defs>
       <path id="DejaVuSans-3a" d="M 750 794 
L 1409 794 
L 1409 0 
L 750 0 
L 750 794 
z
M 750 3309 
L 1409 3309 
L 1409 2516 
L 750 2516 
L 750 3309 
z
" transform="scale(0.015625)"/>
       <path id="DejaVuSans-28" d="M 1984 4856 
Q 1566 4138 1362 3434 
Q 1159 2731 1159 2009 
Q 1159 1288 1364 580 
Q 1569 -128 1984 -844 
L 1484 -844 
Q 1016 -109 783 600 
Q 550 1309 550 2009 
Q 550 2706 781 3412 
Q 1013 4119 1484 4856 
L 1984 4856 
z
" transform="scale(0.015625)"/>
       <path id="DejaVuSans-78" d="M 3513 3500 
L 2247 1797 
L 3578 0 
L 2900 0 
L 1881 1375 
L 863 0 
L 184 0 
L 1544 1831 
L 300 3500 
L 978 3500 
L 1906 2253 
L 2834 3500 
L 3513 3500 
z
" transform="scale(0.015625)"/>
       <path id="DejaVuSans-2c" d="M 750 794 
L 1409 794 
L 1409 256 
L 897 -744 
L 494 -744 
L 750 256 
L 750 794 
z
" transform="scale(0.015625)"/>
       <path id="DejaVuSans-29" d="M 513 4856 
L 1013 4856 
Q 1481 4119 1714 3412 
Q 1947 2706 1947 2009 
Q 1947 1309 1714 600 
Q 1481 -109 1013 -844 
L 513 -844 
Q 928 -128 1133 580 
Q 1338 1288 1338 2009 
Q 1338 2731 1133 3434 
Q 928 4138 513 4856 
z
" transform="scale(0.015625)"/>
      </defs>
      <use xlink:href="#DejaVuSans-53"/>
      <use xlink:href="#DejaVuSans-63" x="63.476562"/>
      <use xlink:href="#DejaVuSans-6f" x="118.457031"/>
      <use xlink:href="#DejaVuSans-72" x="179.638672"/>
      <use xlink:href="#DejaVuSans-65" x="218.501953"/>
      <use xlink:href="#DejaVuSans-3a" x="280.025391"/>
      <use xlink:href="#DejaVuSans-20" x="313.716797"/>
      <use xlink:href="#DejaVuSans-28" x="345.503906"/>
      <use xlink:href="#DejaVuSans-78" x="384.517578"/>
      <use xlink:href="#DejaVuSans-20" x="443.697266"/>
      <use xlink:href="#DejaVuSans-72" x="475.484375"/>
      <use xlink:href="#DejaVuSans-65" x="514.347656"/>
      <use xlink:href="#DejaVuSans-61" x="575.871094"/>
      <use xlink:href="#DejaVuSans-6c" x="637.150391"/>
      <use xlink:href="#DejaVuSans-2c" x="664.933594"/>
      <use xlink:href="#DejaVuSans-20" x="696.720703"/>
      <use xlink:href="#DejaVuSans-79" x="728.507812"/>
      <use xlink:href="#DejaVuSans-20" x="787.6875"/>
      <use xlink:href="#DejaVuSans-72" x="819.474609"/>
      <use xlink:href="#DejaVuSans-65" x="858.337891"/>
      <use xlink:href="#DejaVuSans-61" x="919.861328"/>
      <use xlink:href="#DejaVuSans-6c" x="981.140625"/>
      <use xlink:href="#DejaVuSans-29" x="1008.923828"/>
     </g>
    </g>
    <g id="patch_12">
     <path d="M 670.47875 142.442 
L 694.47875 142.442 
L 694.47875 134.042 
L 670.47875 134.042 
z
" style="fill: #e1812c; stroke: #3f3f3f; stroke-width: 1.25; stroke-linejoin: miter"/>
    </g>
    <g id="text_16">
     <!-- Score: (x random, y real) -->
     <g transform="translate(704.07875 142.442) scale(0.12 -0.12)">
      <use xlink:href="#DejaVuSans-53"/>
      <use xlink:href="#DejaVuSans-63" x="63.476562"/>
      <use xlink:href="#DejaVuSans-6f" x="118.457031"/>
      <use xlink:href="#DejaVuSans-72" x="179.638672"/>
      <use xlink:href="#DejaVuSans-65" x="218.501953"/>
      <use xlink:href="#DejaVuSans-3a" x="280.025391"/>
      <use xlink:href="#DejaVuSans-20" x="313.716797"/>
      <use xlink:href="#DejaVuSans-28" x="345.503906"/>
      <use xlink:href="#DejaVuSans-78" x="384.517578"/>
      <use xlink:href="#DejaVuSans-20" x="443.697266"/>
      <use xlink:href="#DejaVuSans-72" x="475.484375"/>
      <use xlink:href="#DejaVuSans-61" x="516.597656"/>
      <use xlink:href="#DejaVuSans-6e" x="577.876953"/>
      <use xlink:href="#DejaVuSans-64" x="641.255859"/>
      <use xlink:href="#DejaVuSans-6f" x="704.732422"/>
      <use xlink:href="#DejaVuSans-6d" x="765.914062"/>
      <use xlink:href="#DejaVuSans-2c" x="863.326172"/>
      <use xlink:href="#DejaVuSans-20" x="895.113281"/>
      <use xlink:href="#DejaVuSans-79" x="926.900391"/>
      <use xlink:href="#DejaVuSans-20" x="986.080078"/>
      <use xlink:href="#DejaVuSans-72" x="1017.867188"/>
      <use xlink:href="#DejaVuSans-65" x="1056.730469"/>
      <use xlink:href="#DejaVuSans-61" x="1118.253906"/>
      <use xlink:href="#DejaVuSans-6c" x="1179.533203"/>
      <use xlink:href="#DejaVuSans-29" x="1207.316406"/>
     </g>
    </g>
   </g>
  </g>
  <g id="text_17">
   <!-- Filters applied: Subject ID=All (1), Hemisphere=['left', 'right'], Task=All (5), -->
   <g transform="translate(244.490625 7.598438) scale(0.1 -0.1)">
    <defs>
     <path id="DejaVuSans-46" d="M 628 4666 
L 3309 4666 
L 3309 4134 
L 1259 4134 
L 1259 2759 
L 3109 2759 
L 3109 2228 
L 1259 2228 
L 1259 0 
L 628 0 
L 628 4666 
z
" transform="scale(0.015625)"/>
     <path id="DejaVuSans-44" d="M 1259 4147 
L 1259 519 
L 2022 519 
Q 2988 519 3436 956 
Q 3884 1394 3884 2338 
Q 3884 3275 3436 3711 
Q 2988 4147 2022 4147 
L 1259 4147 
z
M 628 4666 
L 1925 4666 
Q 3281 4666 3915 4102 
Q 4550 3538 4550 2338 
Q 4550 1131 3912 565 
Q 3275 0 1925 0 
L 628 0 
L 628 4666 
z
" transform="scale(0.015625)"/>
     <path id="DejaVuSans-3d" d="M 678 2906 
L 4684 2906 
L 4684 2381 
L 678 2381 
L 678 2906 
z
M 678 1631 
L 4684 1631 
L 4684 1100 
L 678 1100 
L 678 1631 
z
" transform="scale(0.015625)"/>
     <path id="DejaVuSans-48" d="M 628 4666 
L 1259 4666 
L 1259 2753 
L 3553 2753 
L 3553 4666 
L 4184 4666 
L 4184 0 
L 3553 0 
L 3553 2222 
L 1259 2222 
L 1259 0 
L 628 0 
L 628 4666 
z
" transform="scale(0.015625)"/>
     <path id="DejaVuSans-5b" d="M 550 4863 
L 1875 4863 
L 1875 4416 
L 1125 4416 
L 1125 -397 
L 1875 -397 
L 1875 -844 
L 550 -844 
L 550 4863 
z
" transform="scale(0.015625)"/>
     <path id="DejaVuSans-27" d="M 1147 4666 
L 1147 2931 
L 616 2931 
L 616 4666 
L 1147 4666 
z
" transform="scale(0.015625)"/>
     <path id="DejaVuSans-67" d="M 2906 1791 
Q 2906 2416 2648 2759 
Q 2391 3103 1925 3103 
Q 1463 3103 1205 2759 
Q 947 2416 947 1791 
Q 947 1169 1205 825 
Q 1463 481 1925 481 
Q 2391 481 2648 825 
Q 2906 1169 2906 1791 
z
M 3481 434 
Q 3481 -459 3084 -895 
Q 2688 -1331 1869 -1331 
Q 1566 -1331 1297 -1286 
Q 1028 -1241 775 -1147 
L 775 -588 
Q 1028 -725 1275 -790 
Q 1522 -856 1778 -856 
Q 2344 -856 2625 -561 
Q 2906 -266 2906 331 
L 2906 616 
Q 2728 306 2450 153 
Q 2172 0 1784 0 
Q 1141 0 747 490 
Q 353 981 353 1791 
Q 353 2603 747 3093 
Q 1141 3584 1784 3584 
Q 2172 3584 2450 3431 
Q 2728 3278 2906 2969 
L 2906 3500 
L 3481 3500 
L 3481 434 
z
" transform="scale(0.015625)"/>
     <path id="DejaVuSans-5d" d="M 1947 4863 
L 1947 -844 
L 622 -844 
L 622 -397 
L 1369 -397 
L 1369 4416 
L 622 4416 
L 622 4863 
L 1947 4863 
z
" transform="scale(0.015625)"/>
     <path id="DejaVuSans-6b" d="M 581 4863 
L 1159 4863 
L 1159 1991 
L 2875 3500 
L 3609 3500 
L 1753 1863 
L 3688 0 
L 2938 0 
L 1159 1709 
L 1159 0 
L 581 0 
L 581 4863 
z
" transform="scale(0.015625)"/>
     <path id="DejaVuSans-35" d="M 691 4666 
L 3169 4666 
L 3169 4134 
L 1269 4134 
L 1269 2991 
Q 1406 3038 1543 3061 
Q 1681 3084 1819 3084 
Q 2600 3084 3056 2656 
Q 3513 2228 3513 1497 
Q 3513 744 3044 326 
Q 2575 -91 1722 -91 
Q 1428 -91 1123 -41 
Q 819 9 494 109 
L 494 744 
Q 775 591 1075 516 
Q 1375 441 1709 441 
Q 2250 441 2565 725 
Q 2881 1009 2881 1497 
Q 2881 1984 2565 2268 
Q 2250 2553 1709 2553 
Q 1456 2553 1204 2497 
Q 953 2441 691 2322 
L 691 4666 
z
" transform="scale(0.015625)"/>
    </defs>
    <use xlink:href="#DejaVuSans-46"/>
    <use xlink:href="#DejaVuSans-69" x="50.269531"/>
    <use xlink:href="#DejaVuSans-6c" x="78.052734"/>
    <use xlink:href="#DejaVuSans-74" x="105.835938"/>
    <use xlink:href="#DejaVuSans-65" x="145.044922"/>
    <use xlink:href="#DejaVuSans-72" x="206.568359"/>
    <use xlink:href="#DejaVuSans-73" x="247.681641"/>
    <use xlink:href="#DejaVuSans-20" x="299.78125"/>
    <use xlink:href="#DejaVuSans-61" x="331.568359"/>
    <use xlink:href="#DejaVuSans-70" x="392.847656"/>
    <use xlink:href="#DejaVuSans-70" x="456.324219"/>
    <use xlink:href="#DejaVuSans-6c" x="519.800781"/>
    <use xlink:href="#DejaVuSans-69" x="547.583984"/>
    <use xlink:href="#DejaVuSans-65" x="575.367188"/>
    <use xlink:href="#DejaVuSans-64" x="636.890625"/>
    <use xlink:href="#DejaVuSans-3a" x="700.367188"/>
    <use xlink:href="#DejaVuSans-20" x="734.058594"/>
    <use xlink:href="#DejaVuSans-53" x="765.845703"/>
    <use xlink:href="#DejaVuSans-75" x="829.322266"/>
    <use xlink:href="#DejaVuSans-62" x="892.701172"/>
    <use xlink:href="#DejaVuSans-6a" x="956.177734"/>
    <use xlink:href="#DejaVuSans-65" x="983.960938"/>
    <use xlink:href="#DejaVuSans-63" x="1045.484375"/>
    <use xlink:href="#DejaVuSans-74" x="1100.464844"/>
    <use xlink:href="#DejaVuSans-20" x="1139.673828"/>
    <use xlink:href="#DejaVuSans-49" x="1171.460938"/>
    <use xlink:href="#DejaVuSans-44" x="1200.953125"/>
    <use xlink:href="#DejaVuSans-3d" x="1277.955078"/>
    <use xlink:href="#DejaVuSans-41" x="1361.744141"/>
    <use xlink:href="#DejaVuSans-6c" x="1430.152344"/>
    <use xlink:href="#DejaVuSans-6c" x="1457.935547"/>
    <use xlink:href="#DejaVuSans-20" x="1485.71875"/>
    <use xlink:href="#DejaVuSans-28" x="1517.505859"/>
    <use xlink:href="#DejaVuSans-31" x="1556.519531"/>
    <use xlink:href="#DejaVuSans-29" x="1620.142578"/>
    <use xlink:href="#DejaVuSans-2c" x="1659.15625"/>
    <use xlink:href="#DejaVuSans-20" x="1690.943359"/>
    <use xlink:href="#DejaVuSans-48" x="1722.730469"/>
    <use xlink:href="#DejaVuSans-65" x="1797.925781"/>
    <use xlink:href="#DejaVuSans-6d" x="1859.449219"/>
    <use xlink:href="#DejaVuSans-69" x="1956.861328"/>
    <use xlink:href="#DejaVuSans-73" x="1984.644531"/>
    <use xlink:href="#DejaVuSans-70" x="2036.744141"/>
    <use xlink:href="#DejaVuSans-68" x="2100.220703"/>
    <use xlink:href="#DejaVuSans-65" x="2163.599609"/>
    <use xlink:href="#DejaVuSans-72" x="2225.123047"/>
    <use xlink:href="#DejaVuSans-65" x="2263.986328"/>
    <use xlink:href="#DejaVuSans-3d" x="2325.509766"/>
    <use xlink:href="#DejaVuSans-5b" x="2409.298828"/>
    <use xlink:href="#DejaVuSans-27" x="2448.3125"/>
    <use xlink:href="#DejaVuSans-6c" x="2475.802734"/>
    <use xlink:href="#DejaVuSans-65" x="2503.585938"/>
    <use xlink:href="#DejaVuSans-66" x="2565.109375"/>
    <use xlink:href="#DejaVuSans-74" x="2598.564453"/>
    <use xlink:href="#DejaVuSans-27" x="2637.773438"/>
    <use xlink:href="#DejaVuSans-2c" x="2665.263672"/>
    <use xlink:href="#DejaVuSans-20" x="2697.050781"/>
    <use xlink:href="#DejaVuSans-27" x="2728.837891"/>
    <use xlink:href="#DejaVuSans-72" x="2756.328125"/>
    <use xlink:href="#DejaVuSans-69" x="2797.441406"/>
    <use xlink:href="#DejaVuSans-67" x="2825.224609"/>
    <use xlink:href="#DejaVuSans-68" x="2888.701172"/>
    <use xlink:href="#DejaVuSans-74" x="2952.080078"/>
    <use xlink:href="#DejaVuSans-27" x="2991.289062"/>
    <use xlink:href="#DejaVuSans-5d" x="3018.779297"/>
    <use xlink:href="#DejaVuSans-2c" x="3057.792969"/>
    <use xlink:href="#DejaVuSans-20" x="3089.580078"/>
    <use xlink:href="#DejaVuSans-54" x="3121.367188"/>
    <use xlink:href="#DejaVuSans-61" x="3165.951172"/>
    <use xlink:href="#DejaVuSans-73" x="3227.230469"/>
    <use xlink:href="#DejaVuSans-6b" x="3279.330078"/>
    <use xlink:href="#DejaVuSans-3d" x="3337.240234"/>
    <use xlink:href="#DejaVuSans-41" x="3421.029297"/>
    <use xlink:href="#DejaVuSans-6c" x="3489.4375"/>
    <use xlink:href="#DejaVuSans-6c" x="3517.220703"/>
    <use xlink:href="#DejaVuSans-20" x="3545.003906"/>
    <use xlink:href="#DejaVuSans-28" x="3576.791016"/>
    <use xlink:href="#DejaVuSans-35" x="3615.804688"/>
    <use xlink:href="#DejaVuSans-29" x="3679.427734"/>
    <use xlink:href="#DejaVuSans-2c" x="3718.441406"/>
   </g>
   <!-- Statistical Test=['Mutual Information Score - X as Truth', 'Mutual Information -->
   <g transform="translate(241.711719 18.79625) scale(0.1 -0.1)">
    <use xlink:href="#DejaVuSans-53"/>
    <use xlink:href="#DejaVuSans-74" x="63.476562"/>
    <use xlink:href="#DejaVuSans-61" x="102.685547"/>
    <use xlink:href="#DejaVuSans-74" x="163.964844"/>
    <use xlink:href="#DejaVuSans-69" x="203.173828"/>
    <use xlink:href="#DejaVuSans-73" x="230.957031"/>
    <use xlink:href="#DejaVuSans-74" x="283.056641"/>
    <use xlink:href="#DejaVuSans-69" x="322.265625"/>
    <use xlink:href="#DejaVuSans-63" x="350.048828"/>
    <use xlink:href="#DejaVuSans-61" x="405.029297"/>
    <use xlink:href="#DejaVuSans-6c" x="466.308594"/>
    <use xlink:href="#DejaVuSans-20" x="494.091797"/>
    <use xlink:href="#DejaVuSans-54" x="525.878906"/>
    <use xlink:href="#DejaVuSans-65" x="569.962891"/>
    <use xlink:href="#DejaVuSans-73" x="631.486328"/>
    <use xlink:href="#DejaVuSans-74" x="683.585938"/>
    <use xlink:href="#DejaVuSans-3d" x="722.794922"/>
    <use xlink:href="#DejaVuSans-5b" x="806.583984"/>
    <use xlink:href="#DejaVuSans-27" x="845.597656"/>
    <use xlink:href="#DejaVuSans-4d" x="873.087891"/>
    <use xlink:href="#DejaVuSans-75" x="959.367188"/>
    <use xlink:href="#DejaVuSans-74" x="1022.746094"/>
    <use xlink:href="#DejaVuSans-75" x="1061.955078"/>
    <use xlink:href="#DejaVuSans-61" x="1125.333984"/>
    <use xlink:href="#DejaVuSans-6c" x="1186.613281"/>
    <use xlink:href="#DejaVuSans-20" x="1214.396484"/>
    <use xlink:href="#DejaVuSans-49" x="1246.183594"/>
    <use xlink:href="#DejaVuSans-6e" x="1275.675781"/>
    <use xlink:href="#DejaVuSans-66" x="1339.054688"/>
    <use xlink:href="#DejaVuSans-6f" x="1374.259766"/>
    <use xlink:href="#DejaVuSans-72" x="1435.441406"/>
    <use xlink:href="#DejaVuSans-6d" x="1474.804688"/>
    <use xlink:href="#DejaVuSans-61" x="1572.216797"/>
    <use xlink:href="#DejaVuSans-74" x="1633.496094"/>
    <use xlink:href="#DejaVuSans-69" x="1672.705078"/>
    <use xlink:href="#DejaVuSans-6f" x="1700.488281"/>
    <use xlink:href="#DejaVuSans-6e" x="1761.669922"/>
    <use xlink:href="#DejaVuSans-20" x="1825.048828"/>
    <use xlink:href="#DejaVuSans-53" x="1856.835938"/>
    <use xlink:href="#DejaVuSans-63" x="1920.3125"/>
    <use xlink:href="#DejaVuSans-6f" x="1975.292969"/>
    <use xlink:href="#DejaVuSans-72" x="2036.474609"/>
    <use xlink:href="#DejaVuSans-65" x="2075.337891"/>
    <use xlink:href="#DejaVuSans-20" x="2136.861328"/>
    <use xlink:href="#DejaVuSans-2d" x="2168.648438"/>
    <use xlink:href="#DejaVuSans-20" x="2204.732422"/>
    <use xlink:href="#DejaVuSans-58" x="2236.519531"/>
    <use xlink:href="#DejaVuSans-20" x="2305.025391"/>
    <use xlink:href="#DejaVuSans-61" x="2336.8125"/>
    <use xlink:href="#DejaVuSans-73" x="2398.091797"/>
    <use xlink:href="#DejaVuSans-20" x="2450.191406"/>
    <use xlink:href="#DejaVuSans-54" x="2481.978516"/>
    <use xlink:href="#DejaVuSans-72" x="2528.3125"/>
    <use xlink:href="#DejaVuSans-75" x="2569.425781"/>
    <use xlink:href="#DejaVuSans-74" x="2632.804688"/>
    <use xlink:href="#DejaVuSans-68" x="2672.013672"/>
    <use xlink:href="#DejaVuSans-27" x="2735.392578"/>
    <use xlink:href="#DejaVuSans-2c" x="2762.882812"/>
    <use xlink:href="#DejaVuSans-20" x="2794.669922"/>
    <use xlink:href="#DejaVuSans-27" x="2826.457031"/>
    <use xlink:href="#DejaVuSans-4d" x="2853.947266"/>
    <use xlink:href="#DejaVuSans-75" x="2940.226562"/>
    <use xlink:href="#DejaVuSans-74" x="3003.605469"/>
    <use xlink:href="#DejaVuSans-75" x="3042.814453"/>
    <use xlink:href="#DejaVuSans-61" x="3106.193359"/>
    <use xlink:href="#DejaVuSans-6c" x="3167.472656"/>
    <use xlink:href="#DejaVuSans-20" x="3195.255859"/>
    <use xlink:href="#DejaVuSans-49" x="3227.042969"/>
    <use xlink:href="#DejaVuSans-6e" x="3256.535156"/>
    <use xlink:href="#DejaVuSans-66" x="3319.914062"/>
    <use xlink:href="#DejaVuSans-6f" x="3355.119141"/>
    <use xlink:href="#DejaVuSans-72" x="3416.300781"/>
    <use xlink:href="#DejaVuSans-6d" x="3455.664062"/>
    <use xlink:href="#DejaVuSans-61" x="3553.076172"/>
    <use xlink:href="#DejaVuSans-74" x="3614.355469"/>
    <use xlink:href="#DejaVuSans-69" x="3653.564453"/>
    <use xlink:href="#DejaVuSans-6f" x="3681.347656"/>
    <use xlink:href="#DejaVuSans-6e" x="3742.529297"/>
   </g>
   <!-- Score - Y as Truth'] -->
   <g transform="translate(385.120313 29.994063) scale(0.1 -0.1)">
    <use xlink:href="#DejaVuSans-53"/>
    <use xlink:href="#DejaVuSans-63" x="63.476562"/>
    <use xlink:href="#DejaVuSans-6f" x="118.457031"/>
    <use xlink:href="#DejaVuSans-72" x="179.638672"/>
    <use xlink:href="#DejaVuSans-65" x="218.501953"/>
    <use xlink:href="#DejaVuSans-20" x="280.025391"/>
    <use xlink:href="#DejaVuSans-2d" x="311.8125"/>
    <use xlink:href="#DejaVuSans-20" x="347.896484"/>
    <use xlink:href="#DejaVuSans-59" x="379.683594"/>
    <use xlink:href="#DejaVuSans-20" x="440.767578"/>
    <use xlink:href="#DejaVuSans-61" x="472.554688"/>
    <use xlink:href="#DejaVuSans-73" x="533.833984"/>
    <use xlink:href="#DejaVuSans-20" x="585.933594"/>
    <use xlink:href="#DejaVuSans-54" x="617.720703"/>
    <use xlink:href="#DejaVuSans-72" x="664.054688"/>
    <use xlink:href="#DejaVuSans-75" x="705.167969"/>
    <use xlink:href="#DejaVuSans-74" x="768.546875"/>
    <use xlink:href="#DejaVuSans-68" x="807.755859"/>
    <use xlink:href="#DejaVuSans-27" x="871.134766"/>
    <use xlink:href="#DejaVuSans-5d" x="898.625"/>
   </g>
  </g>
 </g>
 <defs>
  <clipPath id="p965b1c3b8d">
   <rect x="51.32" y="89.232" width="774.4" height="553.168"/>
  </clipPath>
 </defs>
</svg>
