<?xml version="1.0" encoding="utf-8" standalone="no"?>
<!DOCTYPE svg PUBLIC "-//W3C//DTD SVG 1.1//EN"
  "http://www.w3.org/Graphics/SVG/1.1/DTD/svg11.dtd">
<svg xmlns:xlink="http://www.w3.org/1999/xlink" width="864pt" height="864pt" viewBox="0 0 864 864" xmlns="http://www.w3.org/2000/svg" version="1.1">
 <metadata>
  <rdf:RDF xmlns:dc="http://purl.org/dc/elements/1.1/" xmlns:cc="http://creativecommons.org/ns#" xmlns:rdf="http://www.w3.org/1999/02/22-rdf-syntax-ns#">
   <cc:Work>
    <dc:type rdf:resource="http://purl.org/dc/dcmitype/StillImage"/>
    <dc:date>2024-11-27T19:43:25.906506</dc:date>
    <dc:format>image/svg+xml</dc:format>
    <dc:creator>
     <cc:Agent>
      <dc:title>Matplotlib v3.9.2, https://matplotlib.org/</dc:title>
     </cc:Agent>
    </dc:creator>
   </cc:Work>
  </rdf:RDF>
 </metadata>
 <defs>
  <style type="text/css">*{stroke-linejoin: round; stroke-linecap: butt}</style>
 </defs>
 <g id="figure_1">
  <g id="patch_1">
   <path d="M 0 864 
L 864 864 
L 864 0 
L 0 0 
z
" style="fill: #ffffff"/>
  </g>
  <g id="axes_1">
   <g id="patch_2">
    <path d="M 60.77 661.48 
L 825.72 661.48 
L 825.72 89.232 
L 60.77 89.232 
z
" style="fill: #ffffff"/>
   </g>
   <g id="PolyCollection_1">
    <defs>
     <path id="m0e12d71fde" d="M 278.542847 -228.531273 
L 276.465181 -228.531273 
L 275.976326 -233.786075 
L 275.401575 -239.040878 
L 274.733134 -244.29568 
L 273.964139 -249.550483 
L 273.089051 -254.805286 
L 272.104036 -260.060088 
L 271.007326 -265.314891 
L 269.799517 -270.569693 
L 268.483791 -275.824496 
L 267.066031 -281.079298 
L 265.554808 -286.334101 
L 263.961238 -291.588904 
L 262.298687 -296.843706 
L 260.582344 -302.098509 
L 258.828678 -307.353311 
L 257.054791 -312.608114 
L 255.277723 -317.862916 
L 253.513728 -323.117719 
L 251.777591 -328.372522 
L 250.082016 -333.627324 
L 248.437125 -338.882127 
L 246.850119 -344.136929 
L 245.325115 -349.391732 
L 243.863167 -354.646534 
L 242.462478 -359.901337 
L 241.118774 -365.15614 
L 239.825814 -370.410942 
L 238.575991 -375.665745 
L 237.360956 -380.920547 
L 236.172236 -386.17535 
L 235.001755 -391.430152 
L 233.842235 -396.684955 
L 232.687424 -401.939758 
L 231.532118 -407.19456 
L 230.371995 -412.449363 
L 229.203244 -417.704165 
L 228.022042 -422.958968 
L 226.823919 -428.21377 
L 225.603073 -433.468573 
L 224.351708 -438.723376 
L 223.059464 -443.978178 
L 221.713019 -449.232981 
L 220.295894 -454.487783 
L 218.788537 -459.742586 
L 217.168678 -464.997388 
L 215.411963 -470.252191 
L 213.492843 -475.506994 
L 211.385679 -480.761796 
L 209.06599 -486.016599 
L 206.511785 -491.271401 
L 203.704913 -496.526204 
L 200.632343 -501.781006 
L 197.287347 -507.035809 
L 193.670508 -512.290612 
L 189.790558 -517.545414 
L 185.665006 -522.800217 
L 181.32056 -528.055019 
L 176.793358 -533.309822 
L 172.128988 -538.564624 
L 167.382316 -543.819427 
L 162.617095 -549.07423 
L 157.905336 -554.329032 
L 153.326411 -559.583835 
L 148.965843 -564.838637 
L 144.913747 -570.09344 
L 141.262894 -575.348242 
L 138.106395 -580.603045 
L 135.535028 -585.857848 
L 133.634267 -591.11265 
L 132.481123 -596.367453 
L 132.140933 -601.622255 
L 132.664272 -606.877058 
L 134.084178 -612.13186 
L 136.413898 -617.386663 
L 139.645313 -622.641466 
L 143.748227 -627.896268 
L 148.670589 -633.151071 
L 154.339708 -638.405873 
L 160.664426 -643.660676 
L 167.538158 -648.915478 
L 174.84264 -654.170281 
L 182.452166 -659.425084 
L 190.238098 -664.679886 
L 198.073364 -669.934689 
L 205.83672 -675.189491 
L 213.416538 -680.444294 
L 220.713943 -685.699096 
L 227.64518 -690.953899 
L 234.143125 -696.208702 
L 240.157939 -701.463504 
L 245.656924 -706.718307 
L 250.623646 -711.973109 
L 255.056473 -717.227912 
L 258.966674 -722.482714 
L 262.376227 -727.737517 
L 265.315499 -732.99232 
L 267.820928 -738.247122 
L 269.932833 -743.501925 
L 271.693431 -748.756727 
L 278.542847 -748.756727 
L 278.542847 -748.756727 
L 278.542847 -743.501925 
L 278.542847 -738.247122 
L 278.542847 -732.99232 
L 278.542847 -727.737517 
L 278.542847 -722.482714 
L 278.542847 -717.227912 
L 278.542847 -711.973109 
L 278.542847 -706.718307 
L 278.542847 -701.463504 
L 278.542847 -696.208702 
L 278.542847 -690.953899 
L 278.542847 -685.699096 
L 278.542847 -680.444294 
L 278.542847 -675.189491 
L 278.542847 -669.934689 
L 278.542847 -664.679886 
L 278.542847 -659.425084 
L 278.542847 -654.170281 
L 278.542847 -648.915478 
L 278.542847 -643.660676 
L 278.542847 -638.405873 
L 278.542847 -633.151071 
L 278.542847 -627.896268 
L 278.542847 -622.641466 
L 278.542847 -617.386663 
L 278.542847 -612.13186 
L 278.542847 -606.877058 
L 278.542847 -601.622255 
L 278.542847 -596.367453 
L 278.542847 -591.11265 
L 278.542847 -585.857848 
L 278.542847 -580.603045 
L 278.542847 -575.348242 
L 278.542847 -570.09344 
L 278.542847 -564.838637 
L 278.542847 -559.583835 
L 278.542847 -554.329032 
L 278.542847 -549.07423 
L 278.542847 -543.819427 
L 278.542847 -538.564624 
L 278.542847 -533.309822 
L 278.542847 -528.055019 
L 278.542847 -522.800217 
L 278.542847 -517.545414 
L 278.542847 -512.290612 
L 278.542847 -507.035809 
L 278.542847 -501.781006 
L 278.542847 -496.526204 
L 278.542847 -491.271401 
L 278.542847 -486.016599 
L 278.542847 -480.761796 
L 278.542847 -475.506994 
L 278.542847 -470.252191 
L 278.542847 -464.997388 
L 278.542847 -459.742586 
L 278.542847 -454.487783 
L 278.542847 -449.232981 
L 278.542847 -443.978178 
L 278.542847 -438.723376 
L 278.542847 -433.468573 
L 278.542847 -428.21377 
L 278.542847 -422.958968 
L 278.542847 -417.704165 
L 278.542847 -412.449363 
L 278.542847 -407.19456 
L 278.542847 -401.939758 
L 278.542847 -396.684955 
L 278.542847 -391.430152 
L 278.542847 -386.17535 
L 278.542847 -380.920547 
L 278.542847 -375.665745 
L 278.542847 -370.410942 
L 278.542847 -365.15614 
L 278.542847 -359.901337 
L 278.542847 -354.646534 
L 278.542847 -349.391732 
L 278.542847 -344.136929 
L 278.542847 -338.882127 
L 278.542847 -333.627324 
L 278.542847 -328.372522 
L 278.542847 -323.117719 
L 278.542847 -317.862916 
L 278.542847 -312.608114 
L 278.542847 -307.353311 
L 278.542847 -302.098509 
L 278.542847 -296.843706 
L 278.542847 -291.588904 
L 278.542847 -286.334101 
L 278.542847 -281.079298 
L 278.542847 -275.824496 
L 278.542847 -270.569693 
L 278.542847 -265.314891 
L 278.542847 -260.060088 
L 278.542847 -254.805286 
L 278.542847 -249.550483 
L 278.542847 -244.29568 
L 278.542847 -239.040878 
L 278.542847 -233.786075 
L 278.542847 -228.531273 
z
" style="stroke: #3f3f3f; stroke-width: 1.25"/>
    </defs>
    <g clip-path="url(#pe6e5e485f3)">
     <use xlink:href="#m0e12d71fde" x="0" y="864" style="fill: #3274a1; stroke: #3f3f3f; stroke-width: 1.25"/>
    </g>
   </g>
   <g id="PolyCollection_2">
    <defs>
     <path id="m0315c506ed" d="M 280.296576 -312.193384 
L 278.542847 -312.193384 
L 278.542847 -316.3216 
L 278.542847 -320.449816 
L 278.542847 -324.578033 
L 278.542847 -328.706249 
L 278.542847 -332.834465 
L 278.542847 -336.962682 
L 278.542847 -341.090898 
L 278.542847 -345.219114 
L 278.542847 -349.347331 
L 278.542847 -353.475547 
L 278.542847 -357.603763 
L 278.542847 -361.731979 
L 278.542847 -365.860196 
L 278.542847 -369.988412 
L 278.542847 -374.116628 
L 278.542847 -378.244845 
L 278.542847 -382.373061 
L 278.542847 -386.501277 
L 278.542847 -390.629494 
L 278.542847 -394.75771 
L 278.542847 -398.885926 
L 278.542847 -403.014143 
L 278.542847 -407.142359 
L 278.542847 -411.270575 
L 278.542847 -415.398791 
L 278.542847 -419.527008 
L 278.542847 -423.655224 
L 278.542847 -427.78344 
L 278.542847 -431.911657 
L 278.542847 -436.039873 
L 278.542847 -440.168089 
L 278.542847 -444.296306 
L 278.542847 -448.424522 
L 278.542847 -452.552738 
L 278.542847 -456.680955 
L 278.542847 -460.809171 
L 278.542847 -464.937387 
L 278.542847 -469.065604 
L 278.542847 -473.19382 
L 278.542847 -477.322036 
L 278.542847 -481.450252 
L 278.542847 -485.578469 
L 278.542847 -489.706685 
L 278.542847 -493.834901 
L 278.542847 -497.963118 
L 278.542847 -502.091334 
L 278.542847 -506.21955 
L 278.542847 -510.347767 
L 278.542847 -514.475983 
L 278.542847 -518.604199 
L 278.542847 -522.732416 
L 278.542847 -526.860632 
L 278.542847 -530.988848 
L 278.542847 -535.117064 
L 278.542847 -539.245281 
L 278.542847 -543.373497 
L 278.542847 -547.501713 
L 278.542847 -551.62993 
L 278.542847 -555.758146 
L 278.542847 -559.886362 
L 278.542847 -564.014579 
L 278.542847 -568.142795 
L 278.542847 -572.271011 
L 278.542847 -576.399228 
L 278.542847 -580.527444 
L 278.542847 -584.65566 
L 278.542847 -588.783876 
L 278.542847 -592.912093 
L 278.542847 -597.040309 
L 278.542847 -601.168525 
L 278.542847 -605.296742 
L 278.542847 -609.424958 
L 278.542847 -613.553174 
L 278.542847 -617.681391 
L 278.542847 -621.809607 
L 278.542847 -625.937823 
L 278.542847 -630.06604 
L 278.542847 -634.194256 
L 278.542847 -638.322472 
L 278.542847 -642.450689 
L 278.542847 -646.578905 
L 278.542847 -650.707121 
L 278.542847 -654.835337 
L 278.542847 -658.963554 
L 278.542847 -663.09177 
L 278.542847 -667.219986 
L 278.542847 -671.348203 
L 278.542847 -675.476419 
L 278.542847 -679.604635 
L 278.542847 -683.732852 
L 278.542847 -687.861068 
L 278.542847 -691.989284 
L 278.542847 -696.117501 
L 278.542847 -700.245717 
L 278.542847 -704.373933 
L 278.542847 -708.502149 
L 278.542847 -712.630366 
L 278.542847 -716.758582 
L 278.542847 -720.886798 
L 284.000834 -720.886798 
L 284.000834 -720.886798 
L 285.543876 -716.758582 
L 287.430831 -712.630366 
L 289.710901 -708.502149 
L 292.432962 -704.373933 
L 295.643384 -700.245717 
L 299.3835 -696.117501 
L 303.686782 -691.989284 
L 308.57586 -687.861068 
L 314.059551 -683.732852 
L 320.130078 -679.604635 
L 326.760701 -675.476419 
L 333.903975 -671.348203 
L 341.490845 -667.219986 
L 349.430754 -663.09177 
L 357.61289 -658.963554 
L 365.908625 -654.835337 
L 374.175129 -650.707121 
L 382.260047 -646.578905 
L 390.007028 -642.450689 
L 397.261847 -638.322472 
L 403.878761 -634.194256 
L 409.726735 -630.06604 
L 414.695145 -625.937823 
L 418.698601 -621.809607 
L 421.68057 -617.681391 
L 423.615584 -613.553174 
L 424.509884 -609.424958 
L 424.400486 -605.296742 
L 423.35275 -601.168525 
L 421.456624 -597.040309 
L 418.82184 -592.912093 
L 415.572361 -588.783876 
L 411.840424 -584.65566 
L 407.760536 -580.527444 
L 403.463729 -576.399228 
L 399.072357 -572.271011 
L 394.695665 -568.142795 
L 390.426282 -564.014579 
L 386.33775 -559.886362 
L 382.483119 -555.758146 
L 378.894612 -551.62993 
L 375.584296 -547.501713 
L 372.545671 -543.373497 
L 369.756051 -539.245281 
L 367.179581 -535.117064 
L 364.770716 -530.988848 
L 362.477977 -526.860632 
L 360.247756 -522.732416 
L 358.02799 -518.604199 
L 355.771481 -514.475983 
L 353.438695 -510.347767 
L 350.999901 -506.21955 
L 348.436535 -502.091334 
L 345.741762 -497.963118 
L 342.920239 -493.834901 
L 339.987159 -489.706685 
L 336.96669 -485.578469 
L 333.889977 -481.450252 
L 330.792876 -477.322036 
L 327.713614 -473.19382 
L 324.690528 -469.065604 
L 321.760046 -464.937387 
L 318.954985 -460.809171 
L 316.303245 -456.680955 
L 313.826904 -452.552738 
L 311.541699 -448.424522 
L 309.456859 -444.296306 
L 307.575215 -440.168089 
L 305.893545 -436.039873 
L 304.403089 -431.911657 
L 303.090194 -427.78344 
L 301.937063 -423.655224 
L 300.922584 -419.527008 
L 300.023228 -415.398791 
L 299.214011 -411.270575 
L 298.4695 -407.142359 
L 297.764833 -403.014143 
L 297.07673 -398.885926 
L 296.38444 -394.75771 
L 295.670574 -390.629494 
L 294.921767 -386.501277 
L 294.129132 -382.373061 
L 293.288456 -378.244845 
L 292.400138 -374.116628 
L 291.468853 -369.988412 
L 290.502989 -365.860196 
L 289.513886 -361.731979 
L 288.514944 -357.603763 
L 287.520673 -353.475547 
L 286.54575 -349.347331 
L 285.604148 -345.219114 
L 284.708401 -341.090898 
L 283.869036 -336.962682 
L 283.09419 -332.834465 
L 282.38943 -328.706249 
L 281.757751 -324.578033 
L 281.199726 -320.449816 
L 280.713785 -316.3216 
L 280.296576 -312.193384 
z
" style="stroke: #3f3f3f; stroke-width: 1.25"/>
    </defs>
    <g clip-path="url(#pe6e5e485f3)">
     <use xlink:href="#m0315c506ed" x="0" y="864" style="fill: #e1812c; stroke: #3f3f3f; stroke-width: 1.25"/>
    </g>
   </g>
   <g id="PolyCollection_3">
    <defs>
     <path id="m7f95844857" d="M 644.547632 -228.531273 
L 642.469966 -228.531273 
L 641.981111 -233.786075 
L 641.40636 -239.040878 
L 640.737919 -244.29568 
L 639.968924 -249.550483 
L 639.093836 -254.805286 
L 638.108821 -260.060088 
L 637.012111 -265.314891 
L 635.804302 -270.569693 
L 634.488576 -275.824496 
L 633.070816 -281.079298 
L 631.559593 -286.334101 
L 629.966023 -291.588904 
L 628.303471 -296.843706 
L 626.587129 -302.098509 
L 624.833463 -307.353311 
L 623.059576 -312.608114 
L 621.282507 -317.862916 
L 619.518512 -323.117719 
L 617.782376 -328.372522 
L 616.086801 -333.627324 
L 614.441909 -338.882127 
L 612.854903 -344.136929 
L 611.329899 -349.391732 
L 609.867952 -354.646534 
L 608.467262 -359.901337 
L 607.123558 -365.15614 
L 605.830599 -370.410942 
L 604.580775 -375.665745 
L 603.365741 -380.920547 
L 602.17702 -386.17535 
L 601.006539 -391.430152 
L 599.84702 -396.684955 
L 598.692209 -401.939758 
L 597.536903 -407.19456 
L 596.37678 -412.449363 
L 595.208029 -417.704165 
L 594.026827 -422.958968 
L 592.828704 -428.21377 
L 591.607858 -433.468573 
L 590.356492 -438.723376 
L 589.064249 -443.978178 
L 587.717803 -449.232981 
L 586.300678 -454.487783 
L 584.793322 -459.742586 
L 583.173463 -464.997388 
L 581.416747 -470.252191 
L 579.497628 -475.506994 
L 577.390464 -480.761796 
L 575.070774 -486.016599 
L 572.51657 -491.271401 
L 569.709697 -496.526204 
L 566.637128 -501.781006 
L 563.292131 -507.035809 
L 559.675293 -512.290612 
L 555.795343 -517.545414 
L 551.669791 -522.800217 
L 547.325345 -528.055019 
L 542.798142 -533.309822 
L 538.133773 -538.564624 
L 533.387101 -543.819427 
L 528.62188 -549.07423 
L 523.910121 -554.329032 
L 519.331195 -559.583835 
L 514.970628 -564.838637 
L 510.918531 -570.09344 
L 507.267678 -575.348242 
L 504.11118 -580.603045 
L 501.539813 -585.857848 
L 499.639052 -591.11265 
L 498.485908 -596.367453 
L 498.145718 -601.622255 
L 498.669056 -606.877058 
L 500.088963 -612.13186 
L 502.418682 -617.386663 
L 505.650098 -622.641466 
L 509.753012 -627.896268 
L 514.675374 -633.151071 
L 520.344493 -638.405873 
L 526.66921 -643.660676 
L 533.542943 -648.915478 
L 540.847425 -654.170281 
L 548.456951 -659.425084 
L 556.242883 -664.679886 
L 564.078149 -669.934689 
L 571.841505 -675.189491 
L 579.421322 -680.444294 
L 586.718728 -685.699096 
L 593.649965 -690.953899 
L 600.147909 -696.208702 
L 606.162724 -701.463504 
L 611.661709 -706.718307 
L 616.62843 -711.973109 
L 621.061257 -717.227912 
L 624.971458 -722.482714 
L 628.381012 -727.737517 
L 631.320284 -732.99232 
L 633.825713 -738.247122 
L 635.937618 -743.501925 
L 637.698216 -748.756727 
L 644.547632 -748.756727 
L 644.547632 -748.756727 
L 644.547632 -743.501925 
L 644.547632 -738.247122 
L 644.547632 -732.99232 
L 644.547632 -727.737517 
L 644.547632 -722.482714 
L 644.547632 -717.227912 
L 644.547632 -711.973109 
L 644.547632 -706.718307 
L 644.547632 -701.463504 
L 644.547632 -696.208702 
L 644.547632 -690.953899 
L 644.547632 -685.699096 
L 644.547632 -680.444294 
L 644.547632 -675.189491 
L 644.547632 -669.934689 
L 644.547632 -664.679886 
L 644.547632 -659.425084 
L 644.547632 -654.170281 
L 644.547632 -648.915478 
L 644.547632 -643.660676 
L 644.547632 -638.405873 
L 644.547632 -633.151071 
L 644.547632 -627.896268 
L 644.547632 -622.641466 
L 644.547632 -617.386663 
L 644.547632 -612.13186 
L 644.547632 -606.877058 
L 644.547632 -601.622255 
L 644.547632 -596.367453 
L 644.547632 -591.11265 
L 644.547632 -585.857848 
L 644.547632 -580.603045 
L 644.547632 -575.348242 
L 644.547632 -570.09344 
L 644.547632 -564.838637 
L 644.547632 -559.583835 
L 644.547632 -554.329032 
L 644.547632 -549.07423 
L 644.547632 -543.819427 
L 644.547632 -538.564624 
L 644.547632 -533.309822 
L 644.547632 -528.055019 
L 644.547632 -522.800217 
L 644.547632 -517.545414 
L 644.547632 -512.290612 
L 644.547632 -507.035809 
L 644.547632 -501.781006 
L 644.547632 -496.526204 
L 644.547632 -491.271401 
L 644.547632 -486.016599 
L 644.547632 -480.761796 
L 644.547632 -475.506994 
L 644.547632 -470.252191 
L 644.547632 -464.997388 
L 644.547632 -459.742586 
L 644.547632 -454.487783 
L 644.547632 -449.232981 
L 644.547632 -443.978178 
L 644.547632 -438.723376 
L 644.547632 -433.468573 
L 644.547632 -428.21377 
L 644.547632 -422.958968 
L 644.547632 -417.704165 
L 644.547632 -412.449363 
L 644.547632 -407.19456 
L 644.547632 -401.939758 
L 644.547632 -396.684955 
L 644.547632 -391.430152 
L 644.547632 -386.17535 
L 644.547632 -380.920547 
L 644.547632 -375.665745 
L 644.547632 -370.410942 
L 644.547632 -365.15614 
L 644.547632 -359.901337 
L 644.547632 -354.646534 
L 644.547632 -349.391732 
L 644.547632 -344.136929 
L 644.547632 -338.882127 
L 644.547632 -333.627324 
L 644.547632 -328.372522 
L 644.547632 -323.117719 
L 644.547632 -317.862916 
L 644.547632 -312.608114 
L 644.547632 -307.353311 
L 644.547632 -302.098509 
L 644.547632 -296.843706 
L 644.547632 -291.588904 
L 644.547632 -286.334101 
L 644.547632 -281.079298 
L 644.547632 -275.824496 
L 644.547632 -270.569693 
L 644.547632 -265.314891 
L 644.547632 -260.060088 
L 644.547632 -254.805286 
L 644.547632 -249.550483 
L 644.547632 -244.29568 
L 644.547632 -239.040878 
L 644.547632 -233.786075 
L 644.547632 -228.531273 
z
" style="stroke: #3f3f3f; stroke-width: 1.25"/>
    </defs>
    <g clip-path="url(#pe6e5e485f3)">
     <use xlink:href="#m7f95844857" x="0" y="864" style="fill: #3274a1; stroke: #3f3f3f; stroke-width: 1.25"/>
    </g>
   </g>
   <g id="PolyCollection_4">
    <defs>
     <path id="m57cdf7fdc2" d="M 646.329345 -317.548681 
L 644.547632 -317.548681 
L 644.547632 -321.6214 
L 644.547632 -325.694118 
L 644.547632 -329.766837 
L 644.547632 -333.839556 
L 644.547632 -337.912275 
L 644.547632 -341.984994 
L 644.547632 -346.057712 
L 644.547632 -350.130431 
L 644.547632 -354.20315 
L 644.547632 -358.275869 
L 644.547632 -362.348588 
L 644.547632 -366.421307 
L 644.547632 -370.494025 
L 644.547632 -374.566744 
L 644.547632 -378.639463 
L 644.547632 -382.712182 
L 644.547632 -386.784901 
L 644.547632 -390.857619 
L 644.547632 -394.930338 
L 644.547632 -399.003057 
L 644.547632 -403.075776 
L 644.547632 -407.148495 
L 644.547632 -411.221214 
L 644.547632 -415.293932 
L 644.547632 -419.366651 
L 644.547632 -423.43937 
L 644.547632 -427.512089 
L 644.547632 -431.584808 
L 644.547632 -435.657526 
L 644.547632 -439.730245 
L 644.547632 -443.802964 
L 644.547632 -447.875683 
L 644.547632 -451.948402 
L 644.547632 -456.021121 
L 644.547632 -460.093839 
L 644.547632 -464.166558 
L 644.547632 -468.239277 
L 644.547632 -472.311996 
L 644.547632 -476.384715 
L 644.547632 -480.457433 
L 644.547632 -484.530152 
L 644.547632 -488.602871 
L 644.547632 -492.67559 
L 644.547632 -496.748309 
L 644.547632 -500.821028 
L 644.547632 -504.893746 
L 644.547632 -508.966465 
L 644.547632 -513.039184 
L 644.547632 -517.111903 
L 644.547632 -521.184622 
L 644.547632 -525.25734 
L 644.547632 -529.330059 
L 644.547632 -533.402778 
L 644.547632 -537.475497 
L 644.547632 -541.548216 
L 644.547632 -545.620934 
L 644.547632 -549.693653 
L 644.547632 -553.766372 
L 644.547632 -557.839091 
L 644.547632 -561.91181 
L 644.547632 -565.984529 
L 644.547632 -570.057247 
L 644.547632 -574.129966 
L 644.547632 -578.202685 
L 644.547632 -582.275404 
L 644.547632 -586.348123 
L 644.547632 -590.420841 
L 644.547632 -594.49356 
L 644.547632 -598.566279 
L 644.547632 -602.638998 
L 644.547632 -606.711717 
L 644.547632 -610.784436 
L 644.547632 -614.857154 
L 644.547632 -618.929873 
L 644.547632 -623.002592 
L 644.547632 -627.075311 
L 644.547632 -631.14803 
L 644.547632 -635.220748 
L 644.547632 -639.293467 
L 644.547632 -643.366186 
L 644.547632 -647.438905 
L 644.547632 -651.511624 
L 644.547632 -655.584343 
L 644.547632 -659.657061 
L 644.547632 -663.72978 
L 644.547632 -667.802499 
L 644.547632 -671.875218 
L 644.547632 -675.947937 
L 644.547632 -680.020655 
L 644.547632 -684.093374 
L 644.547632 -688.166093 
L 644.547632 -692.238812 
L 644.547632 -696.311531 
L 644.547632 -700.38425 
L 644.547632 -704.456968 
L 644.547632 -708.529687 
L 644.547632 -712.602406 
L 644.547632 -716.675125 
L 644.547632 -720.747844 
L 650.052415 -720.747844 
L 650.052415 -720.747844 
L 651.591271 -716.675125 
L 653.469806 -712.602406 
L 655.736343 -708.529687 
L 658.438981 -704.456968 
L 661.623519 -700.38425 
L 665.331013 -696.311531 
L 669.595071 -692.238812 
L 674.438952 -688.166093 
L 679.872671 -684.093374 
L 685.890244 -680.020655 
L 692.467302 -675.947937 
L 699.559282 -671.875218 
L 707.100383 -667.802499 
L 715.003485 -663.72978 
L 723.161158 -659.657061 
L 731.44783 -655.584343 
L 739.723126 -651.511624 
L 747.836286 -647.438905 
L 755.631493 -643.366186 
L 762.953864 -639.293467 
L 769.655784 -635.220748 
L 775.603219 -631.14803 
L 780.681624 -627.075311 
L 784.801064 -623.002592 
L 787.900219 -618.929873 
L 789.94899 -614.857154 
L 790.949545 -610.784436 
L 790.935715 -606.711717 
L 789.970787 -602.638998 
L 788.14385 -598.566279 
L 785.564931 -594.49356 
L 782.359244 -590.420841 
L 778.660928 -586.348123 
L 774.606657 -582.275404 
L 770.329494 -578.202685 
L 765.953345 -574.129966 
L 761.588264 -570.057247 
L 757.326842 -565.984529 
L 753.241772 -561.91181 
L 749.384657 -557.839091 
L 745.786 -553.766372 
L 742.456281 -549.693653 
L 739.387977 -545.620934 
L 736.558312 -541.548216 
L 733.93255 -537.475497 
L 731.46759 -533.402778 
L 729.115664 -529.330059 
L 726.82792 -525.25734 
L 724.557732 -521.184622 
L 722.263561 -517.111903 
L 719.911264 -513.039184 
L 717.475761 -508.966465 
L 714.942022 -504.893746 
L 712.305357 -500.821028 
L 709.571057 -496.748309 
L 706.753447 -492.67559 
L 703.874465 -488.602871 
L 700.961873 -484.530152 
L 698.04726 -480.457433 
L 695.16397 -476.384715 
L 692.34509 -472.311996 
L 689.62163 -468.239277 
L 687.020973 -464.166558 
L 684.565672 -460.093839 
L 682.27262 -456.021121 
L 680.152605 -451.948402 
L 678.210214 -447.875683 
L 676.444051 -443.802964 
L 674.847219 -439.730245 
L 673.407995 -435.657526 
L 672.11065 -431.584808 
L 670.936364 -427.512089 
L 669.864189 -423.43937 
L 668.872015 -419.366651 
L 667.93754 -415.293932 
L 667.03918 -411.221214 
L 666.156925 -407.148495 
L 665.273103 -403.075776 
L 664.373026 -399.003057 
L 663.445496 -394.930338 
L 662.483139 -390.857619 
L 661.482561 -386.784901 
L 660.444294 -382.712182 
L 659.372551 -378.639463 
L 658.274794 -374.566744 
L 657.161143 -370.494025 
L 656.043668 -366.421307 
L 654.935602 -362.348588 
L 653.850547 -358.275869 
L 652.801703 -354.20315 
L 651.801187 -350.130431 
L 650.859469 -346.057712 
L 649.98496 -341.984994 
L 649.18376 -337.912275 
L 648.459567 -333.839556 
L 647.813736 -329.766837 
L 647.245465 -325.694118 
L 646.752072 -321.6214 
L 646.329345 -317.548681 
z
" style="stroke: #3f3f3f; stroke-width: 1.25"/>
    </defs>
    <g clip-path="url(#pe6e5e485f3)">
     <use xlink:href="#m57cdf7fdc2" x="0" y="864" style="fill: #e1812c; stroke: #3f3f3f; stroke-width: 1.25"/>
    </g>
   </g>
   <g id="patch_3">
    <path d="M 278.542847 639.575074 
L 278.542847 639.575074 
L 278.542847 639.575074 
L 278.542847 639.575074 
z
" clip-path="url(#pe6e5e485f3)" style="fill: #3274a1; stroke: #3f3f3f; stroke-width: 1.25; stroke-linejoin: miter"/>
   </g>
   <g id="patch_4">
    <path d="M 278.542847 639.575074 
L 278.542847 639.575074 
L 278.542847 639.575074 
L 278.542847 639.575074 
z
" clip-path="url(#pe6e5e485f3)" style="fill: #e1812c; stroke: #3f3f3f; stroke-width: 1.25; stroke-linejoin: miter"/>
   </g>
   <g id="patch_5">
    <path d="M 95.540455 661.48 
L 461.545239 661.48 
L 461.545239 89.232 
L 95.540455 89.232 
z
" clip-path="url(#pe6e5e485f3)" style="fill: #808080; opacity: 0.1; stroke: #808080; stroke-linejoin: miter"/>
   </g>
   <g id="matplotlib.axis_1">
    <g id="xtick_1">
     <g id="line2d_1">
      <defs>
       <path id="m725faf2ba1" d="M 0 0 
L 0 3.5 
" style="stroke: #000000; stroke-width: 0.8"/>
      </defs>
      <g>
       <use xlink:href="#m725faf2ba1" x="278.542847" y="661.48" style="stroke: #000000; stroke-width: 0.8"/>
      </g>
     </g>
     <g id="text_1">
      <!-- Levenshtein Distance - X as Truth -->
      <g transform="translate(281.302222 835.925313) rotate(-90) scale(0.1 -0.1)">
       <defs>
        <path id="DejaVuSans-4c" d="M 628 4666 
L 1259 4666 
L 1259 531 
L 3531 531 
L 3531 0 
L 628 0 
L 628 4666 
z
" transform="scale(0.015625)"/>
        <path id="DejaVuSans-65" d="M 3597 1894 
L 3597 1613 
L 953 1613 
Q 991 1019 1311 708 
Q 1631 397 2203 397 
Q 2534 397 2845 478 
Q 3156 559 3463 722 
L 3463 178 
Q 3153 47 2828 -22 
Q 2503 -91 2169 -91 
Q 1331 -91 842 396 
Q 353 884 353 1716 
Q 353 2575 817 3079 
Q 1281 3584 2069 3584 
Q 2775 3584 3186 3129 
Q 3597 2675 3597 1894 
z
M 3022 2063 
Q 3016 2534 2758 2815 
Q 2500 3097 2075 3097 
Q 1594 3097 1305 2825 
Q 1016 2553 972 2059 
L 3022 2063 
z
" transform="scale(0.015625)"/>
        <path id="DejaVuSans-76" d="M 191 3500 
L 800 3500 
L 1894 563 
L 2988 3500 
L 3597 3500 
L 2284 0 
L 1503 0 
L 191 3500 
z
" transform="scale(0.015625)"/>
        <path id="DejaVuSans-6e" d="M 3513 2113 
L 3513 0 
L 2938 0 
L 2938 2094 
Q 2938 2591 2744 2837 
Q 2550 3084 2163 3084 
Q 1697 3084 1428 2787 
Q 1159 2491 1159 1978 
L 1159 0 
L 581 0 
L 581 3500 
L 1159 3500 
L 1159 2956 
Q 1366 3272 1645 3428 
Q 1925 3584 2291 3584 
Q 2894 3584 3203 3211 
Q 3513 2838 3513 2113 
z
" transform="scale(0.015625)"/>
        <path id="DejaVuSans-73" d="M 2834 3397 
L 2834 2853 
Q 2591 2978 2328 3040 
Q 2066 3103 1784 3103 
Q 1356 3103 1142 2972 
Q 928 2841 928 2578 
Q 928 2378 1081 2264 
Q 1234 2150 1697 2047 
L 1894 2003 
Q 2506 1872 2764 1633 
Q 3022 1394 3022 966 
Q 3022 478 2636 193 
Q 2250 -91 1575 -91 
Q 1294 -91 989 -36 
Q 684 19 347 128 
L 347 722 
Q 666 556 975 473 
Q 1284 391 1588 391 
Q 1994 391 2212 530 
Q 2431 669 2431 922 
Q 2431 1156 2273 1281 
Q 2116 1406 1581 1522 
L 1381 1569 
Q 847 1681 609 1914 
Q 372 2147 372 2553 
Q 372 3047 722 3315 
Q 1072 3584 1716 3584 
Q 2034 3584 2315 3537 
Q 2597 3491 2834 3397 
z
" transform="scale(0.015625)"/>
        <path id="DejaVuSans-68" d="M 3513 2113 
L 3513 0 
L 2938 0 
L 2938 2094 
Q 2938 2591 2744 2837 
Q 2550 3084 2163 3084 
Q 1697 3084 1428 2787 
Q 1159 2491 1159 1978 
L 1159 0 
L 581 0 
L 581 4863 
L 1159 4863 
L 1159 2956 
Q 1366 3272 1645 3428 
Q 1925 3584 2291 3584 
Q 2894 3584 3203 3211 
Q 3513 2838 3513 2113 
z
" transform="scale(0.015625)"/>
        <path id="DejaVuSans-74" d="M 1172 4494 
L 1172 3500 
L 2356 3500 
L 2356 3053 
L 1172 3053 
L 1172 1153 
Q 1172 725 1289 603 
Q 1406 481 1766 481 
L 2356 481 
L 2356 0 
L 1766 0 
Q 1100 0 847 248 
Q 594 497 594 1153 
L 594 3053 
L 172 3053 
L 172 3500 
L 594 3500 
L 594 4494 
L 1172 4494 
z
" transform="scale(0.015625)"/>
        <path id="DejaVuSans-69" d="M 603 3500 
L 1178 3500 
L 1178 0 
L 603 0 
L 603 3500 
z
M 603 4863 
L 1178 4863 
L 1178 4134 
L 603 4134 
L 603 4863 
z
" transform="scale(0.015625)"/>
        <path id="DejaVuSans-20" transform="scale(0.015625)"/>
        <path id="DejaVuSans-44" d="M 1259 4147 
L 1259 519 
L 2022 519 
Q 2988 519 3436 956 
Q 3884 1394 3884 2338 
Q 3884 3275 3436 3711 
Q 2988 4147 2022 4147 
L 1259 4147 
z
M 628 4666 
L 1925 4666 
Q 3281 4666 3915 4102 
Q 4550 3538 4550 2338 
Q 4550 1131 3912 565 
Q 3275 0 1925 0 
L 628 0 
L 628 4666 
z
" transform="scale(0.015625)"/>
        <path id="DejaVuSans-61" d="M 2194 1759 
Q 1497 1759 1228 1600 
Q 959 1441 959 1056 
Q 959 750 1161 570 
Q 1363 391 1709 391 
Q 2188 391 2477 730 
Q 2766 1069 2766 1631 
L 2766 1759 
L 2194 1759 
z
M 3341 1997 
L 3341 0 
L 2766 0 
L 2766 531 
Q 2569 213 2275 61 
Q 1981 -91 1556 -91 
Q 1019 -91 701 211 
Q 384 513 384 1019 
Q 384 1609 779 1909 
Q 1175 2209 1959 2209 
L 2766 2209 
L 2766 2266 
Q 2766 2663 2505 2880 
Q 2244 3097 1772 3097 
Q 1472 3097 1187 3025 
Q 903 2953 641 2809 
L 641 3341 
Q 956 3463 1253 3523 
Q 1550 3584 1831 3584 
Q 2591 3584 2966 3190 
Q 3341 2797 3341 1997 
z
" transform="scale(0.015625)"/>
        <path id="DejaVuSans-63" d="M 3122 3366 
L 3122 2828 
Q 2878 2963 2633 3030 
Q 2388 3097 2138 3097 
Q 1578 3097 1268 2742 
Q 959 2388 959 1747 
Q 959 1106 1268 751 
Q 1578 397 2138 397 
Q 2388 397 2633 464 
Q 2878 531 3122 666 
L 3122 134 
Q 2881 22 2623 -34 
Q 2366 -91 2075 -91 
Q 1284 -91 818 406 
Q 353 903 353 1747 
Q 353 2603 823 3093 
Q 1294 3584 2113 3584 
Q 2378 3584 2631 3529 
Q 2884 3475 3122 3366 
z
" transform="scale(0.015625)"/>
        <path id="DejaVuSans-2d" d="M 313 2009 
L 1997 2009 
L 1997 1497 
L 313 1497 
L 313 2009 
z
" transform="scale(0.015625)"/>
        <path id="DejaVuSans-58" d="M 403 4666 
L 1081 4666 
L 2241 2931 
L 3406 4666 
L 4084 4666 
L 2584 2425 
L 4184 0 
L 3506 0 
L 2194 1984 
L 872 0 
L 191 0 
L 1856 2491 
L 403 4666 
z
" transform="scale(0.015625)"/>
        <path id="DejaVuSans-54" d="M -19 4666 
L 3928 4666 
L 3928 4134 
L 2272 4134 
L 2272 0 
L 1638 0 
L 1638 4134 
L -19 4134 
L -19 4666 
z
" transform="scale(0.015625)"/>
        <path id="DejaVuSans-72" d="M 2631 2963 
Q 2534 3019 2420 3045 
Q 2306 3072 2169 3072 
Q 1681 3072 1420 2755 
Q 1159 2438 1159 1844 
L 1159 0 
L 581 0 
L 581 3500 
L 1159 3500 
L 1159 2956 
Q 1341 3275 1631 3429 
Q 1922 3584 2338 3584 
Q 2397 3584 2469 3576 
Q 2541 3569 2628 3553 
L 2631 2963 
z
" transform="scale(0.015625)"/>
        <path id="DejaVuSans-75" d="M 544 1381 
L 544 3500 
L 1119 3500 
L 1119 1403 
Q 1119 906 1312 657 
Q 1506 409 1894 409 
Q 2359 409 2629 706 
Q 2900 1003 2900 1516 
L 2900 3500 
L 3475 3500 
L 3475 0 
L 2900 0 
L 2900 538 
Q 2691 219 2414 64 
Q 2138 -91 1772 -91 
Q 1169 -91 856 284 
Q 544 659 544 1381 
z
M 1991 3584 
L 1991 3584 
z
" transform="scale(0.015625)"/>
       </defs>
       <use xlink:href="#DejaVuSans-4c"/>
       <use xlink:href="#DejaVuSans-65" x="53.962891"/>
       <use xlink:href="#DejaVuSans-76" x="115.486328"/>
       <use xlink:href="#DejaVuSans-65" x="174.666016"/>
       <use xlink:href="#DejaVuSans-6e" x="236.189453"/>
       <use xlink:href="#DejaVuSans-73" x="299.568359"/>
       <use xlink:href="#DejaVuSans-68" x="351.667969"/>
       <use xlink:href="#DejaVuSans-74" x="415.046875"/>
       <use xlink:href="#DejaVuSans-65" x="454.255859"/>
       <use xlink:href="#DejaVuSans-69" x="515.779297"/>
       <use xlink:href="#DejaVuSans-6e" x="543.5625"/>
       <use xlink:href="#DejaVuSans-20" x="606.941406"/>
       <use xlink:href="#DejaVuSans-44" x="638.728516"/>
       <use xlink:href="#DejaVuSans-69" x="715.730469"/>
       <use xlink:href="#DejaVuSans-73" x="743.513672"/>
       <use xlink:href="#DejaVuSans-74" x="795.613281"/>
       <use xlink:href="#DejaVuSans-61" x="834.822266"/>
       <use xlink:href="#DejaVuSans-6e" x="896.101562"/>
       <use xlink:href="#DejaVuSans-63" x="959.480469"/>
       <use xlink:href="#DejaVuSans-65" x="1014.460938"/>
       <use xlink:href="#DejaVuSans-20" x="1075.984375"/>
       <use xlink:href="#DejaVuSans-2d" x="1107.771484"/>
       <use xlink:href="#DejaVuSans-20" x="1143.855469"/>
       <use xlink:href="#DejaVuSans-58" x="1175.642578"/>
       <use xlink:href="#DejaVuSans-20" x="1244.148438"/>
       <use xlink:href="#DejaVuSans-61" x="1275.935547"/>
       <use xlink:href="#DejaVuSans-73" x="1337.214844"/>
       <use xlink:href="#DejaVuSans-20" x="1389.314453"/>
       <use xlink:href="#DejaVuSans-54" x="1421.101562"/>
       <use xlink:href="#DejaVuSans-72" x="1467.435547"/>
       <use xlink:href="#DejaVuSans-75" x="1508.548828"/>
       <use xlink:href="#DejaVuSans-74" x="1571.927734"/>
       <use xlink:href="#DejaVuSans-68" x="1611.136719"/>
      </g>
     </g>
    </g>
    <g id="xtick_2">
     <g id="line2d_2">
      <g>
       <use xlink:href="#m725faf2ba1" x="644.547632" y="661.48" style="stroke: #000000; stroke-width: 0.8"/>
      </g>
     </g>
     <g id="text_2">
      <!-- Levenshtein Distance - Y as Truth -->
      <g transform="translate(647.307007 835.183125) rotate(-90) scale(0.1 -0.1)">
       <defs>
        <path id="DejaVuSans-59" d="M -13 4666 
L 666 4666 
L 1959 2747 
L 3244 4666 
L 3922 4666 
L 2272 2222 
L 2272 0 
L 1638 0 
L 1638 2222 
L -13 4666 
z
" transform="scale(0.015625)"/>
       </defs>
       <use xlink:href="#DejaVuSans-4c"/>
       <use xlink:href="#DejaVuSans-65" x="53.962891"/>
       <use xlink:href="#DejaVuSans-76" x="115.486328"/>
       <use xlink:href="#DejaVuSans-65" x="174.666016"/>
       <use xlink:href="#DejaVuSans-6e" x="236.189453"/>
       <use xlink:href="#DejaVuSans-73" x="299.568359"/>
       <use xlink:href="#DejaVuSans-68" x="351.667969"/>
       <use xlink:href="#DejaVuSans-74" x="415.046875"/>
       <use xlink:href="#DejaVuSans-65" x="454.255859"/>
       <use xlink:href="#DejaVuSans-69" x="515.779297"/>
       <use xlink:href="#DejaVuSans-6e" x="543.5625"/>
       <use xlink:href="#DejaVuSans-20" x="606.941406"/>
       <use xlink:href="#DejaVuSans-44" x="638.728516"/>
       <use xlink:href="#DejaVuSans-69" x="715.730469"/>
       <use xlink:href="#DejaVuSans-73" x="743.513672"/>
       <use xlink:href="#DejaVuSans-74" x="795.613281"/>
       <use xlink:href="#DejaVuSans-61" x="834.822266"/>
       <use xlink:href="#DejaVuSans-6e" x="896.101562"/>
       <use xlink:href="#DejaVuSans-63" x="959.480469"/>
       <use xlink:href="#DejaVuSans-65" x="1014.460938"/>
       <use xlink:href="#DejaVuSans-20" x="1075.984375"/>
       <use xlink:href="#DejaVuSans-2d" x="1107.771484"/>
       <use xlink:href="#DejaVuSans-20" x="1143.855469"/>
       <use xlink:href="#DejaVuSans-59" x="1175.642578"/>
       <use xlink:href="#DejaVuSans-20" x="1236.726562"/>
       <use xlink:href="#DejaVuSans-61" x="1268.513672"/>
       <use xlink:href="#DejaVuSans-73" x="1329.792969"/>
       <use xlink:href="#DejaVuSans-20" x="1381.892578"/>
       <use xlink:href="#DejaVuSans-54" x="1413.679688"/>
       <use xlink:href="#DejaVuSans-72" x="1460.013672"/>
       <use xlink:href="#DejaVuSans-75" x="1501.126953"/>
       <use xlink:href="#DejaVuSans-74" x="1564.505859"/>
       <use xlink:href="#DejaVuSans-68" x="1603.714844"/>
      </g>
     </g>
    </g>
    <g id="text_3">
     <!-- Statistical Test -->
     <g transform="translate(392.651406 850.563125) scale(0.14 -0.14)">
      <defs>
       <path id="DejaVuSans-53" d="M 3425 4513 
L 3425 3897 
Q 3066 4069 2747 4153 
Q 2428 4238 2131 4238 
Q 1616 4238 1336 4038 
Q 1056 3838 1056 3469 
Q 1056 3159 1242 3001 
Q 1428 2844 1947 2747 
L 2328 2669 
Q 3034 2534 3370 2195 
Q 3706 1856 3706 1288 
Q 3706 609 3251 259 
Q 2797 -91 1919 -91 
Q 1588 -91 1214 -16 
Q 841 59 441 206 
L 441 856 
Q 825 641 1194 531 
Q 1563 422 1919 422 
Q 2459 422 2753 634 
Q 3047 847 3047 1241 
Q 3047 1584 2836 1778 
Q 2625 1972 2144 2069 
L 1759 2144 
Q 1053 2284 737 2584 
Q 422 2884 422 3419 
Q 422 4038 858 4394 
Q 1294 4750 2059 4750 
Q 2388 4750 2728 4690 
Q 3069 4631 3425 4513 
z
" transform="scale(0.015625)"/>
       <path id="DejaVuSans-6c" d="M 603 4863 
L 1178 4863 
L 1178 0 
L 603 0 
L 603 4863 
z
" transform="scale(0.015625)"/>
      </defs>
      <use xlink:href="#DejaVuSans-53"/>
      <use xlink:href="#DejaVuSans-74" x="63.476562"/>
      <use xlink:href="#DejaVuSans-61" x="102.685547"/>
      <use xlink:href="#DejaVuSans-74" x="163.964844"/>
      <use xlink:href="#DejaVuSans-69" x="203.173828"/>
      <use xlink:href="#DejaVuSans-73" x="230.957031"/>
      <use xlink:href="#DejaVuSans-74" x="283.056641"/>
      <use xlink:href="#DejaVuSans-69" x="322.265625"/>
      <use xlink:href="#DejaVuSans-63" x="350.048828"/>
      <use xlink:href="#DejaVuSans-61" x="405.029297"/>
      <use xlink:href="#DejaVuSans-6c" x="466.308594"/>
      <use xlink:href="#DejaVuSans-20" x="494.091797"/>
      <use xlink:href="#DejaVuSans-54" x="525.878906"/>
      <use xlink:href="#DejaVuSans-65" x="569.962891"/>
      <use xlink:href="#DejaVuSans-73" x="631.486328"/>
      <use xlink:href="#DejaVuSans-74" x="683.585938"/>
     </g>
    </g>
   </g>
   <g id="matplotlib.axis_2">
    <g id="ytick_1">
     <g id="line2d_3">
      <defs>
       <path id="ma2628d7349" d="M 0 0 
L -3.5 0 
" style="stroke: #000000; stroke-width: 0.8"/>
      </defs>
      <g>
       <use xlink:href="#ma2628d7349" x="60.77" y="639.575074" style="stroke: #000000; stroke-width: 0.8"/>
      </g>
     </g>
     <g id="text_4">
      <!-- 0 -->
      <g transform="translate(47.4075 643.374293) scale(0.1 -0.1)">
       <defs>
        <path id="DejaVuSans-30" d="M 2034 4250 
Q 1547 4250 1301 3770 
Q 1056 3291 1056 2328 
Q 1056 1369 1301 889 
Q 1547 409 2034 409 
Q 2525 409 2770 889 
Q 3016 1369 3016 2328 
Q 3016 3291 2770 3770 
Q 2525 4250 2034 4250 
z
M 2034 4750 
Q 2819 4750 3233 4129 
Q 3647 3509 3647 2328 
Q 3647 1150 3233 529 
Q 2819 -91 2034 -91 
Q 1250 -91 836 529 
Q 422 1150 422 2328 
Q 422 3509 836 4129 
Q 1250 4750 2034 4750 
z
" transform="scale(0.015625)"/>
       </defs>
       <use xlink:href="#DejaVuSans-30"/>
      </g>
     </g>
    </g>
    <g id="ytick_2">
     <g id="line2d_4">
      <g>
       <use xlink:href="#ma2628d7349" x="60.77" y="526.17633" style="stroke: #000000; stroke-width: 0.8"/>
      </g>
     </g>
     <g id="text_5">
      <!-- 500 -->
      <g transform="translate(34.6825 529.975549) scale(0.1 -0.1)">
       <defs>
        <path id="DejaVuSans-35" d="M 691 4666 
L 3169 4666 
L 3169 4134 
L 1269 4134 
L 1269 2991 
Q 1406 3038 1543 3061 
Q 1681 3084 1819 3084 
Q 2600 3084 3056 2656 
Q 3513 2228 3513 1497 
Q 3513 744 3044 326 
Q 2575 -91 1722 -91 
Q 1428 -91 1123 -41 
Q 819 9 494 109 
L 494 744 
Q 775 591 1075 516 
Q 1375 441 1709 441 
Q 2250 441 2565 725 
Q 2881 1009 2881 1497 
Q 2881 1984 2565 2268 
Q 2250 2553 1709 2553 
Q 1456 2553 1204 2497 
Q 953 2441 691 2322 
L 691 4666 
z
" transform="scale(0.015625)"/>
       </defs>
       <use xlink:href="#DejaVuSans-35"/>
       <use xlink:href="#DejaVuSans-30" x="63.623047"/>
       <use xlink:href="#DejaVuSans-30" x="127.246094"/>
      </g>
     </g>
    </g>
    <g id="ytick_3">
     <g id="line2d_5">
      <g>
       <use xlink:href="#ma2628d7349" x="60.77" y="412.777586" style="stroke: #000000; stroke-width: 0.8"/>
      </g>
     </g>
     <g id="text_6">
      <!-- 1000 -->
      <g transform="translate(28.32 416.576804) scale(0.1 -0.1)">
       <defs>
        <path id="DejaVuSans-31" d="M 794 531 
L 1825 531 
L 1825 4091 
L 703 3866 
L 703 4441 
L 1819 4666 
L 2450 4666 
L 2450 531 
L 3481 531 
L 3481 0 
L 794 0 
L 794 531 
z
" transform="scale(0.015625)"/>
       </defs>
       <use xlink:href="#DejaVuSans-31"/>
       <use xlink:href="#DejaVuSans-30" x="63.623047"/>
       <use xlink:href="#DejaVuSans-30" x="127.246094"/>
       <use xlink:href="#DejaVuSans-30" x="190.869141"/>
      </g>
     </g>
    </g>
    <g id="ytick_4">
     <g id="line2d_6">
      <g>
       <use xlink:href="#ma2628d7349" x="60.77" y="299.378841" style="stroke: #000000; stroke-width: 0.8"/>
      </g>
     </g>
     <g id="text_7">
      <!-- 1500 -->
      <g transform="translate(28.32 303.17806) scale(0.1 -0.1)">
       <use xlink:href="#DejaVuSans-31"/>
       <use xlink:href="#DejaVuSans-35" x="63.623047"/>
       <use xlink:href="#DejaVuSans-30" x="127.246094"/>
       <use xlink:href="#DejaVuSans-30" x="190.869141"/>
      </g>
     </g>
    </g>
    <g id="ytick_5">
     <g id="line2d_7">
      <g>
       <use xlink:href="#ma2628d7349" x="60.77" y="185.980097" style="stroke: #000000; stroke-width: 0.8"/>
      </g>
     </g>
     <g id="text_8">
      <!-- 2000 -->
      <g transform="translate(28.32 189.779316) scale(0.1 -0.1)">
       <defs>
        <path id="DejaVuSans-32" d="M 1228 531 
L 3431 531 
L 3431 0 
L 469 0 
L 469 531 
Q 828 903 1448 1529 
Q 2069 2156 2228 2338 
Q 2531 2678 2651 2914 
Q 2772 3150 2772 3378 
Q 2772 3750 2511 3984 
Q 2250 4219 1831 4219 
Q 1534 4219 1204 4116 
Q 875 4013 500 3803 
L 500 4441 
Q 881 4594 1212 4672 
Q 1544 4750 1819 4750 
Q 2544 4750 2975 4387 
Q 3406 4025 3406 3419 
Q 3406 3131 3298 2873 
Q 3191 2616 2906 2266 
Q 2828 2175 2409 1742 
Q 1991 1309 1228 531 
z
" transform="scale(0.015625)"/>
       </defs>
       <use xlink:href="#DejaVuSans-32"/>
       <use xlink:href="#DejaVuSans-30" x="63.623047"/>
       <use xlink:href="#DejaVuSans-30" x="127.246094"/>
       <use xlink:href="#DejaVuSans-30" x="190.869141"/>
      </g>
     </g>
    </g>
    <g id="text_9">
     <!-- Score -->
     <g transform="translate(21.408437 394.959281) rotate(-90) scale(0.14 -0.14)">
      <defs>
       <path id="DejaVuSans-6f" d="M 1959 3097 
Q 1497 3097 1228 2736 
Q 959 2375 959 1747 
Q 959 1119 1226 758 
Q 1494 397 1959 397 
Q 2419 397 2687 759 
Q 2956 1122 2956 1747 
Q 2956 2369 2687 2733 
Q 2419 3097 1959 3097 
z
M 1959 3584 
Q 2709 3584 3137 3096 
Q 3566 2609 3566 1747 
Q 3566 888 3137 398 
Q 2709 -91 1959 -91 
Q 1206 -91 779 398 
Q 353 888 353 1747 
Q 353 2609 779 3096 
Q 1206 3584 1959 3584 
z
" transform="scale(0.015625)"/>
      </defs>
      <use xlink:href="#DejaVuSans-53"/>
      <use xlink:href="#DejaVuSans-63" x="63.476562"/>
      <use xlink:href="#DejaVuSans-6f" x="118.457031"/>
      <use xlink:href="#DejaVuSans-72" x="179.638672"/>
      <use xlink:href="#DejaVuSans-65" x="218.501953"/>
     </g>
    </g>
   </g>
   <g id="line2d_8">
    <path d="M 275.730347 531.61947 
L 275.730347 219.09253 
" clip-path="url(#pe6e5e485f3)" style="fill: none; stroke: #3f3f3f; stroke-width: 1.875; stroke-linecap: square"/>
   </g>
   <g id="line2d_9">
    <path d="M 275.730347 378.190969 
L 275.730347 247.669014 
" clip-path="url(#pe6e5e485f3)" style="fill: none; stroke: #3f3f3f; stroke-width: 5.625; stroke-linecap: square"/>
   </g>
   <g id="line2d_10">
    <path d="M 275.730347 292.23472 
" clip-path="url(#pe6e5e485f3)" style="fill: none; stroke: #3f3f3f; stroke-width: 1.5; stroke-linecap: square"/>
    <defs>
     <path id="m1b19ab3990" d="M 2.34375 0 
L -2.34375 -0 
" style="stroke: #ffffff; stroke-width: 1.125"/>
    </defs>
    <g clip-path="url(#pe6e5e485f3)">
     <use xlink:href="#m1b19ab3990" x="275.730347" y="292.23472" style="fill: #ffffff; stroke: #ffffff; stroke-width: 1.125"/>
    </g>
   </g>
   <g id="line2d_11">
    <path d="M 281.355347 475.827287 
L 281.355347 219.09253 
" clip-path="url(#pe6e5e485f3)" style="fill: none; stroke: #3f3f3f; stroke-width: 1.875; stroke-linecap: square"/>
   </g>
   <g id="line2d_12">
    <path d="M 281.355347 348.026903 
L 281.355347 247.669014 
" clip-path="url(#pe6e5e485f3)" style="fill: none; stroke: #3f3f3f; stroke-width: 5.625; stroke-linecap: square"/>
   </g>
   <g id="line2d_13">
    <path d="M 281.355347 272.276542 
" clip-path="url(#pe6e5e485f3)" style="fill: none; stroke: #3f3f3f; stroke-width: 1.5; stroke-linecap: square"/>
    <g clip-path="url(#pe6e5e485f3)">
     <use xlink:href="#m1b19ab3990" x="281.355347" y="272.276542" style="fill: #ffffff; stroke: #ffffff; stroke-width: 1.125"/>
    </g>
   </g>
   <g id="line2d_14">
    <path d="M 641.735132 531.61947 
L 641.735132 219.09253 
" clip-path="url(#pe6e5e485f3)" style="fill: none; stroke: #3f3f3f; stroke-width: 1.875; stroke-linecap: square"/>
   </g>
   <g id="line2d_15">
    <path d="M 641.735132 378.190969 
L 641.735132 247.669014 
" clip-path="url(#pe6e5e485f3)" style="fill: none; stroke: #3f3f3f; stroke-width: 5.625; stroke-linecap: square"/>
   </g>
   <g id="line2d_16">
    <path d="M 641.735132 292.23472 
" clip-path="url(#pe6e5e485f3)" style="fill: none; stroke: #3f3f3f; stroke-width: 1.5; stroke-linecap: square"/>
    <g clip-path="url(#pe6e5e485f3)">
     <use xlink:href="#m1b19ab3990" x="641.735132" y="292.23472" style="fill: #ffffff; stroke: #ffffff; stroke-width: 1.125"/>
    </g>
   </g>
   <g id="line2d_17">
    <path d="M 647.360132 470.610945 
L 647.360132 219.09253 
" clip-path="url(#pe6e5e485f3)" style="fill: none; stroke: #3f3f3f; stroke-width: 1.875; stroke-linecap: square"/>
   </g>
   <g id="line2d_18">
    <path d="M 647.360132 342.413665 
L 647.360132 247.669014 
" clip-path="url(#pe6e5e485f3)" style="fill: none; stroke: #3f3f3f; stroke-width: 5.625; stroke-linecap: square"/>
   </g>
   <g id="line2d_19">
    <path d="M 647.360132 268.874579 
" clip-path="url(#pe6e5e485f3)" style="fill: none; stroke: #3f3f3f; stroke-width: 1.5; stroke-linecap: square"/>
    <g clip-path="url(#pe6e5e485f3)">
     <use xlink:href="#m1b19ab3990" x="647.360132" y="268.874579" style="fill: #ffffff; stroke: #ffffff; stroke-width: 1.125"/>
    </g>
   </g>
   <g id="patch_6">
    <path d="M 60.77 661.48 
L 60.77 89.232 
" style="fill: none; stroke: #000000; stroke-width: 0.8; stroke-linejoin: miter; stroke-linecap: square"/>
   </g>
   <g id="patch_7">
    <path d="M 825.72 661.48 
L 825.72 89.232 
" style="fill: none; stroke: #000000; stroke-width: 0.8; stroke-linejoin: miter; stroke-linecap: square"/>
   </g>
   <g id="patch_8">
    <path d="M 60.77 661.48 
L 825.72 661.48 
" style="fill: none; stroke: #000000; stroke-width: 0.8; stroke-linejoin: miter; stroke-linecap: square"/>
   </g>
   <g id="patch_9">
    <path d="M 60.77 89.232 
L 825.72 89.232 
" style="fill: none; stroke: #000000; stroke-width: 0.8; stroke-linejoin: miter; stroke-linecap: square"/>
   </g>
   <g id="text_10">
    <!-- Violinplot of Scores Grouped by Statistical Test  -->
    <g transform="translate(254.4625 65.3155) scale(0.16 -0.16)">
     <defs>
      <path id="DejaVuSans-56" d="M 1831 0 
L 50 4666 
L 709 4666 
L 2188 738 
L 3669 4666 
L 4325 4666 
L 2547 0 
L 1831 0 
z
" transform="scale(0.015625)"/>
      <path id="DejaVuSans-70" d="M 1159 525 
L 1159 -1331 
L 581 -1331 
L 581 3500 
L 1159 3500 
L 1159 2969 
Q 1341 3281 1617 3432 
Q 1894 3584 2278 3584 
Q 2916 3584 3314 3078 
Q 3713 2572 3713 1747 
Q 3713 922 3314 415 
Q 2916 -91 2278 -91 
Q 1894 -91 1617 61 
Q 1341 213 1159 525 
z
M 3116 1747 
Q 3116 2381 2855 2742 
Q 2594 3103 2138 3103 
Q 1681 3103 1420 2742 
Q 1159 2381 1159 1747 
Q 1159 1113 1420 752 
Q 1681 391 2138 391 
Q 2594 391 2855 752 
Q 3116 1113 3116 1747 
z
" transform="scale(0.015625)"/>
      <path id="DejaVuSans-66" d="M 2375 4863 
L 2375 4384 
L 1825 4384 
Q 1516 4384 1395 4259 
Q 1275 4134 1275 3809 
L 1275 3500 
L 2222 3500 
L 2222 3053 
L 1275 3053 
L 1275 0 
L 697 0 
L 697 3053 
L 147 3053 
L 147 3500 
L 697 3500 
L 697 3744 
Q 697 4328 969 4595 
Q 1241 4863 1831 4863 
L 2375 4863 
z
" transform="scale(0.015625)"/>
      <path id="DejaVuSans-47" d="M 3809 666 
L 3809 1919 
L 2778 1919 
L 2778 2438 
L 4434 2438 
L 4434 434 
Q 4069 175 3628 42 
Q 3188 -91 2688 -91 
Q 1594 -91 976 548 
Q 359 1188 359 2328 
Q 359 3472 976 4111 
Q 1594 4750 2688 4750 
Q 3144 4750 3555 4637 
Q 3966 4525 4313 4306 
L 4313 3634 
Q 3963 3931 3569 4081 
Q 3175 4231 2741 4231 
Q 1884 4231 1454 3753 
Q 1025 3275 1025 2328 
Q 1025 1384 1454 906 
Q 1884 428 2741 428 
Q 3075 428 3337 486 
Q 3600 544 3809 666 
z
" transform="scale(0.015625)"/>
      <path id="DejaVuSans-64" d="M 2906 2969 
L 2906 4863 
L 3481 4863 
L 3481 0 
L 2906 0 
L 2906 525 
Q 2725 213 2448 61 
Q 2172 -91 1784 -91 
Q 1150 -91 751 415 
Q 353 922 353 1747 
Q 353 2572 751 3078 
Q 1150 3584 1784 3584 
Q 2172 3584 2448 3432 
Q 2725 3281 2906 2969 
z
M 947 1747 
Q 947 1113 1208 752 
Q 1469 391 1925 391 
Q 2381 391 2643 752 
Q 2906 1113 2906 1747 
Q 2906 2381 2643 2742 
Q 2381 3103 1925 3103 
Q 1469 3103 1208 2742 
Q 947 2381 947 1747 
z
" transform="scale(0.015625)"/>
      <path id="DejaVuSans-62" d="M 3116 1747 
Q 3116 2381 2855 2742 
Q 2594 3103 2138 3103 
Q 1681 3103 1420 2742 
Q 1159 2381 1159 1747 
Q 1159 1113 1420 752 
Q 1681 391 2138 391 
Q 2594 391 2855 752 
Q 3116 1113 3116 1747 
z
M 1159 2969 
Q 1341 3281 1617 3432 
Q 1894 3584 2278 3584 
Q 2916 3584 3314 3078 
Q 3713 2572 3713 1747 
Q 3713 922 3314 415 
Q 2916 -91 2278 -91 
Q 1894 -91 1617 61 
Q 1341 213 1159 525 
L 1159 0 
L 581 0 
L 581 4863 
L 1159 4863 
L 1159 2969 
z
" transform="scale(0.015625)"/>
      <path id="DejaVuSans-79" d="M 2059 -325 
Q 1816 -950 1584 -1140 
Q 1353 -1331 966 -1331 
L 506 -1331 
L 506 -850 
L 844 -850 
Q 1081 -850 1212 -737 
Q 1344 -625 1503 -206 
L 1606 56 
L 191 3500 
L 800 3500 
L 1894 763 
L 2988 3500 
L 3597 3500 
L 2059 -325 
z
" transform="scale(0.015625)"/>
     </defs>
     <use xlink:href="#DejaVuSans-56"/>
     <use xlink:href="#DejaVuSans-69" x="66.158203"/>
     <use xlink:href="#DejaVuSans-6f" x="93.941406"/>
     <use xlink:href="#DejaVuSans-6c" x="155.123047"/>
     <use xlink:href="#DejaVuSans-69" x="182.90625"/>
     <use xlink:href="#DejaVuSans-6e" x="210.689453"/>
     <use xlink:href="#DejaVuSans-70" x="274.068359"/>
     <use xlink:href="#DejaVuSans-6c" x="337.544922"/>
     <use xlink:href="#DejaVuSans-6f" x="365.328125"/>
     <use xlink:href="#DejaVuSans-74" x="426.509766"/>
     <use xlink:href="#DejaVuSans-20" x="465.71875"/>
     <use xlink:href="#DejaVuSans-6f" x="497.505859"/>
     <use xlink:href="#DejaVuSans-66" x="558.6875"/>
     <use xlink:href="#DejaVuSans-20" x="593.892578"/>
     <use xlink:href="#DejaVuSans-53" x="625.679688"/>
     <use xlink:href="#DejaVuSans-63" x="689.15625"/>
     <use xlink:href="#DejaVuSans-6f" x="744.136719"/>
     <use xlink:href="#DejaVuSans-72" x="805.318359"/>
     <use xlink:href="#DejaVuSans-65" x="844.181641"/>
     <use xlink:href="#DejaVuSans-73" x="905.705078"/>
     <use xlink:href="#DejaVuSans-20" x="957.804688"/>
     <use xlink:href="#DejaVuSans-47" x="989.591797"/>
     <use xlink:href="#DejaVuSans-72" x="1067.082031"/>
     <use xlink:href="#DejaVuSans-6f" x="1105.945312"/>
     <use xlink:href="#DejaVuSans-75" x="1167.126953"/>
     <use xlink:href="#DejaVuSans-70" x="1230.505859"/>
     <use xlink:href="#DejaVuSans-65" x="1293.982422"/>
     <use xlink:href="#DejaVuSans-64" x="1355.505859"/>
     <use xlink:href="#DejaVuSans-20" x="1418.982422"/>
     <use xlink:href="#DejaVuSans-62" x="1450.769531"/>
     <use xlink:href="#DejaVuSans-79" x="1514.246094"/>
     <use xlink:href="#DejaVuSans-20" x="1573.425781"/>
     <use xlink:href="#DejaVuSans-53" x="1605.212891"/>
     <use xlink:href="#DejaVuSans-74" x="1668.689453"/>
     <use xlink:href="#DejaVuSans-61" x="1707.898438"/>
     <use xlink:href="#DejaVuSans-74" x="1769.177734"/>
     <use xlink:href="#DejaVuSans-69" x="1808.386719"/>
     <use xlink:href="#DejaVuSans-73" x="1836.169922"/>
     <use xlink:href="#DejaVuSans-74" x="1888.269531"/>
     <use xlink:href="#DejaVuSans-69" x="1927.478516"/>
     <use xlink:href="#DejaVuSans-63" x="1955.261719"/>
     <use xlink:href="#DejaVuSans-61" x="2010.242188"/>
     <use xlink:href="#DejaVuSans-6c" x="2071.521484"/>
     <use xlink:href="#DejaVuSans-20" x="2099.304688"/>
     <use xlink:href="#DejaVuSans-54" x="2131.091797"/>
     <use xlink:href="#DejaVuSans-65" x="2175.175781"/>
     <use xlink:href="#DejaVuSans-73" x="2236.699219"/>
     <use xlink:href="#DejaVuSans-74" x="2288.798828"/>
     <use xlink:href="#DejaVuSans-20" x="2328.007812"/>
    </g>
    <!-- Across all subjects -->
    <g transform="translate(369.57875 83.232) scale(0.16 -0.16)">
     <defs>
      <path id="DejaVuSans-41" d="M 2188 4044 
L 1331 1722 
L 3047 1722 
L 2188 4044 
z
M 1831 4666 
L 2547 4666 
L 4325 0 
L 3669 0 
L 3244 1197 
L 1141 1197 
L 716 0 
L 50 0 
L 1831 4666 
z
" transform="scale(0.015625)"/>
      <path id="DejaVuSans-6a" d="M 603 3500 
L 1178 3500 
L 1178 -63 
Q 1178 -731 923 -1031 
Q 669 -1331 103 -1331 
L -116 -1331 
L -116 -844 
L 38 -844 
Q 366 -844 484 -692 
Q 603 -541 603 -63 
L 603 3500 
z
M 603 4863 
L 1178 4863 
L 1178 4134 
L 603 4134 
L 603 4863 
z
" transform="scale(0.015625)"/>
     </defs>
     <use xlink:href="#DejaVuSans-41"/>
     <use xlink:href="#DejaVuSans-63" x="66.658203"/>
     <use xlink:href="#DejaVuSans-72" x="121.638672"/>
     <use xlink:href="#DejaVuSans-6f" x="160.501953"/>
     <use xlink:href="#DejaVuSans-73" x="221.683594"/>
     <use xlink:href="#DejaVuSans-73" x="273.783203"/>
     <use xlink:href="#DejaVuSans-20" x="325.882812"/>
     <use xlink:href="#DejaVuSans-61" x="357.669922"/>
     <use xlink:href="#DejaVuSans-6c" x="418.949219"/>
     <use xlink:href="#DejaVuSans-6c" x="446.732422"/>
     <use xlink:href="#DejaVuSans-20" x="474.515625"/>
     <use xlink:href="#DejaVuSans-73" x="506.302734"/>
     <use xlink:href="#DejaVuSans-75" x="558.402344"/>
     <use xlink:href="#DejaVuSans-62" x="621.78125"/>
     <use xlink:href="#DejaVuSans-6a" x="685.257812"/>
     <use xlink:href="#DejaVuSans-65" x="713.041016"/>
     <use xlink:href="#DejaVuSans-63" x="774.564453"/>
     <use xlink:href="#DejaVuSans-74" x="829.544922"/>
     <use xlink:href="#DejaVuSans-73" x="868.753906"/>
    </g>
   </g>
   <g id="legend_1">
    <g id="patch_10">
     <path d="M 667.60625 149.737625 
L 855.5675 149.737625 
Q 857.9675 149.737625 857.9675 147.337625 
L 857.9675 97.632 
Q 857.9675 95.232 855.5675 95.232 
L 667.60625 95.232 
Q 665.20625 95.232 665.20625 97.632 
L 665.20625 147.337625 
Q 665.20625 149.737625 667.60625 149.737625 
z
" style="fill: #ffffff; opacity: 0.8; stroke: #cccccc; stroke-linejoin: miter"/>
    </g>
    <g id="text_11">
     <!-- Score Type -->
     <g transform="translate(734.512656 107.630437) scale(0.1 -0.1)">
      <use xlink:href="#DejaVuSans-53"/>
      <use xlink:href="#DejaVuSans-63" x="63.476562"/>
      <use xlink:href="#DejaVuSans-6f" x="118.457031"/>
      <use xlink:href="#DejaVuSans-72" x="179.638672"/>
      <use xlink:href="#DejaVuSans-65" x="218.501953"/>
      <use xlink:href="#DejaVuSans-20" x="280.025391"/>
      <use xlink:href="#DejaVuSans-54" x="311.8125"/>
      <use xlink:href="#DejaVuSans-79" x="357.271484"/>
      <use xlink:href="#DejaVuSans-70" x="416.451172"/>
      <use xlink:href="#DejaVuSans-65" x="479.927734"/>
     </g>
    </g>
    <g id="patch_11">
     <path d="M 670.00625 124.82825 
L 694.00625 124.82825 
L 694.00625 116.42825 
L 670.00625 116.42825 
z
" style="fill: #3274a1; stroke: #3f3f3f; stroke-width: 1.25; stroke-linejoin: miter"/>
    </g>
    <g id="text_12">
     <!-- Score: (x real, y real) -->
     <g transform="translate(703.60625 124.82825) scale(0.12 -0.12)">
      <defs>
       <path id="DejaVuSans-3a" d="M 750 794 
L 1409 794 
L 1409 0 
L 750 0 
L 750 794 
z
M 750 3309 
L 1409 3309 
L 1409 2516 
L 750 2516 
L 750 3309 
z
" transform="scale(0.015625)"/>
       <path id="DejaVuSans-28" d="M 1984 4856 
Q 1566 4138 1362 3434 
Q 1159 2731 1159 2009 
Q 1159 1288 1364 580 
Q 1569 -128 1984 -844 
L 1484 -844 
Q 1016 -109 783 600 
Q 550 1309 550 2009 
Q 550 2706 781 3412 
Q 1013 4119 1484 4856 
L 1984 4856 
z
" transform="scale(0.015625)"/>
       <path id="DejaVuSans-78" d="M 3513 3500 
L 2247 1797 
L 3578 0 
L 2900 0 
L 1881 1375 
L 863 0 
L 184 0 
L 1544 1831 
L 300 3500 
L 978 3500 
L 1906 2253 
L 2834 3500 
L 3513 3500 
z
" transform="scale(0.015625)"/>
       <path id="DejaVuSans-2c" d="M 750 794 
L 1409 794 
L 1409 256 
L 897 -744 
L 494 -744 
L 750 256 
L 750 794 
z
" transform="scale(0.015625)"/>
       <path id="DejaVuSans-29" d="M 513 4856 
L 1013 4856 
Q 1481 4119 1714 3412 
Q 1947 2706 1947 2009 
Q 1947 1309 1714 600 
Q 1481 -109 1013 -844 
L 513 -844 
Q 928 -128 1133 580 
Q 1338 1288 1338 2009 
Q 1338 2731 1133 3434 
Q 928 4138 513 4856 
z
" transform="scale(0.015625)"/>
      </defs>
      <use xlink:href="#DejaVuSans-53"/>
      <use xlink:href="#DejaVuSans-63" x="63.476562"/>
      <use xlink:href="#DejaVuSans-6f" x="118.457031"/>
      <use xlink:href="#DejaVuSans-72" x="179.638672"/>
      <use xlink:href="#DejaVuSans-65" x="218.501953"/>
      <use xlink:href="#DejaVuSans-3a" x="280.025391"/>
      <use xlink:href="#DejaVuSans-20" x="313.716797"/>
      <use xlink:href="#DejaVuSans-28" x="345.503906"/>
      <use xlink:href="#DejaVuSans-78" x="384.517578"/>
      <use xlink:href="#DejaVuSans-20" x="443.697266"/>
      <use xlink:href="#DejaVuSans-72" x="475.484375"/>
      <use xlink:href="#DejaVuSans-65" x="514.347656"/>
      <use xlink:href="#DejaVuSans-61" x="575.871094"/>
      <use xlink:href="#DejaVuSans-6c" x="637.150391"/>
      <use xlink:href="#DejaVuSans-2c" x="664.933594"/>
      <use xlink:href="#DejaVuSans-20" x="696.720703"/>
      <use xlink:href="#DejaVuSans-79" x="728.507812"/>
      <use xlink:href="#DejaVuSans-20" x="787.6875"/>
      <use xlink:href="#DejaVuSans-72" x="819.474609"/>
      <use xlink:href="#DejaVuSans-65" x="858.337891"/>
      <use xlink:href="#DejaVuSans-61" x="919.861328"/>
      <use xlink:href="#DejaVuSans-6c" x="981.140625"/>
      <use xlink:href="#DejaVuSans-29" x="1008.923828"/>
     </g>
    </g>
    <g id="patch_12">
     <path d="M 670.00625 142.442 
L 694.00625 142.442 
L 694.00625 134.042 
L 670.00625 134.042 
z
" style="fill: #e1812c; stroke: #3f3f3f; stroke-width: 1.25; stroke-linejoin: miter"/>
    </g>
    <g id="text_13">
     <!-- Score: (x random, y real) -->
     <g transform="translate(703.60625 142.442) scale(0.12 -0.12)">
      <defs>
       <path id="DejaVuSans-6d" d="M 3328 2828 
Q 3544 3216 3844 3400 
Q 4144 3584 4550 3584 
Q 5097 3584 5394 3201 
Q 5691 2819 5691 2113 
L 5691 0 
L 5113 0 
L 5113 2094 
Q 5113 2597 4934 2840 
Q 4756 3084 4391 3084 
Q 3944 3084 3684 2787 
Q 3425 2491 3425 1978 
L 3425 0 
L 2847 0 
L 2847 2094 
Q 2847 2600 2669 2842 
Q 2491 3084 2119 3084 
Q 1678 3084 1418 2786 
Q 1159 2488 1159 1978 
L 1159 0 
L 581 0 
L 581 3500 
L 1159 3500 
L 1159 2956 
Q 1356 3278 1631 3431 
Q 1906 3584 2284 3584 
Q 2666 3584 2933 3390 
Q 3200 3197 3328 2828 
z
" transform="scale(0.015625)"/>
      </defs>
      <use xlink:href="#DejaVuSans-53"/>
      <use xlink:href="#DejaVuSans-63" x="63.476562"/>
      <use xlink:href="#DejaVuSans-6f" x="118.457031"/>
      <use xlink:href="#DejaVuSans-72" x="179.638672"/>
      <use xlink:href="#DejaVuSans-65" x="218.501953"/>
      <use xlink:href="#DejaVuSans-3a" x="280.025391"/>
      <use xlink:href="#DejaVuSans-20" x="313.716797"/>
      <use xlink:href="#DejaVuSans-28" x="345.503906"/>
      <use xlink:href="#DejaVuSans-78" x="384.517578"/>
      <use xlink:href="#DejaVuSans-20" x="443.697266"/>
      <use xlink:href="#DejaVuSans-72" x="475.484375"/>
      <use xlink:href="#DejaVuSans-61" x="516.597656"/>
      <use xlink:href="#DejaVuSans-6e" x="577.876953"/>
      <use xlink:href="#DejaVuSans-64" x="641.255859"/>
      <use xlink:href="#DejaVuSans-6f" x="704.732422"/>
      <use xlink:href="#DejaVuSans-6d" x="765.914062"/>
      <use xlink:href="#DejaVuSans-2c" x="863.326172"/>
      <use xlink:href="#DejaVuSans-20" x="895.113281"/>
      <use xlink:href="#DejaVuSans-79" x="926.900391"/>
      <use xlink:href="#DejaVuSans-20" x="986.080078"/>
      <use xlink:href="#DejaVuSans-72" x="1017.867188"/>
      <use xlink:href="#DejaVuSans-65" x="1056.730469"/>
      <use xlink:href="#DejaVuSans-61" x="1118.253906"/>
      <use xlink:href="#DejaVuSans-6c" x="1179.533203"/>
      <use xlink:href="#DejaVuSans-29" x="1207.316406"/>
     </g>
    </g>
   </g>
  </g>
  <g id="text_14">
   <!-- Filters applied: Subject ID=All (1), Hemisphere=All (2), Task=All (5), -->
   <g transform="translate(262.042969 7.598438) scale(0.1 -0.1)">
    <defs>
     <path id="DejaVuSans-46" d="M 628 4666 
L 3309 4666 
L 3309 4134 
L 1259 4134 
L 1259 2759 
L 3109 2759 
L 3109 2228 
L 1259 2228 
L 1259 0 
L 628 0 
L 628 4666 
z
" transform="scale(0.015625)"/>
     <path id="DejaVuSans-49" d="M 628 4666 
L 1259 4666 
L 1259 0 
L 628 0 
L 628 4666 
z
" transform="scale(0.015625)"/>
     <path id="DejaVuSans-3d" d="M 678 2906 
L 4684 2906 
L 4684 2381 
L 678 2381 
L 678 2906 
z
M 678 1631 
L 4684 1631 
L 4684 1100 
L 678 1100 
L 678 1631 
z
" transform="scale(0.015625)"/>
     <path id="DejaVuSans-48" d="M 628 4666 
L 1259 4666 
L 1259 2753 
L 3553 2753 
L 3553 4666 
L 4184 4666 
L 4184 0 
L 3553 0 
L 3553 2222 
L 1259 2222 
L 1259 0 
L 628 0 
L 628 4666 
z
" transform="scale(0.015625)"/>
     <path id="DejaVuSans-6b" d="M 581 4863 
L 1159 4863 
L 1159 1991 
L 2875 3500 
L 3609 3500 
L 1753 1863 
L 3688 0 
L 2938 0 
L 1159 1709 
L 1159 0 
L 581 0 
L 581 4863 
z
" transform="scale(0.015625)"/>
    </defs>
    <use xlink:href="#DejaVuSans-46"/>
    <use xlink:href="#DejaVuSans-69" x="50.269531"/>
    <use xlink:href="#DejaVuSans-6c" x="78.052734"/>
    <use xlink:href="#DejaVuSans-74" x="105.835938"/>
    <use xlink:href="#DejaVuSans-65" x="145.044922"/>
    <use xlink:href="#DejaVuSans-72" x="206.568359"/>
    <use xlink:href="#DejaVuSans-73" x="247.681641"/>
    <use xlink:href="#DejaVuSans-20" x="299.78125"/>
    <use xlink:href="#DejaVuSans-61" x="331.568359"/>
    <use xlink:href="#DejaVuSans-70" x="392.847656"/>
    <use xlink:href="#DejaVuSans-70" x="456.324219"/>
    <use xlink:href="#DejaVuSans-6c" x="519.800781"/>
    <use xlink:href="#DejaVuSans-69" x="547.583984"/>
    <use xlink:href="#DejaVuSans-65" x="575.367188"/>
    <use xlink:href="#DejaVuSans-64" x="636.890625"/>
    <use xlink:href="#DejaVuSans-3a" x="700.367188"/>
    <use xlink:href="#DejaVuSans-20" x="734.058594"/>
    <use xlink:href="#DejaVuSans-53" x="765.845703"/>
    <use xlink:href="#DejaVuSans-75" x="829.322266"/>
    <use xlink:href="#DejaVuSans-62" x="892.701172"/>
    <use xlink:href="#DejaVuSans-6a" x="956.177734"/>
    <use xlink:href="#DejaVuSans-65" x="983.960938"/>
    <use xlink:href="#DejaVuSans-63" x="1045.484375"/>
    <use xlink:href="#DejaVuSans-74" x="1100.464844"/>
    <use xlink:href="#DejaVuSans-20" x="1139.673828"/>
    <use xlink:href="#DejaVuSans-49" x="1171.460938"/>
    <use xlink:href="#DejaVuSans-44" x="1200.953125"/>
    <use xlink:href="#DejaVuSans-3d" x="1277.955078"/>
    <use xlink:href="#DejaVuSans-41" x="1361.744141"/>
    <use xlink:href="#DejaVuSans-6c" x="1430.152344"/>
    <use xlink:href="#DejaVuSans-6c" x="1457.935547"/>
    <use xlink:href="#DejaVuSans-20" x="1485.71875"/>
    <use xlink:href="#DejaVuSans-28" x="1517.505859"/>
    <use xlink:href="#DejaVuSans-31" x="1556.519531"/>
    <use xlink:href="#DejaVuSans-29" x="1620.142578"/>
    <use xlink:href="#DejaVuSans-2c" x="1659.15625"/>
    <use xlink:href="#DejaVuSans-20" x="1690.943359"/>
    <use xlink:href="#DejaVuSans-48" x="1722.730469"/>
    <use xlink:href="#DejaVuSans-65" x="1797.925781"/>
    <use xlink:href="#DejaVuSans-6d" x="1859.449219"/>
    <use xlink:href="#DejaVuSans-69" x="1956.861328"/>
    <use xlink:href="#DejaVuSans-73" x="1984.644531"/>
    <use xlink:href="#DejaVuSans-70" x="2036.744141"/>
    <use xlink:href="#DejaVuSans-68" x="2100.220703"/>
    <use xlink:href="#DejaVuSans-65" x="2163.599609"/>
    <use xlink:href="#DejaVuSans-72" x="2225.123047"/>
    <use xlink:href="#DejaVuSans-65" x="2263.986328"/>
    <use xlink:href="#DejaVuSans-3d" x="2325.509766"/>
    <use xlink:href="#DejaVuSans-41" x="2409.298828"/>
    <use xlink:href="#DejaVuSans-6c" x="2477.707031"/>
    <use xlink:href="#DejaVuSans-6c" x="2505.490234"/>
    <use xlink:href="#DejaVuSans-20" x="2533.273438"/>
    <use xlink:href="#DejaVuSans-28" x="2565.060547"/>
    <use xlink:href="#DejaVuSans-32" x="2604.074219"/>
    <use xlink:href="#DejaVuSans-29" x="2667.697266"/>
    <use xlink:href="#DejaVuSans-2c" x="2706.710938"/>
    <use xlink:href="#DejaVuSans-20" x="2738.498047"/>
    <use xlink:href="#DejaVuSans-54" x="2770.285156"/>
    <use xlink:href="#DejaVuSans-61" x="2814.869141"/>
    <use xlink:href="#DejaVuSans-73" x="2876.148438"/>
    <use xlink:href="#DejaVuSans-6b" x="2928.248047"/>
    <use xlink:href="#DejaVuSans-3d" x="2986.158203"/>
    <use xlink:href="#DejaVuSans-41" x="3069.947266"/>
    <use xlink:href="#DejaVuSans-6c" x="3138.355469"/>
    <use xlink:href="#DejaVuSans-6c" x="3166.138672"/>
    <use xlink:href="#DejaVuSans-20" x="3193.921875"/>
    <use xlink:href="#DejaVuSans-28" x="3225.708984"/>
    <use xlink:href="#DejaVuSans-35" x="3264.722656"/>
    <use xlink:href="#DejaVuSans-29" x="3328.345703"/>
    <use xlink:href="#DejaVuSans-2c" x="3367.359375"/>
   </g>
   <!-- Statistical Test=['Levenshtein Distance - Y as Truth', 'Levenshtein Distance - X -->
   <g transform="translate(236.8625 18.79625) scale(0.1 -0.1)">
    <defs>
     <path id="DejaVuSans-5b" d="M 550 4863 
L 1875 4863 
L 1875 4416 
L 1125 4416 
L 1125 -397 
L 1875 -397 
L 1875 -844 
L 550 -844 
L 550 4863 
z
" transform="scale(0.015625)"/>
     <path id="DejaVuSans-27" d="M 1147 4666 
L 1147 2931 
L 616 2931 
L 616 4666 
L 1147 4666 
z
" transform="scale(0.015625)"/>
    </defs>
    <use xlink:href="#DejaVuSans-53"/>
    <use xlink:href="#DejaVuSans-74" x="63.476562"/>
    <use xlink:href="#DejaVuSans-61" x="102.685547"/>
    <use xlink:href="#DejaVuSans-74" x="163.964844"/>
    <use xlink:href="#DejaVuSans-69" x="203.173828"/>
    <use xlink:href="#DejaVuSans-73" x="230.957031"/>
    <use xlink:href="#DejaVuSans-74" x="283.056641"/>
    <use xlink:href="#DejaVuSans-69" x="322.265625"/>
    <use xlink:href="#DejaVuSans-63" x="350.048828"/>
    <use xlink:href="#DejaVuSans-61" x="405.029297"/>
    <use xlink:href="#DejaVuSans-6c" x="466.308594"/>
    <use xlink:href="#DejaVuSans-20" x="494.091797"/>
    <use xlink:href="#DejaVuSans-54" x="525.878906"/>
    <use xlink:href="#DejaVuSans-65" x="569.962891"/>
    <use xlink:href="#DejaVuSans-73" x="631.486328"/>
    <use xlink:href="#DejaVuSans-74" x="683.585938"/>
    <use xlink:href="#DejaVuSans-3d" x="722.794922"/>
    <use xlink:href="#DejaVuSans-5b" x="806.583984"/>
    <use xlink:href="#DejaVuSans-27" x="845.597656"/>
    <use xlink:href="#DejaVuSans-4c" x="873.087891"/>
    <use xlink:href="#DejaVuSans-65" x="927.050781"/>
    <use xlink:href="#DejaVuSans-76" x="988.574219"/>
    <use xlink:href="#DejaVuSans-65" x="1047.753906"/>
    <use xlink:href="#DejaVuSans-6e" x="1109.277344"/>
    <use xlink:href="#DejaVuSans-73" x="1172.65625"/>
    <use xlink:href="#DejaVuSans-68" x="1224.755859"/>
    <use xlink:href="#DejaVuSans-74" x="1288.134766"/>
    <use xlink:href="#DejaVuSans-65" x="1327.34375"/>
    <use xlink:href="#DejaVuSans-69" x="1388.867188"/>
    <use xlink:href="#DejaVuSans-6e" x="1416.650391"/>
    <use xlink:href="#DejaVuSans-20" x="1480.029297"/>
    <use xlink:href="#DejaVuSans-44" x="1511.816406"/>
    <use xlink:href="#DejaVuSans-69" x="1588.818359"/>
    <use xlink:href="#DejaVuSans-73" x="1616.601562"/>
    <use xlink:href="#DejaVuSans-74" x="1668.701172"/>
    <use xlink:href="#DejaVuSans-61" x="1707.910156"/>
    <use xlink:href="#DejaVuSans-6e" x="1769.189453"/>
    <use xlink:href="#DejaVuSans-63" x="1832.568359"/>
    <use xlink:href="#DejaVuSans-65" x="1887.548828"/>
    <use xlink:href="#DejaVuSans-20" x="1949.072266"/>
    <use xlink:href="#DejaVuSans-2d" x="1980.859375"/>
    <use xlink:href="#DejaVuSans-20" x="2016.943359"/>
    <use xlink:href="#DejaVuSans-59" x="2048.730469"/>
    <use xlink:href="#DejaVuSans-20" x="2109.814453"/>
    <use xlink:href="#DejaVuSans-61" x="2141.601562"/>
    <use xlink:href="#DejaVuSans-73" x="2202.880859"/>
    <use xlink:href="#DejaVuSans-20" x="2254.980469"/>
    <use xlink:href="#DejaVuSans-54" x="2286.767578"/>
    <use xlink:href="#DejaVuSans-72" x="2333.101562"/>
    <use xlink:href="#DejaVuSans-75" x="2374.214844"/>
    <use xlink:href="#DejaVuSans-74" x="2437.59375"/>
    <use xlink:href="#DejaVuSans-68" x="2476.802734"/>
    <use xlink:href="#DejaVuSans-27" x="2540.181641"/>
    <use xlink:href="#DejaVuSans-2c" x="2567.671875"/>
    <use xlink:href="#DejaVuSans-20" x="2599.458984"/>
    <use xlink:href="#DejaVuSans-27" x="2631.246094"/>
    <use xlink:href="#DejaVuSans-4c" x="2658.736328"/>
    <use xlink:href="#DejaVuSans-65" x="2712.699219"/>
    <use xlink:href="#DejaVuSans-76" x="2774.222656"/>
    <use xlink:href="#DejaVuSans-65" x="2833.402344"/>
    <use xlink:href="#DejaVuSans-6e" x="2894.925781"/>
    <use xlink:href="#DejaVuSans-73" x="2958.304688"/>
    <use xlink:href="#DejaVuSans-68" x="3010.404297"/>
    <use xlink:href="#DejaVuSans-74" x="3073.783203"/>
    <use xlink:href="#DejaVuSans-65" x="3112.992188"/>
    <use xlink:href="#DejaVuSans-69" x="3174.515625"/>
    <use xlink:href="#DejaVuSans-6e" x="3202.298828"/>
    <use xlink:href="#DejaVuSans-20" x="3265.677734"/>
    <use xlink:href="#DejaVuSans-44" x="3297.464844"/>
    <use xlink:href="#DejaVuSans-69" x="3374.466797"/>
    <use xlink:href="#DejaVuSans-73" x="3402.25"/>
    <use xlink:href="#DejaVuSans-74" x="3454.349609"/>
    <use xlink:href="#DejaVuSans-61" x="3493.558594"/>
    <use xlink:href="#DejaVuSans-6e" x="3554.837891"/>
    <use xlink:href="#DejaVuSans-63" x="3618.216797"/>
    <use xlink:href="#DejaVuSans-65" x="3673.197266"/>
    <use xlink:href="#DejaVuSans-20" x="3734.720703"/>
    <use xlink:href="#DejaVuSans-2d" x="3766.507812"/>
    <use xlink:href="#DejaVuSans-20" x="3802.591797"/>
    <use xlink:href="#DejaVuSans-58" x="3834.378906"/>
   </g>
   <!-- as Truth'] -->
   <g transform="translate(408.747656 29.994063) scale(0.1 -0.1)">
    <defs>
     <path id="DejaVuSans-5d" d="M 1947 4863 
L 1947 -844 
L 622 -844 
L 622 -397 
L 1369 -397 
L 1369 4416 
L 622 4416 
L 622 4863 
L 1947 4863 
z
" transform="scale(0.015625)"/>
    </defs>
    <use xlink:href="#DejaVuSans-61"/>
    <use xlink:href="#DejaVuSans-73" x="61.279297"/>
    <use xlink:href="#DejaVuSans-20" x="113.378906"/>
    <use xlink:href="#DejaVuSans-54" x="145.166016"/>
    <use xlink:href="#DejaVuSans-72" x="191.5"/>
    <use xlink:href="#DejaVuSans-75" x="232.613281"/>
    <use xlink:href="#DejaVuSans-74" x="295.992188"/>
    <use xlink:href="#DejaVuSans-68" x="335.201172"/>
    <use xlink:href="#DejaVuSans-27" x="398.580078"/>
    <use xlink:href="#DejaVuSans-5d" x="426.070312"/>
   </g>
  </g>
 </g>
 <defs>
  <clipPath id="pe6e5e485f3">
   <rect x="60.77" y="89.232" width="764.95" height="572.248"/>
  </clipPath>
 </defs>
</svg>
